<svg width="223" height="17" viewBox="0 0 223 17" fill="none" xmlns="http://www.w3.org/2000/svg">
<path d="M2.97703 10.588V10.384C2.97703 10.152 2.95303 9.956 2.90503 9.796C2.85703 9.628 2.76503 9.46 2.62903 9.292C2.49303 9.124 2.28903 8.928 2.01703 8.704C1.72903 8.464 1.47703 8.24 1.26103 8.032C1.05303 7.816 0.889031 7.584 0.769031 7.336C0.657031 7.08 0.601031 6.772 0.601031 6.412C0.601031 5.764 0.809031 5.252 1.22503 4.876C1.64103 4.5 2.22903 4.312 2.98903 4.312C3.46903 4.312 3.90103 4.368 4.28503 4.48C4.67703 4.592 5.03303 4.732 5.35303 4.9L4.98103 5.74C4.70903 5.604 4.42103 5.488 4.11703 5.392C3.81303 5.288 3.46103 5.236 3.06103 5.236C2.59703 5.236 2.23703 5.34 1.98103 5.548C1.73303 5.756 1.60903 6.052 1.60903 6.436C1.60903 6.676 1.64503 6.88 1.71703 7.048C1.78903 7.216 1.91303 7.388 2.08903 7.564C2.26503 7.74 2.50503 7.96 2.80903 8.224C3.07303 8.44 3.27703 8.648 3.42103 8.848C3.56503 9.048 3.66503 9.26 3.72103 9.484C3.78503 9.7 3.81703 9.96 3.81703 10.264V10.588H2.97703ZM3.34903 13.168C3.14903 13.168 2.97703 13.104 2.83303 12.976C2.68903 12.848 2.61703 12.64 2.61703 12.352C2.61703 12.056 2.68903 11.848 2.83303 11.728C2.97703 11.608 3.14903 11.548 3.34903 11.548C3.56503 11.548 3.74103 11.608 3.87703 11.728C4.02103 11.848 4.09303 12.056 4.09303 12.352C4.09303 12.64 4.02103 12.848 3.87703 12.976C3.74103 13.104 3.56503 13.168 3.34903 13.168ZM10.9282 16.312C10.2002 16.312 9.51616 16.268 8.87616 16.18C8.24416 16.1 7.68416 15.972 7.19616 15.796C6.71616 15.628 6.34016 15.42 6.06816 15.172C5.79616 14.932 5.66016 14.656 5.66016 14.344C5.66016 14.016 5.79616 13.712 6.06816 13.432C6.34816 13.16 6.76416 12.924 7.31616 12.724C7.87616 12.524 8.57616 12.372 9.41616 12.268C10.2562 12.156 11.2402 12.1 12.3682 12.1C12.5362 12.1 12.6562 12.148 12.7282 12.244C12.8082 12.332 12.8482 12.44 12.8482 12.568C12.8482 12.696 12.7922 12.816 12.6802 12.928C12.5682 13.032 12.4242 13.084 12.2482 13.084C11.4482 13.084 10.7082 13.108 10.0282 13.156C9.34816 13.212 8.75216 13.288 8.24016 13.384C7.73616 13.48 7.34016 13.6 7.05216 13.744C6.77216 13.888 6.63216 14.056 6.63216 14.248C6.63216 14.392 6.72016 14.536 6.89616 14.68C7.07216 14.824 7.33616 14.952 7.68816 15.064C8.04016 15.184 8.48816 15.28 9.03216 15.352C9.57616 15.424 10.2122 15.46 10.9402 15.46C11.3242 15.46 11.6162 15.456 11.8162 15.448C12.0242 15.448 12.1962 15.444 12.3322 15.436C12.4682 15.428 12.6242 15.42 12.8002 15.412L12.6802 16.24C12.5842 16.248 12.4882 16.256 12.3922 16.264C12.2962 16.28 12.1842 16.288 12.0562 16.288C11.9362 16.296 11.7842 16.3 11.6002 16.3C11.4242 16.308 11.2002 16.312 10.9282 16.312ZM13.8781 13.324L14.1901 13.636C13.9421 13.772 13.7821 13.928 13.7101 14.104C13.6381 14.288 13.6421 14.5 13.7221 14.74L13.2181 14.596C13.2821 14.524 13.3541 14.468 13.4341 14.428C13.5141 14.388 13.6021 14.368 13.6981 14.368C13.8421 14.368 13.9621 14.4 14.0581 14.464C14.1541 14.536 14.2021 14.636 14.2021 14.764C14.2021 14.868 14.1621 14.976 14.0821 15.088C14.0021 15.2 13.8701 15.256 13.6861 15.256C13.5341 15.256 13.4021 15.2 13.2901 15.088C13.1861 14.976 13.1341 14.808 13.1341 14.584C13.1341 14.448 13.1581 14.3 13.2061 14.14C13.2621 13.98 13.3421 13.824 13.4461 13.672C13.5581 13.528 13.7021 13.412 13.8781 13.324ZM12.2461 13.06L12.3661 12.076C12.7581 12.076 13.0701 12.052 13.3021 12.004C13.5341 11.956 13.7021 11.86 13.8061 11.716C13.9101 11.564 13.9621 11.34 13.9621 11.044C13.9621 10.844 13.9301 10.608 13.8661 10.336C13.8021 10.056 13.7181 9.76 13.6141 9.448C13.5101 9.136 13.3981 8.828 13.2781 8.524L14.2501 8.164C14.3541 8.42 14.4501 8.712 14.5381 9.04C14.6341 9.368 14.7141 9.692 14.7781 10.012C14.8421 10.332 14.8741 10.612 14.8741 10.852C14.8741 11.172 14.8381 11.456 14.7661 11.704C14.7021 11.944 14.6021 12.152 14.4661 12.328C14.3301 12.496 14.1541 12.636 13.9381 12.748C13.7301 12.852 13.4861 12.932 13.2061 12.988C12.9261 13.036 12.6061 13.06 12.2461 13.06ZM18.8288 13.012C18.8288 12.82 18.8448 12.616 18.8768 12.4C18.9168 12.176 18.9728 11.94 19.0448 11.692C19.1248 11.436 19.2208 11.168 19.3328 10.888L20.1968 11.224C20.1168 11.448 20.0448 11.66 19.9808 11.86C19.9248 12.06 19.8808 12.248 19.8488 12.424C19.8248 12.6 19.8128 12.768 19.8128 12.928C19.8128 13.336 19.9208 13.68 20.1368 13.96C20.3528 14.24 20.6328 14.448 20.9768 14.584C21.3288 14.728 21.7048 14.8 22.1048 14.8C22.8888 14.8 23.5008 14.66 23.9408 14.38C24.3808 14.108 24.6888 13.744 24.8648 13.288C25.0408 12.84 25.1168 12.348 25.0928 11.812L24.8288 4.432H25.8248L26.0168 10.516C26.0328 10.924 26.0968 11.244 26.2088 11.476C26.3288 11.7 26.4888 11.856 26.6888 11.944C26.8888 12.032 27.1088 12.076 27.3488 12.076C27.5168 12.076 27.6368 12.124 27.7088 12.22C27.7888 12.308 27.8288 12.416 27.8288 12.544C27.8288 12.672 27.7728 12.792 27.6608 12.904C27.5488 13.008 27.4048 13.06 27.2288 13.06C26.9808 13.06 26.7688 13.028 26.5928 12.964C26.4168 12.892 26.2728 12.804 26.1608 12.7C26.0488 12.588 25.9608 12.464 25.8968 12.328C25.8328 12.184 25.7848 12.04 25.7528 11.896L26.0888 12.232C26.0568 12.656 25.9648 13.076 25.8128 13.492C25.6688 13.916 25.4448 14.3 25.1408 14.644C24.8368 14.988 24.4288 15.264 23.9168 15.472C23.4128 15.68 22.7888 15.784 22.0448 15.784C21.6288 15.784 21.2248 15.72 20.8328 15.592C20.4488 15.472 20.1048 15.292 19.8008 15.052C19.5048 14.812 19.2688 14.52 19.0928 14.176C18.9168 13.84 18.8288 13.452 18.8288 13.012ZM27.2344 13.06L27.3544 12.076C27.5784 12.076 27.7664 12.028 27.9184 11.932C28.0704 11.836 28.2184 11.676 28.3624 11.452C28.5064 11.228 28.6624 10.928 28.8304 10.552C29.0624 10.04 29.2904 9.652 29.5144 9.388C29.7464 9.124 29.9744 8.944 30.1984 8.848C30.4304 8.752 30.6584 8.704 30.8824 8.704C31.1544 8.704 31.4064 8.776 31.6384 8.92C31.8704 9.056 32.0744 9.24 32.2504 9.472C32.4264 9.704 32.5624 9.96 32.6584 10.24C32.7624 10.512 32.8144 10.784 32.8144 11.056C32.8144 11.536 32.7304 11.92 32.5624 12.208C32.3944 12.488 32.1784 12.692 31.9144 12.82C31.6584 12.94 31.3904 13 31.1104 13C30.8624 13 30.5424 12.952 30.1504 12.856C29.7664 12.76 29.2784 12.516 28.6864 12.124L29.1544 11.368C29.5464 11.616 29.8984 11.788 30.2104 11.884C30.5304 11.972 30.7944 12.016 31.0024 12.016C31.2344 12.016 31.4184 11.984 31.5544 11.92C31.6904 11.848 31.7904 11.748 31.8544 11.62C31.9184 11.492 31.9504 11.348 31.9504 11.188C31.9504 10.956 31.8944 10.724 31.7824 10.492C31.6704 10.26 31.5264 10.068 31.3504 9.916C31.1824 9.764 31.0024 9.688 30.8104 9.688C30.6664 9.688 30.5264 9.728 30.3904 9.808C30.2544 9.888 30.1144 10.036 29.9704 10.252C29.8264 10.468 29.6624 10.78 29.4784 11.188C29.2864 11.62 29.1024 11.964 28.9264 12.22C28.7584 12.468 28.5864 12.652 28.4104 12.772C28.2344 12.892 28.0504 12.968 27.8584 13C27.6744 13.04 27.4664 13.06 27.2344 13.06ZM37.0311 13.06C36.3911 13.06 35.8991 12.988 35.5551 12.844C35.2191 12.7 34.9871 12.476 34.8591 12.172C34.7311 11.868 34.6591 11.476 34.6431 10.996L34.4031 4.432H35.3871L35.6271 10.612C35.6431 11.004 35.6791 11.308 35.7351 11.524C35.7991 11.732 35.9351 11.876 36.1431 11.956C36.3591 12.036 36.6951 12.076 37.1511 12.076C37.3191 12.076 37.4391 12.124 37.5111 12.22C37.5911 12.308 37.6311 12.416 37.6311 12.544C37.6311 12.672 37.5751 12.792 37.4631 12.904C37.3511 13.008 37.2071 13.06 37.0311 13.06ZM37.0312 13.06L37.1513 12.076C37.4073 12.076 37.6153 12.06 37.7753 12.028C37.9353 11.988 38.0673 11.896 38.1713 11.752C38.2833 11.6 38.3873 11.364 38.4833 11.044C38.5793 10.724 38.6913 10.276 38.8193 9.7L39.7193 9.952C39.6873 10.088 39.6513 10.244 39.6113 10.42C39.5713 10.588 39.5353 10.764 39.5033 10.948C39.4713 11.124 39.4553 11.288 39.4553 11.44C39.4553 11.64 39.5313 11.796 39.6833 11.908C39.8353 12.02 40.1113 12.076 40.5113 12.076C40.7513 12.076 40.9473 12.056 41.0993 12.016C41.2513 11.976 41.3753 11.88 41.4713 11.728C41.5753 11.576 41.6673 11.332 41.7473 10.996C41.8273 10.66 41.9113 10.2 41.9993 9.616L42.9113 9.784C42.8873 9.928 42.8593 10.104 42.8273 10.312C42.7953 10.52 42.7633 10.728 42.7313 10.936C42.7073 11.136 42.6953 11.304 42.6953 11.44C42.6953 11.552 42.7193 11.66 42.7673 11.764C42.8233 11.86 42.9273 11.936 43.0793 11.992C43.2393 12.048 43.4753 12.076 43.7873 12.076C44.0193 12.076 44.2193 12.048 44.3873 11.992C44.5633 11.936 44.6953 11.832 44.7833 11.68C44.8793 11.528 44.9273 11.316 44.9273 11.044C44.9273 10.74 44.8553 10.36 44.7113 9.904C44.5753 9.44 44.4193 8.98 44.2433 8.524L45.2153 8.164C45.3193 8.42 45.4153 8.712 45.5033 9.04C45.5993 9.368 45.6793 9.692 45.7433 10.012C45.8073 10.332 45.8393 10.612 45.8393 10.852C45.8393 11.22 45.7913 11.544 45.6953 11.824C45.5993 12.104 45.4633 12.336 45.2873 12.52C45.1113 12.696 44.8953 12.832 44.6393 12.928C44.3833 13.016 44.0953 13.06 43.7753 13.06C43.3993 13.06 43.0913 13.016 42.8513 12.928C42.6113 12.84 42.4273 12.708 42.2993 12.532C42.1713 12.348 42.0873 12.116 42.0473 11.836H42.4553C42.3033 12.18 42.1433 12.44 41.9753 12.616C41.8073 12.792 41.5993 12.912 41.3513 12.976C41.1033 13.032 40.7753 13.06 40.3673 13.06C40.1673 13.06 39.9513 13.028 39.7193 12.964C39.4953 12.9 39.2993 12.776 39.1313 12.592C38.9633 12.4 38.8633 12.116 38.8313 11.74L39.1913 11.668C39.0553 12.076 38.8873 12.38 38.6873 12.58C38.4953 12.772 38.2633 12.9 37.9913 12.964C37.7193 13.028 37.3993 13.06 37.0312 13.06ZM42.2033 6.46C42.0353 6.46 41.8913 6.404 41.7713 6.292C41.6593 6.172 41.6033 6.032 41.6033 5.872C41.6033 5.712 41.6593 5.572 41.7713 5.452C41.8913 5.332 42.0353 5.272 42.2033 5.272C42.3633 5.272 42.4993 5.332 42.6113 5.452C42.7313 5.572 42.7913 5.712 42.7913 5.872C42.7913 6.032 42.7313 6.172 42.6113 6.292C42.4993 6.404 42.3633 6.46 42.2033 6.46ZM41.3873 7.78C41.2193 7.78 41.0753 7.724 40.9553 7.612C40.8433 7.492 40.7873 7.352 40.7873 7.192C40.7873 7.032 40.8433 6.892 40.9553 6.772C41.0753 6.652 41.2193 6.592 41.3873 6.592C41.5473 6.592 41.6833 6.652 41.7953 6.772C41.9153 6.892 41.9753 7.032 41.9753 7.192C41.9753 7.352 41.9153 7.492 41.7953 7.612C41.6833 7.724 41.5473 7.78 41.3873 7.78ZM43.0193 7.78C42.8513 7.78 42.7073 7.724 42.5873 7.612C42.4753 7.492 42.4193 7.352 42.4193 7.192C42.4193 7.032 42.4753 6.892 42.5873 6.772C42.7073 6.652 42.8513 6.592 43.0193 6.592C43.1793 6.592 43.3153 6.652 43.4273 6.772C43.5473 6.892 43.6073 7.032 43.6073 7.192C43.6073 7.352 43.5473 7.492 43.4273 7.612C43.3153 7.724 43.1793 7.78 43.0193 7.78ZM49.8014 13.012C49.8014 12.724 49.8414 12.404 49.9214 12.052C50.0014 11.7 50.1294 11.312 50.3054 10.888L51.1694 11.224C51.0414 11.56 50.9454 11.868 50.8814 12.148C50.8174 12.428 50.7854 12.688 50.7854 12.928C50.7854 13.368 50.8934 13.724 51.1094 13.996C51.3334 14.276 51.6294 14.48 51.9974 14.608C52.3734 14.736 52.7854 14.8 53.2334 14.8C53.7774 14.8 54.2334 14.74 54.6014 14.62C54.9694 14.508 55.2614 14.352 55.4774 14.152C55.6934 13.952 55.8454 13.724 55.9334 13.468C56.0294 13.22 56.0774 12.96 56.0774 12.688C56.0774 12.336 56.0494 12.004 55.9934 11.692C55.9454 11.38 55.8774 11.076 55.7894 10.78C55.7094 10.476 55.6214 10.168 55.5254 9.856L56.4974 9.592C56.5854 9.896 56.6534 10.144 56.7014 10.336C56.7494 10.52 56.7854 10.668 56.8094 10.78C56.8414 10.892 56.8694 10.992 56.8934 11.08C56.9814 11.376 57.0974 11.596 57.2414 11.74C57.3854 11.876 57.5494 11.968 57.7334 12.016C57.9254 12.056 58.1214 12.076 58.3214 12.076C58.4894 12.076 58.6094 12.124 58.6814 12.22C58.7614 12.308 58.8014 12.416 58.8014 12.544C58.8014 12.672 58.7454 12.792 58.6334 12.904C58.5214 13.008 58.3774 13.06 58.2014 13.06C57.8654 13.06 57.5854 13.004 57.3614 12.892C57.1374 12.772 56.9614 12.624 56.8334 12.448C56.7134 12.272 56.6334 12.088 56.5934 11.896L57.0854 12.508C57.0614 12.916 56.9814 13.312 56.8454 13.696C56.7174 14.088 56.5094 14.44 56.2214 14.752C55.9334 15.072 55.5414 15.324 55.0454 15.508C54.5574 15.692 53.9414 15.784 53.1974 15.784C52.7414 15.784 52.3094 15.728 51.9014 15.616C51.4934 15.504 51.1294 15.332 50.8094 15.1C50.4974 14.876 50.2494 14.588 50.0654 14.236C49.8894 13.892 49.8014 13.484 49.8014 13.012ZM58.207 13.06L58.327 12.076C58.727 12.076 59.039 12.048 59.263 11.992C59.487 11.928 59.655 11.812 59.767 11.644C59.887 11.468 59.983 11.216 60.055 10.888C60.127 10.56 60.215 10.132 60.319 9.604L61.255 9.784C61.223 9.928 61.187 10.088 61.147 10.264C61.107 10.44 61.071 10.616 61.039 10.792C61.015 10.96 61.003 11.108 61.003 11.236C61.003 11.356 61.011 11.468 61.027 11.572C61.043 11.676 61.103 11.764 61.207 11.836C61.311 11.908 61.487 11.968 61.735 12.016C61.983 12.056 62.339 12.076 62.803 12.076C62.971 12.076 63.091 12.124 63.163 12.22C63.243 12.308 63.283 12.416 63.283 12.544C63.283 12.672 63.227 12.792 63.115 12.904C63.003 13.008 62.859 13.06 62.683 13.06C62.195 13.06 61.807 13.036 61.519 12.988C61.231 12.932 61.011 12.852 60.859 12.748C60.715 12.644 60.611 12.516 60.547 12.364C60.491 12.204 60.447 12.02 60.415 11.812L60.775 11.836C60.647 12.092 60.507 12.3 60.355 12.46C60.211 12.62 60.043 12.744 59.851 12.832C59.659 12.92 59.427 12.98 59.155 13.012C58.891 13.044 58.575 13.06 58.207 13.06ZM61.231 15.328C61.063 15.328 60.919 15.268 60.799 15.148C60.687 15.036 60.631 14.9 60.631 14.74C60.631 14.58 60.687 14.44 60.799 14.32C60.919 14.2 61.063 14.14 61.231 14.14C61.391 14.14 61.527 14.2 61.639 14.32C61.759 14.44 61.819 14.58 61.819 14.74C61.819 14.9 61.759 15.036 61.639 15.148C61.527 15.268 61.391 15.328 61.231 15.328ZM59.587 15.328C59.419 15.328 59.275 15.268 59.155 15.148C59.043 15.036 58.987 14.9 58.987 14.74C58.987 14.58 59.043 14.44 59.155 14.32C59.275 14.2 59.419 14.14 59.587 14.14C59.747 14.14 59.883 14.2 59.995 14.32C60.115 14.44 60.175 14.58 60.175 14.74C60.175 14.9 60.115 15.036 59.995 15.148C59.883 15.268 59.747 15.328 59.587 15.328ZM62.6836 13.06L62.8036 12.076C63.0276 12.076 63.2156 12.028 63.3676 11.932C63.5196 11.836 63.6676 11.676 63.8116 11.452C63.9556 11.228 64.1116 10.928 64.2796 10.552C64.5116 10.04 64.7396 9.652 64.9636 9.388C65.1956 9.124 65.4236 8.944 65.6476 8.848C65.8796 8.752 66.1076 8.704 66.3316 8.704C66.6036 8.704 66.8556 8.776 67.0876 8.92C67.3196 9.056 67.5236 9.24 67.6996 9.472C67.8756 9.704 68.0116 9.96 68.1076 10.24C68.2116 10.512 68.2636 10.784 68.2636 11.056C68.2636 11.536 68.1796 11.92 68.0116 12.208C67.8436 12.488 67.6276 12.692 67.3636 12.82C67.1076 12.94 66.8396 13 66.5596 13C66.3116 13 65.9916 12.952 65.5996 12.856C65.2156 12.76 64.7276 12.516 64.1356 12.124L64.6036 11.368C64.9956 11.616 65.3476 11.788 65.6596 11.884C65.9796 11.972 66.2436 12.016 66.4516 12.016C66.6836 12.016 66.8676 11.984 67.0036 11.92C67.1396 11.848 67.2396 11.748 67.3036 11.62C67.3676 11.492 67.3996 11.348 67.3996 11.188C67.3996 10.956 67.3436 10.724 67.2316 10.492C67.1196 10.26 66.9756 10.068 66.7996 9.916C66.6316 9.764 66.4516 9.688 66.2596 9.688C66.1156 9.688 65.9756 9.728 65.8396 9.808C65.7036 9.888 65.5636 10.036 65.4196 10.252C65.2756 10.468 65.1116 10.78 64.9276 11.188C64.7356 11.62 64.5516 11.964 64.3756 12.22C64.2076 12.468 64.0356 12.652 63.8596 12.772C63.6836 12.892 63.4996 12.968 63.3076 13C63.1236 13.04 62.9156 13.06 62.6836 13.06ZM74.5683 12.076C74.9683 12.076 75.2843 12.036 75.5163 11.956C75.7563 11.876 75.9283 11.76 76.0323 11.608C76.1443 11.448 76.2003 11.264 76.2003 11.056C76.2003 10.896 76.1563 10.704 76.0683 10.48C75.9883 10.256 75.8763 10.008 75.7323 9.736C75.5883 9.456 75.4203 9.164 75.2283 8.86C75.0443 8.548 74.8443 8.232 74.6283 7.912L75.4563 7.372C75.7683 7.844 76.0403 8.292 76.2723 8.716C76.5043 9.132 76.7003 9.524 76.8603 9.892C77.0203 10.252 77.1483 10.592 77.2443 10.912C77.3563 11.264 77.4803 11.524 77.6163 11.692C77.7603 11.86 77.9083 11.968 78.0603 12.016C78.2123 12.056 78.3523 12.076 78.4803 12.076C78.6483 12.076 78.7723 12.124 78.8523 12.22C78.9323 12.308 78.9723 12.416 78.9723 12.544C78.9723 12.672 78.9163 12.792 78.8043 12.904C78.6923 13.008 78.5483 13.06 78.3723 13.06C78.1083 13.06 77.8483 13.012 77.5923 12.916C77.3443 12.812 77.1283 12.648 76.9443 12.424C76.7603 12.192 76.6323 11.884 76.5603 11.5L77.0403 11.116C77.0403 11.436 76.9723 11.748 76.8363 12.052C76.7003 12.348 76.4523 12.592 76.0923 12.784C75.7403 12.976 75.2323 13.072 74.5683 13.072C74.2803 13.072 74.0003 13.048 73.7283 13C73.4643 12.952 73.2203 12.884 72.9963 12.796C72.7723 12.7 72.5763 12.588 72.4083 12.46L72.8883 11.632C73.0483 11.736 73.2723 11.836 73.5603 11.932C73.8483 12.028 74.1843 12.076 74.5683 12.076ZM74.6763 3.544C74.5323 3.544 74.3603 3.54 74.1603 3.532C73.9683 3.516 73.7843 3.5 73.6083 3.484C73.4323 3.468 73.3003 3.456 73.2123 3.448L73.2363 2.752C73.3963 2.768 73.6043 2.788 73.8603 2.812C74.1243 2.836 74.3683 2.848 74.5923 2.848C74.8563 2.848 75.0683 2.832 75.2283 2.8C75.3963 2.76 75.5163 2.704 75.5883 2.632C75.6683 2.56 75.7083 2.48 75.7083 2.392C75.7083 2.28 75.6723 2.2 75.6003 2.152C75.5283 2.104 75.4363 2.08 75.3243 2.08C75.1643 2.08 75.0083 2.136 74.8563 2.248C74.7043 2.352 74.5683 2.472 74.4483 2.608C74.3363 2.736 74.2523 2.84 74.1963 2.92L73.5243 2.872C73.6603 2.608 73.8283 2.364 74.0283 2.14C74.2283 1.908 74.4483 1.724 74.6883 1.588C74.9283 1.444 75.1723 1.372 75.4203 1.372C75.7243 1.372 75.9643 1.464 76.1403 1.648C76.3163 1.832 76.4043 2.06 76.4043 2.332C76.4043 2.492 76.3563 2.668 76.2603 2.86C76.1723 3.044 76.0043 3.204 75.7563 3.34C75.5083 3.476 75.1483 3.544 74.6763 3.544ZM73.8483 2.752L73.7763 0.435999H74.4363L74.5323 2.44L73.8483 2.752ZM78.375 13.06L78.495 12.076C78.831 12.076 79.095 12.048 79.287 11.992C79.479 11.928 79.623 11.812 79.719 11.644C79.823 11.468 79.911 11.216 79.983 10.888C80.055 10.56 80.143 10.132 80.247 9.604L81.183 9.784C81.151 9.928 81.115 10.088 81.075 10.264C81.035 10.44 80.999 10.616 80.967 10.792C80.943 10.96 80.931 11.108 80.931 11.236C80.931 11.396 80.967 11.54 81.039 11.668C81.111 11.796 81.267 11.896 81.507 11.968C81.747 12.04 82.115 12.076 82.611 12.076C82.779 12.076 82.899 12.124 82.971 12.22C83.051 12.308 83.091 12.416 83.091 12.544C83.091 12.672 83.035 12.792 82.923 12.904C82.811 13.008 82.667 13.06 82.491 13.06C81.971 13.06 81.563 13.016 81.267 12.928C80.971 12.832 80.755 12.692 80.619 12.508C80.483 12.316 80.391 12.084 80.343 11.812L80.703 11.836C80.575 12.092 80.435 12.3 80.283 12.46C80.139 12.62 79.979 12.744 79.803 12.832C79.627 12.92 79.423 12.98 79.191 13.012C78.959 13.044 78.687 13.06 78.375 13.06ZM80.247 8.368C80.079 8.368 79.935 8.312 79.815 8.2C79.703 8.08 79.647 7.94 79.647 7.78C79.647 7.62 79.703 7.48 79.815 7.36C79.935 7.24 80.079 7.18 80.247 7.18C80.407 7.18 80.543 7.24 80.655 7.36C80.775 7.48 80.835 7.62 80.835 7.78C80.835 7.94 80.775 8.08 80.655 8.2C80.543 8.312 80.407 8.368 80.247 8.368ZM82.4883 13.06L82.6083 12.076C82.8083 12.076 83.0283 12.076 83.2683 12.076C83.5163 12.068 83.7643 12.06 84.0123 12.052C84.2683 12.044 84.5043 12.028 84.7203 12.004C84.9363 11.972 85.1163 11.932 85.2603 11.884C85.5483 11.78 85.7723 11.652 85.9323 11.5C86.0923 11.34 86.2043 11.132 86.2683 10.876C86.3403 10.612 86.3763 10.276 86.3763 9.868C86.3763 9.532 86.3323 9.22 86.2443 8.932C86.1563 8.644 86.0323 8.412 85.8723 8.236C85.7123 8.06 85.5203 7.972 85.2963 7.972C85.1123 7.972 84.9443 8.044 84.7923 8.188C84.6483 8.324 84.5323 8.5 84.4443 8.716C84.3643 8.932 84.3243 9.148 84.3243 9.364C84.3243 9.532 84.3563 9.676 84.4203 9.796C84.4923 9.916 84.6083 10.012 84.7683 10.084C84.9283 10.148 85.1363 10.18 85.3923 10.18C85.6243 10.18 85.8563 10.156 86.0883 10.108C86.3283 10.06 86.5323 9.996 86.7003 9.916L86.7483 10.756C86.6203 10.844 86.4763 10.916 86.3163 10.972C86.1563 11.028 85.9883 11.068 85.8123 11.092C85.6363 11.116 85.4603 11.128 85.2843 11.128C84.8763 11.128 84.5283 11.064 84.2403 10.936C83.9603 10.8 83.7443 10.62 83.5923 10.396C83.4483 10.164 83.3763 9.9 83.3763 9.604C83.3763 9.3 83.4243 8.996 83.5203 8.692C83.6163 8.38 83.7523 8.096 83.9283 7.84C84.1043 7.584 84.3163 7.38 84.5643 7.228C84.8123 7.068 85.0883 6.988 85.3923 6.988C85.8243 6.988 86.1803 7.128 86.4603 7.408C86.7483 7.688 86.9603 8.056 87.0963 8.512C87.2403 8.96 87.3123 9.436 87.3123 9.94C87.3123 10.54 87.2083 11.056 87.0003 11.488C86.8003 11.912 86.4643 12.264 85.9923 12.544C85.8083 12.648 85.5843 12.736 85.3203 12.808C85.0643 12.872 84.7803 12.924 84.4683 12.964C84.1643 13.004 83.8443 13.028 83.5083 13.036C83.1723 13.052 82.8323 13.06 82.4883 13.06ZM85.1643 5.752C84.9963 5.752 84.8523 5.696 84.7323 5.584C84.6203 5.464 84.5643 5.324 84.5643 5.164C84.5643 5.004 84.6203 4.864 84.7323 4.744C84.8523 4.624 84.9963 4.564 85.1643 4.564C85.3243 4.564 85.4603 4.624 85.5723 4.744C85.6923 4.864 85.7523 5.004 85.7523 5.164C85.7523 5.324 85.6923 5.464 85.5723 5.584C85.4603 5.696 85.3243 5.752 85.1643 5.752ZM94.6115 15.784C94.1555 15.784 93.7235 15.72 93.3155 15.592C92.9075 15.472 92.5435 15.292 92.2235 15.052C91.9115 14.812 91.6635 14.52 91.4795 14.176C91.3035 13.84 91.2155 13.452 91.2155 13.012C91.2155 12.82 91.2315 12.616 91.2635 12.4C91.3035 12.176 91.3595 11.94 91.4315 11.692C91.5115 11.436 91.6075 11.168 91.7195 10.888L92.5835 11.224C92.5035 11.448 92.4315 11.66 92.3675 11.86C92.3115 12.06 92.2675 12.248 92.2355 12.424C92.2115 12.6 92.1995 12.768 92.1995 12.928C92.1995 13.336 92.3075 13.68 92.5235 13.96C92.7475 14.24 93.0435 14.448 93.4115 14.584C93.7875 14.728 94.1995 14.8 94.6475 14.8C95.1915 14.8 95.6475 14.736 96.0155 14.608C96.3835 14.488 96.6755 14.324 96.8915 14.116C97.1075 13.916 97.2595 13.692 97.3475 13.444C97.4435 13.196 97.4915 12.944 97.4915 12.688C97.4915 12.336 97.4635 12.004 97.4075 11.692C97.3595 11.38 97.2915 11.076 97.2035 10.78C97.1235 10.476 97.0355 10.168 96.9395 9.856L97.9115 9.592C97.9995 9.896 98.0675 10.144 98.1155 10.336C98.1635 10.52 98.1995 10.668 98.2235 10.78C98.2555 10.892 98.2835 10.992 98.3075 11.08C98.3955 11.376 98.4955 11.596 98.6075 11.74C98.7275 11.876 98.8635 11.968 99.0155 12.016C99.1755 12.056 99.3555 12.076 99.5555 12.076C99.7155 12.076 99.8555 12.056 99.9755 12.016C100.103 11.976 100.219 11.88 100.323 11.728C100.435 11.576 100.531 11.332 100.611 10.996C100.699 10.66 100.779 10.2 100.851 9.616L101.763 9.784C101.739 9.928 101.711 10.104 101.679 10.312C101.647 10.52 101.615 10.728 101.583 10.936C101.559 11.136 101.547 11.304 101.547 11.44C101.547 11.552 101.571 11.66 101.619 11.764C101.675 11.86 101.779 11.936 101.931 11.992C102.091 12.048 102.327 12.076 102.639 12.076C102.887 12.076 103.099 12.06 103.275 12.028C103.459 11.988 103.599 11.896 103.695 11.752C103.799 11.6 103.851 11.364 103.851 11.044C103.851 10.844 103.819 10.608 103.755 10.336C103.691 10.056 103.607 9.76 103.503 9.448C103.399 9.136 103.287 8.828 103.167 8.524L104.139 8.164C104.243 8.42 104.339 8.712 104.427 9.04C104.523 9.368 104.603 9.692 104.667 10.012C104.731 10.332 104.763 10.612 104.763 10.852C104.763 11.26 104.707 11.604 104.595 11.884C104.491 12.164 104.343 12.392 104.151 12.568C103.959 12.744 103.731 12.872 103.467 12.952C103.211 13.024 102.931 13.06 102.627 13.06C102.347 13.06 102.103 13.036 101.895 12.988C101.695 12.94 101.523 12.868 101.379 12.772C101.243 12.668 101.135 12.54 101.055 12.388C100.983 12.228 100.931 12.044 100.899 11.836H101.307C101.179 12.124 101.035 12.36 100.875 12.544C100.715 12.72 100.523 12.852 100.299 12.94C100.083 13.02 99.8155 13.06 99.4955 13.06C99.2475 13.06 99.0355 13.028 98.8595 12.964C98.6835 12.892 98.5355 12.804 98.4155 12.7C98.3035 12.588 98.2155 12.464 98.1515 12.328C98.0875 12.184 98.0395 12.04 98.0075 11.896L98.4995 12.508C98.4595 12.892 98.3715 13.276 98.2355 13.66C98.1075 14.044 97.8995 14.396 97.6115 14.716C97.3315 15.044 96.9475 15.304 96.4595 15.496C95.9715 15.688 95.3555 15.784 94.6115 15.784ZM106.467 13L106.227 4.432H107.199L107.439 13H106.467ZM111.271 15.76L110.923 14.848C111.731 14.592 112.351 14.284 112.783 13.924C113.223 13.572 113.523 13.204 113.683 12.82C113.851 12.436 113.935 12.068 113.935 11.716C113.935 11.492 113.911 11.276 113.863 11.068C113.815 10.86 113.731 10.624 113.611 10.36C113.491 10.096 113.323 9.768 113.107 9.376L113.983 8.932C114.287 9.452 114.503 9.944 114.631 10.408C114.767 10.872 114.835 11.28 114.835 11.632C114.835 12.136 114.751 12.592 114.583 13C114.423 13.408 114.207 13.768 113.935 14.08C113.671 14.4 113.379 14.672 113.059 14.896C112.747 15.12 112.431 15.304 112.111 15.448C111.799 15.592 111.519 15.696 111.271 15.76ZM116.733 13L116.493 4.432H117.465L117.705 13H116.733ZM118.908 12.46L119.388 11.632C119.548 11.736 119.772 11.836 120.06 11.932C120.348 12.028 120.684 12.076 121.068 12.076C121.468 12.076 121.784 12.036 122.016 11.956C122.256 11.876 122.428 11.76 122.532 11.608C122.644 11.448 122.7 11.264 122.7 11.056C122.7 10.896 122.664 10.7 122.592 10.468C122.528 10.228 122.384 9.908 122.16 9.508C121.936 9.1 121.592 8.568 121.128 7.912L121.956 7.372C122.38 7.956 122.716 8.484 122.964 8.956C123.22 9.428 123.4 9.844 123.504 10.204C123.616 10.556 123.672 10.86 123.672 11.116C123.672 11.436 123.592 11.748 123.432 12.052C123.272 12.348 123.004 12.592 122.628 12.784C122.252 12.976 121.732 13.072 121.068 13.072C120.78 13.072 120.5 13.048 120.228 13C119.964 12.952 119.72 12.884 119.496 12.796C119.272 12.7 119.076 12.588 118.908 12.46ZM132.955 13.06C132.499 13.06 132.131 12.992 131.851 12.856C131.579 12.72 131.355 12.532 131.179 12.292C131.011 12.044 130.863 11.752 130.735 11.416C130.607 11.08 130.471 10.716 130.327 10.324C130.295 10.22 130.219 10.148 130.099 10.108C129.979 10.068 129.851 10.048 129.715 10.048C129.507 10.048 129.299 10.092 129.091 10.18C128.891 10.268 128.723 10.4 128.587 10.576C128.459 10.752 128.395 10.968 128.395 11.224C128.395 11.448 128.427 11.664 128.491 11.872C128.563 12.072 128.643 12.3 128.731 12.556L127.867 12.796C127.803 12.612 127.735 12.436 127.663 12.268C127.599 12.1 127.547 11.924 127.507 11.74C127.467 11.556 127.447 11.352 127.447 11.128C127.447 10.8 127.519 10.508 127.663 10.252C127.807 9.996 127.999 9.78 128.239 9.604C128.479 9.428 128.743 9.296 129.031 9.208C129.319 9.112 129.603 9.064 129.883 9.064C130.019 9.064 130.163 9.076 130.315 9.1C130.475 9.124 130.619 9.184 130.747 9.28C130.883 9.368 130.983 9.512 131.047 9.712C131.175 10.072 131.287 10.4 131.383 10.696C131.487 10.984 131.603 11.232 131.731 11.44C131.859 11.648 132.027 11.808 132.235 11.92C132.451 12.024 132.731 12.076 133.075 12.076C133.243 12.076 133.363 12.124 133.435 12.22C133.515 12.308 133.555 12.416 133.555 12.544C133.555 12.672 133.499 12.792 133.387 12.904C133.275 13.008 133.131 13.06 132.955 13.06ZM132.949 13.06L133.069 12.076C133.469 12.076 133.781 12.048 134.005 11.992C134.229 11.928 134.397 11.812 134.509 11.644C134.629 11.468 134.725 11.216 134.797 10.888C134.869 10.56 134.957 10.132 135.061 9.604L135.997 9.784C135.965 9.928 135.929 10.088 135.889 10.264C135.849 10.44 135.813 10.616 135.781 10.792C135.757 10.96 135.745 11.108 135.745 11.236C135.745 11.356 135.753 11.468 135.769 11.572C135.785 11.676 135.845 11.764 135.949 11.836C136.053 11.908 136.229 11.968 136.477 12.016C136.725 12.056 137.081 12.076 137.545 12.076C137.713 12.076 137.833 12.124 137.905 12.22C137.985 12.308 138.025 12.416 138.025 12.544C138.025 12.672 137.969 12.792 137.857 12.904C137.745 13.008 137.601 13.06 137.425 13.06C136.937 13.06 136.549 13.036 136.261 12.988C135.973 12.932 135.753 12.852 135.601 12.748C135.457 12.644 135.353 12.516 135.289 12.364C135.233 12.204 135.189 12.02 135.157 11.812L135.517 11.836C135.389 12.092 135.249 12.3 135.097 12.46C134.953 12.62 134.785 12.744 134.593 12.832C134.401 12.92 134.169 12.98 133.897 13.012C133.633 13.044 133.317 13.06 132.949 13.06ZM136.153 8.368C135.985 8.368 135.841 8.312 135.721 8.2C135.609 8.08 135.553 7.94 135.553 7.78C135.553 7.62 135.609 7.48 135.721 7.36C135.841 7.24 135.985 7.18 136.153 7.18C136.313 7.18 136.449 7.24 136.561 7.36C136.681 7.48 136.741 7.62 136.741 7.78C136.741 7.94 136.681 8.08 136.561 8.2C136.449 8.312 136.313 8.368 136.153 8.368ZM134.509 8.368C134.341 8.368 134.197 8.312 134.077 8.2C133.965 8.08 133.909 7.94 133.909 7.78C133.909 7.62 133.965 7.48 134.077 7.36C134.197 7.24 134.341 7.18 134.509 7.18C134.669 7.18 134.805 7.24 134.917 7.36C135.037 7.48 135.097 7.62 135.097 7.78C135.097 7.94 135.037 8.08 134.917 8.2C134.805 8.312 134.669 8.368 134.509 8.368ZM137.426 13.06L137.546 12.076C137.802 12.076 138.01 12.06 138.17 12.028C138.33 11.988 138.462 11.896 138.566 11.752C138.678 11.6 138.782 11.364 138.878 11.044C138.974 10.724 139.086 10.276 139.214 9.7L140.114 9.952C140.082 10.088 140.046 10.244 140.006 10.42C139.966 10.588 139.93 10.764 139.898 10.948C139.866 11.124 139.85 11.288 139.85 11.44C139.85 11.64 139.926 11.796 140.078 11.908C140.23 12.02 140.506 12.076 140.906 12.076C141.146 12.076 141.342 12.056 141.494 12.016C141.646 11.976 141.77 11.88 141.866 11.728C141.97 11.576 142.062 11.332 142.142 10.996C142.222 10.66 142.306 10.2 142.394 9.616L143.306 9.784C143.282 9.928 143.254 10.104 143.222 10.312C143.19 10.52 143.158 10.728 143.126 10.936C143.102 11.136 143.09 11.304 143.09 11.44C143.09 11.552 143.114 11.66 143.162 11.764C143.218 11.86 143.322 11.936 143.474 11.992C143.634 12.048 143.87 12.076 144.182 12.076C144.414 12.076 144.614 12.048 144.782 11.992C144.958 11.936 145.09 11.832 145.178 11.68C145.274 11.528 145.322 11.316 145.322 11.044C145.322 10.74 145.25 10.36 145.106 9.904C144.97 9.44 144.814 8.98 144.638 8.524L145.61 8.164C145.714 8.42 145.81 8.712 145.898 9.04C145.994 9.368 146.074 9.692 146.138 10.012C146.202 10.332 146.234 10.612 146.234 10.852C146.234 11.22 146.186 11.544 146.09 11.824C145.994 12.104 145.858 12.336 145.682 12.52C145.506 12.696 145.29 12.832 145.034 12.928C144.778 13.016 144.49 13.06 144.17 13.06C143.794 13.06 143.486 13.016 143.246 12.928C143.006 12.84 142.822 12.708 142.694 12.532C142.566 12.348 142.482 12.116 142.442 11.836H142.85C142.698 12.18 142.538 12.44 142.37 12.616C142.202 12.792 141.994 12.912 141.746 12.976C141.498 13.032 141.17 13.06 140.762 13.06C140.562 13.06 140.346 13.028 140.114 12.964C139.89 12.9 139.694 12.776 139.526 12.592C139.358 12.4 139.258 12.116 139.226 11.74L139.586 11.668C139.45 12.076 139.282 12.38 139.082 12.58C138.89 12.772 138.658 12.9 138.386 12.964C138.114 13.028 137.794 13.06 137.426 13.06ZM142.598 6.46C142.43 6.46 142.286 6.404 142.166 6.292C142.054 6.172 141.998 6.032 141.998 5.872C141.998 5.712 142.054 5.572 142.166 5.452C142.286 5.332 142.43 5.272 142.598 5.272C142.758 5.272 142.894 5.332 143.006 5.452C143.126 5.572 143.186 5.712 143.186 5.872C143.186 6.032 143.126 6.172 143.006 6.292C142.894 6.404 142.758 6.46 142.598 6.46ZM141.782 7.78C141.614 7.78 141.47 7.724 141.35 7.612C141.238 7.492 141.182 7.352 141.182 7.192C141.182 7.032 141.238 6.892 141.35 6.772C141.47 6.652 141.614 6.592 141.782 6.592C141.942 6.592 142.078 6.652 142.19 6.772C142.31 6.892 142.37 7.032 142.37 7.192C142.37 7.352 142.31 7.492 142.19 7.612C142.078 7.724 141.942 7.78 141.782 7.78ZM143.414 7.78C143.246 7.78 143.102 7.724 142.982 7.612C142.87 7.492 142.814 7.352 142.814 7.192C142.814 7.032 142.87 6.892 142.982 6.772C143.102 6.652 143.246 6.592 143.414 6.592C143.574 6.592 143.71 6.652 143.822 6.772C143.942 6.892 144.002 7.032 144.002 7.192C144.002 7.352 143.942 7.492 143.822 7.612C143.71 7.724 143.574 7.78 143.414 7.78ZM146.884 15.76L146.536 14.848C147.344 14.592 147.964 14.284 148.396 13.924C148.836 13.572 149.136 13.204 149.296 12.82C149.464 12.436 149.548 12.068 149.548 11.716C149.548 11.492 149.524 11.276 149.476 11.068C149.428 10.86 149.344 10.624 149.224 10.36C149.104 10.096 148.936 9.768 148.72 9.376L149.596 8.932C149.9 9.452 150.116 9.944 150.244 10.408C150.38 10.872 150.448 11.28 150.448 11.632C150.448 12.136 150.364 12.592 150.196 13C150.036 13.408 149.82 13.768 149.548 14.08C149.284 14.4 148.992 14.672 148.672 14.896C148.36 15.12 148.044 15.304 147.724 15.448C147.412 15.592 147.132 15.696 146.884 15.76ZM154.602 13.012C154.602 12.82 154.618 12.616 154.65 12.4C154.69 12.176 154.746 11.94 154.818 11.692C154.898 11.436 154.994 11.168 155.106 10.888L155.97 11.224C155.89 11.448 155.818 11.66 155.754 11.86C155.698 12.06 155.654 12.248 155.622 12.424C155.598 12.6 155.586 12.768 155.586 12.928C155.586 13.264 155.658 13.548 155.802 13.78C155.954 14.02 156.162 14.216 156.426 14.368C156.69 14.52 156.99 14.632 157.326 14.704C157.67 14.776 158.034 14.812 158.418 14.812C158.882 14.812 159.314 14.772 159.714 14.692C160.122 14.612 160.478 14.496 160.782 14.344C161.094 14.2 161.338 14.032 161.514 13.84C161.69 13.656 161.778 13.456 161.778 13.24C161.778 13.136 161.738 13.04 161.658 12.952C161.578 12.864 161.458 12.78 161.298 12.7C161.138 12.62 160.946 12.544 160.722 12.472C160.498 12.392 160.242 12.312 159.954 12.232L160.182 11.236C160.598 11.396 160.966 11.532 161.286 11.644C161.606 11.748 161.886 11.832 162.126 11.896C162.366 11.96 162.574 12.008 162.75 12.04C162.926 12.064 163.074 12.076 163.194 12.076C163.362 12.076 163.482 12.124 163.554 12.22C163.634 12.308 163.674 12.416 163.674 12.544C163.674 12.672 163.618 12.792 163.506 12.904C163.394 13.008 163.25 13.06 163.074 13.06C163.026 13.06 162.978 13.06 162.93 13.06C162.882 13.06 162.83 13.06 162.774 13.06C162.726 13.06 162.678 13.06 162.63 13.06C162.646 13.132 162.658 13.188 162.666 13.228C162.674 13.276 162.678 13.336 162.678 13.408C162.678 13.704 162.574 13.992 162.366 14.272C162.166 14.552 161.87 14.804 161.478 15.028C161.086 15.26 160.61 15.444 160.05 15.58C159.498 15.716 158.866 15.784 158.154 15.784C157.522 15.784 156.934 15.68 156.39 15.472C155.854 15.272 155.422 14.968 155.094 14.56C154.766 14.152 154.602 13.636 154.602 13.012ZM163.078 13.06L163.198 12.076C163.59 12.076 163.902 12.052 164.134 12.004C164.366 11.956 164.534 11.86 164.638 11.716C164.742 11.564 164.794 11.34 164.794 11.044C164.794 10.844 164.762 10.608 164.698 10.336C164.634 10.056 164.55 9.76 164.446 9.448C164.342 9.136 164.23 8.828 164.11 8.524L165.082 8.164C165.186 8.42 165.282 8.712 165.37 9.04C165.466 9.368 165.546 9.692 165.61 10.012C165.674 10.332 165.706 10.612 165.706 10.852C165.706 11.172 165.67 11.456 165.598 11.704C165.534 11.944 165.434 12.152 165.298 12.328C165.162 12.496 164.986 12.636 164.77 12.748C164.562 12.852 164.318 12.932 164.038 12.988C163.758 13.036 163.438 13.06 163.078 13.06ZM163.522 6.832L163.378 6.184C163.586 6.136 163.754 6.096 163.882 6.064C164.01 6.032 164.154 5.996 164.314 5.956L164.254 6.208C164.046 6.144 163.846 6.008 163.654 5.8C163.47 5.592 163.378 5.356 163.378 5.092C163.378 4.852 163.434 4.652 163.546 4.492C163.666 4.324 163.818 4.2 164.002 4.12C164.194 4.04 164.398 4 164.614 4C164.702 4 164.794 4.008 164.89 4.024C164.994 4.04 165.09 4.064 165.178 4.096L165.082 4.696C165.002 4.68 164.926 4.664 164.854 4.648C164.782 4.632 164.702 4.624 164.614 4.624C164.43 4.624 164.286 4.664 164.182 4.744C164.078 4.816 164.026 4.92 164.026 5.056C164.026 5.224 164.078 5.368 164.182 5.488C164.294 5.608 164.418 5.704 164.554 5.776C164.698 5.84 164.814 5.872 164.902 5.872L164.41 5.92C164.626 5.864 164.826 5.808 165.01 5.752C165.202 5.688 165.374 5.628 165.526 5.572L165.718 6.184C165.526 6.256 165.298 6.332 165.034 6.412C164.778 6.492 164.518 6.568 164.254 6.64C163.99 6.712 163.746 6.776 163.522 6.832ZM166.997 15.76L166.781 14.776C167.261 14.712 167.701 14.62 168.101 14.5C168.509 14.388 168.857 14.224 169.145 14.008C169.441 13.792 169.669 13.508 169.829 13.156C169.989 12.804 170.069 12.364 170.069 11.836C170.069 11.292 169.969 10.84 169.769 10.48C169.569 10.12 169.309 9.94 168.989 9.94C168.821 9.94 168.665 10.004 168.521 10.132C168.377 10.26 168.257 10.432 168.161 10.648C168.073 10.864 168.029 11.1 168.029 11.356C168.029 11.5 168.061 11.62 168.125 11.716C168.189 11.804 168.281 11.876 168.401 11.932C168.529 11.98 168.689 12.016 168.881 12.04C169.073 12.064 169.297 12.076 169.553 12.076H172.085C172.253 12.076 172.373 12.124 172.445 12.22C172.525 12.308 172.565 12.416 172.565 12.544C172.565 12.672 172.509 12.792 172.397 12.904C172.285 13.008 172.141 13.06 171.965 13.06H169.097C168.737 13.06 168.401 13.008 168.089 12.904C167.785 12.8 167.537 12.64 167.345 12.424C167.161 12.2 167.069 11.908 167.069 11.548C167.069 11.212 167.121 10.892 167.225 10.588C167.329 10.276 167.469 10 167.645 9.76C167.829 9.512 168.041 9.316 168.281 9.172C168.529 9.028 168.797 8.956 169.085 8.956C169.453 8.956 169.781 9.064 170.069 9.28C170.357 9.496 170.585 9.824 170.753 10.264C170.921 10.696 171.005 11.244 171.005 11.908C171.005 12.652 170.853 13.292 170.549 13.828C170.253 14.372 169.805 14.804 169.205 15.124C168.613 15.444 167.877 15.656 166.997 15.76ZM171.961 13.06L172.081 12.076H173.209C173.681 12.076 174.053 12.052 174.325 12.004C174.605 11.948 174.809 11.88 174.937 11.8C175.073 11.712 175.161 11.62 175.201 11.524C175.249 11.42 175.273 11.316 175.273 11.212C175.273 11.028 175.201 10.8 175.057 10.528C174.921 10.256 174.637 9.904 174.205 9.472C173.981 9.248 173.757 9.044 173.533 8.86C173.309 8.668 173.101 8.5 172.909 8.356C172.725 8.204 172.577 8.076 172.465 7.972C172.353 7.868 172.297 7.788 172.297 7.732C172.297 7.612 172.305 7.496 172.321 7.384C172.345 7.272 172.373 7.168 172.405 7.072C172.445 6.976 172.493 6.9 172.549 6.844C172.709 6.676 172.913 6.508 173.161 6.34C173.417 6.172 173.713 5.996 174.049 5.812C174.393 5.628 174.777 5.432 175.201 5.224C175.633 5.008 176.105 4.772 176.617 4.516L177.025 5.404C176.385 5.708 175.849 5.968 175.417 6.184C174.993 6.392 174.633 6.58 174.337 6.748C174.041 6.908 173.781 7.06 173.557 7.204C173.333 7.348 173.105 7.508 172.873 7.684L173.053 7.228C173.557 7.628 174.001 8.004 174.385 8.356C174.777 8.708 175.105 9.048 175.369 9.376C175.633 9.696 175.833 10.012 175.969 10.324C176.105 10.636 176.173 10.952 176.173 11.272C176.173 11.448 176.141 11.64 176.077 11.848C176.013 12.056 175.877 12.252 175.669 12.436C175.461 12.62 175.149 12.772 174.733 12.892C174.317 13.004 173.757 13.06 173.053 13.06H171.961ZM183.398 13.06C182.758 13.06 182.266 12.988 181.922 12.844C181.586 12.7 181.354 12.476 181.226 12.172C181.098 11.868 181.026 11.476 181.01 10.996L180.77 4.432H181.754L181.994 10.612C182.01 11.004 182.046 11.308 182.102 11.524C182.166 11.732 182.302 11.876 182.51 11.956C182.726 12.036 183.062 12.076 183.518 12.076C183.686 12.076 183.806 12.124 183.878 12.22C183.958 12.308 183.998 12.416 183.998 12.544C183.998 12.672 183.942 12.792 183.83 12.904C183.718 13.008 183.574 13.06 183.398 13.06ZM183.398 13.06L183.518 12.076H184.646C185.118 12.076 185.49 12.052 185.762 12.004C186.042 11.948 186.246 11.88 186.374 11.8C186.51 11.712 186.598 11.62 186.638 11.524C186.686 11.42 186.71 11.316 186.71 11.212C186.71 11.028 186.638 10.8 186.494 10.528C186.358 10.256 186.074 9.904 185.642 9.472C185.418 9.248 185.194 9.044 184.97 8.86C184.746 8.668 184.538 8.5 184.346 8.356C184.162 8.204 184.014 8.076 183.902 7.972C183.79 7.868 183.734 7.788 183.734 7.732C183.734 7.612 183.742 7.496 183.758 7.384C183.782 7.272 183.81 7.168 183.842 7.072C183.882 6.976 183.93 6.9 183.986 6.844C184.146 6.676 184.35 6.508 184.598 6.34C184.854 6.172 185.15 5.996 185.486 5.812C185.83 5.628 186.214 5.432 186.638 5.224C187.07 5.008 187.542 4.772 188.054 4.516L188.462 5.404C187.822 5.708 187.286 5.968 186.854 6.184C186.43 6.392 186.07 6.58 185.774 6.748C185.478 6.908 185.218 7.06 184.994 7.204C184.77 7.348 184.542 7.508 184.31 7.684L184.49 7.228C184.994 7.628 185.438 8.004 185.822 8.356C186.214 8.708 186.542 9.048 186.806 9.376C187.07 9.696 187.27 10.012 187.406 10.324C187.542 10.636 187.61 10.952 187.61 11.272C187.61 11.448 187.578 11.64 187.514 11.848C187.45 12.056 187.314 12.252 187.106 12.436C186.898 12.62 186.586 12.772 186.17 12.892C185.754 13.004 185.194 13.06 184.49 13.06H183.398ZM196.024 13.252L196.336 12.268C197.272 12.268 198.076 12.244 198.748 12.196C199.428 12.148 199.984 12.072 200.416 11.968C200.856 11.856 201.18 11.708 201.388 11.524C201.604 11.332 201.712 11.1 201.712 10.828C201.712 10.524 201.656 10.172 201.544 9.772C201.432 9.372 201.288 8.944 201.112 8.488L202.036 8.164C202.14 8.42 202.236 8.696 202.324 8.992C202.42 9.28 202.5 9.568 202.564 9.856C202.628 10.136 202.66 10.396 202.66 10.636C202.66 11.108 202.552 11.512 202.336 11.848C202.12 12.176 201.76 12.444 201.256 12.652C200.752 12.86 200.072 13.012 199.216 13.108C198.368 13.204 197.304 13.252 196.024 13.252ZM196.024 13.252C195.312 13.252 194.684 13.204 194.14 13.108C193.604 13.02 193.156 12.88 192.796 12.688C192.436 12.496 192.164 12.248 191.98 11.944C191.796 11.632 191.704 11.256 191.704 10.816C191.704 10.616 191.72 10.412 191.752 10.204C191.784 9.988 191.824 9.772 191.872 9.556C191.928 9.34 191.984 9.132 192.04 8.932L192.94 9.16C192.908 9.28 192.872 9.424 192.832 9.592C192.792 9.752 192.756 9.916 192.724 10.084C192.7 10.252 192.688 10.404 192.688 10.54C192.688 10.956 192.792 11.292 193 11.548C193.216 11.796 193.588 11.98 194.116 12.1C194.644 12.212 195.384 12.268 196.336 12.268L196.576 12.868L196.024 13.252ZM197.164 16.9C197.004 16.9 196.864 16.84 196.744 16.72C196.632 16.6 196.576 16.46 196.576 16.3C196.576 16.14 196.632 16 196.744 15.88C196.864 15.768 197.004 15.712 197.164 15.712C197.332 15.712 197.472 15.768 197.584 15.88C197.704 16 197.764 16.14 197.764 16.3C197.764 16.46 197.704 16.6 197.584 16.72C197.472 16.84 197.332 16.9 197.164 16.9ZM197.98 15.58C197.82 15.58 197.68 15.52 197.56 15.4C197.448 15.28 197.392 15.14 197.392 14.98C197.392 14.82 197.448 14.68 197.56 14.56C197.68 14.448 197.82 14.392 197.98 14.392C198.148 14.392 198.288 14.448 198.4 14.56C198.52 14.68 198.58 14.82 198.58 14.98C198.58 15.14 198.52 15.28 198.4 15.4C198.288 15.52 198.148 15.58 197.98 15.58ZM196.348 15.58C196.188 15.58 196.048 15.52 195.928 15.4C195.816 15.28 195.76 15.14 195.76 14.98C195.76 14.82 195.816 14.68 195.928 14.56C196.048 14.448 196.188 14.392 196.348 14.392C196.516 14.392 196.656 14.448 196.768 14.56C196.888 14.68 196.948 14.82 196.948 14.98C196.948 15.14 196.888 15.28 196.768 15.4C196.656 15.52 196.516 15.58 196.348 15.58ZM204.33 13L204.126 5.272H205.098L205.302 13H204.33ZM205.41 4.108C205.17 4.108 204.954 4.068 204.762 3.988C204.57 3.9 204.394 3.816 204.234 3.736C204.074 3.656 203.926 3.616 203.79 3.616C203.646 3.616 203.514 3.652 203.394 3.724C203.282 3.796 203.162 3.896 203.034 4.024L202.578 3.64C202.762 3.408 202.954 3.228 203.154 3.1C203.354 2.964 203.566 2.896 203.79 2.896C203.99 2.896 204.174 2.936 204.342 3.016C204.51 3.096 204.678 3.176 204.846 3.256C205.022 3.336 205.21 3.376 205.41 3.376C205.538 3.376 205.658 3.356 205.77 3.316C205.882 3.268 206.018 3.196 206.178 3.1L206.526 3.592C206.27 3.816 206.05 3.96 205.866 4.024C205.69 4.08 205.538 4.108 205.41 4.108ZM212.578 13.06C211.938 13.06 211.446 12.988 211.102 12.844C210.766 12.7 210.534 12.476 210.406 12.172C210.278 11.868 210.206 11.476 210.19 10.996L209.95 4.432H210.934L211.174 10.612C211.19 11.004 211.226 11.308 211.282 11.524C211.346 11.732 211.482 11.876 211.69 11.956C211.906 12.036 212.242 12.076 212.698 12.076C212.866 12.076 212.986 12.124 213.058 12.22C213.138 12.308 213.178 12.416 213.178 12.544C213.178 12.672 213.122 12.792 213.01 12.904C212.898 13.008 212.754 13.06 212.578 13.06ZM212.578 13.06L212.698 12.076C213.098 12.076 213.41 12.048 213.634 11.992C213.858 11.928 214.026 11.812 214.138 11.644C214.258 11.468 214.354 11.216 214.426 10.888C214.498 10.56 214.586 10.132 214.69 9.604L215.626 9.784C215.594 9.928 215.558 10.088 215.518 10.264C215.478 10.44 215.442 10.616 215.41 10.792C215.386 10.96 215.374 11.108 215.374 11.236C215.374 11.356 215.382 11.468 215.398 11.572C215.414 11.676 215.474 11.764 215.578 11.836C215.682 11.908 215.858 11.968 216.106 12.016C216.354 12.056 216.71 12.076 217.174 12.076C217.342 12.076 217.462 12.124 217.534 12.22C217.614 12.308 217.654 12.416 217.654 12.544C217.654 12.672 217.598 12.792 217.486 12.904C217.374 13.008 217.23 13.06 217.054 13.06C216.566 13.06 216.178 13.036 215.89 12.988C215.602 12.932 215.382 12.852 215.23 12.748C215.086 12.644 214.982 12.516 214.918 12.364C214.862 12.204 214.818 12.02 214.786 11.812L215.146 11.836C215.018 12.092 214.878 12.3 214.726 12.46C214.582 12.62 214.414 12.744 214.222 12.832C214.03 12.92 213.798 12.98 213.526 13.012C213.262 13.044 212.946 13.06 212.578 13.06ZM215.602 15.328C215.434 15.328 215.29 15.268 215.17 15.148C215.058 15.036 215.002 14.9 215.002 14.74C215.002 14.58 215.058 14.44 215.17 14.32C215.29 14.2 215.434 14.14 215.602 14.14C215.762 14.14 215.898 14.2 216.01 14.32C216.13 14.44 216.19 14.58 216.19 14.74C216.19 14.9 216.13 15.036 216.01 15.148C215.898 15.268 215.762 15.328 215.602 15.328ZM213.958 15.328C213.79 15.328 213.646 15.268 213.526 15.148C213.414 15.036 213.358 14.9 213.358 14.74C213.358 14.58 213.414 14.44 213.526 14.32C213.646 14.2 213.79 14.14 213.958 14.14C214.118 14.14 214.254 14.2 214.366 14.32C214.486 14.44 214.546 14.58 214.546 14.74C214.546 14.9 214.486 15.036 214.366 15.148C214.254 15.268 214.118 15.328 213.958 15.328ZM217.055 13.06L217.175 12.076H218.303C218.775 12.076 219.147 12.052 219.419 12.004C219.699 11.948 219.903 11.88 220.031 11.8C220.167 11.712 220.255 11.62 220.295 11.524C220.343 11.42 220.367 11.316 220.367 11.212C220.367 11.028 220.295 10.8 220.151 10.528C220.015 10.256 219.731 9.904 219.299 9.472C219.075 9.248 218.851 9.044 218.627 8.86C218.403 8.668 218.195 8.5 218.003 8.356C217.819 8.204 217.671 8.076 217.559 7.972C217.447 7.868 217.391 7.788 217.391 7.732C217.391 7.612 217.399 7.496 217.415 7.384C217.439 7.272 217.467 7.168 217.499 7.072C217.539 6.976 217.587 6.9 217.643 6.844C217.803 6.676 218.007 6.508 218.255 6.34C218.511 6.172 218.807 5.996 219.143 5.812C219.487 5.628 219.871 5.432 220.295 5.224C220.727 5.008 221.199 4.772 221.711 4.516L222.119 5.404C221.479 5.708 220.943 5.968 220.511 6.184C220.087 6.392 219.727 6.58 219.431 6.748C219.135 6.908 218.875 7.06 218.651 7.204C218.427 7.348 218.199 7.508 217.967 7.684L218.147 7.228C218.651 7.628 219.095 8.004 219.479 8.356C219.871 8.708 220.199 9.048 220.463 9.376C220.727 9.696 220.927 10.012 221.063 10.324C221.199 10.636 221.267 10.952 221.267 11.272C221.267 11.448 221.235 11.64 221.171 11.848C221.107 12.056 220.971 12.252 220.763 12.436C220.555 12.62 220.243 12.772 219.827 12.892C219.411 13.004 218.851 13.06 218.147 13.06H217.055Z" fill="black"/>
</svg>
