<svg width="110" height="13" viewBox="0 0 110 13" fill="none" xmlns="http://www.w3.org/2000/svg">
<path d="M1.08706 12.784L0.739062 11.872C1.32306 11.68 1.80706 11.46 2.19106 11.212C2.58306 10.964 2.89106 10.7 3.11506 10.42C3.34706 10.14 3.51106 9.856 3.60706 9.568C3.70306 9.272 3.75106 8.988 3.75106 8.716C3.75106 8.324 3.66306 7.928 3.48706 7.528C3.31906 7.12 3.13106 6.736 2.92306 6.376L3.79906 5.932C3.95106 6.212 4.08306 6.488 4.19506 6.76C4.31506 7.032 4.41906 7.288 4.50706 7.528C4.60306 7.768 4.67906 7.988 4.73506 8.188C4.84706 8.532 4.99106 8.768 5.16706 8.896C5.35106 9.016 5.59906 9.076 5.91106 9.076C6.07906 9.076 6.19906 9.124 6.27106 9.22C6.35106 9.308 6.39106 9.416 6.39106 9.544C6.39106 9.672 6.33506 9.792 6.22306 9.904C6.11106 10.008 5.96706 10.06 5.79106 10.06C5.43906 10.06 5.15106 10 4.92706 9.88C4.71106 9.752 4.54706 9.588 4.43506 9.388C4.32306 9.18 4.24706 8.964 4.20706 8.74L4.59106 8.956C4.59106 9.484 4.47106 9.964 4.23106 10.396C3.99906 10.836 3.69906 11.216 3.33106 11.536C2.96306 11.864 2.57906 12.132 2.17906 12.34C1.77906 12.548 1.41506 12.696 1.08706 12.784ZM5.79688 10.06L5.91688 9.076C6.25288 9.076 6.51688 9.048 6.70888 8.992C6.90088 8.928 7.04488 8.812 7.14088 8.644C7.24488 8.468 7.33288 8.216 7.40488 7.888C7.47688 7.56 7.56488 7.132 7.66888 6.604L8.60488 6.784C8.57288 6.928 8.53688 7.088 8.49688 7.264C8.45688 7.44 8.42088 7.616 8.38888 7.792C8.36488 7.96 8.35288 8.108 8.35288 8.236C8.35288 8.396 8.38888 8.54 8.46088 8.668C8.53288 8.796 8.68888 8.896 8.92888 8.968C9.16888 9.04 9.53688 9.076 10.0329 9.076C10.2009 9.076 10.3209 9.124 10.3929 9.22C10.4729 9.308 10.5129 9.416 10.5129 9.544C10.5129 9.672 10.4569 9.792 10.3449 9.904C10.2329 10.008 10.0889 10.06 9.91288 10.06C9.39288 10.06 8.98488 10.016 8.68888 9.928C8.39288 9.832 8.17688 9.692 8.04088 9.508C7.90488 9.316 7.81288 9.084 7.76488 8.812L8.12488 8.836C7.99688 9.092 7.85688 9.3 7.70488 9.46C7.56088 9.62 7.40088 9.744 7.22488 9.832C7.04888 9.92 6.84488 9.98 6.61288 10.012C6.38088 10.044 6.10888 10.06 5.79688 10.06ZM7.83688 12.292C7.66888 12.292 7.52488 12.232 7.40488 12.112C7.29288 12 7.23688 11.864 7.23688 11.704C7.23688 11.544 7.29288 11.404 7.40488 11.284C7.52488 11.164 7.66888 11.104 7.83688 11.104C7.99688 11.104 8.13288 11.164 8.24488 11.284C8.36488 11.404 8.42488 11.544 8.42488 11.704C8.42488 11.864 8.36488 12 8.24488 12.112C8.13288 12.232 7.99688 12.292 7.83688 12.292ZM9.91016 10.06L10.0302 9.076C10.2542 9.076 10.4302 9.028 10.5582 8.932C10.6942 8.836 10.8222 8.676 10.9422 8.452C11.0702 8.228 11.2302 7.928 11.4222 7.552C11.6142 7.168 11.8062 6.856 11.9982 6.616C12.1982 6.368 12.3902 6.176 12.5742 6.04C12.7662 5.896 12.9462 5.796 13.1142 5.74C13.2822 5.684 13.4382 5.656 13.5822 5.656C13.8462 5.656 14.0822 5.716 14.2902 5.836C14.4982 5.948 14.6942 6.144 14.8782 6.424C15.0622 6.696 15.2502 7.072 15.4422 7.552C15.6262 7.992 15.7902 8.324 15.9342 8.548C16.0862 8.764 16.2422 8.908 16.4022 8.98C16.5702 9.044 16.7582 9.076 16.9662 9.076C17.1342 9.076 17.2542 9.124 17.3262 9.22C17.4062 9.308 17.4462 9.416 17.4462 9.544C17.4462 9.672 17.3902 9.792 17.2782 9.904C17.1662 10.008 17.0222 10.06 16.8462 10.06C16.5342 10.06 16.2462 10.008 15.9822 9.904C15.7262 9.8 15.5102 9.636 15.3342 9.412L15.5022 9.16C15.4142 9.408 15.2942 9.612 15.1422 9.772C14.9982 9.924 14.8342 10.036 14.6502 10.108C14.4662 10.188 14.2702 10.228 14.0622 10.228C13.7982 10.228 13.5262 10.172 13.2462 10.06C12.9742 9.948 12.7102 9.788 12.4542 9.58C12.1982 9.372 11.9742 9.128 11.7822 8.848C11.5742 9.216 11.3742 9.488 11.1822 9.664C10.9982 9.832 10.8062 9.94 10.6062 9.988C10.4062 10.036 10.1742 10.06 9.91016 10.06ZM12.2382 7.936C12.3742 8.16 12.5182 8.356 12.6702 8.524C12.8302 8.692 12.9902 8.832 13.1502 8.944C13.3102 9.048 13.4662 9.128 13.6182 9.184C13.7782 9.232 13.9222 9.256 14.0502 9.256C14.3302 9.256 14.5342 9.156 14.6622 8.956C14.7982 8.756 14.7942 8.476 14.6502 8.116C14.5782 7.932 14.5022 7.752 14.4222 7.576C14.3502 7.4 14.2702 7.24 14.1822 7.096C14.0942 6.944 13.9942 6.828 13.8822 6.748C13.7702 6.66 13.6462 6.616 13.5102 6.616C13.3902 6.616 13.2622 6.656 13.1262 6.736C12.9982 6.816 12.8582 6.952 12.7062 7.144C12.5622 7.336 12.4062 7.6 12.2382 7.936ZM16.8477 10.06L16.9677 9.076C17.3597 9.076 17.6717 9.052 17.9037 9.004C18.1357 8.956 18.3037 8.86 18.4077 8.716C18.5117 8.564 18.5637 8.34 18.5637 8.044C18.5637 7.844 18.5317 7.608 18.4677 7.336C18.4037 7.056 18.3197 6.76 18.2157 6.448C18.1117 6.136 17.9997 5.828 17.8797 5.524L18.8517 5.164C18.9557 5.42 19.0517 5.712 19.1397 6.04C19.2357 6.368 19.3157 6.692 19.3797 7.012C19.4437 7.332 19.4757 7.612 19.4757 7.852C19.4757 8.172 19.4397 8.456 19.3677 8.704C19.3037 8.944 19.2037 9.152 19.0677 9.328C18.9317 9.496 18.7557 9.636 18.5397 9.748C18.3317 9.852 18.0877 9.932 17.8077 9.988C17.5277 10.036 17.2077 10.06 16.8477 10.06ZM18.3837 3.916C18.2157 3.916 18.0717 3.86 17.9517 3.748C17.8397 3.628 17.7837 3.488 17.7837 3.328C17.7837 3.168 17.8397 3.028 17.9517 2.908C18.0717 2.788 18.2157 2.728 18.3837 2.728C18.5437 2.728 18.6797 2.788 18.7917 2.908C18.9117 3.028 18.9717 3.168 18.9717 3.328C18.9717 3.488 18.9117 3.628 18.7917 3.748C18.6797 3.86 18.5437 3.916 18.3837 3.916ZM23.4303 10.012C23.4303 9.82 23.4463 9.616 23.4783 9.4C23.5183 9.176 23.5743 8.94 23.6463 8.692C23.7263 8.436 23.8223 8.168 23.9343 7.888L24.7983 8.224C24.7183 8.448 24.6463 8.66 24.5823 8.86C24.5263 9.06 24.4823 9.248 24.4503 9.424C24.4263 9.6 24.4143 9.768 24.4143 9.928C24.4143 10.344 24.5223 10.688 24.7383 10.96C24.9543 11.232 25.2503 11.436 25.6263 11.572C26.0023 11.708 26.4263 11.776 26.8983 11.776C27.4343 11.776 27.8823 11.704 28.2423 11.56C28.6103 11.416 28.9023 11.224 29.1183 10.984C29.3343 10.752 29.4863 10.492 29.5743 10.204C29.6703 9.916 29.7183 9.632 29.7183 9.352C29.7183 9.048 29.6583 8.68 29.5383 8.248C29.4263 7.816 29.2143 7.28 28.9023 6.64L29.8023 6.184C29.9623 6.488 30.1063 6.808 30.2343 7.144C30.3703 7.472 30.4783 7.812 30.5583 8.164C30.6463 8.508 30.6903 8.86 30.6903 9.22C30.6903 9.532 30.6503 9.852 30.5703 10.18C30.4983 10.508 30.3743 10.824 30.1983 11.128C30.0223 11.44 29.7863 11.716 29.4903 11.956C29.2023 12.204 28.8423 12.4 28.4103 12.544C27.9863 12.688 27.4783 12.76 26.8863 12.76C26.4223 12.76 25.9783 12.704 25.5543 12.592C25.1383 12.488 24.7703 12.324 24.4503 12.1C24.1383 11.876 23.8903 11.592 23.7063 11.248C23.5223 10.904 23.4303 10.492 23.4303 10.012ZM27.0543 5.224C26.8863 5.224 26.7423 5.168 26.6223 5.056C26.5103 4.936 26.4543 4.796 26.4543 4.636C26.4543 4.476 26.5103 4.336 26.6223 4.216C26.7423 4.096 26.8863 4.036 27.0543 4.036C27.2143 4.036 27.3503 4.096 27.4623 4.216C27.5823 4.336 27.6423 4.476 27.6423 4.636C27.6423 4.796 27.5823 4.936 27.4623 5.056C27.3503 5.168 27.2143 5.224 27.0543 5.224ZM34.7772 10.06C34.1372 10.06 33.6452 9.988 33.3012 9.844C32.9652 9.7 32.7332 9.476 32.6052 9.172C32.4772 8.868 32.4052 8.476 32.3892 7.996L32.1492 1.432H33.1332L33.3732 7.612C33.3892 8.004 33.4252 8.308 33.4812 8.524C33.5452 8.732 33.6812 8.876 33.8892 8.956C34.1052 9.036 34.4412 9.076 34.8972 9.076C35.0652 9.076 35.1852 9.124 35.2572 9.22C35.3372 9.308 35.3772 9.416 35.3772 9.544C35.3772 9.672 35.3212 9.792 35.2092 9.904C35.0972 10.008 34.9532 10.06 34.7772 10.06ZM34.7773 10.06L34.8973 9.076H35.8213C36.4853 9.076 36.9773 9.04 37.2973 8.968C37.6173 8.896 37.8253 8.8 37.9213 8.68C38.0253 8.56 38.0773 8.436 38.0773 8.308C38.0773 8.116 38.0053 7.904 37.8613 7.672C37.7173 7.44 37.5333 7.204 37.3093 6.964C37.0853 6.716 36.8453 6.472 36.5893 6.232C36.3413 5.992 36.1053 5.772 35.8813 5.572C35.6573 5.372 35.4733 5.2 35.3293 5.056C35.1853 4.904 35.1133 4.796 35.1133 4.732C35.1133 4.612 35.1213 4.496 35.1373 4.384C35.1613 4.272 35.1893 4.168 35.2213 4.072C35.2613 3.976 35.3093 3.9 35.3653 3.844C35.5253 3.676 35.7453 3.5 36.0253 3.316C36.3053 3.124 36.6293 2.932 36.9973 2.74C37.3653 2.54 37.7573 2.34 38.1733 2.14C38.5893 1.932 39.0093 1.724 39.4333 1.516L39.8413 2.404C39.4573 2.596 39.0733 2.788 38.6893 2.98C38.3053 3.164 37.9333 3.348 37.5733 3.532C37.2133 3.716 36.8733 3.904 36.5533 4.096C36.2413 4.28 35.9573 4.468 35.7013 4.66L35.7733 4.252C36.1333 4.556 36.4733 4.848 36.7933 5.128C37.1133 5.408 37.4173 5.696 37.7053 5.992C37.9933 6.28 38.2613 6.592 38.5093 6.928C38.7573 7.264 38.9893 7.636 39.2053 8.044C39.3733 8.356 39.5693 8.584 39.7933 8.728C40.0173 8.872 40.2373 8.968 40.4533 9.016C40.6773 9.056 40.8573 9.076 40.9933 9.076C41.1613 9.076 41.2813 9.124 41.3533 9.22C41.4333 9.308 41.4733 9.416 41.4733 9.544C41.4733 9.672 41.4173 9.792 41.3053 9.904C41.1933 10.008 41.0493 10.06 40.8733 10.06C40.6573 10.06 40.4013 10.028 40.1053 9.964C39.8173 9.892 39.5333 9.756 39.2533 9.556C38.9733 9.356 38.7413 9.052 38.5573 8.644L38.9173 8.788C38.7973 9.004 38.6573 9.192 38.4973 9.352C38.3453 9.504 38.1493 9.636 37.9093 9.748C37.6693 9.852 37.3773 9.932 37.0333 9.988C36.6893 10.036 36.2693 10.06 35.7733 10.06H34.7773ZM40.8711 10.06L40.9911 9.076C41.2151 9.076 41.4031 9.028 41.5551 8.932C41.7071 8.836 41.8551 8.676 41.9991 8.452C42.1431 8.228 42.2991 7.928 42.4671 7.552C42.6991 7.04 42.9271 6.652 43.1511 6.388C43.3831 6.124 43.6111 5.944 43.8351 5.848C44.0671 5.752 44.2951 5.704 44.5191 5.704C44.7911 5.704 45.0431 5.776 45.2751 5.92C45.5071 6.056 45.7111 6.24 45.8871 6.472C46.0631 6.704 46.1991 6.96 46.2951 7.24C46.3991 7.512 46.4511 7.784 46.4511 8.056C46.4511 8.536 46.3671 8.92 46.1991 9.208C46.0311 9.488 45.8151 9.692 45.5511 9.82C45.2951 9.94 45.0271 10 44.7471 10C44.4991 10 44.1791 9.952 43.7871 9.856C43.4031 9.76 42.9151 9.516 42.3231 9.124L42.7911 8.368C43.1831 8.616 43.5351 8.788 43.8471 8.884C44.1671 8.972 44.4311 9.016 44.6391 9.016C44.8711 9.016 45.0551 8.984 45.1911 8.92C45.3271 8.848 45.4271 8.748 45.4911 8.62C45.5551 8.492 45.5871 8.348 45.5871 8.188C45.5871 7.956 45.5311 7.724 45.4191 7.492C45.3071 7.26 45.1631 7.068 44.9871 6.916C44.8191 6.764 44.6391 6.688 44.4471 6.688C44.3031 6.688 44.1631 6.728 44.0271 6.808C43.8911 6.888 43.7511 7.036 43.6071 7.252C43.4631 7.468 43.2991 7.78 43.1151 8.188C42.9231 8.62 42.7391 8.964 42.5631 9.22C42.3951 9.468 42.2231 9.652 42.0471 9.772C41.8711 9.892 41.6871 9.968 41.4951 10C41.3111 10.04 41.1031 10.06 40.8711 10.06ZM51.0038 10.396L50.1518 10.108L53.8358 1.096L54.6878 1.408L51.0038 10.396ZM58.0944 10.012C58.0944 9.82 58.1104 9.616 58.1424 9.4C58.1824 9.176 58.2384 8.94 58.3104 8.692C58.3904 8.436 58.4864 8.168 58.5984 7.888L59.4624 8.224C59.3824 8.448 59.3104 8.66 59.2464 8.86C59.1904 9.06 59.1464 9.248 59.1144 9.424C59.0904 9.6 59.0784 9.768 59.0784 9.928C59.0784 10.264 59.1504 10.548 59.2944 10.78C59.4464 11.02 59.6544 11.216 59.9184 11.368C60.1824 11.52 60.4824 11.632 60.8184 11.704C61.1624 11.776 61.5264 11.812 61.9104 11.812C62.3744 11.812 62.8064 11.772 63.2064 11.692C63.6144 11.612 63.9704 11.496 64.2744 11.344C64.5864 11.2 64.8304 11.032 65.0064 10.84C65.1824 10.656 65.2704 10.456 65.2704 10.24C65.2704 10.136 65.2304 10.04 65.1504 9.952C65.0704 9.864 64.9504 9.78 64.7904 9.7C64.6304 9.62 64.4384 9.544 64.2144 9.472C63.9904 9.392 63.7344 9.312 63.4464 9.232L63.6744 8.236C64.0904 8.396 64.4584 8.532 64.7784 8.644C65.0984 8.748 65.3784 8.832 65.6184 8.896C65.8584 8.96 66.0664 9.008 66.2424 9.04C66.4184 9.064 66.5664 9.076 66.6864 9.076C66.8544 9.076 66.9744 9.124 67.0464 9.22C67.1264 9.308 67.1664 9.416 67.1664 9.544C67.1664 9.672 67.1104 9.792 66.9984 9.904C66.8864 10.008 66.7424 10.06 66.5664 10.06C66.5184 10.06 66.4704 10.06 66.4224 10.06C66.3744 10.06 66.3224 10.06 66.2664 10.06C66.2184 10.06 66.1704 10.06 66.1224 10.06C66.1384 10.132 66.1504 10.188 66.1584 10.228C66.1664 10.276 66.1704 10.336 66.1704 10.408C66.1704 10.704 66.0664 10.992 65.8584 11.272C65.6584 11.552 65.3624 11.804 64.9704 12.028C64.5784 12.26 64.1024 12.444 63.5424 12.58C62.9904 12.716 62.3584 12.784 61.6464 12.784C61.0144 12.784 60.4264 12.68 59.8824 12.472C59.3464 12.272 58.9144 11.968 58.5864 11.56C58.2584 11.152 58.0944 10.636 58.0944 10.012ZM66.5703 10.06L66.6783 9.076C67.1343 9.076 67.4543 9.032 67.6383 8.944C67.8223 8.856 67.9263 8.7 67.9503 8.476C67.9823 8.252 67.9903 7.94 67.9743 7.54L67.7703 1.432H68.7663L68.9583 7.516C68.9743 7.924 69.0383 8.244 69.1503 8.476C69.2703 8.7 69.4303 8.856 69.6303 8.944C69.8303 9.032 70.0503 9.076 70.2903 9.076C70.4583 9.076 70.5783 9.124 70.6503 9.22C70.7303 9.308 70.7703 9.416 70.7703 9.544C70.7703 9.672 70.7143 9.792 70.6023 9.904C70.4903 10.008 70.3463 10.06 70.1703 10.06C69.8343 10.06 69.5543 10.008 69.3303 9.904C69.1143 9.792 68.9423 9.652 68.8143 9.484C68.6943 9.308 68.6143 9.124 68.5743 8.932L68.8263 8.956C68.7463 9.196 68.6143 9.4 68.4303 9.568C68.2543 9.728 68.0143 9.852 67.7103 9.94C67.4063 10.02 67.0263 10.06 66.5703 10.06ZM70.156 3.4L69.712 2.728C70.024 2.536 70.396 2.308 70.828 2.044C71.268 1.78 71.772 1.488 72.34 1.168C72.908 0.848 73.536 0.508 74.224 0.148L74.56 0.879999C73.864 1.248 73.244 1.584 72.7 1.888C72.164 2.192 71.688 2.468 71.272 2.716C70.856 2.964 70.484 3.192 70.156 3.4ZM70.168 10.06L70.288 9.076H71.416C71.888 9.076 72.26 9.052 72.532 9.004C72.812 8.948 73.016 8.88 73.144 8.8C73.28 8.712 73.368 8.62 73.408 8.524C73.456 8.42 73.48 8.316 73.48 8.212C73.48 8.028 73.408 7.8 73.264 7.528C73.128 7.256 72.844 6.904 72.412 6.472C72.188 6.248 71.964 6.044 71.74 5.86C71.516 5.668 71.308 5.5 71.116 5.356C70.932 5.204 70.784 5.076 70.672 4.972C70.56 4.868 70.504 4.788 70.504 4.732C70.504 4.612 70.512 4.496 70.528 4.384C70.552 4.272 70.58 4.168 70.612 4.072C70.652 3.976 70.7 3.9 70.756 3.844C70.916 3.676 71.12 3.508 71.368 3.34C71.624 3.172 71.92 2.996 72.256 2.812C72.6 2.628 72.984 2.432 73.408 2.224C73.84 2.008 74.312 1.772 74.824 1.516L75.232 2.404C74.592 2.708 74.056 2.968 73.624 3.184C73.2 3.392 72.84 3.58 72.544 3.748C72.248 3.908 71.988 4.06 71.764 4.204C71.54 4.348 71.312 4.508 71.08 4.684L71.26 4.228C71.764 4.628 72.208 5.004 72.592 5.356C72.984 5.708 73.312 6.048 73.576 6.376C73.84 6.696 74.04 7.012 74.176 7.324C74.312 7.636 74.38 7.952 74.38 8.272C74.38 8.448 74.348 8.64 74.284 8.848C74.22 9.056 74.084 9.252 73.876 9.436C73.668 9.62 73.356 9.772 72.94 9.892C72.524 10.004 71.964 10.06 71.26 10.06H70.168ZM78.9413 10.396L78.0893 10.108L81.7733 1.096L82.6253 1.408L78.9413 10.396ZM91.4199 10.06C90.9639 10.06 90.5959 9.992 90.3159 9.856C90.0439 9.72 89.8199 9.532 89.6439 9.292C89.4759 9.044 89.3279 8.752 89.1999 8.416C89.0719 8.08 88.9359 7.716 88.7919 7.324C88.7599 7.22 88.6839 7.148 88.5639 7.108C88.4439 7.068 88.3159 7.048 88.1799 7.048C87.9719 7.048 87.7639 7.092 87.5559 7.18C87.3559 7.268 87.1879 7.4 87.0519 7.576C86.9239 7.752 86.8599 7.968 86.8599 8.224C86.8599 8.448 86.8919 8.664 86.9559 8.872C87.0279 9.072 87.1079 9.3 87.1959 9.556L86.3319 9.796C86.2679 9.612 86.1999 9.436 86.1279 9.268C86.0639 9.1 86.0119 8.924 85.9719 8.74C85.9319 8.556 85.9119 8.352 85.9119 8.128C85.9119 7.8 85.9839 7.508 86.1279 7.252C86.2719 6.996 86.4639 6.78 86.7039 6.604C86.9439 6.428 87.2079 6.296 87.4959 6.208C87.7839 6.112 88.0679 6.064 88.3479 6.064C88.4839 6.064 88.6279 6.076 88.7799 6.1C88.9399 6.124 89.0839 6.184 89.2119 6.28C89.3479 6.368 89.4479 6.512 89.5119 6.712C89.6399 7.072 89.7519 7.4 89.8479 7.696C89.9519 7.984 90.0679 8.232 90.1959 8.44C90.3239 8.648 90.4919 8.808 90.6999 8.92C90.9159 9.024 91.1959 9.076 91.5399 9.076C91.7079 9.076 91.8279 9.124 91.8999 9.22C91.9799 9.308 92.0199 9.416 92.0199 9.544C92.0199 9.672 91.9639 9.792 91.8519 9.904C91.7399 10.008 91.5959 10.06 91.4199 10.06ZM91.4141 10.06L91.5341 9.076C91.7341 9.076 91.9541 9.076 92.1941 9.076C92.4421 9.068 92.6901 9.06 92.9381 9.052C93.1941 9.044 93.4301 9.028 93.6461 9.004C93.8621 8.972 94.0421 8.932 94.1861 8.884C94.4741 8.78 94.6981 8.652 94.8581 8.5C95.0181 8.34 95.1301 8.132 95.1941 7.876C95.2661 7.612 95.3021 7.276 95.3021 6.868C95.3021 6.532 95.2581 6.22 95.1701 5.932C95.0821 5.644 94.9581 5.412 94.7981 5.236C94.6381 5.06 94.4461 4.972 94.2221 4.972C94.0381 4.972 93.8701 5.044 93.7181 5.188C93.5741 5.324 93.4581 5.5 93.3701 5.716C93.2901 5.932 93.2501 6.148 93.2501 6.364C93.2501 6.532 93.2821 6.676 93.3461 6.796C93.4181 6.916 93.5341 7.012 93.6941 7.084C93.8541 7.148 94.0621 7.18 94.3181 7.18C94.5501 7.18 94.7821 7.156 95.0141 7.108C95.2541 7.06 95.4581 6.996 95.6261 6.916L95.6741 7.756C95.5461 7.844 95.4021 7.916 95.2421 7.972C95.0821 8.028 94.9141 8.068 94.7381 8.092C94.5621 8.116 94.3861 8.128 94.2101 8.128C93.8021 8.128 93.4541 8.064 93.1661 7.936C92.8861 7.8 92.6701 7.62 92.5181 7.396C92.3741 7.164 92.3021 6.9 92.3021 6.604C92.3021 6.3 92.3501 5.996 92.4461 5.692C92.5421 5.38 92.6781 5.096 92.8541 4.84C93.0301 4.584 93.2421 4.38 93.4901 4.228C93.7381 4.068 94.0141 3.988 94.3181 3.988C94.7501 3.988 95.1061 4.128 95.3861 4.408C95.6741 4.688 95.8861 5.056 96.0221 5.512C96.1661 5.96 96.2381 6.436 96.2381 6.94C96.2381 7.54 96.1341 8.056 95.9261 8.488C95.7261 8.912 95.3901 9.264 94.9181 9.544C94.7341 9.648 94.5101 9.736 94.2461 9.808C93.9901 9.872 93.7061 9.924 93.3941 9.964C93.0901 10.004 92.7701 10.028 92.4341 10.036C92.0981 10.052 91.7581 10.06 91.4141 10.06ZM94.9301 2.752C94.7621 2.752 94.6181 2.696 94.4981 2.584C94.3861 2.464 94.3301 2.324 94.3301 2.164C94.3301 2.004 94.3861 1.864 94.4981 1.744C94.6181 1.624 94.7621 1.564 94.9301 1.564C95.0901 1.564 95.2261 1.624 95.3381 1.744C95.4581 1.864 95.5181 2.004 95.5181 2.164C95.5181 2.324 95.4581 2.464 95.3381 2.584C95.2261 2.696 95.0901 2.752 94.9301 2.752ZM93.2861 2.752C93.1181 2.752 92.9741 2.696 92.8541 2.584C92.7421 2.464 92.6861 2.324 92.6861 2.164C92.6861 2.004 92.7421 1.864 92.8541 1.744C92.9741 1.624 93.1181 1.564 93.2861 1.564C93.4461 1.564 93.5821 1.624 93.6941 1.744C93.8141 1.864 93.8741 2.004 93.8741 2.164C93.8741 2.324 93.8141 2.464 93.6941 2.584C93.5821 2.696 93.4461 2.752 93.2861 2.752ZM103.969 10.06C103.489 10.06 103.093 10.02 102.781 9.94C102.477 9.86 102.237 9.736 102.061 9.568C101.893 9.4 101.773 9.188 101.701 8.932C101.637 8.668 101.597 8.356 101.581 7.996L101.341 1.432H102.325L102.565 7.612C102.581 8.004 102.617 8.308 102.673 8.524C102.737 8.732 102.873 8.876 103.081 8.956C103.297 9.036 103.633 9.076 104.089 9.076C104.257 9.076 104.377 9.124 104.449 9.22C104.529 9.308 104.569 9.416 104.569 9.544C104.569 9.672 104.513 9.792 104.401 9.904C104.289 10.008 104.145 10.06 103.969 10.06ZM98.4853 10.06C98.2693 10.06 98.0493 10.04 97.8253 10C97.6093 9.968 97.4573 9.944 97.3693 9.928L97.5013 8.98C98.0533 9.052 98.5733 9.064 99.0613 9.016C99.5493 8.968 99.9733 8.832 100.333 8.608C100.701 8.376 100.989 8.028 101.197 7.564C101.405 7.1 101.509 6.496 101.509 5.752L102.085 7.192C101.989 7.696 101.845 8.12 101.653 8.464C101.461 8.8 101.237 9.076 100.981 9.292C100.733 9.5 100.465 9.66 100.177 9.772C99.8893 9.884 99.6013 9.96 99.3133 10C99.0253 10.04 98.7493 10.06 98.4853 10.06ZM101.089 8.416C100.961 8.168 100.781 7.88 100.549 7.552C100.317 7.216 100.037 6.852 99.7093 6.46C99.3813 6.068 99.0093 5.66 98.5933 5.236C98.1853 4.812 97.7413 4.384 97.2613 3.952L97.9093 3.268C98.4373 3.772 98.9053 4.244 99.3133 4.684C99.7293 5.116 100.093 5.524 100.405 5.908C100.717 6.284 100.985 6.628 101.209 6.94C101.433 7.252 101.621 7.536 101.773 7.792L101.089 8.416ZM103.965 10.06L104.085 9.076C104.589 9.076 104.977 9.072 105.249 9.064C105.529 9.056 105.733 9.048 105.861 9.04C105.989 9.024 106.077 9.016 106.125 9.016C105.981 8.936 105.813 8.812 105.621 8.644C105.429 8.468 105.261 8.248 105.117 7.984C104.973 7.712 104.901 7.392 104.901 7.024C104.901 6.568 105.005 6.168 105.213 5.824C105.429 5.48 105.721 5.212 106.089 5.02C106.465 4.828 106.893 4.732 107.373 4.732C107.557 4.732 107.753 4.748 107.961 4.78C108.169 4.812 108.369 4.86 108.561 4.924L108.357 5.848C108.197 5.808 108.029 5.776 107.853 5.752C107.677 5.728 107.517 5.716 107.373 5.716C107.085 5.716 106.829 5.772 106.605 5.884C106.381 5.988 106.205 6.136 106.077 6.328C105.949 6.52 105.885 6.752 105.885 7.024C105.885 7.232 105.929 7.424 106.017 7.6C106.105 7.768 106.221 7.92 106.365 8.056C106.509 8.192 106.669 8.304 106.845 8.392C107.021 8.48 107.193 8.548 107.361 8.596C107.537 8.644 107.693 8.664 107.829 8.656C107.925 8.624 108.013 8.596 108.093 8.572C108.173 8.548 108.261 8.52 108.357 8.488C108.461 8.448 108.585 8.396 108.729 8.332C108.881 8.268 109.073 8.184 109.305 8.08L109.641 8.956C109.105 9.172 108.557 9.364 107.997 9.532C107.445 9.7 106.841 9.832 106.185 9.928C105.537 10.016 104.797 10.06 103.965 10.06Z" fill="black"/>
</svg>
