<svg width="135" height="15" viewBox="0 0 135 15" fill="none" xmlns="http://www.w3.org/2000/svg">
<path d="M2.90281 8.588V8.384C2.90281 8.152 2.87881 7.956 2.83081 7.796C2.78281 7.628 2.69081 7.46 2.55481 7.292C2.41881 7.124 2.21481 6.928 1.94281 6.704C1.65481 6.464 1.40281 6.24 1.18681 6.032C0.978813 5.816 0.814813 5.584 0.694813 5.336C0.582813 5.08 0.526813 4.772 0.526813 4.412C0.526813 3.764 0.734813 3.252 1.15081 2.876C1.56681 2.5 2.15481 2.312 2.91481 2.312C3.39481 2.312 3.82681 2.368 4.21081 2.48C4.60281 2.592 4.95881 2.732 5.27881 2.9L4.90681 3.74C4.63481 3.604 4.34681 3.488 4.04281 3.392C3.73881 3.288 3.38681 3.236 2.98681 3.236C2.52281 3.236 2.16281 3.34 1.90681 3.548C1.65881 3.756 1.53481 4.052 1.53481 4.436C1.53481 4.676 1.57081 4.88 1.64281 5.048C1.71481 5.216 1.83881 5.388 2.01481 5.564C2.19081 5.74 2.43081 5.96 2.73481 6.224C2.99881 6.44 3.20281 6.648 3.34681 6.848C3.49081 7.048 3.59081 7.26 3.64681 7.484C3.71081 7.7 3.74281 7.96 3.74281 8.264V8.588H2.90281ZM3.27481 11.168C3.07481 11.168 2.90281 11.104 2.75881 10.976C2.61481 10.848 2.54281 10.64 2.54281 10.352C2.54281 10.056 2.61481 9.848 2.75881 9.728C2.90281 9.608 3.07481 9.548 3.27481 9.548C3.49081 9.548 3.66681 9.608 3.80281 9.728C3.94681 9.848 4.01881 10.056 4.01881 10.352C4.01881 10.64 3.94681 10.848 3.80281 10.976C3.66681 11.104 3.49081 11.168 3.27481 11.168ZM5.94594 11.012C5.94594 10.724 5.98594 10.404 6.06594 10.052C6.14594 9.7 6.27394 9.312 6.44994 8.888L7.31394 9.224C7.18594 9.56 7.08994 9.868 7.02594 10.148C6.96194 10.428 6.92994 10.688 6.92994 10.928C6.92994 11.368 7.03794 11.724 7.25394 11.996C7.47794 12.276 7.77394 12.48 8.14194 12.608C8.51794 12.736 8.92994 12.8 9.37794 12.8C9.92194 12.8 10.3779 12.74 10.7459 12.62C11.1139 12.508 11.4059 12.352 11.6219 12.152C11.8379 11.952 11.9899 11.724 12.0779 11.468C12.1739 11.22 12.2219 10.96 12.2219 10.688C12.2219 10.336 12.1939 10.004 12.1379 9.692C12.0899 9.38 12.0219 9.076 11.9339 8.78C11.8539 8.476 11.7659 8.168 11.6699 7.856L12.6419 7.592C12.7299 7.896 12.7979 8.144 12.8459 8.336C12.8939 8.52 12.9299 8.668 12.9539 8.78C12.9859 8.892 13.0139 8.992 13.0379 9.08C13.1259 9.376 13.2419 9.596 13.3859 9.74C13.5299 9.876 13.6939 9.968 13.8779 10.016C14.0699 10.056 14.2659 10.076 14.4659 10.076C14.6339 10.076 14.7539 10.124 14.8259 10.22C14.9059 10.308 14.9459 10.416 14.9459 10.544C14.9459 10.672 14.8899 10.792 14.7779 10.904C14.6659 11.008 14.5219 11.06 14.3459 11.06C14.0099 11.06 13.7299 11.004 13.5059 10.892C13.2819 10.772 13.1059 10.624 12.9779 10.448C12.8579 10.272 12.7779 10.088 12.7379 9.896L13.2299 10.508C13.2059 10.916 13.1259 11.312 12.9899 11.696C12.8619 12.088 12.6539 12.44 12.3659 12.752C12.0779 13.072 11.6859 13.324 11.1899 13.508C10.7019 13.692 10.0859 13.784 9.34194 13.784C8.88594 13.784 8.45394 13.728 8.04594 13.616C7.63794 13.504 7.27394 13.332 6.95394 13.1C6.64194 12.876 6.39394 12.588 6.20994 12.236C6.03394 11.892 5.94594 11.484 5.94594 11.012ZM14.3516 11.06L14.4716 10.076C14.8716 10.076 15.1836 10.048 15.4076 9.992C15.6316 9.928 15.7996 9.812 15.9116 9.644C16.0316 9.468 16.1276 9.216 16.1996 8.888C16.2716 8.56 16.3596 8.132 16.4636 7.604L17.3996 7.784C17.3676 7.928 17.3316 8.088 17.2916 8.264C17.2516 8.44 17.2156 8.616 17.1836 8.792C17.1596 8.96 17.1476 9.108 17.1476 9.236C17.1476 9.356 17.1556 9.468 17.1716 9.572C17.1876 9.676 17.2476 9.764 17.3516 9.836C17.4556 9.908 17.6316 9.968 17.8796 10.016C18.1276 10.056 18.4836 10.076 18.9476 10.076C19.1156 10.076 19.2356 10.124 19.3076 10.22C19.3876 10.308 19.4276 10.416 19.4276 10.544C19.4276 10.672 19.3716 10.792 19.2596 10.904C19.1476 11.008 19.0036 11.06 18.8276 11.06C18.3396 11.06 17.9516 11.036 17.6636 10.988C17.3756 10.932 17.1556 10.852 17.0036 10.748C16.8596 10.644 16.7556 10.516 16.6916 10.364C16.6356 10.204 16.5916 10.02 16.5596 9.812L16.9196 9.836C16.7916 10.092 16.6516 10.3 16.4996 10.46C16.3556 10.62 16.1876 10.744 15.9956 10.832C15.8036 10.92 15.5716 10.98 15.2996 11.012C15.0356 11.044 14.7196 11.06 14.3516 11.06ZM17.3756 13.328C17.2076 13.328 17.0636 13.268 16.9436 13.148C16.8316 13.036 16.7756 12.9 16.7756 12.74C16.7756 12.58 16.8316 12.44 16.9436 12.32C17.0636 12.2 17.2076 12.14 17.3756 12.14C17.5356 12.14 17.6716 12.2 17.7836 12.32C17.9036 12.44 17.9636 12.58 17.9636 12.74C17.9636 12.9 17.9036 13.036 17.7836 13.148C17.6716 13.268 17.5356 13.328 17.3756 13.328ZM15.7316 13.328C15.5636 13.328 15.4196 13.268 15.2996 13.148C15.1876 13.036 15.1316 12.9 15.1316 12.74C15.1316 12.58 15.1876 12.44 15.2996 12.32C15.4196 12.2 15.5636 12.14 15.7316 12.14C15.8916 12.14 16.0276 12.2 16.1396 12.32C16.2596 12.44 16.3196 12.58 16.3196 12.74C16.3196 12.9 16.2596 13.036 16.1396 13.148C16.0276 13.268 15.8916 13.328 15.7316 13.328ZM20.4601 11.324L20.7721 11.636C20.5241 11.772 20.3641 11.928 20.2921 12.104C20.2201 12.288 20.2241 12.5 20.3041 12.74L19.8001 12.596C19.8641 12.524 19.9361 12.468 20.0161 12.428C20.0961 12.388 20.1841 12.368 20.2801 12.368C20.4241 12.368 20.5441 12.4 20.6401 12.464C20.7361 12.536 20.7841 12.636 20.7841 12.764C20.7841 12.868 20.7441 12.976 20.6641 13.088C20.5841 13.2 20.4521 13.256 20.2681 13.256C20.1161 13.256 19.9841 13.2 19.8721 13.088C19.7681 12.976 19.7161 12.808 19.7161 12.584C19.7161 12.448 19.7401 12.3 19.7881 12.14C19.8441 11.98 19.9241 11.824 20.0281 11.672C20.1401 11.528 20.2841 11.412 20.4601 11.324ZM18.8281 11.06L18.9481 10.076C19.3401 10.076 19.6521 10.052 19.8841 10.004C20.1161 9.956 20.2841 9.86 20.3881 9.716C20.4921 9.564 20.5441 9.34 20.5441 9.044C20.5441 8.844 20.5121 8.608 20.4481 8.336C20.3841 8.056 20.3001 7.76 20.1961 7.448C20.0921 7.136 19.9801 6.828 19.8601 6.524L20.8321 6.164C20.9361 6.42 21.0321 6.712 21.1201 7.04C21.2161 7.368 21.2961 7.692 21.3601 8.012C21.4241 8.332 21.4561 8.612 21.4561 8.852C21.4561 9.172 21.4201 9.456 21.3481 9.704C21.2841 9.944 21.1841 10.152 21.0481 10.328C20.9121 10.496 20.7361 10.636 20.5201 10.748C20.3121 10.852 20.0681 10.932 19.7881 10.988C19.5081 11.036 19.1881 11.06 18.8281 11.06ZM30.3188 14.312C29.5908 14.312 28.9068 14.268 28.2668 14.18C27.6348 14.1 27.0748 13.972 26.5868 13.796C26.1068 13.628 25.7308 13.42 25.4588 13.172C25.1868 12.932 25.0508 12.656 25.0508 12.344C25.0508 12.016 25.1868 11.712 25.4588 11.432C25.7388 11.16 26.1548 10.924 26.7068 10.724C27.2668 10.524 27.9668 10.372 28.8068 10.268C29.6468 10.156 30.6308 10.1 31.7588 10.1C31.9268 10.1 32.0468 10.148 32.1188 10.244C32.1988 10.332 32.2388 10.44 32.2388 10.568C32.2388 10.696 32.1828 10.816 32.0708 10.928C31.9588 11.032 31.8148 11.084 31.6388 11.084C30.8388 11.084 30.0988 11.108 29.4188 11.156C28.7388 11.212 28.1428 11.288 27.6308 11.384C27.1268 11.48 26.7308 11.6 26.4428 11.744C26.1628 11.888 26.0228 12.056 26.0228 12.248C26.0228 12.392 26.1108 12.536 26.2868 12.68C26.4628 12.824 26.7268 12.952 27.0788 13.064C27.4308 13.184 27.8788 13.28 28.4228 13.352C28.9668 13.424 29.6028 13.46 30.3308 13.46C30.7148 13.46 31.0068 13.456 31.2068 13.448C31.4148 13.448 31.5868 13.444 31.7228 13.436C31.8588 13.428 32.0148 13.42 32.1908 13.412L32.0708 14.24C31.9748 14.248 31.8788 14.256 31.7828 14.264C31.6868 14.28 31.5748 14.288 31.4468 14.288C31.3268 14.296 31.1748 14.3 30.9908 14.3C30.8148 14.308 30.5908 14.312 30.3188 14.312ZM31.6367 11.06L31.7567 10.076C32.1567 10.076 32.4687 10.048 32.6927 9.992C32.9167 9.928 33.0847 9.812 33.1967 9.644C33.3167 9.468 33.4127 9.216 33.4847 8.888C33.5567 8.56 33.6447 8.132 33.7487 7.604L34.6847 7.784C34.6527 7.928 34.6167 8.088 34.5767 8.264C34.5367 8.44 34.5007 8.616 34.4687 8.792C34.4447 8.96 34.4327 9.108 34.4327 9.236C34.4327 9.356 34.4407 9.468 34.4567 9.572C34.4727 9.676 34.5327 9.764 34.6367 9.836C34.7407 9.908 34.9167 9.968 35.1647 10.016C35.4127 10.056 35.7687 10.076 36.2327 10.076C36.4007 10.076 36.5207 10.124 36.5927 10.22C36.6727 10.308 36.7127 10.416 36.7127 10.544C36.7127 10.672 36.6567 10.792 36.5447 10.904C36.4327 11.008 36.2887 11.06 36.1127 11.06C35.6247 11.06 35.2367 11.036 34.9487 10.988C34.6607 10.932 34.4407 10.852 34.2887 10.748C34.1447 10.644 34.0407 10.516 33.9767 10.364C33.9207 10.204 33.8767 10.02 33.8447 9.812L34.2047 9.836C34.0767 10.092 33.9367 10.3 33.7847 10.46C33.6407 10.62 33.4727 10.744 33.2807 10.832C33.0887 10.92 32.8567 10.98 32.5847 11.012C32.3207 11.044 32.0047 11.06 31.6367 11.06ZM34.8407 6.368C34.6727 6.368 34.5287 6.312 34.4087 6.2C34.2967 6.08 34.2407 5.94 34.2407 5.78C34.2407 5.62 34.2967 5.48 34.4087 5.36C34.5287 5.24 34.6727 5.18 34.8407 5.18C35.0007 5.18 35.1367 5.24 35.2487 5.36C35.3687 5.48 35.4287 5.62 35.4287 5.78C35.4287 5.94 35.3687 6.08 35.2487 6.2C35.1367 6.312 35.0007 6.368 34.8407 6.368ZM33.1967 6.368C33.0287 6.368 32.8847 6.312 32.7647 6.2C32.6527 6.08 32.5967 5.94 32.5967 5.78C32.5967 5.62 32.6527 5.48 32.7647 5.36C32.8847 5.24 33.0287 5.18 33.1967 5.18C33.3567 5.18 33.4927 5.24 33.6047 5.36C33.7247 5.48 33.7847 5.62 33.7847 5.78C33.7847 5.94 33.7247 6.08 33.6047 6.2C33.4927 6.312 33.3567 6.368 33.1967 6.368ZM37.7453 11.324L38.0573 11.636C37.8093 11.772 37.6493 11.928 37.5773 12.104C37.5053 12.288 37.5093 12.5 37.5893 12.74L37.0853 12.596C37.1493 12.524 37.2213 12.468 37.3013 12.428C37.3813 12.388 37.4693 12.368 37.5653 12.368C37.7093 12.368 37.8293 12.4 37.9253 12.464C38.0213 12.536 38.0693 12.636 38.0693 12.764C38.0693 12.868 38.0293 12.976 37.9493 13.088C37.8693 13.2 37.7373 13.256 37.5533 13.256C37.4013 13.256 37.2693 13.2 37.1573 13.088C37.0533 12.976 37.0013 12.808 37.0013 12.584C37.0013 12.448 37.0253 12.3 37.0733 12.14C37.1293 11.98 37.2093 11.824 37.3133 11.672C37.4253 11.528 37.5693 11.412 37.7453 11.324ZM36.1133 11.06L36.2333 10.076C36.6253 10.076 36.9373 10.052 37.1693 10.004C37.4013 9.956 37.5693 9.86 37.6733 9.716C37.7773 9.564 37.8293 9.34 37.8293 9.044C37.8293 8.844 37.7973 8.608 37.7333 8.336C37.6693 8.056 37.5853 7.76 37.4813 7.448C37.3773 7.136 37.2653 6.828 37.1453 6.524L38.1173 6.164C38.2213 6.42 38.3173 6.712 38.4053 7.04C38.5013 7.368 38.5813 7.692 38.6453 8.012C38.7093 8.332 38.7413 8.612 38.7413 8.852C38.7413 9.172 38.7053 9.456 38.6333 9.704C38.5693 9.944 38.4693 10.152 38.3333 10.328C38.1973 10.496 38.0213 10.636 37.8053 10.748C37.5973 10.852 37.3533 10.932 37.0733 10.988C36.7933 11.036 36.4733 11.06 36.1133 11.06ZM42.8279 11.06C42.1879 11.06 41.6959 10.988 41.3519 10.844C41.0159 10.7 40.7839 10.476 40.6559 10.172C40.5279 9.868 40.4559 9.476 40.4399 8.996L40.1999 2.432H41.1839L41.4239 8.612C41.4399 9.004 41.4759 9.308 41.5319 9.524C41.5959 9.732 41.7319 9.876 41.9399 9.956C42.1559 10.036 42.4919 10.076 42.9479 10.076C43.1159 10.076 43.2359 10.124 43.3079 10.22C43.3879 10.308 43.4279 10.416 43.4279 10.544C43.4279 10.672 43.3719 10.792 43.2599 10.904C43.1479 11.008 43.0039 11.06 42.8279 11.06ZM42.8281 11.06L42.9361 10.076C43.3521 10.076 43.7601 10.044 44.1601 9.98C44.5601 9.916 44.9521 9.824 45.3361 9.704C45.7201 9.584 46.0881 9.44 46.4401 9.272C46.8001 9.096 47.1401 8.896 47.4601 8.672C47.2521 8.488 47.0121 8.328 46.7401 8.192C46.4681 8.056 46.1681 7.952 45.8401 7.88C45.5201 7.8 45.1801 7.76 44.8201 7.76C44.6921 7.76 44.5721 7.764 44.4601 7.772C44.3481 7.78 44.2361 7.796 44.1241 7.82C44.0121 7.836 43.8841 7.86 43.7401 7.892L43.5481 6.98C43.7641 6.916 43.9801 6.868 44.1961 6.836C44.4121 6.796 44.6201 6.776 44.8201 6.776C45.2361 6.776 45.6121 6.828 45.9481 6.932C46.2841 7.028 46.5881 7.148 46.8601 7.292C47.1401 7.436 47.4001 7.58 47.6401 7.724C47.8881 7.868 48.1281 7.992 48.3601 8.096C48.5921 8.192 48.8321 8.24 49.0801 8.24H49.3321L49.4161 9.104C49.0721 9.104 48.7561 9.152 48.4681 9.248C48.1801 9.344 47.8961 9.468 47.6161 9.62C47.3441 9.764 47.0561 9.92 46.7521 10.088C46.4481 10.248 46.1121 10.404 45.7441 10.556C45.3761 10.7 44.9521 10.82 44.4721 10.916C44.0001 11.012 43.4521 11.06 42.8281 11.06ZM46.1641 14.6C46.0041 14.6 45.8641 14.54 45.7441 14.42C45.6321 14.3 45.5761 14.16 45.5761 14C45.5761 13.84 45.6321 13.7 45.7441 13.58C45.8641 13.468 46.0041 13.412 46.1641 13.412C46.3321 13.412 46.4721 13.468 46.5841 13.58C46.7041 13.7 46.7641 13.84 46.7641 14C46.7641 14.16 46.7041 14.3 46.5841 14.42C46.4721 14.54 46.3321 14.6 46.1641 14.6ZM46.9801 13.28C46.8201 13.28 46.6801 13.22 46.5601 13.1C46.4481 12.98 46.3921 12.84 46.3921 12.68C46.3921 12.52 46.4481 12.38 46.5601 12.26C46.6801 12.148 46.8201 12.092 46.9801 12.092C47.1481 12.092 47.2881 12.148 47.4001 12.26C47.5201 12.38 47.5801 12.52 47.5801 12.68C47.5801 12.84 47.5201 12.98 47.4001 13.1C47.2881 13.22 47.1481 13.28 46.9801 13.28ZM45.3481 13.28C45.1881 13.28 45.0481 13.22 44.9281 13.1C44.8161 12.98 44.7601 12.84 44.7601 12.68C44.7601 12.52 44.8161 12.38 44.9281 12.26C45.0481 12.148 45.1881 12.092 45.3481 12.092C45.5161 12.092 45.6561 12.148 45.7681 12.26C45.8881 12.38 45.9481 12.52 45.9481 12.68C45.9481 12.84 45.8881 12.98 45.7681 13.1C45.6561 13.22 45.5161 13.28 45.3481 13.28ZM56.3865 11.06C55.7465 11.06 55.2545 10.988 54.9105 10.844C54.5745 10.7 54.3425 10.476 54.2145 10.172C54.0865 9.868 54.0145 9.476 53.9985 8.996L53.7585 2.432H54.7425L54.9825 8.612C54.9985 9.004 55.0345 9.308 55.0905 9.524C55.1545 9.732 55.2905 9.876 55.4985 9.956C55.7145 10.036 56.0505 10.076 56.5065 10.076C56.6745 10.076 56.7945 10.124 56.8665 10.22C56.9465 10.308 56.9865 10.416 56.9865 10.544C56.9865 10.672 56.9305 10.792 56.8185 10.904C56.7065 11.008 56.5625 11.06 56.3865 11.06ZM56.3867 11.06L56.5067 10.076C56.8987 10.076 57.2107 10.052 57.4427 10.004C57.6747 9.956 57.8427 9.86 57.9467 9.716C58.0507 9.564 58.1027 9.34 58.1027 9.044C58.1027 8.844 58.0707 8.608 58.0067 8.336C57.9427 8.056 57.8587 7.76 57.7547 7.448C57.6507 7.136 57.5387 6.828 57.4187 6.524L58.3907 6.164C58.4947 6.42 58.5907 6.712 58.6787 7.04C58.7747 7.368 58.8547 7.692 58.9187 8.012C58.9827 8.332 59.0147 8.612 59.0147 8.852C59.0147 9.172 58.9787 9.456 58.9067 9.704C58.8427 9.944 58.7427 10.152 58.6067 10.328C58.4707 10.496 58.2947 10.636 58.0787 10.748C57.8707 10.852 57.6267 10.932 57.3467 10.988C57.0667 11.036 56.7467 11.06 56.3867 11.06ZM57.9227 4.916C57.7547 4.916 57.6107 4.86 57.4907 4.748C57.3787 4.628 57.3227 4.488 57.3227 4.328C57.3227 4.168 57.3787 4.028 57.4907 3.908C57.6107 3.788 57.7547 3.728 57.9227 3.728C58.0827 3.728 58.2187 3.788 58.3307 3.908C58.4507 4.028 58.5107 4.168 58.5107 4.328C58.5107 4.488 58.4507 4.628 58.3307 4.748C58.2187 4.86 58.0827 4.916 57.9227 4.916ZM60.3054 13.76L60.0894 12.776C60.5694 12.712 61.0094 12.62 61.4094 12.5C61.8174 12.388 62.1654 12.224 62.4534 12.008C62.7494 11.792 62.9774 11.508 63.1374 11.156C63.2974 10.804 63.3774 10.364 63.3774 9.836C63.3774 9.292 63.2774 8.84 63.0774 8.48C62.8774 8.12 62.6174 7.94 62.2974 7.94C62.1294 7.94 61.9734 8.004 61.8294 8.132C61.6854 8.26 61.5654 8.432 61.4694 8.648C61.3814 8.864 61.3374 9.1 61.3374 9.356C61.3374 9.5 61.3694 9.62 61.4334 9.716C61.4974 9.804 61.5894 9.876 61.7094 9.932C61.8374 9.98 61.9974 10.016 62.1894 10.04C62.3814 10.064 62.6054 10.076 62.8614 10.076H65.3934C65.5614 10.076 65.6814 10.124 65.7534 10.22C65.8334 10.308 65.8734 10.416 65.8734 10.544C65.8734 10.672 65.8174 10.792 65.7054 10.904C65.5934 11.008 65.4494 11.06 65.2734 11.06H62.4054C62.0454 11.06 61.7094 11.008 61.3974 10.904C61.0934 10.8 60.8454 10.64 60.6534 10.424C60.4694 10.2 60.3774 9.908 60.3774 9.548C60.3774 9.212 60.4294 8.892 60.5334 8.588C60.6374 8.276 60.7774 8 60.9534 7.76C61.1374 7.512 61.3494 7.316 61.5894 7.172C61.8374 7.028 62.1054 6.956 62.3934 6.956C62.7614 6.956 63.0894 7.064 63.3774 7.28C63.6654 7.496 63.8934 7.824 64.0614 8.264C64.2294 8.696 64.3134 9.244 64.3134 9.908C64.3134 10.652 64.1614 11.292 63.8574 11.828C63.5614 12.372 63.1134 12.804 62.5134 13.124C61.9214 13.444 61.1854 13.656 60.3054 13.76ZM66.9015 11.324L67.2135 11.636C66.9655 11.772 66.8055 11.928 66.7335 12.104C66.6615 12.288 66.6655 12.5 66.7455 12.74L66.2415 12.596C66.3055 12.524 66.3775 12.468 66.4575 12.428C66.5375 12.388 66.6255 12.368 66.7215 12.368C66.8655 12.368 66.9855 12.4 67.0815 12.464C67.1775 12.536 67.2255 12.636 67.2255 12.764C67.2255 12.868 67.1855 12.976 67.1055 13.088C67.0255 13.2 66.8935 13.256 66.7095 13.256C66.5575 13.256 66.4255 13.2 66.3135 13.088C66.2095 12.976 66.1575 12.808 66.1575 12.584C66.1575 12.448 66.1815 12.3 66.2295 12.14C66.2855 11.98 66.3655 11.824 66.4695 11.672C66.5815 11.528 66.7255 11.412 66.9015 11.324ZM65.2695 11.06L65.3895 10.076C65.7815 10.076 66.0935 10.052 66.3255 10.004C66.5575 9.956 66.7255 9.86 66.8295 9.716C66.9335 9.564 66.9855 9.34 66.9855 9.044C66.9855 8.844 66.9535 8.608 66.8895 8.336C66.8255 8.056 66.7415 7.76 66.6375 7.448C66.5335 7.136 66.4215 6.828 66.3015 6.524L67.2735 6.164C67.3775 6.42 67.4735 6.712 67.5615 7.04C67.6575 7.368 67.7375 7.692 67.8015 8.012C67.8655 8.332 67.8975 8.612 67.8975 8.852C67.8975 9.172 67.8615 9.456 67.7895 9.704C67.7255 9.944 67.6255 10.152 67.4895 10.328C67.3535 10.496 67.1775 10.636 66.9615 10.748C66.7535 10.852 66.5095 10.932 66.2295 10.988C65.9495 11.036 65.6295 11.06 65.2695 11.06ZM71.8522 11.012C71.8522 10.724 71.8922 10.404 71.9722 10.052C72.0522 9.7 72.1802 9.312 72.3562 8.888L73.2202 9.224C73.0922 9.56 72.9962 9.868 72.9322 10.148C72.8682 10.428 72.8362 10.688 72.8362 10.928C72.8362 11.368 72.9442 11.724 73.1602 11.996C73.3842 12.276 73.6802 12.48 74.0482 12.608C74.4242 12.736 74.8362 12.8 75.2842 12.8C75.8282 12.8 76.2842 12.74 76.6522 12.62C77.0202 12.508 77.3122 12.352 77.5282 12.152C77.7442 11.952 77.8962 11.724 77.9842 11.468C78.0802 11.22 78.1282 10.96 78.1282 10.688C78.1282 10.336 78.1002 10.004 78.0442 9.692C77.9962 9.38 77.9282 9.076 77.8402 8.78C77.7602 8.476 77.6722 8.168 77.5762 7.856L78.5482 7.592C78.6362 7.896 78.7042 8.144 78.7522 8.336C78.8002 8.52 78.8362 8.668 78.8602 8.78C78.8922 8.892 78.9202 8.992 78.9442 9.08C79.0322 9.376 79.1482 9.596 79.2922 9.74C79.4362 9.876 79.6002 9.968 79.7842 10.016C79.9762 10.056 80.1722 10.076 80.3722 10.076C80.5402 10.076 80.6602 10.124 80.7322 10.22C80.8122 10.308 80.8522 10.416 80.8522 10.544C80.8522 10.672 80.7962 10.792 80.6842 10.904C80.5722 11.008 80.4282 11.06 80.2522 11.06C79.9162 11.06 79.6362 11.004 79.4122 10.892C79.1882 10.772 79.0122 10.624 78.8842 10.448C78.7642 10.272 78.6842 10.088 78.6442 9.896L79.1362 10.508C79.1122 10.916 79.0322 11.312 78.8962 11.696C78.7682 12.088 78.5602 12.44 78.2722 12.752C77.9842 13.072 77.5922 13.324 77.0962 13.508C76.6082 13.692 75.9922 13.784 75.2482 13.784C74.7922 13.784 74.3602 13.728 73.9522 13.616C73.5442 13.504 73.1802 13.332 72.8602 13.1C72.5482 12.876 72.3002 12.588 72.1162 12.236C71.9402 11.892 71.8522 11.484 71.8522 11.012ZM75.4762 6.224C75.3082 6.224 75.1642 6.168 75.0442 6.056C74.9322 5.936 74.8762 5.796 74.8762 5.636C74.8762 5.476 74.9322 5.336 75.0442 5.216C75.1642 5.096 75.3082 5.036 75.4762 5.036C75.6362 5.036 75.7722 5.096 75.8842 5.216C76.0042 5.336 76.0642 5.476 76.0642 5.636C76.0642 5.796 76.0042 5.936 75.8842 6.056C75.7722 6.168 75.6362 6.224 75.4762 6.224ZM80.2578 11.06L80.3778 10.076C80.5778 10.076 80.7978 10.076 81.0378 10.076C81.2858 10.068 81.5338 10.06 81.7818 10.052C82.0378 10.044 82.2738 10.028 82.4898 10.004C82.7058 9.972 82.8858 9.932 83.0298 9.884C83.3178 9.78 83.5418 9.652 83.7018 9.5C83.8618 9.34 83.9738 9.132 84.0378 8.876C84.1098 8.612 84.1458 8.276 84.1458 7.868C84.1458 7.532 84.1018 7.22 84.0138 6.932C83.9258 6.644 83.8018 6.412 83.6418 6.236C83.4818 6.06 83.2898 5.972 83.0658 5.972C82.8818 5.972 82.7138 6.044 82.5618 6.188C82.4178 6.324 82.3018 6.5 82.2138 6.716C82.1338 6.932 82.0938 7.148 82.0938 7.364C82.0938 7.532 82.1258 7.676 82.1898 7.796C82.2618 7.916 82.3778 8.012 82.5378 8.084C82.6978 8.148 82.9058 8.18 83.1618 8.18C83.3938 8.18 83.6258 8.156 83.8578 8.108C84.0978 8.06 84.3018 7.996 84.4698 7.916L84.5178 8.756C84.3898 8.844 84.2458 8.916 84.0858 8.972C83.9258 9.028 83.7578 9.068 83.5818 9.092C83.4058 9.116 83.2298 9.128 83.0538 9.128C82.6458 9.128 82.2978 9.064 82.0098 8.936C81.7298 8.8 81.5138 8.62 81.3618 8.396C81.2178 8.164 81.1458 7.9 81.1458 7.604C81.1458 7.3 81.1938 6.996 81.2898 6.692C81.3858 6.38 81.5218 6.096 81.6978 5.84C81.8738 5.584 82.0858 5.38 82.3338 5.228C82.5818 5.068 82.8578 4.988 83.1618 4.988C83.5938 4.988 83.9498 5.128 84.2298 5.408C84.5178 5.688 84.7298 6.056 84.8658 6.512C85.0098 6.96 85.0818 7.436 85.0818 7.94C85.0818 8.54 84.9778 9.056 84.7698 9.488C84.5698 9.912 84.2338 10.264 83.7618 10.544C83.5778 10.648 83.3538 10.736 83.0898 10.808C82.8338 10.872 82.5498 10.924 82.2378 10.964C81.9338 11.004 81.6138 11.028 81.2778 11.036C80.9418 11.052 80.6018 11.06 80.2578 11.06ZM82.9338 3.752C82.7658 3.752 82.6218 3.696 82.5018 3.584C82.3898 3.464 82.3338 3.324 82.3338 3.164C82.3338 3.004 82.3898 2.864 82.5018 2.744C82.6218 2.624 82.7658 2.564 82.9338 2.564C83.0938 2.564 83.2298 2.624 83.3418 2.744C83.4618 2.864 83.5218 3.004 83.5218 3.164C83.5218 3.324 83.4618 3.464 83.3418 3.584C83.2298 3.696 83.0938 3.752 82.9338 3.752ZM86.045 10.46L86.525 9.632C86.685 9.736 86.909 9.836 87.197 9.932C87.485 10.028 87.821 10.076 88.205 10.076C88.605 10.076 88.921 10.036 89.153 9.956C89.393 9.876 89.565 9.76 89.669 9.608C89.781 9.448 89.837 9.264 89.837 9.056C89.837 8.896 89.801 8.7 89.729 8.468C89.665 8.228 89.521 7.908 89.297 7.508C89.073 7.1 88.729 6.568 88.265 5.912L89.093 5.372C89.517 5.956 89.853 6.484 90.101 6.956C90.357 7.428 90.537 7.844 90.641 8.204C90.753 8.556 90.809 8.86 90.809 9.116C90.809 9.436 90.729 9.748 90.569 10.052C90.409 10.348 90.141 10.592 89.765 10.784C89.389 10.976 88.869 11.072 88.205 11.072C87.917 11.072 87.637 11.048 87.365 11C87.101 10.952 86.857 10.884 86.633 10.796C86.409 10.7 86.213 10.588 86.045 10.46ZM94.7038 11.012C94.7038 10.82 94.7198 10.616 94.7518 10.4C94.7918 10.176 94.8478 9.94 94.9198 9.692C94.9998 9.436 95.0958 9.168 95.2078 8.888L96.0718 9.224C95.9918 9.448 95.9198 9.66 95.8558 9.86C95.7998 10.06 95.7558 10.248 95.7238 10.424C95.6998 10.6 95.6878 10.768 95.6878 10.928C95.6878 11.344 95.7958 11.688 96.0118 11.96C96.2278 12.232 96.5238 12.436 96.8998 12.572C97.2758 12.708 97.6998 12.776 98.1718 12.776C98.7078 12.776 99.1558 12.704 99.5158 12.56C99.8838 12.416 100.176 12.224 100.392 11.984C100.608 11.752 100.76 11.492 100.848 11.204C100.944 10.916 100.992 10.632 100.992 10.352C100.992 10.048 100.932 9.68 100.812 9.248C100.7 8.816 100.488 8.28 100.176 7.64L101.076 7.184C101.236 7.488 101.38 7.808 101.508 8.144C101.644 8.472 101.752 8.812 101.832 9.164C101.92 9.508 101.964 9.86 101.964 10.22C101.964 10.532 101.924 10.852 101.844 11.18C101.772 11.508 101.648 11.824 101.472 12.128C101.296 12.44 101.06 12.716 100.764 12.956C100.476 13.204 100.116 13.4 99.6838 13.544C99.2598 13.688 98.7518 13.76 98.1598 13.76C97.6958 13.76 97.2518 13.704 96.8278 13.592C96.4118 13.488 96.0438 13.324 95.7238 13.1C95.4118 12.876 95.1638 12.592 94.9798 12.248C94.7958 11.904 94.7038 11.492 94.7038 11.012ZM106.051 11.06C105.411 11.06 104.919 10.988 104.575 10.844C104.239 10.7 104.007 10.476 103.879 10.172C103.751 9.868 103.679 9.476 103.663 8.996L103.423 2.432H104.407L104.647 8.612C104.663 9.004 104.699 9.308 104.755 9.524C104.819 9.732 104.955 9.876 105.163 9.956C105.379 10.036 105.715 10.076 106.171 10.076C106.339 10.076 106.459 10.124 106.531 10.22C106.611 10.308 106.651 10.416 106.651 10.544C106.651 10.672 106.595 10.792 106.483 10.904C106.371 11.008 106.227 11.06 106.051 11.06ZM109.063 14.228C108.695 13.972 108.387 13.64 108.139 13.232C107.899 12.824 107.711 12.388 107.575 11.924C107.447 11.468 107.367 11.044 107.335 10.652C107.215 10.788 107.051 10.892 106.843 10.964C106.643 11.028 106.379 11.06 106.051 11.06L106.159 10.076C106.255 10.076 106.359 10.072 106.471 10.064C106.591 10.048 106.715 10.012 106.843 9.956C106.971 9.9 107.091 9.808 107.203 9.68C107.323 9.552 107.427 9.368 107.515 9.128L108.319 9.332C108.239 9.652 108.195 9.976 108.187 10.304C108.179 10.632 108.203 10.948 108.259 11.252C108.323 11.564 108.419 11.856 108.547 12.128C108.675 12.4 108.831 12.644 109.015 12.86C109.015 12.3 109.087 11.812 109.231 11.396C109.383 10.98 109.635 10.656 109.987 10.424C110.339 10.192 110.819 10.076 111.427 10.076C111.587 10.076 111.707 10.124 111.787 10.22C111.867 10.308 111.907 10.416 111.907 10.544C111.907 10.672 111.851 10.792 111.739 10.904C111.635 11.008 111.499 11.06 111.331 11.06C110.891 11.06 110.559 11.148 110.335 11.324C110.111 11.508 109.959 11.784 109.879 12.152C109.807 12.528 109.771 13.004 109.771 13.58L109.063 14.228ZM111.312 11.06L111.433 10.076H112.561C113.033 10.076 113.405 10.052 113.677 10.004C113.957 9.948 114.161 9.88 114.289 9.8C114.425 9.712 114.513 9.62 114.553 9.524C114.601 9.42 114.625 9.316 114.625 9.212C114.625 9.028 114.553 8.8 114.409 8.528C114.273 8.256 113.989 7.904 113.557 7.472C113.333 7.248 113.109 7.044 112.885 6.86C112.661 6.668 112.453 6.5 112.261 6.356C112.077 6.204 111.929 6.076 111.817 5.972C111.705 5.868 111.649 5.788 111.649 5.732C111.649 5.612 111.657 5.496 111.673 5.384C111.697 5.272 111.725 5.168 111.757 5.072C111.797 4.976 111.845 4.9 111.901 4.844C112.061 4.676 112.265 4.508 112.513 4.34C112.769 4.172 113.065 3.996 113.401 3.812C113.745 3.628 114.129 3.432 114.553 3.224C114.985 3.008 115.457 2.772 115.969 2.516L116.377 3.404C115.737 3.708 115.201 3.968 114.769 4.184C114.345 4.392 113.985 4.58 113.689 4.748C113.393 4.908 113.133 5.06 112.909 5.204C112.685 5.348 112.457 5.508 112.225 5.684L112.405 5.228C112.909 5.628 113.353 6.004 113.737 6.356C114.129 6.708 114.457 7.048 114.721 7.376C114.985 7.696 115.185 8.012 115.321 8.324C115.457 8.636 115.525 8.952 115.525 9.272C115.525 9.448 115.493 9.64 115.429 9.848C115.365 10.056 115.229 10.252 115.021 10.436C114.813 10.62 114.501 10.772 114.085 10.892C113.669 11.004 113.109 11.06 112.405 11.06H111.312ZM123.938 11.252L124.25 10.268C125.186 10.268 125.99 10.244 126.662 10.196C127.342 10.148 127.898 10.072 128.33 9.968C128.77 9.856 129.094 9.708 129.302 9.524C129.518 9.332 129.626 9.1 129.626 8.828C129.626 8.524 129.57 8.172 129.458 7.772C129.346 7.372 129.202 6.944 129.026 6.488L129.95 6.164C130.054 6.42 130.15 6.696 130.238 6.992C130.334 7.28 130.414 7.568 130.478 7.856C130.542 8.136 130.574 8.396 130.574 8.636C130.574 9.108 130.466 9.512 130.25 9.848C130.034 10.176 129.674 10.444 129.17 10.652C128.666 10.86 127.986 11.012 127.13 11.108C126.282 11.204 125.218 11.252 123.938 11.252ZM123.938 11.252C123.226 11.252 122.598 11.204 122.054 11.108C121.518 11.02 121.07 10.88 120.71 10.688C120.35 10.496 120.078 10.248 119.894 9.944C119.71 9.632 119.618 9.256 119.618 8.816C119.618 8.616 119.634 8.412 119.666 8.204C119.698 7.988 119.738 7.772 119.786 7.556C119.842 7.34 119.898 7.132 119.954 6.932L120.854 7.16C120.822 7.28 120.786 7.424 120.746 7.592C120.706 7.752 120.67 7.916 120.638 8.084C120.614 8.252 120.602 8.404 120.602 8.54C120.602 8.956 120.706 9.292 120.914 9.548C121.13 9.796 121.502 9.98 122.03 10.1C122.558 10.212 123.298 10.268 124.25 10.268L124.49 10.868L123.938 11.252ZM125.078 14.9C124.918 14.9 124.778 14.84 124.658 14.72C124.546 14.6 124.49 14.46 124.49 14.3C124.49 14.14 124.546 14 124.658 13.88C124.778 13.768 124.918 13.712 125.078 13.712C125.246 13.712 125.386 13.768 125.498 13.88C125.618 14 125.678 14.14 125.678 14.3C125.678 14.46 125.618 14.6 125.498 14.72C125.386 14.84 125.246 14.9 125.078 14.9ZM125.894 13.58C125.734 13.58 125.594 13.52 125.474 13.4C125.362 13.28 125.306 13.14 125.306 12.98C125.306 12.82 125.362 12.68 125.474 12.56C125.594 12.448 125.734 12.392 125.894 12.392C126.062 12.392 126.202 12.448 126.314 12.56C126.434 12.68 126.494 12.82 126.494 12.98C126.494 13.14 126.434 13.28 126.314 13.4C126.202 13.52 126.062 13.58 125.894 13.58ZM124.262 13.58C124.102 13.58 123.962 13.52 123.842 13.4C123.73 13.28 123.674 13.14 123.674 12.98C123.674 12.82 123.73 12.68 123.842 12.56C123.962 12.448 124.102 12.392 124.262 12.392C124.43 12.392 124.57 12.448 124.682 12.56C124.802 12.68 124.862 12.82 124.862 12.98C124.862 13.14 124.802 13.28 124.682 13.4C124.57 13.52 124.43 13.58 124.262 13.58ZM132.244 11L132.04 3.272H133.012L133.216 11H132.244ZM133.324 2.108C133.084 2.108 132.868 2.068 132.676 1.988C132.484 1.9 132.308 1.816 132.148 1.736C131.988 1.656 131.84 1.616 131.704 1.616C131.56 1.616 131.428 1.652 131.308 1.724C131.196 1.796 131.076 1.896 130.948 2.024L130.492 1.64C130.676 1.408 130.868 1.228 131.068 1.1C131.268 0.963999 131.48 0.895999 131.704 0.895999C131.904 0.895999 132.088 0.935999 132.256 1.016C132.424 1.096 132.592 1.176 132.76 1.256C132.936 1.336 133.124 1.376 133.324 1.376C133.452 1.376 133.572 1.356 133.684 1.316C133.796 1.268 133.932 1.196 134.092 1.1L134.44 1.592C134.184 1.816 133.964 1.96 133.78 2.024C133.604 2.08 133.452 2.108 133.324 2.108Z" fill="black"/>
</svg>
