<svg width="16" height="17" viewBox="0 0 16 17" fill="none" xmlns="http://www.w3.org/2000/svg">
<path fill-rule="evenodd" clip-rule="evenodd" d="M10.8451 0.75C11.1556 0.75 11.4076 1.002 11.4076 1.3125L11.408 1.94836C12.503 2.02344 13.4125 2.39854 14.0563 3.04358C14.759 3.74933 15.1288 4.76407 15.125 5.98133V12.8236C15.125 15.3226 13.538 16.8751 10.9843 16.8751H4.64075C2.087 16.8751 0.5 15.3008 0.5 12.7666V5.97983C0.5 3.62272 1.91529 2.1097 4.22351 1.94862L4.22398 1.3125C4.22398 1.002 4.47598 0.75 4.78648 0.75C5.09697 0.75 5.34898 1.002 5.34898 1.3125L5.34875 1.93425H10.2823L10.2826 1.3125C10.2826 1.002 10.5346 0.75 10.8451 0.75ZM14 7.428H1.625V12.7666C1.625 14.6911 2.696 15.7501 4.64075 15.7501H10.9843C12.929 15.7501 14 14.7106 14 12.8236L14 7.428ZM11.1509 12.1472C11.4614 12.1472 11.7134 12.3992 11.7134 12.7097C11.7134 13.0202 11.4614 13.2722 11.1509 13.2722C10.8404 13.2722 10.5854 13.0202 10.5854 12.7097C10.5854 12.3992 10.8336 12.1472 11.1441 12.1472H11.1509ZM7.82277 12.1472C8.13327 12.1472 8.38527 12.3992 8.38527 12.7097C8.38527 13.0202 8.13327 13.2722 7.82277 13.2722C7.51227 13.2722 7.25727 13.0202 7.25727 12.7097C7.25727 12.3992 7.50552 12.1472 7.81602 12.1472H7.82277ZM4.48767 12.1472C4.79817 12.1472 5.05017 12.3992 5.05017 12.7097C5.05017 13.0202 4.79817 13.2722 4.48767 13.2722C4.17717 13.2722 3.92143 13.0202 3.92143 12.7097C3.92143 12.3992 4.17042 12.1472 4.48093 12.1472H4.48767ZM11.1509 9.2322C11.4614 9.2322 11.7134 9.4842 11.7134 9.7947C11.7134 10.1052 11.4614 10.3572 11.1509 10.3572C10.8404 10.3572 10.5854 10.1052 10.5854 9.7947C10.5854 9.4842 10.8336 9.2322 11.1441 9.2322H11.1509ZM7.82277 9.2322C8.13327 9.2322 8.38527 9.4842 8.38527 9.7947C8.38527 10.1052 8.13327 10.3572 7.82277 10.3572C7.51227 10.3572 7.25727 10.1052 7.25727 9.7947C7.25727 9.4842 7.50552 9.2322 7.81602 9.2322H7.82277ZM4.48767 9.2322C4.79817 9.2322 5.05017 9.4842 5.05017 9.7947C5.05017 10.1052 4.79817 10.3572 4.48767 10.3572C4.17717 10.3572 3.92143 10.1052 3.92143 9.7947C3.92143 9.4842 4.17042 9.2322 4.48093 9.2322H4.48767ZM10.2823 3.05925H5.34875L5.34898 3.78075C5.34898 4.09125 5.09697 4.34325 4.78648 4.34325C4.47598 4.34325 4.22398 4.09125 4.22398 3.78075L4.22358 3.07628C2.5434 3.21742 1.625 4.23589 1.625 5.97983V6.303H14L14 5.97983C14.003 5.05358 13.754 4.33358 13.2598 3.83858C12.8259 3.40343 12.1916 3.14355 11.4083 3.07664L11.4076 3.78075C11.4076 4.09125 11.1556 4.34325 10.8451 4.34325C10.5346 4.34325 10.2826 4.09125 10.2826 3.78075L10.2823 3.05925Z" fill="black"/>
</svg>
