<svg width="76" height="12" viewBox="0 0 76 12" fill="none" xmlns="http://www.w3.org/2000/svg">
<path d="M1.10659 11.784L0.758594 10.872C1.34259 10.68 1.82659 10.46 2.21059 10.212C2.60259 9.964 2.91059 9.7 3.13459 9.42C3.36659 9.14 3.53059 8.856 3.62659 8.568C3.72259 8.272 3.77059 7.988 3.77059 7.716C3.77059 7.324 3.68259 6.928 3.50659 6.528C3.33859 6.12 3.15059 5.736 2.94259 5.376L3.81859 4.932C3.97059 5.212 4.10259 5.488 4.21459 5.76C4.33459 6.032 4.43859 6.288 4.52659 6.528C4.62259 6.768 4.69859 6.988 4.75459 7.188C4.86659 7.532 5.01059 7.768 5.18659 7.896C5.37059 8.016 5.61859 8.076 5.93059 8.076C6.09859 8.076 6.21859 8.124 6.29059 8.22C6.37059 8.308 6.41059 8.416 6.41059 8.544C6.41059 8.672 6.35459 8.792 6.24259 8.904C6.13059 9.008 5.98659 9.06 5.81059 9.06C5.45859 9.06 5.17059 9 4.94659 8.88C4.73059 8.752 4.56659 8.588 4.45459 8.388C4.34259 8.18 4.26659 7.964 4.22659 7.74L4.61059 7.956C4.61059 8.484 4.49059 8.964 4.25059 9.396C4.01859 9.836 3.71859 10.216 3.35059 10.536C2.98259 10.864 2.59859 11.132 2.19859 11.34C1.79859 11.548 1.43459 11.696 1.10659 11.784ZM5.81641 9.06L5.93641 8.076C6.27241 8.076 6.53641 8.048 6.72841 7.992C6.92041 7.928 7.06441 7.812 7.16041 7.644C7.26441 7.468 7.35241 7.216 7.42441 6.888C7.49641 6.56 7.58441 6.132 7.68841 5.604L8.62441 5.784C8.59241 5.928 8.55641 6.088 8.51641 6.264C8.47641 6.44 8.44041 6.616 8.40841 6.792C8.38441 6.96 8.37241 7.108 8.37241 7.236C8.37241 7.396 8.40841 7.54 8.48041 7.668C8.55241 7.796 8.70841 7.896 8.94841 7.968C9.18841 8.04 9.55641 8.076 10.0524 8.076C10.2204 8.076 10.3404 8.124 10.4124 8.22C10.4924 8.308 10.5324 8.416 10.5324 8.544C10.5324 8.672 10.4764 8.792 10.3644 8.904C10.2524 9.008 10.1084 9.06 9.93241 9.06C9.41241 9.06 9.00441 9.016 8.70841 8.928C8.41241 8.832 8.19641 8.692 8.06041 8.508C7.92441 8.316 7.83241 8.084 7.78441 7.812L8.14441 7.836C8.01641 8.092 7.87641 8.3 7.72441 8.46C7.58041 8.62 7.42041 8.744 7.24441 8.832C7.06841 8.92 6.86441 8.98 6.63241 9.012C6.40041 9.044 6.12841 9.06 5.81641 9.06ZM7.85641 11.292C7.68841 11.292 7.54441 11.232 7.42441 11.112C7.31241 11 7.25641 10.864 7.25641 10.704C7.25641 10.544 7.31241 10.404 7.42441 10.284C7.54441 10.164 7.68841 10.104 7.85641 10.104C8.01641 10.104 8.15241 10.164 8.26441 10.284C8.38441 10.404 8.44441 10.544 8.44441 10.704C8.44441 10.864 8.38441 11 8.26441 11.112C8.15241 11.232 8.01641 11.292 7.85641 11.292ZM9.92969 9.06L10.0497 8.076C10.2737 8.076 10.4497 8.028 10.5777 7.932C10.7137 7.836 10.8417 7.676 10.9617 7.452C11.0897 7.228 11.2497 6.928 11.4417 6.552C11.6337 6.168 11.8257 5.856 12.0177 5.616C12.2177 5.368 12.4097 5.176 12.5937 5.04C12.7857 4.896 12.9657 4.796 13.1337 4.74C13.3017 4.684 13.4577 4.656 13.6017 4.656C13.8657 4.656 14.1017 4.716 14.3097 4.836C14.5177 4.948 14.7137 5.144 14.8977 5.424C15.0817 5.696 15.2697 6.072 15.4617 6.552C15.6457 6.992 15.8097 7.324 15.9537 7.548C16.1057 7.764 16.2617 7.908 16.4217 7.98C16.5897 8.044 16.7777 8.076 16.9857 8.076C17.1537 8.076 17.2737 8.124 17.3457 8.22C17.4257 8.308 17.4657 8.416 17.4657 8.544C17.4657 8.672 17.4097 8.792 17.2977 8.904C17.1857 9.008 17.0417 9.06 16.8657 9.06C16.5537 9.06 16.2657 9.008 16.0017 8.904C15.7457 8.8 15.5297 8.636 15.3537 8.412L15.5217 8.16C15.4337 8.408 15.3137 8.612 15.1617 8.772C15.0177 8.924 14.8537 9.036 14.6697 9.108C14.4857 9.188 14.2897 9.228 14.0817 9.228C13.8177 9.228 13.5457 9.172 13.2657 9.06C12.9937 8.948 12.7297 8.788 12.4737 8.58C12.2177 8.372 11.9937 8.128 11.8017 7.848C11.5937 8.216 11.3937 8.488 11.2017 8.664C11.0177 8.832 10.8257 8.94 10.6257 8.988C10.4257 9.036 10.1937 9.06 9.92969 9.06ZM12.2577 6.936C12.3937 7.16 12.5377 7.356 12.6897 7.524C12.8497 7.692 13.0097 7.832 13.1697 7.944C13.3297 8.048 13.4857 8.128 13.6377 8.184C13.7977 8.232 13.9417 8.256 14.0697 8.256C14.3497 8.256 14.5537 8.156 14.6817 7.956C14.8177 7.756 14.8137 7.476 14.6697 7.116C14.5977 6.932 14.5217 6.752 14.4417 6.576C14.3697 6.4 14.2897 6.24 14.2017 6.096C14.1137 5.944 14.0137 5.828 13.9017 5.748C13.7897 5.66 13.6657 5.616 13.5297 5.616C13.4097 5.616 13.2817 5.656 13.1457 5.736C13.0177 5.816 12.8777 5.952 12.7257 6.144C12.5817 6.336 12.4257 6.6 12.2577 6.936ZM16.8672 9.06L16.9872 8.076C17.3792 8.076 17.6912 8.052 17.9232 8.004C18.1552 7.956 18.3232 7.86 18.4272 7.716C18.5312 7.564 18.5832 7.34 18.5832 7.044C18.5832 6.844 18.5512 6.608 18.4872 6.336C18.4232 6.056 18.3392 5.76 18.2352 5.448C18.1312 5.136 18.0192 4.828 17.8992 4.524L18.8712 4.164C18.9752 4.42 19.0712 4.712 19.1592 5.04C19.2552 5.368 19.3352 5.692 19.3992 6.012C19.4632 6.332 19.4952 6.612 19.4952 6.852C19.4952 7.172 19.4592 7.456 19.3872 7.704C19.3232 7.944 19.2232 8.152 19.0872 8.328C18.9512 8.496 18.7752 8.636 18.5592 8.748C18.3512 8.852 18.1072 8.932 17.8272 8.988C17.5472 9.036 17.2272 9.06 16.8672 9.06ZM18.4032 2.916C18.2352 2.916 18.0912 2.86 17.9712 2.748C17.8592 2.628 17.8032 2.488 17.8032 2.328C17.8032 2.168 17.8592 2.028 17.9712 1.908C18.0912 1.788 18.2352 1.728 18.4032 1.728C18.5632 1.728 18.6992 1.788 18.8112 1.908C18.9312 2.028 18.9912 2.168 18.9912 2.328C18.9912 2.488 18.9312 2.628 18.8112 2.748C18.6992 2.86 18.5632 2.916 18.4032 2.916ZM23.4498 9.012C23.4498 8.82 23.4658 8.616 23.4978 8.4C23.5378 8.176 23.5938 7.94 23.6658 7.692C23.7458 7.436 23.8418 7.168 23.9538 6.888L24.8178 7.224C24.7378 7.448 24.6658 7.66 24.6018 7.86C24.5458 8.06 24.5018 8.248 24.4698 8.424C24.4458 8.6 24.4338 8.768 24.4338 8.928C24.4338 9.344 24.5418 9.688 24.7578 9.96C24.9738 10.232 25.2698 10.436 25.6458 10.572C26.0218 10.708 26.4458 10.776 26.9178 10.776C27.4538 10.776 27.9018 10.704 28.2618 10.56C28.6298 10.416 28.9218 10.224 29.1378 9.984C29.3538 9.752 29.5058 9.492 29.5938 9.204C29.6898 8.916 29.7378 8.632 29.7378 8.352C29.7378 8.048 29.6778 7.68 29.5578 7.248C29.4458 6.816 29.2338 6.28 28.9218 5.64L29.8218 5.184C29.9818 5.488 30.1258 5.808 30.2538 6.144C30.3898 6.472 30.4978 6.812 30.5778 7.164C30.6658 7.508 30.7098 7.86 30.7098 8.22C30.7098 8.532 30.6698 8.852 30.5898 9.18C30.5178 9.508 30.3938 9.824 30.2178 10.128C30.0418 10.44 29.8058 10.716 29.5098 10.956C29.2218 11.204 28.8618 11.4 28.4298 11.544C28.0058 11.688 27.4978 11.76 26.9058 11.76C26.4418 11.76 25.9978 11.704 25.5738 11.592C25.1578 11.488 24.7898 11.324 24.4698 11.1C24.1578 10.876 23.9098 10.592 23.7258 10.248C23.5418 9.904 23.4498 9.492 23.4498 9.012ZM27.0738 4.224C26.9058 4.224 26.7618 4.168 26.6418 4.056C26.5298 3.936 26.4738 3.796 26.4738 3.636C26.4738 3.476 26.5298 3.336 26.6418 3.216C26.7618 3.096 26.9058 3.036 27.0738 3.036C27.2338 3.036 27.3698 3.096 27.4818 3.216C27.6018 3.336 27.6618 3.476 27.6618 3.636C27.6618 3.796 27.6018 3.936 27.4818 4.056C27.3698 4.168 27.2338 4.224 27.0738 4.224ZM32.0007 11.76L31.7847 10.776C32.2647 10.712 32.7047 10.62 33.1047 10.5C33.5127 10.388 33.8607 10.224 34.1487 10.008C34.4447 9.792 34.6727 9.508 34.8327 9.156C34.9927 8.804 35.0727 8.364 35.0727 7.836C35.0727 7.292 34.9727 6.84 34.7727 6.48C34.5727 6.12 34.3127 5.94 33.9927 5.94C33.8247 5.94 33.6687 6.004 33.5247 6.132C33.3807 6.26 33.2607 6.432 33.1647 6.648C33.0767 6.864 33.0327 7.1 33.0327 7.356C33.0327 7.5 33.0647 7.62 33.1287 7.716C33.1927 7.804 33.2847 7.876 33.4047 7.932C33.5327 7.98 33.6927 8.016 33.8847 8.04C34.0767 8.064 34.3007 8.076 34.5567 8.076H37.0887C37.2567 8.076 37.3767 8.124 37.4487 8.22C37.5287 8.308 37.5687 8.416 37.5687 8.544C37.5687 8.672 37.5127 8.792 37.4007 8.904C37.2887 9.008 37.1447 9.06 36.9687 9.06H34.1007C33.7407 9.06 33.4047 9.008 33.0927 8.904C32.7887 8.8 32.5407 8.64 32.3487 8.424C32.1647 8.2 32.0727 7.908 32.0727 7.548C32.0727 7.212 32.1247 6.892 32.2287 6.588C32.3327 6.276 32.4727 6 32.6487 5.76C32.8327 5.512 33.0447 5.316 33.2847 5.172C33.5327 5.028 33.8007 4.956 34.0887 4.956C34.4567 4.956 34.7847 5.064 35.0727 5.28C35.3607 5.496 35.5887 5.824 35.7567 6.264C35.9247 6.696 36.0087 7.244 36.0087 7.908C36.0087 8.652 35.8567 9.292 35.5527 9.828C35.2567 10.372 34.8087 10.804 34.2087 11.124C33.6167 11.444 32.8807 11.656 32.0007 11.76ZM36.9648 9.06L37.0848 8.076C37.2848 8.076 37.5048 8.076 37.7448 8.076C37.9928 8.068 38.2408 8.06 38.4888 8.052C38.7448 8.044 38.9808 8.028 39.1968 8.004C39.4128 7.972 39.5928 7.932 39.7368 7.884C40.0248 7.78 40.2488 7.652 40.4088 7.5C40.5688 7.34 40.6808 7.132 40.7448 6.876C40.8168 6.612 40.8528 6.276 40.8528 5.868C40.8528 5.532 40.8088 5.22 40.7208 4.932C40.6328 4.644 40.5088 4.412 40.3488 4.236C40.1888 4.06 39.9968 3.972 39.7728 3.972C39.5888 3.972 39.4208 4.044 39.2688 4.188C39.1248 4.324 39.0088 4.5 38.9208 4.716C38.8408 4.932 38.8008 5.148 38.8008 5.364C38.8008 5.532 38.8328 5.676 38.8968 5.796C38.9688 5.916 39.0848 6.012 39.2448 6.084C39.4048 6.148 39.6128 6.18 39.8688 6.18C40.1008 6.18 40.3328 6.156 40.5648 6.108C40.8048 6.06 41.0088 5.996 41.1768 5.916L41.2248 6.756C41.0968 6.844 40.9528 6.916 40.7928 6.972C40.6328 7.028 40.4648 7.068 40.2888 7.092C40.1128 7.116 39.9368 7.128 39.7608 7.128C39.3528 7.128 39.0048 7.064 38.7168 6.936C38.4368 6.8 38.2208 6.62 38.0688 6.396C37.9248 6.164 37.8528 5.9 37.8528 5.604C37.8528 5.3 37.9008 4.996 37.9968 4.692C38.0928 4.38 38.2288 4.096 38.4048 3.84C38.5808 3.584 38.7928 3.38 39.0408 3.228C39.2888 3.068 39.5648 2.988 39.8688 2.988C40.3008 2.988 40.6568 3.128 40.9368 3.408C41.2248 3.688 41.4368 4.056 41.5728 4.512C41.7168 4.96 41.7888 5.436 41.7888 5.94C41.7888 6.54 41.6848 7.056 41.4768 7.488C41.2768 7.912 40.9408 8.264 40.4688 8.544C40.2848 8.648 40.0608 8.736 39.7968 8.808C39.5408 8.872 39.2568 8.924 38.9448 8.964C38.6408 9.004 38.3208 9.028 37.9848 9.036C37.6488 9.052 37.3088 9.06 36.9648 9.06ZM39.6408 1.752C39.4728 1.752 39.3288 1.696 39.2088 1.584C39.0968 1.464 39.0408 1.324 39.0408 1.164C39.0408 1.004 39.0968 0.864 39.2088 0.744C39.3288 0.624 39.4728 0.564 39.6408 0.564C39.8008 0.564 39.9368 0.624 40.0488 0.744C40.1688 0.864 40.2288 1.004 40.2288 1.164C40.2288 1.324 40.1688 1.464 40.0488 1.584C39.9368 1.696 39.8008 1.752 39.6408 1.752ZM45.692 9.012C45.692 8.82 45.708 8.616 45.74 8.4C45.78 8.176 45.836 7.94 45.908 7.692C45.988 7.436 46.084 7.168 46.196 6.888L47.06 7.224C46.98 7.448 46.908 7.66 46.844 7.86C46.788 8.06 46.744 8.248 46.712 8.424C46.688 8.6 46.676 8.768 46.676 8.928C46.676 9.336 46.784 9.68 47 9.96C47.216 10.24 47.496 10.448 47.84 10.584C48.192 10.728 48.568 10.8 48.968 10.8C49.752 10.8 50.364 10.66 50.804 10.38C51.244 10.108 51.552 9.744 51.728 9.288C51.904 8.84 51.98 8.348 51.956 7.812L51.692 0.431999H52.688L52.88 6.516C52.896 6.924 52.96 7.244 53.072 7.476C53.192 7.7 53.352 7.856 53.552 7.944C53.752 8.032 53.972 8.076 54.212 8.076C54.38 8.076 54.5 8.124 54.572 8.22C54.652 8.308 54.692 8.416 54.692 8.544C54.692 8.672 54.636 8.792 54.524 8.904C54.412 9.008 54.268 9.06 54.092 9.06C53.844 9.06 53.632 9.028 53.456 8.964C53.28 8.892 53.136 8.804 53.024 8.7C52.912 8.588 52.824 8.464 52.76 8.328C52.696 8.184 52.648 8.04 52.616 7.896L52.952 8.232C52.92 8.656 52.828 9.076 52.676 9.492C52.532 9.916 52.308 10.3 52.004 10.644C51.7 10.988 51.292 11.264 50.78 11.472C50.276 11.68 49.652 11.784 48.908 11.784C48.492 11.784 48.088 11.72 47.696 11.592C47.312 11.472 46.968 11.292 46.664 11.052C46.368 10.812 46.132 10.52 45.956 10.176C45.78 9.84 45.692 9.452 45.692 9.012ZM54.0977 9.06L54.2177 8.076C54.6097 8.076 54.9217 8.052 55.1537 8.004C55.3857 7.956 55.5537 7.86 55.6577 7.716C55.7617 7.564 55.8137 7.34 55.8137 7.044C55.8137 6.844 55.7817 6.608 55.7177 6.336C55.6537 6.056 55.5697 5.76 55.4657 5.448C55.3617 5.136 55.2497 4.828 55.1297 4.524L56.1017 4.164C56.2057 4.42 56.3017 4.712 56.3897 5.04C56.4857 5.368 56.5657 5.692 56.6297 6.012C56.6937 6.332 56.7257 6.612 56.7257 6.852C56.7257 7.172 56.6897 7.456 56.6177 7.704C56.5537 7.944 56.4537 8.152 56.3177 8.328C56.1817 8.496 56.0057 8.636 55.7897 8.748C55.5817 8.852 55.3377 8.932 55.0577 8.988C54.7777 9.036 54.4577 9.06 54.0977 9.06ZM54.5417 2.832L54.3977 2.184C54.6057 2.136 54.7737 2.096 54.9017 2.064C55.0297 2.032 55.1737 1.996 55.3337 1.956L55.2737 2.208C55.0657 2.144 54.8657 2.008 54.6737 1.8C54.4897 1.592 54.3977 1.356 54.3977 1.092C54.3977 0.852 54.4537 0.652 54.5657 0.491999C54.6857 0.324 54.8377 0.2 55.0217 0.12C55.2137 0.0399995 55.4177 -7.15256e-07 55.6337 -7.15256e-07C55.7217 -7.15256e-07 55.8137 0.00799942 55.9097 0.0239997C56.0137 0.0399995 56.1097 0.0639994 56.1977 0.0959995L56.1017 0.696C56.0217 0.68 55.9457 0.664 55.8737 0.648C55.8017 0.632 55.7217 0.624 55.6337 0.624C55.4497 0.624 55.3057 0.664 55.2017 0.744C55.0977 0.816 55.0457 0.92 55.0457 1.056C55.0457 1.224 55.0977 1.368 55.2017 1.488C55.3137 1.608 55.4377 1.704 55.5737 1.776C55.7177 1.84 55.8337 1.872 55.9217 1.872L55.4297 1.92C55.6457 1.864 55.8457 1.808 56.0297 1.752C56.2217 1.688 56.3937 1.628 56.5457 1.572L56.7377 2.184C56.5457 2.256 56.3177 2.332 56.0537 2.412C55.7977 2.492 55.5377 2.568 55.2737 2.64C55.0097 2.712 54.7657 2.776 54.5417 2.832ZM60.8123 9.06C60.1723 9.06 59.6803 8.988 59.3363 8.844C59.0003 8.7 58.7683 8.476 58.6403 8.172C58.5123 7.868 58.4403 7.476 58.4243 6.996L58.1843 0.431999H59.1683L59.4083 6.612C59.4243 7.004 59.4603 7.308 59.5163 7.524C59.5803 7.732 59.7163 7.876 59.9243 7.956C60.1403 8.036 60.4763 8.076 60.9323 8.076C61.1003 8.076 61.2203 8.124 61.2923 8.22C61.3723 8.308 61.4123 8.416 61.4123 8.544C61.4123 8.672 61.3563 8.792 61.2443 8.904C61.1323 9.008 60.9883 9.06 60.8123 9.06ZM60.8125 9.06L60.9325 8.076C61.3245 8.076 61.6365 8.052 61.8685 8.004C62.1005 7.956 62.2685 7.86 62.3725 7.716C62.4765 7.564 62.5285 7.34 62.5285 7.044C62.5285 6.844 62.4965 6.608 62.4325 6.336C62.3685 6.056 62.2845 5.76 62.1805 5.448C62.0765 5.136 61.9645 4.828 61.8445 4.524L62.8165 4.164C62.9205 4.42 63.0165 4.712 63.1045 5.04C63.2005 5.368 63.2805 5.692 63.3445 6.012C63.4085 6.332 63.4405 6.612 63.4405 6.852C63.4405 7.172 63.4045 7.456 63.3325 7.704C63.2685 7.944 63.1685 8.152 63.0325 8.328C62.8965 8.496 62.7205 8.636 62.5045 8.748C62.2965 8.852 62.0525 8.932 61.7725 8.988C61.4925 9.036 61.1725 9.06 60.8125 9.06ZM62.0965 11.292C61.9285 11.292 61.7845 11.232 61.6645 11.112C61.5525 11 61.4965 10.864 61.4965 10.704C61.4965 10.544 61.5525 10.404 61.6645 10.284C61.7845 10.164 61.9285 10.104 62.0965 10.104C62.2565 10.104 62.3925 10.164 62.5045 10.284C62.6245 10.404 62.6845 10.544 62.6845 10.704C62.6845 10.864 62.6245 11 62.5045 11.112C62.3925 11.232 62.2565 11.292 62.0965 11.292ZM64.7312 11.76L64.5152 10.776C64.9952 10.712 65.4352 10.62 65.8352 10.5C66.2432 10.388 66.5912 10.224 66.8792 10.008C67.1752 9.792 67.4032 9.508 67.5632 9.156C67.7232 8.804 67.8032 8.364 67.8032 7.836C67.8032 7.292 67.7032 6.84 67.5032 6.48C67.3032 6.12 67.0432 5.94 66.7232 5.94C66.5552 5.94 66.3992 6.004 66.2552 6.132C66.1112 6.26 65.9912 6.432 65.8952 6.648C65.8072 6.864 65.7632 7.1 65.7632 7.356C65.7632 7.5 65.7952 7.62 65.8592 7.716C65.9232 7.804 66.0152 7.876 66.1352 7.932C66.2632 7.98 66.4232 8.016 66.6152 8.04C66.8072 8.064 67.0312 8.076 67.2872 8.076H69.8192C69.9872 8.076 70.1072 8.124 70.1792 8.22C70.2592 8.308 70.2992 8.416 70.2992 8.544C70.2992 8.672 70.2432 8.792 70.1312 8.904C70.0192 9.008 69.8752 9.06 69.6992 9.06H66.8312C66.4712 9.06 66.1352 9.008 65.8232 8.904C65.5192 8.8 65.2712 8.64 65.0792 8.424C64.8952 8.2 64.8032 7.908 64.8032 7.548C64.8032 7.212 64.8552 6.892 64.9592 6.588C65.0632 6.276 65.2032 6 65.3792 5.76C65.5632 5.512 65.7752 5.316 66.0152 5.172C66.2632 5.028 66.5312 4.956 66.8192 4.956C67.1872 4.956 67.5152 5.064 67.8032 5.28C68.0912 5.496 68.3192 5.824 68.4872 6.264C68.6552 6.696 68.7392 7.244 68.7392 7.908C68.7392 8.652 68.5872 9.292 68.2832 9.828C67.9872 10.372 67.5392 10.804 66.9392 11.124C66.3472 11.444 65.6112 11.656 64.7312 11.76ZM69.6953 9.06L69.8153 8.076C70.0393 8.076 70.2273 8.028 70.3793 7.932C70.5313 7.836 70.6793 7.676 70.8233 7.452C70.9673 7.228 71.1233 6.928 71.2913 6.552C71.5233 6.04 71.7513 5.652 71.9753 5.388C72.2073 5.124 72.4353 4.944 72.6593 4.848C72.8913 4.752 73.1193 4.704 73.3433 4.704C73.6153 4.704 73.8673 4.776 74.0993 4.92C74.3313 5.056 74.5353 5.24 74.7113 5.472C74.8873 5.704 75.0233 5.96 75.1193 6.24C75.2233 6.512 75.2753 6.784 75.2753 7.056C75.2753 7.536 75.1913 7.92 75.0233 8.208C74.8553 8.488 74.6393 8.692 74.3753 8.82C74.1193 8.94 73.8513 9 73.5713 9C73.3233 9 73.0033 8.952 72.6113 8.856C72.2273 8.76 71.7393 8.516 71.1473 8.124L71.6153 7.368C72.0073 7.616 72.3593 7.788 72.6713 7.884C72.9913 7.972 73.2553 8.016 73.4633 8.016C73.6953 8.016 73.8793 7.984 74.0153 7.92C74.1513 7.848 74.2513 7.748 74.3153 7.62C74.3793 7.492 74.4113 7.348 74.4113 7.188C74.4113 6.956 74.3553 6.724 74.2433 6.492C74.1313 6.26 73.9873 6.068 73.8113 5.916C73.6433 5.764 73.4633 5.688 73.2713 5.688C73.1273 5.688 72.9873 5.728 72.8513 5.808C72.7153 5.888 72.5753 6.036 72.4313 6.252C72.2873 6.468 72.1233 6.78 71.9393 7.188C71.7473 7.62 71.5633 7.964 71.3873 8.22C71.2193 8.468 71.0473 8.652 70.8713 8.772C70.6953 8.892 70.5113 8.968 70.3193 9C70.1353 9.04 69.9273 9.06 69.6953 9.06Z" fill="black"/>
</svg>
