<svg width="13" height="13" viewBox="0 0 13 13" fill="none" xmlns="http://www.w3.org/2000/svg">
<path fill-rule="evenodd" clip-rule="evenodd" d="M9.20875 0.25C11.3269 0.25 12.75 1.73625 12.75 3.9475V9.0525C12.75 11.2637 11.3269 12.75 9.20813 12.75H3.79062C1.6725 12.75 0.25 11.2637 0.25 9.0525V3.9475C0.25 1.73625 1.6725 0.25 3.79062 0.25H9.20875ZM9.20875 1.1875H3.79062C2.20937 1.1875 1.1875 2.27062 1.1875 3.9475V9.0525C1.1875 10.7294 2.20937 11.8125 3.79062 11.8125H9.20813C10.79 11.8125 11.8125 10.7294 11.8125 9.0525V3.9475C11.8125 2.27062 10.79 1.1875 9.20875 1.1875ZM9.05594 4.68563C9.23906 4.86875 9.23906 5.165 9.05594 5.34812L6.08969 8.31437C5.99844 8.40625 5.87844 8.45188 5.75844 8.45188C5.63906 8.45188 5.51844 8.40625 5.42719 8.31437L3.94344 6.83125C3.76031 6.64812 3.76031 6.35188 3.94344 6.16875C4.12656 5.98563 4.42281 5.98563 4.60594 6.16875L5.75844 7.32L8.39344 4.68563C8.57656 4.5025 8.87281 4.5025 9.05594 4.68563Z" fill="black"/>
</svg>
