<svg width="20" height="12" viewBox="0 0 20 12" fill="none" xmlns="http://www.w3.org/2000/svg">
<path d="M0.618313 10.784L0.270312 9.872C0.854313 9.68 1.33831 9.46 1.72231 9.212C2.11431 8.964 2.42231 8.7 2.64631 8.42C2.87831 8.14 3.04231 7.856 3.13831 7.568C3.23431 7.272 3.28231 6.988 3.28231 6.716C3.28231 6.324 3.19431 5.928 3.01831 5.528C2.85031 5.12 2.66231 4.736 2.45431 4.376L3.33031 3.932C3.48231 4.212 3.61431 4.488 3.72631 4.76C3.84631 5.032 3.95031 5.288 4.03831 5.528C4.13431 5.768 4.21031 5.988 4.26631 6.188C4.37831 6.532 4.52231 6.768 4.69831 6.896C4.88231 7.016 5.13031 7.076 5.44231 7.076C5.61031 7.076 5.73031 7.124 5.80231 7.22C5.88231 7.308 5.92231 7.416 5.92231 7.544C5.92231 7.672 5.86631 7.792 5.75431 7.904C5.64231 8.008 5.49831 8.06 5.32231 8.06C4.97031 8.06 4.68231 8 4.45831 7.88C4.24231 7.752 4.07831 7.588 3.96631 7.388C3.85431 7.18 3.77831 6.964 3.73831 6.74L4.12231 6.956C4.12231 7.484 4.00231 7.964 3.76231 8.396C3.53031 8.836 3.23031 9.216 2.86231 9.536C2.49431 9.864 2.11031 10.132 1.71031 10.34C1.31031 10.548 0.946313 10.696 0.618313 10.784ZM8.34013 11.228C7.97213 10.972 7.66413 10.64 7.41613 10.232C7.17613 9.824 6.98813 9.388 6.85213 8.924C6.72413 8.468 6.64413 8.044 6.61213 7.652C6.49213 7.788 6.32813 7.892 6.12012 7.964C5.92013 8.028 5.65613 8.06 5.32812 8.06L5.43613 7.076C5.53213 7.076 5.63613 7.072 5.74813 7.064C5.86813 7.048 5.99213 7.012 6.12012 6.956C6.24813 6.9 6.36813 6.808 6.48013 6.68C6.60013 6.552 6.70413 6.368 6.79213 6.128L7.59613 6.332C7.51613 6.652 7.47213 6.976 7.46413 7.304C7.45613 7.632 7.48013 7.948 7.53613 8.252C7.60013 8.564 7.69613 8.856 7.82413 9.128C7.95213 9.4 8.10813 9.644 8.29213 9.86C8.29213 9.3 8.36413 8.812 8.50813 8.396C8.66013 7.98 8.91213 7.656 9.26413 7.424C9.61613 7.192 10.0961 7.076 10.7041 7.076C10.8641 7.076 10.9841 7.124 11.0641 7.22C11.1441 7.308 11.1841 7.416 11.1841 7.544C11.1841 7.672 11.1281 7.792 11.0161 7.904C10.9121 8.008 10.7761 8.06 10.6081 8.06C10.1681 8.06 9.83613 8.148 9.61213 8.324C9.38813 8.508 9.23613 8.784 9.15613 9.152C9.08413 9.528 9.04813 10.004 9.04813 10.58L8.34013 11.228ZM10.5898 8.06L10.7098 7.076C10.9658 7.076 11.1738 7.06 11.3338 7.028C11.4938 6.988 11.6258 6.896 11.7298 6.752C11.8418 6.6 11.9458 6.364 12.0418 6.044C12.1378 5.724 12.2498 5.276 12.3778 4.7L13.2778 4.952C13.2458 5.088 13.2098 5.244 13.1698 5.42C13.1298 5.588 13.0938 5.764 13.0618 5.948C13.0298 6.124 13.0138 6.288 13.0138 6.44C13.0138 6.64 13.0898 6.796 13.2418 6.908C13.3938 7.02 13.6698 7.076 14.0698 7.076C14.3098 7.076 14.5058 7.056 14.6578 7.016C14.8098 6.976 14.9338 6.88 15.0298 6.728C15.1338 6.576 15.2258 6.332 15.3058 5.996C15.3858 5.66 15.4698 5.2 15.5578 4.616L16.4698 4.784C16.4458 4.928 16.4178 5.104 16.3858 5.312C16.3538 5.52 16.3218 5.728 16.2898 5.936C16.2658 6.136 16.2538 6.304 16.2538 6.44C16.2538 6.552 16.2778 6.66 16.3258 6.764C16.3818 6.86 16.4858 6.936 16.6378 6.992C16.7978 7.048 17.0338 7.076 17.3458 7.076C17.5778 7.076 17.7778 7.048 17.9458 6.992C18.1218 6.936 18.2538 6.832 18.3418 6.68C18.4378 6.528 18.4858 6.316 18.4858 6.044C18.4858 5.74 18.4138 5.36 18.2698 4.904C18.1338 4.44 17.9778 3.98 17.8018 3.524L18.7738 3.164C18.8778 3.42 18.9738 3.712 19.0618 4.04C19.1578 4.368 19.2378 4.692 19.3018 5.012C19.3658 5.332 19.3978 5.612 19.3978 5.852C19.3978 6.22 19.3498 6.544 19.2538 6.824C19.1578 7.104 19.0218 7.336 18.8458 7.52C18.6698 7.696 18.4538 7.832 18.1978 7.928C17.9418 8.016 17.6538 8.06 17.3338 8.06C16.9578 8.06 16.6498 8.016 16.4098 7.928C16.1698 7.84 15.9858 7.708 15.8578 7.532C15.7298 7.348 15.6458 7.116 15.6058 6.836H16.0138C15.8618 7.18 15.7018 7.44 15.5338 7.616C15.3658 7.792 15.1578 7.912 14.9098 7.976C14.6618 8.032 14.3338 8.06 13.9258 8.06C13.7258 8.06 13.5098 8.028 13.2778 7.964C13.0538 7.9 12.8578 7.776 12.6898 7.592C12.5218 7.4 12.4218 7.116 12.3898 6.74L12.7498 6.668C12.6138 7.076 12.4458 7.38 12.2458 7.58C12.0538 7.772 11.8218 7.9 11.5498 7.964C11.2778 8.028 10.9578 8.06 10.5898 8.06ZM15.7618 1.46C15.5938 1.46 15.4498 1.404 15.3298 1.292C15.2178 1.172 15.1618 1.032 15.1618 0.872C15.1618 0.712 15.2178 0.572 15.3298 0.452C15.4498 0.332 15.5938 0.271999 15.7618 0.271999C15.9218 0.271999 16.0578 0.332 16.1698 0.452C16.2898 0.572 16.3498 0.712 16.3498 0.872C16.3498 1.032 16.2898 1.172 16.1698 1.292C16.0578 1.404 15.9218 1.46 15.7618 1.46ZM14.9458 2.78C14.7778 2.78 14.6338 2.724 14.5138 2.612C14.4018 2.492 14.3458 2.352 14.3458 2.192C14.3458 2.032 14.4018 1.892 14.5138 1.772C14.6338 1.652 14.7778 1.592 14.9458 1.592C15.1058 1.592 15.2418 1.652 15.3538 1.772C15.4738 1.892 15.5338 2.032 15.5338 2.192C15.5338 2.352 15.4738 2.492 15.3538 2.612C15.2418 2.724 15.1058 2.78 14.9458 2.78ZM16.5778 2.78C16.4098 2.78 16.2658 2.724 16.1458 2.612C16.0338 2.492 15.9778 2.352 15.9778 2.192C15.9778 2.032 16.0338 1.892 16.1458 1.772C16.2658 1.652 16.4098 1.592 16.5778 1.592C16.7378 1.592 16.8738 1.652 16.9858 1.772C17.1058 1.892 17.1658 2.032 17.1658 2.192C17.1658 2.352 17.1058 2.492 16.9858 2.612C16.8738 2.724 16.7378 2.78 16.5778 2.78Z" fill="black"/>
</svg>
