<svg width="138" height="16" viewBox="0 0 138 16" fill="none" xmlns="http://www.w3.org/2000/svg">
<path d="M1.38113 9.544C1.38113 10.424 1.52113 11.284 1.80113 12.124C2.08113 12.956 2.45713 13.7 2.92913 14.356L2.11313 14.884C1.58513 14.172 1.16113 13.356 0.841125 12.436C0.521125 11.516 0.361125 10.552 0.361125 9.544C0.361125 8.536 0.521125 7.572 0.841125 6.652C1.16113 5.732 1.58513 4.916 2.11313 4.204L2.92913 4.732C2.45713 5.388 2.08113 6.136 1.80113 6.976C1.52113 7.808 1.38113 8.664 1.38113 9.544ZM4.09828 13.012C4.09828 12.724 4.13828 12.404 4.21828 12.052C4.29828 11.7 4.42628 11.312 4.60228 10.888L5.46628 11.224C5.33828 11.56 5.24228 11.868 5.17828 12.148C5.11428 12.428 5.08228 12.688 5.08228 12.928C5.08228 13.368 5.19028 13.724 5.40628 13.996C5.63028 14.276 5.92628 14.48 6.29428 14.608C6.67028 14.736 7.08228 14.8 7.53028 14.8C8.07428 14.8 8.53028 14.74 8.89828 14.62C9.26628 14.508 9.55828 14.352 9.77428 14.152C9.99028 13.952 10.1423 13.724 10.2303 13.468C10.3263 13.22 10.3743 12.96 10.3743 12.688C10.3743 12.336 10.3463 12.004 10.2903 11.692C10.2423 11.38 10.1743 11.076 10.0863 10.78C10.0063 10.476 9.91828 10.168 9.82228 9.856L10.7943 9.592C10.8823 9.896 10.9503 10.144 10.9983 10.336C11.0463 10.52 11.0823 10.668 11.1063 10.78C11.1383 10.892 11.1663 10.992 11.1903 11.08C11.2783 11.376 11.3943 11.596 11.5383 11.74C11.6823 11.876 11.8463 11.968 12.0303 12.016C12.2223 12.056 12.4183 12.076 12.6183 12.076C12.7863 12.076 12.9063 12.124 12.9783 12.22C13.0583 12.308 13.0983 12.416 13.0983 12.544C13.0983 12.672 13.0423 12.792 12.9303 12.904C12.8183 13.008 12.6743 13.06 12.4983 13.06C12.1623 13.06 11.8823 13.004 11.6583 12.892C11.4343 12.772 11.2583 12.624 11.1303 12.448C11.0103 12.272 10.9303 12.088 10.8903 11.896L11.3823 12.508C11.3583 12.916 11.2783 13.312 11.1423 13.696C11.0143 14.088 10.8063 14.44 10.5183 14.752C10.2303 15.072 9.83828 15.324 9.34228 15.508C8.85428 15.692 8.23828 15.784 7.49428 15.784C7.03828 15.784 6.60628 15.728 6.19828 15.616C5.79028 15.504 5.42628 15.332 5.10628 15.1C4.79428 14.876 4.54628 14.588 4.36228 14.236C4.18628 13.892 4.09828 13.484 4.09828 13.012ZM7.72228 8.224C7.55428 8.224 7.41028 8.168 7.29028 8.056C7.17828 7.936 7.12228 7.796 7.12228 7.636C7.12228 7.476 7.17828 7.336 7.29028 7.216C7.41028 7.096 7.55428 7.036 7.72228 7.036C7.88228 7.036 8.01828 7.096 8.13028 7.216C8.25028 7.336 8.31028 7.476 8.31028 7.636C8.31028 7.796 8.25028 7.936 8.13028 8.056C8.01828 8.168 7.88228 8.224 7.72228 8.224ZM12.5039 13.06L12.6239 12.076H15.1319C15.8279 12.076 16.4279 12.048 16.9319 11.992C17.4439 11.928 17.8639 11.836 18.1919 11.716C18.5199 11.596 18.7639 11.444 18.9239 11.26C19.0839 11.068 19.1639 10.844 19.1639 10.588C19.1639 10.452 19.1199 10.304 19.0319 10.144C18.9439 9.984 18.8079 9.848 18.6239 9.736C18.4399 9.616 18.1959 9.556 17.8919 9.556C17.5079 9.556 17.1239 9.656 16.7399 9.856C16.3639 10.056 16.0039 10.308 15.6599 10.612C15.3239 10.908 15.0239 11.212 14.7599 11.524C14.4959 11.836 14.2839 12.108 14.1239 12.34L13.0799 12.304C13.3359 11.888 13.6399 11.464 13.9919 11.032C14.3519 10.592 14.7439 10.188 15.1679 9.82C15.5999 9.444 16.0519 9.144 16.5239 8.92C16.9959 8.688 17.4759 8.572 17.9639 8.572C18.4039 8.572 18.7799 8.664 19.0919 8.848C19.4119 9.024 19.6559 9.264 19.8239 9.568C19.9999 9.872 20.0879 10.216 20.0879 10.6C20.0879 10.976 19.9519 11.356 19.6799 11.74C19.4079 12.116 18.9399 12.412 18.2759 12.628C17.9399 12.74 17.5559 12.828 17.1239 12.892C16.6919 12.956 16.1999 13 15.6479 13.024C15.0959 13.048 14.4679 13.06 13.7639 13.06H12.5039ZM13.6439 11.872L13.4039 4.432H14.3759L14.6159 11.032L13.6439 11.872ZM21.321 15.76L21.105 14.776C21.585 14.712 22.025 14.62 22.425 14.5C22.833 14.388 23.181 14.224 23.469 14.008C23.765 13.792 23.993 13.508 24.153 13.156C24.313 12.804 24.393 12.364 24.393 11.836C24.393 11.588 24.369 11.352 24.321 11.128C24.273 10.896 24.201 10.692 24.105 10.516C24.009 10.34 23.893 10.2 23.757 10.096C23.629 9.992 23.481 9.94 23.313 9.94C23.129 9.94 22.961 10.012 22.809 10.156C22.665 10.292 22.549 10.468 22.461 10.684C22.381 10.9 22.341 11.116 22.341 11.332C22.341 11.5 22.373 11.648 22.437 11.776C22.509 11.896 22.625 11.988 22.785 12.052C22.945 12.116 23.153 12.148 23.409 12.148C23.641 12.148 23.873 12.124 24.105 12.076C24.345 12.028 24.549 11.964 24.717 11.884L24.765 12.724C24.573 12.86 24.345 12.956 24.081 13.012C23.825 13.068 23.565 13.096 23.301 13.096C22.997 13.096 22.725 13.064 22.485 13C22.253 12.936 22.053 12.844 21.885 12.724C21.725 12.596 21.601 12.436 21.513 12.244C21.433 12.052 21.393 11.828 21.393 11.572C21.393 11.268 21.441 10.964 21.537 10.66C21.633 10.348 21.769 10.064 21.945 9.808C22.121 9.552 22.333 9.348 22.581 9.196C22.829 9.036 23.105 8.956 23.409 8.956C23.729 8.956 24.009 9.04 24.249 9.208C24.489 9.368 24.689 9.588 24.849 9.868C25.009 10.148 25.129 10.464 25.209 10.816C25.289 11.168 25.329 11.532 25.329 11.908C25.329 12.652 25.177 13.292 24.873 13.828C24.577 14.372 24.129 14.804 23.529 15.124C22.937 15.444 22.201 15.656 21.321 15.76ZM29.3522 13.012C29.3522 12.82 29.3682 12.616 29.4002 12.4C29.4402 12.176 29.4962 11.94 29.5682 11.692C29.6482 11.436 29.7442 11.168 29.8562 10.888L30.7202 11.224C30.6402 11.448 30.5682 11.66 30.5042 11.86C30.4482 12.06 30.4042 12.248 30.3722 12.424C30.3482 12.6 30.3362 12.768 30.3362 12.928C30.3362 13.264 30.4082 13.548 30.5522 13.78C30.7042 14.02 30.9122 14.216 31.1762 14.368C31.4402 14.52 31.7402 14.632 32.0762 14.704C32.4202 14.776 32.7842 14.812 33.1682 14.812C33.6322 14.812 34.0642 14.772 34.4642 14.692C34.8722 14.612 35.2282 14.496 35.5322 14.344C35.8442 14.2 36.0882 14.032 36.2642 13.84C36.4402 13.656 36.5282 13.456 36.5282 13.24C36.5282 13.136 36.4882 13.04 36.4082 12.952C36.3282 12.864 36.2082 12.78 36.0482 12.7C35.8882 12.62 35.6962 12.544 35.4722 12.472C35.2482 12.392 34.9922 12.312 34.7042 12.232L34.9322 11.236C35.3482 11.396 35.7162 11.532 36.0362 11.644C36.3562 11.748 36.6362 11.832 36.8762 11.896C37.1162 11.96 37.3242 12.008 37.5002 12.04C37.6762 12.064 37.8242 12.076 37.9442 12.076C38.1122 12.076 38.2322 12.124 38.3042 12.22C38.3842 12.308 38.4242 12.416 38.4242 12.544C38.4242 12.672 38.3682 12.792 38.2562 12.904C38.1442 13.008 38.0002 13.06 37.8242 13.06C37.7762 13.06 37.7282 13.06 37.6802 13.06C37.6322 13.06 37.5802 13.06 37.5242 13.06C37.4762 13.06 37.4282 13.06 37.3802 13.06C37.3962 13.132 37.4082 13.188 37.4162 13.228C37.4242 13.276 37.4282 13.336 37.4282 13.408C37.4282 13.704 37.3242 13.992 37.1162 14.272C36.9162 14.552 36.6202 14.804 36.2282 15.028C35.8362 15.26 35.3602 15.444 34.8002 15.58C34.2482 15.716 33.6162 15.784 32.9042 15.784C32.2722 15.784 31.6842 15.68 31.1402 15.472C30.6042 15.272 30.1722 14.968 29.8442 14.56C29.5162 14.152 29.3522 13.636 29.3522 13.012ZM37.8281 13.06L37.9481 12.076C38.3401 12.076 38.6521 12.052 38.8841 12.004C39.1161 11.956 39.2841 11.86 39.3881 11.716C39.4921 11.564 39.5441 11.34 39.5441 11.044C39.5441 10.844 39.5121 10.608 39.4481 10.336C39.3841 10.056 39.3001 9.76 39.1961 9.448C39.0921 9.136 38.9801 8.828 38.8601 8.524L39.8321 8.164C39.9361 8.42 40.0321 8.712 40.1201 9.04C40.2161 9.368 40.2961 9.692 40.3601 10.012C40.4241 10.332 40.4561 10.612 40.4561 10.852C40.4561 11.172 40.4201 11.456 40.3481 11.704C40.2841 11.944 40.1841 12.152 40.0481 12.328C39.9121 12.496 39.7361 12.636 39.5201 12.748C39.3121 12.852 39.0681 12.932 38.7881 12.988C38.5081 13.036 38.1881 13.06 37.8281 13.06ZM38.2721 6.832L38.1281 6.184C38.3361 6.136 38.5041 6.096 38.6321 6.064C38.7601 6.032 38.9041 5.996 39.0641 5.956L39.0041 6.208C38.7961 6.144 38.5961 6.008 38.4041 5.8C38.2201 5.592 38.1281 5.356 38.1281 5.092C38.1281 4.852 38.1841 4.652 38.2961 4.492C38.4161 4.324 38.5681 4.2 38.7521 4.12C38.9441 4.04 39.1481 4 39.3641 4C39.4521 4 39.5441 4.008 39.6401 4.024C39.7441 4.04 39.8401 4.064 39.9281 4.096L39.8321 4.696C39.7521 4.68 39.6761 4.664 39.6041 4.648C39.5321 4.632 39.4521 4.624 39.3641 4.624C39.1801 4.624 39.0361 4.664 38.9321 4.744C38.8281 4.816 38.7761 4.92 38.7761 5.056C38.7761 5.224 38.8281 5.368 38.9321 5.488C39.0441 5.608 39.1681 5.704 39.3041 5.776C39.4481 5.84 39.5641 5.872 39.6521 5.872L39.1601 5.92C39.3761 5.864 39.5761 5.808 39.7601 5.752C39.9521 5.688 40.1241 5.628 40.2761 5.572L40.4681 6.184C40.2761 6.256 40.0481 6.332 39.7841 6.412C39.5281 6.492 39.2681 6.568 39.0041 6.64C38.7401 6.712 38.4961 6.776 38.2721 6.832ZM44.5428 13.06C43.9028 13.06 43.4108 12.988 43.0668 12.844C42.7308 12.7 42.4988 12.476 42.3708 12.172C42.2428 11.868 42.1708 11.476 42.1548 10.996L41.9148 4.432H42.8988L43.1388 10.612C43.1548 11.004 43.1908 11.308 43.2468 11.524C43.3108 11.732 43.4468 11.876 43.6548 11.956C43.8708 12.036 44.2068 12.076 44.6628 12.076C44.8308 12.076 44.9508 12.124 45.0228 12.22C45.1028 12.308 45.1428 12.416 45.1428 12.544C45.1428 12.672 45.0868 12.792 44.9748 12.904C44.8628 13.008 44.7188 13.06 44.5428 13.06ZM44.543 13.06L44.663 12.076C45.055 12.076 45.367 12.052 45.599 12.004C45.831 11.956 45.999 11.86 46.103 11.716C46.207 11.564 46.259 11.34 46.259 11.044C46.259 10.844 46.227 10.608 46.163 10.336C46.099 10.056 46.015 9.76 45.911 9.448C45.807 9.136 45.695 8.828 45.575 8.524L46.547 8.164C46.651 8.42 46.747 8.712 46.835 9.04C46.931 9.368 47.011 9.692 47.075 10.012C47.139 10.332 47.171 10.612 47.171 10.852C47.171 11.172 47.135 11.456 47.063 11.704C46.999 11.944 46.899 12.152 46.763 12.328C46.627 12.496 46.451 12.636 46.235 12.748C46.027 12.852 45.783 12.932 45.503 12.988C45.223 13.036 44.903 13.06 44.543 13.06ZM45.827 15.292C45.659 15.292 45.515 15.232 45.395 15.112C45.283 15 45.227 14.864 45.227 14.704C45.227 14.544 45.283 14.404 45.395 14.284C45.515 14.164 45.659 14.104 45.827 14.104C45.987 14.104 46.123 14.164 46.235 14.284C46.355 14.404 46.415 14.544 46.415 14.704C46.415 14.864 46.355 15 46.235 15.112C46.123 15.232 45.987 15.292 45.827 15.292ZM48.8336 13L48.6296 5.272H49.6016L49.8056 13H48.8336ZM49.9136 4.108C49.6736 4.108 49.4576 4.068 49.2656 3.988C49.0736 3.9 48.8976 3.816 48.7376 3.736C48.5776 3.656 48.4296 3.616 48.2936 3.616C48.1496 3.616 48.0176 3.652 47.8976 3.724C47.7856 3.796 47.6656 3.896 47.5376 4.024L47.0816 3.64C47.2656 3.408 47.4576 3.228 47.6576 3.1C47.8576 2.964 48.0696 2.896 48.2936 2.896C48.4936 2.896 48.6776 2.936 48.8456 3.016C49.0136 3.096 49.1816 3.176 49.3496 3.256C49.5256 3.336 49.7136 3.376 49.9136 3.376C50.0416 3.376 50.1616 3.356 50.2736 3.316C50.3856 3.268 50.5216 3.196 50.6816 3.1L51.0296 3.592C50.7736 3.816 50.5536 3.96 50.3696 4.024C50.1936 4.08 50.0416 4.108 49.9136 4.108ZM52.9418 9.544C52.9418 8.664 52.8018 7.808 52.5218 6.976C52.2418 6.136 51.8658 5.388 51.3938 4.732L52.2098 4.204C52.7378 4.916 53.1618 5.732 53.4818 6.652C53.8018 7.572 53.9618 8.536 53.9618 9.544C53.9618 10.552 53.8018 11.516 53.4818 12.436C53.1618 13.356 52.7378 14.172 52.2098 14.884L51.3938 14.356C51.8658 13.7 52.2418 12.956 52.5218 12.124C52.8018 11.284 52.9418 10.424 52.9418 9.544ZM57.423 15.784L57.075 14.872C57.659 14.68 58.143 14.46 58.527 14.212C58.919 13.964 59.227 13.7 59.451 13.42C59.683 13.14 59.847 12.856 59.943 12.568C60.039 12.272 60.087 11.988 60.087 11.716C60.087 11.324 59.999 10.928 59.823 10.528C59.655 10.12 59.467 9.736 59.259 9.376L60.135 8.932C60.287 9.212 60.419 9.488 60.531 9.76C60.651 10.032 60.755 10.288 60.843 10.528C60.939 10.768 61.015 10.988 61.071 11.188C61.183 11.532 61.327 11.768 61.503 11.896C61.687 12.016 61.935 12.076 62.247 12.076C62.415 12.076 62.535 12.124 62.607 12.22C62.687 12.308 62.727 12.416 62.727 12.544C62.727 12.672 62.671 12.792 62.559 12.904C62.447 13.008 62.303 13.06 62.127 13.06C61.775 13.06 61.487 13 61.263 12.88C61.047 12.752 60.883 12.588 60.771 12.388C60.659 12.18 60.583 11.964 60.543 11.74L60.927 11.956C60.927 12.484 60.807 12.964 60.567 13.396C60.335 13.836 60.035 14.216 59.667 14.536C59.299 14.864 58.915 15.132 58.515 15.34C58.115 15.548 57.751 15.696 57.423 15.784ZM62.1328 13.06L62.2528 12.076C62.5888 12.076 62.8528 12.048 63.0448 11.992C63.2368 11.928 63.3808 11.812 63.4768 11.644C63.5808 11.468 63.6688 11.216 63.7408 10.888C63.8128 10.56 63.9008 10.132 64.0048 9.604L64.9408 9.784C64.9088 9.928 64.8728 10.088 64.8328 10.264C64.7928 10.44 64.7568 10.616 64.7248 10.792C64.7008 10.96 64.6888 11.108 64.6888 11.236C64.6888 11.396 64.7248 11.54 64.7968 11.668C64.8688 11.796 65.0248 11.896 65.2648 11.968C65.5048 12.04 65.8728 12.076 66.3688 12.076C66.5368 12.076 66.6568 12.124 66.7288 12.22C66.8088 12.308 66.8488 12.416 66.8488 12.544C66.8488 12.672 66.7928 12.792 66.6808 12.904C66.5688 13.008 66.4248 13.06 66.2488 13.06C65.7288 13.06 65.3208 13.016 65.0248 12.928C64.7288 12.832 64.5128 12.692 64.3768 12.508C64.2408 12.316 64.1488 12.084 64.1008 11.812L64.4608 11.836C64.3328 12.092 64.1928 12.3 64.0408 12.46C63.8968 12.62 63.7368 12.744 63.5608 12.832C63.3848 12.92 63.1808 12.98 62.9488 13.012C62.7168 13.044 62.4448 13.06 62.1328 13.06ZM64.1728 15.292C64.0048 15.292 63.8608 15.232 63.7408 15.112C63.6288 15 63.5728 14.864 63.5728 14.704C63.5728 14.544 63.6288 14.404 63.7408 14.284C63.8608 14.164 64.0048 14.104 64.1728 14.104C64.3328 14.104 64.4688 14.164 64.5808 14.284C64.7008 14.404 64.7608 14.544 64.7608 14.704C64.7608 14.864 64.7008 15 64.5808 15.112C64.4688 15.232 64.3328 15.292 64.1728 15.292ZM66.2461 13.06L66.3661 12.076C66.5901 12.076 66.7661 12.028 66.8941 11.932C67.0301 11.836 67.1581 11.676 67.2781 11.452C67.4061 11.228 67.5661 10.928 67.7581 10.552C67.9501 10.168 68.1421 9.856 68.3341 9.616C68.5341 9.368 68.7261 9.176 68.9101 9.04C69.1021 8.896 69.2821 8.796 69.4501 8.74C69.6181 8.684 69.7741 8.656 69.9181 8.656C70.1821 8.656 70.4181 8.716 70.6261 8.836C70.8341 8.948 71.0301 9.144 71.2141 9.424C71.3981 9.696 71.5861 10.072 71.7781 10.552C71.9621 10.992 72.1261 11.324 72.2701 11.548C72.4221 11.764 72.5781 11.908 72.7381 11.98C72.9061 12.044 73.0941 12.076 73.3021 12.076C73.4701 12.076 73.5901 12.124 73.6621 12.22C73.7421 12.308 73.7821 12.416 73.7821 12.544C73.7821 12.672 73.7261 12.792 73.6141 12.904C73.5021 13.008 73.3581 13.06 73.1821 13.06C72.8701 13.06 72.5821 13.008 72.3181 12.904C72.0621 12.8 71.8461 12.636 71.6701 12.412L71.8381 12.16C71.7501 12.408 71.6301 12.612 71.4781 12.772C71.3341 12.924 71.1701 13.036 70.9861 13.108C70.8021 13.188 70.6061 13.228 70.3981 13.228C70.1341 13.228 69.8621 13.172 69.5821 13.06C69.3101 12.948 69.0461 12.788 68.7901 12.58C68.5341 12.372 68.3101 12.128 68.1181 11.848C67.9101 12.216 67.7101 12.488 67.5181 12.664C67.3341 12.832 67.1421 12.94 66.9421 12.988C66.7421 13.036 66.5101 13.06 66.2461 13.06ZM68.5741 10.936C68.7101 11.16 68.8541 11.356 69.0061 11.524C69.1661 11.692 69.3261 11.832 69.4861 11.944C69.6461 12.048 69.8021 12.128 69.9541 12.184C70.1141 12.232 70.2581 12.256 70.3861 12.256C70.6661 12.256 70.8701 12.156 70.9981 11.956C71.1341 11.756 71.1301 11.476 70.9861 11.116C70.9141 10.932 70.8381 10.752 70.7581 10.576C70.6861 10.4 70.6061 10.24 70.5181 10.096C70.4301 9.944 70.3301 9.828 70.2181 9.748C70.1061 9.66 69.9821 9.616 69.8461 9.616C69.7261 9.616 69.5981 9.656 69.4621 9.736C69.3341 9.816 69.1941 9.952 69.0421 10.144C68.8981 10.336 68.7421 10.6 68.5741 10.936ZM73.1836 13.06L73.3036 12.076C73.6956 12.076 74.0076 12.052 74.2396 12.004C74.4716 11.956 74.6396 11.86 74.7436 11.716C74.8476 11.564 74.8996 11.34 74.8996 11.044C74.8996 10.844 74.8676 10.608 74.8036 10.336C74.7396 10.056 74.6556 9.76 74.5516 9.448C74.4476 9.136 74.3356 8.828 74.2156 8.524L75.1876 8.164C75.2916 8.42 75.3876 8.712 75.4756 9.04C75.5716 9.368 75.6516 9.692 75.7156 10.012C75.7796 10.332 75.8116 10.612 75.8116 10.852C75.8116 11.172 75.7756 11.456 75.7036 11.704C75.6396 11.944 75.5396 12.152 75.4036 12.328C75.2676 12.496 75.0916 12.636 74.8756 12.748C74.6676 12.852 74.4236 12.932 74.1436 12.988C73.8636 13.036 73.5436 13.06 73.1836 13.06ZM74.7196 6.916C74.5516 6.916 74.4076 6.86 74.2876 6.748C74.1756 6.628 74.1196 6.488 74.1196 6.328C74.1196 6.168 74.1756 6.028 74.2876 5.908C74.4076 5.788 74.5516 5.728 74.7196 5.728C74.8796 5.728 75.0156 5.788 75.1276 5.908C75.2476 6.028 75.3076 6.168 75.3076 6.328C75.3076 6.488 75.2476 6.628 75.1276 6.748C75.0156 6.86 74.8796 6.916 74.7196 6.916ZM79.8263 12.46L80.3063 11.632C80.4663 11.736 80.6903 11.836 80.9783 11.932C81.2663 12.028 81.6023 12.076 81.9863 12.076C82.3863 12.076 82.7023 12.036 82.9342 11.956C83.1743 11.876 83.3463 11.76 83.4503 11.608C83.5623 11.448 83.6183 11.264 83.6183 11.056C83.6183 10.896 83.5823 10.7 83.5103 10.468C83.4463 10.228 83.3023 9.908 83.0783 9.508C82.8543 9.1 82.5103 8.568 82.0463 7.912L82.8743 7.372C83.2983 7.956 83.6343 8.484 83.8823 8.956C84.1383 9.428 84.3183 9.844 84.4223 10.204C84.5343 10.556 84.5903 10.86 84.5903 11.116C84.5903 11.436 84.5103 11.748 84.3503 12.052C84.1903 12.348 83.9223 12.592 83.5463 12.784C83.1703 12.976 82.6503 13.072 81.9863 13.072C81.6983 13.072 81.4183 13.048 81.1463 13C80.8823 12.952 80.6383 12.884 80.4143 12.796C80.1903 12.7 79.9943 12.588 79.8263 12.46ZM82.0343 3.544C81.8903 3.544 81.7183 3.54 81.5183 3.532C81.3263 3.516 81.1423 3.5 80.9663 3.484C80.7903 3.468 80.6583 3.456 80.5703 3.448L80.5943 2.752C80.7543 2.768 80.9623 2.788 81.2183 2.812C81.4823 2.836 81.7263 2.848 81.9503 2.848C82.2143 2.848 82.4263 2.832 82.5863 2.8C82.7543 2.76 82.8743 2.704 82.9463 2.632C83.0263 2.56 83.0663 2.48 83.0663 2.392C83.0663 2.28 83.0303 2.2 82.9583 2.152C82.8863 2.104 82.7943 2.08 82.6823 2.08C82.5223 2.08 82.3663 2.136 82.2143 2.248C82.0623 2.352 81.9263 2.472 81.8063 2.608C81.6943 2.736 81.6103 2.84 81.5543 2.92L80.8823 2.872C81.0183 2.608 81.1863 2.364 81.3863 2.14C81.5863 1.908 81.8063 1.724 82.0463 1.588C82.2863 1.444 82.5303 1.372 82.7783 1.372C83.0823 1.372 83.3223 1.464 83.4983 1.648C83.6743 1.832 83.7623 2.06 83.7623 2.332C83.7623 2.492 83.7143 2.668 83.6183 2.86C83.5303 3.044 83.3623 3.204 83.1143 3.34C82.8663 3.476 82.5063 3.544 82.0343 3.544ZM81.2063 2.752L81.1343 0.435999H81.7943L81.8903 2.44L81.2063 2.752ZM84.8097 15.76L84.4617 14.848C85.2697 14.592 85.8897 14.284 86.3217 13.924C86.7617 13.572 87.0617 13.204 87.2217 12.82C87.3897 12.436 87.4737 12.068 87.4737 11.716C87.4737 11.492 87.4497 11.276 87.4017 11.068C87.3537 10.86 87.2697 10.624 87.1497 10.36C87.0297 10.096 86.8617 9.768 86.6457 9.376L87.5217 8.932C87.8257 9.452 88.0417 9.944 88.1697 10.408C88.3057 10.872 88.3737 11.28 88.3737 11.632C88.3737 12.136 88.2897 12.592 88.1217 13C87.9617 13.408 87.7457 13.768 87.4737 14.08C87.2097 14.4 86.9177 14.672 86.5977 14.896C86.2857 15.12 85.9697 15.304 85.6497 15.448C85.3377 15.592 85.0577 15.696 84.8097 15.76ZM92.66 13.06C92.02 13.06 91.528 12.988 91.184 12.844C90.848 12.7 90.616 12.476 90.488 12.172C90.36 11.868 90.288 11.476 90.272 10.996L90.032 4.432H91.016L91.256 10.612C91.272 11.004 91.308 11.308 91.364 11.524C91.428 11.732 91.564 11.876 91.772 11.956C91.988 12.036 92.324 12.076 92.78 12.076C92.948 12.076 93.068 12.124 93.14 12.22C93.22 12.308 93.26 12.416 93.26 12.544C93.26 12.672 93.204 12.792 93.092 12.904C92.98 13.008 92.836 13.06 92.66 13.06ZM92.6602 13.06L92.7802 12.076H93.9082C94.3802 12.076 94.7522 12.052 95.0242 12.004C95.3042 11.948 95.5082 11.88 95.6362 11.8C95.7722 11.712 95.8602 11.62 95.9002 11.524C95.9482 11.42 95.9722 11.316 95.9722 11.212C95.9722 11.028 95.9002 10.8 95.7562 10.528C95.6202 10.256 95.3362 9.904 94.9042 9.472C94.6802 9.248 94.4562 9.044 94.2322 8.86C94.0082 8.668 93.8002 8.5 93.6082 8.356C93.4242 8.204 93.2762 8.076 93.1642 7.972C93.0522 7.868 92.9962 7.788 92.9962 7.732C92.9962 7.612 93.0042 7.496 93.0202 7.384C93.0442 7.272 93.0722 7.168 93.1042 7.072C93.1442 6.976 93.1922 6.9 93.2482 6.844C93.4082 6.676 93.6122 6.508 93.8602 6.34C94.1162 6.172 94.4122 5.996 94.7482 5.812C95.0922 5.628 95.4762 5.432 95.9002 5.224C96.3322 5.008 96.8042 4.772 97.3162 4.516L97.7242 5.404C97.0842 5.708 96.5482 5.968 96.1162 6.184C95.6922 6.392 95.3322 6.58 95.0362 6.748C94.7402 6.908 94.4802 7.06 94.2562 7.204C94.0322 7.348 93.8042 7.508 93.5722 7.684L93.7522 7.228C94.2562 7.628 94.7002 8.004 95.0842 8.356C95.4762 8.708 95.8042 9.048 96.0682 9.376C96.3322 9.696 96.5322 10.012 96.6682 10.324C96.8042 10.636 96.8722 10.952 96.8722 11.272C96.8722 11.448 96.8402 11.64 96.7762 11.848C96.7122 12.056 96.5762 12.252 96.3682 12.436C96.1602 12.62 95.8482 12.772 95.4322 12.892C95.0162 13.004 94.4562 13.06 93.7522 13.06H92.6602ZM100.965 13.012C100.965 12.82 100.981 12.616 101.013 12.4C101.053 12.176 101.109 11.94 101.181 11.692C101.261 11.436 101.357 11.168 101.469 10.888L102.333 11.224C102.253 11.448 102.181 11.66 102.117 11.86C102.061 12.06 102.017 12.248 101.985 12.424C101.961 12.6 101.949 12.768 101.949 12.928C101.949 13.264 102.021 13.548 102.165 13.78C102.317 14.02 102.525 14.216 102.789 14.368C103.053 14.52 103.353 14.632 103.689 14.704C104.033 14.776 104.397 14.812 104.781 14.812C105.245 14.812 105.677 14.772 106.077 14.692C106.485 14.612 106.841 14.496 107.145 14.344C107.457 14.2 107.701 14.032 107.877 13.84C108.053 13.656 108.141 13.456 108.141 13.24C108.141 13.136 108.101 13.04 108.021 12.952C107.941 12.864 107.821 12.78 107.661 12.7C107.501 12.62 107.309 12.544 107.085 12.472C106.861 12.392 106.605 12.312 106.317 12.232L106.545 11.236C106.961 11.396 107.329 11.532 107.649 11.644C107.969 11.748 108.249 11.832 108.489 11.896C108.729 11.96 108.937 12.008 109.113 12.04C109.289 12.064 109.437 12.076 109.557 12.076C109.725 12.076 109.845 12.124 109.917 12.22C109.997 12.308 110.037 12.416 110.037 12.544C110.037 12.672 109.981 12.792 109.869 12.904C109.757 13.008 109.613 13.06 109.437 13.06C109.389 13.06 109.341 13.06 109.293 13.06C109.245 13.06 109.193 13.06 109.137 13.06C109.089 13.06 109.041 13.06 108.993 13.06C109.009 13.132 109.021 13.188 109.029 13.228C109.037 13.276 109.041 13.336 109.041 13.408C109.041 13.704 108.937 13.992 108.729 14.272C108.529 14.552 108.233 14.804 107.841 15.028C107.449 15.26 106.973 15.444 106.413 15.58C105.861 15.716 105.229 15.784 104.517 15.784C103.885 15.784 103.297 15.68 102.753 15.472C102.217 15.272 101.785 14.968 101.457 14.56C101.129 14.152 100.965 13.636 100.965 13.012ZM109.441 13.06L109.561 12.076C109.961 12.076 110.273 12.048 110.497 11.992C110.721 11.928 110.889 11.812 111.001 11.644C111.121 11.468 111.217 11.216 111.289 10.888C111.361 10.56 111.449 10.132 111.553 9.604L112.489 9.784C112.457 9.928 112.421 10.088 112.381 10.264C112.341 10.44 112.305 10.616 112.273 10.792C112.249 10.96 112.237 11.108 112.237 11.236C112.237 11.356 112.245 11.468 112.261 11.572C112.277 11.676 112.337 11.764 112.441 11.836C112.545 11.908 112.721 11.968 112.969 12.016C113.217 12.056 113.573 12.076 114.037 12.076C114.205 12.076 114.325 12.124 114.397 12.22C114.477 12.308 114.517 12.416 114.517 12.544C114.517 12.672 114.461 12.792 114.349 12.904C114.237 13.008 114.093 13.06 113.917 13.06C113.429 13.06 113.041 13.036 112.753 12.988C112.465 12.932 112.245 12.852 112.093 12.748C111.949 12.644 111.845 12.516 111.781 12.364C111.725 12.204 111.681 12.02 111.649 11.812L112.009 11.836C111.881 12.092 111.741 12.3 111.589 12.46C111.445 12.62 111.277 12.744 111.085 12.832C110.893 12.92 110.661 12.98 110.389 13.012C110.125 13.044 109.809 13.06 109.441 13.06ZM112.645 8.368C112.477 8.368 112.333 8.312 112.213 8.2C112.101 8.08 112.045 7.94 112.045 7.78C112.045 7.62 112.101 7.48 112.213 7.36C112.333 7.24 112.477 7.18 112.645 7.18C112.805 7.18 112.941 7.24 113.053 7.36C113.173 7.48 113.233 7.62 113.233 7.78C113.233 7.94 113.173 8.08 113.053 8.2C112.941 8.312 112.805 8.368 112.645 8.368ZM111.001 8.368C110.833 8.368 110.689 8.312 110.569 8.2C110.457 8.08 110.401 7.94 110.401 7.78C110.401 7.62 110.457 7.48 110.569 7.36C110.689 7.24 110.833 7.18 111.001 7.18C111.161 7.18 111.297 7.24 111.409 7.36C111.529 7.48 111.589 7.62 111.589 7.78C111.589 7.94 111.529 8.08 111.409 8.2C111.297 8.312 111.161 8.368 111.001 8.368ZM113.918 13.06L114.026 12.076C114.442 12.076 114.85 12.044 115.25 11.98C115.65 11.916 116.042 11.824 116.426 11.704C116.81 11.584 117.178 11.44 117.53 11.272C117.89 11.096 118.23 10.896 118.55 10.672C118.342 10.488 118.102 10.328 117.83 10.192C117.558 10.056 117.258 9.952 116.93 9.88C116.61 9.8 116.27 9.76 115.91 9.76C115.782 9.76 115.662 9.764 115.55 9.772C115.438 9.78 115.326 9.796 115.214 9.82C115.102 9.836 114.974 9.86 114.83 9.892L114.638 8.98C114.854 8.916 115.07 8.868 115.286 8.836C115.502 8.796 115.71 8.776 115.91 8.776C116.326 8.776 116.702 8.828 117.038 8.932C117.374 9.028 117.678 9.148 117.95 9.292C118.23 9.436 118.49 9.58 118.73 9.724C118.978 9.868 119.218 9.992 119.45 10.096C119.682 10.192 119.922 10.24 120.17 10.24H120.422L120.506 11.104C120.162 11.104 119.846 11.152 119.558 11.248C119.27 11.344 118.986 11.468 118.706 11.62C118.434 11.764 118.146 11.92 117.842 12.088C117.538 12.248 117.202 12.404 116.834 12.556C116.466 12.7 116.042 12.82 115.562 12.916C115.09 13.012 114.542 13.06 113.918 13.06ZM115.922 7.54C115.754 7.54 115.61 7.484 115.49 7.372C115.378 7.252 115.322 7.112 115.322 6.952C115.322 6.792 115.378 6.652 115.49 6.532C115.61 6.412 115.754 6.352 115.922 6.352C116.082 6.352 116.218 6.412 116.33 6.532C116.45 6.652 116.51 6.792 116.51 6.952C116.51 7.112 116.45 7.252 116.33 7.372C116.218 7.484 116.082 7.54 115.922 7.54ZM124.476 13.06C123.836 13.06 123.344 12.988 123 12.844C122.664 12.7 122.432 12.476 122.304 12.172C122.176 11.868 122.104 11.476 122.088 10.996L121.848 4.432H122.832L123.072 10.612C123.088 11.004 123.124 11.308 123.18 11.524C123.244 11.732 123.38 11.876 123.588 11.956C123.804 12.036 124.14 12.076 124.596 12.076C124.764 12.076 124.884 12.124 124.956 12.22C125.036 12.308 125.076 12.416 125.076 12.544C125.076 12.672 125.02 12.792 124.908 12.904C124.796 13.008 124.652 13.06 124.476 13.06ZM124.477 13.06L124.597 12.076C124.933 12.076 125.197 12.048 125.389 11.992C125.581 11.928 125.725 11.812 125.821 11.644C125.925 11.468 126.013 11.216 126.085 10.888C126.157 10.56 126.245 10.132 126.349 9.604L127.285 9.784C127.253 9.928 127.217 10.088 127.177 10.264C127.137 10.44 127.101 10.616 127.069 10.792C127.045 10.96 127.033 11.108 127.033 11.236C127.033 11.396 127.069 11.54 127.141 11.668C127.213 11.796 127.369 11.896 127.609 11.968C127.849 12.04 128.217 12.076 128.713 12.076C128.881 12.076 129.001 12.124 129.073 12.22C129.153 12.308 129.193 12.416 129.193 12.544C129.193 12.672 129.137 12.792 129.025 12.904C128.913 13.008 128.769 13.06 128.593 13.06C128.073 13.06 127.665 13.016 127.369 12.928C127.073 12.832 126.857 12.692 126.721 12.508C126.585 12.316 126.493 12.084 126.445 11.812L126.805 11.836C126.677 12.092 126.537 12.3 126.385 12.46C126.241 12.62 126.081 12.744 125.905 12.832C125.729 12.92 125.525 12.98 125.293 13.012C125.061 13.044 124.789 13.06 124.477 13.06ZM126.349 8.368C126.181 8.368 126.037 8.312 125.917 8.2C125.805 8.08 125.749 7.94 125.749 7.78C125.749 7.62 125.805 7.48 125.917 7.36C126.037 7.24 126.181 7.18 126.349 7.18C126.509 7.18 126.645 7.24 126.757 7.36C126.877 7.48 126.937 7.62 126.937 7.78C126.937 7.94 126.877 8.08 126.757 8.2C126.645 8.312 126.509 8.368 126.349 8.368ZM128.59 13.06L128.71 12.076C128.966 12.076 129.174 12.06 129.334 12.028C129.494 11.988 129.626 11.896 129.73 11.752C129.842 11.6 129.946 11.364 130.042 11.044C130.138 10.724 130.25 10.276 130.378 9.7L131.278 9.952C131.246 10.088 131.21 10.244 131.17 10.42C131.13 10.588 131.094 10.764 131.062 10.948C131.03 11.124 131.014 11.288 131.014 11.44C131.014 11.64 131.09 11.796 131.242 11.908C131.394 12.02 131.67 12.076 132.07 12.076C132.31 12.076 132.506 12.056 132.658 12.016C132.81 11.976 132.934 11.88 133.03 11.728C133.134 11.576 133.226 11.332 133.306 10.996C133.386 10.66 133.47 10.2 133.558 9.616L134.47 9.784C134.446 9.928 134.418 10.104 134.386 10.312C134.354 10.52 134.322 10.728 134.29 10.936C134.266 11.136 134.254 11.304 134.254 11.44C134.254 11.552 134.278 11.66 134.326 11.764C134.382 11.86 134.486 11.936 134.638 11.992C134.798 12.048 135.034 12.076 135.346 12.076C135.578 12.076 135.778 12.048 135.946 11.992C136.122 11.936 136.254 11.832 136.342 11.68C136.438 11.528 136.486 11.316 136.486 11.044C136.486 10.74 136.414 10.36 136.27 9.904C136.134 9.44 135.978 8.98 135.802 8.524L136.774 8.164C136.878 8.42 136.974 8.712 137.062 9.04C137.158 9.368 137.238 9.692 137.302 10.012C137.366 10.332 137.398 10.612 137.398 10.852C137.398 11.22 137.35 11.544 137.254 11.824C137.158 12.104 137.022 12.336 136.846 12.52C136.67 12.696 136.454 12.832 136.198 12.928C135.942 13.016 135.654 13.06 135.334 13.06C134.958 13.06 134.65 13.016 134.41 12.928C134.17 12.84 133.986 12.708 133.858 12.532C133.73 12.348 133.646 12.116 133.606 11.836H134.014C133.862 12.18 133.702 12.44 133.534 12.616C133.366 12.792 133.158 12.912 132.91 12.976C132.662 13.032 132.334 13.06 131.926 13.06C131.726 13.06 131.51 13.028 131.278 12.964C131.054 12.9 130.858 12.776 130.69 12.592C130.522 12.4 130.422 12.116 130.39 11.74L130.75 11.668C130.614 12.076 130.446 12.38 130.246 12.58C130.054 12.772 129.822 12.9 129.55 12.964C129.278 13.028 128.958 13.06 128.59 13.06ZM133.762 6.46C133.594 6.46 133.45 6.404 133.33 6.292C133.218 6.172 133.162 6.032 133.162 5.872C133.162 5.712 133.218 5.572 133.33 5.452C133.45 5.332 133.594 5.272 133.762 5.272C133.922 5.272 134.058 5.332 134.17 5.452C134.29 5.572 134.35 5.712 134.35 5.872C134.35 6.032 134.29 6.172 134.17 6.292C134.058 6.404 133.922 6.46 133.762 6.46ZM132.946 7.78C132.778 7.78 132.634 7.724 132.514 7.612C132.402 7.492 132.346 7.352 132.346 7.192C132.346 7.032 132.402 6.892 132.514 6.772C132.634 6.652 132.778 6.592 132.946 6.592C133.106 6.592 133.242 6.652 133.354 6.772C133.474 6.892 133.534 7.032 133.534 7.192C133.534 7.352 133.474 7.492 133.354 7.612C133.242 7.724 133.106 7.78 132.946 7.78ZM134.578 7.78C134.41 7.78 134.266 7.724 134.146 7.612C134.034 7.492 133.978 7.352 133.978 7.192C133.978 7.032 134.034 6.892 134.146 6.772C134.266 6.652 134.41 6.592 134.578 6.592C134.738 6.592 134.874 6.652 134.986 6.772C135.106 6.892 135.166 7.032 135.166 7.192C135.166 7.352 135.106 7.492 134.986 7.612C134.874 7.724 134.738 7.78 134.578 7.78Z" fill="black"/>
</svg>
