<svg width="39" height="12" viewBox="0 0 39 12" fill="none" xmlns="http://www.w3.org/2000/svg">
<path d="M0.168594 9.012C0.168594 8.82 0.184594 8.616 0.216594 8.4C0.256594 8.176 0.312594 7.94 0.384594 7.692C0.464594 7.436 0.560594 7.168 0.672594 6.888L1.53659 7.224C1.45659 7.448 1.38459 7.66 1.32059 7.86C1.26459 8.06 1.22059 8.248 1.18859 8.424C1.16459 8.6 1.15259 8.768 1.15259 8.928C1.15259 9.264 1.22459 9.548 1.36859 9.78C1.52059 10.02 1.72859 10.216 1.99259 10.368C2.25659 10.52 2.55659 10.632 2.89259 10.704C3.23659 10.776 3.60059 10.812 3.98459 10.812C4.44859 10.812 4.88059 10.772 5.28059 10.692C5.68859 10.612 6.04459 10.496 6.34859 10.344C6.66059 10.2 6.90459 10.032 7.08059 9.84C7.25659 9.656 7.34459 9.456 7.34459 9.24C7.34459 9.136 7.30459 9.04 7.22459 8.952C7.14459 8.864 7.02459 8.78 6.86459 8.7C6.70459 8.62 6.51259 8.544 6.28859 8.472C6.06459 8.392 5.80859 8.312 5.52059 8.232L5.74859 7.236C6.16459 7.396 6.53259 7.532 6.85259 7.644C7.17259 7.748 7.45259 7.832 7.69259 7.896C7.93259 7.96 8.14059 8.008 8.31659 8.04C8.49259 8.064 8.64059 8.076 8.76059 8.076C8.92859 8.076 9.04859 8.124 9.12059 8.22C9.20059 8.308 9.24059 8.416 9.24059 8.544C9.24059 8.672 9.18459 8.792 9.07259 8.904C8.96059 9.008 8.81659 9.06 8.64059 9.06C8.59259 9.06 8.54459 9.06 8.49659 9.06C8.44859 9.06 8.39659 9.06 8.34059 9.06C8.29259 9.06 8.24459 9.06 8.19659 9.06C8.21259 9.132 8.22459 9.188 8.23259 9.228C8.24059 9.276 8.24459 9.336 8.24459 9.408C8.24459 9.704 8.14059 9.992 7.93259 10.272C7.73259 10.552 7.43659 10.804 7.04459 11.028C6.65259 11.26 6.17659 11.444 5.61659 11.58C5.06459 11.716 4.43259 11.784 3.72059 11.784C3.08859 11.784 2.50059 11.68 1.95659 11.472C1.42059 11.272 0.988594 10.968 0.660594 10.56C0.332594 10.152 0.168594 9.636 0.168594 9.012ZM8.64453 9.06L8.76453 8.076C9.10053 8.076 9.36453 8.048 9.55653 7.992C9.74853 7.928 9.89253 7.812 9.98853 7.644C10.0925 7.468 10.1805 7.216 10.2525 6.888C10.3245 6.56 10.4125 6.132 10.5165 5.604L11.4525 5.784C11.4205 5.928 11.3845 6.088 11.3445 6.264C11.3045 6.44 11.2685 6.616 11.2365 6.792C11.2125 6.96 11.2005 7.108 11.2005 7.236C11.2005 7.396 11.2365 7.54 11.3085 7.668C11.3805 7.796 11.5365 7.896 11.7765 7.968C12.0165 8.04 12.3845 8.076 12.8805 8.076C13.0485 8.076 13.1685 8.124 13.2405 8.22C13.3205 8.308 13.3605 8.416 13.3605 8.544C13.3605 8.672 13.3045 8.792 13.1925 8.904C13.0805 9.008 12.9365 9.06 12.7605 9.06C12.2405 9.06 11.8325 9.016 11.5365 8.928C11.2405 8.832 11.0245 8.692 10.8885 8.508C10.7525 8.316 10.6605 8.084 10.6125 7.812L10.9725 7.836C10.8445 8.092 10.7045 8.3 10.5525 8.46C10.4085 8.62 10.2485 8.744 10.0725 8.832C9.89653 8.92 9.69253 8.98 9.46053 9.012C9.22853 9.044 8.95653 9.06 8.64453 9.06ZM10.6005 4.62C10.4565 4.62 10.2845 4.616 10.0845 4.608C9.89253 4.592 9.70853 4.576 9.53253 4.56C9.35653 4.544 9.22453 4.532 9.13653 4.524L9.16053 3.828C9.32053 3.844 9.52853 3.864 9.78453 3.888C10.0485 3.912 10.2925 3.924 10.5165 3.924C10.7805 3.924 10.9925 3.908 11.1525 3.876C11.3205 3.836 11.4405 3.78 11.5125 3.708C11.5925 3.636 11.6325 3.556 11.6325 3.468C11.6325 3.356 11.5965 3.276 11.5245 3.228C11.4525 3.18 11.3605 3.156 11.2485 3.156C11.0885 3.156 10.9325 3.212 10.7805 3.324C10.6285 3.428 10.4925 3.548 10.3725 3.684C10.2605 3.812 10.1765 3.916 10.1205 3.996L9.44853 3.948C9.58453 3.684 9.75253 3.44 9.95253 3.216C10.1525 2.984 10.3725 2.8 10.6125 2.664C10.8525 2.52 11.0965 2.448 11.3445 2.448C11.6485 2.448 11.8885 2.54 12.0645 2.724C12.2405 2.908 12.3285 3.136 12.3285 3.408C12.3285 3.568 12.2805 3.744 12.1845 3.936C12.0965 4.12 11.9285 4.28 11.6805 4.416C11.4325 4.552 11.0725 4.62 10.6005 4.62ZM9.77253 3.828L9.70053 1.512H10.3605L10.4565 3.516L9.77253 3.828ZM12.7578 9.06L12.8778 8.076C13.2698 8.076 13.5818 8.052 13.8138 8.004C14.0458 7.956 14.2138 7.86 14.3178 7.716C14.4218 7.564 14.4738 7.34 14.4738 7.044C14.4738 6.844 14.4418 6.608 14.3778 6.336C14.3138 6.056 14.2298 5.76 14.1258 5.448C14.0218 5.136 13.9098 4.828 13.7898 4.524L14.7618 4.164C14.8658 4.42 14.9618 4.712 15.0498 5.04C15.1458 5.368 15.2258 5.692 15.2898 6.012C15.3538 6.332 15.3858 6.612 15.3858 6.852C15.3858 7.172 15.3498 7.456 15.2778 7.704C15.2138 7.944 15.1138 8.152 14.9778 8.328C14.8418 8.496 14.6658 8.636 14.4498 8.748C14.2418 8.852 13.9978 8.932 13.7178 8.988C13.4378 9.036 13.1178 9.06 12.7578 9.06ZM14.2938 2.916C14.1258 2.916 13.9818 2.86 13.8618 2.748C13.7498 2.628 13.6938 2.488 13.6938 2.328C13.6938 2.168 13.7498 2.028 13.8618 1.908C13.9818 1.788 14.1258 1.728 14.2938 1.728C14.4538 1.728 14.5898 1.788 14.7018 1.908C14.8218 2.028 14.8818 2.168 14.8818 2.328C14.8818 2.488 14.8218 2.628 14.7018 2.748C14.5898 2.86 14.4538 2.916 14.2938 2.916ZM16.6765 11.76L16.4605 10.776C16.9405 10.712 17.3805 10.62 17.7805 10.5C18.1885 10.388 18.5365 10.224 18.8245 10.008C19.1205 9.792 19.3485 9.508 19.5085 9.156C19.6685 8.804 19.7485 8.364 19.7485 7.836C19.7485 7.292 19.6485 6.84 19.4485 6.48C19.2485 6.12 18.9885 5.94 18.6685 5.94C18.5005 5.94 18.3445 6.004 18.2005 6.132C18.0565 6.26 17.9365 6.432 17.8405 6.648C17.7525 6.864 17.7085 7.1 17.7085 7.356C17.7085 7.5 17.7405 7.62 17.8045 7.716C17.8685 7.804 17.9605 7.876 18.0805 7.932C18.2085 7.98 18.3685 8.016 18.5605 8.04C18.7525 8.064 18.9765 8.076 19.2325 8.076H21.7645C21.9325 8.076 22.0525 8.124 22.1245 8.22C22.2045 8.308 22.2445 8.416 22.2445 8.544C22.2445 8.672 22.1885 8.792 22.0765 8.904C21.9645 9.008 21.8205 9.06 21.6445 9.06H18.7765C18.4165 9.06 18.0805 9.008 17.7685 8.904C17.4645 8.8 17.2165 8.64 17.0245 8.424C16.8405 8.2 16.7485 7.908 16.7485 7.548C16.7485 7.212 16.8005 6.892 16.9045 6.588C17.0085 6.276 17.1485 6 17.3245 5.76C17.5085 5.512 17.7205 5.316 17.9605 5.172C18.2085 5.028 18.4765 4.956 18.7645 4.956C19.1325 4.956 19.4605 5.064 19.7485 5.28C20.0365 5.496 20.2645 5.824 20.4325 6.264C20.6005 6.696 20.6845 7.244 20.6845 7.908C20.6845 8.652 20.5325 9.292 20.2285 9.828C19.9325 10.372 19.4845 10.804 18.8845 11.124C18.2925 11.444 17.5565 11.656 16.6765 11.76ZM21.6406 9.06L21.7606 8.076C22.1606 8.076 22.4726 8.048 22.6966 7.992C22.9206 7.928 23.0886 7.812 23.2006 7.644C23.3206 7.468 23.4166 7.216 23.4886 6.888C23.5606 6.56 23.6486 6.132 23.7526 5.604L24.6886 5.784C24.6566 5.928 24.6206 6.088 24.5806 6.264C24.5406 6.44 24.5046 6.616 24.4726 6.792C24.4486 6.96 24.4366 7.108 24.4366 7.236C24.4366 7.356 24.4446 7.468 24.4606 7.572C24.4766 7.676 24.5366 7.764 24.6406 7.836C24.7446 7.908 24.9206 7.968 25.1686 8.016C25.4166 8.056 25.7726 8.076 26.2366 8.076C26.4046 8.076 26.5246 8.124 26.5966 8.22C26.6766 8.308 26.7166 8.416 26.7166 8.544C26.7166 8.672 26.6606 8.792 26.5486 8.904C26.4366 9.008 26.2926 9.06 26.1166 9.06C25.6286 9.06 25.2406 9.036 24.9526 8.988C24.6646 8.932 24.4446 8.852 24.2926 8.748C24.1486 8.644 24.0446 8.516 23.9806 8.364C23.9246 8.204 23.8806 8.02 23.8486 7.812L24.2086 7.836C24.0806 8.092 23.9406 8.3 23.7886 8.46C23.6446 8.62 23.4766 8.744 23.2846 8.832C23.0926 8.92 22.8606 8.98 22.5886 9.012C22.3246 9.044 22.0086 9.06 21.6406 9.06ZM24.6646 11.328C24.4966 11.328 24.3526 11.268 24.2326 11.148C24.1206 11.036 24.0646 10.9 24.0646 10.74C24.0646 10.58 24.1206 10.44 24.2326 10.32C24.3526 10.2 24.4966 10.14 24.6646 10.14C24.8246 10.14 24.9606 10.2 25.0726 10.32C25.1926 10.44 25.2526 10.58 25.2526 10.74C25.2526 10.9 25.1926 11.036 25.0726 11.148C24.9606 11.268 24.8246 11.328 24.6646 11.328ZM23.0206 11.328C22.8526 11.328 22.7086 11.268 22.5886 11.148C22.4766 11.036 22.4206 10.9 22.4206 10.74C22.4206 10.58 22.4766 10.44 22.5886 10.32C22.7086 10.2 22.8526 10.14 23.0206 10.14C23.1806 10.14 23.3166 10.2 23.4286 10.32C23.5486 10.44 23.6086 10.58 23.6086 10.74C23.6086 10.9 23.5486 11.036 23.4286 11.148C23.3166 11.268 23.1806 11.328 23.0206 11.328ZM26.1172 9.06L26.2372 8.076C26.4612 8.076 26.6372 8.028 26.7652 7.932C26.9012 7.836 27.0292 7.676 27.1492 7.452C27.2772 7.228 27.4372 6.928 27.6292 6.552C27.8212 6.168 28.0132 5.856 28.2052 5.616C28.4052 5.368 28.5972 5.176 28.7812 5.04C28.9732 4.896 29.1532 4.796 29.3212 4.74C29.4892 4.684 29.6452 4.656 29.7892 4.656C30.0532 4.656 30.2892 4.716 30.4972 4.836C30.7052 4.948 30.9012 5.144 31.0852 5.424C31.2692 5.696 31.4572 6.072 31.6492 6.552C31.8332 6.992 31.9972 7.324 32.1412 7.548C32.2932 7.764 32.4492 7.908 32.6092 7.98C32.7772 8.044 32.9652 8.076 33.1732 8.076C33.3412 8.076 33.4612 8.124 33.5332 8.22C33.6132 8.308 33.6532 8.416 33.6532 8.544C33.6532 8.672 33.5972 8.792 33.4852 8.904C33.3732 9.008 33.2292 9.06 33.0532 9.06C32.7412 9.06 32.4532 9.008 32.1892 8.904C31.9332 8.8 31.7172 8.636 31.5412 8.412L31.7092 8.16C31.6212 8.408 31.5012 8.612 31.3492 8.772C31.2052 8.924 31.0412 9.036 30.8572 9.108C30.6732 9.188 30.4772 9.228 30.2692 9.228C30.0052 9.228 29.7332 9.172 29.4532 9.06C29.1812 8.948 28.9172 8.788 28.6612 8.58C28.4052 8.372 28.1812 8.128 27.9892 7.848C27.7812 8.216 27.5812 8.488 27.3892 8.664C27.2052 8.832 27.0132 8.94 26.8132 8.988C26.6132 9.036 26.3812 9.06 26.1172 9.06ZM28.4452 6.936C28.5812 7.16 28.7252 7.356 28.8772 7.524C29.0372 7.692 29.1972 7.832 29.3572 7.944C29.5172 8.048 29.6732 8.128 29.8252 8.184C29.9852 8.232 30.1292 8.256 30.2572 8.256C30.5372 8.256 30.7412 8.156 30.8692 7.956C31.0052 7.756 31.0012 7.476 30.8572 7.116C30.7852 6.932 30.7092 6.752 30.6292 6.576C30.5572 6.4 30.4772 6.24 30.3892 6.096C30.3012 5.944 30.2012 5.828 30.0892 5.748C29.9772 5.66 29.8532 5.616 29.7172 5.616C29.5972 5.616 29.4692 5.656 29.3332 5.736C29.2052 5.816 29.0652 5.952 28.9132 6.144C28.7692 6.336 28.6132 6.6 28.4452 6.936ZM33.0547 9.06L33.1747 8.076H34.3027C34.7747 8.076 35.1467 8.052 35.4187 8.004C35.6987 7.948 35.9027 7.88 36.0307 7.8C36.1667 7.712 36.2547 7.62 36.2947 7.524C36.3427 7.42 36.3667 7.316 36.3667 7.212C36.3667 7.028 36.2947 6.8 36.1507 6.528C36.0147 6.256 35.7307 5.904 35.2987 5.472C35.0747 5.248 34.8507 5.044 34.6267 4.86C34.4027 4.668 34.1947 4.5 34.0027 4.356C33.8187 4.204 33.6707 4.076 33.5587 3.972C33.4467 3.868 33.3907 3.788 33.3907 3.732C33.3907 3.612 33.3987 3.496 33.4147 3.384C33.4387 3.272 33.4667 3.168 33.4987 3.072C33.5387 2.976 33.5867 2.9 33.6427 2.844C33.8027 2.676 34.0067 2.508 34.2547 2.34C34.5107 2.172 34.8067 1.996 35.1427 1.812C35.4867 1.628 35.8707 1.432 36.2947 1.224C36.7267 1.008 37.1987 0.772 37.7107 0.516L38.1187 1.404C37.4787 1.708 36.9427 1.968 36.5107 2.184C36.0867 2.392 35.7267 2.58 35.4307 2.748C35.1347 2.908 34.8747 3.06 34.6507 3.204C34.4267 3.348 34.1987 3.508 33.9667 3.684L34.1467 3.228C34.6507 3.628 35.0947 4.004 35.4787 4.356C35.8707 4.708 36.1987 5.048 36.4627 5.376C36.7267 5.696 36.9267 6.012 37.0627 6.324C37.1987 6.636 37.2667 6.952 37.2667 7.272C37.2667 7.448 37.2347 7.64 37.1707 7.848C37.1067 8.056 36.9707 8.252 36.7627 8.436C36.5547 8.62 36.2427 8.772 35.8267 8.892C35.4107 9.004 34.8507 9.06 34.1467 9.06H33.0547Z" fill="black"/>
</svg>
