<svg width="102" height="15" viewBox="0 0 102 15" fill="none" xmlns="http://www.w3.org/2000/svg">
<path d="M1.09988 7.544C1.09988 8.424 1.23988 9.284 1.51988 10.124C1.79988 10.956 2.17588 11.7 2.64788 12.356L1.83188 12.884C1.30388 12.172 0.879875 11.356 0.559875 10.436C0.239875 9.516 0.079875 8.552 0.079875 7.544C0.079875 6.536 0.239875 5.572 0.559875 4.652C0.879875 3.732 1.30388 2.916 1.83188 2.204L2.64788 2.732C2.17588 3.388 1.79988 4.136 1.51988 4.976C1.23988 5.808 1.09988 6.664 1.09988 7.544ZM3.81703 11.012C3.81703 10.724 3.85703 10.404 3.93703 10.052C4.01703 9.7 4.14503 9.312 4.32103 8.888L5.18503 9.224C5.05703 9.56 4.96103 9.868 4.89703 10.148C4.83303 10.428 4.80103 10.688 4.80103 10.928C4.80103 11.368 4.90903 11.724 5.12503 11.996C5.34903 12.276 5.64503 12.48 6.01303 12.608C6.38903 12.736 6.80103 12.8 7.24903 12.8C7.79303 12.8 8.24903 12.74 8.61703 12.62C8.98503 12.508 9.27703 12.352 9.49303 12.152C9.70903 11.952 9.86103 11.724 9.94903 11.468C10.045 11.22 10.093 10.96 10.093 10.688C10.093 10.336 10.065 10.004 10.009 9.692C9.96103 9.38 9.89303 9.076 9.80503 8.78C9.72503 8.476 9.63703 8.168 9.54103 7.856L10.513 7.592C10.601 7.896 10.669 8.144 10.717 8.336C10.765 8.52 10.801 8.668 10.825 8.78C10.857 8.892 10.885 8.992 10.909 9.08C10.997 9.376 11.113 9.596 11.257 9.74C11.401 9.876 11.565 9.968 11.749 10.016C11.941 10.056 12.137 10.076 12.337 10.076C12.505 10.076 12.625 10.124 12.697 10.22C12.777 10.308 12.817 10.416 12.817 10.544C12.817 10.672 12.761 10.792 12.649 10.904C12.537 11.008 12.393 11.06 12.217 11.06C11.881 11.06 11.601 11.004 11.377 10.892C11.153 10.772 10.977 10.624 10.849 10.448C10.729 10.272 10.649 10.088 10.609 9.896L11.101 10.508C11.077 10.916 10.997 11.312 10.861 11.696C10.733 12.088 10.525 12.44 10.237 12.752C9.94903 13.072 9.55703 13.324 9.06103 13.508C8.57303 13.692 7.95703 13.784 7.21303 13.784C6.75703 13.784 6.32503 13.728 5.91703 13.616C5.50903 13.504 5.14503 13.332 4.82503 13.1C4.51303 12.876 4.26503 12.588 4.08103 12.236C3.90503 11.892 3.81703 11.484 3.81703 11.012ZM7.44103 6.224C7.27303 6.224 7.12903 6.168 7.00903 6.056C6.89703 5.936 6.84103 5.796 6.84103 5.636C6.84103 5.476 6.89703 5.336 7.00903 5.216C7.12903 5.096 7.27303 5.036 7.44103 5.036C7.60103 5.036 7.73703 5.096 7.84903 5.216C7.96903 5.336 8.02903 5.476 8.02903 5.636C8.02903 5.796 7.96903 5.936 7.84903 6.056C7.73703 6.168 7.60103 6.224 7.44103 6.224ZM12.2227 11.06L12.3427 10.076H14.8507C15.5467 10.076 16.1467 10.048 16.6507 9.992C17.1627 9.928 17.5827 9.836 17.9107 9.716C18.2387 9.596 18.4827 9.444 18.6427 9.26C18.8027 9.068 18.8827 8.844 18.8827 8.588C18.8827 8.452 18.8387 8.304 18.7507 8.144C18.6627 7.984 18.5267 7.848 18.3427 7.736C18.1587 7.616 17.9147 7.556 17.6107 7.556C17.2267 7.556 16.8427 7.656 16.4587 7.856C16.0827 8.056 15.7227 8.308 15.3787 8.612C15.0427 8.908 14.7427 9.212 14.4787 9.524C14.2147 9.836 14.0027 10.108 13.8427 10.34L12.7987 10.304C13.0547 9.888 13.3587 9.464 13.7107 9.032C14.0707 8.592 14.4627 8.188 14.8867 7.82C15.3187 7.444 15.7707 7.144 16.2427 6.92C16.7147 6.688 17.1947 6.572 17.6827 6.572C18.1227 6.572 18.4987 6.664 18.8107 6.848C19.1307 7.024 19.3747 7.264 19.5427 7.568C19.7187 7.872 19.8067 8.216 19.8067 8.6C19.8067 8.976 19.6707 9.356 19.3987 9.74C19.1267 10.116 18.6587 10.412 17.9947 10.628C17.6587 10.74 17.2747 10.828 16.8427 10.892C16.4107 10.956 15.9187 11 15.3667 11.024C14.8147 11.048 14.1867 11.06 13.4827 11.06H12.2227ZM13.3627 9.872L13.1227 2.432H14.0947L14.3347 9.032L13.3627 9.872ZM21.0398 13.76L20.8238 12.776C21.3038 12.712 21.7438 12.62 22.1438 12.5C22.5518 12.388 22.8998 12.224 23.1878 12.008C23.4838 11.792 23.7118 11.508 23.8717 11.156C24.0318 10.804 24.1118 10.364 24.1118 9.836C24.1118 9.588 24.0878 9.352 24.0398 9.128C23.9918 8.896 23.9198 8.692 23.8238 8.516C23.7278 8.34 23.6118 8.2 23.4758 8.096C23.3478 7.992 23.1998 7.94 23.0318 7.94C22.8478 7.94 22.6798 8.012 22.5278 8.156C22.3838 8.292 22.2678 8.468 22.1798 8.684C22.0998 8.9 22.0598 9.116 22.0598 9.332C22.0598 9.5 22.0918 9.648 22.1558 9.776C22.2278 9.896 22.3438 9.988 22.5038 10.052C22.6638 10.116 22.8718 10.148 23.1278 10.148C23.3598 10.148 23.5918 10.124 23.8238 10.076C24.0638 10.028 24.2678 9.964 24.4358 9.884L24.4838 10.724C24.2918 10.86 24.0638 10.956 23.7998 11.012C23.5438 11.068 23.2838 11.096 23.0198 11.096C22.7158 11.096 22.4438 11.064 22.2038 11C21.9718 10.936 21.7718 10.844 21.6038 10.724C21.4438 10.596 21.3198 10.436 21.2318 10.244C21.1518 10.052 21.1118 9.828 21.1118 9.572C21.1118 9.268 21.1598 8.964 21.2558 8.66C21.3518 8.348 21.4878 8.064 21.6638 7.808C21.8398 7.552 22.0518 7.348 22.2998 7.196C22.5478 7.036 22.8238 6.956 23.1278 6.956C23.4478 6.956 23.7278 7.04 23.9678 7.208C24.2078 7.368 24.4078 7.588 24.5678 7.868C24.7278 8.148 24.8478 8.464 24.9278 8.816C25.0078 9.168 25.0478 9.532 25.0478 9.908C25.0478 10.652 24.8958 11.292 24.5918 11.828C24.2958 12.372 23.8478 12.804 23.2478 13.124C22.6558 13.444 21.9198 13.656 21.0398 13.76ZM29.0709 11.012C29.0709 10.82 29.0869 10.616 29.1189 10.4C29.1589 10.176 29.2149 9.94 29.2869 9.692C29.3669 9.436 29.4629 9.168 29.5749 8.888L30.4389 9.224C30.3589 9.448 30.2869 9.66 30.2229 9.86C30.1669 10.06 30.1229 10.248 30.0909 10.424C30.0669 10.6 30.0549 10.768 30.0549 10.928C30.0549 11.264 30.1269 11.548 30.2709 11.78C30.4229 12.02 30.6309 12.216 30.8949 12.368C31.1589 12.52 31.4589 12.632 31.7949 12.704C32.1389 12.776 32.5029 12.812 32.8869 12.812C33.3509 12.812 33.7829 12.772 34.1829 12.692C34.5909 12.612 34.9469 12.496 35.2509 12.344C35.5629 12.2 35.8069 12.032 35.9829 11.84C36.1589 11.656 36.2469 11.456 36.2469 11.24C36.2469 11.136 36.2069 11.04 36.1269 10.952C36.0469 10.864 35.9269 10.78 35.7669 10.7C35.6069 10.62 35.4149 10.544 35.1909 10.472C34.9669 10.392 34.7109 10.312 34.4229 10.232L34.6509 9.236C35.0669 9.396 35.4349 9.532 35.7549 9.644C36.0749 9.748 36.3549 9.832 36.5949 9.896C36.8349 9.96 37.0429 10.008 37.2189 10.04C37.3949 10.064 37.5429 10.076 37.6629 10.076C37.8309 10.076 37.9509 10.124 38.0229 10.22C38.1029 10.308 38.1429 10.416 38.1429 10.544C38.1429 10.672 38.0869 10.792 37.9749 10.904C37.8629 11.008 37.7189 11.06 37.5429 11.06C37.4949 11.06 37.4469 11.06 37.3989 11.06C37.3509 11.06 37.2989 11.06 37.2429 11.06C37.1949 11.06 37.1469 11.06 37.0989 11.06C37.1149 11.132 37.1269 11.188 37.1349 11.228C37.1429 11.276 37.1469 11.336 37.1469 11.408C37.1469 11.704 37.0429 11.992 36.8349 12.272C36.6349 12.552 36.3389 12.804 35.9469 13.028C35.5549 13.26 35.0789 13.444 34.5189 13.58C33.9669 13.716 33.3349 13.784 32.6229 13.784C31.9909 13.784 31.4029 13.68 30.8589 13.472C30.3229 13.272 29.8909 12.968 29.5629 12.56C29.2349 12.152 29.0709 11.636 29.0709 11.012ZM37.5469 11.06L37.6669 10.076C38.0589 10.076 38.3709 10.052 38.6029 10.004C38.8349 9.956 39.0029 9.86 39.1069 9.716C39.2109 9.564 39.2629 9.34 39.2629 9.044C39.2629 8.844 39.2309 8.608 39.1669 8.336C39.1029 8.056 39.0189 7.76 38.9149 7.448C38.8109 7.136 38.6989 6.828 38.5789 6.524L39.5509 6.164C39.6549 6.42 39.7509 6.712 39.8389 7.04C39.9349 7.368 40.0149 7.692 40.0789 8.012C40.1429 8.332 40.1749 8.612 40.1749 8.852C40.1749 9.172 40.1389 9.456 40.0669 9.704C40.0029 9.944 39.9029 10.152 39.7669 10.328C39.6309 10.496 39.4549 10.636 39.2389 10.748C39.0309 10.852 38.7869 10.932 38.5069 10.988C38.2269 11.036 37.9069 11.06 37.5469 11.06ZM37.9909 4.832L37.8469 4.184C38.0549 4.136 38.2229 4.096 38.3509 4.064C38.4789 4.032 38.6229 3.996 38.7829 3.956L38.7229 4.208C38.5149 4.144 38.3149 4.008 38.1229 3.8C37.9389 3.592 37.8469 3.356 37.8469 3.092C37.8469 2.852 37.9029 2.652 38.0149 2.492C38.1349 2.324 38.2869 2.2 38.4709 2.12C38.6629 2.04 38.8669 2 39.0829 2C39.1709 2 39.2629 2.008 39.3589 2.024C39.4629 2.04 39.5589 2.064 39.6469 2.096L39.5509 2.696C39.4709 2.68 39.3949 2.664 39.3229 2.648C39.2509 2.632 39.1709 2.624 39.0829 2.624C38.8989 2.624 38.7549 2.664 38.6509 2.744C38.5469 2.816 38.4949 2.92 38.4949 3.056C38.4949 3.224 38.5469 3.368 38.6509 3.488C38.7629 3.608 38.8869 3.704 39.0229 3.776C39.1669 3.84 39.2829 3.872 39.3709 3.872L38.8789 3.92C39.0949 3.864 39.2949 3.808 39.4789 3.752C39.6709 3.688 39.8429 3.628 39.9949 3.572L40.1869 4.184C39.9949 4.256 39.7669 4.332 39.5029 4.412C39.2469 4.492 38.9869 4.568 38.7229 4.64C38.4589 4.712 38.2149 4.776 37.9909 4.832ZM44.2615 11.06C43.6215 11.06 43.1295 10.988 42.7855 10.844C42.4495 10.7 42.2175 10.476 42.0895 10.172C41.9615 9.868 41.8895 9.476 41.8735 8.996L41.6335 2.432H42.6175L42.8575 8.612C42.8735 9.004 42.9095 9.308 42.9655 9.524C43.0295 9.732 43.1655 9.876 43.3735 9.956C43.5895 10.036 43.9255 10.076 44.3815 10.076C44.5495 10.076 44.6695 10.124 44.7415 10.22C44.8215 10.308 44.8615 10.416 44.8615 10.544C44.8615 10.672 44.8055 10.792 44.6935 10.904C44.5815 11.008 44.4375 11.06 44.2615 11.06ZM44.2617 11.06L44.3817 10.076C44.7737 10.076 45.0857 10.052 45.3177 10.004C45.5497 9.956 45.7177 9.86 45.8217 9.716C45.9257 9.564 45.9777 9.34 45.9777 9.044C45.9777 8.844 45.9457 8.608 45.8817 8.336C45.8177 8.056 45.7337 7.76 45.6297 7.448C45.5257 7.136 45.4137 6.828 45.2937 6.524L46.2657 6.164C46.3697 6.42 46.4657 6.712 46.5537 7.04C46.6497 7.368 46.7297 7.692 46.7937 8.012C46.8577 8.332 46.8897 8.612 46.8897 8.852C46.8897 9.172 46.8537 9.456 46.7817 9.704C46.7177 9.944 46.6177 10.152 46.4817 10.328C46.3457 10.496 46.1697 10.636 45.9537 10.748C45.7457 10.852 45.5017 10.932 45.2217 10.988C44.9417 11.036 44.6217 11.06 44.2617 11.06ZM45.5457 13.292C45.3777 13.292 45.2337 13.232 45.1137 13.112C45.0017 13 44.9457 12.864 44.9457 12.704C44.9457 12.544 45.0017 12.404 45.1137 12.284C45.2337 12.164 45.3777 12.104 45.5457 12.104C45.7057 12.104 45.8417 12.164 45.9537 12.284C46.0737 12.404 46.1337 12.544 46.1337 12.704C46.1337 12.864 46.0737 13 45.9537 13.112C45.8417 13.232 45.7057 13.292 45.5457 13.292ZM48.5524 11L48.3484 3.272H49.3204L49.5244 11H48.5524ZM49.6324 2.108C49.3924 2.108 49.1764 2.068 48.9844 1.988C48.7924 1.9 48.6164 1.816 48.4564 1.736C48.2964 1.656 48.1484 1.616 48.0124 1.616C47.8684 1.616 47.7364 1.652 47.6164 1.724C47.5044 1.796 47.3844 1.896 47.2564 2.024L46.8004 1.64C46.9844 1.408 47.1764 1.228 47.3764 1.1C47.5764 0.963999 47.7884 0.895999 48.0124 0.895999C48.2124 0.895999 48.3964 0.935999 48.5644 1.016C48.7324 1.096 48.9004 1.176 49.0684 1.256C49.2444 1.336 49.4324 1.376 49.6324 1.376C49.7604 1.376 49.8804 1.356 49.9924 1.316C50.1044 1.268 50.2404 1.196 50.4004 1.1L50.7484 1.592C50.4924 1.816 50.2724 1.96 50.0884 2.024C49.9124 2.08 49.7604 2.108 49.6324 2.108ZM52.6606 7.544C52.6606 6.664 52.5206 5.808 52.2406 4.976C51.9606 4.136 51.5846 3.388 51.1126 2.732L51.9286 2.204C52.4566 2.916 52.8806 3.732 53.2006 4.652C53.5206 5.572 53.6806 6.536 53.6806 7.544C53.6806 8.552 53.5206 9.516 53.2006 10.436C52.8806 11.356 52.4566 12.172 51.9286 12.884L51.1126 12.356C51.5846 11.7 51.9606 10.956 52.2406 10.124C52.5206 9.284 52.6606 8.424 52.6606 7.544ZM62.8418 11.06C62.3858 11.06 62.0178 10.992 61.7378 10.856C61.4658 10.72 61.2418 10.532 61.0658 10.292C60.8978 10.044 60.7498 9.752 60.6217 9.416C60.4938 9.08 60.3578 8.716 60.2138 8.324C60.1818 8.22 60.1058 8.148 59.9858 8.108C59.8658 8.068 59.7378 8.048 59.6018 8.048C59.3938 8.048 59.1858 8.092 58.9778 8.18C58.7778 8.268 58.6098 8.4 58.4738 8.576C58.3458 8.752 58.2818 8.968 58.2818 9.224C58.2818 9.448 58.3138 9.664 58.3778 9.872C58.4498 10.072 58.5298 10.3 58.6178 10.556L57.7538 10.796C57.6898 10.612 57.6218 10.436 57.5498 10.268C57.4858 10.1 57.4338 9.924 57.3938 9.74C57.3538 9.556 57.3338 9.352 57.3338 9.128C57.3338 8.8 57.4058 8.508 57.5498 8.252C57.6938 7.996 57.8858 7.78 58.1258 7.604C58.3658 7.428 58.6298 7.296 58.9178 7.208C59.2058 7.112 59.4898 7.064 59.7698 7.064C59.9058 7.064 60.0498 7.076 60.2018 7.1C60.3618 7.124 60.5058 7.184 60.6338 7.28C60.7698 7.368 60.8698 7.512 60.9338 7.712C61.0618 8.072 61.1738 8.4 61.2698 8.696C61.3738 8.984 61.4898 9.232 61.6178 9.44C61.7458 9.648 61.9138 9.808 62.1218 9.92C62.3378 10.024 62.6178 10.076 62.9618 10.076C63.1298 10.076 63.2498 10.124 63.3218 10.22C63.4018 10.308 63.4418 10.416 63.4418 10.544C63.4418 10.672 63.3858 10.792 63.2738 10.904C63.1618 11.008 63.0178 11.06 62.8418 11.06ZM62.8359 11.06L62.9559 10.076C63.3559 10.076 63.6679 10.048 63.8919 9.992C64.1159 9.928 64.2839 9.812 64.3959 9.644C64.5159 9.468 64.6119 9.216 64.6839 8.888C64.7559 8.56 64.8439 8.132 64.9479 7.604L65.8839 7.784C65.8519 7.928 65.8159 8.088 65.7759 8.264C65.7359 8.44 65.6999 8.616 65.6679 8.792C65.6439 8.96 65.6319 9.108 65.6319 9.236C65.6319 9.356 65.6399 9.468 65.6559 9.572C65.6719 9.676 65.7319 9.764 65.8359 9.836C65.9399 9.908 66.1159 9.968 66.3639 10.016C66.6119 10.056 66.9679 10.076 67.4319 10.076C67.5999 10.076 67.7199 10.124 67.7919 10.22C67.8719 10.308 67.9119 10.416 67.9119 10.544C67.9119 10.672 67.8559 10.792 67.7439 10.904C67.6319 11.008 67.4879 11.06 67.3119 11.06C66.8239 11.06 66.4359 11.036 66.1479 10.988C65.8599 10.932 65.6399 10.852 65.4879 10.748C65.3439 10.644 65.2399 10.516 65.1759 10.364C65.1199 10.204 65.0759 10.02 65.0439 9.812L65.4039 9.836C65.2759 10.092 65.1359 10.3 64.9839 10.46C64.8399 10.62 64.6719 10.744 64.4799 10.832C64.2879 10.92 64.0559 10.98 63.7839 11.012C63.5199 11.044 63.2039 11.06 62.8359 11.06ZM66.0399 6.368C65.8719 6.368 65.7279 6.312 65.6079 6.2C65.4959 6.08 65.4399 5.94 65.4399 5.78C65.4399 5.62 65.4959 5.48 65.6079 5.36C65.7279 5.24 65.8719 5.18 66.0399 5.18C66.1999 5.18 66.3359 5.24 66.4479 5.36C66.5679 5.48 66.6279 5.62 66.6279 5.78C66.6279 5.94 66.5679 6.08 66.4479 6.2C66.3359 6.312 66.1999 6.368 66.0399 6.368ZM64.3959 6.368C64.2279 6.368 64.0839 6.312 63.9639 6.2C63.8519 6.08 63.7959 5.94 63.7959 5.78C63.7959 5.62 63.8519 5.48 63.9639 5.36C64.0839 5.24 64.2279 5.18 64.3959 5.18C64.5559 5.18 64.6919 5.24 64.8039 5.36C64.9239 5.48 64.9839 5.62 64.9839 5.78C64.9839 5.94 64.9239 6.08 64.8039 6.2C64.6919 6.312 64.5559 6.368 64.3959 6.368ZM67.3125 11.06L67.4325 10.076C67.9045 10.076 68.2725 10.06 68.5365 10.028C68.8005 9.988 68.9885 9.896 69.1005 9.752C69.2125 9.6 69.2685 9.364 69.2685 9.044C69.2685 8.844 69.2365 8.608 69.1725 8.336C69.1085 8.056 69.0245 7.76 68.9205 7.448C68.8165 7.136 68.7045 6.828 68.5845 6.524L69.5565 6.164C69.6605 6.42 69.7565 6.712 69.8445 7.04C69.9405 7.368 70.0205 7.692 70.0845 8.012C70.1485 8.332 70.1805 8.612 70.1805 8.852C70.1805 9.252 70.1245 9.592 70.0125 9.872C69.9085 10.152 69.7405 10.38 69.5085 10.556C69.2765 10.732 68.9765 10.86 68.6085 10.94C68.2485 11.02 67.8165 11.06 67.3125 11.06ZM68.6565 14.66C68.4965 14.66 68.3565 14.6 68.2365 14.48C68.1245 14.36 68.0685 14.22 68.0685 14.06C68.0685 13.9 68.1245 13.76 68.2365 13.64C68.3565 13.528 68.4965 13.472 68.6565 13.472C68.8245 13.472 68.9645 13.528 69.0765 13.64C69.1965 13.76 69.2565 13.9 69.2565 14.06C69.2565 14.22 69.1965 14.36 69.0765 14.48C68.9645 14.6 68.8245 14.66 68.6565 14.66ZM69.4725 13.34C69.3125 13.34 69.1725 13.28 69.0525 13.16C68.9405 13.04 68.8845 12.9 68.8845 12.74C68.8845 12.58 68.9405 12.44 69.0525 12.32C69.1725 12.208 69.3125 12.152 69.4725 12.152C69.6405 12.152 69.7805 12.208 69.8925 12.32C70.0125 12.44 70.0725 12.58 70.0725 12.74C70.0725 12.9 70.0125 13.04 69.8925 13.16C69.7805 13.28 69.6405 13.34 69.4725 13.34ZM67.8405 13.34C67.6805 13.34 67.5405 13.28 67.4205 13.16C67.3085 13.04 67.2525 12.9 67.2525 12.74C67.2525 12.58 67.3085 12.44 67.4205 12.32C67.5405 12.208 67.6805 12.152 67.8405 12.152C68.0085 12.152 68.1485 12.208 68.2605 12.32C68.3805 12.44 68.4405 12.58 68.4405 12.74C68.4405 12.9 68.3805 13.04 68.2605 13.16C68.1485 13.28 68.0085 13.34 67.8405 13.34ZM74.2584 11.012C74.2584 10.82 74.2744 10.616 74.3064 10.4C74.3464 10.176 74.4024 9.94 74.4744 9.692C74.5544 9.436 74.6504 9.168 74.7624 8.888L75.6264 9.224C75.5464 9.448 75.4744 9.66 75.4104 9.86C75.3544 10.06 75.3104 10.248 75.2784 10.424C75.2544 10.6 75.2424 10.768 75.2424 10.928C75.2424 11.336 75.3504 11.68 75.5664 11.96C75.7824 12.24 76.0624 12.448 76.4064 12.584C76.7584 12.728 77.1344 12.8 77.5344 12.8C78.3184 12.8 78.9304 12.66 79.3704 12.38C79.8104 12.108 80.1184 11.744 80.2944 11.288C80.4704 10.84 80.5464 10.348 80.5224 9.812L80.2584 2.432H81.2544L81.4464 8.516C81.4624 8.924 81.5264 9.244 81.6384 9.476C81.7584 9.7 81.9184 9.856 82.1184 9.944C82.3184 10.032 82.5384 10.076 82.7784 10.076C82.9464 10.076 83.0664 10.124 83.1384 10.22C83.2184 10.308 83.2584 10.416 83.2584 10.544C83.2584 10.672 83.2024 10.792 83.0904 10.904C82.9784 11.008 82.8344 11.06 82.6584 11.06C82.4104 11.06 82.1984 11.028 82.0224 10.964C81.8464 10.892 81.7024 10.804 81.5904 10.7C81.4784 10.588 81.3904 10.464 81.3264 10.328C81.2624 10.184 81.2144 10.04 81.1824 9.896L81.5184 10.232C81.4864 10.656 81.3944 11.076 81.2424 11.492C81.0984 11.916 80.8744 12.3 80.5704 12.644C80.2664 12.988 79.8584 13.264 79.3464 13.472C78.8424 13.68 78.2184 13.784 77.4744 13.784C77.0584 13.784 76.6544 13.72 76.2624 13.592C75.8784 13.472 75.5344 13.292 75.2304 13.052C74.9344 12.812 74.6984 12.52 74.5224 12.176C74.3464 11.84 74.2584 11.452 74.2584 11.012ZM82.6641 11.06L82.7841 10.076C83.0081 10.076 83.1841 10.028 83.3121 9.932C83.4481 9.836 83.5761 9.676 83.6961 9.452C83.8241 9.228 83.9841 8.928 84.1761 8.552C84.3681 8.168 84.5601 7.856 84.7521 7.616C84.9521 7.368 85.1441 7.176 85.3281 7.04C85.5201 6.896 85.7001 6.796 85.8681 6.74C86.0361 6.684 86.1921 6.656 86.3361 6.656C86.6001 6.656 86.8361 6.716 87.0441 6.836C87.2521 6.948 87.4481 7.144 87.6321 7.424C87.8161 7.696 88.0041 8.072 88.1961 8.552C88.3801 8.992 88.5441 9.324 88.6881 9.548C88.8401 9.764 88.9961 9.908 89.1561 9.98C89.3241 10.044 89.5121 10.076 89.7201 10.076C89.8881 10.076 90.0081 10.124 90.0801 10.22C90.1601 10.308 90.2001 10.416 90.2001 10.544C90.2001 10.672 90.1441 10.792 90.0321 10.904C89.9201 11.008 89.7761 11.06 89.6001 11.06C89.2881 11.06 89.0001 11.008 88.7361 10.904C88.4801 10.8 88.2641 10.636 88.0881 10.412L88.2561 10.16C88.1681 10.408 88.0481 10.612 87.8961 10.772C87.7521 10.924 87.5881 11.036 87.4041 11.108C87.2201 11.188 87.0241 11.228 86.8161 11.228C86.5521 11.228 86.2801 11.172 86.0001 11.06C85.7281 10.948 85.4641 10.788 85.2081 10.58C84.9521 10.372 84.7281 10.128 84.5361 9.848C84.3281 10.216 84.1281 10.488 83.9361 10.664C83.7521 10.832 83.5601 10.94 83.3601 10.988C83.1601 11.036 82.9281 11.06 82.6641 11.06ZM84.9921 8.936C85.1281 9.16 85.2721 9.356 85.4241 9.524C85.5841 9.692 85.7441 9.832 85.9041 9.944C86.0641 10.048 86.2201 10.128 86.3721 10.184C86.5321 10.232 86.6761 10.256 86.8041 10.256C87.0841 10.256 87.2881 10.156 87.4161 9.956C87.5521 9.756 87.5481 9.476 87.4041 9.116C87.3321 8.932 87.2561 8.752 87.1761 8.576C87.1041 8.4 87.0241 8.24 86.9361 8.096C86.8481 7.944 86.7481 7.828 86.6361 7.748C86.5241 7.66 86.4001 7.616 86.2641 7.616C86.1441 7.616 86.0161 7.656 85.8801 7.736C85.7521 7.816 85.6121 7.952 85.4601 8.144C85.3161 8.336 85.1601 8.6 84.9921 8.936ZM89.6016 11.06L89.7216 10.076H90.6456C91.3096 10.076 91.8016 10.04 92.1216 9.968C92.4416 9.896 92.6496 9.8 92.7456 9.68C92.8496 9.56 92.9016 9.436 92.9016 9.308C92.9016 9.116 92.8296 8.904 92.6856 8.672C92.5416 8.44 92.3576 8.204 92.1336 7.964C91.9096 7.716 91.6696 7.472 91.4136 7.232C91.1656 6.992 90.9296 6.772 90.7056 6.572C90.4816 6.372 90.2976 6.2 90.1536 6.056C90.0096 5.904 89.9376 5.796 89.9376 5.732C89.9376 5.612 89.9456 5.496 89.9616 5.384C89.9856 5.272 90.0136 5.168 90.0456 5.072C90.0856 4.976 90.1336 4.9 90.1896 4.844C90.3496 4.676 90.5696 4.5 90.8496 4.316C91.1296 4.124 91.4536 3.932 91.8216 3.74C92.1896 3.54 92.5816 3.34 92.9976 3.14C93.4136 2.932 93.8336 2.724 94.2576 2.516L94.6656 3.404C94.2816 3.596 93.8976 3.788 93.5136 3.98C93.1296 4.164 92.7576 4.348 92.3976 4.532C92.0376 4.716 91.6976 4.904 91.3776 5.096C91.0656 5.28 90.7816 5.468 90.5256 5.66L90.5976 5.252C90.9576 5.556 91.2976 5.848 91.6176 6.128C91.9376 6.408 92.2416 6.696 92.5296 6.992C92.8176 7.28 93.0856 7.592 93.3336 7.928C93.5816 8.264 93.8136 8.636 94.0296 9.044C94.1976 9.356 94.3936 9.584 94.6176 9.728C94.8416 9.872 95.0616 9.968 95.2776 10.016C95.5016 10.056 95.6816 10.076 95.8176 10.076C95.9856 10.076 96.1056 10.124 96.1776 10.22C96.2576 10.308 96.2976 10.416 96.2976 10.544C96.2976 10.672 96.2416 10.792 96.1296 10.904C96.0176 11.008 95.8736 11.06 95.6976 11.06C95.4816 11.06 95.2256 11.028 94.9296 10.964C94.6416 10.892 94.3576 10.756 94.0776 10.556C93.7976 10.356 93.5656 10.052 93.3816 9.644L93.7416 9.788C93.6216 10.004 93.4816 10.192 93.3216 10.352C93.1696 10.504 92.9736 10.636 92.7336 10.748C92.4936 10.852 92.2016 10.932 91.8576 10.988C91.5136 11.036 91.0936 11.06 90.5976 11.06H89.6016ZM95.6953 11.06L95.8153 10.076C96.0393 10.076 96.2273 10.028 96.3793 9.932C96.5313 9.836 96.6793 9.676 96.8233 9.452C96.9673 9.228 97.1233 8.928 97.2913 8.552C97.5233 8.04 97.7513 7.652 97.9753 7.388C98.2073 7.124 98.4353 6.944 98.6593 6.848C98.8913 6.752 99.1193 6.704 99.3433 6.704C99.6153 6.704 99.8673 6.776 100.099 6.92C100.331 7.056 100.535 7.24 100.711 7.472C100.887 7.704 101.023 7.96 101.119 8.24C101.223 8.512 101.275 8.784 101.275 9.056C101.275 9.536 101.191 9.92 101.023 10.208C100.855 10.488 100.639 10.692 100.375 10.82C100.119 10.94 99.8513 11 99.5713 11C99.3233 11 99.0033 10.952 98.6113 10.856C98.2273 10.76 97.7393 10.516 97.1473 10.124L97.6153 9.368C98.0073 9.616 98.3593 9.788 98.6713 9.884C98.9913 9.972 99.2553 10.016 99.4633 10.016C99.6953 10.016 99.8793 9.984 100.015 9.92C100.151 9.848 100.251 9.748 100.315 9.62C100.379 9.492 100.411 9.348 100.411 9.188C100.411 8.956 100.355 8.724 100.243 8.492C100.131 8.26 99.9873 8.068 99.8113 7.916C99.6433 7.764 99.4633 7.688 99.2713 7.688C99.1273 7.688 98.9873 7.728 98.8513 7.808C98.7153 7.888 98.5753 8.036 98.4313 8.252C98.2873 8.468 98.1233 8.78 97.9393 9.188C97.7473 9.62 97.5633 9.964 97.3873 10.22C97.2193 10.468 97.0473 10.652 96.8713 10.772C96.6953 10.892 96.5113 10.968 96.3193 11C96.1353 11.04 95.9273 11.06 95.6953 11.06Z" fill="black"/>
</svg>
