<svg width="45" height="13" viewBox="0 0 45 13" fill="none" xmlns="http://www.w3.org/2000/svg">
<path d="M5.84175 9.06C5.38575 9.06 5.01775 8.992 4.73775 8.856C4.46575 8.72 4.24175 8.532 4.06575 8.292C3.89775 8.044 3.74975 7.752 3.62175 7.416C3.49375 7.08 3.35775 6.716 3.21375 6.324C3.18175 6.22 3.10575 6.148 2.98575 6.108C2.86575 6.068 2.73775 6.048 2.60175 6.048C2.39375 6.048 2.18575 6.092 1.97775 6.18C1.77775 6.268 1.60975 6.4 1.47375 6.576C1.34575 6.752 1.28175 6.968 1.28175 7.224C1.28175 7.448 1.31375 7.664 1.37775 7.872C1.44975 8.072 1.52975 8.3 1.61775 8.556L0.75375 8.796C0.68975 8.612 0.62175 8.436 0.54975 8.268C0.48575 8.1 0.43375 7.924 0.39375 7.74C0.35375 7.556 0.33375 7.352 0.33375 7.128C0.33375 6.8 0.40575 6.508 0.54975 6.252C0.69375 5.996 0.88575 5.78 1.12575 5.604C1.36575 5.428 1.62975 5.296 1.91775 5.208C2.20575 5.112 2.48975 5.064 2.76975 5.064C2.90575 5.064 3.04975 5.076 3.20175 5.1C3.36175 5.124 3.50575 5.184 3.63375 5.28C3.76975 5.368 3.86975 5.512 3.93375 5.712C4.06175 6.072 4.17375 6.4 4.26975 6.696C4.37375 6.984 4.48975 7.232 4.61775 7.44C4.74575 7.648 4.91375 7.808 5.12175 7.92C5.33775 8.024 5.61775 8.076 5.96175 8.076C6.12975 8.076 6.24975 8.124 6.32175 8.22C6.40175 8.308 6.44175 8.416 6.44175 8.544C6.44175 8.672 6.38575 8.792 6.27375 8.904C6.16175 9.008 6.01775 9.06 5.84175 9.06ZM5.83594 9.06L5.95594 8.076C6.35594 8.076 6.66794 8.048 6.89194 7.992C7.11594 7.928 7.28394 7.812 7.39594 7.644C7.51594 7.468 7.61194 7.216 7.68394 6.888C7.75594 6.56 7.84394 6.132 7.94794 5.604L8.88394 5.784C8.85194 5.928 8.81594 6.088 8.77594 6.264C8.73594 6.44 8.69994 6.616 8.66794 6.792C8.64394 6.96 8.63194 7.108 8.63194 7.236C8.63194 7.356 8.63994 7.468 8.65594 7.572C8.67194 7.676 8.73194 7.764 8.83594 7.836C8.93994 7.908 9.11594 7.968 9.36394 8.016C9.61194 8.056 9.96794 8.076 10.4319 8.076C10.5999 8.076 10.7199 8.124 10.7919 8.22C10.8719 8.308 10.9119 8.416 10.9119 8.544C10.9119 8.672 10.8559 8.792 10.7439 8.904C10.6319 9.008 10.4879 9.06 10.3119 9.06C9.82394 9.06 9.43594 9.036 9.14794 8.988C8.85994 8.932 8.63994 8.852 8.48794 8.748C8.34394 8.644 8.23994 8.516 8.17594 8.364C8.11994 8.204 8.07594 8.02 8.04394 7.812L8.40394 7.836C8.27594 8.092 8.13594 8.3 7.98394 8.46C7.83994 8.62 7.67194 8.744 7.47994 8.832C7.28794 8.92 7.05594 8.98 6.78394 9.012C6.51994 9.044 6.20394 9.06 5.83594 9.06ZM9.03994 4.368C8.87194 4.368 8.72794 4.312 8.60794 4.2C8.49594 4.08 8.43994 3.94 8.43994 3.78C8.43994 3.62 8.49594 3.48 8.60794 3.36C8.72794 3.24 8.87194 3.18 9.03994 3.18C9.19994 3.18 9.33594 3.24 9.44794 3.36C9.56794 3.48 9.62794 3.62 9.62794 3.78C9.62794 3.94 9.56794 4.08 9.44794 4.2C9.33594 4.312 9.19994 4.368 9.03994 4.368ZM7.39594 4.368C7.22794 4.368 7.08394 4.312 6.96394 4.2C6.85194 4.08 6.79594 3.94 6.79594 3.78C6.79594 3.62 6.85194 3.48 6.96394 3.36C7.08394 3.24 7.22794 3.18 7.39594 3.18C7.55594 3.18 7.69194 3.24 7.80394 3.36C7.92394 3.48 7.98394 3.62 7.98394 3.78C7.98394 3.94 7.92394 4.08 7.80394 4.2C7.69194 4.312 7.55594 4.368 7.39594 4.368ZM10.3125 9.06L10.4325 8.076C10.9045 8.076 11.2725 8.06 11.5365 8.028C11.8005 7.988 11.9885 7.896 12.1005 7.752C12.2125 7.6 12.2685 7.364 12.2685 7.044C12.2685 6.844 12.2365 6.608 12.1725 6.336C12.1085 6.056 12.0245 5.76 11.9205 5.448C11.8165 5.136 11.7045 4.828 11.5845 4.524L12.5565 4.164C12.6605 4.42 12.7565 4.712 12.8445 5.04C12.9405 5.368 13.0205 5.692 13.0845 6.012C13.1485 6.332 13.1805 6.612 13.1805 6.852C13.1805 7.252 13.1245 7.592 13.0125 7.872C12.9085 8.152 12.7405 8.38 12.5085 8.556C12.2765 8.732 11.9765 8.86 11.6085 8.94C11.2485 9.02 10.8165 9.06 10.3125 9.06ZM11.6565 12.66C11.4965 12.66 11.3565 12.6 11.2365 12.48C11.1245 12.36 11.0685 12.22 11.0685 12.06C11.0685 11.9 11.1245 11.76 11.2365 11.64C11.3565 11.528 11.4965 11.472 11.6565 11.472C11.8245 11.472 11.9645 11.528 12.0765 11.64C12.1965 11.76 12.2565 11.9 12.2565 12.06C12.2565 12.22 12.1965 12.36 12.0765 12.48C11.9645 12.6 11.8245 12.66 11.6565 12.66ZM12.4725 11.34C12.3125 11.34 12.1725 11.28 12.0525 11.16C11.9405 11.04 11.8845 10.9 11.8845 10.74C11.8845 10.58 11.9405 10.44 12.0525 10.32C12.1725 10.208 12.3125 10.152 12.4725 10.152C12.6405 10.152 12.7805 10.208 12.8925 10.32C13.0125 10.44 13.0725 10.58 13.0725 10.74C13.0725 10.9 13.0125 11.04 12.8925 11.16C12.7805 11.28 12.6405 11.34 12.4725 11.34ZM10.8405 11.34C10.6805 11.34 10.5405 11.28 10.4205 11.16C10.3085 11.04 10.2525 10.9 10.2525 10.74C10.2525 10.58 10.3085 10.44 10.4205 10.32C10.5405 10.208 10.6805 10.152 10.8405 10.152C11.0085 10.152 11.1485 10.208 11.2605 10.32C11.3805 10.44 11.4405 10.58 11.4405 10.74C11.4405 10.9 11.3805 11.04 11.2605 11.16C11.1485 11.28 11.0085 11.34 10.8405 11.34ZM17.2584 9.012C17.2584 8.82 17.2744 8.616 17.3064 8.4C17.3464 8.176 17.4024 7.94 17.4744 7.692C17.5544 7.436 17.6504 7.168 17.7624 6.888L18.6264 7.224C18.5464 7.448 18.4744 7.66 18.4104 7.86C18.3544 8.06 18.3104 8.248 18.2784 8.424C18.2544 8.6 18.2424 8.768 18.2424 8.928C18.2424 9.336 18.3504 9.68 18.5664 9.96C18.7824 10.24 19.0624 10.448 19.4064 10.584C19.7584 10.728 20.1344 10.8 20.5344 10.8C21.3184 10.8 21.9304 10.66 22.3704 10.38C22.8104 10.108 23.1184 9.744 23.2944 9.288C23.4704 8.84 23.5464 8.348 23.5224 7.812L23.2584 0.431999H24.2544L24.4464 6.516C24.4624 6.924 24.5264 7.244 24.6384 7.476C24.7584 7.7 24.9184 7.856 25.1184 7.944C25.3184 8.032 25.5384 8.076 25.7784 8.076C25.9464 8.076 26.0664 8.124 26.1384 8.22C26.2184 8.308 26.2584 8.416 26.2584 8.544C26.2584 8.672 26.2024 8.792 26.0904 8.904C25.9784 9.008 25.8344 9.06 25.6584 9.06C25.4104 9.06 25.1984 9.028 25.0224 8.964C24.8464 8.892 24.7024 8.804 24.5904 8.7C24.4784 8.588 24.3904 8.464 24.3264 8.328C24.2624 8.184 24.2144 8.04 24.1824 7.896L24.5184 8.232C24.4864 8.656 24.3944 9.076 24.2424 9.492C24.0984 9.916 23.8744 10.3 23.5704 10.644C23.2664 10.988 22.8584 11.264 22.3464 11.472C21.8424 11.68 21.2184 11.784 20.4744 11.784C20.0584 11.784 19.6544 11.72 19.2624 11.592C18.8784 11.472 18.5344 11.292 18.2304 11.052C17.9344 10.812 17.6984 10.52 17.5224 10.176C17.3464 9.84 17.2584 9.452 17.2584 9.012ZM25.6641 9.06L25.7841 8.076C26.0081 8.076 26.1841 8.028 26.3121 7.932C26.4481 7.836 26.5761 7.676 26.6961 7.452C26.8241 7.228 26.9841 6.928 27.1761 6.552C27.3681 6.168 27.5601 5.856 27.7521 5.616C27.9521 5.368 28.1441 5.176 28.3281 5.04C28.5201 4.896 28.7001 4.796 28.8681 4.74C29.0361 4.684 29.1921 4.656 29.3361 4.656C29.6001 4.656 29.8361 4.716 30.0441 4.836C30.2521 4.948 30.4481 5.144 30.6321 5.424C30.8161 5.696 31.0041 6.072 31.1961 6.552C31.3801 6.992 31.5441 7.324 31.6881 7.548C31.8401 7.764 31.9961 7.908 32.1561 7.98C32.3241 8.044 32.5121 8.076 32.7201 8.076C32.8881 8.076 33.0081 8.124 33.0801 8.22C33.1601 8.308 33.2001 8.416 33.2001 8.544C33.2001 8.672 33.1441 8.792 33.0321 8.904C32.9201 9.008 32.7761 9.06 32.6001 9.06C32.2881 9.06 32.0001 9.008 31.7361 8.904C31.4801 8.8 31.2641 8.636 31.0881 8.412L31.2561 8.16C31.1681 8.408 31.0481 8.612 30.8961 8.772C30.7521 8.924 30.5881 9.036 30.4041 9.108C30.2201 9.188 30.0241 9.228 29.8161 9.228C29.5521 9.228 29.2801 9.172 29.0001 9.06C28.7281 8.948 28.4641 8.788 28.2081 8.58C27.9521 8.372 27.7281 8.128 27.5361 7.848C27.3281 8.216 27.1281 8.488 26.9361 8.664C26.7521 8.832 26.5601 8.94 26.3601 8.988C26.1601 9.036 25.9281 9.06 25.6641 9.06ZM27.9921 6.936C28.1281 7.16 28.2721 7.356 28.4241 7.524C28.5841 7.692 28.7441 7.832 28.9041 7.944C29.0641 8.048 29.2201 8.128 29.3721 8.184C29.5321 8.232 29.6761 8.256 29.8041 8.256C30.0841 8.256 30.2881 8.156 30.4161 7.956C30.5521 7.756 30.5481 7.476 30.4041 7.116C30.3321 6.932 30.2561 6.752 30.1761 6.576C30.1041 6.4 30.0241 6.24 29.9361 6.096C29.8481 5.944 29.7481 5.828 29.6361 5.748C29.5241 5.66 29.4001 5.616 29.2641 5.616C29.1441 5.616 29.0161 5.656 28.8801 5.736C28.7521 5.816 28.6121 5.952 28.4601 6.144C28.3161 6.336 28.1601 6.6 27.9921 6.936ZM32.6016 9.06L32.7216 8.076H33.6456C34.3096 8.076 34.8016 8.04 35.1216 7.968C35.4416 7.896 35.6496 7.8 35.7456 7.68C35.8496 7.56 35.9016 7.436 35.9016 7.308C35.9016 7.116 35.8296 6.904 35.6856 6.672C35.5416 6.44 35.3576 6.204 35.1336 5.964C34.9096 5.716 34.6696 5.472 34.4136 5.232C34.1656 4.992 33.9296 4.772 33.7056 4.572C33.4816 4.372 33.2976 4.2 33.1536 4.056C33.0096 3.904 32.9376 3.796 32.9376 3.732C32.9376 3.612 32.9456 3.496 32.9616 3.384C32.9856 3.272 33.0136 3.168 33.0456 3.072C33.0856 2.976 33.1336 2.9 33.1896 2.844C33.3496 2.676 33.5696 2.5 33.8496 2.316C34.1296 2.124 34.4536 1.932 34.8216 1.74C35.1896 1.54 35.5816 1.34 35.9976 1.14C36.4136 0.931999 36.8336 0.724 37.2576 0.516L37.6656 1.404C37.2816 1.596 36.8976 1.788 36.5136 1.98C36.1296 2.164 35.7576 2.348 35.3976 2.532C35.0376 2.716 34.6976 2.904 34.3776 3.096C34.0656 3.28 33.7816 3.468 33.5256 3.66L33.5976 3.252C33.9576 3.556 34.2976 3.848 34.6176 4.128C34.9376 4.408 35.2416 4.696 35.5296 4.992C35.8176 5.28 36.0856 5.592 36.3336 5.928C36.5816 6.264 36.8136 6.636 37.0296 7.044C37.1976 7.356 37.3936 7.584 37.6176 7.728C37.8416 7.872 38.0616 7.968 38.2776 8.016C38.5016 8.056 38.6816 8.076 38.8176 8.076C38.9856 8.076 39.1056 8.124 39.1776 8.22C39.2576 8.308 39.2976 8.416 39.2976 8.544C39.2976 8.672 39.2416 8.792 39.1296 8.904C39.0176 9.008 38.8736 9.06 38.6976 9.06C38.4816 9.06 38.2256 9.028 37.9296 8.964C37.6416 8.892 37.3576 8.756 37.0776 8.556C36.7976 8.356 36.5656 8.052 36.3816 7.644L36.7416 7.788C36.6216 8.004 36.4816 8.192 36.3216 8.352C36.1696 8.504 35.9736 8.636 35.7336 8.748C35.4936 8.852 35.2016 8.932 34.8576 8.988C34.5136 9.036 34.0936 9.06 33.5976 9.06H32.6016ZM38.6953 9.06L38.8153 8.076C39.0393 8.076 39.2273 8.028 39.3793 7.932C39.5313 7.836 39.6793 7.676 39.8233 7.452C39.9673 7.228 40.1233 6.928 40.2913 6.552C40.5233 6.04 40.7513 5.652 40.9753 5.388C41.2073 5.124 41.4353 4.944 41.6593 4.848C41.8913 4.752 42.1193 4.704 42.3433 4.704C42.6153 4.704 42.8673 4.776 43.0993 4.92C43.3313 5.056 43.5353 5.24 43.7113 5.472C43.8873 5.704 44.0233 5.96 44.1193 6.24C44.2233 6.512 44.2753 6.784 44.2753 7.056C44.2753 7.536 44.1913 7.92 44.0233 8.208C43.8553 8.488 43.6393 8.692 43.3753 8.82C43.1193 8.94 42.8513 9 42.5713 9C42.3233 9 42.0033 8.952 41.6113 8.856C41.2273 8.76 40.7393 8.516 40.1473 8.124L40.6153 7.368C41.0073 7.616 41.3593 7.788 41.6713 7.884C41.9913 7.972 42.2553 8.016 42.4633 8.016C42.6953 8.016 42.8793 7.984 43.0153 7.92C43.1513 7.848 43.2513 7.748 43.3153 7.62C43.3793 7.492 43.4113 7.348 43.4113 7.188C43.4113 6.956 43.3553 6.724 43.2433 6.492C43.1313 6.26 42.9873 6.068 42.8113 5.916C42.6433 5.764 42.4633 5.688 42.2713 5.688C42.1273 5.688 41.9873 5.728 41.8513 5.808C41.7153 5.888 41.5753 6.036 41.4313 6.252C41.2873 6.468 41.1233 6.78 40.9393 7.188C40.7473 7.62 40.5633 7.964 40.3873 8.22C40.2193 8.468 40.0473 8.652 39.8713 8.772C39.6953 8.892 39.5113 8.968 39.3193 9C39.1353 9.04 38.9273 9.06 38.6953 9.06Z" fill="black"/>
</svg>
