<svg width="22" height="10" viewBox="0 0 22 10" fill="none" xmlns="http://www.w3.org/2000/svg">
<path d="M5.08234 9.252L5.39434 8.268C6.14634 8.268 6.77434 8.24 7.27834 8.184C7.78234 8.12 8.18234 8.04 8.47834 7.944C8.77434 7.84 8.98634 7.732 9.11434 7.62C9.24234 7.508 9.30634 7.404 9.30634 7.308C9.30634 7.116 9.23434 6.904 9.09034 6.672C8.94634 6.44 8.76234 6.204 8.53834 5.964C8.31434 5.716 8.07434 5.472 7.81834 5.232C7.57034 4.992 7.33434 4.772 7.11034 4.572C6.88634 4.372 6.70234 4.2 6.55834 4.056C6.41434 3.904 6.34234 3.796 6.34234 3.732C6.34234 3.612 6.35034 3.496 6.36634 3.384C6.39034 3.272 6.41834 3.168 6.45034 3.072C6.49034 2.976 6.53834 2.9 6.59434 2.844C6.81034 2.612 7.12634 2.372 7.54234 2.124C7.96634 1.868 8.45034 1.608 8.99434 1.344C9.53834 1.072 10.0943 0.796 10.6623 0.516L11.0703 1.404C10.5583 1.66 10.0463 1.912 9.53434 2.16C9.03034 2.408 8.55434 2.656 8.10634 2.904C7.66634 3.144 7.27434 3.396 6.93034 3.66L7.00234 3.252C7.36234 3.556 7.70234 3.848 8.02234 4.128C8.34234 4.408 8.64634 4.696 8.93434 4.992C9.22234 5.28 9.49034 5.592 9.73834 5.928C9.98634 6.264 10.2183 6.636 10.4343 7.044C10.5543 7.276 10.6943 7.464 10.8543 7.608C11.0223 7.744 11.1903 7.848 11.3583 7.92C11.5263 7.984 11.6863 8.028 11.8383 8.052C11.9903 8.068 12.1183 8.076 12.2223 8.076C12.3903 8.076 12.5103 8.124 12.5823 8.22C12.6623 8.308 12.7023 8.416 12.7023 8.544C12.7023 8.672 12.6463 8.792 12.5343 8.904C12.4223 9.008 12.2783 9.06 12.1023 9.06C11.8863 9.06 11.6303 9.028 11.3343 8.964C11.0463 8.892 10.7623 8.756 10.4823 8.556C10.2023 8.356 9.97034 8.052 9.78634 7.644L10.1463 7.788C10.0263 8.004 9.86234 8.2 9.65434 8.376C9.44634 8.552 9.15434 8.708 8.77834 8.844C8.41034 8.972 7.92634 9.072 7.32634 9.144C6.73434 9.216 5.98634 9.252 5.08234 9.252ZM5.08234 9.252C4.37034 9.252 3.74234 9.204 3.19834 9.108C2.66234 9.02 2.21434 8.88 1.85434 8.688C1.49434 8.496 1.22234 8.248 1.03834 7.944C0.854344 7.632 0.762344 7.256 0.762344 6.816C0.762344 6.616 0.778344 6.412 0.810344 6.204C0.842344 5.988 0.882344 5.772 0.930344 5.556C0.986344 5.34 1.04234 5.132 1.09834 4.932L1.99834 5.16C1.96634 5.28 1.93034 5.424 1.89034 5.592C1.85034 5.752 1.81434 5.916 1.78234 6.084C1.75834 6.252 1.74634 6.404 1.74634 6.54C1.74634 6.956 1.85034 7.292 2.05834 7.548C2.27434 7.796 2.64634 7.98 3.17434 8.1C3.70234 8.212 4.44234 8.268 5.39434 8.268L5.63434 8.868L5.08234 9.252ZM12.0977 9.06L12.2057 8.076C12.6617 8.076 12.9817 8.032 13.1657 7.944C13.3497 7.856 13.4537 7.7 13.4777 7.476C13.5097 7.252 13.5177 6.94 13.5017 6.54L13.2977 0.431999H14.2937L14.4857 6.516C14.5017 6.924 14.5657 7.244 14.6777 7.476C14.7977 7.7 14.9577 7.856 15.1577 7.944C15.3577 8.032 15.5777 8.076 15.8177 8.076C15.9857 8.076 16.1057 8.124 16.1777 8.22C16.2577 8.308 16.2977 8.416 16.2977 8.544C16.2977 8.672 16.2417 8.792 16.1297 8.904C16.0177 9.008 15.8737 9.06 15.6977 9.06C15.3617 9.06 15.0817 9.008 14.8577 8.904C14.6417 8.792 14.4697 8.652 14.3417 8.484C14.2217 8.308 14.1417 8.124 14.1017 7.932L14.3537 7.956C14.2737 8.196 14.1417 8.4 13.9577 8.568C13.7817 8.728 13.5417 8.852 13.2377 8.94C12.9337 9.02 12.5537 9.06 12.0977 9.06ZM15.6953 9.06L15.8153 8.076C16.0393 8.076 16.2273 8.028 16.3793 7.932C16.5313 7.836 16.6793 7.676 16.8233 7.452C16.9673 7.228 17.1233 6.928 17.2913 6.552C17.5233 6.04 17.7513 5.652 17.9753 5.388C18.2073 5.124 18.4353 4.944 18.6593 4.848C18.8913 4.752 19.1193 4.704 19.3433 4.704C19.6153 4.704 19.8673 4.776 20.0993 4.92C20.3313 5.056 20.5353 5.24 20.7113 5.472C20.8873 5.704 21.0233 5.96 21.1193 6.24C21.2233 6.512 21.2753 6.784 21.2753 7.056C21.2753 7.536 21.1913 7.92 21.0233 8.208C20.8553 8.488 20.6393 8.692 20.3753 8.82C20.1193 8.94 19.8513 9 19.5713 9C19.3233 9 19.0033 8.952 18.6113 8.856C18.2273 8.76 17.7393 8.516 17.1473 8.124L17.6153 7.368C18.0073 7.616 18.3593 7.788 18.6713 7.884C18.9913 7.972 19.2553 8.016 19.4633 8.016C19.6953 8.016 19.8793 7.984 20.0153 7.92C20.1513 7.848 20.2513 7.748 20.3153 7.62C20.3793 7.492 20.4113 7.348 20.4113 7.188C20.4113 6.956 20.3553 6.724 20.2433 6.492C20.1313 6.26 19.9873 6.068 19.8113 5.916C19.6433 5.764 19.4633 5.688 19.2713 5.688C19.1273 5.688 18.9873 5.728 18.8513 5.808C18.7153 5.888 18.5753 6.036 18.4313 6.252C18.2873 6.468 18.1233 6.78 17.9393 7.188C17.7473 7.62 17.5633 7.964 17.3873 8.22C17.2193 8.468 17.0473 8.652 16.8713 8.772C16.6953 8.892 16.5113 8.968 16.3193 9C16.1353 9.04 15.9273 9.06 15.6953 9.06Z" fill="black"/>
</svg>
