<svg width="10" height="10" viewBox="0 0 10 10" fill="none" xmlns="http://www.w3.org/2000/svg">
<path d="M0.756923 2.17192C0.569283 1.98428 0.463867 1.72979 0.463867 1.46442C0.463867 1.19906 0.569283 0.944564 0.756923 0.756923C0.944564 0.569283 1.19906 0.463867 1.46442 0.463867C1.72979 0.463867 1.98428 0.569283 2.17192 0.756923L9.24192 7.82792C9.33483 7.92077 9.40855 8.031 9.45885 8.15234C9.50916 8.27367 9.53508 8.40372 9.53513 8.53507C9.53517 8.66642 9.50935 8.79649 9.45913 8.91786C9.4089 9.03923 9.33527 9.14951 9.24242 9.24242C9.14958 9.33533 9.03934 9.40905 8.91801 9.45935C8.79668 9.50966 8.66663 9.53558 8.53528 9.53563C8.40393 9.53567 8.27386 9.50985 8.15249 9.45963C8.03112 9.4094 7.92083 9.33577 7.82792 9.24292L0.757923 2.17192H0.756923Z" fill="black"/>
</svg>
