<svg width="62" height="14" viewBox="0 0 62 14" fill="none" xmlns="http://www.w3.org/2000/svg">
<path d="M4.13881 11.784C3.68281 11.784 3.25081 11.72 2.84281 11.592C2.43481 11.472 2.07081 11.292 1.75081 11.052C1.43881 10.812 1.19081 10.52 1.00681 10.176C0.830813 9.84 0.742813 9.452 0.742813 9.012C0.742813 8.82 0.758813 8.616 0.790813 8.4C0.830813 8.176 0.886813 7.94 0.958813 7.692C1.03881 7.436 1.13481 7.168 1.24681 6.888L2.11081 7.224C2.03081 7.448 1.95881 7.66 1.89481 7.86C1.83881 8.06 1.79481 8.248 1.76281 8.424C1.73881 8.6 1.72681 8.768 1.72681 8.928C1.72681 9.336 1.83481 9.68 2.05081 9.96C2.27481 10.24 2.57081 10.448 2.93881 10.584C3.31481 10.728 3.72681 10.8 4.17481 10.8C4.71881 10.8 5.17481 10.736 5.54281 10.608C5.91081 10.488 6.20281 10.324 6.41881 10.116C6.63481 9.916 6.78681 9.688 6.87481 9.432C6.97081 9.184 7.01881 8.936 7.01881 8.688C7.01881 8.336 6.99081 8.004 6.93481 7.692C6.88681 7.38 6.81881 7.076 6.73081 6.78C6.65081 6.476 6.56281 6.168 6.46681 5.856L7.43881 5.592C7.56681 6.048 7.65481 6.38 7.70281 6.588C7.75881 6.788 7.80281 6.952 7.83481 7.08C7.92281 7.376 8.02281 7.596 8.13481 7.74C8.25481 7.876 8.39081 7.968 8.54281 8.016C8.70281 8.056 8.88281 8.076 9.08281 8.076C9.24281 8.076 9.38281 8.056 9.50281 8.016C9.63081 7.976 9.74681 7.88 9.85081 7.728C9.96281 7.576 10.0588 7.332 10.1388 6.996C10.2268 6.66 10.3068 6.2 10.3788 5.616L11.2908 5.784C11.2668 5.928 11.2388 6.104 11.2068 6.312C11.1748 6.52 11.1428 6.728 11.1108 6.936C11.0868 7.136 11.0748 7.304 11.0748 7.44C11.0748 7.552 11.0988 7.66 11.1468 7.764C11.2028 7.86 11.3068 7.936 11.4588 7.992C11.6188 8.048 11.8548 8.076 12.1668 8.076C12.5668 8.076 12.8548 7.992 13.0308 7.824C13.2148 7.656 13.3068 7.4 13.3068 7.056C13.3068 6.872 13.3028 6.68 13.2948 6.48C13.2868 6.272 13.2708 6.044 13.2468 5.796C13.2308 5.54 13.2028 5.248 13.1628 4.92L14.0388 4.86C14.0868 5.508 14.1388 6.04 14.1948 6.456C14.2588 6.872 14.3468 7.2 14.4588 7.44C14.5788 7.672 14.7388 7.836 14.9388 7.932C15.1388 8.028 15.4028 8.076 15.7308 8.076C15.8988 8.076 16.0188 8.124 16.0908 8.22C16.1708 8.308 16.2108 8.416 16.2108 8.544C16.2108 8.672 16.1548 8.792 16.0428 8.904C15.9308 9.008 15.7868 9.06 15.6108 9.06C15.2508 9.06 14.9388 8.996 14.6748 8.868C14.4188 8.74 14.2108 8.568 14.0508 8.352C13.8988 8.128 13.7948 7.888 13.7388 7.632L13.9548 7.704C13.8668 8.064 13.7268 8.344 13.5348 8.544C13.3508 8.736 13.1308 8.872 12.8748 8.952C12.6188 9.024 12.3468 9.06 12.0588 9.06C11.7068 9.06 11.4188 9.016 11.1948 8.928C10.9708 8.84 10.7948 8.708 10.6668 8.532C10.5468 8.348 10.4668 8.116 10.4268 7.836H10.8348C10.7068 8.124 10.5628 8.36 10.4028 8.544C10.2428 8.72 10.0508 8.852 9.82681 8.94C9.61081 9.02 9.34281 9.06 9.02281 9.06C8.77481 9.06 8.56281 9.028 8.38681 8.964C8.21081 8.892 8.06281 8.804 7.94281 8.7C7.83081 8.588 7.74281 8.464 7.67881 8.328C7.61481 8.184 7.56681 8.04 7.53481 7.896L8.02681 8.508C7.99481 8.908 7.91081 9.3 7.77481 9.684C7.64681 10.076 7.43881 10.428 7.15081 10.74C6.86281 11.06 6.47481 11.312 5.98681 11.496C5.49881 11.688 4.88281 11.784 4.13881 11.784ZM10.2708 2.46C10.1028 2.46 9.95881 2.404 9.83881 2.292C9.72681 2.172 9.67081 2.032 9.67081 1.872C9.67081 1.712 9.72681 1.572 9.83881 1.452C9.95881 1.332 10.1028 1.272 10.2708 1.272C10.4308 1.272 10.5668 1.332 10.6788 1.452C10.7988 1.572 10.8588 1.712 10.8588 1.872C10.8588 2.032 10.7988 2.172 10.6788 2.292C10.5668 2.404 10.4308 2.46 10.2708 2.46ZM9.45481 3.78C9.28681 3.78 9.14281 3.724 9.02281 3.612C8.91081 3.492 8.85481 3.352 8.85481 3.192C8.85481 3.032 8.91081 2.892 9.02281 2.772C9.14281 2.652 9.28681 2.592 9.45481 2.592C9.61481 2.592 9.75081 2.652 9.86281 2.772C9.98281 2.892 10.0428 3.032 10.0428 3.192C10.0428 3.352 9.98281 3.492 9.86281 3.612C9.75081 3.724 9.61481 3.78 9.45481 3.78ZM11.0868 3.78C10.9188 3.78 10.7748 3.724 10.6548 3.612C10.5428 3.492 10.4868 3.352 10.4868 3.192C10.4868 3.032 10.5428 2.892 10.6548 2.772C10.7748 2.652 10.9188 2.592 11.0868 2.592C11.2468 2.592 11.3828 2.652 11.4948 2.772C11.6148 2.892 11.6748 3.032 11.6748 3.192C11.6748 3.352 11.6148 3.492 11.4948 3.612C11.3828 3.724 11.2468 3.78 11.0868 3.78ZM15.6055 9.06L15.7255 8.076C16.1175 8.076 16.4295 8.052 16.6615 8.004C16.8935 7.956 17.0615 7.86 17.1655 7.716C17.2695 7.564 17.3215 7.34 17.3215 7.044C17.3215 6.844 17.2895 6.608 17.2255 6.336C17.1615 6.056 17.0775 5.76 16.9735 5.448C16.8695 5.136 16.7575 4.828 16.6375 4.524L17.6095 4.164C17.7135 4.42 17.8095 4.712 17.8975 5.04C17.9935 5.368 18.0735 5.692 18.1375 6.012C18.2015 6.332 18.2335 6.612 18.2335 6.852C18.2335 7.172 18.1975 7.456 18.1255 7.704C18.0615 7.944 17.9615 8.152 17.8255 8.328C17.6895 8.496 17.5135 8.636 17.2975 8.748C17.0895 8.852 16.8455 8.932 16.5655 8.988C16.2855 9.036 15.9655 9.06 15.6055 9.06ZM16.0495 2.832L15.9055 2.184C16.1135 2.136 16.2815 2.096 16.4095 2.064C16.5375 2.032 16.6815 1.996 16.8415 1.956L16.7815 2.208C16.5735 2.144 16.3735 2.008 16.1815 1.8C15.9975 1.592 15.9055 1.356 15.9055 1.092C15.9055 0.852 15.9615 0.652 16.0735 0.491999C16.1935 0.324 16.3455 0.2 16.5295 0.12C16.7215 0.0399995 16.9255 -7.15256e-07 17.1415 -7.15256e-07C17.2295 -7.15256e-07 17.3215 0.00799942 17.4175 0.0239997C17.5215 0.0399995 17.6175 0.0639994 17.7055 0.0959995L17.6095 0.696C17.5295 0.68 17.4535 0.664 17.3815 0.648C17.3095 0.632 17.2295 0.624 17.1415 0.624C16.9575 0.624 16.8135 0.664 16.7095 0.744C16.6055 0.816 16.5535 0.92 16.5535 1.056C16.5535 1.224 16.6055 1.368 16.7095 1.488C16.8215 1.608 16.9455 1.704 17.0815 1.776C17.2255 1.84 17.3415 1.872 17.4295 1.872L16.9375 1.92C17.1535 1.864 17.3535 1.808 17.5375 1.752C17.7295 1.688 17.9015 1.628 18.0535 1.572L18.2455 2.184C18.0535 2.256 17.8255 2.332 17.5615 2.412C17.3055 2.492 17.0455 2.568 16.7815 2.64C16.5175 2.712 16.2735 2.776 16.0495 2.832ZM19.9321 9L19.6921 0.431999H20.6641L20.9041 9H19.9321ZM24.2675 8.076C24.6675 8.076 24.9835 8.036 25.2155 7.956C25.4555 7.876 25.6275 7.76 25.7315 7.608C25.8435 7.448 25.8995 7.264 25.8995 7.056C25.8995 6.896 25.8555 6.704 25.7675 6.48C25.6875 6.256 25.5755 6.008 25.4315 5.736C25.2875 5.456 25.1195 5.164 24.9275 4.86C24.7435 4.548 24.5435 4.232 24.3275 3.912L25.1555 3.372C25.4675 3.844 25.7395 4.292 25.9715 4.716C26.2035 5.132 26.3995 5.524 26.5595 5.892C26.7195 6.252 26.8475 6.592 26.9435 6.912C27.0555 7.264 27.1795 7.524 27.3155 7.692C27.4595 7.86 27.6075 7.968 27.7595 8.016C27.9115 8.056 28.0515 8.076 28.1795 8.076C28.3475 8.076 28.4715 8.124 28.5515 8.22C28.6315 8.308 28.6715 8.416 28.6715 8.544C28.6715 8.672 28.6155 8.792 28.5035 8.904C28.3915 9.008 28.2475 9.06 28.0715 9.06C27.8075 9.06 27.5475 9.012 27.2915 8.916C27.0435 8.812 26.8275 8.648 26.6435 8.424C26.4595 8.192 26.3315 7.884 26.2595 7.5L26.7395 7.116C26.7395 7.436 26.6715 7.748 26.5355 8.052C26.3995 8.348 26.1515 8.592 25.7915 8.784C25.4395 8.976 24.9315 9.072 24.2675 9.072C23.9795 9.072 23.6995 9.048 23.4275 9C23.1635 8.952 22.9195 8.884 22.6955 8.796C22.4715 8.7 22.2755 8.588 22.1075 8.46L22.5875 7.632C22.7475 7.736 22.9715 7.836 23.2595 7.932C23.5475 8.028 23.8835 8.076 24.2675 8.076ZM28.0742 9.06L28.1942 8.076C28.5942 8.076 28.9062 8.048 29.1302 7.992C29.3542 7.928 29.5222 7.812 29.6342 7.644C29.7542 7.468 29.8502 7.216 29.9222 6.888C29.9942 6.56 30.0822 6.132 30.1862 5.604L31.1222 5.784C31.0902 5.928 31.0542 6.088 31.0142 6.264C30.9742 6.44 30.9382 6.616 30.9062 6.792C30.8822 6.96 30.8702 7.108 30.8702 7.236C30.8702 7.356 30.8782 7.468 30.8942 7.572C30.9102 7.676 30.9702 7.764 31.0742 7.836C31.1782 7.908 31.3542 7.968 31.6022 8.016C31.8502 8.056 32.2062 8.076 32.6702 8.076C32.8382 8.076 32.9582 8.124 33.0302 8.22C33.1102 8.308 33.1502 8.416 33.1502 8.544C33.1502 8.672 33.0942 8.792 32.9822 8.904C32.8702 9.008 32.7262 9.06 32.5502 9.06C32.0622 9.06 31.6742 9.036 31.3862 8.988C31.0982 8.932 30.8782 8.852 30.7262 8.748C30.5822 8.644 30.4782 8.516 30.4142 8.364C30.3582 8.204 30.3142 8.02 30.2822 7.812L30.6422 7.836C30.5142 8.092 30.3742 8.3 30.2222 8.46C30.0782 8.62 29.9102 8.744 29.7182 8.832C29.5262 8.92 29.2942 8.98 29.0222 9.012C28.7582 9.044 28.4422 9.06 28.0742 9.06ZM31.0982 11.328C30.9302 11.328 30.7862 11.268 30.6662 11.148C30.5542 11.036 30.4982 10.9 30.4982 10.74C30.4982 10.58 30.5542 10.44 30.6662 10.32C30.7862 10.2 30.9302 10.14 31.0982 10.14C31.2582 10.14 31.3942 10.2 31.5062 10.32C31.6262 10.44 31.6862 10.58 31.6862 10.74C31.6862 10.9 31.6262 11.036 31.5062 11.148C31.3942 11.268 31.2582 11.328 31.0982 11.328ZM29.4542 11.328C29.2862 11.328 29.1422 11.268 29.0222 11.148C28.9102 11.036 28.8542 10.9 28.8542 10.74C28.8542 10.58 28.9102 10.44 29.0222 10.32C29.1422 10.2 29.2862 10.14 29.4542 10.14C29.6142 10.14 29.7502 10.2 29.8622 10.32C29.9822 10.44 30.0422 10.58 30.0422 10.74C30.0422 10.9 29.9822 11.036 29.8622 11.148C29.7502 11.268 29.6142 11.328 29.4542 11.328ZM32.5508 9.06L32.6708 8.076C33.1428 8.076 33.5108 8.06 33.7748 8.028C34.0388 7.988 34.2268 7.896 34.3388 7.752C34.4508 7.6 34.5068 7.364 34.5068 7.044C34.5068 6.844 34.4748 6.608 34.4108 6.336C34.3468 6.056 34.2628 5.76 34.1588 5.448C34.0548 5.136 33.9428 4.828 33.8228 4.524L34.7948 4.164C34.8988 4.42 34.9948 4.712 35.0828 5.04C35.1788 5.368 35.2588 5.692 35.3228 6.012C35.3868 6.332 35.4188 6.612 35.4188 6.852C35.4188 7.252 35.3628 7.592 35.2508 7.872C35.1468 8.152 34.9788 8.38 34.7468 8.556C34.5148 8.732 34.2148 8.86 33.8468 8.94C33.4868 9.02 33.0548 9.06 32.5508 9.06ZM33.8948 12.66C33.7348 12.66 33.5948 12.6 33.4748 12.48C33.3628 12.36 33.3068 12.22 33.3068 12.06C33.3068 11.9 33.3628 11.76 33.4748 11.64C33.5948 11.528 33.7348 11.472 33.8948 11.472C34.0628 11.472 34.2028 11.528 34.3148 11.64C34.4348 11.76 34.4948 11.9 34.4948 12.06C34.4948 12.22 34.4348 12.36 34.3148 12.48C34.2028 12.6 34.0628 12.66 33.8948 12.66ZM34.7108 11.34C34.5508 11.34 34.4108 11.28 34.2908 11.16C34.1788 11.04 34.1228 10.9 34.1228 10.74C34.1228 10.58 34.1788 10.44 34.2908 10.32C34.4108 10.208 34.5508 10.152 34.7108 10.152C34.8788 10.152 35.0188 10.208 35.1308 10.32C35.2508 10.44 35.3108 10.58 35.3108 10.74C35.3108 10.9 35.2508 11.04 35.1308 11.16C35.0188 11.28 34.8788 11.34 34.7108 11.34ZM33.0788 11.34C32.9188 11.34 32.7788 11.28 32.6588 11.16C32.5468 11.04 32.4908 10.9 32.4908 10.74C32.4908 10.58 32.5468 10.44 32.6588 10.32C32.7788 10.208 32.9188 10.152 33.0788 10.152C33.2468 10.152 33.3868 10.208 33.4988 10.32C33.6188 10.44 33.6788 10.58 33.6788 10.74C33.6788 10.9 33.6188 11.04 33.4988 11.16C33.3868 11.28 33.2468 11.34 33.0788 11.34ZM46.9367 9.06C46.5927 9.06 46.2447 9.036 45.8927 8.988C45.5487 8.94 45.2287 8.824 44.9327 8.64C44.6367 8.456 44.3927 8.172 44.2007 7.788C44.0167 7.396 43.9127 6.86 43.8887 6.18L44.6567 5.772C44.6967 6.308 44.7847 6.732 44.9207 7.044C45.0647 7.348 45.2447 7.576 45.4607 7.728C45.6767 7.872 45.9207 7.968 46.1927 8.016C46.4647 8.056 46.7487 8.076 47.0447 8.076C47.2127 8.076 47.3327 8.124 47.4047 8.22C47.4847 8.308 47.5247 8.416 47.5247 8.544C47.5247 8.672 47.4687 8.792 47.3567 8.904C47.2527 9.008 47.1127 9.06 46.9367 9.06ZM43.4567 13.728C42.8967 13.728 42.3607 13.664 41.8487 13.536C41.3447 13.408 40.8967 13.208 40.5047 12.936C40.1207 12.672 39.8167 12.336 39.5927 11.928C39.3687 11.52 39.2567 11.04 39.2567 10.488C39.2567 10.024 39.3247 9.58 39.4607 9.156C39.5967 8.74 39.7927 8.348 40.0487 7.98C40.3127 7.604 40.6327 7.26 41.0087 6.948C41.3847 6.636 41.8127 6.36 42.2927 6.12C42.7727 5.872 43.2967 5.664 43.8647 5.496L43.7327 5.652C43.5247 5.588 43.3127 5.52 43.0967 5.448C42.8807 5.368 42.6567 5.296 42.4247 5.232C42.1927 5.16 41.9447 5.104 41.6807 5.064C41.4167 5.024 41.1327 5.004 40.8287 5.004C40.5887 5.004 40.3767 5.024 40.1927 5.064C40.0167 5.104 39.8487 5.144 39.6887 5.184L39.5207 4.296C39.7287 4.208 39.9607 4.14 40.2167 4.092C40.4807 4.036 40.7447 4.008 41.0087 4.008C41.3767 4.008 41.7047 4.044 41.9927 4.116C42.2807 4.18 42.5527 4.26 42.8087 4.356C43.0727 4.452 43.3487 4.552 43.6367 4.656C43.9247 4.752 44.2447 4.836 44.5967 4.908C44.9567 4.972 45.3807 5.008 45.8687 5.016H45.9767L46.0007 6C45.6167 6 45.2087 6.044 44.7767 6.132C44.3447 6.22 43.9127 6.348 43.4807 6.516C43.0567 6.684 42.6487 6.892 42.2567 7.14C41.8647 7.388 41.5167 7.676 41.2127 8.004C40.9167 8.324 40.6807 8.68 40.5047 9.072C40.3287 9.472 40.2407 9.904 40.2407 10.368C40.2407 10.784 40.3287 11.14 40.5047 11.436C40.6807 11.74 40.9207 11.988 41.2247 12.18C41.5367 12.372 41.8927 12.512 42.2927 12.6C42.7007 12.688 43.1287 12.732 43.5767 12.732C43.9687 12.732 44.3687 12.688 44.7767 12.6C45.1927 12.52 45.5967 12.404 45.9887 12.252L46.3247 13.068C45.8607 13.292 45.3847 13.456 44.8967 13.56C44.4087 13.672 43.9287 13.728 43.4567 13.728ZM42.8807 2.772C42.7127 2.772 42.5687 2.716 42.4487 2.604C42.3367 2.484 42.2807 2.344 42.2807 2.184C42.2807 2.024 42.3367 1.884 42.4487 1.764C42.5687 1.644 42.7127 1.584 42.8807 1.584C43.0407 1.584 43.1767 1.644 43.2887 1.764C43.4087 1.884 43.4687 2.024 43.4687 2.184C43.4687 2.344 43.4087 2.484 43.2887 2.604C43.1767 2.716 43.0407 2.772 42.8807 2.772ZM46.9297 9.06L47.0497 8.076C47.5217 8.076 47.8897 8.06 48.1537 8.028C48.4177 7.988 48.6057 7.896 48.7177 7.752C48.8297 7.6 48.8857 7.364 48.8857 7.044C48.8857 6.844 48.8537 6.608 48.7897 6.336C48.7257 6.056 48.6417 5.76 48.5377 5.448C48.4337 5.136 48.3217 4.828 48.2017 4.524L49.1737 4.164C49.2777 4.42 49.3737 4.712 49.4617 5.04C49.5577 5.368 49.6377 5.692 49.7017 6.012C49.7657 6.332 49.7977 6.612 49.7977 6.852C49.7977 7.252 49.7417 7.592 49.6297 7.872C49.5257 8.152 49.3577 8.38 49.1257 8.556C48.8937 8.732 48.5937 8.86 48.2257 8.94C47.8657 9.02 47.4337 9.06 46.9297 9.06ZM49.1497 11.328C48.9817 11.328 48.8377 11.268 48.7177 11.148C48.6057 11.036 48.5497 10.9 48.5497 10.74C48.5497 10.58 48.6057 10.44 48.7177 10.32C48.8377 10.2 48.9817 10.14 49.1497 10.14C49.3097 10.14 49.4457 10.2 49.5577 10.32C49.6777 10.44 49.7377 10.58 49.7377 10.74C49.7377 10.9 49.6777 11.036 49.5577 11.148C49.4457 11.268 49.3097 11.328 49.1497 11.328ZM47.5057 11.328C47.3377 11.328 47.1937 11.268 47.0737 11.148C46.9617 11.036 46.9057 10.9 46.9057 10.74C46.9057 10.58 46.9617 10.44 47.0737 10.32C47.1937 10.2 47.3377 10.14 47.5057 10.14C47.6657 10.14 47.8017 10.2 47.9137 10.32C48.0337 10.44 48.0937 10.58 48.0937 10.74C48.0937 10.9 48.0337 11.036 47.9137 11.148C47.8017 11.268 47.6657 11.328 47.5057 11.328ZM50.5636 11.76L50.2156 10.848C51.0236 10.592 51.6436 10.284 52.0756 9.924C52.5156 9.572 52.8156 9.204 52.9756 8.82C53.1436 8.436 53.2276 8.068 53.2276 7.716C53.2276 7.492 53.2036 7.276 53.1556 7.068C53.1076 6.86 53.0236 6.624 52.9036 6.36C52.7836 6.096 52.6156 5.768 52.3996 5.376L53.2756 4.932C53.5796 5.452 53.7956 5.944 53.9236 6.408C54.0596 6.872 54.1276 7.28 54.1276 7.632C54.1276 8.136 54.0436 8.592 53.8756 9C53.7156 9.408 53.4996 9.768 53.2276 10.08C52.9636 10.4 52.6716 10.672 52.3516 10.896C52.0396 11.12 51.7236 11.304 51.4036 11.448C51.0916 11.592 50.8116 11.696 50.5636 11.76ZM58.4139 9.06C57.7739 9.06 57.2819 8.988 56.9379 8.844C56.6019 8.7 56.3699 8.476 56.2419 8.172C56.1139 7.868 56.0419 7.476 56.0259 6.996L55.7859 0.431999H56.7699L57.0099 6.612C57.0259 7.004 57.0619 7.308 57.1179 7.524C57.1819 7.732 57.3179 7.876 57.5259 7.956C57.7419 8.036 58.0779 8.076 58.5339 8.076C58.7019 8.076 58.8219 8.124 58.8939 8.22C58.9739 8.308 59.0139 8.416 59.0139 8.544C59.0139 8.672 58.9579 8.792 58.8459 8.904C58.7339 9.008 58.5899 9.06 58.4139 9.06ZM58.4141 9.06L58.5341 8.076C59.0061 8.076 59.3741 8.06 59.6381 8.028C59.9021 7.988 60.0901 7.896 60.2021 7.752C60.3141 7.6 60.3701 7.364 60.3701 7.044C60.3701 6.844 60.3381 6.608 60.2741 6.336C60.2101 6.056 60.1261 5.76 60.0221 5.448C59.9181 5.136 59.8061 4.828 59.6861 4.524L60.6581 4.164C60.7621 4.42 60.8581 4.712 60.9461 5.04C61.0421 5.368 61.1221 5.692 61.1861 6.012C61.2501 6.332 61.2821 6.612 61.2821 6.852C61.2821 7.252 61.2261 7.592 61.1141 7.872C61.0101 8.152 60.8421 8.38 60.6101 8.556C60.3781 8.732 60.0781 8.86 59.7101 8.94C59.3501 9.02 58.9181 9.06 58.4141 9.06ZM61.0301 2.916C60.8621 2.916 60.7181 2.86 60.5981 2.748C60.4861 2.628 60.4301 2.488 60.4301 2.328C60.4301 2.168 60.4861 2.028 60.5981 1.908C60.7181 1.788 60.8621 1.728 61.0301 1.728C61.1901 1.728 61.3261 1.788 61.4381 1.908C61.5581 2.028 61.6181 2.168 61.6181 2.328C61.6181 2.488 61.5581 2.628 61.4381 2.748C61.3261 2.86 61.1901 2.916 61.0301 2.916ZM59.3861 2.916C59.2181 2.916 59.0741 2.86 58.9541 2.748C58.8421 2.628 58.7861 2.488 58.7861 2.328C58.7861 2.168 58.8421 2.028 58.9541 1.908C59.0741 1.788 59.2181 1.728 59.3861 1.728C59.5461 1.728 59.6821 1.788 59.7941 1.908C59.9141 2.028 59.9741 2.168 59.9741 2.328C59.9741 2.488 59.9141 2.628 59.7941 2.748C59.6821 2.86 59.5461 2.916 59.3861 2.916Z" fill="black"/>
</svg>
