<svg width="13" height="13" viewBox="0 0 13 13" fill="none" xmlns="http://www.w3.org/2000/svg">
<path fill-rule="evenodd" clip-rule="evenodd" d="M6.18256 0.27275C6.44131 0.27275 6.65131 0.48275 6.65131 0.7415C6.65131 1.00025 6.44131 1.21025 6.18256 1.21025H3.84569C2.23069 1.21025 1.18756 2.3165 1.18756 4.02838V9.22462C1.18756 10.9365 2.23069 12.0428 3.84569 12.0428H9.36069C10.9757 12.0428 12.0194 10.9365 12.0194 9.22462V6.70712C12.0194 6.44837 12.2294 6.23837 12.4882 6.23837C12.7469 6.23837 12.9569 6.44837 12.9569 6.70712V9.22462C12.9569 11.4709 11.5113 12.9803 9.36069 12.9803H3.84569C1.69506 12.9803 0.250061 11.4709 0.250061 9.22462V4.02838C0.250061 1.78212 1.69506 0.27275 3.84569 0.27275H6.18256ZM11.6261 0.821875L12.3867 1.5825C12.7573 1.9525 12.9611 2.44438 12.9604 2.96812C12.9604 3.49187 12.7567 3.98312 12.3867 4.3525L7.69356 9.04562C7.34919 9.39 6.89044 9.58 6.40294 9.58H4.06169C3.93544 9.58 3.81419 9.52875 3.72606 9.43812C3.63794 9.34812 3.58981 9.22625 3.59294 9.09937L3.65169 6.7375C3.66356 6.2675 3.85294 5.82562 4.18544 5.4925H4.18606L8.85669 0.821875C9.62044 0.059375 10.8623 0.059375 11.6261 0.821875ZM8.47194 2.53188L4.84856 6.15562C4.68669 6.3175 4.59481 6.5325 4.58919 6.76062L4.54231 8.6425H6.40294C6.64044 8.6425 6.86294 8.55062 7.03106 8.3825L10.6763 4.73625L8.47194 2.53188ZM9.51919 1.485L9.13444 1.86875L11.3388 4.07375L11.7242 3.68938C11.9167 3.49688 12.0229 3.24062 12.0229 2.96812C12.0229 2.695 11.9167 2.43813 11.7242 2.24563L10.9636 1.485C10.5654 1.08813 9.91794 1.08813 9.51919 1.485Z" fill="white"/>
</svg>
