<svg width="106" height="17" viewBox="0 0 106 17" fill="none" xmlns="http://www.w3.org/2000/svg">
<path d="M0.368313 15.784L0.0203125 14.872C0.604313 14.68 1.08831 14.46 1.47231 14.212C1.86431 13.964 2.17231 13.7 2.39631 13.42C2.62831 13.14 2.79231 12.856 2.88831 12.568C2.98431 12.272 3.03231 11.988 3.03231 11.716C3.03231 11.324 2.94431 10.928 2.76831 10.528C2.60031 10.12 2.41231 9.736 2.20431 9.376L3.08031 8.932C3.23231 9.212 3.36431 9.488 3.47631 9.76C3.59631 10.032 3.70031 10.288 3.78831 10.528C3.88431 10.768 3.96031 10.988 4.01631 11.188C4.12831 11.532 4.27231 11.768 4.44831 11.896C4.63231 12.016 4.88031 12.076 5.19231 12.076C5.36031 12.076 5.48031 12.124 5.55231 12.22C5.63231 12.308 5.67231 12.416 5.67231 12.544C5.67231 12.672 5.61631 12.792 5.50431 12.904C5.39231 13.008 5.24831 13.06 5.07231 13.06C4.72031 13.06 4.43231 13 4.20831 12.88C3.99231 12.752 3.82831 12.588 3.71631 12.388C3.60431 12.18 3.52831 11.964 3.48831 11.74L3.87231 11.956C3.87231 12.484 3.75231 12.964 3.51231 13.396C3.28031 13.836 2.98031 14.216 2.61231 14.536C2.24431 14.864 1.86031 15.132 1.46031 15.34C1.06031 15.548 0.696313 15.696 0.368313 15.784ZM5.07812 13.06L5.19813 12.076C5.53413 12.076 5.79813 12.048 5.99013 11.992C6.18213 11.928 6.32613 11.812 6.42213 11.644C6.52613 11.468 6.61413 11.216 6.68613 10.888C6.75813 10.56 6.84613 10.132 6.95013 9.604L7.88613 9.784C7.85413 9.928 7.81813 10.088 7.77813 10.264C7.73813 10.44 7.70213 10.616 7.67013 10.792C7.64613 10.96 7.63413 11.108 7.63413 11.236C7.63413 11.396 7.67013 11.54 7.74213 11.668C7.81413 11.796 7.97013 11.896 8.21013 11.968C8.45013 12.04 8.81813 12.076 9.31413 12.076C9.48213 12.076 9.60213 12.124 9.67413 12.22C9.75413 12.308 9.79413 12.416 9.79413 12.544C9.79413 12.672 9.73813 12.792 9.62613 12.904C9.51413 13.008 9.37013 13.06 9.19413 13.06C8.67413 13.06 8.26613 13.016 7.97013 12.928C7.67413 12.832 7.45813 12.692 7.32213 12.508C7.18613 12.316 7.09413 12.084 7.04613 11.812L7.40613 11.836C7.27813 12.092 7.13813 12.3 6.98613 12.46C6.84213 12.62 6.68213 12.744 6.50613 12.832C6.33013 12.92 6.12613 12.98 5.89413 13.012C5.66213 13.044 5.39013 13.06 5.07812 13.06ZM7.11813 15.292C6.95013 15.292 6.80613 15.232 6.68613 15.112C6.57413 15 6.51813 14.864 6.51813 14.704C6.51813 14.544 6.57413 14.404 6.68613 14.284C6.80613 14.164 6.95013 14.104 7.11813 14.104C7.27813 14.104 7.41413 14.164 7.52613 14.284C7.64613 14.404 7.70613 14.544 7.70613 14.704C7.70613 14.864 7.64613 15 7.52613 15.112C7.41413 15.232 7.27813 15.292 7.11813 15.292ZM9.19141 13.06L9.31141 12.076C9.53541 12.076 9.71141 12.028 9.83941 11.932C9.97541 11.836 10.1034 11.676 10.2234 11.452C10.3514 11.228 10.5114 10.928 10.7034 10.552C10.8954 10.168 11.0874 9.856 11.2794 9.616C11.4794 9.368 11.6714 9.176 11.8554 9.04C12.0474 8.896 12.2274 8.796 12.3954 8.74C12.5634 8.684 12.7194 8.656 12.8634 8.656C13.1274 8.656 13.3634 8.716 13.5714 8.836C13.7794 8.948 13.9754 9.144 14.1594 9.424C14.3434 9.696 14.5314 10.072 14.7234 10.552C14.9074 10.992 15.0714 11.324 15.2154 11.548C15.3674 11.764 15.5234 11.908 15.6834 11.98C15.8514 12.044 16.0394 12.076 16.2474 12.076C16.4154 12.076 16.5354 12.124 16.6074 12.22C16.6874 12.308 16.7274 12.416 16.7274 12.544C16.7274 12.672 16.6714 12.792 16.5594 12.904C16.4474 13.008 16.3034 13.06 16.1274 13.06C15.8154 13.06 15.5274 13.008 15.2634 12.904C15.0074 12.8 14.7914 12.636 14.6154 12.412L14.7834 12.16C14.6954 12.408 14.5754 12.612 14.4234 12.772C14.2794 12.924 14.1154 13.036 13.9314 13.108C13.7474 13.188 13.5514 13.228 13.3434 13.228C13.0794 13.228 12.8074 13.172 12.5274 13.06C12.2554 12.948 11.9914 12.788 11.7354 12.58C11.4794 12.372 11.2554 12.128 11.0634 11.848C10.8554 12.216 10.6554 12.488 10.4634 12.664C10.2794 12.832 10.0874 12.94 9.88741 12.988C9.68741 13.036 9.45541 13.06 9.19141 13.06ZM11.5194 10.936C11.6554 11.16 11.7994 11.356 11.9514 11.524C12.1114 11.692 12.2714 11.832 12.4314 11.944C12.5914 12.048 12.7474 12.128 12.8994 12.184C13.0594 12.232 13.2034 12.256 13.3314 12.256C13.6114 12.256 13.8154 12.156 13.9434 11.956C14.0794 11.756 14.0754 11.476 13.9314 11.116C13.8594 10.932 13.7834 10.752 13.7034 10.576C13.6314 10.4 13.5514 10.24 13.4634 10.096C13.3754 9.944 13.2754 9.828 13.1634 9.748C13.0514 9.66 12.9274 9.616 12.7914 9.616C12.6714 9.616 12.5434 9.656 12.4074 9.736C12.2794 9.816 12.1394 9.952 11.9874 10.144C11.8434 10.336 11.6874 10.6 11.5194 10.936ZM16.1289 13.06L16.2489 12.076C16.6409 12.076 16.9529 12.052 17.1849 12.004C17.4169 11.956 17.5849 11.86 17.6889 11.716C17.7929 11.564 17.8449 11.34 17.8449 11.044C17.8449 10.844 17.8129 10.608 17.7489 10.336C17.6849 10.056 17.6009 9.76 17.4969 9.448C17.3929 9.136 17.2809 8.828 17.1609 8.524L18.1329 8.164C18.2369 8.42 18.3329 8.712 18.4209 9.04C18.5169 9.368 18.5969 9.692 18.6609 10.012C18.7249 10.332 18.7569 10.612 18.7569 10.852C18.7569 11.172 18.7209 11.456 18.6489 11.704C18.5849 11.944 18.4849 12.152 18.3489 12.328C18.2129 12.496 18.0369 12.636 17.8209 12.748C17.6129 12.852 17.3689 12.932 17.0889 12.988C16.8089 13.036 16.4889 13.06 16.1289 13.06ZM17.6649 6.916C17.4969 6.916 17.3529 6.86 17.2329 6.748C17.1209 6.628 17.0649 6.488 17.0649 6.328C17.0649 6.168 17.1209 6.028 17.2329 5.908C17.3529 5.788 17.4969 5.728 17.6649 5.728C17.8249 5.728 17.9609 5.788 18.0729 5.908C18.1929 6.028 18.2529 6.168 18.2529 6.328C18.2529 6.488 18.1929 6.628 18.0729 6.748C17.9609 6.86 17.8249 6.916 17.6649 6.916ZM22.7716 12.46L23.2516 11.632C23.4116 11.736 23.6356 11.836 23.9236 11.932C24.2116 12.028 24.5476 12.076 24.9316 12.076C25.3316 12.076 25.6476 12.036 25.8796 11.956C26.1196 11.876 26.2916 11.76 26.3956 11.608C26.5076 11.448 26.5636 11.264 26.5636 11.056C26.5636 10.896 26.5276 10.7 26.4556 10.468C26.3916 10.228 26.2476 9.908 26.0236 9.508C25.7996 9.1 25.4556 8.568 24.9916 7.912L25.8196 7.372C26.2436 7.956 26.5796 8.484 26.8276 8.956C27.0836 9.428 27.2636 9.844 27.3676 10.204C27.4796 10.556 27.5356 10.86 27.5356 11.116C27.5356 11.436 27.4556 11.748 27.2956 12.052C27.1356 12.348 26.8676 12.592 26.4916 12.784C26.1156 12.976 25.5956 13.072 24.9316 13.072C24.6436 13.072 24.3636 13.048 24.0916 13C23.8276 12.952 23.5836 12.884 23.3596 12.796C23.1356 12.7 22.9396 12.588 22.7716 12.46ZM24.9796 3.544C24.8356 3.544 24.6636 3.54 24.4636 3.532C24.2716 3.516 24.0876 3.5 23.9116 3.484C23.7356 3.468 23.6036 3.456 23.5156 3.448L23.5396 2.752C23.6996 2.768 23.9076 2.788 24.1636 2.812C24.4276 2.836 24.6716 2.848 24.8956 2.848C25.1596 2.848 25.3716 2.832 25.5316 2.8C25.6996 2.76 25.8196 2.704 25.8916 2.632C25.9716 2.56 26.0116 2.48 26.0116 2.392C26.0116 2.28 25.9756 2.2 25.9036 2.152C25.8316 2.104 25.7396 2.08 25.6276 2.08C25.4676 2.08 25.3116 2.136 25.1596 2.248C25.0076 2.352 24.8716 2.472 24.7516 2.608C24.6396 2.736 24.5556 2.84 24.4996 2.92L23.8276 2.872C23.9636 2.608 24.1316 2.364 24.3316 2.14C24.5316 1.908 24.7516 1.724 24.9916 1.588C25.2316 1.444 25.4756 1.372 25.7236 1.372C26.0276 1.372 26.2676 1.464 26.4436 1.648C26.6196 1.832 26.7076 2.06 26.7076 2.332C26.7076 2.492 26.6596 2.668 26.5636 2.86C26.4756 3.044 26.3076 3.204 26.0596 3.34C25.8116 3.476 25.4516 3.544 24.9796 3.544ZM24.1516 2.752L24.0796 0.435999H24.7396L24.8356 2.44L24.1516 2.752ZM27.755 15.76L27.407 14.848C28.215 14.592 28.835 14.284 29.267 13.924C29.707 13.572 30.007 13.204 30.167 12.82C30.335 12.436 30.419 12.068 30.419 11.716C30.419 11.492 30.395 11.276 30.347 11.068C30.299 10.86 30.215 10.624 30.095 10.36C29.975 10.096 29.807 9.768 29.591 9.376L30.467 8.932C30.771 9.452 30.987 9.944 31.115 10.408C31.251 10.872 31.319 11.28 31.319 11.632C31.319 12.136 31.235 12.592 31.067 13C30.907 13.408 30.691 13.768 30.419 14.08C30.155 14.4 29.863 14.672 29.543 14.896C29.231 15.12 28.915 15.304 28.595 15.448C28.283 15.592 28.003 15.696 27.755 15.76ZM35.6053 13.06C34.9653 13.06 34.4733 12.988 34.1293 12.844C33.7933 12.7 33.5613 12.476 33.4333 12.172C33.3053 11.868 33.2333 11.476 33.2173 10.996L32.9773 4.432H33.9613L34.2013 10.612C34.2173 11.004 34.2533 11.308 34.3093 11.524C34.3733 11.732 34.5093 11.876 34.7173 11.956C34.9333 12.036 35.2693 12.076 35.7253 12.076C35.8933 12.076 36.0133 12.124 36.0853 12.22C36.1653 12.308 36.2053 12.416 36.2053 12.544C36.2053 12.672 36.1493 12.792 36.0373 12.904C35.9253 13.008 35.7813 13.06 35.6053 13.06ZM35.6055 13.06L35.7255 12.076H36.8535C37.3255 12.076 37.6975 12.052 37.9695 12.004C38.2495 11.948 38.4535 11.88 38.5815 11.8C38.7175 11.712 38.8055 11.62 38.8455 11.524C38.8935 11.42 38.9175 11.316 38.9175 11.212C38.9175 11.028 38.8455 10.8 38.7015 10.528C38.5655 10.256 38.2815 9.904 37.8495 9.472C37.6255 9.248 37.4015 9.044 37.1775 8.86C36.9535 8.668 36.7455 8.5 36.5535 8.356C36.3695 8.204 36.2215 8.076 36.1095 7.972C35.9975 7.868 35.9415 7.788 35.9415 7.732C35.9415 7.612 35.9495 7.496 35.9655 7.384C35.9895 7.272 36.0175 7.168 36.0495 7.072C36.0895 6.976 36.1375 6.9 36.1935 6.844C36.3535 6.676 36.5575 6.508 36.8055 6.34C37.0615 6.172 37.3575 5.996 37.6935 5.812C38.0375 5.628 38.4215 5.432 38.8455 5.224C39.2775 5.008 39.7495 4.772 40.2615 4.516L40.6695 5.404C40.0295 5.708 39.4935 5.968 39.0615 6.184C38.6375 6.392 38.2775 6.58 37.9815 6.748C37.6855 6.908 37.4255 7.06 37.2015 7.204C36.9775 7.348 36.7495 7.508 36.5175 7.684L36.6975 7.228C37.2015 7.628 37.6455 8.004 38.0295 8.356C38.4215 8.708 38.7495 9.048 39.0135 9.376C39.2775 9.696 39.4775 10.012 39.6135 10.324C39.7495 10.636 39.8175 10.952 39.8175 11.272C39.8175 11.448 39.7855 11.64 39.7215 11.848C39.6575 12.056 39.5215 12.252 39.3135 12.436C39.1055 12.62 38.7935 12.772 38.3775 12.892C37.9615 13.004 37.4015 13.06 36.6975 13.06H35.6055ZM43.9108 13.012C43.9108 12.82 43.9268 12.616 43.9588 12.4C43.9988 12.176 44.0548 11.94 44.1268 11.692C44.2068 11.436 44.3028 11.168 44.4148 10.888L45.2788 11.224C45.1988 11.448 45.1268 11.66 45.0628 11.86C45.0068 12.06 44.9628 12.248 44.9308 12.424C44.9068 12.6 44.8948 12.768 44.8948 12.928C44.8948 13.264 44.9668 13.548 45.1108 13.78C45.2628 14.02 45.4708 14.216 45.7348 14.368C45.9988 14.52 46.2988 14.632 46.6348 14.704C46.9788 14.776 47.3428 14.812 47.7268 14.812C48.1908 14.812 48.6228 14.772 49.0228 14.692C49.4308 14.612 49.7868 14.496 50.0908 14.344C50.4028 14.2 50.6468 14.032 50.8228 13.84C50.9988 13.656 51.0868 13.456 51.0868 13.24C51.0868 13.136 51.0468 13.04 50.9668 12.952C50.8868 12.864 50.7668 12.78 50.6068 12.7C50.4468 12.62 50.2548 12.544 50.0308 12.472C49.8068 12.392 49.5508 12.312 49.2628 12.232L49.4908 11.236C49.9068 11.396 50.2748 11.532 50.5948 11.644C50.9148 11.748 51.1948 11.832 51.4348 11.896C51.6748 11.96 51.8828 12.008 52.0588 12.04C52.2348 12.064 52.3828 12.076 52.5028 12.076C52.6708 12.076 52.7908 12.124 52.8628 12.22C52.9428 12.308 52.9828 12.416 52.9828 12.544C52.9828 12.672 52.9268 12.792 52.8148 12.904C52.7028 13.008 52.5588 13.06 52.3828 13.06C52.3348 13.06 52.2868 13.06 52.2388 13.06C52.1908 13.06 52.1388 13.06 52.0828 13.06C52.0348 13.06 51.9868 13.06 51.9388 13.06C51.9548 13.132 51.9668 13.188 51.9748 13.228C51.9828 13.276 51.9868 13.336 51.9868 13.408C51.9868 13.704 51.8828 13.992 51.6748 14.272C51.4748 14.552 51.1788 14.804 50.7868 15.028C50.3948 15.26 49.9188 15.444 49.3588 15.58C48.8068 15.716 48.1748 15.784 47.4628 15.784C46.8308 15.784 46.2428 15.68 45.6988 15.472C45.1628 15.272 44.7308 14.968 44.4028 14.56C44.0748 14.152 43.9108 13.636 43.9108 13.012ZM52.3867 13.06L52.5067 12.076C52.7627 12.076 52.9707 12.06 53.1307 12.028C53.2907 11.988 53.4227 11.896 53.5267 11.752C53.6387 11.6 53.7427 11.364 53.8387 11.044C53.9347 10.724 54.0467 10.276 54.1747 9.7L55.0747 9.952C55.0267 10.152 54.9707 10.392 54.9067 10.672C54.8427 10.952 54.8107 11.208 54.8107 11.44C54.8107 11.568 54.8427 11.68 54.9067 11.776C54.9707 11.872 55.0787 11.948 55.2307 12.004C55.3907 12.052 55.6027 12.076 55.8667 12.076C56.1067 12.076 56.3027 12.056 56.4547 12.016C56.6067 11.976 56.7307 11.88 56.8267 11.728C56.9307 11.576 57.0227 11.332 57.1027 10.996C57.1827 10.66 57.2667 10.2 57.3547 9.616L58.2667 9.784C58.2427 9.928 58.2147 10.104 58.1827 10.312C58.1507 10.52 58.1187 10.728 58.0867 10.936C58.0627 11.136 58.0507 11.304 58.0507 11.44C58.0507 11.552 58.0747 11.66 58.1227 11.764C58.1787 11.86 58.2827 11.936 58.4347 11.992C58.5947 12.048 58.8307 12.076 59.1427 12.076C59.5427 12.076 59.8307 11.992 60.0067 11.824C60.1907 11.656 60.2827 11.4 60.2827 11.056C60.2827 10.872 60.2787 10.68 60.2707 10.48C60.2627 10.272 60.2467 10.044 60.2227 9.796C60.2067 9.54 60.1787 9.248 60.1387 8.92L61.0147 8.86C61.0627 9.508 61.1147 10.04 61.1707 10.456C61.2347 10.872 61.3227 11.2 61.4347 11.44C61.5547 11.672 61.7147 11.836 61.9147 11.932C62.1147 12.028 62.3787 12.076 62.7067 12.076C62.8747 12.076 62.9947 12.124 63.0667 12.22C63.1467 12.308 63.1867 12.416 63.1867 12.544C63.1867 12.672 63.1307 12.792 63.0187 12.904C62.9067 13.008 62.7627 13.06 62.5867 13.06C62.3147 13.06 62.0707 13.024 61.8547 12.952C61.6467 12.872 61.4627 12.768 61.3027 12.64C61.1507 12.504 61.0227 12.352 60.9187 12.184C60.8227 12.008 60.7547 11.824 60.7147 11.632L60.9307 11.704C60.8427 12.064 60.7027 12.344 60.5107 12.544C60.3267 12.736 60.1067 12.872 59.8507 12.952C59.5947 13.024 59.3227 13.06 59.0347 13.06C58.6827 13.06 58.3947 13.016 58.1707 12.928C57.9467 12.84 57.7707 12.708 57.6427 12.532C57.5227 12.348 57.4427 12.116 57.4027 11.836H57.8107C57.6587 12.18 57.4987 12.44 57.3307 12.616C57.1627 12.792 56.9547 12.912 56.7067 12.976C56.4587 13.032 56.1307 13.06 55.7227 13.06C55.5227 13.06 55.3067 13.028 55.0747 12.964C54.8507 12.9 54.6547 12.776 54.4867 12.592C54.3187 12.4 54.2187 12.116 54.1867 11.74L54.5467 11.668C54.4107 12.076 54.2427 12.38 54.0427 12.58C53.8507 12.772 53.6187 12.9 53.3467 12.964C53.0747 13.028 52.7547 13.06 52.3867 13.06ZM57.5587 6.46C57.3907 6.46 57.2467 6.404 57.1267 6.292C57.0147 6.172 56.9587 6.032 56.9587 5.872C56.9587 5.712 57.0147 5.572 57.1267 5.452C57.2467 5.332 57.3907 5.272 57.5587 5.272C57.7187 5.272 57.8547 5.332 57.9667 5.452C58.0867 5.572 58.1467 5.712 58.1467 5.872C58.1467 6.032 58.0867 6.172 57.9667 6.292C57.8547 6.404 57.7187 6.46 57.5587 6.46ZM56.7427 7.78C56.5747 7.78 56.4307 7.724 56.3107 7.612C56.1987 7.492 56.1427 7.352 56.1427 7.192C56.1427 7.032 56.1987 6.892 56.3107 6.772C56.4307 6.652 56.5747 6.592 56.7427 6.592C56.9027 6.592 57.0387 6.652 57.1507 6.772C57.2707 6.892 57.3307 7.032 57.3307 7.192C57.3307 7.352 57.2707 7.492 57.1507 7.612C57.0387 7.724 56.9027 7.78 56.7427 7.78ZM58.3747 7.78C58.2067 7.78 58.0627 7.724 57.9427 7.612C57.8307 7.492 57.7747 7.352 57.7747 7.192C57.7747 7.032 57.8307 6.892 57.9427 6.772C58.0627 6.652 58.2067 6.592 58.3747 6.592C58.5347 6.592 58.6707 6.652 58.7827 6.772C58.9027 6.892 58.9627 7.032 58.9627 7.192C58.9627 7.352 58.9027 7.492 58.7827 7.612C58.6707 7.724 58.5347 7.78 58.3747 7.78ZM62.582 13.06L62.702 12.076C63.094 12.076 63.406 12.052 63.638 12.004C63.87 11.956 64.038 11.86 64.142 11.716C64.246 11.564 64.298 11.34 64.298 11.044C64.298 10.844 64.266 10.608 64.202 10.336C64.138 10.056 64.054 9.76 63.95 9.448C63.846 9.136 63.734 8.828 63.614 8.524L64.586 8.164C64.69 8.42 64.786 8.712 64.874 9.04C64.97 9.368 65.05 9.692 65.114 10.012C65.178 10.332 65.21 10.612 65.21 10.852C65.21 11.172 65.174 11.456 65.102 11.704C65.038 11.944 64.938 12.152 64.802 12.328C64.666 12.496 64.49 12.636 64.274 12.748C64.066 12.852 63.822 12.932 63.542 12.988C63.262 13.036 62.942 13.06 62.582 13.06ZM63.026 6.832L62.882 6.184C63.09 6.136 63.258 6.096 63.386 6.064C63.514 6.032 63.658 5.996 63.818 5.956L63.758 6.208C63.55 6.144 63.35 6.008 63.158 5.8C62.974 5.592 62.882 5.356 62.882 5.092C62.882 4.852 62.938 4.652 63.05 4.492C63.17 4.324 63.322 4.2 63.506 4.12C63.698 4.04 63.902 4 64.118 4C64.206 4 64.298 4.008 64.394 4.024C64.498 4.04 64.594 4.064 64.682 4.096L64.586 4.696C64.506 4.68 64.43 4.664 64.358 4.648C64.286 4.632 64.206 4.624 64.118 4.624C63.934 4.624 63.79 4.664 63.686 4.744C63.582 4.816 63.53 4.92 63.53 5.056C63.53 5.224 63.582 5.368 63.686 5.488C63.798 5.608 63.922 5.704 64.058 5.776C64.202 5.84 64.318 5.872 64.406 5.872L63.914 5.92C64.13 5.864 64.33 5.808 64.514 5.752C64.706 5.688 64.878 5.628 65.03 5.572L65.222 6.184C65.03 6.256 64.802 6.332 64.538 6.412C64.282 6.492 64.022 6.568 63.758 6.64C63.494 6.712 63.25 6.776 63.026 6.832ZM69.2967 13.06C68.6567 13.06 68.1647 12.988 67.8207 12.844C67.4847 12.7 67.2527 12.476 67.1247 12.172C66.9967 11.868 66.9247 11.476 66.9087 10.996L66.6687 4.432H67.6527L67.8927 10.612C67.9087 11.004 67.9447 11.308 68.0007 11.524C68.0647 11.732 68.2007 11.876 68.4087 11.956C68.6247 12.036 68.9607 12.076 69.4167 12.076C69.5847 12.076 69.7047 12.124 69.7767 12.22C69.8567 12.308 69.8967 12.416 69.8967 12.544C69.8967 12.672 69.8407 12.792 69.7287 12.904C69.6167 13.008 69.4727 13.06 69.2967 13.06ZM70.9289 13.324L71.2409 13.636C70.9929 13.772 70.8329 13.928 70.7609 14.104C70.6889 14.288 70.6929 14.5 70.7729 14.74L70.2689 14.596C70.3329 14.524 70.4049 14.468 70.4849 14.428C70.5649 14.388 70.6529 14.368 70.7489 14.368C70.8929 14.368 71.0129 14.4 71.1089 14.464C71.2049 14.536 71.2529 14.636 71.2529 14.764C71.2529 14.868 71.2129 14.976 71.1329 15.088C71.0529 15.2 70.9209 15.256 70.7369 15.256C70.5849 15.256 70.4529 15.2 70.3409 15.088C70.2369 14.976 70.1849 14.808 70.1849 14.584C70.1849 14.448 70.2089 14.3 70.2569 14.14C70.3129 13.98 70.3929 13.824 70.4969 13.672C70.6089 13.528 70.7529 13.412 70.9289 13.324ZM69.2969 13.06L69.4169 12.076C69.8089 12.076 70.1209 12.052 70.3529 12.004C70.5849 11.956 70.7529 11.86 70.8569 11.716C70.9609 11.564 71.0129 11.34 71.0129 11.044C71.0129 10.844 70.9809 10.608 70.9169 10.336C70.8529 10.056 70.7689 9.76 70.6649 9.448C70.5609 9.136 70.4489 8.828 70.3289 8.524L71.3009 8.164C71.4049 8.42 71.5009 8.712 71.5889 9.04C71.6849 9.368 71.7649 9.692 71.8289 10.012C71.8929 10.332 71.9249 10.612 71.9249 10.852C71.9249 11.172 71.8889 11.456 71.8169 11.704C71.7529 11.944 71.6529 12.152 71.5169 12.328C71.3809 12.496 71.2049 12.636 70.9889 12.748C70.7809 12.852 70.5369 12.932 70.2569 12.988C69.9769 13.036 69.6569 13.06 69.2969 13.06ZM72.5675 15.76L72.2195 14.848C73.0275 14.592 73.6475 14.284 74.0795 13.924C74.5195 13.572 74.8195 13.204 74.9795 12.82C75.1475 12.436 75.2315 12.068 75.2315 11.716C75.2315 11.492 75.2075 11.276 75.1595 11.068C75.1115 10.86 75.0275 10.624 74.9075 10.36C74.7875 10.096 74.6195 9.768 74.4035 9.376L75.2795 8.932C75.5835 9.452 75.7995 9.944 75.9275 10.408C76.0635 10.872 76.1315 11.28 76.1315 11.632C76.1315 12.136 76.0475 12.592 75.8795 13C75.7195 13.408 75.5035 13.768 75.2315 14.08C74.9675 14.4 74.6755 14.672 74.3555 14.896C74.0435 15.12 73.7275 15.304 73.4075 15.448C73.0955 15.592 72.8155 15.696 72.5675 15.76ZM80.2858 13.012C80.2858 12.82 80.3018 12.616 80.3338 12.4C80.3738 12.176 80.4298 11.94 80.5018 11.692C80.5818 11.436 80.6778 11.168 80.7898 10.888L81.6538 11.224C81.5738 11.448 81.5018 11.66 81.4378 11.86C81.3818 12.06 81.3378 12.248 81.3058 12.424C81.2818 12.6 81.2698 12.768 81.2698 12.928C81.2698 13.264 81.3418 13.548 81.4858 13.78C81.6378 14.02 81.8458 14.216 82.1098 14.368C82.3738 14.52 82.6738 14.632 83.0098 14.704C83.3538 14.776 83.7178 14.812 84.1018 14.812C84.5658 14.812 84.9978 14.772 85.3978 14.692C85.8058 14.612 86.1618 14.496 86.4658 14.344C86.7778 14.2 87.0218 14.032 87.1978 13.84C87.3738 13.656 87.4618 13.456 87.4618 13.24C87.4618 13.136 87.4218 13.04 87.3418 12.952C87.2618 12.864 87.1418 12.78 86.9818 12.7C86.8218 12.62 86.6298 12.544 86.4058 12.472C86.1818 12.392 85.9258 12.312 85.6378 12.232L85.8658 11.236C86.2818 11.396 86.6498 11.532 86.9698 11.644C87.2898 11.748 87.5698 11.832 87.8098 11.896C88.0498 11.96 88.2578 12.008 88.4338 12.04C88.6098 12.064 88.7578 12.076 88.8778 12.076C89.0458 12.076 89.1658 12.124 89.2378 12.22C89.3178 12.308 89.3578 12.416 89.3578 12.544C89.3578 12.672 89.3018 12.792 89.1898 12.904C89.0778 13.008 88.9338 13.06 88.7578 13.06C88.7098 13.06 88.6618 13.06 88.6138 13.06C88.5658 13.06 88.5138 13.06 88.4578 13.06C88.4098 13.06 88.3618 13.06 88.3138 13.06C88.3298 13.132 88.3418 13.188 88.3498 13.228C88.3578 13.276 88.3618 13.336 88.3618 13.408C88.3618 13.704 88.2578 13.992 88.0498 14.272C87.8498 14.552 87.5538 14.804 87.1618 15.028C86.7698 15.26 86.2938 15.444 85.7338 15.58C85.1818 15.716 84.5498 15.784 83.8378 15.784C83.2058 15.784 82.6178 15.68 82.0738 15.472C81.5378 15.272 81.1058 14.968 80.7778 14.56C80.4498 14.152 80.2858 13.636 80.2858 13.012ZM88.7617 13.06L88.8817 12.076C89.3537 12.076 89.7217 12.06 89.9857 12.028C90.2497 11.988 90.4377 11.896 90.5497 11.752C90.6617 11.6 90.7177 11.364 90.7177 11.044C90.7177 10.844 90.6857 10.608 90.6217 10.336C90.5577 10.056 90.4737 9.76 90.3697 9.448C90.2657 9.136 90.1537 8.828 90.0337 8.524L91.0057 8.164C91.1097 8.42 91.2057 8.712 91.2937 9.04C91.3897 9.368 91.4697 9.692 91.5337 10.012C91.5977 10.332 91.6297 10.612 91.6297 10.852C91.6297 11.252 91.5737 11.592 91.4617 11.872C91.3577 12.152 91.1897 12.38 90.9577 12.556C90.7257 12.732 90.4257 12.86 90.0577 12.94C89.6977 13.02 89.2657 13.06 88.7617 13.06ZM90.1057 16.66C89.9457 16.66 89.8057 16.6 89.6857 16.48C89.5737 16.36 89.5177 16.22 89.5177 16.06C89.5177 15.9 89.5737 15.76 89.6857 15.64C89.8057 15.528 89.9457 15.472 90.1057 15.472C90.2737 15.472 90.4137 15.528 90.5257 15.64C90.6457 15.76 90.7057 15.9 90.7057 16.06C90.7057 16.22 90.6457 16.36 90.5257 16.48C90.4137 16.6 90.2737 16.66 90.1057 16.66ZM90.9217 15.34C90.7617 15.34 90.6217 15.28 90.5017 15.16C90.3897 15.04 90.3337 14.9 90.3337 14.74C90.3337 14.58 90.3897 14.44 90.5017 14.32C90.6217 14.208 90.7617 14.152 90.9217 14.152C91.0897 14.152 91.2297 14.208 91.3417 14.32C91.4617 14.44 91.5217 14.58 91.5217 14.74C91.5217 14.9 91.4617 15.04 91.3417 15.16C91.2297 15.28 91.0897 15.34 90.9217 15.34ZM89.2897 15.34C89.1297 15.34 88.9897 15.28 88.8697 15.16C88.7577 15.04 88.7017 14.9 88.7017 14.74C88.7017 14.58 88.7577 14.44 88.8697 14.32C88.9897 14.208 89.1297 14.152 89.2897 14.152C89.4577 14.152 89.5977 14.208 89.7097 14.32C89.8297 14.44 89.8897 14.58 89.8897 14.74C89.8897 14.9 89.8297 15.04 89.7097 15.16C89.5977 15.28 89.4577 15.34 89.2897 15.34ZM92.3957 15.76L92.0477 14.848C92.8557 14.592 93.4757 14.284 93.9077 13.924C94.3477 13.572 94.6477 13.204 94.8077 12.82C94.9757 12.436 95.0597 12.068 95.0597 11.716C95.0597 11.492 95.0357 11.276 94.9877 11.068C94.9397 10.86 94.8557 10.624 94.7357 10.36C94.6157 10.096 94.4477 9.768 94.2317 9.376L95.1077 8.932C95.4117 9.452 95.6277 9.944 95.7557 10.408C95.8917 10.872 95.9597 11.28 95.9597 11.632C95.9597 12.136 95.8757 12.592 95.7077 13C95.5477 13.408 95.3317 13.768 95.0597 14.08C94.7957 14.4 94.5037 14.672 94.1837 14.896C93.8717 15.12 93.5557 15.304 93.2357 15.448C92.9237 15.592 92.6437 15.696 92.3957 15.76ZM97.4499 15.76L97.2339 14.776C97.7139 14.712 98.1539 14.62 98.5539 14.5C98.9619 14.388 99.3099 14.224 99.5979 14.008C99.8939 13.792 100.122 13.508 100.282 13.156C100.442 12.804 100.522 12.364 100.522 11.836C100.522 11.292 100.422 10.84 100.222 10.48C100.022 10.12 99.7619 9.94 99.4419 9.94C99.2739 9.94 99.1179 10.004 98.9739 10.132C98.8299 10.26 98.7099 10.432 98.6139 10.648C98.5259 10.864 98.4819 11.1 98.4819 11.356C98.4819 11.5 98.5139 11.62 98.5779 11.716C98.6419 11.804 98.7339 11.876 98.8539 11.932C98.9819 11.98 99.1419 12.016 99.3339 12.04C99.5259 12.064 99.7499 12.076 100.006 12.076H102.538C102.706 12.076 102.826 12.124 102.898 12.22C102.978 12.308 103.018 12.416 103.018 12.544C103.018 12.672 102.962 12.792 102.85 12.904C102.738 13.008 102.594 13.06 102.418 13.06H99.5499C99.1899 13.06 98.8539 13.008 98.5419 12.904C98.2379 12.8 97.9899 12.64 97.7979 12.424C97.6139 12.2 97.5219 11.908 97.5219 11.548C97.5219 11.212 97.5739 10.892 97.6779 10.588C97.7819 10.276 97.9219 10 98.0979 9.76C98.2819 9.512 98.4939 9.316 98.7339 9.172C98.9819 9.028 99.2499 8.956 99.5379 8.956C99.9059 8.956 100.234 9.064 100.522 9.28C100.81 9.496 101.038 9.824 101.206 10.264C101.374 10.696 101.458 11.244 101.458 11.908C101.458 12.652 101.306 13.292 101.002 13.828C100.706 14.372 100.258 14.804 99.6579 15.124C99.0659 15.444 98.3299 15.656 97.4499 15.76ZM102.414 13.06L102.534 12.076C103.006 12.076 103.374 12.06 103.638 12.028C103.902 11.988 104.09 11.896 104.202 11.752C104.314 11.6 104.37 11.364 104.37 11.044C104.37 10.844 104.338 10.608 104.274 10.336C104.21 10.056 104.126 9.76 104.022 9.448C103.918 9.136 103.806 8.828 103.686 8.524L104.658 8.164C104.762 8.42 104.858 8.712 104.946 9.04C105.042 9.368 105.122 9.692 105.186 10.012C105.25 10.332 105.282 10.612 105.282 10.852C105.282 11.252 105.226 11.592 105.114 11.872C105.01 12.152 104.842 12.38 104.61 12.556C104.378 12.732 104.078 12.86 103.71 12.94C103.35 13.02 102.918 13.06 102.414 13.06ZM104.634 15.328C104.466 15.328 104.322 15.268 104.202 15.148C104.09 15.036 104.034 14.9 104.034 14.74C104.034 14.58 104.09 14.44 104.202 14.32C104.322 14.2 104.466 14.14 104.634 14.14C104.794 14.14 104.93 14.2 105.042 14.32C105.162 14.44 105.222 14.58 105.222 14.74C105.222 14.9 105.162 15.036 105.042 15.148C104.93 15.268 104.794 15.328 104.634 15.328ZM102.99 15.328C102.822 15.328 102.678 15.268 102.558 15.148C102.446 15.036 102.39 14.9 102.39 14.74C102.39 14.58 102.446 14.44 102.558 14.32C102.678 14.2 102.822 14.14 102.99 14.14C103.15 14.14 103.286 14.2 103.398 14.32C103.518 14.44 103.578 14.58 103.578 14.74C103.578 14.9 103.518 15.036 103.398 15.148C103.286 15.268 103.15 15.328 102.99 15.328Z" fill="black"/>
</svg>
