<svg width="32" height="12" viewBox="0 0 32 12" fill="none" xmlns="http://www.w3.org/2000/svg">
<path d="M5.10969 9.252L5.42169 8.268C5.90969 8.268 6.42569 8.24 6.96969 8.184C7.51369 8.12 8.05369 8.012 8.58969 7.86C9.13369 7.7 9.64969 7.484 10.1377 7.212C10.6257 6.94 11.0537 6.596 11.4217 6.18L12.1777 6.624C12.1057 6.808 12.0577 6.956 12.0337 7.068C12.0097 7.172 11.9977 7.268 11.9977 7.356C11.9977 7.476 12.0417 7.592 12.1297 7.704C12.2177 7.808 12.3817 7.896 12.6217 7.968C12.8697 8.04 13.2177 8.076 13.6657 8.076C13.8337 8.076 13.9537 8.124 14.0257 8.22C14.1057 8.308 14.1457 8.416 14.1457 8.544C14.1457 8.672 14.0897 8.792 13.9777 8.904C13.8657 9.008 13.7217 9.06 13.5457 9.06C13.0337 9.06 12.5817 9.008 12.1897 8.904C11.8057 8.792 11.5177 8.62 11.3257 8.388C11.1417 8.148 11.0817 7.84 11.1457 7.464L11.3617 7.536C11.0417 7.824 10.6577 8.076 10.2097 8.292C9.76969 8.5 9.27769 8.676 8.73369 8.82C8.19769 8.964 7.62169 9.072 7.00569 9.144C6.39769 9.216 5.76569 9.252 5.10969 9.252ZM5.10969 9.252C4.39769 9.252 3.76969 9.204 3.22569 9.108C2.68969 9.02 2.24169 8.88 1.88169 8.688C1.52169 8.496 1.24969 8.248 1.06569 7.944C0.881688 7.632 0.789688 7.256 0.789688 6.816C0.789688 6.616 0.805688 6.412 0.837688 6.204C0.869688 5.988 0.909688 5.772 0.957688 5.556C1.01369 5.34 1.06969 5.132 1.12569 4.932L2.02569 5.16C1.99369 5.28 1.95769 5.424 1.91769 5.592C1.87769 5.752 1.84169 5.916 1.80969 6.084C1.78569 6.252 1.77369 6.404 1.77369 6.54C1.77369 6.956 1.87769 7.292 2.08569 7.548C2.30169 7.796 2.67369 7.98 3.20169 8.1C3.72969 8.212 4.46969 8.268 5.42169 8.268L5.66169 8.868L5.10969 9.252ZM7.12569 4.188C6.95769 4.188 6.81369 4.132 6.69369 4.02C6.58169 3.9 6.52569 3.76 6.52569 3.6C6.52569 3.44 6.58169 3.3 6.69369 3.18C6.81369 3.06 6.95769 3 7.12569 3C7.28569 3 7.42169 3.06 7.53369 3.18C7.65369 3.3 7.71369 3.44 7.71369 3.6C7.71369 3.76 7.65369 3.9 7.53369 4.02C7.42169 4.132 7.28569 4.188 7.12569 4.188ZM5.48169 4.188C5.31369 4.188 5.16969 4.132 5.04969 4.02C4.93769 3.9 4.88169 3.76 4.88169 3.6C4.88169 3.44 4.93769 3.3 5.04969 3.18C5.16969 3.06 5.31369 3 5.48169 3C5.64169 3 5.77769 3.06 5.88969 3.18C6.00969 3.3 6.06969 3.44 6.06969 3.6C6.06969 3.76 6.00969 3.9 5.88969 4.02C5.77769 4.132 5.64169 4.188 5.48169 4.188ZM13.543 9.06L13.663 8.076C14.135 8.076 14.503 8.06 14.767 8.028C15.031 7.988 15.219 7.896 15.331 7.752C15.443 7.6 15.499 7.364 15.499 7.044C15.499 6.844 15.467 6.608 15.403 6.336C15.339 6.056 15.255 5.76 15.151 5.448C15.047 5.136 14.935 4.828 14.815 4.524L15.787 4.164C15.891 4.42 15.987 4.712 16.075 5.04C16.171 5.368 16.251 5.692 16.315 6.012C16.379 6.332 16.411 6.612 16.411 6.852C16.411 7.252 16.355 7.592 16.243 7.872C16.139 8.152 15.971 8.38 15.739 8.556C15.507 8.732 15.207 8.86 14.839 8.94C14.479 9.02 14.047 9.06 13.543 9.06ZM15.763 11.328C15.595 11.328 15.451 11.268 15.331 11.148C15.219 11.036 15.163 10.9 15.163 10.74C15.163 10.58 15.219 10.44 15.331 10.32C15.451 10.2 15.595 10.14 15.763 10.14C15.923 10.14 16.059 10.2 16.171 10.32C16.291 10.44 16.351 10.58 16.351 10.74C16.351 10.9 16.291 11.036 16.171 11.148C16.059 11.268 15.923 11.328 15.763 11.328ZM14.119 11.328C13.951 11.328 13.807 11.268 13.687 11.148C13.575 11.036 13.519 10.9 13.519 10.74C13.519 10.58 13.575 10.44 13.687 10.32C13.807 10.2 13.951 10.14 14.119 10.14C14.279 10.14 14.415 10.2 14.527 10.32C14.647 10.44 14.707 10.58 14.707 10.74C14.707 10.9 14.647 11.036 14.527 11.148C14.415 11.268 14.279 11.328 14.119 11.328ZM19.7089 8.076C20.1089 8.076 20.4249 8.036 20.6569 7.956C20.8969 7.876 21.0689 7.76 21.1729 7.608C21.2849 7.448 21.3409 7.264 21.3409 7.056C21.3409 6.896 21.2969 6.704 21.2089 6.48C21.1289 6.256 21.0169 6.008 20.8729 5.736C20.7289 5.456 20.5609 5.164 20.3689 4.86C20.1849 4.548 19.9849 4.232 19.7689 3.912L20.5969 3.372C20.9089 3.844 21.1809 4.292 21.4129 4.716C21.6449 5.132 21.8409 5.524 22.0009 5.892C22.1609 6.252 22.2889 6.592 22.3849 6.912C22.4969 7.264 22.6209 7.524 22.7569 7.692C22.9009 7.86 23.0489 7.968 23.2009 8.016C23.3529 8.056 23.4929 8.076 23.6209 8.076C23.7889 8.076 23.9129 8.124 23.9929 8.22C24.0729 8.308 24.1129 8.416 24.1129 8.544C24.1129 8.672 24.0569 8.792 23.9449 8.904C23.8329 9.008 23.6889 9.06 23.5129 9.06C23.2489 9.06 22.9889 9.012 22.7329 8.916C22.4849 8.812 22.2689 8.648 22.0849 8.424C21.9009 8.192 21.7729 7.884 21.7009 7.5L22.1809 7.116C22.1809 7.436 22.1129 7.748 21.9769 8.052C21.8409 8.348 21.5929 8.592 21.2329 8.784C20.8809 8.976 20.3729 9.072 19.7089 9.072C19.4209 9.072 19.1409 9.048 18.8689 9C18.6049 8.952 18.3609 8.884 18.1369 8.796C17.9129 8.7 17.7169 8.588 17.5489 8.46L18.0289 7.632C18.1889 7.736 18.4129 7.836 18.7009 7.932C18.9889 8.028 19.3249 8.076 19.7089 8.076ZM23.5156 9.06L23.6236 8.076C24.0796 8.076 24.3996 8.032 24.5836 7.944C24.7676 7.856 24.8716 7.7 24.8956 7.476C24.9276 7.252 24.9356 6.94 24.9196 6.54L24.6916 0.431999H25.6636L25.9036 6.432C25.9196 6.856 25.9036 7.232 25.8556 7.56C25.8156 7.888 25.7116 8.164 25.5436 8.388C25.3836 8.612 25.1396 8.78 24.8116 8.892C24.4916 9.004 24.0596 9.06 23.5156 9.06ZM27.3288 11.76L27.1128 10.776C27.5928 10.712 28.0328 10.62 28.4328 10.5C28.8408 10.388 29.1888 10.224 29.4768 10.008C29.7728 9.792 30.0008 9.508 30.1608 9.156C30.3208 8.804 30.4008 8.364 30.4008 7.836C30.4008 7.588 30.3768 7.352 30.3288 7.128C30.2808 6.896 30.2088 6.692 30.1128 6.516C30.0168 6.34 29.9008 6.2 29.7648 6.096C29.6368 5.992 29.4888 5.94 29.3208 5.94C29.1368 5.94 28.9688 6.012 28.8168 6.156C28.6728 6.292 28.5568 6.468 28.4688 6.684C28.3888 6.9 28.3488 7.116 28.3488 7.332C28.3488 7.5 28.3808 7.648 28.4448 7.776C28.5168 7.896 28.6328 7.988 28.7928 8.052C28.9528 8.116 29.1608 8.148 29.4168 8.148C29.6488 8.148 29.8808 8.124 30.1128 8.076C30.3528 8.028 30.5568 7.964 30.7248 7.884L30.7728 8.724C30.5808 8.86 30.3528 8.956 30.0888 9.012C29.8328 9.068 29.5728 9.096 29.3088 9.096C29.0048 9.096 28.7328 9.064 28.4928 9C28.2608 8.936 28.0608 8.844 27.8928 8.724C27.7328 8.596 27.6088 8.436 27.5208 8.244C27.4408 8.052 27.4008 7.828 27.4008 7.572C27.4008 7.268 27.4488 6.964 27.5448 6.66C27.6408 6.348 27.7768 6.064 27.9528 5.808C28.1288 5.552 28.3408 5.348 28.5888 5.196C28.8368 5.036 29.1128 4.956 29.4168 4.956C29.7368 4.956 30.0168 5.04 30.2568 5.208C30.4968 5.368 30.6968 5.588 30.8568 5.868C31.0168 6.148 31.1368 6.464 31.2168 6.816C31.2968 7.168 31.3368 7.532 31.3368 7.908C31.3368 8.652 31.1848 9.292 30.8808 9.828C30.5848 10.372 30.1368 10.804 29.5368 11.124C28.9448 11.444 28.2088 11.656 27.3288 11.76Z" fill="black"/>
</svg>
