<svg width="27" height="9" viewBox="0 0 27 9" fill="none" xmlns="http://www.w3.org/2000/svg">
<path d="M4.35366 8.784C3.89766 8.784 3.46566 8.72 3.05766 8.592C2.64966 8.472 2.28566 8.292 1.96566 8.052C1.65366 7.812 1.40566 7.52 1.22166 7.176C1.04566 6.84 0.957656 6.452 0.957656 6.012C0.957656 5.82 0.973656 5.616 1.00566 5.4C1.04566 5.176 1.10166 4.94 1.17366 4.692C1.25366 4.436 1.34966 4.168 1.46166 3.888L2.32566 4.224C2.24566 4.448 2.17366 4.66 2.10966 4.86C2.05366 5.06 2.00966 5.248 1.97766 5.424C1.95366 5.6 1.94166 5.768 1.94166 5.928C1.94166 6.336 2.04966 6.68 2.26566 6.96C2.48966 7.24 2.78566 7.448 3.15366 7.584C3.52966 7.728 3.94166 7.8 4.38966 7.8C4.93366 7.8 5.38966 7.736 5.75766 7.608C6.12566 7.488 6.41766 7.324 6.63366 7.116C6.84966 6.916 7.00166 6.688 7.08966 6.432C7.18566 6.184 7.23366 5.936 7.23366 5.688C7.23366 5.336 7.20566 5.004 7.14966 4.692C7.10166 4.38 7.03366 4.076 6.94566 3.78C6.86566 3.476 6.77766 3.168 6.68166 2.856L7.65366 2.592C7.78166 3.048 7.86966 3.38 7.91766 3.588C7.97366 3.788 8.01766 3.952 8.04966 4.08C8.13766 4.376 8.23766 4.596 8.34966 4.74C8.46966 4.876 8.60566 4.968 8.75766 5.016C8.91766 5.056 9.09766 5.076 9.29766 5.076C9.45766 5.076 9.59766 5.056 9.71766 5.016C9.84566 4.976 9.96166 4.88 10.0657 4.728C10.1777 4.576 10.2737 4.332 10.3537 3.996C10.4417 3.66 10.5217 3.2 10.5937 2.616L11.5057 2.784C11.4817 2.928 11.4537 3.104 11.4217 3.312C11.3897 3.52 11.3577 3.728 11.3257 3.936C11.3017 4.136 11.2897 4.304 11.2897 4.44C11.2897 4.552 11.3137 4.66 11.3617 4.764C11.4177 4.86 11.5217 4.936 11.6737 4.992C11.8337 5.048 12.0697 5.076 12.3817 5.076C12.7817 5.076 13.0697 4.992 13.2457 4.824C13.4297 4.656 13.5217 4.4 13.5217 4.056C13.5217 3.872 13.5177 3.68 13.5097 3.48C13.5017 3.272 13.4857 3.044 13.4617 2.796C13.4457 2.54 13.4177 2.248 13.3777 1.92L14.2537 1.86C14.3017 2.508 14.3537 3.04 14.4097 3.456C14.4737 3.872 14.5617 4.2 14.6737 4.44C14.7937 4.672 14.9537 4.836 15.1537 4.932C15.3537 5.028 15.6177 5.076 15.9457 5.076C16.1137 5.076 16.2337 5.124 16.3057 5.22C16.3857 5.308 16.4257 5.416 16.4257 5.544C16.4257 5.672 16.3697 5.792 16.2577 5.904C16.1457 6.008 16.0017 6.06 15.8257 6.06C15.4657 6.06 15.1537 5.996 14.8897 5.868C14.6337 5.74 14.4257 5.568 14.2657 5.352C14.1137 5.128 14.0097 4.888 13.9537 4.632L14.1697 4.704C14.0817 5.064 13.9417 5.344 13.7497 5.544C13.5657 5.736 13.3457 5.872 13.0897 5.952C12.8337 6.024 12.5617 6.06 12.2737 6.06C11.9217 6.06 11.6337 6.016 11.4097 5.928C11.1857 5.84 11.0097 5.708 10.8817 5.532C10.7617 5.348 10.6817 5.116 10.6417 4.836H11.0497C10.9217 5.124 10.7777 5.36 10.6177 5.544C10.4577 5.72 10.2657 5.852 10.0417 5.94C9.82566 6.02 9.55766 6.06 9.23766 6.06C8.98966 6.06 8.77766 6.028 8.60166 5.964C8.42566 5.892 8.27766 5.804 8.15766 5.7C8.04566 5.588 7.95766 5.464 7.89366 5.328C7.82966 5.184 7.78166 5.04 7.74966 4.896L8.24166 5.508C8.20966 5.908 8.12566 6.3 7.98966 6.684C7.86166 7.076 7.65366 7.428 7.36566 7.74C7.07766 8.06 6.68966 8.312 6.20166 8.496C5.71366 8.688 5.09766 8.784 4.35366 8.784ZM15.8203 6.06L15.9403 5.076C16.2763 5.076 16.5403 5.048 16.7323 4.992C16.9243 4.928 17.0683 4.812 17.1643 4.644C17.2683 4.468 17.3563 4.216 17.4283 3.888C17.5003 3.56 17.5883 3.132 17.6923 2.604L18.6283 2.784C18.5963 2.928 18.5603 3.088 18.5203 3.264C18.4803 3.44 18.4443 3.616 18.4123 3.792C18.3883 3.96 18.3763 4.108 18.3763 4.236C18.3763 4.396 18.4123 4.54 18.4843 4.668C18.5563 4.796 18.7123 4.896 18.9523 4.968C19.1923 5.04 19.5603 5.076 20.0563 5.076C20.2243 5.076 20.3443 5.124 20.4163 5.22C20.4963 5.308 20.5363 5.416 20.5363 5.544C20.5363 5.672 20.4803 5.792 20.3683 5.904C20.2563 6.008 20.1123 6.06 19.9363 6.06C19.4163 6.06 19.0083 6.016 18.7123 5.928C18.4163 5.832 18.2003 5.692 18.0643 5.508C17.9283 5.316 17.8363 5.084 17.7883 4.812L18.1483 4.836C18.0203 5.092 17.8803 5.3 17.7283 5.46C17.5843 5.62 17.4243 5.744 17.2483 5.832C17.0723 5.92 16.8683 5.98 16.6363 6.012C16.4043 6.044 16.1323 6.06 15.8203 6.06ZM17.6923 1.368C17.5243 1.368 17.3803 1.312 17.2603 1.2C17.1483 1.08 17.0923 0.94 17.0923 0.78C17.0923 0.62 17.1483 0.48 17.2603 0.36C17.3803 0.24 17.5243 0.18 17.6923 0.18C17.8523 0.18 17.9883 0.24 18.1003 0.36C18.2203 0.48 18.2803 0.62 18.2803 0.78C18.2803 0.94 18.2203 1.08 18.1003 1.2C17.9883 1.312 17.8523 1.368 17.6923 1.368ZM19.9336 6.06L20.0416 5.076C20.4576 5.076 20.8656 5.044 21.2656 4.98C21.6656 4.916 22.0576 4.824 22.4416 4.704C22.8256 4.584 23.1936 4.44 23.5456 4.272C23.9056 4.096 24.2456 3.896 24.5656 3.672C24.3576 3.488 24.1176 3.328 23.8456 3.192C23.5736 3.056 23.2736 2.952 22.9456 2.88C22.6256 2.8 22.2856 2.76 21.9256 2.76C21.7976 2.76 21.6776 2.764 21.5656 2.772C21.4536 2.78 21.3416 2.796 21.2296 2.82C21.1176 2.836 20.9896 2.86 20.8456 2.892L20.6536 1.98C20.8696 1.916 21.0856 1.868 21.3016 1.836C21.5176 1.796 21.7256 1.776 21.9256 1.776C22.3416 1.776 22.7176 1.828 23.0536 1.932C23.3896 2.028 23.6936 2.148 23.9656 2.292C24.2456 2.436 24.5056 2.58 24.7456 2.724C24.9936 2.868 25.2336 2.992 25.4656 3.096C25.6976 3.192 25.9376 3.24 26.1856 3.24H26.4376L26.5216 4.104C26.1776 4.104 25.8616 4.152 25.5736 4.248C25.2856 4.344 25.0016 4.468 24.7216 4.62C24.4496 4.764 24.1616 4.92 23.8576 5.088C23.5536 5.248 23.2176 5.404 22.8496 5.556C22.4816 5.7 22.0576 5.82 21.5776 5.916C21.1056 6.012 20.5576 6.06 19.9336 6.06ZM23.2816 8.232C23.1136 8.232 22.9696 8.172 22.8496 8.052C22.7376 7.94 22.6816 7.804 22.6816 7.644C22.6816 7.484 22.7376 7.344 22.8496 7.224C22.9696 7.104 23.1136 7.044 23.2816 7.044C23.4416 7.044 23.5776 7.104 23.6896 7.224C23.8096 7.344 23.8696 7.484 23.8696 7.644C23.8696 7.804 23.8096 7.94 23.6896 8.052C23.5776 8.172 23.4416 8.232 23.2816 8.232Z" fill="black"/>
</svg>
