<svg width="22" height="15" viewBox="0 0 22 15" fill="none" xmlns="http://www.w3.org/2000/svg">
<path d="M20.9999 1.10012C20.8126 0.913869 20.5591 0.809326 20.2949 0.809326C20.0308 0.809326 19.7773 0.913869 19.5899 1.10012L8.48994 12.1501L2.48994 6.15012C2.30694 5.95253 2.05294 5.83574 1.78383 5.82542C1.51471 5.81511 1.25252 5.91212 1.05494 6.09512C0.85735 6.27812 0.740553 6.53211 0.730238 6.80123C0.719924 7.07034 0.816937 7.33253 0.999936 7.53012L8.48994 15.0001L20.9999 2.52012C21.0937 2.42716 21.1681 2.31655 21.2188 2.1947C21.2696 2.07284 21.2957 1.94213 21.2957 1.81012C21.2957 1.67811 21.2696 1.5474 21.2188 1.42554C21.1681 1.30368 21.0937 1.19308 20.9999 1.10012Z" fill="#4BB543"/>
</svg>
