<svg width="40" height="40" viewBox="0 0 40 40" fill="none" xmlns="http://www.w3.org/2000/svg">
<path fill-rule="evenodd" clip-rule="evenodd" d="M28.6048 0C31.8208 0 34.5948 1.074 36.6248 3.108C38.7468 5.232 39.9108 8.322 39.9068 11.81L39.9097 25.8028C39.9132 25.8566 39.9138 25.9106 39.9116 25.9645L39.9068 28.1C39.9068 35.162 35.3608 39.908 28.5948 39.908H11.3028C4.54279 39.908 0.000793457 35.162 0.000793457 28.1V11.808C0.000793457 4.746 4.54279 0 11.3028 0H28.6048ZM29.158 21.6646C27.982 21.6646 26.602 23.6106 25.38 25.3286C23.704 27.6886 21.97 30.1306 19.358 30.1306C17.592 30.1306 15.974 29.4506 14.548 28.8486C12.28 27.8926 11.252 27.5866 10.246 28.4146C8.23219 30.0741 6.24236 33.0959 5.32805 34.5829C6.77115 36.0707 8.82111 36.908 11.3028 36.908H28.5948C33.6448 36.908 36.9068 33.452 36.9068 28.1L36.9068 26.502L36.8607 26.4534C35.1098 24.6495 32.0865 21.6646 29.158 21.6646ZM28.6048 3H11.3028C6.26079 3 3.00079 6.458 3.00079 11.808V28.1C3.00079 29.4372 3.20429 30.656 3.58824 31.7321C4.74561 29.9847 6.49358 27.6188 8.33999 26.0986C10.844 24.0386 13.54 25.1706 15.712 26.0846C16.99 26.6226 18.198 27.1306 19.358 27.1306C20.422 27.1306 21.756 25.2506 22.936 23.5926C24.574 21.2806 26.434 18.6646 29.158 18.6646C32.1474 18.6646 34.8551 20.5017 36.9089 22.3249L36.9068 11.808C36.9108 9.082 36.0788 6.806 34.5028 5.228C33.0468 3.77 31.0088 3 28.6048 3ZM13.7148 8.379C16.5768 8.381 18.9048 10.709 18.9068 13.569V13.571C18.9068 16.433 16.5788 18.761 13.7148 18.761C10.8508 18.761 8.52279 16.433 8.52279 13.571C8.52279 10.707 10.8508 8.379 13.7148 8.379ZM13.7128 11.379C12.5048 11.379 11.5228 12.361 11.5228 13.571C11.5228 14.779 12.5048 15.761 13.7148 15.761C14.9228 15.761 15.9068 14.779 15.9068 13.573C15.9048 12.363 14.9208 11.381 13.7128 11.379Z" fill="url(#paint0_linear_28_1219)"/>
<defs>
<linearGradient id="paint0_linear_28_1219" x1="19.9569" y1="0" x2="19.9569" y2="39.908" gradientUnits="userSpaceOnUse">
<stop stop-color="#7A6FE3"/>
<stop offset="1" stop-color="#89CCDF"/>
</linearGradient>
</defs>
</svg>
