<svg width="13" height="14" viewBox="0 0 13 14" fill="none" xmlns="http://www.w3.org/2000/svg">
<path d="M1.36066 13.716C1.22466 13.188 1.10466 12.672 1.00066 12.168C0.904656 11.664 0.832656 11.2 0.784656 10.776C0.736656 10.352 0.712656 10.004 0.712656 9.732C0.712656 9.244 0.800656 8.84 0.976656 8.52C1.15266 8.192 1.38866 7.94 1.68466 7.764C1.98066 7.58 2.30866 7.456 2.66866 7.392C3.03666 7.328 3.41266 7.308 3.79666 7.332C4.18866 7.348 4.55666 7.396 4.90066 7.476C4.92466 7.204 4.90866 6.944 4.85266 6.696C4.80466 6.44 4.72066 6.216 4.60066 6.024C4.48866 5.824 4.34466 5.668 4.16866 5.556C3.99266 5.444 3.79266 5.388 3.56866 5.388C3.36866 5.388 3.18066 5.432 3.00466 5.52C2.82866 5.608 2.66066 5.744 2.50066 5.928C2.34866 6.104 2.20066 6.324 2.05666 6.588L1.31266 6.18C1.52066 5.748 1.74866 5.404 1.99666 5.148C2.25266 4.892 2.52066 4.708 2.80066 4.596C3.08066 4.476 3.35666 4.416 3.62866 4.416C4.03666 4.416 4.38066 4.504 4.66066 4.68C4.94066 4.848 5.16066 5.072 5.32066 5.352C5.48866 5.624 5.60866 5.92 5.68066 6.24C5.76066 6.552 5.80066 6.852 5.80066 7.14C5.80066 7.34 5.77666 7.54 5.72866 7.74C5.68066 7.94 5.62066 8.12 5.54866 8.28C5.48466 8.44 5.42066 8.564 5.35666 8.652C4.92466 8.524 4.52066 8.432 4.14466 8.376C3.76866 8.32 3.42866 8.304 3.12466 8.328C2.82866 8.344 2.57266 8.408 2.35666 8.52C2.14066 8.632 1.97666 8.792 1.86466 9C1.75266 9.208 1.69666 9.472 1.69666 9.792C1.69666 10.088 1.72066 10.44 1.76866 10.848C1.81666 11.256 1.88466 11.684 1.97266 12.132C2.06066 12.588 2.16466 13.036 2.28466 13.476L1.36066 13.716ZM9.77716 9.06C9.13716 9.06 8.64516 8.988 8.30116 8.844C7.96516 8.7 7.73316 8.476 7.60516 8.172C7.47716 7.868 7.40516 7.476 7.38916 6.996L7.14916 0.431999H8.13316L8.37316 6.612C8.38916 7.004 8.42516 7.308 8.48116 7.524C8.54516 7.732 8.68116 7.876 8.88916 7.956C9.10516 8.036 9.44116 8.076 9.89716 8.076C10.0652 8.076 10.1852 8.124 10.2572 8.22C10.3372 8.308 10.3772 8.416 10.3772 8.544C10.3772 8.672 10.3212 8.792 10.2092 8.904C10.0972 9.008 9.95316 9.06 9.77716 9.06ZM9.77734 9.06L9.89734 8.076C10.2893 8.076 10.6013 8.052 10.8333 8.004C11.0653 7.956 11.2333 7.86 11.3373 7.716C11.4413 7.564 11.4933 7.34 11.4933 7.044C11.4933 6.844 11.4613 6.608 11.3973 6.336C11.3333 6.056 11.2493 5.76 11.1453 5.448C11.0413 5.136 10.9293 4.828 10.8093 4.524L11.7813 4.164C11.8853 4.42 11.9813 4.712 12.0693 5.04C12.1653 5.368 12.2453 5.692 12.3093 6.012C12.3733 6.332 12.4053 6.612 12.4053 6.852C12.4053 7.172 12.3693 7.456 12.2973 7.704C12.2333 7.944 12.1333 8.152 11.9973 8.328C11.8613 8.496 11.6853 8.636 11.4693 8.748C11.2613 8.852 11.0173 8.932 10.7373 8.988C10.4573 9.036 10.1373 9.06 9.77734 9.06ZM11.3133 2.916C11.1453 2.916 11.0013 2.86 10.8813 2.748C10.7693 2.628 10.7133 2.488 10.7133 2.328C10.7133 2.168 10.7693 2.028 10.8813 1.908C11.0013 1.788 11.1453 1.728 11.3133 1.728C11.4733 1.728 11.6093 1.788 11.7213 1.908C11.8413 2.028 11.9013 2.168 11.9013 2.328C11.9013 2.488 11.8413 2.628 11.7213 2.748C11.6093 2.86 11.4733 2.916 11.3133 2.916Z" fill="black"/>
</svg>
