<svg width="48" height="14" viewBox="0 0 48 14" fill="none" xmlns="http://www.w3.org/2000/svg">
<path d="M0.508438 11.012C0.508438 10.724 0.548438 10.404 0.628438 10.052C0.708438 9.7 0.836438 9.312 1.01244 8.888L1.87644 9.224C1.74844 9.56 1.65244 9.868 1.58844 10.148C1.52444 10.428 1.49244 10.688 1.49244 10.928C1.49244 11.368 1.60044 11.724 1.81644 11.996C2.04044 12.276 2.33644 12.48 2.70444 12.608C3.08044 12.736 3.49244 12.8 3.94044 12.8C4.48444 12.8 4.94044 12.74 5.30844 12.62C5.67644 12.508 5.96844 12.352 6.18444 12.152C6.40044 11.952 6.55244 11.724 6.64044 11.468C6.73644 11.22 6.78444 10.96 6.78444 10.688C6.78444 10.336 6.75644 10.004 6.70044 9.692C6.65244 9.38 6.58444 9.076 6.49644 8.78C6.41644 8.476 6.32844 8.168 6.23244 7.856L7.20444 7.592C7.29244 7.896 7.36044 8.144 7.40844 8.336C7.45644 8.52 7.49244 8.668 7.51644 8.78C7.54844 8.892 7.57644 8.992 7.60044 9.08C7.68844 9.376 7.80444 9.596 7.94844 9.74C8.09244 9.876 8.25644 9.968 8.44044 10.016C8.63244 10.056 8.82844 10.076 9.02844 10.076C9.19644 10.076 9.31644 10.124 9.38844 10.22C9.46844 10.308 9.50844 10.416 9.50844 10.544C9.50844 10.672 9.45244 10.792 9.34044 10.904C9.22844 11.008 9.08444 11.06 8.90844 11.06C8.57244 11.06 8.29244 11.004 8.06844 10.892C7.84444 10.772 7.66844 10.624 7.54044 10.448C7.42044 10.272 7.34044 10.088 7.30044 9.896L7.79244 10.508C7.76844 10.916 7.68844 11.312 7.55244 11.696C7.42444 12.088 7.21644 12.44 6.92844 12.752C6.64044 13.072 6.24844 13.324 5.75244 13.508C5.26444 13.692 4.64844 13.784 3.90444 13.784C3.44844 13.784 3.01644 13.728 2.60844 13.616C2.20044 13.504 1.83644 13.332 1.51644 13.1C1.20444 12.876 0.956438 12.588 0.772438 12.236C0.596438 11.892 0.508438 11.484 0.508438 11.012ZM4.13244 6.224C3.96444 6.224 3.82044 6.168 3.70044 6.056C3.58844 5.936 3.53244 5.796 3.53244 5.636C3.53244 5.476 3.58844 5.336 3.70044 5.216C3.82044 5.096 3.96444 5.036 4.13244 5.036C4.29244 5.036 4.42844 5.096 4.54044 5.216C4.66044 5.336 4.72044 5.476 4.72044 5.636C4.72044 5.796 4.66044 5.936 4.54044 6.056C4.42844 6.168 4.29244 6.224 4.13244 6.224ZM8.91406 11.06L9.03406 10.076H11.5421C12.2381 10.076 12.8381 10.048 13.3421 9.992C13.8541 9.928 14.2741 9.836 14.6021 9.716C14.9301 9.596 15.1741 9.444 15.3341 9.26C15.4941 9.068 15.5741 8.844 15.5741 8.588C15.5741 8.452 15.5301 8.304 15.4421 8.144C15.3541 7.984 15.2181 7.848 15.0341 7.736C14.8501 7.616 14.6061 7.556 14.3021 7.556C13.9181 7.556 13.5341 7.656 13.1501 7.856C12.7741 8.056 12.4141 8.308 12.0701 8.612C11.7341 8.908 11.4341 9.212 11.1701 9.524C10.9061 9.836 10.6941 10.108 10.5341 10.34L9.49006 10.304C9.74606 9.888 10.0501 9.464 10.4021 9.032C10.7621 8.592 11.1541 8.188 11.5781 7.82C12.0101 7.444 12.4621 7.144 12.9341 6.92C13.4061 6.688 13.8861 6.572 14.3741 6.572C14.8141 6.572 15.1901 6.664 15.5021 6.848C15.8221 7.024 16.0661 7.264 16.2341 7.568C16.4101 7.872 16.4981 8.216 16.4981 8.6C16.4981 8.976 16.3621 9.356 16.0901 9.74C15.8181 10.116 15.3501 10.412 14.6861 10.628C14.3501 10.74 13.9661 10.828 13.5341 10.892C13.1021 10.956 12.6101 11 12.0581 11.024C11.5061 11.048 10.8781 11.06 10.1741 11.06H8.91406ZM10.0541 9.872L9.81406 2.432H10.7861L11.0261 9.032L10.0541 9.872ZM17.7312 13.76L17.5152 12.776C17.9952 12.712 18.4352 12.62 18.8352 12.5C19.2432 12.388 19.5912 12.224 19.8792 12.008C20.1752 11.792 20.4032 11.508 20.5632 11.156C20.7232 10.804 20.8032 10.364 20.8032 9.836C20.8032 9.588 20.7792 9.352 20.7312 9.128C20.6832 8.896 20.6112 8.692 20.5152 8.516C20.4192 8.34 20.3032 8.2 20.1672 8.096C20.0392 7.992 19.8912 7.94 19.7232 7.94C19.5392 7.94 19.3712 8.012 19.2192 8.156C19.0752 8.292 18.9592 8.468 18.8712 8.684C18.7912 8.9 18.7512 9.116 18.7512 9.332C18.7512 9.5 18.7832 9.648 18.8472 9.776C18.9192 9.896 19.0352 9.988 19.1952 10.052C19.3552 10.116 19.5632 10.148 19.8192 10.148C20.0512 10.148 20.2832 10.124 20.5152 10.076C20.7552 10.028 20.9592 9.964 21.1272 9.884L21.1752 10.724C20.9832 10.86 20.7552 10.956 20.4912 11.012C20.2352 11.068 19.9752 11.096 19.7112 11.096C19.4072 11.096 19.1352 11.064 18.8952 11C18.6632 10.936 18.4632 10.844 18.2952 10.724C18.1352 10.596 18.0112 10.436 17.9232 10.244C17.8432 10.052 17.8032 9.828 17.8032 9.572C17.8032 9.268 17.8512 8.964 17.9472 8.66C18.0432 8.348 18.1792 8.064 18.3552 7.808C18.5312 7.552 18.7432 7.348 18.9912 7.196C19.2392 7.036 19.5152 6.956 19.8192 6.956C20.1392 6.956 20.4192 7.04 20.6592 7.208C20.8992 7.368 21.0992 7.588 21.2592 7.868C21.4192 8.148 21.5392 8.464 21.6192 8.816C21.6992 9.168 21.7392 9.532 21.7392 9.908C21.7392 10.652 21.5872 11.292 21.2832 11.828C20.9872 12.372 20.5392 12.804 19.9392 13.124C19.3472 13.444 18.6112 13.656 17.7312 13.76ZM25.7623 11.012C25.7623 10.82 25.7783 10.616 25.8103 10.4C25.8503 10.176 25.9063 9.94 25.9783 9.692C26.0583 9.436 26.1543 9.168 26.2663 8.888L27.1303 9.224C27.0503 9.448 26.9783 9.66 26.9143 9.86C26.8583 10.06 26.8143 10.248 26.7823 10.424C26.7583 10.6 26.7463 10.768 26.7463 10.928C26.7463 11.264 26.8183 11.548 26.9623 11.78C27.1143 12.02 27.3223 12.216 27.5863 12.368C27.8503 12.52 28.1503 12.632 28.4863 12.704C28.8303 12.776 29.1943 12.812 29.5783 12.812C30.0423 12.812 30.4743 12.772 30.8743 12.692C31.2823 12.612 31.6383 12.496 31.9423 12.344C32.2543 12.2 32.4983 12.032 32.6743 11.84C32.8503 11.656 32.9383 11.456 32.9383 11.24C32.9383 11.136 32.8983 11.04 32.8183 10.952C32.7383 10.864 32.6183 10.78 32.4583 10.7C32.2983 10.62 32.1063 10.544 31.8823 10.472C31.6583 10.392 31.4023 10.312 31.1143 10.232L31.3423 9.236C31.7583 9.396 32.1263 9.532 32.4463 9.644C32.7663 9.748 33.0463 9.832 33.2863 9.896C33.5263 9.96 33.7343 10.008 33.9103 10.04C34.0863 10.064 34.2343 10.076 34.3543 10.076C34.5223 10.076 34.6423 10.124 34.7143 10.22C34.7943 10.308 34.8343 10.416 34.8343 10.544C34.8343 10.672 34.7783 10.792 34.6663 10.904C34.5543 11.008 34.4103 11.06 34.2343 11.06C34.1863 11.06 34.1383 11.06 34.0903 11.06C34.0423 11.06 33.9903 11.06 33.9343 11.06C33.8863 11.06 33.8383 11.06 33.7903 11.06C33.8063 11.132 33.8183 11.188 33.8263 11.228C33.8343 11.276 33.8383 11.336 33.8383 11.408C33.8383 11.704 33.7343 11.992 33.5263 12.272C33.3263 12.552 33.0303 12.804 32.6383 13.028C32.2463 13.26 31.7703 13.444 31.2103 13.58C30.6583 13.716 30.0263 13.784 29.3143 13.784C28.6823 13.784 28.0943 13.68 27.5503 13.472C27.0143 13.272 26.5823 12.968 26.2543 12.56C25.9263 12.152 25.7623 11.636 25.7623 11.012ZM34.2383 11.06L34.3583 10.076C34.7503 10.076 35.0623 10.052 35.2943 10.004C35.5263 9.956 35.6943 9.86 35.7983 9.716C35.9023 9.564 35.9543 9.34 35.9543 9.044C35.9543 8.844 35.9223 8.608 35.8583 8.336C35.7943 8.056 35.7103 7.76 35.6063 7.448C35.5023 7.136 35.3903 6.828 35.2703 6.524L36.2423 6.164C36.3463 6.42 36.4423 6.712 36.5303 7.04C36.6263 7.368 36.7063 7.692 36.7703 8.012C36.8343 8.332 36.8663 8.612 36.8663 8.852C36.8663 9.172 36.8303 9.456 36.7583 9.704C36.6943 9.944 36.5943 10.152 36.4583 10.328C36.3223 10.496 36.1463 10.636 35.9303 10.748C35.7223 10.852 35.4783 10.932 35.1983 10.988C34.9183 11.036 34.5983 11.06 34.2383 11.06ZM34.6823 4.832L34.5383 4.184C34.7463 4.136 34.9143 4.096 35.0423 4.064C35.1703 4.032 35.3143 3.996 35.4743 3.956L35.4143 4.208C35.2063 4.144 35.0063 4.008 34.8143 3.8C34.6303 3.592 34.5383 3.356 34.5383 3.092C34.5383 2.852 34.5943 2.652 34.7063 2.492C34.8263 2.324 34.9783 2.2 35.1623 2.12C35.3543 2.04 35.5583 2 35.7743 2C35.8623 2 35.9543 2.008 36.0503 2.024C36.1543 2.04 36.2503 2.064 36.3383 2.096L36.2423 2.696C36.1623 2.68 36.0863 2.664 36.0143 2.648C35.9423 2.632 35.8623 2.624 35.7743 2.624C35.5903 2.624 35.4463 2.664 35.3423 2.744C35.2383 2.816 35.1863 2.92 35.1863 3.056C35.1863 3.224 35.2383 3.368 35.3423 3.488C35.4543 3.608 35.5783 3.704 35.7143 3.776C35.8583 3.84 35.9743 3.872 36.0623 3.872L35.5703 3.92C35.7863 3.864 35.9863 3.808 36.1703 3.752C36.3623 3.688 36.5343 3.628 36.6863 3.572L36.8783 4.184C36.6863 4.256 36.4583 4.332 36.1943 4.412C35.9383 4.492 35.6783 4.568 35.4143 4.64C35.1503 4.712 34.9063 4.776 34.6823 4.832ZM40.9529 11.06C40.3129 11.06 39.8209 10.988 39.4769 10.844C39.1409 10.7 38.9089 10.476 38.7809 10.172C38.6529 9.868 38.5809 9.476 38.5649 8.996L38.3249 2.432H39.3089L39.5489 8.612C39.5649 9.004 39.6009 9.308 39.6569 9.524C39.7209 9.732 39.8569 9.876 40.0649 9.956C40.2809 10.036 40.6169 10.076 41.0729 10.076C41.2409 10.076 41.3609 10.124 41.4329 10.22C41.5129 10.308 41.5529 10.416 41.5529 10.544C41.5529 10.672 41.4969 10.792 41.3849 10.904C41.2729 11.008 41.1289 11.06 40.9529 11.06ZM40.9531 11.06L41.0731 10.076C41.4651 10.076 41.7771 10.052 42.0091 10.004C42.2411 9.956 42.4091 9.86 42.5131 9.716C42.6171 9.564 42.6691 9.34 42.6691 9.044C42.6691 8.844 42.6371 8.608 42.5731 8.336C42.5091 8.056 42.4251 7.76 42.3211 7.448C42.2171 7.136 42.1051 6.828 41.9851 6.524L42.9571 6.164C43.0611 6.42 43.1571 6.712 43.2451 7.04C43.3411 7.368 43.4211 7.692 43.4851 8.012C43.5491 8.332 43.5811 8.612 43.5811 8.852C43.5811 9.172 43.5451 9.456 43.4731 9.704C43.4091 9.944 43.3091 10.152 43.1731 10.328C43.0371 10.496 42.8611 10.636 42.6451 10.748C42.4371 10.852 42.1931 10.932 41.9131 10.988C41.6331 11.036 41.3131 11.06 40.9531 11.06ZM42.2371 13.292C42.0691 13.292 41.9251 13.232 41.8051 13.112C41.6931 13 41.6371 12.864 41.6371 12.704C41.6371 12.544 41.6931 12.404 41.8051 12.284C41.9251 12.164 42.0691 12.104 42.2371 12.104C42.3971 12.104 42.5331 12.164 42.6451 12.284C42.7651 12.404 42.8251 12.544 42.8251 12.704C42.8251 12.864 42.7651 13 42.6451 13.112C42.5331 13.232 42.3971 13.292 42.2371 13.292ZM45.2438 11L45.0398 3.272H46.0118L46.2158 11H45.2438ZM46.3238 2.108C46.0838 2.108 45.8678 2.068 45.6758 1.988C45.4838 1.9 45.3078 1.816 45.1478 1.736C44.9878 1.656 44.8398 1.616 44.7038 1.616C44.5598 1.616 44.4278 1.652 44.3078 1.724C44.1958 1.796 44.0758 1.896 43.9478 2.024L43.4918 1.64C43.6758 1.408 43.8678 1.228 44.0678 1.1C44.2678 0.963999 44.4798 0.895999 44.7038 0.895999C44.9038 0.895999 45.0878 0.935999 45.2558 1.016C45.4238 1.096 45.5918 1.176 45.7598 1.256C45.9358 1.336 46.1238 1.376 46.3238 1.376C46.4518 1.376 46.5718 1.356 46.6838 1.316C46.7958 1.268 46.9318 1.196 47.0918 1.1L47.4398 1.592C47.1838 1.816 46.9638 1.96 46.7798 2.024C46.6038 2.08 46.4518 2.108 46.3238 2.108Z" fill="black"/>
</svg>
