<svg width="167" height="14" viewBox="0 0 167 14" fill="none" xmlns="http://www.w3.org/2000/svg">
<path d="M2.02025 8.28C2.02025 8.488 1.94425 8.672 1.79225 8.832C1.64025 8.992 1.44825 9.072 1.21625 9.072C0.99225 9.072 0.80025 8.996 0.64025 8.844C0.48825 8.684 0.41225 8.5 0.41225 8.292C0.41225 8.076 0.48825 7.892 0.64025 7.74C0.79225 7.58 0.98425 7.5 1.21625 7.5C1.44825 7.5 1.64025 7.576 1.79225 7.728C1.94425 7.88 2.02025 8.064 2.02025 8.28ZM6.26544 9.06C5.62544 9.06 5.13344 8.988 4.78944 8.844C4.45344 8.7 4.22144 8.476 4.09344 8.172C3.96544 7.868 3.89344 7.476 3.87744 6.996L3.63744 0.431999H4.62144L4.86144 6.612C4.87744 7.004 4.91344 7.308 4.96944 7.524C5.03344 7.732 5.16944 7.876 5.37744 7.956C5.59344 8.036 5.92944 8.076 6.38544 8.076C6.55344 8.076 6.67344 8.124 6.74544 8.22C6.82544 8.308 6.86544 8.416 6.86544 8.544C6.86544 8.672 6.80944 8.792 6.69744 8.904C6.58544 9.008 6.44144 9.06 6.26544 9.06ZM6.26562 9.06L6.38563 8.076C6.78563 8.076 7.09763 8.048 7.32163 7.992C7.54563 7.928 7.71363 7.812 7.82563 7.644C7.94563 7.468 8.04163 7.216 8.11363 6.888C8.18563 6.56 8.27363 6.132 8.37763 5.604L9.31363 5.784C9.28163 5.928 9.24563 6.088 9.20563 6.264C9.16563 6.44 9.12963 6.616 9.09763 6.792C9.07363 6.96 9.06163 7.108 9.06163 7.236C9.06163 7.356 9.06963 7.468 9.08563 7.572C9.10163 7.676 9.16163 7.764 9.26562 7.836C9.36963 7.908 9.54563 7.968 9.79362 8.016C10.0416 8.056 10.3976 8.076 10.8616 8.076C11.0296 8.076 11.1496 8.124 11.2216 8.22C11.3016 8.308 11.3416 8.416 11.3416 8.544C11.3416 8.672 11.2856 8.792 11.1736 8.904C11.0616 9.008 10.9176 9.06 10.7416 9.06C10.2536 9.06 9.86563 9.036 9.57763 8.988C9.28963 8.932 9.06963 8.852 8.91763 8.748C8.77363 8.644 8.66963 8.516 8.60563 8.364C8.54963 8.204 8.50563 8.02 8.47363 7.812L8.83363 7.836C8.70563 8.092 8.56563 8.3 8.41363 8.46C8.26963 8.62 8.10163 8.744 7.90963 8.832C7.71763 8.92 7.48563 8.98 7.21363 9.012C6.94963 9.044 6.63363 9.06 6.26562 9.06ZM9.46963 4.368C9.30163 4.368 9.15763 4.312 9.03763 4.2C8.92563 4.08 8.86963 3.94 8.86963 3.78C8.86963 3.62 8.92563 3.48 9.03763 3.36C9.15763 3.24 9.30163 3.18 9.46963 3.18C9.62963 3.18 9.76563 3.24 9.87763 3.36C9.99763 3.48 10.0576 3.62 10.0576 3.78C10.0576 3.94 9.99763 4.08 9.87763 4.2C9.76563 4.312 9.62963 4.368 9.46963 4.368ZM7.82563 4.368C7.65763 4.368 7.51363 4.312 7.39363 4.2C7.28163 4.08 7.22563 3.94 7.22563 3.78C7.22563 3.62 7.28163 3.48 7.39363 3.36C7.51363 3.24 7.65763 3.18 7.82563 3.18C7.98563 3.18 8.12163 3.24 8.23363 3.36C8.35363 3.48 8.41363 3.62 8.41363 3.78C8.41363 3.94 8.35363 4.08 8.23363 4.2C8.12163 4.312 7.98563 4.368 7.82563 4.368ZM12.3742 9.324L12.6862 9.636C12.4382 9.772 12.2782 9.928 12.2062 10.104C12.1342 10.288 12.1382 10.5 12.2182 10.74L11.7142 10.596C11.7782 10.524 11.8502 10.468 11.9302 10.428C12.0102 10.388 12.0982 10.368 12.1942 10.368C12.3382 10.368 12.4582 10.4 12.5542 10.464C12.6502 10.536 12.6982 10.636 12.6982 10.764C12.6982 10.868 12.6582 10.976 12.5782 11.088C12.4982 11.2 12.3662 11.256 12.1822 11.256C12.0302 11.256 11.8982 11.2 11.7862 11.088C11.6822 10.976 11.6302 10.808 11.6302 10.584C11.6302 10.448 11.6542 10.3 11.7022 10.14C11.7582 9.98 11.8382 9.824 11.9422 9.672C12.0542 9.528 12.1982 9.412 12.3742 9.324ZM10.7422 9.06L10.8622 8.076C11.2542 8.076 11.5662 8.052 11.7982 8.004C12.0302 7.956 12.1982 7.86 12.3022 7.716C12.4062 7.564 12.4582 7.34 12.4582 7.044C12.4582 6.844 12.4262 6.608 12.3622 6.336C12.2982 6.056 12.2142 5.76 12.1102 5.448C12.0062 5.136 11.8942 4.828 11.7742 4.524L12.7462 4.164C12.8502 4.42 12.9462 4.712 13.0342 5.04C13.1302 5.368 13.2102 5.692 13.2742 6.012C13.3382 6.332 13.3702 6.612 13.3702 6.852C13.3702 7.172 13.3342 7.456 13.2622 7.704C13.1982 7.944 13.0982 8.152 12.9622 8.328C12.8262 8.496 12.6502 8.636 12.4342 8.748C12.2262 8.852 11.9822 8.932 11.7022 8.988C11.4222 9.036 11.1022 9.06 10.7422 9.06ZM17.4568 9.06C16.8168 9.06 16.3248 8.988 15.9808 8.844C15.6448 8.7 15.4128 8.476 15.2848 8.172C15.1568 7.868 15.0848 7.476 15.0688 6.996L14.8288 0.431999H15.8128L16.0528 6.612C16.0688 7.004 16.1048 7.308 16.1608 7.524C16.2248 7.732 16.3608 7.876 16.5688 7.956C16.7848 8.036 17.1208 8.076 17.5768 8.076C17.7448 8.076 17.8648 8.124 17.9368 8.22C18.0168 8.308 18.0568 8.416 18.0568 8.544C18.0568 8.672 18.0008 8.792 17.8888 8.904C17.7768 9.008 17.6328 9.06 17.4568 9.06ZM17.457 9.06L17.565 8.076C17.981 8.076 18.389 8.044 18.789 7.98C19.189 7.916 19.581 7.824 19.965 7.704C20.349 7.584 20.717 7.44 21.069 7.272C21.429 7.096 21.769 6.896 22.089 6.672C21.881 6.488 21.641 6.328 21.369 6.192C21.097 6.056 20.797 5.952 20.469 5.88C20.149 5.8 19.809 5.76 19.449 5.76C19.321 5.76 19.201 5.764 19.089 5.772C18.977 5.78 18.865 5.796 18.753 5.82C18.641 5.836 18.513 5.86 18.369 5.892L18.177 4.98C18.393 4.916 18.609 4.868 18.825 4.836C19.041 4.796 19.249 4.776 19.449 4.776C19.865 4.776 20.241 4.828 20.577 4.932C20.913 5.028 21.217 5.148 21.489 5.292C21.769 5.436 22.029 5.58 22.269 5.724C22.517 5.868 22.757 5.992 22.989 6.096C23.221 6.192 23.461 6.24 23.709 6.24H23.961L24.045 7.104C23.701 7.104 23.385 7.152 23.097 7.248C22.809 7.344 22.525 7.468 22.245 7.62C21.973 7.764 21.685 7.92 21.381 8.088C21.077 8.248 20.741 8.404 20.373 8.556C20.005 8.7 19.581 8.82 19.101 8.916C18.629 9.012 18.081 9.06 17.457 9.06ZM20.793 12.6C20.633 12.6 20.493 12.54 20.373 12.42C20.261 12.3 20.205 12.16 20.205 12C20.205 11.84 20.261 11.7 20.373 11.58C20.493 11.468 20.633 11.412 20.793 11.412C20.961 11.412 21.101 11.468 21.213 11.58C21.333 11.7 21.393 11.84 21.393 12C21.393 12.16 21.333 12.3 21.213 12.42C21.101 12.54 20.961 12.6 20.793 12.6ZM21.609 11.28C21.449 11.28 21.309 11.22 21.189 11.1C21.077 10.98 21.021 10.84 21.021 10.68C21.021 10.52 21.077 10.38 21.189 10.26C21.309 10.148 21.449 10.092 21.609 10.092C21.777 10.092 21.917 10.148 22.029 10.26C22.149 10.38 22.209 10.52 22.209 10.68C22.209 10.84 22.149 10.98 22.029 11.1C21.917 11.22 21.777 11.28 21.609 11.28ZM19.977 11.28C19.817 11.28 19.677 11.22 19.557 11.1C19.445 10.98 19.389 10.84 19.389 10.68C19.389 10.52 19.445 10.38 19.557 10.26C19.677 10.148 19.817 10.092 19.977 10.092C20.145 10.092 20.285 10.148 20.397 10.26C20.517 10.38 20.577 10.52 20.577 10.68C20.577 10.84 20.517 10.98 20.397 11.1C20.285 11.22 20.145 11.28 19.977 11.28ZM31.0154 9.06C30.3754 9.06 29.8834 8.988 29.5394 8.844C29.2034 8.7 28.9714 8.476 28.8434 8.172C28.7154 7.868 28.6434 7.476 28.6274 6.996L28.3874 0.431999H29.3714L29.6114 6.612C29.6274 7.004 29.6634 7.308 29.7194 7.524C29.7834 7.732 29.9194 7.876 30.1274 7.956C30.3434 8.036 30.6794 8.076 31.1354 8.076C31.3034 8.076 31.4234 8.124 31.4954 8.22C31.5754 8.308 31.6154 8.416 31.6154 8.544C31.6154 8.672 31.5594 8.792 31.4474 8.904C31.3354 9.008 31.1914 9.06 31.0154 9.06ZM31.0156 9.06L31.1356 8.076C31.5276 8.076 31.8396 8.052 32.0716 8.004C32.3036 7.956 32.4716 7.86 32.5756 7.716C32.6796 7.564 32.7316 7.34 32.7316 7.044C32.7316 6.844 32.6996 6.608 32.6356 6.336C32.5716 6.056 32.4876 5.76 32.3836 5.448C32.2796 5.136 32.1676 4.828 32.0476 4.524L33.0196 4.164C33.1236 4.42 33.2196 4.712 33.3076 5.04C33.4036 5.368 33.4836 5.692 33.5476 6.012C33.6116 6.332 33.6436 6.612 33.6436 6.852C33.6436 7.172 33.6076 7.456 33.5356 7.704C33.4716 7.944 33.3716 8.152 33.2356 8.328C33.0996 8.496 32.9236 8.636 32.7076 8.748C32.4996 8.852 32.2556 8.932 31.9756 8.988C31.6956 9.036 31.3756 9.06 31.0156 9.06ZM32.5516 2.916C32.3836 2.916 32.2396 2.86 32.1196 2.748C32.0076 2.628 31.9516 2.488 31.9516 2.328C31.9516 2.168 32.0076 2.028 32.1196 1.908C32.2396 1.788 32.3836 1.728 32.5516 1.728C32.7116 1.728 32.8476 1.788 32.9596 1.908C33.0796 2.028 33.1396 2.168 33.1396 2.328C33.1396 2.488 33.0796 2.628 32.9596 2.748C32.8476 2.86 32.7116 2.916 32.5516 2.916ZM33.923 11.784L33.575 10.872C34.159 10.68 34.643 10.46 35.027 10.212C35.419 9.964 35.727 9.7 35.951 9.42C36.183 9.14 36.347 8.856 36.443 8.568C36.539 8.272 36.587 7.988 36.587 7.716C36.587 7.324 36.499 6.928 36.323 6.528C36.155 6.12 35.967 5.736 35.759 5.376L36.635 4.932C36.787 5.212 36.919 5.488 37.031 5.76C37.151 6.032 37.255 6.288 37.343 6.528C37.439 6.768 37.515 6.988 37.571 7.188C37.683 7.532 37.827 7.768 38.003 7.896C38.187 8.016 38.435 8.076 38.747 8.076C38.915 8.076 39.035 8.124 39.107 8.22C39.187 8.308 39.227 8.416 39.227 8.544C39.227 8.672 39.171 8.792 39.059 8.904C38.947 9.008 38.803 9.06 38.627 9.06C38.275 9.06 37.987 9 37.763 8.88C37.547 8.752 37.383 8.588 37.271 8.388C37.159 8.18 37.083 7.964 37.043 7.74L37.427 7.956C37.427 8.484 37.307 8.964 37.067 9.396C36.835 9.836 36.535 10.216 36.167 10.536C35.799 10.864 35.415 11.132 35.015 11.34C34.615 11.548 34.251 11.696 33.923 11.784ZM38.6328 9.06L38.7528 8.076H39.8808C40.3528 8.076 40.7248 8.052 40.9968 8.004C41.2768 7.948 41.4808 7.88 41.6088 7.8C41.7448 7.712 41.8328 7.62 41.8728 7.524C41.9208 7.42 41.9448 7.316 41.9448 7.212C41.9448 7.028 41.8728 6.8 41.7288 6.528C41.5928 6.256 41.3088 5.904 40.8768 5.472C40.6528 5.248 40.4288 5.044 40.2048 4.86C39.9808 4.668 39.7728 4.5 39.5808 4.356C39.3968 4.204 39.2488 4.076 39.1368 3.972C39.0248 3.868 38.9688 3.788 38.9688 3.732C38.9688 3.612 38.9768 3.496 38.9928 3.384C39.0168 3.272 39.0448 3.168 39.0768 3.072C39.1168 2.976 39.1648 2.9 39.2208 2.844C39.3808 2.676 39.5848 2.508 39.8328 2.34C40.0888 2.172 40.3848 1.996 40.7208 1.812C41.0648 1.628 41.4488 1.432 41.8728 1.224C42.3048 1.008 42.7768 0.772 43.2888 0.516L43.6968 1.404C43.0568 1.708 42.5208 1.968 42.0888 2.184C41.6648 2.392 41.3048 2.58 41.0088 2.748C40.7128 2.908 40.4528 3.06 40.2288 3.204C40.0048 3.348 39.7768 3.508 39.5448 3.684L39.7248 3.228C40.2288 3.628 40.6728 4.004 41.0568 4.356C41.4488 4.708 41.7768 5.048 42.0408 5.376C42.3048 5.696 42.5048 6.012 42.6408 6.324C42.7768 6.636 42.8448 6.952 42.8448 7.272C42.8448 7.448 42.8128 7.64 42.7488 7.848C42.6848 8.056 42.5488 8.252 42.3408 8.436C42.1328 8.62 41.8208 8.772 41.4048 8.892C40.9888 9.004 40.4288 9.06 39.7248 9.06H38.6328ZM46.9381 9.012C46.9381 8.724 46.9781 8.404 47.0581 8.052C47.1381 7.7 47.2661 7.312 47.4421 6.888L48.3061 7.224C48.1781 7.56 48.0821 7.868 48.0181 8.148C47.9541 8.428 47.9221 8.688 47.9221 8.928C47.9221 9.368 48.0301 9.724 48.2461 9.996C48.4701 10.276 48.7661 10.48 49.1341 10.608C49.5101 10.736 49.9221 10.8 50.3701 10.8C50.9141 10.8 51.3701 10.74 51.7381 10.62C52.1061 10.508 52.3981 10.352 52.6141 10.152C52.8301 9.952 52.9821 9.724 53.0701 9.468C53.1661 9.22 53.2141 8.96 53.2141 8.688C53.2141 8.336 53.1861 8.004 53.1301 7.692C53.0821 7.38 53.0141 7.076 52.9261 6.78C52.8461 6.476 52.7581 6.168 52.6621 5.856L53.6341 5.592C53.7221 5.896 53.7901 6.144 53.8381 6.336C53.8861 6.52 53.9221 6.668 53.9461 6.78C53.9781 6.892 54.0061 6.992 54.0301 7.08C54.1181 7.376 54.2341 7.596 54.3781 7.74C54.5221 7.876 54.6861 7.968 54.8701 8.016C55.0621 8.056 55.2581 8.076 55.4581 8.076C55.6261 8.076 55.7461 8.124 55.8181 8.22C55.8981 8.308 55.9381 8.416 55.9381 8.544C55.9381 8.672 55.8821 8.792 55.7701 8.904C55.6581 9.008 55.5141 9.06 55.3381 9.06C55.0021 9.06 54.7221 9.004 54.4981 8.892C54.2741 8.772 54.0981 8.624 53.9701 8.448C53.8501 8.272 53.7701 8.088 53.7301 7.896L54.2221 8.508C54.1981 8.916 54.1181 9.312 53.9821 9.696C53.8541 10.088 53.6461 10.44 53.3581 10.752C53.0701 11.072 52.6781 11.324 52.1821 11.508C51.6941 11.692 51.0781 11.784 50.3341 11.784C49.8781 11.784 49.4461 11.728 49.0381 11.616C48.6301 11.504 48.2661 11.332 47.9461 11.1C47.6341 10.876 47.3861 10.588 47.2021 10.236C47.0261 9.892 46.9381 9.484 46.9381 9.012ZM55.3438 9.06L55.4638 8.076C55.8638 8.076 56.1758 8.048 56.3998 7.992C56.6238 7.928 56.7918 7.812 56.9038 7.644C57.0238 7.468 57.1198 7.216 57.1918 6.888C57.2638 6.56 57.3518 6.132 57.4558 5.604L58.3918 5.784C58.3598 5.928 58.3238 6.088 58.2838 6.264C58.2438 6.44 58.2078 6.616 58.1758 6.792C58.1518 6.96 58.1398 7.108 58.1398 7.236C58.1398 7.356 58.1478 7.468 58.1638 7.572C58.1798 7.676 58.2398 7.764 58.3438 7.836C58.4478 7.908 58.6238 7.968 58.8717 8.016C59.1198 8.056 59.4758 8.076 59.9398 8.076C60.1078 8.076 60.2278 8.124 60.2998 8.22C60.3798 8.308 60.4198 8.416 60.4198 8.544C60.4198 8.672 60.3638 8.792 60.2518 8.904C60.1398 9.008 59.9958 9.06 59.8198 9.06C59.3318 9.06 58.9438 9.036 58.6558 8.988C58.3678 8.932 58.1478 8.852 57.9958 8.748C57.8518 8.644 57.7478 8.516 57.6838 8.364C57.6278 8.204 57.5838 8.02 57.5518 7.812L57.9118 7.836C57.7838 8.092 57.6438 8.3 57.4918 8.46C57.3478 8.62 57.1798 8.744 56.9878 8.832C56.7958 8.92 56.5638 8.98 56.2918 9.012C56.0278 9.044 55.7118 9.06 55.3438 9.06ZM58.3678 11.328C58.1998 11.328 58.0558 11.268 57.9358 11.148C57.8238 11.036 57.7678 10.9 57.7678 10.74C57.7678 10.58 57.8238 10.44 57.9358 10.32C58.0558 10.2 58.1998 10.14 58.3678 10.14C58.5278 10.14 58.6638 10.2 58.7758 10.32C58.8958 10.44 58.9558 10.58 58.9558 10.74C58.9558 10.9 58.8958 11.036 58.7758 11.148C58.6638 11.268 58.5278 11.328 58.3678 11.328ZM56.7238 11.328C56.5558 11.328 56.4118 11.268 56.2918 11.148C56.1798 11.036 56.1238 10.9 56.1238 10.74C56.1238 10.58 56.1798 10.44 56.2918 10.32C56.4118 10.2 56.5558 10.14 56.7238 10.14C56.8838 10.14 57.0198 10.2 57.1318 10.32C57.2518 10.44 57.3118 10.58 57.3118 10.74C57.3118 10.9 57.2518 11.036 57.1318 11.148C57.0198 11.268 56.8838 11.328 56.7238 11.328ZM62.8323 12.228C62.4643 11.972 62.1563 11.64 61.9083 11.232C61.6683 10.824 61.4803 10.388 61.3443 9.924C61.2163 9.468 61.1363 9.044 61.1043 8.652C60.9843 8.788 60.8203 8.892 60.6123 8.964C60.4123 9.028 60.1483 9.06 59.8203 9.06L59.9283 8.076C60.0243 8.076 60.1283 8.072 60.2403 8.064C60.3603 8.048 60.4843 8.012 60.6123 7.956C60.7403 7.9 60.8603 7.808 60.9723 7.68C61.0923 7.552 61.1963 7.368 61.2843 7.128L62.0883 7.332C62.0083 7.652 61.9643 7.976 61.9563 8.304C61.9483 8.632 61.9723 8.948 62.0283 9.252C62.0923 9.564 62.1883 9.856 62.3163 10.128C62.4443 10.4 62.6003 10.644 62.7843 10.86C62.7843 10.3 62.8563 9.812 63.0003 9.396C63.1523 8.98 63.4043 8.656 63.7563 8.424C64.1083 8.192 64.5883 8.076 65.1963 8.076C65.3563 8.076 65.4763 8.124 65.5563 8.22C65.6363 8.308 65.6763 8.416 65.6763 8.544C65.6763 8.672 65.6203 8.792 65.5083 8.904C65.4043 9.008 65.2683 9.06 65.1003 9.06C64.6603 9.06 64.3283 9.148 64.1043 9.324C63.8803 9.508 63.7283 9.784 63.6483 10.152C63.5763 10.528 63.5403 11.004 63.5403 11.58L62.8323 12.228ZM65.082 9.06L65.202 8.076C65.594 8.076 65.906 8.052 66.138 8.004C66.37 7.956 66.538 7.86 66.642 7.716C66.746 7.564 66.798 7.34 66.798 7.044C66.798 6.844 66.766 6.608 66.702 6.336C66.638 6.056 66.554 5.76 66.45 5.448C66.346 5.136 66.234 4.828 66.114 4.524L67.086 4.164C67.19 4.42 67.286 4.712 67.374 5.04C67.47 5.368 67.55 5.692 67.614 6.012C67.678 6.332 67.71 6.612 67.71 6.852C67.71 7.172 67.674 7.456 67.602 7.704C67.538 7.944 67.438 8.152 67.302 8.328C67.166 8.496 66.99 8.636 66.774 8.748C66.566 8.852 66.322 8.932 66.042 8.988C65.762 9.036 65.442 9.06 65.082 9.06ZM66.618 2.916C66.45 2.916 66.306 2.86 66.186 2.748C66.074 2.628 66.018 2.488 66.018 2.328C66.018 2.168 66.074 2.028 66.186 1.908C66.306 1.788 66.45 1.728 66.618 1.728C66.778 1.728 66.914 1.788 67.026 1.908C67.146 2.028 67.206 2.168 67.206 2.328C67.206 2.488 67.146 2.628 67.026 2.748C66.914 2.86 66.778 2.916 66.618 2.916ZM77.0527 9.06C76.5967 9.06 76.2287 8.992 75.9487 8.856C75.6767 8.72 75.4527 8.532 75.2767 8.292C75.1087 8.044 74.9607 7.752 74.8327 7.416C74.7047 7.08 74.5687 6.716 74.4247 6.324C74.3927 6.22 74.3167 6.148 74.1967 6.108C74.0767 6.068 73.9487 6.048 73.8127 6.048C73.6047 6.048 73.3967 6.092 73.1887 6.18C72.9887 6.268 72.8207 6.4 72.6847 6.576C72.5567 6.752 72.4927 6.968 72.4927 7.224C72.4927 7.448 72.5247 7.664 72.5887 7.872C72.6607 8.072 72.7407 8.3 72.8287 8.556L71.9647 8.796C71.9007 8.612 71.8327 8.436 71.7607 8.268C71.6967 8.1 71.6447 7.924 71.6047 7.74C71.5647 7.556 71.5447 7.352 71.5447 7.128C71.5447 6.8 71.6167 6.508 71.7607 6.252C71.9047 5.996 72.0967 5.78 72.3367 5.604C72.5767 5.428 72.8407 5.296 73.1287 5.208C73.4167 5.112 73.7007 5.064 73.9807 5.064C74.1167 5.064 74.2607 5.076 74.4127 5.1C74.5727 5.124 74.7167 5.184 74.8447 5.28C74.9807 5.368 75.0807 5.512 75.1447 5.712C75.2727 6.072 75.3847 6.4 75.4807 6.696C75.5847 6.984 75.7007 7.232 75.8287 7.44C75.9567 7.648 76.1247 7.808 76.3327 7.92C76.5487 8.024 76.8287 8.076 77.1727 8.076C77.3407 8.076 77.4607 8.124 77.5327 8.22C77.6127 8.308 77.6527 8.416 77.6527 8.544C77.6527 8.672 77.5967 8.792 77.4847 8.904C77.3727 9.008 77.2287 9.06 77.0527 9.06ZM77.0469 9.06L77.1669 8.076C77.3669 8.076 77.5869 8.076 77.8269 8.076C78.0749 8.068 78.3229 8.06 78.5709 8.052C78.8269 8.044 79.0629 8.028 79.2789 8.004C79.4949 7.972 79.6749 7.932 79.8189 7.884C80.1069 7.78 80.3309 7.652 80.4909 7.5C80.6509 7.34 80.7629 7.132 80.8269 6.876C80.8989 6.612 80.9349 6.276 80.9349 5.868C80.9349 5.532 80.8909 5.22 80.8029 4.932C80.7149 4.644 80.5909 4.412 80.4309 4.236C80.2709 4.06 80.0789 3.972 79.8549 3.972C79.6709 3.972 79.5029 4.044 79.3509 4.188C79.2069 4.324 79.0909 4.5 79.0029 4.716C78.9229 4.932 78.8829 5.148 78.8829 5.364C78.8829 5.532 78.9149 5.676 78.9789 5.796C79.0509 5.916 79.1669 6.012 79.3269 6.084C79.4869 6.148 79.6949 6.18 79.9509 6.18C80.1829 6.18 80.4149 6.156 80.6469 6.108C80.8869 6.06 81.0909 5.996 81.2589 5.916L81.3069 6.756C81.1789 6.844 81.0349 6.916 80.8749 6.972C80.7149 7.028 80.5469 7.068 80.3709 7.092C80.1949 7.116 80.0189 7.128 79.8429 7.128C79.4349 7.128 79.0869 7.064 78.7989 6.936C78.5189 6.8 78.3029 6.62 78.1509 6.396C78.0069 6.164 77.9349 5.9 77.9349 5.604C77.9349 5.3 77.9829 4.996 78.0789 4.692C78.1749 4.38 78.3109 4.096 78.4869 3.84C78.6629 3.584 78.8749 3.38 79.1229 3.228C79.3709 3.068 79.6469 2.988 79.9509 2.988C80.3829 2.988 80.7389 3.128 81.0189 3.408C81.3069 3.688 81.5189 4.056 81.6549 4.512C81.7989 4.96 81.8709 5.436 81.8709 5.94C81.8709 6.54 81.7669 7.056 81.5589 7.488C81.3589 7.912 81.0229 8.264 80.5509 8.544C80.3669 8.648 80.1429 8.736 79.8789 8.808C79.6229 8.872 79.3389 8.924 79.0269 8.964C78.7229 9.004 78.4029 9.028 78.0669 9.036C77.7309 9.052 77.3909 9.06 77.0469 9.06ZM80.5629 1.752C80.3949 1.752 80.2509 1.696 80.1309 1.584C80.0189 1.464 79.9629 1.324 79.9629 1.164C79.9629 1.004 80.0189 0.864 80.1309 0.744C80.2509 0.624 80.3949 0.564 80.5629 0.564C80.7229 0.564 80.8589 0.624 80.9709 0.744C81.0909 0.864 81.1509 1.004 81.1509 1.164C81.1509 1.324 81.0909 1.464 80.9709 1.584C80.8589 1.696 80.7229 1.752 80.5629 1.752ZM78.9189 1.752C78.7509 1.752 78.6069 1.696 78.4869 1.584C78.3749 1.464 78.3189 1.324 78.3189 1.164C78.3189 1.004 78.3749 0.864 78.4869 0.744C78.6069 0.624 78.7509 0.564 78.9189 0.564C79.0789 0.564 79.2149 0.624 79.3269 0.744C79.4469 0.864 79.5069 1.004 79.5069 1.164C79.5069 1.324 79.4469 1.464 79.3269 1.584C79.2149 1.696 79.0789 1.752 78.9189 1.752ZM84.9941 8.076C85.3941 8.076 85.7101 8.036 85.9421 7.956C86.1821 7.876 86.3541 7.76 86.4581 7.608C86.5701 7.448 86.6261 7.264 86.6261 7.056C86.6261 6.896 86.5821 6.704 86.4941 6.48C86.4141 6.256 86.3021 6.008 86.1581 5.736C86.0141 5.456 85.8461 5.164 85.6541 4.86C85.4701 4.548 85.2701 4.232 85.0541 3.912L85.8821 3.372C86.1941 3.844 86.4661 4.292 86.6981 4.716C86.9301 5.132 87.1261 5.524 87.2861 5.892C87.4461 6.252 87.5741 6.592 87.6701 6.912C87.7821 7.264 87.9061 7.524 88.0421 7.692C88.1861 7.86 88.3341 7.968 88.4861 8.016C88.6381 8.056 88.7781 8.076 88.9061 8.076C89.0741 8.076 89.1981 8.124 89.2781 8.22C89.3581 8.308 89.3981 8.416 89.3981 8.544C89.3981 8.672 89.3421 8.792 89.2301 8.904C89.1181 9.008 88.9741 9.06 88.7981 9.06C88.5341 9.06 88.2741 9.012 88.0181 8.916C87.7701 8.812 87.5541 8.648 87.3701 8.424C87.1861 8.192 87.0581 7.884 86.9861 7.5L87.4661 7.116C87.4661 7.436 87.3981 7.748 87.2621 8.052C87.1261 8.348 86.8781 8.592 86.5181 8.784C86.1661 8.976 85.6581 9.072 84.9941 9.072C84.7061 9.072 84.4261 9.048 84.1541 9C83.8901 8.952 83.6461 8.884 83.4221 8.796C83.1981 8.7 83.0021 8.588 82.8341 8.46L83.3141 7.632C83.4741 7.736 83.6981 7.836 83.9861 7.932C84.2741 8.028 84.6101 8.076 84.9941 8.076ZM94.6088 9.216C93.9048 9.216 93.3128 9.188 92.8328 9.132C92.3608 9.084 91.9768 9.008 91.6808 8.904C91.3848 8.8 91.1608 8.668 91.0088 8.508C90.8568 8.348 90.7528 8.156 90.6968 7.932L90.9728 7.836C90.7728 8.22 90.5568 8.5 90.3248 8.676C90.0928 8.844 89.8488 8.952 89.5928 9C89.3448 9.04 89.0808 9.06 88.8008 9.06L88.9208 8.076C89.2008 8.076 89.4288 8.036 89.6048 7.956C89.7888 7.876 89.9368 7.744 90.0488 7.56C90.1688 7.376 90.2728 7.132 90.3608 6.828C90.4488 6.524 90.5448 6.148 90.6488 5.7L91.5248 5.928C91.4768 6.112 91.4328 6.288 91.3928 6.456C91.3528 6.624 91.3208 6.772 91.2968 6.9C91.2808 7.02 91.2728 7.116 91.2728 7.188C91.2728 7.38 91.3168 7.544 91.4048 7.68C91.4928 7.808 91.6608 7.916 91.9088 8.004C92.1568 8.084 92.5128 8.144 92.9768 8.184C93.4488 8.216 94.0648 8.232 94.8248 8.232C95.3528 8.232 95.8248 8.2 96.2408 8.136C96.6568 8.072 97.0048 7.976 97.2848 7.848C97.5728 7.712 97.7928 7.548 97.9448 7.356C98.0968 7.164 98.1728 6.944 98.1728 6.696C98.1728 6.52 98.1288 6.348 98.0408 6.18C97.9528 6.004 97.8168 5.856 97.6328 5.736C97.4488 5.616 97.2048 5.556 96.9008 5.556C96.5168 5.556 96.1328 5.656 95.7488 5.856C95.3728 6.056 95.0128 6.308 94.6688 6.612C94.3328 6.908 94.0328 7.212 93.7688 7.524C93.5048 7.836 93.2928 8.108 93.1328 8.34L92.0888 8.304C92.3448 7.888 92.6488 7.464 93.0008 7.032C93.3608 6.592 93.7528 6.188 94.1768 5.82C94.6088 5.444 95.0608 5.144 95.5328 4.92C96.0048 4.688 96.4848 4.572 96.9728 4.572C97.4128 4.572 97.7888 4.664 98.1008 4.848C98.4208 5.024 98.6648 5.264 98.8328 5.568C99.0088 5.872 99.0968 6.216 99.0968 6.6C99.0968 7.072 98.9568 7.508 98.6768 7.908C98.4048 8.3 97.9408 8.616 97.2848 8.856C96.6288 9.096 95.7368 9.216 94.6088 9.216ZM103.565 13.716C103.397 13.1 103.253 12.496 103.133 11.904C103.013 11.32 102.921 10.796 102.857 10.332C102.793 9.868 102.761 9.524 102.761 9.3C102.761 8.708 102.857 8.168 103.049 7.68C103.241 7.192 103.489 6.764 103.793 6.396C104.097 6.02 104.425 5.704 104.777 5.448C105.129 5.184 105.469 4.988 105.797 4.86C106.133 4.724 106.417 4.656 106.649 4.656C106.849 4.656 107.025 4.7 107.177 4.788C107.329 4.876 107.477 5.048 107.621 5.304C107.765 5.56 107.917 5.936 108.077 6.432C108.229 6.888 108.373 7.236 108.509 7.476C108.645 7.708 108.793 7.868 108.953 7.956C109.113 8.036 109.297 8.076 109.505 8.076C109.673 8.076 109.793 8.124 109.865 8.22C109.945 8.308 109.985 8.416 109.985 8.544C109.985 8.672 109.929 8.792 109.817 8.904C109.705 9.008 109.561 9.06 109.385 9.06C109.073 9.06 108.805 9.004 108.581 8.892C108.365 8.78 108.177 8.628 108.017 8.436L108.293 8.208C108.197 8.44 108.073 8.632 107.921 8.784C107.777 8.928 107.613 9.036 107.429 9.108C107.253 9.18 107.065 9.216 106.865 9.216C106.633 9.216 106.393 9.172 106.145 9.084C105.897 9.004 105.653 8.884 105.413 8.724C105.173 8.556 104.945 8.352 104.729 8.112C104.521 7.872 104.337 7.6 104.177 7.296L104.297 7.32C104.073 7.632 103.925 7.972 103.853 8.34C103.781 8.7 103.745 9.02 103.745 9.3C103.745 9.524 103.769 9.808 103.817 10.152C103.865 10.504 103.925 10.876 103.997 11.268C104.077 11.66 104.161 12.048 104.249 12.432C104.345 12.824 104.433 13.176 104.513 13.488L103.565 13.716ZM106.961 8.232C107.105 8.232 107.221 8.204 107.309 8.148C107.405 8.092 107.469 8.008 107.501 7.896C107.533 7.784 107.521 7.644 107.465 7.476C107.369 7.188 107.281 6.936 107.201 6.72C107.121 6.496 107.041 6.312 106.961 6.168C106.889 6.016 106.813 5.904 106.733 5.832C106.653 5.76 106.569 5.724 106.481 5.724C106.393 5.724 106.281 5.744 106.145 5.784C106.017 5.824 105.877 5.884 105.725 5.964C105.581 6.044 105.433 6.144 105.281 6.264C105.129 6.384 104.985 6.524 104.849 6.684L104.861 6.588C105.037 6.956 105.249 7.264 105.497 7.512C105.753 7.76 106.009 7.944 106.265 8.064C106.529 8.176 106.761 8.232 106.961 8.232ZM109.379 9.06L109.499 8.076C109.699 8.076 109.919 8.076 110.159 8.076C110.407 8.068 110.655 8.06 110.903 8.052C111.159 8.044 111.395 8.028 111.611 8.004C111.827 7.972 112.007 7.932 112.151 7.884C112.439 7.78 112.663 7.652 112.823 7.5C112.983 7.34 113.095 7.132 113.159 6.876C113.231 6.612 113.267 6.276 113.267 5.868C113.267 5.532 113.223 5.22 113.135 4.932C113.047 4.644 112.923 4.412 112.763 4.236C112.603 4.06 112.411 3.972 112.187 3.972C112.003 3.972 111.835 4.044 111.683 4.188C111.539 4.324 111.423 4.5 111.335 4.716C111.255 4.932 111.215 5.148 111.215 5.364C111.215 5.532 111.247 5.676 111.311 5.796C111.383 5.916 111.499 6.012 111.659 6.084C111.819 6.148 112.027 6.18 112.283 6.18C112.515 6.18 112.747 6.156 112.979 6.108C113.219 6.06 113.423 5.996 113.591 5.916L113.639 6.756C113.511 6.844 113.367 6.916 113.207 6.972C113.047 7.028 112.879 7.068 112.703 7.092C112.527 7.116 112.351 7.128 112.175 7.128C111.767 7.128 111.419 7.064 111.131 6.936C110.851 6.8 110.635 6.62 110.483 6.396C110.339 6.164 110.267 5.9 110.267 5.604C110.267 5.3 110.315 4.996 110.411 4.692C110.507 4.38 110.643 4.096 110.819 3.84C110.995 3.584 111.207 3.38 111.455 3.228C111.703 3.068 111.979 2.988 112.283 2.988C112.715 2.988 113.071 3.128 113.351 3.408C113.639 3.688 113.851 4.056 113.987 4.512C114.131 4.96 114.203 5.436 114.203 5.94C114.203 6.54 114.099 7.056 113.891 7.488C113.691 7.912 113.355 8.264 112.883 8.544C112.699 8.648 112.475 8.736 112.211 8.808C111.955 8.872 111.671 8.924 111.359 8.964C111.055 9.004 110.735 9.028 110.399 9.036C110.063 9.052 109.723 9.06 109.379 9.06ZM112.895 1.752C112.727 1.752 112.583 1.696 112.463 1.584C112.351 1.464 112.295 1.324 112.295 1.164C112.295 1.004 112.351 0.864 112.463 0.744C112.583 0.624 112.727 0.564 112.895 0.564C113.055 0.564 113.191 0.624 113.303 0.744C113.423 0.864 113.483 1.004 113.483 1.164C113.483 1.324 113.423 1.464 113.303 1.584C113.191 1.696 113.055 1.752 112.895 1.752ZM111.251 1.752C111.083 1.752 110.939 1.696 110.819 1.584C110.707 1.464 110.651 1.324 110.651 1.164C110.651 1.004 110.707 0.864 110.819 0.744C110.939 0.624 111.083 0.564 111.251 0.564C111.411 0.564 111.547 0.624 111.659 0.744C111.779 0.864 111.839 1.004 111.839 1.164C111.839 1.324 111.779 1.464 111.659 1.584C111.547 1.696 111.411 1.752 111.251 1.752ZM114.431 11.76L114.083 10.848C114.891 10.592 115.511 10.284 115.943 9.924C116.383 9.572 116.683 9.204 116.843 8.82C117.011 8.436 117.095 8.068 117.095 7.716C117.095 7.492 117.071 7.276 117.023 7.068C116.975 6.86 116.891 6.624 116.771 6.36C116.651 6.096 116.483 5.768 116.267 5.376L117.143 4.932C117.447 5.452 117.663 5.944 117.791 6.408C117.927 6.872 117.995 7.28 117.995 7.632C117.995 8.136 117.911 8.592 117.743 9C117.583 9.408 117.367 9.768 117.095 10.08C116.831 10.4 116.539 10.672 116.219 10.896C115.907 11.12 115.591 11.304 115.271 11.448C114.959 11.592 114.679 11.696 114.431 11.76ZM122.149 9.012C122.149 8.82 122.165 8.616 122.197 8.4C122.237 8.176 122.293 7.94 122.365 7.692C122.445 7.436 122.541 7.168 122.653 6.888L123.517 7.224C123.437 7.448 123.365 7.66 123.301 7.86C123.245 8.06 123.201 8.248 123.169 8.424C123.145 8.6 123.133 8.768 123.133 8.928C123.133 9.264 123.205 9.548 123.349 9.78C123.501 10.02 123.709 10.216 123.973 10.368C124.237 10.52 124.537 10.632 124.873 10.704C125.217 10.776 125.581 10.812 125.965 10.812C126.429 10.812 126.861 10.772 127.261 10.692C127.669 10.612 128.025 10.496 128.329 10.344C128.641 10.2 128.885 10.032 129.061 9.84C129.237 9.656 129.325 9.456 129.325 9.24C129.325 9.136 129.285 9.04 129.205 8.952C129.125 8.864 129.005 8.78 128.845 8.7C128.685 8.62 128.493 8.544 128.269 8.472C128.045 8.392 127.789 8.312 127.501 8.232L127.729 7.236C128.145 7.396 128.513 7.532 128.833 7.644C129.153 7.748 129.433 7.832 129.673 7.896C129.913 7.96 130.121 8.008 130.297 8.04C130.473 8.064 130.621 8.076 130.741 8.076C130.909 8.076 131.029 8.124 131.101 8.22C131.181 8.308 131.221 8.416 131.221 8.544C131.221 8.672 131.165 8.792 131.053 8.904C130.941 9.008 130.797 9.06 130.621 9.06C130.573 9.06 130.525 9.06 130.477 9.06C130.429 9.06 130.377 9.06 130.321 9.06C130.273 9.06 130.225 9.06 130.177 9.06C130.193 9.132 130.205 9.188 130.213 9.228C130.221 9.276 130.225 9.336 130.225 9.408C130.225 9.704 130.121 9.992 129.913 10.272C129.713 10.552 129.417 10.804 129.025 11.028C128.633 11.26 128.157 11.444 127.597 11.58C127.045 11.716 126.413 11.784 125.701 11.784C125.069 11.784 124.481 11.68 123.937 11.472C123.401 11.272 122.969 10.968 122.641 10.56C122.313 10.152 122.149 9.636 122.149 9.012ZM130.625 9.06L130.745 8.076C131.137 8.076 131.449 8.052 131.681 8.004C131.913 7.956 132.081 7.86 132.185 7.716C132.289 7.564 132.341 7.34 132.341 7.044C132.341 6.844 132.309 6.608 132.245 6.336C132.181 6.056 132.097 5.76 131.993 5.448C131.889 5.136 131.777 4.828 131.657 4.524L132.629 4.164C132.733 4.42 132.829 4.712 132.917 5.04C133.013 5.368 133.093 5.692 133.157 6.012C133.221 6.332 133.253 6.612 133.253 6.852C133.253 7.172 133.217 7.456 133.145 7.704C133.081 7.944 132.981 8.152 132.845 8.328C132.709 8.496 132.533 8.636 132.317 8.748C132.109 8.852 131.865 8.932 131.585 8.988C131.305 9.036 130.985 9.06 130.625 9.06ZM131.069 2.832L130.925 2.184C131.133 2.136 131.301 2.096 131.429 2.064C131.557 2.032 131.701 1.996 131.861 1.956L131.801 2.208C131.593 2.144 131.393 2.008 131.201 1.8C131.017 1.592 130.925 1.356 130.925 1.092C130.925 0.852 130.981 0.652 131.093 0.491999C131.213 0.324 131.365 0.2 131.549 0.12C131.741 0.0399995 131.945 -7.15256e-07 132.161 -7.15256e-07C132.249 -7.15256e-07 132.341 0.00799942 132.437 0.0239997C132.541 0.0399995 132.637 0.0639994 132.725 0.0959995L132.629 0.696C132.549 0.68 132.473 0.664 132.401 0.648C132.329 0.632 132.249 0.624 132.161 0.624C131.977 0.624 131.833 0.664 131.729 0.744C131.625 0.816 131.573 0.92 131.573 1.056C131.573 1.224 131.625 1.368 131.729 1.488C131.841 1.608 131.965 1.704 132.101 1.776C132.245 1.84 132.361 1.872 132.449 1.872L131.957 1.92C132.173 1.864 132.373 1.808 132.557 1.752C132.749 1.688 132.921 1.628 133.073 1.572L133.265 2.184C133.073 2.256 132.845 2.332 132.581 2.412C132.325 2.492 132.065 2.568 131.801 2.64C131.537 2.712 131.293 2.776 131.069 2.832ZM134.544 11.76L134.328 10.776C134.808 10.712 135.248 10.62 135.648 10.5C136.056 10.388 136.404 10.224 136.692 10.008C136.988 9.792 137.216 9.508 137.376 9.156C137.536 8.804 137.616 8.364 137.616 7.836C137.616 7.292 137.516 6.84 137.316 6.48C137.116 6.12 136.856 5.94 136.536 5.94C136.368 5.94 136.212 6.004 136.068 6.132C135.924 6.26 135.804 6.432 135.708 6.648C135.62 6.864 135.576 7.1 135.576 7.356C135.576 7.5 135.608 7.62 135.672 7.716C135.736 7.804 135.828 7.876 135.948 7.932C136.076 7.98 136.236 8.016 136.428 8.04C136.62 8.064 136.844 8.076 137.1 8.076H139.632C139.8 8.076 139.92 8.124 139.992 8.22C140.072 8.308 140.112 8.416 140.112 8.544C140.112 8.672 140.056 8.792 139.944 8.904C139.832 9.008 139.688 9.06 139.512 9.06H136.644C136.284 9.06 135.948 9.008 135.636 8.904C135.332 8.8 135.084 8.64 134.892 8.424C134.708 8.2 134.616 7.908 134.616 7.548C134.616 7.212 134.668 6.892 134.772 6.588C134.876 6.276 135.016 6 135.192 5.76C135.376 5.512 135.588 5.316 135.828 5.172C136.076 5.028 136.344 4.956 136.632 4.956C137 4.956 137.328 5.064 137.616 5.28C137.904 5.496 138.132 5.824 138.3 6.264C138.468 6.696 138.552 7.244 138.552 7.908C138.552 8.652 138.4 9.292 138.096 9.828C137.8 10.372 137.352 10.804 136.752 11.124C136.16 11.444 135.424 11.656 134.544 11.76ZM139.508 9.06L139.628 8.076H140.756C141.228 8.076 141.6 8.052 141.872 8.004C142.152 7.948 142.356 7.88 142.484 7.8C142.62 7.712 142.708 7.62 142.748 7.524C142.796 7.42 142.82 7.316 142.82 7.212C142.82 7.028 142.748 6.8 142.604 6.528C142.468 6.256 142.184 5.904 141.752 5.472C141.528 5.248 141.304 5.044 141.08 4.86C140.856 4.668 140.648 4.5 140.456 4.356C140.272 4.204 140.124 4.076 140.012 3.972C139.9 3.868 139.844 3.788 139.844 3.732C139.844 3.612 139.852 3.496 139.868 3.384C139.892 3.272 139.92 3.168 139.952 3.072C139.992 2.976 140.04 2.9 140.096 2.844C140.256 2.676 140.46 2.508 140.708 2.34C140.964 2.172 141.26 1.996 141.596 1.812C141.94 1.628 142.324 1.432 142.748 1.224C143.18 1.008 143.652 0.772 144.164 0.516L144.572 1.404C143.932 1.708 143.396 1.968 142.964 2.184C142.54 2.392 142.18 2.58 141.884 2.748C141.588 2.908 141.328 3.06 141.104 3.204C140.88 3.348 140.652 3.508 140.42 3.684L140.6 3.228C141.104 3.628 141.548 4.004 141.932 4.356C142.324 4.708 142.652 5.048 142.916 5.376C143.18 5.696 143.38 6.012 143.516 6.324C143.652 6.636 143.72 6.952 143.72 7.272C143.72 7.448 143.688 7.64 143.624 7.848C143.56 8.056 143.424 8.252 143.216 8.436C143.008 8.62 142.696 8.772 142.28 8.892C141.864 9.004 141.304 9.06 140.6 9.06H139.508ZM147.813 9.012C147.813 8.724 147.853 8.404 147.933 8.052C148.013 7.7 148.141 7.312 148.317 6.888L149.181 7.224C149.053 7.56 148.957 7.868 148.893 8.148C148.829 8.428 148.797 8.688 148.797 8.928C148.797 9.368 148.905 9.724 149.121 9.996C149.345 10.276 149.641 10.48 150.009 10.608C150.385 10.736 150.797 10.8 151.245 10.8C151.789 10.8 152.245 10.74 152.613 10.62C152.981 10.508 153.273 10.352 153.489 10.152C153.705 9.952 153.857 9.724 153.945 9.468C154.041 9.22 154.089 8.96 154.089 8.688C154.089 8.336 154.061 8.004 154.005 7.692C153.957 7.38 153.889 7.076 153.801 6.78C153.721 6.476 153.633 6.168 153.537 5.856L154.509 5.592C154.597 5.896 154.665 6.144 154.713 6.336C154.761 6.52 154.797 6.668 154.821 6.78C154.853 6.892 154.881 6.992 154.905 7.08C154.993 7.376 155.109 7.596 155.253 7.74C155.397 7.876 155.561 7.968 155.745 8.016C155.937 8.056 156.133 8.076 156.333 8.076C156.501 8.076 156.621 8.124 156.693 8.22C156.773 8.308 156.813 8.416 156.813 8.544C156.813 8.672 156.757 8.792 156.645 8.904C156.533 9.008 156.389 9.06 156.213 9.06C155.877 9.06 155.597 9.004 155.373 8.892C155.149 8.772 154.973 8.624 154.845 8.448C154.725 8.272 154.645 8.088 154.605 7.896L155.097 8.508C155.073 8.916 154.993 9.312 154.857 9.696C154.729 10.088 154.521 10.44 154.233 10.752C153.945 11.072 153.553 11.324 153.057 11.508C152.569 11.692 151.953 11.784 151.209 11.784C150.753 11.784 150.321 11.728 149.913 11.616C149.505 11.504 149.141 11.332 148.821 11.1C148.509 10.876 148.261 10.588 148.077 10.236C147.901 9.892 147.813 9.484 147.813 9.012ZM156.219 9.06L156.339 8.076C156.739 8.076 157.051 8.048 157.275 7.992C157.499 7.928 157.667 7.812 157.779 7.644C157.899 7.468 157.995 7.216 158.067 6.888C158.139 6.56 158.227 6.132 158.331 5.604L159.267 5.784C159.235 5.928 159.199 6.088 159.159 6.264C159.119 6.44 159.083 6.616 159.051 6.792C159.027 6.96 159.015 7.108 159.015 7.236C159.015 7.356 159.023 7.468 159.039 7.572C159.055 7.676 159.115 7.764 159.219 7.836C159.323 7.908 159.499 7.968 159.747 8.016C159.995 8.056 160.351 8.076 160.815 8.076C160.983 8.076 161.103 8.124 161.175 8.22C161.255 8.308 161.295 8.416 161.295 8.544C161.295 8.672 161.239 8.792 161.127 8.904C161.015 9.008 160.871 9.06 160.695 9.06C160.207 9.06 159.819 9.036 159.531 8.988C159.243 8.932 159.023 8.852 158.871 8.748C158.727 8.644 158.623 8.516 158.559 8.364C158.503 8.204 158.459 8.02 158.427 7.812L158.787 7.836C158.659 8.092 158.519 8.3 158.367 8.46C158.223 8.62 158.055 8.744 157.863 8.832C157.671 8.92 157.439 8.98 157.167 9.012C156.903 9.044 156.587 9.06 156.219 9.06ZM159.243 11.328C159.075 11.328 158.931 11.268 158.811 11.148C158.699 11.036 158.643 10.9 158.643 10.74C158.643 10.58 158.699 10.44 158.811 10.32C158.931 10.2 159.075 10.14 159.243 10.14C159.403 10.14 159.539 10.2 159.651 10.32C159.771 10.44 159.831 10.58 159.831 10.74C159.831 10.9 159.771 11.036 159.651 11.148C159.539 11.268 159.403 11.328 159.243 11.328ZM157.599 11.328C157.431 11.328 157.287 11.268 157.167 11.148C157.055 11.036 156.999 10.9 156.999 10.74C156.999 10.58 157.055 10.44 157.167 10.32C157.287 10.2 157.431 10.14 157.599 10.14C157.759 10.14 157.895 10.2 158.007 10.32C158.127 10.44 158.187 10.58 158.187 10.74C158.187 10.9 158.127 11.036 158.007 11.148C157.895 11.268 157.759 11.328 157.599 11.328ZM160.695 9.06L160.815 8.076C161.039 8.076 161.227 8.028 161.379 7.932C161.531 7.836 161.679 7.676 161.823 7.452C161.967 7.228 162.123 6.928 162.291 6.552C162.523 6.04 162.751 5.652 162.975 5.388C163.207 5.124 163.435 4.944 163.659 4.848C163.891 4.752 164.119 4.704 164.343 4.704C164.615 4.704 164.867 4.776 165.099 4.92C165.331 5.056 165.535 5.24 165.711 5.472C165.887 5.704 166.023 5.96 166.119 6.24C166.223 6.512 166.275 6.784 166.275 7.056C166.275 7.536 166.191 7.92 166.023 8.208C165.855 8.488 165.639 8.692 165.375 8.82C165.119 8.94 164.851 9 164.571 9C164.323 9 164.003 8.952 163.611 8.856C163.227 8.76 162.739 8.516 162.147 8.124L162.615 7.368C163.007 7.616 163.359 7.788 163.671 7.884C163.991 7.972 164.255 8.016 164.463 8.016C164.695 8.016 164.879 7.984 165.015 7.92C165.151 7.848 165.251 7.748 165.315 7.62C165.379 7.492 165.411 7.348 165.411 7.188C165.411 6.956 165.355 6.724 165.243 6.492C165.131 6.26 164.987 6.068 164.811 5.916C164.643 5.764 164.463 5.688 164.271 5.688C164.127 5.688 163.987 5.728 163.851 5.808C163.715 5.888 163.575 6.036 163.431 6.252C163.287 6.468 163.123 6.78 162.939 7.188C162.747 7.62 162.563 7.964 162.387 8.22C162.219 8.468 162.047 8.652 161.871 8.772C161.695 8.892 161.511 8.968 161.319 9C161.135 9.04 160.927 9.06 160.695 9.06Z" fill="black"/>
</svg>
