<svg width="66" height="15" viewBox="0 0 66 15" fill="none" xmlns="http://www.w3.org/2000/svg">
<path d="M1.06753 13.784L0.719531 12.872C1.30353 12.68 1.78753 12.46 2.17153 12.212C2.56353 11.964 2.87153 11.7 3.09553 11.42C3.32753 11.14 3.49153 10.856 3.58753 10.568C3.68353 10.272 3.73153 9.988 3.73153 9.716C3.73153 9.324 3.64353 8.928 3.46753 8.528C3.29953 8.12 3.11153 7.736 2.90353 7.376L3.77953 6.932C3.93153 7.212 4.06353 7.488 4.17553 7.76C4.29553 8.032 4.39953 8.288 4.48753 8.528C4.58353 8.768 4.65953 8.988 4.71553 9.188C4.82753 9.532 4.97153 9.768 5.14753 9.896C5.33153 10.016 5.57953 10.076 5.89153 10.076C6.05953 10.076 6.17953 10.124 6.25153 10.22C6.33153 10.308 6.37153 10.416 6.37153 10.544C6.37153 10.672 6.31553 10.792 6.20353 10.904C6.09153 11.008 5.94753 11.06 5.77153 11.06C5.41953 11.06 5.13153 11 4.90753 10.88C4.69153 10.752 4.52753 10.588 4.41553 10.388C4.30353 10.18 4.22753 9.964 4.18753 9.74L4.57153 9.956C4.57153 10.484 4.45153 10.964 4.21153 11.396C3.97953 11.836 3.67953 12.216 3.31153 12.536C2.94353 12.864 2.55953 13.132 2.15953 13.34C1.75953 13.548 1.39553 13.696 1.06753 13.784ZM5.77734 11.06L5.89734 10.076C6.23334 10.076 6.49734 10.048 6.68934 9.992C6.88134 9.928 7.02534 9.812 7.12134 9.644C7.22534 9.468 7.31334 9.216 7.38534 8.888C7.45734 8.56 7.54534 8.132 7.64934 7.604L8.58534 7.784C8.55334 7.928 8.51734 8.088 8.47734 8.264C8.43734 8.44 8.40134 8.616 8.36934 8.792C8.34534 8.96 8.33334 9.108 8.33334 9.236C8.33334 9.396 8.36934 9.54 8.44134 9.668C8.51334 9.796 8.66934 9.896 8.90934 9.968C9.14934 10.04 9.51734 10.076 10.0133 10.076C10.1813 10.076 10.3013 10.124 10.3733 10.22C10.4533 10.308 10.4933 10.416 10.4933 10.544C10.4933 10.672 10.4373 10.792 10.3253 10.904C10.2133 11.008 10.0693 11.06 9.89334 11.06C9.37334 11.06 8.96534 11.016 8.66934 10.928C8.37334 10.832 8.15734 10.692 8.02134 10.508C7.88534 10.316 7.79334 10.084 7.74534 9.812L8.10534 9.836C7.97734 10.092 7.83734 10.3 7.68534 10.46C7.54134 10.62 7.38134 10.744 7.20534 10.832C7.02934 10.92 6.82534 10.98 6.59334 11.012C6.36134 11.044 6.08934 11.06 5.77734 11.06ZM7.81734 13.292C7.64934 13.292 7.50534 13.232 7.38534 13.112C7.27334 13 7.21734 12.864 7.21734 12.704C7.21734 12.544 7.27334 12.404 7.38534 12.284C7.50534 12.164 7.64934 12.104 7.81734 12.104C7.97734 12.104 8.11334 12.164 8.22534 12.284C8.34534 12.404 8.40534 12.544 8.40534 12.704C8.40534 12.864 8.34534 13 8.22534 13.112C8.11334 13.232 7.97734 13.292 7.81734 13.292ZM9.89062 11.06L10.0106 10.076C10.2346 10.076 10.4106 10.028 10.5386 9.932C10.6746 9.836 10.8026 9.676 10.9226 9.452C11.0506 9.228 11.2106 8.928 11.4026 8.552C11.5946 8.168 11.7866 7.856 11.9786 7.616C12.1786 7.368 12.3706 7.176 12.5546 7.04C12.7466 6.896 12.9266 6.796 13.0946 6.74C13.2626 6.684 13.4186 6.656 13.5626 6.656C13.8266 6.656 14.0626 6.716 14.2706 6.836C14.4786 6.948 14.6746 7.144 14.8586 7.424C15.0426 7.696 15.2306 8.072 15.4226 8.552C15.6066 8.992 15.7706 9.324 15.9146 9.548C16.0666 9.764 16.2226 9.908 16.3826 9.98C16.5506 10.044 16.7386 10.076 16.9466 10.076C17.1146 10.076 17.2346 10.124 17.3066 10.22C17.3866 10.308 17.4266 10.416 17.4266 10.544C17.4266 10.672 17.3706 10.792 17.2586 10.904C17.1466 11.008 17.0026 11.06 16.8266 11.06C16.5146 11.06 16.2266 11.008 15.9626 10.904C15.7066 10.8 15.4906 10.636 15.3146 10.412L15.4826 10.16C15.3946 10.408 15.2746 10.612 15.1226 10.772C14.9786 10.924 14.8146 11.036 14.6306 11.108C14.4466 11.188 14.2506 11.228 14.0426 11.228C13.7786 11.228 13.5066 11.172 13.2266 11.06C12.9546 10.948 12.6906 10.788 12.4346 10.58C12.1786 10.372 11.9546 10.128 11.7626 9.848C11.5546 10.216 11.3546 10.488 11.1626 10.664C10.9786 10.832 10.7866 10.94 10.5866 10.988C10.3866 11.036 10.1546 11.06 9.89062 11.06ZM12.2186 8.936C12.3546 9.16 12.4986 9.356 12.6506 9.524C12.8106 9.692 12.9706 9.832 13.1306 9.944C13.2906 10.048 13.4466 10.128 13.5986 10.184C13.7586 10.232 13.9026 10.256 14.0306 10.256C14.3106 10.256 14.5146 10.156 14.6426 9.956C14.7786 9.756 14.7746 9.476 14.6306 9.116C14.5586 8.932 14.4826 8.752 14.4026 8.576C14.3306 8.4 14.2506 8.24 14.1626 8.096C14.0746 7.944 13.9746 7.828 13.8626 7.748C13.7506 7.66 13.6266 7.616 13.4906 7.616C13.3706 7.616 13.2426 7.656 13.1066 7.736C12.9786 7.816 12.8386 7.952 12.6866 8.144C12.5426 8.336 12.3866 8.6 12.2186 8.936ZM16.8281 11.06L16.9481 10.076C17.3401 10.076 17.6521 10.052 17.8841 10.004C18.1161 9.956 18.2841 9.86 18.3881 9.716C18.4921 9.564 18.5441 9.34 18.5441 9.044C18.5441 8.844 18.5121 8.608 18.4481 8.336C18.3841 8.056 18.3001 7.76 18.1961 7.448C18.0921 7.136 17.9801 6.828 17.8601 6.524L18.8321 6.164C18.9361 6.42 19.0321 6.712 19.1201 7.04C19.2161 7.368 19.2961 7.692 19.3601 8.012C19.4241 8.332 19.4561 8.612 19.4561 8.852C19.4561 9.172 19.4201 9.456 19.3481 9.704C19.2841 9.944 19.1841 10.152 19.0481 10.328C18.9121 10.496 18.7361 10.636 18.5201 10.748C18.3121 10.852 18.0681 10.932 17.7881 10.988C17.5081 11.036 17.1881 11.06 16.8281 11.06ZM18.3641 4.916C18.1961 4.916 18.0521 4.86 17.9321 4.748C17.8201 4.628 17.7641 4.488 17.7641 4.328C17.7641 4.168 17.8201 4.028 17.9321 3.908C18.0521 3.788 18.1961 3.728 18.3641 3.728C18.5241 3.728 18.6601 3.788 18.7721 3.908C18.8921 4.028 18.9521 4.168 18.9521 4.328C18.9521 4.488 18.8921 4.628 18.7721 4.748C18.6601 4.86 18.5241 4.916 18.3641 4.916ZM27.7308 11.252L28.0428 10.268C28.9788 10.268 29.7828 10.244 30.4548 10.196C31.1348 10.148 31.6908 10.072 32.1228 9.968C32.5628 9.856 32.8868 9.708 33.0948 9.524C33.3108 9.332 33.4188 9.1 33.4188 8.828C33.4188 8.524 33.3628 8.172 33.2508 7.772C33.1388 7.372 32.9948 6.944 32.8188 6.488L33.7428 6.164C33.8468 6.42 33.9428 6.696 34.0308 6.992C34.1268 7.28 34.2068 7.568 34.2708 7.856C34.3348 8.136 34.3668 8.396 34.3668 8.636C34.3668 9.108 34.2588 9.512 34.0428 9.848C33.8268 10.176 33.4668 10.444 32.9628 10.652C32.4588 10.86 31.7788 11.012 30.9228 11.108C30.0748 11.204 29.0108 11.252 27.7308 11.252ZM27.7308 11.252C27.0188 11.252 26.3908 11.204 25.8468 11.108C25.3108 11.02 24.8628 10.88 24.5028 10.688C24.1428 10.496 23.8708 10.248 23.6868 9.944C23.5028 9.632 23.4108 9.256 23.4108 8.816C23.4108 8.616 23.4268 8.412 23.4588 8.204C23.4908 7.988 23.5308 7.772 23.5788 7.556C23.6348 7.34 23.6908 7.132 23.7468 6.932L24.6468 7.16C24.6148 7.28 24.5788 7.424 24.5388 7.592C24.4988 7.752 24.4628 7.916 24.4308 8.084C24.4068 8.252 24.3948 8.404 24.3948 8.54C24.3948 8.956 24.4988 9.292 24.7068 9.548C24.9228 9.796 25.2948 9.98 25.8228 10.1C26.3508 10.212 27.0908 10.268 28.0428 10.268L28.2828 10.868L27.7308 11.252ZM28.9308 3.452C28.7868 3.452 28.6148 3.448 28.4148 3.44C28.2228 3.424 28.0388 3.408 27.8628 3.392C27.6868 3.376 27.5548 3.364 27.4668 3.356L27.4908 2.66C27.6508 2.676 27.8588 2.696 28.1148 2.72C28.3788 2.744 28.6228 2.756 28.8468 2.756C29.1108 2.756 29.3228 2.74 29.4828 2.708C29.6508 2.668 29.7708 2.612 29.8428 2.54C29.9228 2.468 29.9628 2.388 29.9628 2.3C29.9628 2.188 29.9268 2.108 29.8548 2.06C29.7828 2.012 29.6908 1.988 29.5788 1.988C29.4188 1.988 29.2628 2.044 29.1108 2.156C28.9588 2.26 28.8228 2.38 28.7028 2.516C28.5908 2.644 28.5068 2.748 28.4508 2.828L27.7788 2.78C27.9148 2.516 28.0828 2.272 28.2828 2.048C28.4828 1.816 28.7028 1.632 28.9428 1.496C29.1828 1.352 29.4268 1.28 29.6748 1.28C29.9788 1.28 30.2188 1.372 30.3948 1.556C30.5708 1.74 30.6588 1.968 30.6588 2.24C30.6588 2.4 30.6108 2.576 30.5148 2.768C30.4268 2.952 30.2588 3.112 30.0108 3.248C29.7628 3.384 29.4028 3.452 28.9308 3.452ZM28.1028 2.66L28.0308 0.343999H28.6908L28.7868 2.348L28.1028 2.66ZM35.0168 13.76L34.6687 12.848C35.4768 12.592 36.0968 12.284 36.5288 11.924C36.9688 11.572 37.2688 11.204 37.4288 10.82C37.5968 10.436 37.6808 10.068 37.6808 9.716C37.6808 9.492 37.6568 9.276 37.6088 9.068C37.5608 8.86 37.4768 8.624 37.3568 8.36C37.2368 8.096 37.0688 7.768 36.8528 7.376L37.7288 6.932C38.0328 7.452 38.2488 7.944 38.3768 8.408C38.5128 8.872 38.5808 9.28 38.5808 9.632C38.5808 10.136 38.4968 10.592 38.3288 11C38.1688 11.408 37.9528 11.768 37.6808 12.08C37.4168 12.4 37.1248 12.672 36.8048 12.896C36.4928 13.12 36.1768 13.304 35.8568 13.448C35.5448 13.592 35.2648 13.696 35.0168 13.76ZM40.071 13.76L39.855 12.776C40.335 12.712 40.775 12.62 41.175 12.5C41.583 12.388 41.931 12.224 42.219 12.008C42.515 11.792 42.743 11.508 42.903 11.156C43.063 10.804 43.143 10.364 43.143 9.836C43.143 9.292 43.043 8.84 42.843 8.48C42.643 8.12 42.383 7.94 42.063 7.94C41.895 7.94 41.739 8.004 41.595 8.132C41.451 8.26 41.331 8.432 41.235 8.648C41.147 8.864 41.103 9.1 41.103 9.356C41.103 9.5 41.135 9.62 41.199 9.716C41.263 9.804 41.355 9.876 41.475 9.932C41.603 9.98 41.763 10.016 41.955 10.04C42.147 10.064 42.371 10.076 42.627 10.076H45.159C45.327 10.076 45.447 10.124 45.519 10.22C45.599 10.308 45.639 10.416 45.639 10.544C45.639 10.672 45.583 10.792 45.471 10.904C45.359 11.008 45.215 11.06 45.039 11.06H42.171C41.811 11.06 41.475 11.008 41.163 10.904C40.859 10.8 40.611 10.64 40.419 10.424C40.235 10.2 40.143 9.908 40.143 9.548C40.143 9.212 40.195 8.892 40.299 8.588C40.403 8.276 40.543 8 40.719 7.76C40.903 7.512 41.115 7.316 41.355 7.172C41.603 7.028 41.871 6.956 42.159 6.956C42.527 6.956 42.855 7.064 43.143 7.28C43.431 7.496 43.659 7.824 43.827 8.264C43.995 8.696 44.079 9.244 44.079 9.908C44.079 10.652 43.927 11.292 43.623 11.828C43.327 12.372 42.879 12.804 42.279 13.124C41.687 13.444 40.951 13.656 40.071 13.76ZM45.0352 11.06L45.1552 10.076C45.5552 10.076 45.8672 10.048 46.0912 9.992C46.3152 9.928 46.4832 9.812 46.5952 9.644C46.7152 9.468 46.8112 9.216 46.8832 8.888C46.9552 8.56 47.0432 8.132 47.1472 7.604L48.0832 7.784C48.0512 7.928 48.0152 8.088 47.9752 8.264C47.9352 8.44 47.8992 8.616 47.8672 8.792C47.8432 8.96 47.8312 9.108 47.8312 9.236C47.8312 9.356 47.8392 9.468 47.8552 9.572C47.8712 9.676 47.9312 9.764 48.0352 9.836C48.1392 9.908 48.3152 9.968 48.5632 10.016C48.8112 10.056 49.1672 10.076 49.6312 10.076C49.7992 10.076 49.9192 10.124 49.9912 10.22C50.0712 10.308 50.1112 10.416 50.1112 10.544C50.1112 10.672 50.0552 10.792 49.9432 10.904C49.8312 11.008 49.6872 11.06 49.5112 11.06C49.0232 11.06 48.6352 11.036 48.3472 10.988C48.0592 10.932 47.8392 10.852 47.6872 10.748C47.5432 10.644 47.4392 10.516 47.3752 10.364C47.3192 10.204 47.2752 10.02 47.2432 9.812L47.6032 9.836C47.4752 10.092 47.3352 10.3 47.1832 10.46C47.0392 10.62 46.8712 10.744 46.6792 10.832C46.4872 10.92 46.2552 10.98 45.9832 11.012C45.7192 11.044 45.4032 11.06 45.0352 11.06ZM47.1832 14.66C47.0232 14.66 46.8832 14.6 46.7632 14.48C46.6512 14.36 46.5952 14.22 46.5952 14.06C46.5952 13.9 46.6512 13.76 46.7632 13.64C46.8832 13.528 47.0232 13.472 47.1832 13.472C47.3512 13.472 47.4912 13.528 47.6032 13.64C47.7232 13.76 47.7832 13.9 47.7832 14.06C47.7832 14.22 47.7232 14.36 47.6032 14.48C47.4912 14.6 47.3512 14.66 47.1832 14.66ZM47.9992 13.34C47.8392 13.34 47.6992 13.28 47.5792 13.16C47.4672 13.04 47.4112 12.9 47.4112 12.74C47.4112 12.58 47.4672 12.44 47.5792 12.32C47.6992 12.208 47.8392 12.152 47.9992 12.152C48.1672 12.152 48.3072 12.208 48.4192 12.32C48.5392 12.44 48.5992 12.58 48.5992 12.74C48.5992 12.9 48.5392 13.04 48.4192 13.16C48.3072 13.28 48.1672 13.34 47.9992 13.34ZM46.3672 13.34C46.2072 13.34 46.0672 13.28 45.9472 13.16C45.8352 13.04 45.7792 12.9 45.7792 12.74C45.7792 12.58 45.8352 12.44 45.9472 12.32C46.0672 12.208 46.2072 12.152 46.3672 12.152C46.5352 12.152 46.6752 12.208 46.7872 12.32C46.9072 12.44 46.9672 12.58 46.9672 12.74C46.9672 12.9 46.9072 13.04 46.7872 13.16C46.6752 13.28 46.5352 13.34 46.3672 13.34ZM49.5117 11.06L49.6317 10.076C49.8877 10.076 50.0957 10.06 50.2557 10.028C50.4157 9.988 50.5477 9.896 50.6517 9.752C50.7637 9.6 50.8677 9.364 50.9637 9.044C51.0597 8.724 51.1717 8.276 51.2997 7.7L52.1997 7.952C52.1677 8.088 52.1317 8.244 52.0917 8.42C52.0517 8.588 52.0157 8.764 51.9837 8.948C51.9517 9.124 51.9357 9.288 51.9357 9.44C51.9357 9.64 52.0117 9.796 52.1637 9.908C52.3157 10.02 52.5917 10.076 52.9917 10.076C53.2317 10.076 53.4277 10.056 53.5797 10.016C53.7317 9.976 53.8557 9.88 53.9517 9.728C54.0557 9.576 54.1477 9.332 54.2277 8.996C54.3077 8.66 54.3917 8.2 54.4797 7.616L55.3917 7.784C55.3677 7.928 55.3397 8.104 55.3077 8.312C55.2757 8.52 55.2437 8.728 55.2117 8.936C55.1877 9.136 55.1757 9.304 55.1757 9.44C55.1757 9.552 55.1997 9.66 55.2477 9.764C55.3037 9.86 55.4077 9.936 55.5597 9.992C55.7197 10.048 55.9557 10.076 56.2677 10.076C56.4997 10.076 56.6997 10.048 56.8677 9.992C57.0437 9.936 57.1757 9.832 57.2637 9.68C57.3597 9.528 57.4077 9.316 57.4077 9.044C57.4077 8.74 57.3357 8.36 57.1917 7.904C57.0557 7.44 56.8997 6.98 56.7237 6.524L57.6957 6.164C57.7997 6.42 57.8957 6.712 57.9837 7.04C58.0797 7.368 58.1597 7.692 58.2237 8.012C58.2877 8.332 58.3197 8.612 58.3197 8.852C58.3197 9.22 58.2717 9.544 58.1757 9.824C58.0797 10.104 57.9437 10.336 57.7677 10.52C57.5917 10.696 57.3757 10.832 57.1197 10.928C56.8637 11.016 56.5757 11.06 56.2557 11.06C55.8797 11.06 55.5717 11.016 55.3317 10.928C55.0917 10.84 54.9077 10.708 54.7797 10.532C54.6517 10.348 54.5677 10.116 54.5277 9.836H54.9357C54.7837 10.18 54.6237 10.44 54.4557 10.616C54.2877 10.792 54.0797 10.912 53.8317 10.976C53.5837 11.032 53.2557 11.06 52.8477 11.06C52.6477 11.06 52.4317 11.028 52.1997 10.964C51.9757 10.9 51.7797 10.776 51.6117 10.592C51.4437 10.4 51.3437 10.116 51.3117 9.74L51.6717 9.668C51.5357 10.076 51.3677 10.38 51.1677 10.58C50.9757 10.772 50.7437 10.9 50.4717 10.964C50.1997 11.028 49.8797 11.06 49.5117 11.06ZM62.4139 11.06C61.7739 11.06 61.2819 10.988 60.9379 10.844C60.6019 10.7 60.3699 10.476 60.2419 10.172C60.1139 9.868 60.0419 9.476 60.0259 8.996L59.7859 2.432H60.7699L61.0099 8.612C61.0259 9.004 61.0619 9.308 61.1179 9.524C61.1819 9.732 61.3179 9.876 61.5259 9.956C61.7419 10.036 62.0779 10.076 62.5339 10.076C62.7019 10.076 62.8219 10.124 62.8939 10.22C62.9739 10.308 63.0139 10.416 63.0139 10.544C63.0139 10.672 62.9579 10.792 62.8459 10.904C62.7339 11.008 62.5899 11.06 62.4139 11.06ZM62.4141 11.06L62.5341 10.076C63.0061 10.076 63.3741 10.06 63.6381 10.028C63.9021 9.988 64.0901 9.896 64.2021 9.752C64.3141 9.6 64.3701 9.364 64.3701 9.044C64.3701 8.844 64.3381 8.608 64.2741 8.336C64.2101 8.056 64.1261 7.76 64.0221 7.448C63.9181 7.136 63.8061 6.828 63.6861 6.524L64.6581 6.164C64.7621 6.42 64.8581 6.712 64.9461 7.04C65.0421 7.368 65.1221 7.692 65.1861 8.012C65.2501 8.332 65.2821 8.612 65.2821 8.852C65.2821 9.252 65.2261 9.592 65.1141 9.872C65.0101 10.152 64.8421 10.38 64.6101 10.556C64.3781 10.732 64.0781 10.86 63.7101 10.94C63.3501 11.02 62.9181 11.06 62.4141 11.06ZM63.7581 14.66C63.5981 14.66 63.4581 14.6 63.3381 14.48C63.2261 14.36 63.1701 14.22 63.1701 14.06C63.1701 13.9 63.2261 13.76 63.3381 13.64C63.4581 13.528 63.5981 13.472 63.7581 13.472C63.9261 13.472 64.0661 13.528 64.1781 13.64C64.2981 13.76 64.3581 13.9 64.3581 14.06C64.3581 14.22 64.2981 14.36 64.1781 14.48C64.0661 14.6 63.9261 14.66 63.7581 14.66ZM64.5741 13.34C64.4141 13.34 64.2741 13.28 64.1541 13.16C64.0421 13.04 63.9861 12.9 63.9861 12.74C63.9861 12.58 64.0421 12.44 64.1541 12.32C64.2741 12.208 64.4141 12.152 64.5741 12.152C64.7421 12.152 64.8821 12.208 64.9941 12.32C65.1141 12.44 65.1741 12.58 65.1741 12.74C65.1741 12.9 65.1141 13.04 64.9941 13.16C64.8821 13.28 64.7421 13.34 64.5741 13.34ZM62.9421 13.34C62.7821 13.34 62.6421 13.28 62.5221 13.16C62.4101 13.04 62.3541 12.9 62.3541 12.74C62.3541 12.58 62.4101 12.44 62.5221 12.32C62.6421 12.208 62.7821 12.152 62.9421 12.152C63.1101 12.152 63.2501 12.208 63.3621 12.32C63.4821 12.44 63.5421 12.58 63.5421 12.74C63.5421 12.9 63.4821 13.04 63.3621 13.16C63.2501 13.28 63.1101 13.34 62.9421 13.34Z" fill="black"/>
</svg>
