<svg width="213" height="18" viewBox="0 0 213 18" fill="none" xmlns="http://www.w3.org/2000/svg">
<path d="M2.39891 10.588V10.384C2.39891 10.152 2.37491 9.956 2.32691 9.796C2.27891 9.628 2.18691 9.46 2.05091 9.292C1.91491 9.124 1.71091 8.928 1.43891 8.704C1.15091 8.464 0.898906 8.24 0.682906 8.032C0.474906 7.816 0.310906 7.584 0.190906 7.336C0.0789063 7.08 0.0229063 6.772 0.0229063 6.412C0.0229063 5.764 0.230906 5.252 0.646906 4.876C1.06291 4.5 1.65091 4.312 2.41091 4.312C2.89091 4.312 3.32291 4.368 3.70691 4.48C4.09891 4.592 4.45491 4.732 4.77491 4.9L4.40291 5.74C4.13091 5.604 3.84291 5.488 3.53891 5.392C3.23491 5.288 2.88291 5.236 2.48291 5.236C2.01891 5.236 1.65891 5.34 1.40291 5.548C1.15491 5.756 1.03091 6.052 1.03091 6.436C1.03091 6.676 1.06691 6.88 1.13891 7.048C1.21091 7.216 1.33491 7.388 1.51091 7.564C1.68691 7.74 1.92691 7.96 2.23091 8.224C2.49491 8.44 2.69891 8.648 2.84291 8.848C2.98691 9.048 3.08691 9.26 3.14291 9.484C3.20691 9.7 3.23891 9.96 3.23891 10.264V10.588H2.39891ZM2.77091 13.168C2.57091 13.168 2.39891 13.104 2.25491 12.976C2.11091 12.848 2.03891 12.64 2.03891 12.352C2.03891 12.056 2.11091 11.848 2.25491 11.728C2.39891 11.608 2.57091 11.548 2.77091 11.548C2.98691 11.548 3.16291 11.608 3.29891 11.728C3.44291 11.848 3.51491 12.056 3.51491 12.352C3.51491 12.64 3.44291 12.848 3.29891 12.976C3.16291 13.104 2.98691 13.168 2.77091 13.168ZM10.35 16.312C9.62203 16.312 8.93803 16.268 8.29803 16.18C7.66603 16.1 7.10603 15.972 6.61803 15.796C6.13803 15.628 5.76203 15.42 5.49003 15.172C5.21803 14.932 5.08203 14.656 5.08203 14.344C5.08203 14.016 5.21803 13.712 5.49003 13.432C5.77003 13.16 6.18603 12.924 6.73803 12.724C7.29803 12.524 7.99803 12.372 8.83803 12.268C9.67803 12.156 10.662 12.1 11.79 12.1C11.958 12.1 12.078 12.148 12.15 12.244C12.23 12.332 12.27 12.44 12.27 12.568C12.27 12.696 12.214 12.816 12.102 12.928C11.99 13.032 11.846 13.084 11.67 13.084C10.87 13.084 10.13 13.108 9.45003 13.156C8.77003 13.212 8.17403 13.288 7.66203 13.384C7.15803 13.48 6.76203 13.6 6.47403 13.744C6.19403 13.888 6.05403 14.056 6.05403 14.248C6.05403 14.392 6.14203 14.536 6.31803 14.68C6.49403 14.824 6.75803 14.952 7.11003 15.064C7.46203 15.184 7.91003 15.28 8.45403 15.352C8.99803 15.424 9.63403 15.46 10.362 15.46C10.746 15.46 11.038 15.456 11.238 15.448C11.446 15.448 11.618 15.444 11.754 15.436C11.89 15.428 12.046 15.42 12.222 15.412L12.102 16.24C12.006 16.248 11.91 16.256 11.814 16.264C11.718 16.28 11.606 16.288 11.478 16.288C11.358 16.296 11.206 16.3 11.022 16.3C10.846 16.308 10.622 16.312 10.35 16.312ZM11.656 6.4L11.212 5.728C11.524 5.536 11.896 5.308 12.328 5.044C12.768 4.78 13.272 4.488 13.84 4.168C14.408 3.848 15.036 3.508 15.724 3.148L16.06 3.88C15.364 4.248 14.744 4.584 14.2 4.888C13.664 5.192 13.188 5.468 12.772 5.716C12.356 5.964 11.984 6.192 11.656 6.4ZM11.668 13.06L11.788 12.076H12.916C13.388 12.076 13.76 12.052 14.032 12.004C14.312 11.948 14.516 11.88 14.644 11.8C14.78 11.712 14.868 11.62 14.908 11.524C14.956 11.42 14.98 11.316 14.98 11.212C14.98 11.028 14.908 10.8 14.764 10.528C14.628 10.256 14.344 9.904 13.912 9.472C13.688 9.248 13.464 9.044 13.24 8.86C13.016 8.668 12.808 8.5 12.616 8.356C12.432 8.204 12.284 8.076 12.172 7.972C12.06 7.868 12.004 7.788 12.004 7.732C12.004 7.612 12.012 7.496 12.028 7.384C12.052 7.272 12.08 7.168 12.112 7.072C12.152 6.976 12.2 6.9 12.256 6.844C12.416 6.676 12.62 6.508 12.868 6.34C13.124 6.172 13.42 5.996 13.756 5.812C14.1 5.628 14.484 5.432 14.908 5.224C15.34 5.008 15.812 4.772 16.324 4.516L16.732 5.404C16.092 5.708 15.556 5.968 15.124 6.184C14.7 6.392 14.34 6.58 14.044 6.748C13.748 6.908 13.488 7.06 13.264 7.204C13.04 7.348 12.812 7.508 12.58 7.684L12.76 7.228C13.264 7.628 13.708 8.004 14.092 8.356C14.484 8.708 14.812 9.048 15.076 9.376C15.34 9.696 15.54 10.012 15.676 10.324C15.812 10.636 15.88 10.952 15.88 11.272C15.88 11.448 15.848 11.64 15.784 11.848C15.72 12.056 15.584 12.252 15.376 12.436C15.168 12.62 14.856 12.772 14.44 12.892C14.024 13.004 13.464 13.06 12.76 13.06H11.668ZM19.9733 13.012C19.9733 12.724 20.0133 12.404 20.0933 12.052C20.1733 11.7 20.3013 11.312 20.4773 10.888L21.3413 11.224C21.2133 11.56 21.1173 11.868 21.0533 12.148C20.9893 12.428 20.9573 12.688 20.9573 12.928C20.9573 13.368 21.0653 13.724 21.2813 13.996C21.5053 14.276 21.8013 14.48 22.1693 14.608C22.5453 14.736 22.9573 14.8 23.4053 14.8C23.9493 14.8 24.4053 14.74 24.7733 14.62C25.1413 14.508 25.4333 14.352 25.6493 14.152C25.8653 13.952 26.0173 13.724 26.1053 13.468C26.2013 13.22 26.2493 12.96 26.2493 12.688C26.2493 12.336 26.2213 12.004 26.1653 11.692C26.1173 11.38 26.0493 11.076 25.9613 10.78C25.8813 10.476 25.7933 10.168 25.6973 9.856L26.6693 9.592C26.7573 9.896 26.8253 10.144 26.8733 10.336C26.9213 10.52 26.9573 10.668 26.9813 10.78C27.0133 10.892 27.0413 10.992 27.0653 11.08C27.1533 11.376 27.2693 11.596 27.4133 11.74C27.5573 11.876 27.7213 11.968 27.9053 12.016C28.0973 12.056 28.2933 12.076 28.4933 12.076C28.6613 12.076 28.7813 12.124 28.8533 12.22C28.9333 12.308 28.9733 12.416 28.9733 12.544C28.9733 12.672 28.9173 12.792 28.8053 12.904C28.6933 13.008 28.5493 13.06 28.3733 13.06C28.0373 13.06 27.7573 13.004 27.5333 12.892C27.3093 12.772 27.1333 12.624 27.0053 12.448C26.8853 12.272 26.8053 12.088 26.7653 11.896L27.2573 12.508C27.2333 12.916 27.1533 13.312 27.0173 13.696C26.8893 14.088 26.6813 14.44 26.3933 14.752C26.1053 15.072 25.7133 15.324 25.2173 15.508C24.7293 15.692 24.1133 15.784 23.3693 15.784C22.9133 15.784 22.4813 15.728 22.0733 15.616C21.6653 15.504 21.3013 15.332 20.9813 15.1C20.6693 14.876 20.4213 14.588 20.2373 14.236C20.0613 13.892 19.9733 13.484 19.9733 13.012ZM28.3789 13.06L28.4989 12.076C28.9709 12.076 29.3389 12.06 29.6029 12.028C29.8669 11.988 30.0549 11.896 30.1669 11.752C30.2789 11.6 30.3349 11.364 30.3349 11.044C30.3349 10.844 30.3029 10.608 30.2389 10.336C30.1749 10.056 30.0909 9.76 29.9869 9.448C29.8829 9.136 29.7709 8.828 29.6509 8.524L30.6229 8.164C30.7269 8.42 30.8229 8.712 30.9109 9.04C31.0069 9.368 31.0869 9.692 31.1509 10.012C31.2149 10.332 31.2469 10.612 31.2469 10.852C31.2469 11.252 31.1909 11.592 31.0789 11.872C30.9749 12.152 30.8069 12.38 30.5749 12.556C30.3429 12.732 30.0429 12.86 29.6749 12.94C29.3149 13.02 28.8829 13.06 28.3789 13.06ZM30.5989 15.328C30.4309 15.328 30.2869 15.268 30.1669 15.148C30.0549 15.036 29.9989 14.9 29.9989 14.74C29.9989 14.58 30.0549 14.44 30.1669 14.32C30.2869 14.2 30.4309 14.14 30.5989 14.14C30.7589 14.14 30.8949 14.2 31.0069 14.32C31.1269 14.44 31.1869 14.58 31.1869 14.74C31.1869 14.9 31.1269 15.036 31.0069 15.148C30.8949 15.268 30.7589 15.328 30.5989 15.328ZM28.9549 15.328C28.7869 15.328 28.6429 15.268 28.5229 15.148C28.4109 15.036 28.3549 14.9 28.3549 14.74C28.3549 14.58 28.4109 14.44 28.5229 14.32C28.6429 14.2 28.7869 14.14 28.9549 14.14C29.1149 14.14 29.2509 14.2 29.3629 14.32C29.4829 14.44 29.5429 14.58 29.5429 14.74C29.5429 14.9 29.4829 15.036 29.3629 15.148C29.2509 15.268 29.1149 15.328 28.9549 15.328ZM32.0128 15.784L31.6648 14.872C32.2488 14.68 32.7328 14.46 33.1168 14.212C33.5088 13.964 33.8168 13.7 34.0408 13.42C34.2728 13.14 34.4368 12.856 34.5328 12.568C34.6288 12.272 34.6768 11.988 34.6768 11.716C34.6768 11.324 34.5888 10.928 34.4128 10.528C34.2448 10.12 34.0568 9.736 33.8488 9.376L34.7248 8.932C34.8768 9.212 35.0088 9.488 35.1208 9.76C35.2408 10.032 35.3448 10.288 35.4328 10.528C35.5288 10.768 35.6048 10.988 35.6608 11.188C35.7728 11.532 35.9168 11.768 36.0928 11.896C36.2768 12.016 36.5248 12.076 36.8368 12.076C37.0048 12.076 37.1248 12.124 37.1968 12.22C37.2768 12.308 37.3168 12.416 37.3168 12.544C37.3168 12.672 37.2608 12.792 37.1488 12.904C37.0368 13.008 36.8928 13.06 36.7168 13.06C36.3648 13.06 36.0768 13 35.8528 12.88C35.6368 12.752 35.4728 12.588 35.3608 12.388C35.2488 12.18 35.1728 11.964 35.1328 11.74L35.5168 11.956C35.5168 12.484 35.3968 12.964 35.1568 13.396C34.9248 13.836 34.6248 14.216 34.2568 14.536C33.8888 14.864 33.5048 15.132 33.1048 15.34C32.7048 15.548 32.3408 15.696 32.0128 15.784ZM36.7227 13.06L36.8427 12.076H37.9707C38.4427 12.076 38.8147 12.052 39.0867 12.004C39.3667 11.948 39.5707 11.88 39.6987 11.8C39.8347 11.712 39.9227 11.62 39.9627 11.524C40.0107 11.42 40.0347 11.316 40.0347 11.212C40.0347 11.028 39.9627 10.8 39.8187 10.528C39.6827 10.256 39.3987 9.904 38.9667 9.472C38.7427 9.248 38.5187 9.044 38.2947 8.86C38.0707 8.668 37.8627 8.5 37.6707 8.356C37.4867 8.204 37.3387 8.076 37.2267 7.972C37.1147 7.868 37.0587 7.788 37.0587 7.732C37.0587 7.612 37.0667 7.496 37.0827 7.384C37.1067 7.272 37.1347 7.168 37.1667 7.072C37.2067 6.976 37.2547 6.9 37.3107 6.844C37.4707 6.676 37.6747 6.508 37.9227 6.34C38.1787 6.172 38.4747 5.996 38.8107 5.812C39.1547 5.628 39.5387 5.432 39.9627 5.224C40.3947 5.008 40.8667 4.772 41.3787 4.516L41.7867 5.404C41.1467 5.708 40.6107 5.968 40.1787 6.184C39.7547 6.392 39.3947 6.58 39.0987 6.748C38.8027 6.908 38.5427 7.06 38.3187 7.204C38.0947 7.348 37.8667 7.508 37.6347 7.684L37.8147 7.228C38.3187 7.628 38.7627 8.004 39.1467 8.356C39.5387 8.708 39.8667 9.048 40.1307 9.376C40.3947 9.696 40.5947 10.012 40.7307 10.324C40.8667 10.636 40.9347 10.952 40.9347 11.272C40.9347 11.448 40.9027 11.64 40.8387 11.848C40.7747 12.056 40.6387 12.252 40.4307 12.436C40.2227 12.62 39.9107 12.772 39.4947 12.892C39.0787 13.004 38.5187 13.06 37.8147 13.06H36.7227ZM45.772 13L45.532 4.432H46.504L46.744 13H45.772ZM47.9473 12.46L48.4273 11.632C48.5873 11.736 48.8113 11.836 49.0993 11.932C49.3873 12.028 49.7233 12.076 50.1073 12.076C50.5073 12.076 50.8233 12.036 51.0553 11.956C51.2953 11.876 51.4673 11.76 51.5713 11.608C51.6833 11.448 51.7393 11.264 51.7393 11.056C51.7393 10.896 51.7033 10.7 51.6313 10.468C51.5673 10.228 51.4233 9.908 51.1993 9.508C50.9753 9.1 50.6313 8.568 50.1673 7.912L50.9953 7.372C51.4193 7.956 51.7553 8.484 52.0033 8.956C52.2593 9.428 52.4393 9.844 52.5433 10.204C52.6553 10.556 52.7113 10.86 52.7113 11.116C52.7113 11.436 52.6313 11.748 52.4713 12.052C52.3113 12.348 52.0433 12.592 51.6673 12.784C51.2913 12.976 50.7713 13.072 50.1073 13.072C49.8193 13.072 49.5393 13.048 49.2673 13C49.0033 12.952 48.7593 12.884 48.5353 12.796C48.3113 12.7 48.1153 12.588 47.9473 12.46ZM54.3501 13L54.1101 4.432H55.0821L55.3221 13H54.3501ZM60.0295 17.716C59.8615 17.1 59.7175 16.496 59.5975 15.904C59.4775 15.32 59.3855 14.796 59.3215 14.332C59.2575 13.868 59.2255 13.524 59.2255 13.3C59.2255 12.708 59.3215 12.168 59.5135 11.68C59.7055 11.192 59.9535 10.764 60.2575 10.396C60.5615 10.02 60.8895 9.704 61.2415 9.448C61.5935 9.184 61.9335 8.988 62.2615 8.86C62.5975 8.724 62.8815 8.656 63.1135 8.656C63.3135 8.656 63.4895 8.7 63.6415 8.788C63.7935 8.876 63.9415 9.048 64.0855 9.304C64.2295 9.56 64.3815 9.936 64.5415 10.432C64.6935 10.888 64.8375 11.236 64.9735 11.476C65.1095 11.708 65.2575 11.868 65.4175 11.956C65.5775 12.036 65.7615 12.076 65.9695 12.076C66.1375 12.076 66.2575 12.124 66.3295 12.22C66.4095 12.308 66.4495 12.416 66.4495 12.544C66.4495 12.672 66.3935 12.792 66.2815 12.904C66.1695 13.008 66.0255 13.06 65.8495 13.06C65.5375 13.06 65.2695 13.004 65.0455 12.892C64.8295 12.78 64.6415 12.628 64.4815 12.436L64.7575 12.208C64.6615 12.44 64.5375 12.632 64.3855 12.784C64.2415 12.928 64.0775 13.036 63.8935 13.108C63.7175 13.18 63.5295 13.216 63.3295 13.216C63.0975 13.216 62.8575 13.172 62.6095 13.084C62.3615 13.004 62.1175 12.884 61.8775 12.724C61.6375 12.556 61.4095 12.352 61.1935 12.112C60.9855 11.872 60.8015 11.6 60.6415 11.296L60.7615 11.32C60.5375 11.632 60.3895 11.972 60.3175 12.34C60.2455 12.7 60.2095 13.02 60.2095 13.3C60.2095 13.524 60.2335 13.808 60.2815 14.152C60.3295 14.504 60.3895 14.876 60.4615 15.268C60.5415 15.66 60.6255 16.048 60.7135 16.432C60.8095 16.824 60.8975 17.176 60.9775 17.488L60.0295 17.716ZM63.4255 12.232C63.5695 12.232 63.6855 12.204 63.7735 12.148C63.8695 12.092 63.9335 12.008 63.9655 11.896C63.9975 11.784 63.9855 11.644 63.9295 11.476C63.8335 11.188 63.7455 10.936 63.6655 10.72C63.5855 10.496 63.5055 10.312 63.4255 10.168C63.3535 10.016 63.2775 9.904 63.1975 9.832C63.1175 9.76 63.0335 9.724 62.9455 9.724C62.8575 9.724 62.7455 9.744 62.6095 9.784C62.4815 9.824 62.3415 9.884 62.1895 9.964C62.0455 10.044 61.8975 10.144 61.7455 10.264C61.5935 10.384 61.4495 10.524 61.3135 10.684L61.3255 10.588C61.5015 10.956 61.7135 11.264 61.9615 11.512C62.2175 11.76 62.4735 11.944 62.7295 12.064C62.9935 12.176 63.2255 12.232 63.4255 12.232ZM65.8438 13.06L65.9638 12.076C66.1638 12.076 66.3838 12.076 66.6238 12.076C66.8718 12.068 67.1198 12.06 67.3678 12.052C67.6238 12.044 67.8598 12.028 68.0758 12.004C68.2918 11.972 68.4718 11.932 68.6158 11.884C68.9038 11.78 69.1278 11.652 69.2878 11.5C69.4478 11.34 69.5598 11.132 69.6238 10.876C69.6958 10.612 69.7318 10.276 69.7318 9.868C69.7318 9.532 69.6878 9.22 69.5998 8.932C69.5118 8.644 69.3878 8.412 69.2278 8.236C69.0678 8.06 68.8758 7.972 68.6518 7.972C68.4678 7.972 68.2998 8.044 68.1478 8.188C68.0038 8.324 67.8878 8.5 67.7998 8.716C67.7198 8.932 67.6798 9.148 67.6798 9.364C67.6798 9.532 67.7118 9.676 67.7758 9.796C67.8478 9.916 67.9638 10.012 68.1238 10.084C68.2838 10.148 68.4918 10.18 68.7478 10.18C68.9798 10.18 69.2118 10.156 69.4438 10.108C69.6838 10.06 69.8878 9.996 70.0558 9.916L70.1038 10.756C69.9758 10.844 69.8318 10.916 69.6718 10.972C69.5118 11.028 69.3438 11.068 69.1678 11.092C68.9918 11.116 68.8158 11.128 68.6398 11.128C68.2318 11.128 67.8838 11.064 67.5958 10.936C67.3158 10.8 67.0998 10.62 66.9478 10.396C66.8038 10.164 66.7318 9.9 66.7318 9.604C66.7318 9.3 66.7798 8.996 66.8758 8.692C66.9718 8.38 67.1078 8.096 67.2838 7.84C67.4598 7.584 67.6718 7.38 67.9198 7.228C68.1678 7.068 68.4438 6.988 68.7478 6.988C69.1798 6.988 69.5358 7.128 69.8158 7.408C70.1038 7.688 70.3158 8.056 70.4518 8.512C70.5958 8.96 70.6678 9.436 70.6678 9.94C70.6678 10.54 70.5638 11.056 70.3558 11.488C70.1558 11.912 69.8198 12.264 69.3478 12.544C69.1638 12.648 68.9398 12.736 68.6758 12.808C68.4198 12.872 68.1358 12.924 67.8238 12.964C67.5198 13.004 67.1998 13.028 66.8638 13.036C66.5278 13.052 66.1878 13.06 65.8438 13.06ZM69.3598 5.752C69.1918 5.752 69.0478 5.696 68.9277 5.584C68.8158 5.464 68.7598 5.324 68.7598 5.164C68.7598 5.004 68.8158 4.864 68.9277 4.744C69.0478 4.624 69.1918 4.564 69.3598 4.564C69.5198 4.564 69.6558 4.624 69.7678 4.744C69.8878 4.864 69.9478 5.004 69.9478 5.164C69.9478 5.324 69.8878 5.464 69.7678 5.584C69.6558 5.696 69.5198 5.752 69.3598 5.752ZM67.7158 5.752C67.5478 5.752 67.4038 5.696 67.2838 5.584C67.1718 5.464 67.1158 5.324 67.1158 5.164C67.1158 5.004 67.1718 4.864 67.2838 4.744C67.4038 4.624 67.5478 4.564 67.7158 4.564C67.8758 4.564 68.0118 4.624 68.1238 4.744C68.2438 4.864 68.3038 5.004 68.3038 5.164C68.3038 5.324 68.2438 5.464 68.1238 5.584C68.0118 5.696 67.8758 5.752 67.7158 5.752ZM70.8957 15.76L70.5477 14.848C71.3557 14.592 71.9757 14.284 72.4077 13.924C72.8477 13.572 73.1477 13.204 73.3077 12.82C73.4757 12.436 73.5597 12.068 73.5597 11.716C73.5597 11.492 73.5357 11.276 73.4877 11.068C73.4397 10.86 73.3557 10.624 73.2357 10.36C73.1157 10.096 72.9477 9.768 72.7317 9.376L73.6077 8.932C73.9117 9.452 74.1277 9.944 74.2557 10.408C74.3917 10.872 74.4597 11.28 74.4597 11.632C74.4597 12.136 74.3757 12.592 74.2077 13C74.0477 13.408 73.8317 13.768 73.5597 14.08C73.2957 14.4 73.0037 14.672 72.6837 14.896C72.3717 15.12 72.0557 15.304 71.7357 15.448C71.4237 15.592 71.1437 15.696 70.8957 15.76ZM78.6139 13.012C78.6139 12.82 78.6299 12.616 78.6619 12.4C78.7019 12.176 78.7579 11.94 78.8299 11.692C78.9099 11.436 79.0059 11.168 79.1179 10.888L79.9819 11.224C79.9019 11.448 79.8299 11.66 79.7659 11.86C79.7099 12.06 79.6659 12.248 79.6339 12.424C79.6099 12.6 79.5979 12.768 79.5979 12.928C79.5979 13.264 79.6699 13.548 79.8139 13.78C79.9659 14.02 80.1739 14.216 80.4379 14.368C80.7019 14.52 81.0019 14.632 81.3379 14.704C81.6819 14.776 82.0459 14.812 82.4299 14.812C82.8939 14.812 83.3259 14.772 83.7259 14.692C84.1339 14.612 84.4899 14.496 84.7939 14.344C85.1059 14.2 85.3499 14.032 85.5259 13.84C85.7019 13.656 85.7899 13.456 85.7899 13.24C85.7899 13.136 85.7499 13.04 85.6699 12.952C85.5899 12.864 85.4699 12.78 85.3099 12.7C85.1499 12.62 84.9579 12.544 84.7339 12.472C84.5099 12.392 84.2539 12.312 83.9659 12.232L84.1939 11.236C84.6099 11.396 84.9779 11.532 85.2979 11.644C85.6179 11.748 85.8979 11.832 86.1379 11.896C86.3779 11.96 86.5859 12.008 86.7619 12.04C86.9379 12.064 87.0859 12.076 87.2059 12.076C87.3739 12.076 87.4939 12.124 87.5659 12.22C87.6459 12.308 87.6859 12.416 87.6859 12.544C87.6859 12.672 87.6299 12.792 87.5179 12.904C87.4059 13.008 87.2619 13.06 87.0859 13.06C87.0379 13.06 86.9899 13.06 86.9419 13.06C86.8939 13.06 86.8419 13.06 86.7859 13.06C86.7379 13.06 86.6899 13.06 86.6419 13.06C86.6579 13.132 86.6699 13.188 86.6779 13.228C86.6859 13.276 86.6899 13.336 86.6899 13.408C86.6899 13.704 86.5859 13.992 86.3779 14.272C86.1779 14.552 85.8819 14.804 85.4899 15.028C85.0979 15.26 84.6219 15.444 84.0619 15.58C83.5099 15.716 82.8779 15.784 82.1659 15.784C81.5339 15.784 80.9459 15.68 80.4019 15.472C79.8659 15.272 79.4339 14.968 79.1059 14.56C78.7779 14.152 78.6139 13.636 78.6139 13.012ZM87.0898 13.06L87.2098 12.076C87.5458 12.076 87.8098 12.048 88.0018 11.992C88.1938 11.928 88.3378 11.812 88.4338 11.644C88.5378 11.468 88.6258 11.216 88.6978 10.888C88.7698 10.56 88.8578 10.132 88.9618 9.604L89.8978 9.784C89.8658 9.928 89.8298 10.088 89.7898 10.264C89.7498 10.44 89.7138 10.616 89.6818 10.792C89.6578 10.96 89.6458 11.108 89.6458 11.236C89.6458 11.396 89.6818 11.54 89.7538 11.668C89.8258 11.796 89.9818 11.896 90.2218 11.968C90.4618 12.04 90.8298 12.076 91.3258 12.076C91.4938 12.076 91.6138 12.124 91.6858 12.22C91.7658 12.308 91.8058 12.416 91.8058 12.544C91.8058 12.672 91.7498 12.792 91.6378 12.904C91.5258 13.008 91.3818 13.06 91.2058 13.06C90.6858 13.06 90.2778 13.016 89.9818 12.928C89.6858 12.832 89.4698 12.692 89.3338 12.508C89.1978 12.316 89.1058 12.084 89.0578 11.812L89.4178 11.836C89.2898 12.092 89.1498 12.3 88.9978 12.46C88.8538 12.62 88.6938 12.744 88.5178 12.832C88.3418 12.92 88.1378 12.98 87.9058 13.012C87.6738 13.044 87.4018 13.06 87.0898 13.06ZM88.9618 8.368C88.7938 8.368 88.6498 8.312 88.5298 8.2C88.4178 8.08 88.3618 7.94 88.3618 7.78C88.3618 7.62 88.4178 7.48 88.5298 7.36C88.6498 7.24 88.7938 7.18 88.9618 7.18C89.1218 7.18 89.2578 7.24 89.3698 7.36C89.4898 7.48 89.5498 7.62 89.5498 7.78C89.5498 7.94 89.4898 8.08 89.3698 8.2C89.2578 8.312 89.1218 8.368 88.9618 8.368ZM91.2031 13.06L91.3231 12.076C91.7231 12.076 92.0351 12.048 92.2591 11.992C92.4831 11.928 92.6511 11.812 92.7631 11.644C92.8831 11.468 92.9791 11.216 93.0511 10.888C93.1231 10.56 93.2111 10.132 93.3151 9.604L94.2511 9.784C94.2191 9.928 94.1831 10.088 94.1431 10.264C94.1031 10.44 94.0671 10.616 94.0351 10.792C94.0111 10.96 93.9991 11.108 93.9991 11.236C93.9991 11.356 94.0071 11.468 94.0231 11.572C94.0391 11.676 94.0991 11.764 94.2031 11.836C94.3071 11.908 94.4831 11.968 94.7311 12.016C94.9791 12.056 95.3351 12.076 95.7991 12.076C95.9671 12.076 96.0871 12.124 96.1591 12.22C96.2391 12.308 96.2791 12.416 96.2791 12.544C96.2791 12.672 96.2231 12.792 96.1111 12.904C95.9991 13.008 95.8551 13.06 95.6791 13.06C95.1911 13.06 94.8031 13.036 94.5151 12.988C94.2271 12.932 94.0071 12.852 93.8551 12.748C93.7111 12.644 93.6071 12.516 93.5431 12.364C93.4871 12.204 93.4431 12.02 93.4111 11.812L93.7711 11.836C93.6431 12.092 93.5031 12.3 93.3511 12.46C93.2071 12.62 93.0391 12.744 92.8471 12.832C92.6551 12.92 92.4231 12.98 92.1511 13.012C91.8871 13.044 91.5711 13.06 91.2031 13.06ZM94.4071 8.368C94.2391 8.368 94.0951 8.312 93.9751 8.2C93.8631 8.08 93.8071 7.94 93.8071 7.78C93.8071 7.62 93.8631 7.48 93.9751 7.36C94.0951 7.24 94.2391 7.18 94.4071 7.18C94.5671 7.18 94.7031 7.24 94.8151 7.36C94.9351 7.48 94.9951 7.62 94.9951 7.78C94.9951 7.94 94.9351 8.08 94.8151 8.2C94.7031 8.312 94.5671 8.368 94.4071 8.368ZM92.7631 8.368C92.5951 8.368 92.4511 8.312 92.3311 8.2C92.2191 8.08 92.1631 7.94 92.1631 7.78C92.1631 7.62 92.2191 7.48 92.3311 7.36C92.4511 7.24 92.5951 7.18 92.7631 7.18C92.9231 7.18 93.0591 7.24 93.1711 7.36C93.2911 7.48 93.3511 7.62 93.3511 7.78C93.3511 7.94 93.2911 8.08 93.1711 8.2C93.0591 8.312 92.9231 8.368 92.7631 8.368ZM95.6797 13.06L95.7997 12.076H96.9277C97.3997 12.076 97.7717 12.052 98.0437 12.004C98.3237 11.948 98.5277 11.88 98.6557 11.8C98.7917 11.712 98.8797 11.62 98.9197 11.524C98.9677 11.42 98.9917 11.316 98.9917 11.212C98.9917 11.028 98.9197 10.8 98.7757 10.528C98.6397 10.256 98.3557 9.904 97.9237 9.472C97.6997 9.248 97.4757 9.044 97.2517 8.86C97.0277 8.668 96.8197 8.5 96.6277 8.356C96.4437 8.204 96.2957 8.076 96.1837 7.972C96.0717 7.868 96.0157 7.788 96.0157 7.732C96.0157 7.612 96.0237 7.496 96.0397 7.384C96.0637 7.272 96.0917 7.168 96.1237 7.072C96.1637 6.976 96.2117 6.9 96.2677 6.844C96.4277 6.676 96.6317 6.508 96.8797 6.34C97.1357 6.172 97.4317 5.996 97.7677 5.812C98.1117 5.628 98.4957 5.432 98.9197 5.224C99.3517 5.008 99.8237 4.772 100.336 4.516L100.744 5.404C100.104 5.708 99.5677 5.968 99.1357 6.184C98.7117 6.392 98.3517 6.58 98.0557 6.748C97.7597 6.908 97.4997 7.06 97.2757 7.204C97.0517 7.348 96.8237 7.508 96.5917 7.684L96.7717 7.228C97.2757 7.628 97.7197 8.004 98.1037 8.356C98.4957 8.708 98.8237 9.048 99.0877 9.376C99.3517 9.696 99.5517 10.012 99.6877 10.324C99.8237 10.636 99.8917 10.952 99.8917 11.272C99.8917 11.448 99.8597 11.64 99.7957 11.848C99.7317 12.056 99.5957 12.252 99.3877 12.436C99.1797 12.62 98.8677 12.772 98.4517 12.892C98.0357 13.004 97.4757 13.06 96.7717 13.06H95.6797ZM109.373 13.06C108.917 13.06 108.549 12.992 108.269 12.856C107.997 12.72 107.773 12.532 107.597 12.292C107.429 12.044 107.281 11.752 107.153 11.416C107.025 11.08 106.889 10.716 106.745 10.324C106.713 10.22 106.637 10.148 106.517 10.108C106.397 10.068 106.269 10.048 106.133 10.048C105.925 10.048 105.717 10.092 105.509 10.18C105.309 10.268 105.141 10.4 105.005 10.576C104.877 10.752 104.813 10.968 104.813 11.224C104.813 11.448 104.845 11.664 104.909 11.872C104.981 12.072 105.061 12.3 105.149 12.556L104.285 12.796C104.221 12.612 104.153 12.436 104.081 12.268C104.017 12.1 103.965 11.924 103.925 11.74C103.885 11.556 103.865 11.352 103.865 11.128C103.865 10.8 103.937 10.508 104.081 10.252C104.225 9.996 104.417 9.78 104.657 9.604C104.897 9.428 105.161 9.296 105.449 9.208C105.737 9.112 106.021 9.064 106.301 9.064C106.437 9.064 106.581 9.076 106.733 9.1C106.893 9.124 107.037 9.184 107.165 9.28C107.301 9.368 107.401 9.512 107.465 9.712C107.593 10.072 107.705 10.4 107.801 10.696C107.905 10.984 108.021 11.232 108.149 11.44C108.277 11.648 108.445 11.808 108.653 11.92C108.869 12.024 109.149 12.076 109.493 12.076C109.661 12.076 109.781 12.124 109.853 12.22C109.933 12.308 109.973 12.416 109.973 12.544C109.973 12.672 109.917 12.792 109.805 12.904C109.693 13.008 109.549 13.06 109.373 13.06ZM109.367 13.06L109.487 12.076C109.879 12.076 110.191 12.052 110.423 12.004C110.655 11.956 110.823 11.86 110.927 11.716C111.031 11.564 111.083 11.34 111.083 11.044C111.083 10.844 111.051 10.608 110.987 10.336C110.923 10.056 110.839 9.76 110.735 9.448C110.631 9.136 110.519 8.828 110.399 8.524L111.371 8.164C111.475 8.42 111.571 8.712 111.659 9.04C111.755 9.368 111.835 9.692 111.899 10.012C111.963 10.332 111.995 10.612 111.995 10.852C111.995 11.172 111.959 11.456 111.887 11.704C111.823 11.944 111.723 12.152 111.587 12.328C111.451 12.496 111.275 12.636 111.059 12.748C110.851 12.852 110.607 12.932 110.327 12.988C110.047 13.036 109.727 13.06 109.367 13.06ZM110.903 6.916C110.735 6.916 110.591 6.86 110.471 6.748C110.359 6.628 110.303 6.488 110.303 6.328C110.303 6.168 110.359 6.028 110.471 5.908C110.591 5.788 110.735 5.728 110.903 5.728C111.063 5.728 111.199 5.788 111.311 5.908C111.431 6.028 111.491 6.168 111.491 6.328C111.491 6.488 111.431 6.628 111.311 6.748C111.199 6.86 111.063 6.916 110.903 6.916ZM117.306 6.568C117.306 6.392 117.294 6.18 117.27 5.932C117.246 5.684 117.218 5.436 117.186 5.188C117.154 4.94 117.122 4.728 117.09 4.552L118.122 4.432C118.146 4.592 118.17 4.804 118.194 5.068C118.226 5.324 118.25 5.58 118.266 5.836C118.282 6.092 118.29 6.304 118.29 6.472C118.29 6.856 118.262 7.232 118.206 7.6C118.158 7.96 118.078 8.316 117.966 8.668C117.854 9.012 117.706 9.348 117.522 9.676L117.378 9.94C117.154 10.316 116.878 10.68 116.55 11.032C116.222 11.376 115.838 11.704 115.398 12.016H116.91C117.182 12.016 117.39 11.984 117.534 11.92C117.678 11.848 117.774 11.756 117.822 11.644C117.878 11.532 117.906 11.412 117.906 11.284C117.906 11.068 117.774 10.8 117.51 10.48C117.254 10.152 116.898 9.792 116.442 9.4C115.986 9 115.47 8.58 114.894 8.14C114.318 7.7 113.71 7.252 113.07 6.796L113.634 6.004C114.37 6.548 115.018 7.04 115.578 7.48C116.146 7.92 116.63 8.324 117.03 8.692C117.438 9.052 117.77 9.388 118.026 9.7C118.29 10.004 118.482 10.296 118.602 10.576C118.73 10.848 118.794 11.116 118.794 11.38C118.794 11.556 118.762 11.74 118.698 11.932C118.642 12.116 118.538 12.292 118.386 12.46C118.242 12.62 118.034 12.752 117.762 12.856C117.498 12.952 117.154 13 116.73 13H113.97V12.028C114.794 11.436 115.446 10.86 115.926 10.3C116.414 9.74 116.766 9.156 116.982 8.548C117.198 7.94 117.306 7.28 117.306 6.568ZM123.066 13.06C122.426 13.06 121.934 12.988 121.59 12.844C121.254 12.7 121.022 12.476 120.894 12.172C120.766 11.868 120.694 11.476 120.678 10.996L120.438 4.432H121.422L121.662 10.612C121.678 11.004 121.714 11.308 121.77 11.524C121.834 11.732 121.97 11.876 122.178 11.956C122.394 12.036 122.73 12.076 123.186 12.076C123.354 12.076 123.474 12.124 123.546 12.22C123.626 12.308 123.666 12.416 123.666 12.544C123.666 12.672 123.61 12.792 123.498 12.904C123.386 13.008 123.242 13.06 123.066 13.06ZM123.066 13.06L123.186 12.076C123.442 12.076 123.65 12.06 123.81 12.028C123.97 11.988 124.102 11.896 124.206 11.752C124.318 11.6 124.422 11.364 124.518 11.044C124.614 10.724 124.726 10.276 124.854 9.7L125.754 9.952C125.722 10.088 125.686 10.244 125.646 10.42C125.606 10.588 125.57 10.764 125.538 10.948C125.506 11.124 125.49 11.288 125.49 11.44C125.49 11.64 125.566 11.796 125.718 11.908C125.87 12.02 126.146 12.076 126.546 12.076C126.786 12.076 126.982 12.056 127.134 12.016C127.286 11.976 127.41 11.88 127.506 11.728C127.61 11.576 127.702 11.332 127.782 10.996C127.862 10.66 127.946 10.2 128.034 9.616L128.946 9.784C128.922 9.928 128.894 10.104 128.862 10.312C128.83 10.52 128.798 10.728 128.766 10.936C128.742 11.136 128.73 11.304 128.73 11.44C128.73 11.552 128.754 11.66 128.802 11.764C128.858 11.86 128.962 11.936 129.114 11.992C129.274 12.048 129.51 12.076 129.822 12.076C130.054 12.076 130.254 12.048 130.422 11.992C130.598 11.936 130.73 11.832 130.818 11.68C130.914 11.528 130.962 11.316 130.962 11.044C130.962 10.74 130.89 10.36 130.746 9.904C130.61 9.44 130.454 8.98 130.278 8.524L131.25 8.164C131.354 8.42 131.45 8.712 131.538 9.04C131.634 9.368 131.714 9.692 131.778 10.012C131.842 10.332 131.874 10.612 131.874 10.852C131.874 11.22 131.826 11.544 131.73 11.824C131.634 12.104 131.498 12.336 131.322 12.52C131.146 12.696 130.93 12.832 130.674 12.928C130.418 13.016 130.13 13.06 129.81 13.06C129.434 13.06 129.126 13.016 128.886 12.928C128.646 12.84 128.462 12.708 128.334 12.532C128.206 12.348 128.122 12.116 128.082 11.836H128.49C128.338 12.18 128.178 12.44 128.01 12.616C127.842 12.792 127.634 12.912 127.386 12.976C127.138 13.032 126.81 13.06 126.402 13.06C126.202 13.06 125.986 13.028 125.754 12.964C125.53 12.9 125.334 12.776 125.166 12.592C124.998 12.4 124.898 12.116 124.866 11.74L125.226 11.668C125.09 12.076 124.922 12.38 124.722 12.58C124.53 12.772 124.298 12.9 124.026 12.964C123.754 13.028 123.434 13.06 123.066 13.06ZM135.837 13.012C135.837 12.724 135.877 12.404 135.957 12.052C136.037 11.7 136.165 11.312 136.341 10.888L137.205 11.224C137.077 11.56 136.981 11.868 136.917 12.148C136.853 12.428 136.821 12.688 136.821 12.928C136.821 13.368 136.929 13.724 137.145 13.996C137.369 14.276 137.665 14.48 138.033 14.608C138.409 14.736 138.821 14.8 139.269 14.8C139.813 14.8 140.269 14.74 140.637 14.62C141.005 14.508 141.297 14.352 141.513 14.152C141.729 13.952 141.881 13.724 141.969 13.468C142.065 13.22 142.113 12.96 142.113 12.688C142.113 12.336 142.085 12.004 142.029 11.692C141.981 11.38 141.913 11.076 141.825 10.78C141.745 10.476 141.657 10.168 141.561 9.856L142.533 9.592C142.621 9.896 142.689 10.144 142.737 10.336C142.785 10.52 142.821 10.668 142.845 10.78C142.877 10.892 142.905 10.992 142.929 11.08C143.017 11.376 143.133 11.596 143.277 11.74C143.421 11.876 143.585 11.968 143.769 12.016C143.961 12.056 144.157 12.076 144.357 12.076C144.525 12.076 144.645 12.124 144.717 12.22C144.797 12.308 144.837 12.416 144.837 12.544C144.837 12.672 144.781 12.792 144.669 12.904C144.557 13.008 144.413 13.06 144.237 13.06C143.901 13.06 143.621 13.004 143.397 12.892C143.173 12.772 142.997 12.624 142.869 12.448C142.749 12.272 142.669 12.088 142.629 11.896L143.121 12.508C143.097 12.916 143.017 13.312 142.881 13.696C142.753 14.088 142.545 14.44 142.257 14.752C141.969 15.072 141.577 15.324 141.081 15.508C140.593 15.692 139.977 15.784 139.233 15.784C138.777 15.784 138.345 15.728 137.937 15.616C137.529 15.504 137.165 15.332 136.845 15.1C136.533 14.876 136.285 14.588 136.101 14.236C135.925 13.892 135.837 13.484 135.837 13.012ZM144.242 13.06L144.362 12.076C144.762 12.076 145.074 12.048 145.298 11.992C145.522 11.928 145.69 11.812 145.802 11.644C145.922 11.468 146.018 11.216 146.09 10.888C146.162 10.56 146.25 10.132 146.354 9.604L147.29 9.784C147.258 9.928 147.222 10.088 147.182 10.264C147.142 10.44 147.106 10.616 147.074 10.792C147.05 10.96 147.038 11.108 147.038 11.236C147.038 11.356 147.046 11.468 147.062 11.572C147.078 11.676 147.138 11.764 147.242 11.836C147.346 11.908 147.522 11.968 147.77 12.016C148.018 12.056 148.374 12.076 148.838 12.076C149.006 12.076 149.126 12.124 149.198 12.22C149.278 12.308 149.318 12.416 149.318 12.544C149.318 12.672 149.262 12.792 149.15 12.904C149.038 13.008 148.894 13.06 148.718 13.06C148.23 13.06 147.842 13.036 147.554 12.988C147.266 12.932 147.046 12.852 146.894 12.748C146.75 12.644 146.646 12.516 146.582 12.364C146.526 12.204 146.482 12.02 146.45 11.812L146.81 11.836C146.682 12.092 146.542 12.3 146.39 12.46C146.246 12.62 146.078 12.744 145.886 12.832C145.694 12.92 145.462 12.98 145.19 13.012C144.926 13.044 144.61 13.06 144.242 13.06ZM147.266 15.328C147.098 15.328 146.954 15.268 146.834 15.148C146.722 15.036 146.666 14.9 146.666 14.74C146.666 14.58 146.722 14.44 146.834 14.32C146.954 14.2 147.098 14.14 147.266 14.14C147.426 14.14 147.562 14.2 147.674 14.32C147.794 14.44 147.854 14.58 147.854 14.74C147.854 14.9 147.794 15.036 147.674 15.148C147.562 15.268 147.426 15.328 147.266 15.328ZM145.622 15.328C145.454 15.328 145.31 15.268 145.19 15.148C145.078 15.036 145.022 14.9 145.022 14.74C145.022 14.58 145.078 14.44 145.19 14.32C145.31 14.2 145.454 14.14 145.622 14.14C145.782 14.14 145.918 14.2 146.03 14.32C146.15 14.44 146.21 14.58 146.21 14.74C146.21 14.9 146.15 15.036 146.03 15.148C145.918 15.268 145.782 15.328 145.622 15.328ZM148.719 13.06L148.839 12.076C149.063 12.076 149.251 12.028 149.403 11.932C149.555 11.836 149.703 11.676 149.847 11.452C149.991 11.228 150.147 10.928 150.315 10.552C150.547 10.04 150.775 9.652 150.999 9.388C151.231 9.124 151.459 8.944 151.683 8.848C151.915 8.752 152.143 8.704 152.367 8.704C152.639 8.704 152.891 8.776 153.123 8.92C153.355 9.056 153.559 9.24 153.735 9.472C153.911 9.704 154.047 9.96 154.143 10.24C154.247 10.512 154.299 10.784 154.299 11.056C154.299 11.536 154.215 11.92 154.047 12.208C153.879 12.488 153.663 12.692 153.399 12.82C153.143 12.94 152.875 13 152.595 13C152.347 13 152.027 12.952 151.635 12.856C151.251 12.76 150.763 12.516 150.171 12.124L150.639 11.368C151.031 11.616 151.383 11.788 151.695 11.884C152.015 11.972 152.279 12.016 152.487 12.016C152.719 12.016 152.903 11.984 153.039 11.92C153.175 11.848 153.275 11.748 153.339 11.62C153.403 11.492 153.435 11.348 153.435 11.188C153.435 10.956 153.379 10.724 153.267 10.492C153.155 10.26 153.011 10.068 152.835 9.916C152.667 9.764 152.487 9.688 152.295 9.688C152.151 9.688 152.011 9.728 151.875 9.808C151.739 9.888 151.599 10.036 151.455 10.252C151.311 10.468 151.147 10.78 150.963 11.188C150.771 11.62 150.587 11.964 150.411 12.22C150.243 12.468 150.071 12.652 149.895 12.772C149.719 12.892 149.535 12.968 149.343 13C149.159 13.04 148.951 13.06 148.719 13.06ZM160.603 12.076C161.003 12.076 161.319 12.036 161.551 11.956C161.791 11.876 161.963 11.76 162.067 11.608C162.179 11.448 162.235 11.264 162.235 11.056C162.235 10.896 162.191 10.704 162.103 10.48C162.023 10.256 161.911 10.008 161.767 9.736C161.623 9.456 161.455 9.164 161.263 8.86C161.079 8.548 160.879 8.232 160.663 7.912L161.491 7.372C161.803 7.844 162.075 8.292 162.307 8.716C162.539 9.132 162.735 9.524 162.895 9.892C163.055 10.252 163.183 10.592 163.279 10.912C163.391 11.264 163.515 11.524 163.651 11.692C163.795 11.86 163.943 11.968 164.095 12.016C164.247 12.056 164.387 12.076 164.515 12.076C164.683 12.076 164.807 12.124 164.887 12.22C164.967 12.308 165.007 12.416 165.007 12.544C165.007 12.672 164.951 12.792 164.839 12.904C164.727 13.008 164.583 13.06 164.407 13.06C164.143 13.06 163.883 13.012 163.627 12.916C163.379 12.812 163.163 12.648 162.979 12.424C162.795 12.192 162.667 11.884 162.595 11.5L163.075 11.116C163.075 11.436 163.007 11.748 162.871 12.052C162.735 12.348 162.487 12.592 162.127 12.784C161.775 12.976 161.267 13.072 160.603 13.072C160.315 13.072 160.035 13.048 159.763 13C159.499 12.952 159.255 12.884 159.031 12.796C158.807 12.7 158.611 12.588 158.443 12.46L158.923 11.632C159.083 11.736 159.307 11.836 159.595 11.932C159.883 12.028 160.219 12.076 160.603 12.076ZM160.711 3.544C160.567 3.544 160.395 3.54 160.195 3.532C160.003 3.516 159.819 3.5 159.643 3.484C159.467 3.468 159.335 3.456 159.247 3.448L159.271 2.752C159.431 2.768 159.639 2.788 159.895 2.812C160.159 2.836 160.403 2.848 160.627 2.848C160.891 2.848 161.103 2.832 161.263 2.8C161.431 2.76 161.551 2.704 161.623 2.632C161.703 2.56 161.743 2.48 161.743 2.392C161.743 2.28 161.707 2.2 161.635 2.152C161.563 2.104 161.471 2.08 161.359 2.08C161.199 2.08 161.043 2.136 160.891 2.248C160.739 2.352 160.603 2.472 160.483 2.608C160.371 2.736 160.287 2.84 160.231 2.92L159.559 2.872C159.695 2.608 159.863 2.364 160.063 2.14C160.263 1.908 160.483 1.724 160.723 1.588C160.963 1.444 161.207 1.372 161.455 1.372C161.759 1.372 161.999 1.464 162.175 1.648C162.351 1.832 162.439 2.06 162.439 2.332C162.439 2.492 162.391 2.668 162.295 2.86C162.207 3.044 162.039 3.204 161.791 3.34C161.543 3.476 161.183 3.544 160.711 3.544ZM159.883 2.752L159.811 0.435999H160.471L160.567 2.44L159.883 2.752ZM164.41 13.06L164.53 12.076C164.866 12.076 165.13 12.048 165.322 11.992C165.514 11.928 165.658 11.812 165.754 11.644C165.858 11.468 165.946 11.216 166.018 10.888C166.09 10.56 166.178 10.132 166.282 9.604L167.218 9.784C167.186 9.928 167.15 10.088 167.11 10.264C167.07 10.44 167.034 10.616 167.002 10.792C166.978 10.96 166.966 11.108 166.966 11.236C166.966 11.396 167.002 11.54 167.074 11.668C167.146 11.796 167.302 11.896 167.542 11.968C167.782 12.04 168.15 12.076 168.646 12.076C168.814 12.076 168.934 12.124 169.006 12.22C169.086 12.308 169.126 12.416 169.126 12.544C169.126 12.672 169.07 12.792 168.958 12.904C168.846 13.008 168.702 13.06 168.526 13.06C168.006 13.06 167.598 13.016 167.302 12.928C167.006 12.832 166.79 12.692 166.654 12.508C166.518 12.316 166.426 12.084 166.378 11.812L166.738 11.836C166.61 12.092 166.47 12.3 166.318 12.46C166.174 12.62 166.014 12.744 165.838 12.832C165.662 12.92 165.458 12.98 165.226 13.012C164.994 13.044 164.722 13.06 164.41 13.06ZM166.282 8.368C166.114 8.368 165.97 8.312 165.85 8.2C165.738 8.08 165.682 7.94 165.682 7.78C165.682 7.62 165.738 7.48 165.85 7.36C165.97 7.24 166.114 7.18 166.282 7.18C166.442 7.18 166.578 7.24 166.69 7.36C166.81 7.48 166.87 7.62 166.87 7.78C166.87 7.94 166.81 8.08 166.69 8.2C166.578 8.312 166.442 8.368 166.282 8.368ZM168.523 13.06L168.643 12.076C168.843 12.076 169.063 12.076 169.303 12.076C169.551 12.068 169.799 12.06 170.047 12.052C170.303 12.044 170.539 12.028 170.755 12.004C170.971 11.972 171.151 11.932 171.295 11.884C171.583 11.78 171.807 11.652 171.967 11.5C172.127 11.34 172.239 11.132 172.303 10.876C172.375 10.612 172.411 10.276 172.411 9.868C172.411 9.532 172.367 9.22 172.279 8.932C172.191 8.644 172.067 8.412 171.907 8.236C171.747 8.06 171.555 7.972 171.331 7.972C171.147 7.972 170.979 8.044 170.827 8.188C170.683 8.324 170.567 8.5 170.479 8.716C170.399 8.932 170.359 9.148 170.359 9.364C170.359 9.532 170.391 9.676 170.455 9.796C170.527 9.916 170.643 10.012 170.803 10.084C170.963 10.148 171.171 10.18 171.427 10.18C171.659 10.18 171.891 10.156 172.123 10.108C172.363 10.06 172.567 9.996 172.735 9.916L172.783 10.756C172.655 10.844 172.511 10.916 172.351 10.972C172.191 11.028 172.023 11.068 171.847 11.092C171.671 11.116 171.495 11.128 171.319 11.128C170.911 11.128 170.563 11.064 170.275 10.936C169.995 10.8 169.779 10.62 169.627 10.396C169.483 10.164 169.411 9.9 169.411 9.604C169.411 9.3 169.459 8.996 169.555 8.692C169.651 8.38 169.787 8.096 169.963 7.84C170.139 7.584 170.351 7.38 170.599 7.228C170.847 7.068 171.123 6.988 171.427 6.988C171.859 6.988 172.215 7.128 172.495 7.408C172.783 7.688 172.995 8.056 173.131 8.512C173.275 8.96 173.347 9.436 173.347 9.94C173.347 10.54 173.243 11.056 173.035 11.488C172.835 11.912 172.499 12.264 172.027 12.544C171.843 12.648 171.619 12.736 171.355 12.808C171.099 12.872 170.815 12.924 170.503 12.964C170.199 13.004 169.879 13.028 169.543 13.036C169.207 13.052 168.867 13.06 168.523 13.06ZM171.199 5.752C171.031 5.752 170.887 5.696 170.767 5.584C170.655 5.464 170.599 5.324 170.599 5.164C170.599 5.004 170.655 4.864 170.767 4.744C170.887 4.624 171.031 4.564 171.199 4.564C171.359 4.564 171.495 4.624 171.607 4.744C171.727 4.864 171.787 5.004 171.787 5.164C171.787 5.324 171.727 5.464 171.607 5.584C171.495 5.696 171.359 5.752 171.199 5.752ZM180.647 15.784C180.191 15.784 179.759 15.72 179.351 15.592C178.943 15.472 178.579 15.292 178.259 15.052C177.947 14.812 177.699 14.52 177.515 14.176C177.339 13.84 177.251 13.452 177.251 13.012C177.251 12.82 177.267 12.616 177.299 12.4C177.339 12.176 177.395 11.94 177.467 11.692C177.547 11.436 177.643 11.168 177.755 10.888L178.619 11.224C178.539 11.448 178.467 11.66 178.403 11.86C178.347 12.06 178.303 12.248 178.271 12.424C178.247 12.6 178.235 12.768 178.235 12.928C178.235 13.336 178.343 13.68 178.559 13.96C178.783 14.24 179.079 14.448 179.447 14.584C179.823 14.728 180.235 14.8 180.683 14.8C181.227 14.8 181.683 14.736 182.051 14.608C182.419 14.488 182.711 14.324 182.927 14.116C183.143 13.916 183.295 13.692 183.383 13.444C183.479 13.196 183.527 12.944 183.527 12.688C183.527 12.336 183.499 12.004 183.443 11.692C183.395 11.38 183.327 11.076 183.239 10.78C183.159 10.476 183.071 10.168 182.975 9.856L183.947 9.592C184.035 9.896 184.103 10.144 184.151 10.336C184.199 10.52 184.235 10.668 184.259 10.78C184.291 10.892 184.319 10.992 184.343 11.08C184.431 11.376 184.531 11.596 184.643 11.74C184.763 11.876 184.899 11.968 185.051 12.016C185.211 12.056 185.391 12.076 185.591 12.076C185.751 12.076 185.891 12.056 186.011 12.016C186.139 11.976 186.255 11.88 186.359 11.728C186.471 11.576 186.567 11.332 186.647 10.996C186.735 10.66 186.815 10.2 186.887 9.616L187.799 9.784C187.775 9.928 187.747 10.104 187.715 10.312C187.683 10.52 187.651 10.728 187.619 10.936C187.595 11.136 187.583 11.304 187.583 11.44C187.583 11.552 187.607 11.66 187.655 11.764C187.711 11.86 187.815 11.936 187.967 11.992C188.127 12.048 188.363 12.076 188.675 12.076C188.923 12.076 189.135 12.06 189.311 12.028C189.495 11.988 189.635 11.896 189.731 11.752C189.835 11.6 189.887 11.364 189.887 11.044C189.887 10.844 189.855 10.608 189.791 10.336C189.727 10.056 189.643 9.76 189.539 9.448C189.435 9.136 189.323 8.828 189.203 8.524L190.175 8.164C190.279 8.42 190.375 8.712 190.463 9.04C190.559 9.368 190.639 9.692 190.703 10.012C190.767 10.332 190.799 10.612 190.799 10.852C190.799 11.26 190.743 11.604 190.631 11.884C190.527 12.164 190.379 12.392 190.187 12.568C189.995 12.744 189.767 12.872 189.503 12.952C189.247 13.024 188.967 13.06 188.663 13.06C188.383 13.06 188.139 13.036 187.931 12.988C187.731 12.94 187.559 12.868 187.415 12.772C187.279 12.668 187.171 12.54 187.091 12.388C187.019 12.228 186.967 12.044 186.935 11.836H187.343C187.215 12.124 187.071 12.36 186.911 12.544C186.751 12.72 186.559 12.852 186.335 12.94C186.119 13.02 185.851 13.06 185.531 13.06C185.283 13.06 185.071 13.028 184.895 12.964C184.719 12.892 184.571 12.804 184.451 12.7C184.339 12.588 184.251 12.464 184.187 12.328C184.123 12.184 184.075 12.04 184.043 11.896L184.535 12.508C184.495 12.892 184.407 13.276 184.271 13.66C184.143 14.044 183.935 14.396 183.647 14.716C183.367 15.044 182.983 15.304 182.495 15.496C182.007 15.688 181.391 15.784 180.647 15.784ZM192.502 13L192.262 4.432H193.234L193.474 13H192.502ZM201.938 13.252L202.25 12.268C203.186 12.268 203.99 12.244 204.662 12.196C205.342 12.148 205.898 12.072 206.33 11.968C206.77 11.856 207.094 11.708 207.302 11.524C207.518 11.332 207.626 11.1 207.626 10.828C207.626 10.524 207.57 10.172 207.458 9.772C207.346 9.372 207.202 8.944 207.026 8.488L207.95 8.164C208.054 8.42 208.15 8.696 208.238 8.992C208.334 9.28 208.414 9.568 208.478 9.856C208.542 10.136 208.574 10.396 208.574 10.636C208.574 11.108 208.466 11.512 208.25 11.848C208.034 12.176 207.674 12.444 207.17 12.652C206.666 12.86 205.986 13.012 205.13 13.108C204.282 13.204 203.218 13.252 201.938 13.252ZM201.938 13.252C201.226 13.252 200.598 13.204 200.054 13.108C199.518 13.02 199.07 12.88 198.71 12.688C198.35 12.496 198.078 12.248 197.894 11.944C197.71 11.632 197.618 11.256 197.618 10.816C197.618 10.616 197.634 10.412 197.666 10.204C197.698 9.988 197.738 9.772 197.786 9.556C197.842 9.34 197.898 9.132 197.954 8.932L198.854 9.16C198.822 9.28 198.786 9.424 198.746 9.592C198.706 9.752 198.67 9.916 198.638 10.084C198.614 10.252 198.602 10.404 198.602 10.54C198.602 10.956 198.706 11.292 198.914 11.548C199.13 11.796 199.502 11.98 200.03 12.1C200.558 12.212 201.298 12.268 202.25 12.268L202.49 12.868L201.938 13.252ZM203.078 16.9C202.918 16.9 202.778 16.84 202.658 16.72C202.546 16.6 202.49 16.46 202.49 16.3C202.49 16.14 202.546 16 202.658 15.88C202.778 15.768 202.918 15.712 203.078 15.712C203.246 15.712 203.386 15.768 203.498 15.88C203.618 16 203.678 16.14 203.678 16.3C203.678 16.46 203.618 16.6 203.498 16.72C203.386 16.84 203.246 16.9 203.078 16.9ZM203.894 15.58C203.734 15.58 203.594 15.52 203.474 15.4C203.362 15.28 203.306 15.14 203.306 14.98C203.306 14.82 203.362 14.68 203.474 14.56C203.594 14.448 203.734 14.392 203.894 14.392C204.062 14.392 204.202 14.448 204.314 14.56C204.434 14.68 204.494 14.82 204.494 14.98C204.494 15.14 204.434 15.28 204.314 15.4C204.202 15.52 204.062 15.58 203.894 15.58ZM202.262 15.58C202.102 15.58 201.962 15.52 201.842 15.4C201.73 15.28 201.674 15.14 201.674 14.98C201.674 14.82 201.73 14.68 201.842 14.56C201.962 14.448 202.102 14.392 202.262 14.392C202.43 14.392 202.57 14.448 202.682 14.56C202.802 14.68 202.862 14.82 202.862 14.98C202.862 15.14 202.802 15.28 202.682 15.4C202.57 15.52 202.43 15.58 202.262 15.58ZM210.244 13L210.04 5.272H211.012L211.216 13H210.244ZM211.324 4.108C211.084 4.108 210.868 4.068 210.676 3.988C210.484 3.9 210.308 3.816 210.148 3.736C209.988 3.656 209.84 3.616 209.704 3.616C209.56 3.616 209.428 3.652 209.308 3.724C209.196 3.796 209.076 3.896 208.948 4.024L208.492 3.64C208.676 3.408 208.868 3.228 209.068 3.1C209.268 2.964 209.48 2.896 209.704 2.896C209.904 2.896 210.088 2.936 210.256 3.016C210.424 3.096 210.592 3.176 210.76 3.256C210.936 3.336 211.124 3.376 211.324 3.376C211.452 3.376 211.572 3.356 211.684 3.316C211.796 3.268 211.932 3.196 212.092 3.1L212.44 3.592C212.184 3.816 211.964 3.96 211.78 4.024C211.604 4.08 211.452 4.108 211.324 4.108Z" fill="black"/>
</svg>
