<svg width="26" height="8" viewBox="0 0 26 8" fill="none" xmlns="http://www.w3.org/2000/svg">
<path d="M6.28316 5.06C5.82716 5.06 5.45916 4.992 5.17916 4.856C4.90716 4.72 4.68316 4.532 4.50716 4.292C4.33916 4.044 4.19116 3.752 4.06316 3.416C3.93516 3.08 3.79916 2.716 3.65516 2.324C3.62316 2.22 3.54716 2.148 3.42716 2.108C3.30716 2.068 3.17916 2.048 3.04316 2.048C2.83516 2.048 2.62716 2.092 2.41916 2.18C2.21916 2.268 2.05116 2.4 1.91516 2.576C1.78716 2.752 1.72316 2.968 1.72316 3.224C1.72316 3.448 1.75516 3.664 1.81916 3.872C1.89116 4.072 1.97116 4.3 2.05916 4.556L1.19516 4.796C1.13116 4.612 1.06316 4.436 0.991156 4.268C0.927156 4.1 0.875156 3.924 0.835156 3.74C0.795156 3.556 0.775156 3.352 0.775156 3.128C0.775156 2.8 0.847156 2.508 0.991156 2.252C1.13516 1.996 1.32716 1.78 1.56716 1.604C1.80716 1.428 2.07116 1.296 2.35916 1.208C2.64716 1.112 2.93116 1.064 3.21116 1.064C3.34716 1.064 3.49116 1.076 3.64316 1.1C3.80316 1.124 3.94716 1.184 4.07516 1.28C4.21116 1.368 4.31116 1.512 4.37516 1.712C4.50316 2.072 4.61516 2.4 4.71116 2.696C4.81516 2.984 4.93116 3.232 5.05916 3.44C5.18716 3.648 5.35516 3.808 5.56316 3.92C5.77916 4.024 6.05916 4.076 6.40316 4.076C6.57116 4.076 6.69116 4.124 6.76316 4.22C6.84316 4.308 6.88316 4.416 6.88316 4.544C6.88316 4.672 6.82716 4.792 6.71516 4.904C6.60316 5.008 6.45916 5.06 6.28316 5.06ZM6.27734 5.06L6.39734 4.076C6.78934 4.076 7.10134 4.052 7.33334 4.004C7.56534 3.956 7.73334 3.86 7.83734 3.716C7.94134 3.564 7.99334 3.34 7.99334 3.044C7.99334 2.844 7.96134 2.608 7.89734 2.336C7.83334 2.056 7.74934 1.76 7.64534 1.448C7.54134 1.136 7.42934 0.828 7.30934 0.524L8.28134 0.164C8.38534 0.42 8.48134 0.712 8.56934 1.04C8.66534 1.368 8.74534 1.692 8.80934 2.012C8.87334 2.332 8.90534 2.612 8.90534 2.852C8.90534 3.172 8.86934 3.456 8.79734 3.704C8.73334 3.944 8.63334 4.152 8.49734 4.328C8.36134 4.496 8.18534 4.636 7.96934 4.748C7.76134 4.852 7.51734 4.932 7.23734 4.988C6.95734 5.036 6.63734 5.06 6.27734 5.06ZM7.56134 7.292C7.39334 7.292 7.24934 7.232 7.12934 7.112C7.01734 7 6.96134 6.864 6.96134 6.704C6.96134 6.544 7.01734 6.404 7.12934 6.284C7.24934 6.164 7.39334 6.104 7.56134 6.104C7.72134 6.104 7.85734 6.164 7.96934 6.284C8.08934 6.404 8.14934 6.544 8.14934 6.704C8.14934 6.864 8.08934 7 7.96934 7.112C7.85734 7.232 7.72134 7.292 7.56134 7.292ZM10.196 7.76L9.98 6.776C10.46 6.712 10.9 6.62 11.3 6.5C11.708 6.388 12.056 6.224 12.344 6.008C12.64 5.792 12.868 5.508 13.028 5.156C13.188 4.804 13.268 4.364 13.268 3.836C13.268 3.292 13.168 2.84 12.968 2.48C12.768 2.12 12.508 1.94 12.188 1.94C12.02 1.94 11.864 2.004 11.72 2.132C11.576 2.26 11.456 2.432 11.36 2.648C11.272 2.864 11.228 3.1 11.228 3.356C11.228 3.5 11.26 3.62 11.324 3.716C11.388 3.804 11.48 3.876 11.6 3.932C11.728 3.98 11.888 4.016 12.08 4.04C12.272 4.064 12.496 4.076 12.752 4.076H15.284C15.452 4.076 15.572 4.124 15.644 4.22C15.724 4.308 15.764 4.416 15.764 4.544C15.764 4.672 15.708 4.792 15.596 4.904C15.484 5.008 15.34 5.06 15.164 5.06H12.296C11.936 5.06 11.6 5.008 11.288 4.904C10.984 4.8 10.736 4.64 10.544 4.424C10.36 4.2 10.268 3.908 10.268 3.548C10.268 3.212 10.32 2.892 10.424 2.588C10.528 2.276 10.668 2 10.844 1.76C11.028 1.512 11.24 1.316 11.48 1.172C11.728 1.028 11.996 0.956 12.284 0.956C12.652 0.956 12.98 1.064 13.268 1.28C13.556 1.496 13.784 1.824 13.952 2.264C14.12 2.696 14.204 3.244 14.204 3.908C14.204 4.652 14.052 5.292 13.748 5.828C13.452 6.372 13.004 6.804 12.404 7.124C11.812 7.444 11.076 7.656 10.196 7.76ZM20.9682 5.216C20.2642 5.216 19.6722 5.188 19.1922 5.132C18.7202 5.084 18.3362 5.008 18.0402 4.904C17.7442 4.8 17.5202 4.668 17.3682 4.508C17.2162 4.348 17.1122 4.156 17.0562 3.932L17.3322 3.836C17.1322 4.22 16.9162 4.5 16.6842 4.676C16.4522 4.844 16.2082 4.952 15.9522 5C15.7042 5.04 15.4402 5.06 15.1602 5.06L15.2802 4.076C15.5602 4.076 15.7882 4.036 15.9642 3.956C16.1482 3.876 16.2962 3.744 16.4082 3.56C16.5282 3.376 16.6322 3.132 16.7202 2.828C16.8082 2.524 16.9042 2.148 17.0082 1.7L17.8842 1.928C17.8362 2.112 17.7922 2.288 17.7522 2.456C17.7122 2.624 17.6802 2.772 17.6562 2.9C17.6402 3.02 17.6322 3.116 17.6322 3.188C17.6322 3.38 17.6762 3.544 17.7642 3.68C17.8522 3.808 18.0202 3.916 18.2682 4.004C18.5162 4.084 18.8722 4.144 19.3362 4.184C19.8082 4.216 20.4242 4.232 21.1842 4.232C21.7122 4.232 22.1842 4.2 22.6002 4.136C23.0162 4.072 23.3642 3.976 23.6442 3.848C23.9322 3.712 24.1522 3.548 24.3042 3.356C24.4562 3.164 24.5322 2.944 24.5322 2.696C24.5322 2.52 24.4882 2.348 24.4002 2.18C24.3122 2.004 24.1762 1.856 23.9922 1.736C23.8082 1.616 23.5642 1.556 23.2602 1.556C22.8762 1.556 22.4922 1.656 22.1082 1.856C21.7322 2.056 21.3722 2.308 21.0282 2.612C20.6922 2.908 20.3922 3.212 20.1282 3.524C19.8642 3.836 19.6522 4.108 19.4922 4.34L18.4482 4.304C18.7042 3.888 19.0082 3.464 19.3602 3.032C19.7202 2.592 20.1122 2.188 20.5362 1.82C20.9682 1.444 21.4202 1.144 21.8922 0.92C22.3642 0.688 22.8442 0.572 23.3322 0.572C23.7722 0.572 24.1482 0.664 24.4602 0.848C24.7802 1.024 25.0242 1.264 25.1922 1.568C25.3682 1.872 25.4562 2.216 25.4562 2.6C25.4562 3.072 25.3162 3.508 25.0362 3.908C24.7642 4.3 24.3002 4.616 23.6442 4.856C22.9882 5.096 22.0962 5.216 20.9682 5.216Z" fill="black"/>
</svg>
