<svg width="207" height="16" viewBox="0 0 207 16" fill="none" xmlns="http://www.w3.org/2000/svg">
<path d="M6.59766 12.315L6.98766 10.215C7.95766 10.215 8.80266 10.19 9.52266 10.14C10.2427 10.08 10.8377 9.995 11.3077 9.885C11.7877 9.765 12.1427 9.61 12.3727 9.42C12.6127 9.23 12.7327 9 12.7327 8.73C12.7327 8.37 12.6727 7.94 12.5527 7.44C12.4327 6.93 12.2777 6.415 12.0877 5.895L14.0527 5.325C14.1827 5.665 14.3077 6.04 14.4277 6.45C14.5477 6.85 14.6427 7.255 14.7127 7.665C14.7927 8.065 14.8327 8.44 14.8327 8.79C14.8327 9.41 14.6977 9.945 14.4277 10.395C14.1577 10.835 13.7077 11.2 13.0777 11.49C12.4577 11.77 11.6177 11.975 10.5577 12.105C9.49766 12.245 8.17766 12.315 6.59766 12.315ZM6.58266 12.315C5.50266 12.315 4.58766 12.23 3.83766 12.06C3.09766 11.9 2.49266 11.67 2.02266 11.37C1.56266 11.06 1.22766 10.7 1.01766 10.29C0.807656 9.88 0.702656 9.43 0.702656 8.94C0.702656 8.62 0.727656 8.3 0.777656 7.98C0.837656 7.65 0.907656 7.33 0.987656 7.02C1.07766 6.71 1.15766 6.43 1.22766 6.18L3.10266 6.615C3.06266 6.795 3.01766 6.99 2.96766 7.2C2.91766 7.41 2.87766 7.615 2.84766 7.815C2.81766 8.005 2.80266 8.18 2.80266 8.34C2.80266 8.71 2.93266 9.04 3.19266 9.33C3.46266 9.61 3.90266 9.83 4.51266 9.99C5.12266 10.14 5.94266 10.215 6.97266 10.215L7.27266 11.835L6.58266 12.315ZM9.05766 5.46C8.76766 5.46 8.51766 5.36 8.30766 5.16C8.10766 4.95 8.00766 4.705 8.00766 4.425C8.00766 4.135 8.10766 3.885 8.30766 3.675C8.51766 3.465 8.76766 3.36 9.05766 3.36C9.33766 3.36 9.57766 3.465 9.77766 3.675C9.97766 3.885 10.0777 4.135 10.0777 4.425C10.0777 4.705 9.97766 4.95 9.77766 5.16C9.57766 5.36 9.33766 5.46 9.05766 5.46ZM6.46266 5.445C6.17266 5.445 5.92266 5.345 5.71266 5.145C5.51266 4.935 5.41266 4.69 5.41266 4.41C5.41266 4.12 5.51266 3.87 5.71266 3.66C5.92266 3.45 6.17266 3.345 6.46266 3.345C6.74266 3.345 6.98266 3.45 7.18266 3.66C7.38266 3.87 7.48266 4.12 7.48266 4.41C7.48266 4.69 7.38266 4.935 7.18266 5.145C6.98266 5.345 6.74266 5.445 6.46266 5.445ZM20.3439 12.075C19.4139 12.075 18.6939 11.98 18.1839 11.79C17.6839 11.6 17.3339 11.305 17.1339 10.905C16.9339 10.495 16.8189 9.98 16.7889 9.36L16.4739 1.02H18.5739L18.8889 8.355C18.9089 8.815 18.9589 9.16 19.0389 9.39C19.1189 9.62 19.2689 9.775 19.4889 9.855C19.7189 9.935 20.0539 9.975 20.4939 9.975C20.8739 9.975 21.1439 10.075 21.3039 10.275C21.4739 10.465 21.5589 10.705 21.5589 10.995C21.5589 11.305 21.4539 11.565 21.2439 11.775C21.0339 11.975 20.7339 12.075 20.3439 12.075ZM20.3643 12.075L20.5143 9.975C20.7443 9.975 20.9393 9.92 21.0993 9.81C21.2693 9.69 21.4443 9.495 21.6243 9.225C21.8043 8.945 22.0143 8.57 22.2543 8.1C22.5543 7.5 22.8643 7.03 23.1843 6.69C23.5143 6.35 23.8493 6.11 24.1893 5.97C24.5393 5.82 24.8893 5.745 25.2393 5.745C25.6793 5.745 26.0893 5.84 26.4693 6.03C26.8493 6.22 27.1793 6.48 27.4593 6.81C27.7393 7.13 27.9543 7.5 28.1043 7.92C28.2643 8.33 28.3443 8.755 28.3443 9.195C28.3443 9.725 28.2293 10.205 27.9993 10.635C27.7793 11.055 27.4693 11.39 27.0693 11.64C26.6793 11.88 26.2293 12 25.7193 12C25.2893 12 24.7893 11.925 24.2193 11.775C23.6493 11.625 23.0493 11.31 22.4193 10.83L23.1843 9.015C23.6343 9.325 24.0543 9.55 24.4443 9.69C24.8443 9.83 25.1743 9.9 25.4343 9.9C25.6343 9.9 25.7993 9.88 25.9293 9.84C26.0593 9.8 26.1543 9.735 26.2143 9.645C26.2743 9.555 26.3043 9.435 26.3043 9.285C26.3043 9.075 26.2543 8.86 26.1543 8.64C26.0543 8.42 25.9193 8.235 25.7493 8.085C25.5893 7.925 25.3993 7.845 25.1793 7.845C24.9693 7.845 24.7893 7.925 24.6393 8.085C24.4993 8.235 24.3593 8.455 24.2193 8.745C24.0893 9.025 23.9293 9.355 23.7393 9.735C23.5093 10.195 23.2843 10.58 23.0643 10.89C22.8443 11.19 22.6093 11.43 22.3593 11.61C22.1193 11.78 21.8343 11.9 21.5043 11.97C21.1843 12.04 20.8043 12.075 20.3643 12.075ZM29.9497 15.45L29.5147 13.35C30.2247 13.26 30.8447 13.15 31.3747 13.02C31.9047 12.9 32.3497 12.73 32.7097 12.51C33.0697 12.29 33.3397 11.99 33.5197 11.61C33.6997 11.22 33.7897 10.72 33.7897 10.11C33.7897 9.52 33.6997 9.05 33.5197 8.7C33.3397 8.35 33.0997 8.175 32.7997 8.175C32.5897 8.175 32.4147 8.25 32.2747 8.4C32.1347 8.54 32.0297 8.71 31.9597 8.91C31.8997 9.1 31.8697 9.27 31.8697 9.42C31.8697 9.51 31.8947 9.605 31.9447 9.705C31.9947 9.805 32.1047 9.89 32.2747 9.96C32.4447 10.03 32.7097 10.07 33.0697 10.08C33.4397 10.09 33.9397 10.055 34.5697 9.975H37.0897C37.4697 9.975 37.7397 10.075 37.8997 10.275C38.0697 10.465 38.1547 10.705 38.1547 10.995C38.1547 11.305 38.0497 11.565 37.8397 11.775C37.6297 11.975 37.3297 12.075 36.9397 12.075H32.8147C32.1847 12.075 31.6447 12 31.1947 11.85C30.7447 11.7 30.3997 11.46 30.1597 11.13C29.9197 10.79 29.7997 10.34 29.7997 9.78C29.7997 9.33 29.8747 8.88 30.0247 8.43C30.1847 7.98 30.4047 7.57 30.6847 7.2C30.9647 6.82 31.2897 6.52 31.6597 6.3C32.0397 6.07 32.4497 5.955 32.8897 5.955C33.4897 5.955 34.0147 6.14 34.4647 6.51C34.9147 6.88 35.2647 7.37 35.5147 7.98C35.7747 8.59 35.9047 9.255 35.9047 9.975C35.9047 11.105 35.6647 12.065 35.1847 12.855C34.7047 13.645 34.0197 14.255 33.1297 14.685C32.2397 15.125 31.1797 15.38 29.9497 15.45ZM36.9609 12.075L37.1109 9.975C37.5809 9.975 37.9109 9.93 38.1009 9.84C38.3009 9.74 38.4209 9.56 38.4609 9.3C38.5009 9.03 38.5109 8.64 38.4909 8.13L38.2509 1.02H40.3809L40.6359 8.115C40.6559 8.615 40.7159 9 40.8159 9.27C40.9159 9.54 41.0809 9.725 41.3109 9.825C41.5509 9.925 41.8709 9.975 42.2709 9.975C42.6509 9.975 42.9209 10.075 43.0809 10.275C43.2409 10.465 43.3209 10.705 43.3209 10.995C43.3209 11.305 43.2159 11.565 43.0059 11.775C42.7959 11.975 42.5009 12.075 42.1209 12.075C41.6809 12.075 41.2709 12.025 40.8909 11.925C40.5109 11.825 40.1959 11.635 39.9459 11.355C39.6959 11.075 39.5309 10.67 39.4509 10.14L40.1109 10.155C39.9409 10.675 39.7209 11.075 39.4509 11.355C39.1809 11.625 38.8409 11.815 38.4309 11.925C38.0309 12.025 37.5409 12.075 36.9609 12.075ZM42.0572 12.075L42.2072 9.975C42.9072 9.975 43.5372 9.93 44.0972 9.84C44.6572 9.74 45.1472 9.61 45.5672 9.45C45.9972 9.29 46.3522 9.105 46.6322 8.895C46.9222 8.685 47.1372 8.465 47.2772 8.235C47.4272 7.995 47.5022 7.76 47.5022 7.53C47.5022 7.4 47.4672 7.28 47.3972 7.17C47.3372 7.05 47.2322 6.955 47.0822 6.885C46.9322 6.805 46.7272 6.765 46.4672 6.765C46.3372 6.765 46.1822 6.78 46.0022 6.81C45.8222 6.84 45.6422 6.885 45.4622 6.945C45.2822 6.995 45.1122 7.065 44.9522 7.155C45.1622 7.315 45.3922 7.52 45.6422 7.77C45.8922 8.01 46.1422 8.265 46.3922 8.535C46.6422 8.795 46.8572 9.05 47.0372 9.3C47.2472 9.39 47.4772 9.48 47.7272 9.57C47.9872 9.65 48.2672 9.72 48.5672 9.78C48.8672 9.84 49.1822 9.89 49.5122 9.93C49.8422 9.96 50.1822 9.975 50.5322 9.975C50.9122 9.975 51.1822 10.075 51.3422 10.275C51.5122 10.465 51.5972 10.705 51.5972 10.995C51.5972 11.305 51.4922 11.565 51.2822 11.775C51.0722 11.975 50.7722 12.075 50.3822 12.075C49.5822 12.075 48.8722 12.015 48.2522 11.895C47.6322 11.765 47.0772 11.58 46.5872 11.34C46.1072 11.09 45.6572 10.79 45.2372 10.44C45.1172 10.23 44.9472 10.005 44.7272 9.765C44.5172 9.515 44.2922 9.275 44.0522 9.045C43.8222 8.815 43.6122 8.625 43.4222 8.475C43.3722 8.435 43.3122 8.33 43.2422 8.16C43.1822 7.98 43.1272 7.795 43.0772 7.605C43.0272 7.405 43.0022 7.265 43.0022 7.185C43.0022 6.955 43.1072 6.71 43.3172 6.45C43.5372 6.19 43.8272 5.95 44.1872 5.73C44.5572 5.5 44.9622 5.315 45.4022 5.175C45.8522 5.025 46.3072 4.95 46.7672 4.95C47.3872 4.95 47.9022 5.045 48.3122 5.235C48.7322 5.415 49.0472 5.67 49.2572 6C49.4672 6.32 49.5722 6.695 49.5722 7.125C49.5722 7.605 49.4672 8.085 49.2572 8.565C49.0472 9.035 48.7372 9.48 48.3272 9.9C47.9272 10.32 47.4222 10.695 46.8122 11.025C46.2122 11.345 45.5122 11.6 44.7122 11.79C43.9222 11.98 43.0372 12.075 42.0572 12.075ZM50.3936 12.075L50.5436 9.975C50.7736 9.975 50.9686 9.92 51.1286 9.81C51.2986 9.69 51.4736 9.495 51.6536 9.225C51.8336 8.945 52.0436 8.57 52.2836 8.1C52.5836 7.5 52.8936 7.03 53.2136 6.69C53.5436 6.35 53.8786 6.11 54.2186 5.97C54.5686 5.82 54.9186 5.745 55.2686 5.745C55.7086 5.745 56.1186 5.84 56.4986 6.03C56.8786 6.22 57.2086 6.48 57.4886 6.81C57.7686 7.13 57.9836 7.5 58.1336 7.92C58.2936 8.33 58.3736 8.755 58.3736 9.195C58.3736 9.725 58.2586 10.205 58.0286 10.635C57.8086 11.055 57.4986 11.39 57.0986 11.64C56.7086 11.88 56.2586 12 55.7486 12C55.3186 12 54.8186 11.925 54.2486 11.775C53.6786 11.625 53.0786 11.31 52.4486 10.83L53.2136 9.015C53.6636 9.325 54.0836 9.55 54.4736 9.69C54.8736 9.83 55.2036 9.9 55.4636 9.9C55.6636 9.9 55.8286 9.88 55.9586 9.84C56.0886 9.8 56.1836 9.735 56.2436 9.645C56.3036 9.555 56.3336 9.435 56.3336 9.285C56.3336 9.075 56.2836 8.86 56.1836 8.64C56.0836 8.42 55.9486 8.235 55.7786 8.085C55.6186 7.925 55.4286 7.845 55.2086 7.845C54.9986 7.845 54.8186 7.925 54.6686 8.085C54.5286 8.235 54.3886 8.455 54.2486 8.745C54.1186 9.025 53.9586 9.355 53.7686 9.735C53.5386 10.195 53.3136 10.58 53.0936 10.89C52.8736 11.19 52.6386 11.43 52.3886 11.61C52.1486 11.78 51.8636 11.9 51.5336 11.97C51.2136 12.04 50.8336 12.075 50.3936 12.075ZM63.264 11.58C63.264 11.35 63.284 11.08 63.324 10.77C63.364 10.46 63.439 10.11 63.549 9.72C63.659 9.32 63.824 8.875 64.044 8.385L65.889 9.03C65.779 9.34 65.684 9.625 65.604 9.885C65.524 10.135 65.464 10.37 65.424 10.59C65.384 10.8 65.364 11.01 65.364 11.22C65.364 11.55 65.434 11.845 65.574 12.105C65.724 12.375 65.939 12.6 66.219 12.78C66.499 12.97 66.839 13.115 67.239 13.215C67.649 13.315 68.119 13.365 68.649 13.365C69.199 13.365 69.689 13.34 70.119 13.29C70.559 13.24 70.929 13.165 71.229 13.065C71.539 12.965 71.774 12.835 71.934 12.675C72.094 12.525 72.174 12.35 72.174 12.15C72.174 12.06 72.139 11.975 72.069 11.895C72.009 11.815 71.904 11.73 71.754 11.64C71.614 11.55 71.424 11.455 71.184 11.355C70.954 11.255 70.674 11.145 70.344 11.025L70.839 8.91C71.269 9.09 71.674 9.25 72.054 9.39C72.444 9.52 72.814 9.63 73.164 9.72C73.514 9.8 73.844 9.865 74.154 9.915C74.464 9.955 74.754 9.975 75.024 9.975C75.404 9.975 75.674 10.075 75.834 10.275C75.994 10.465 76.074 10.705 76.074 10.995C76.074 11.305 75.969 11.565 75.759 11.775C75.549 11.975 75.254 12.075 74.874 12.075C74.794 12.075 74.714 12.075 74.634 12.075C74.564 12.075 74.489 12.075 74.409 12.075C74.339 12.075 74.264 12.075 74.184 12.075C74.204 12.175 74.214 12.26 74.214 12.33C74.214 12.41 74.214 12.485 74.214 12.555C74.214 12.885 74.099 13.22 73.869 13.56C73.649 13.9 73.304 14.215 72.834 14.505C72.364 14.795 71.764 15.025 71.034 15.195C70.314 15.375 69.454 15.465 68.454 15.465C67.374 15.465 66.444 15.325 65.664 15.045C64.894 14.775 64.299 14.35 63.879 13.77C63.469 13.2 63.264 12.47 63.264 11.58ZM74.8711 12.075L75.0211 9.975H77.1661C77.3761 9.975 77.5611 9.965 77.7211 9.945C77.8811 9.915 78.0111 9.87 78.1111 9.81C78.2211 9.75 78.3011 9.675 78.3511 9.585C78.4011 9.495 78.4261 9.39 78.4261 9.27C78.4261 9.15 78.3611 8.96 78.2311 8.7C78.1111 8.43 77.8461 8.105 77.4361 7.725C77.2161 7.525 76.9761 7.315 76.7161 7.095C76.4661 6.865 76.2261 6.65 75.9961 6.45C75.7661 6.24 75.5761 6.055 75.4261 5.895C75.2761 5.735 75.2011 5.62 75.2011 5.55C75.2011 5.4 75.2111 5.235 75.2311 5.055C75.2511 4.875 75.2811 4.71 75.3211 4.56C75.3711 4.41 75.4361 4.3 75.5161 4.23C75.6861 4.07 75.9361 3.885 76.2661 3.675C76.6061 3.455 77.0111 3.22 77.4811 2.97C77.9511 2.71 78.4761 2.44 79.0561 2.16C79.6461 1.87 80.2761 1.58 80.9461 1.29L81.8011 3.12C81.2511 3.36 80.7311 3.595 80.2411 3.825C79.7511 4.045 79.2911 4.265 78.8611 4.485C78.4411 4.695 78.0511 4.905 77.6911 5.115C77.3411 5.315 77.0311 5.515 76.7611 5.715L76.9561 4.605C77.8061 5.255 78.4811 5.84 78.9811 6.36C79.4911 6.88 79.8711 7.345 80.1211 7.755C80.3711 8.155 80.5361 8.515 80.6161 8.835C80.6961 9.145 80.7361 9.42 80.7361 9.66C80.7361 9.9 80.6761 10.16 80.5561 10.44C80.4461 10.71 80.2411 10.97 79.9411 11.22C79.6511 11.47 79.2411 11.675 78.7111 11.835C78.1811 11.995 77.5011 12.075 76.6711 12.075H74.8711ZM85.8226 11.58C85.8226 11.35 85.8426 11.08 85.8826 10.77C85.9226 10.46 85.9976 10.11 86.1076 9.72C86.2176 9.32 86.3826 8.875 86.6026 8.385L88.4476 9.03C88.3376 9.34 88.2426 9.625 88.1626 9.885C88.0826 10.135 88.0226 10.37 87.9826 10.59C87.9426 10.8 87.9226 11.01 87.9226 11.22C87.9226 11.71 88.0326 12.11 88.2526 12.42C88.4826 12.74 88.8026 12.975 89.2126 13.125C89.6226 13.285 90.0976 13.365 90.6376 13.365C91.2576 13.365 91.7676 13.28 92.1676 13.11C92.5676 12.95 92.8776 12.735 93.0976 12.465C93.3176 12.205 93.4726 11.92 93.5626 11.61C93.6526 11.29 93.6976 10.98 93.6976 10.68C93.6976 10.27 93.6276 9.785 93.4876 9.225C93.3476 8.655 93.0976 8.015 92.7376 7.305L94.6726 6.48C94.8726 6.83 95.0576 7.24 95.2276 7.71C95.3976 8.17 95.5326 8.65 95.6326 9.15C95.7426 9.65 95.7976 10.125 95.7976 10.575C95.7976 10.975 95.7476 11.4 95.6476 11.85C95.5476 12.29 95.3776 12.725 95.1376 13.155C94.9076 13.585 94.5926 13.97 94.1926 14.31C93.7926 14.66 93.2976 14.94 92.7076 15.15C92.1176 15.36 91.4126 15.465 90.5926 15.465C89.9326 15.465 89.3126 15.39 88.7326 15.24C88.1626 15.1 87.6576 14.875 87.2176 14.565C86.7876 14.255 86.4476 13.85 86.1976 13.35C85.9476 12.86 85.8226 12.27 85.8226 11.58ZM97.4058 15.45L96.9708 13.35C97.6808 13.26 98.3008 13.15 98.8308 13.02C99.3608 12.9 99.8058 12.73 100.166 12.51C100.526 12.29 100.796 11.99 100.976 11.61C101.156 11.22 101.246 10.72 101.246 10.11C101.246 9.89 101.226 9.67 101.186 9.45C101.146 9.22 101.086 9.01 101.006 8.82C100.926 8.63 100.821 8.475 100.691 8.355C100.571 8.235 100.426 8.175 100.256 8.175C100.076 8.175 99.9158 8.24 99.7758 8.37C99.6358 8.49 99.5258 8.645 99.4458 8.835C99.3658 9.015 99.3258 9.2 99.3258 9.39C99.3258 9.53 99.3608 9.65 99.4308 9.75C99.5008 9.84 99.6058 9.91 99.7458 9.96C99.8858 10 100.061 10.02 100.271 10.02C100.511 10.02 100.756 9.995 101.006 9.945C101.266 9.885 101.501 9.805 101.711 9.705L101.771 11.34C101.531 11.53 101.256 11.7 100.946 11.85C100.636 11.99 100.261 12.06 99.8208 12.06C99.4608 12.06 99.1258 12.02 98.8158 11.94C98.5058 11.85 98.2308 11.715 97.9908 11.535C97.7608 11.355 97.5808 11.125 97.4508 10.845C97.3208 10.555 97.2558 10.21 97.2558 9.81C97.2558 9.32 97.3358 8.845 97.4958 8.385C97.6558 7.925 97.8758 7.515 98.1558 7.155C98.4458 6.785 98.7758 6.495 99.1458 6.285C99.5258 6.065 99.9258 5.955 100.346 5.955C100.846 5.955 101.281 6.08 101.651 6.33C102.031 6.58 102.346 6.91 102.596 7.32C102.846 7.72 103.036 8.155 103.166 8.625C103.296 9.095 103.361 9.545 103.361 9.975C103.361 11.105 103.121 12.065 102.641 12.855C102.161 13.645 101.476 14.255 100.586 14.685C99.6958 15.125 98.6358 15.38 97.4058 15.45ZM104.261 15.45L103.496 13.53C104.356 13.23 105.051 12.9 105.581 12.54C106.121 12.18 106.516 11.795 106.766 11.385C107.026 10.975 107.156 10.55 107.156 10.11C107.156 9.83 107.116 9.54 107.036 9.24C106.956 8.93 106.841 8.605 106.691 8.265C106.551 7.925 106.381 7.57 106.181 7.2L108.146 6.255C108.496 6.925 108.766 7.565 108.956 8.175C109.156 8.785 109.256 9.355 109.256 9.885C109.256 10.375 109.191 10.845 109.061 11.295C108.941 11.745 108.751 12.165 108.491 12.555C108.241 12.955 107.916 13.33 107.516 13.68C107.116 14.03 106.646 14.35 106.106 14.64C105.566 14.94 104.951 15.21 104.261 15.45ZM111.359 12L111.044 1.02H113.144L113.459 12H111.359ZM114.786 11.4L115.521 9.495C115.891 9.655 116.246 9.775 116.586 9.855C116.926 9.935 117.266 9.975 117.606 9.975C117.956 9.975 118.246 9.945 118.476 9.885C118.716 9.815 118.896 9.715 119.016 9.585C119.136 9.455 119.196 9.3 119.196 9.12C119.196 8.95 119.141 8.715 119.031 8.415C118.931 8.115 118.746 7.725 118.476 7.245C118.206 6.755 117.811 6.15 117.291 5.43L119.076 4.245C119.556 4.925 119.971 5.59 120.321 6.24C120.671 6.88 120.941 7.48 121.131 8.04C121.331 8.59 121.431 9.075 121.431 9.495C121.431 10.015 121.291 10.47 121.011 10.86C120.741 11.24 120.336 11.54 119.796 11.76C119.266 11.98 118.611 12.09 117.831 12.09C117.541 12.09 117.216 12.065 116.856 12.015C116.496 11.965 116.131 11.89 115.761 11.79C115.401 11.69 115.076 11.56 114.786 11.4ZM134.55 12.075C133.85 12.075 133.28 11.995 132.84 11.835C132.41 11.675 132.07 11.46 131.82 11.19C131.57 10.91 131.365 10.59 131.205 10.23C131.045 9.86 130.89 9.475 130.74 9.075C130.61 8.715 130.47 8.485 130.32 8.385C130.18 8.275 130.01 8.22 129.81 8.22C129.46 8.22 129.155 8.29 128.895 8.43C128.635 8.57 128.43 8.75 128.28 8.97C128.14 9.19 128.07 9.425 128.07 9.675C128.07 9.935 128.11 10.21 128.19 10.5C128.27 10.78 128.36 11.07 128.46 11.37L126.57 11.895C126.49 11.665 126.4 11.425 126.3 11.175C126.21 10.915 126.13 10.65 126.06 10.38C126 10.11 125.97 9.845 125.97 9.585C125.97 9.085 126.085 8.625 126.315 8.205C126.555 7.775 126.87 7.405 127.26 7.095C127.66 6.785 128.105 6.545 128.595 6.375C129.085 6.205 129.58 6.12 130.08 6.12C130.41 6.12 130.725 6.16 131.025 6.24C131.325 6.31 131.59 6.44 131.82 6.63C132.06 6.82 132.235 7.08 132.345 7.41C132.535 7.95 132.7 8.39 132.84 8.73C132.99 9.06 133.145 9.315 133.305 9.495C133.465 9.675 133.655 9.8 133.875 9.87C134.095 9.94 134.37 9.975 134.7 9.975C135.08 9.975 135.35 10.075 135.51 10.275C135.67 10.465 135.75 10.705 135.75 10.995C135.75 11.305 135.645 11.565 135.435 11.775C135.225 11.975 134.93 12.075 134.55 12.075ZM134.549 12.075L134.699 9.975C135.059 9.975 135.369 9.94 135.629 9.87C135.889 9.8 136.109 9.66 136.289 9.45C136.469 9.23 136.619 8.91 136.739 8.49C136.869 8.07 136.984 7.51 137.084 6.81L139.049 7.14C139.029 7.29 138.999 7.465 138.959 7.665C138.929 7.865 138.899 8.07 138.869 8.28C138.849 8.48 138.839 8.67 138.839 8.85C138.839 9.03 138.874 9.19 138.944 9.33C139.014 9.47 139.124 9.59 139.274 9.69C139.434 9.78 139.639 9.85 139.889 9.9C140.149 9.95 140.464 9.975 140.834 9.975C141.214 9.975 141.484 10.075 141.644 10.275C141.804 10.465 141.884 10.705 141.884 10.995C141.884 11.305 141.779 11.565 141.569 11.775C141.369 11.975 141.074 12.075 140.684 12.075C140.234 12.075 139.824 12.04 139.454 11.97C139.094 11.9 138.779 11.785 138.509 11.625C138.249 11.455 138.034 11.235 137.864 10.965C137.704 10.685 137.604 10.345 137.564 9.945H138.284C138.104 10.425 137.874 10.81 137.594 11.1C137.324 11.38 137.019 11.59 136.679 11.73C136.339 11.87 135.984 11.96 135.614 12C135.254 12.05 134.899 12.075 134.549 12.075ZM139.364 5.46C139.074 5.46 138.824 5.36 138.614 5.16C138.414 4.95 138.314 4.705 138.314 4.425C138.314 4.135 138.414 3.885 138.614 3.675C138.824 3.465 139.074 3.36 139.364 3.36C139.644 3.36 139.884 3.465 140.084 3.675C140.284 3.885 140.384 4.135 140.384 4.425C140.384 4.705 140.284 4.95 140.084 5.16C139.884 5.36 139.644 5.46 139.364 5.46ZM136.769 5.445C136.479 5.445 136.229 5.345 136.019 5.145C135.819 4.935 135.719 4.69 135.719 4.41C135.719 4.12 135.819 3.87 136.019 3.66C136.229 3.45 136.479 3.345 136.769 3.345C137.049 3.345 137.289 3.45 137.489 3.66C137.689 3.87 137.789 4.12 137.789 4.41C137.789 4.69 137.689 4.935 137.489 5.145C137.289 5.345 137.049 5.445 136.769 5.445ZM140.687 12.075L140.837 9.975C141.167 9.975 141.437 9.95 141.647 9.9C141.857 9.84 142.027 9.715 142.157 9.525C142.297 9.325 142.417 9.03 142.517 8.64C142.627 8.24 142.747 7.7 142.877 7.02L144.827 7.38C144.797 7.53 144.762 7.705 144.722 7.905C144.682 8.105 144.647 8.31 144.617 8.52C144.587 8.72 144.572 8.9 144.572 9.06C144.572 9.34 144.662 9.565 144.842 9.735C145.022 9.895 145.362 9.975 145.862 9.975C146.112 9.975 146.327 9.95 146.507 9.9C146.697 9.84 146.857 9.715 146.987 9.525C147.127 9.325 147.247 9.02 147.347 8.61C147.457 8.19 147.562 7.625 147.662 6.915L149.642 7.23C149.602 7.46 149.562 7.705 149.522 7.965C149.482 8.225 149.447 8.465 149.417 8.685C149.387 8.905 149.372 9.085 149.372 9.225C149.372 9.355 149.407 9.48 149.477 9.6C149.557 9.71 149.697 9.8 149.897 9.87C150.107 9.94 150.402 9.975 150.782 9.975C151.052 9.975 151.282 9.94 151.472 9.87C151.672 9.8 151.822 9.685 151.922 9.525C152.032 9.365 152.087 9.155 152.087 8.895C152.087 8.525 152.002 8.04 151.832 7.44C151.662 6.84 151.462 6.21 151.232 5.55L153.347 4.92C153.507 5.35 153.647 5.81 153.767 6.3C153.897 6.78 153.997 7.25 154.067 7.71C154.147 8.16 154.187 8.555 154.187 8.895C154.187 9.405 154.107 9.86 153.947 10.26C153.787 10.65 153.562 10.98 153.272 11.25C152.982 11.52 152.637 11.725 152.237 11.865C151.837 12.005 151.397 12.075 150.917 12.075C150.337 12.075 149.862 12.02 149.492 11.91C149.122 11.79 148.837 11.595 148.637 11.325C148.447 11.045 148.322 10.665 148.262 10.185H148.772C148.562 10.775 148.327 11.205 148.067 11.475C147.807 11.735 147.497 11.9 147.137 11.97C146.787 12.04 146.347 12.075 145.817 12.075C145.487 12.075 145.147 12.04 144.797 11.97C144.457 11.89 144.152 11.71 143.882 11.43C143.612 11.15 143.412 10.715 143.282 10.125L144.092 10.095C143.882 10.685 143.607 11.12 143.267 11.4C142.937 11.68 142.557 11.865 142.127 11.955C141.697 12.035 141.217 12.075 140.687 12.075ZM148.532 2.79C148.282 2.79 148.062 2.695 147.872 2.505C147.692 2.315 147.602 2.09 147.602 1.83C147.602 1.57 147.692 1.35 147.872 1.17C148.062 0.99 148.282 0.9 148.532 0.9C148.792 0.9 149.012 0.99 149.192 1.17C149.372 1.35 149.462 1.57 149.462 1.83C149.462 2.09 149.372 2.315 149.192 2.505C149.012 2.695 148.792 2.79 148.532 2.79ZM147.332 4.77C147.082 4.77 146.862 4.675 146.672 4.485C146.492 4.295 146.402 4.07 146.402 3.81C146.402 3.55 146.492 3.33 146.672 3.15C146.862 2.97 147.082 2.88 147.332 2.88C147.592 2.88 147.812 2.97 147.992 3.15C148.172 3.33 148.262 3.55 148.262 3.81C148.262 4.07 148.172 4.295 147.992 4.485C147.812 4.675 147.592 4.77 147.332 4.77ZM149.657 4.77C149.407 4.77 149.187 4.675 148.997 4.485C148.817 4.295 148.727 4.07 148.727 3.81C148.727 3.55 148.817 3.33 148.997 3.15C149.187 2.97 149.407 2.88 149.657 2.88C149.917 2.88 150.137 2.97 150.317 3.15C150.497 3.33 150.587 3.55 150.587 3.81C150.587 4.07 150.497 4.295 150.317 4.485C150.137 4.675 149.917 4.77 149.657 4.77ZM155.179 15.45L154.414 13.53C155.274 13.23 155.969 12.9 156.499 12.54C157.039 12.18 157.434 11.795 157.684 11.385C157.944 10.975 158.074 10.55 158.074 10.11C158.074 9.83 158.034 9.54 157.954 9.24C157.874 8.93 157.759 8.605 157.609 8.265C157.469 7.925 157.299 7.57 157.099 7.2L159.064 6.255C159.414 6.925 159.684 7.565 159.874 8.175C160.074 8.785 160.174 9.355 160.174 9.885C160.174 10.375 160.109 10.845 159.979 11.295C159.859 11.745 159.669 12.165 159.409 12.555C159.159 12.955 158.834 13.33 158.434 13.68C158.034 14.03 157.564 14.35 157.024 14.64C156.484 14.94 155.869 15.21 155.179 15.45ZM165.217 11.58C165.217 11.35 165.237 11.08 165.277 10.77C165.317 10.46 165.392 10.11 165.502 9.72C165.612 9.32 165.777 8.875 165.997 8.385L167.842 9.03C167.732 9.34 167.637 9.625 167.557 9.885C167.477 10.135 167.417 10.37 167.377 10.59C167.337 10.8 167.317 11.01 167.317 11.22C167.317 11.55 167.387 11.845 167.527 12.105C167.677 12.375 167.892 12.6 168.172 12.78C168.452 12.97 168.792 13.115 169.192 13.215C169.602 13.315 170.072 13.365 170.602 13.365C171.152 13.365 171.642 13.34 172.072 13.29C172.512 13.24 172.882 13.165 173.182 13.065C173.492 12.965 173.727 12.835 173.887 12.675C174.047 12.525 174.127 12.35 174.127 12.15C174.127 12.06 174.092 11.975 174.022 11.895C173.962 11.815 173.857 11.73 173.707 11.64C173.567 11.55 173.377 11.455 173.137 11.355C172.907 11.255 172.627 11.145 172.297 11.025L172.792 8.91C173.222 9.09 173.627 9.25 174.007 9.39C174.397 9.52 174.767 9.63 175.117 9.72C175.467 9.8 175.797 9.865 176.107 9.915C176.417 9.955 176.707 9.975 176.977 9.975C177.357 9.975 177.627 10.075 177.787 10.275C177.947 10.465 178.027 10.705 178.027 10.995C178.027 11.305 177.922 11.565 177.712 11.775C177.502 11.975 177.207 12.075 176.827 12.075C176.747 12.075 176.667 12.075 176.587 12.075C176.517 12.075 176.442 12.075 176.362 12.075C176.292 12.075 176.217 12.075 176.137 12.075C176.157 12.175 176.167 12.26 176.167 12.33C176.167 12.41 176.167 12.485 176.167 12.555C176.167 12.885 176.052 13.22 175.822 13.56C175.602 13.9 175.257 14.215 174.787 14.505C174.317 14.795 173.717 15.025 172.987 15.195C172.267 15.375 171.407 15.465 170.407 15.465C169.327 15.465 168.397 15.325 167.617 15.045C166.847 14.775 166.252 14.35 165.832 13.77C165.422 13.2 165.217 12.47 165.217 11.58ZM176.824 12.075L176.974 9.975C177.204 9.975 177.399 9.92 177.559 9.81C177.729 9.69 177.904 9.495 178.084 9.225C178.264 8.945 178.474 8.57 178.714 8.1C179.014 7.5 179.324 7.03 179.644 6.69C179.974 6.35 180.309 6.11 180.649 5.97C180.999 5.82 181.349 5.745 181.699 5.745C182.139 5.745 182.549 5.84 182.929 6.03C183.309 6.22 183.639 6.48 183.919 6.81C184.199 7.13 184.414 7.5 184.564 7.92C184.724 8.33 184.804 8.755 184.804 9.195C184.804 9.725 184.689 10.205 184.459 10.635C184.239 11.055 183.929 11.39 183.529 11.64C183.139 11.88 182.689 12 182.179 12C181.749 12 181.249 11.925 180.679 11.775C180.109 11.625 179.509 11.31 178.879 10.83L179.644 9.015C180.094 9.325 180.514 9.55 180.904 9.69C181.304 9.83 181.634 9.9 181.894 9.9C182.094 9.9 182.259 9.88 182.389 9.84C182.519 9.8 182.614 9.735 182.674 9.645C182.734 9.555 182.764 9.435 182.764 9.285C182.764 9.075 182.714 8.86 182.614 8.64C182.514 8.42 182.379 8.235 182.209 8.085C182.049 7.925 181.859 7.845 181.639 7.845C181.429 7.845 181.249 7.925 181.099 8.085C180.959 8.235 180.819 8.455 180.679 8.745C180.549 9.025 180.389 9.355 180.199 9.735C179.969 10.195 179.744 10.58 179.524 10.89C179.304 11.19 179.069 11.43 178.819 11.61C178.579 11.78 178.294 11.9 177.964 11.97C177.644 12.04 177.264 12.075 176.824 12.075ZM190.31 12.075C189.38 12.075 188.66 11.98 188.15 11.79C187.65 11.6 187.3 11.305 187.1 10.905C186.9 10.495 186.785 9.98 186.755 9.36L186.44 1.02H188.54L188.855 8.355C188.875 8.815 188.925 9.16 189.005 9.39C189.085 9.62 189.235 9.775 189.455 9.855C189.685 9.935 190.02 9.975 190.46 9.975C190.84 9.975 191.11 10.075 191.27 10.275C191.44 10.465 191.525 10.705 191.525 10.995C191.525 11.305 191.42 11.565 191.21 11.775C191 11.975 190.7 12.075 190.31 12.075ZM190.33 12.075L190.48 9.99C190.87 10 191.23 9.995 191.56 9.975C191.89 9.955 192.185 9.925 192.445 9.885C192.715 9.845 192.95 9.8 193.15 9.75C193.36 9.7 193.535 9.655 193.675 9.615C194.015 9.505 194.305 9.375 194.545 9.225C194.785 9.065 194.97 8.885 195.1 8.685C195.23 8.485 195.295 8.27 195.295 8.04C195.295 7.86 195.255 7.68 195.175 7.5C195.105 7.31 195 7.155 194.86 7.035C194.72 6.915 194.555 6.855 194.365 6.855C194.185 6.855 194.02 6.91 193.87 7.02C193.72 7.13 193.6 7.28 193.51 7.47C193.42 7.65 193.375 7.86 193.375 8.1C193.375 8.31 193.425 8.51 193.525 8.7C193.625 8.88 193.765 9.055 193.945 9.225C194.125 9.395 194.34 9.555 194.59 9.705L192.595 10.47C192.375 10.26 192.165 10.035 191.965 9.795C191.775 9.555 191.615 9.285 191.485 8.985C191.365 8.675 191.305 8.33 191.305 7.95C191.305 7.49 191.395 7.07 191.575 6.69C191.755 6.31 191.995 5.985 192.295 5.715C192.595 5.435 192.93 5.22 193.3 5.07C193.67 4.92 194.04 4.845 194.41 4.845C195.01 4.845 195.53 4.985 195.97 5.265C196.41 5.545 196.75 5.91 196.99 6.36C197.24 6.81 197.365 7.3 197.365 7.83C197.365 8.32 197.275 8.76 197.095 9.15C196.915 9.53 196.67 9.87 196.36 10.17C196.06 10.46 195.725 10.715 195.355 10.935C194.995 11.155 194.63 11.34 194.26 11.49C194.08 11.57 193.855 11.645 193.585 11.715C193.315 11.785 193.01 11.85 192.67 11.91C192.33 11.96 191.965 12 191.575 12.03C191.185 12.06 190.77 12.075 190.33 12.075ZM198.25 12.075C197.67 12.075 197.1 12.045 196.54 11.985C195.98 11.925 195.46 11.835 194.98 11.715C194.51 11.595 194.1 11.45 193.75 11.28L194.785 9.66C195.085 9.74 195.435 9.805 195.835 9.855C196.245 9.895 196.67 9.925 197.11 9.945C197.56 9.965 197.99 9.975 198.4 9.975C198.78 9.975 199.05 10.075 199.21 10.275C199.38 10.465 199.465 10.705 199.465 10.995C199.465 11.305 199.36 11.565 199.15 11.775C198.94 11.975 198.64 12.075 198.25 12.075ZM195.73 3.48C195.44 3.48 195.19 3.38 194.98 3.18C194.78 2.97 194.68 2.725 194.68 2.445C194.68 2.155 194.78 1.905 194.98 1.695C195.19 1.485 195.44 1.38 195.73 1.38C196.01 1.38 196.25 1.485 196.45 1.695C196.65 1.905 196.75 2.155 196.75 2.445C196.75 2.725 196.65 2.97 196.45 3.18C196.25 3.38 196.01 3.48 195.73 3.48ZM193.135 3.465C192.845 3.465 192.595 3.365 192.385 3.165C192.185 2.955 192.085 2.71 192.085 2.43C192.085 2.14 192.185 1.89 192.385 1.68C192.595 1.47 192.845 1.365 193.135 1.365C193.415 1.365 193.655 1.47 193.855 1.68C194.055 1.89 194.155 2.14 194.155 2.43C194.155 2.71 194.055 2.955 193.855 3.165C193.655 3.365 193.415 3.465 193.135 3.465ZM198.27 12.075L198.42 9.975C198.65 9.975 198.845 9.92 199.005 9.81C199.175 9.69 199.35 9.495 199.53 9.225C199.71 8.945 199.92 8.57 200.16 8.1C200.46 7.5 200.77 7.03 201.09 6.69C201.42 6.35 201.755 6.11 202.095 5.97C202.445 5.82 202.795 5.745 203.145 5.745C203.585 5.745 203.995 5.84 204.375 6.03C204.755 6.22 205.085 6.48 205.365 6.81C205.645 7.13 205.86 7.5 206.01 7.92C206.17 8.33 206.25 8.755 206.25 9.195C206.25 9.725 206.135 10.205 205.905 10.635C205.685 11.055 205.375 11.39 204.975 11.64C204.585 11.88 204.135 12 203.625 12C203.195 12 202.695 11.925 202.125 11.775C201.555 11.625 200.955 11.31 200.325 10.83L201.09 9.015C201.54 9.325 201.96 9.55 202.35 9.69C202.75 9.83 203.08 9.9 203.34 9.9C203.54 9.9 203.705 9.88 203.835 9.84C203.965 9.8 204.06 9.735 204.12 9.645C204.18 9.555 204.21 9.435 204.21 9.285C204.21 9.075 204.16 8.86 204.06 8.64C203.96 8.42 203.825 8.235 203.655 8.085C203.495 7.925 203.305 7.845 203.085 7.845C202.875 7.845 202.695 7.925 202.545 8.085C202.405 8.235 202.265 8.455 202.125 8.745C201.995 9.025 201.835 9.355 201.645 9.735C201.415 10.195 201.19 10.58 200.97 10.89C200.75 11.19 200.515 11.43 200.265 11.61C200.025 11.78 199.74 11.9 199.41 11.97C199.09 12.04 198.71 12.075 198.27 12.075Z" fill="black"/>
</svg>
