<svg width="310" height="18" viewBox="0 0 310 18" fill="none" xmlns="http://www.w3.org/2000/svg">
<path d="M6.21973 14.315L6.60973 12.215C7.57973 12.215 8.42473 12.19 9.14473 12.14C9.86473 12.08 10.4597 11.995 10.9297 11.885C11.4097 11.765 11.7647 11.61 11.9947 11.42C12.2347 11.23 12.3547 11 12.3547 10.73C12.3547 10.37 12.2947 9.94 12.1747 9.44C12.0547 8.93 11.8997 8.415 11.7097 7.895L13.6747 7.325C13.8047 7.665 13.9297 8.04 14.0497 8.45C14.1697 8.85 14.2647 9.255 14.3347 9.665C14.4147 10.065 14.4547 10.44 14.4547 10.79C14.4547 11.41 14.3197 11.945 14.0497 12.395C13.7797 12.835 13.3297 13.2 12.6997 13.49C12.0797 13.77 11.2397 13.975 10.1797 14.105C9.11973 14.245 7.79973 14.315 6.21973 14.315ZM6.20473 14.315C5.12473 14.315 4.20973 14.23 3.45973 14.06C2.71973 13.9 2.11473 13.67 1.64473 13.37C1.18473 13.06 0.849727 12.7 0.639727 12.29C0.429727 11.88 0.324727 11.43 0.324727 10.94C0.324727 10.62 0.349727 10.3 0.399727 9.98C0.459727 9.65 0.529727 9.33 0.609727 9.02C0.699727 8.71 0.779727 8.43 0.849727 8.18L2.72473 8.615C2.68473 8.795 2.63973 8.99 2.58973 9.2C2.53973 9.41 2.49973 9.615 2.46973 9.815C2.43973 10.005 2.42473 10.18 2.42473 10.34C2.42473 10.71 2.55473 11.04 2.81473 11.33C3.08473 11.61 3.52473 11.83 4.13473 11.99C4.74473 12.14 5.56473 12.215 6.59473 12.215L6.89473 13.835L6.20473 14.315ZM8.67973 7.46C8.38973 7.46 8.13973 7.36 7.92973 7.16C7.72973 6.95 7.62973 6.705 7.62973 6.425C7.62973 6.135 7.72973 5.885 7.92973 5.675C8.13973 5.465 8.38973 5.36 8.67973 5.36C8.95973 5.36 9.19973 5.465 9.39973 5.675C9.59973 5.885 9.69973 6.135 9.69973 6.425C9.69973 6.705 9.59973 6.95 9.39973 7.16C9.19973 7.36 8.95973 7.46 8.67973 7.46ZM6.08473 7.445C5.79473 7.445 5.54473 7.345 5.33473 7.145C5.13473 6.935 5.03473 6.69 5.03473 6.41C5.03473 6.12 5.13473 5.87 5.33473 5.66C5.54473 5.45 5.79473 5.345 6.08473 5.345C6.36473 5.345 6.60473 5.45 6.80473 5.66C7.00473 5.87 7.10473 6.12 7.10473 6.41C7.10473 6.69 7.00473 6.935 6.80473 7.145C6.60473 7.345 6.36473 7.445 6.08473 7.445ZM19.9659 14.075C19.0359 14.075 18.3159 13.98 17.8059 13.79C17.3059 13.6 16.9559 13.305 16.7559 12.905C16.5559 12.495 16.4409 11.98 16.4109 11.36L16.0959 3.02H18.1959L18.5109 10.355C18.5309 10.815 18.5809 11.16 18.6609 11.39C18.7409 11.62 18.8909 11.775 19.1109 11.855C19.3409 11.935 19.6759 11.975 20.1159 11.975C20.4959 11.975 20.7659 12.075 20.9259 12.275C21.0959 12.465 21.1809 12.705 21.1809 12.995C21.1809 13.305 21.0759 13.565 20.8659 13.775C20.6559 13.975 20.3559 14.075 19.9659 14.075ZM19.9863 14.075L20.1363 11.975C20.3663 11.975 20.5613 11.92 20.7213 11.81C20.8913 11.69 21.0663 11.495 21.2463 11.225C21.4263 10.945 21.6363 10.57 21.8763 10.1C22.1763 9.5 22.4863 9.03 22.8063 8.69C23.1363 8.35 23.4713 8.11 23.8113 7.97C24.1613 7.82 24.5113 7.745 24.8613 7.745C25.3013 7.745 25.7113 7.84 26.0913 8.03C26.4713 8.22 26.8013 8.48 27.0813 8.81C27.3613 9.13 27.5763 9.5 27.7263 9.92C27.8863 10.33 27.9663 10.755 27.9663 11.195C27.9663 11.725 27.8513 12.205 27.6213 12.635C27.4013 13.055 27.0913 13.39 26.6913 13.64C26.3013 13.88 25.8513 14 25.3413 14C24.9113 14 24.4113 13.925 23.8413 13.775C23.2713 13.625 22.6713 13.31 22.0413 12.83L22.8063 11.015C23.2563 11.325 23.6763 11.55 24.0663 11.69C24.4663 11.83 24.7963 11.9 25.0563 11.9C25.2563 11.9 25.4213 11.88 25.5513 11.84C25.6813 11.8 25.7763 11.735 25.8363 11.645C25.8963 11.555 25.9263 11.435 25.9263 11.285C25.9263 11.075 25.8763 10.86 25.7763 10.64C25.6763 10.42 25.5413 10.235 25.3713 10.085C25.2113 9.925 25.0213 9.845 24.8013 9.845C24.5913 9.845 24.4113 9.925 24.2613 10.085C24.1213 10.235 23.9813 10.455 23.8413 10.745C23.7113 11.025 23.5513 11.355 23.3613 11.735C23.1313 12.195 22.9063 12.58 22.6863 12.89C22.4663 13.19 22.2313 13.43 21.9813 13.61C21.7413 13.78 21.4563 13.9 21.1263 13.97C20.8063 14.04 20.4263 14.075 19.9863 14.075ZM29.5718 17.45L29.1368 15.35C29.8468 15.26 30.4668 15.15 30.9968 15.02C31.5268 14.9 31.9718 14.73 32.3318 14.51C32.6918 14.29 32.9618 13.99 33.1418 13.61C33.3218 13.22 33.4118 12.72 33.4118 12.11C33.4118 11.52 33.3218 11.05 33.1418 10.7C32.9618 10.35 32.7218 10.175 32.4218 10.175C32.2118 10.175 32.0368 10.25 31.8968 10.4C31.7568 10.54 31.6518 10.71 31.5818 10.91C31.5218 11.1 31.4918 11.27 31.4918 11.42C31.4918 11.51 31.5168 11.605 31.5668 11.705C31.6168 11.805 31.7268 11.89 31.8968 11.96C32.0668 12.03 32.3318 12.07 32.6918 12.08C33.0618 12.09 33.5618 12.055 34.1918 11.975H36.7118C37.0918 11.975 37.3618 12.075 37.5218 12.275C37.6918 12.465 37.7768 12.705 37.7768 12.995C37.7768 13.305 37.6718 13.565 37.4618 13.775C37.2518 13.975 36.9518 14.075 36.5618 14.075H32.4368C31.8068 14.075 31.2668 14 30.8168 13.85C30.3668 13.7 30.0218 13.46 29.7818 13.13C29.5418 12.79 29.4218 12.34 29.4218 11.78C29.4218 11.33 29.4968 10.88 29.6468 10.43C29.8068 9.98 30.0268 9.57 30.3068 9.2C30.5868 8.82 30.9118 8.52 31.2818 8.3C31.6618 8.07 32.0718 7.955 32.5118 7.955C33.1118 7.955 33.6368 8.14 34.0868 8.51C34.5368 8.88 34.8868 9.37 35.1368 9.98C35.3968 10.59 35.5268 11.255 35.5268 11.975C35.5268 13.105 35.2868 14.065 34.8068 14.855C34.3268 15.645 33.6418 16.255 32.7518 16.685C31.8618 17.125 30.8018 17.38 29.5718 17.45ZM36.583 14.075L36.733 11.975C37.203 11.975 37.533 11.93 37.723 11.84C37.923 11.74 38.043 11.56 38.083 11.3C38.123 11.03 38.133 10.64 38.113 10.13L37.873 3.02H40.003L40.258 10.115C40.278 10.615 40.338 11 40.438 11.27C40.538 11.54 40.703 11.725 40.933 11.825C41.173 11.925 41.493 11.975 41.893 11.975C42.273 11.975 42.543 12.075 42.703 12.275C42.863 12.465 42.943 12.705 42.943 12.995C42.943 13.305 42.838 13.565 42.628 13.775C42.418 13.975 42.123 14.075 41.743 14.075C41.303 14.075 40.893 14.025 40.513 13.925C40.133 13.825 39.818 13.635 39.568 13.355C39.318 13.075 39.153 12.67 39.073 12.14L39.733 12.155C39.563 12.675 39.343 13.075 39.073 13.355C38.803 13.625 38.463 13.815 38.053 13.925C37.653 14.025 37.163 14.075 36.583 14.075ZM41.6793 14.075L41.8293 11.975C42.5293 11.975 43.1593 11.93 43.7193 11.84C44.2793 11.74 44.7693 11.61 45.1893 11.45C45.6193 11.29 45.9743 11.105 46.2543 10.895C46.5443 10.685 46.7593 10.465 46.8993 10.235C47.0493 9.995 47.1243 9.76 47.1243 9.53C47.1243 9.4 47.0893 9.28 47.0193 9.17C46.9593 9.05 46.8543 8.955 46.7043 8.885C46.5543 8.805 46.3493 8.765 46.0893 8.765C45.9593 8.765 45.8043 8.78 45.6243 8.81C45.4443 8.84 45.2643 8.885 45.0843 8.945C44.9043 8.995 44.7343 9.065 44.5743 9.155C44.7843 9.315 45.0143 9.52 45.2643 9.77C45.5143 10.01 45.7643 10.265 46.0143 10.535C46.2643 10.795 46.4793 11.05 46.6593 11.3C46.8693 11.39 47.0993 11.48 47.3493 11.57C47.6093 11.65 47.8893 11.72 48.1893 11.78C48.4893 11.84 48.8043 11.89 49.1343 11.93C49.4643 11.96 49.8043 11.975 50.1543 11.975C50.5343 11.975 50.8043 12.075 50.9643 12.275C51.1343 12.465 51.2193 12.705 51.2193 12.995C51.2193 13.305 51.1143 13.565 50.9043 13.775C50.6943 13.975 50.3943 14.075 50.0043 14.075C49.2043 14.075 48.4943 14.015 47.8743 13.895C47.2543 13.765 46.6993 13.58 46.2093 13.34C45.7293 13.09 45.2793 12.79 44.8593 12.44C44.7393 12.23 44.5693 12.005 44.3493 11.765C44.1393 11.515 43.9143 11.275 43.6743 11.045C43.4443 10.815 43.2343 10.625 43.0443 10.475C42.9943 10.435 42.9343 10.33 42.8643 10.16C42.8043 9.98 42.7493 9.795 42.6993 9.605C42.6493 9.405 42.6243 9.265 42.6243 9.185C42.6243 8.955 42.7293 8.71 42.9393 8.45C43.1593 8.19 43.4493 7.95 43.8093 7.73C44.1793 7.5 44.5843 7.315 45.0243 7.175C45.4743 7.025 45.9293 6.95 46.3893 6.95C47.0093 6.95 47.5243 7.045 47.9343 7.235C48.3543 7.415 48.6693 7.67 48.8793 8C49.0893 8.32 49.1943 8.695 49.1943 9.125C49.1943 9.605 49.0893 10.085 48.8793 10.565C48.6693 11.035 48.3593 11.48 47.9493 11.9C47.5493 12.32 47.0443 12.695 46.4343 13.025C45.8343 13.345 45.1343 13.6 44.3343 13.79C43.5443 13.98 42.6593 14.075 41.6793 14.075ZM50.0156 14.075L50.1656 11.975C50.3956 11.975 50.5906 11.92 50.7506 11.81C50.9206 11.69 51.0956 11.495 51.2756 11.225C51.4556 10.945 51.6656 10.57 51.9056 10.1C52.2056 9.5 52.5156 9.03 52.8356 8.69C53.1656 8.35 53.5006 8.11 53.8406 7.97C54.1906 7.82 54.5406 7.745 54.8906 7.745C55.3306 7.745 55.7406 7.84 56.1206 8.03C56.5006 8.22 56.8306 8.48 57.1106 8.81C57.3906 9.13 57.6056 9.5 57.7556 9.92C57.9156 10.33 57.9956 10.755 57.9956 11.195C57.9956 11.725 57.8806 12.205 57.6506 12.635C57.4306 13.055 57.1206 13.39 56.7206 13.64C56.3306 13.88 55.8806 14 55.3706 14C54.9406 14 54.4406 13.925 53.8706 13.775C53.3006 13.625 52.7006 13.31 52.0706 12.83L52.8356 11.015C53.2856 11.325 53.7056 11.55 54.0956 11.69C54.4956 11.83 54.8256 11.9 55.0856 11.9C55.2856 11.9 55.4506 11.88 55.5806 11.84C55.7106 11.8 55.8056 11.735 55.8656 11.645C55.9256 11.555 55.9556 11.435 55.9556 11.285C55.9556 11.075 55.9056 10.86 55.8056 10.64C55.7056 10.42 55.5706 10.235 55.4006 10.085C55.2406 9.925 55.0506 9.845 54.8306 9.845C54.6206 9.845 54.4406 9.925 54.2906 10.085C54.1506 10.235 54.0106 10.455 53.8706 10.745C53.7406 11.025 53.5806 11.355 53.3906 11.735C53.1606 12.195 52.9356 12.58 52.7156 12.89C52.4956 13.19 52.2606 13.43 52.0106 13.61C51.7706 13.78 51.4856 13.9 51.1556 13.97C50.8356 14.04 50.4556 14.075 50.0156 14.075ZM62.8861 13.58C62.8861 13.35 62.9061 13.08 62.9461 12.77C62.9861 12.46 63.0611 12.11 63.1711 11.72C63.2811 11.32 63.4461 10.875 63.6661 10.385L65.5111 11.03C65.4011 11.34 65.3061 11.625 65.2261 11.885C65.1461 12.135 65.0861 12.37 65.0461 12.59C65.0061 12.8 64.9861 13.01 64.9861 13.22C64.9861 13.55 65.0561 13.845 65.1961 14.105C65.3461 14.375 65.5611 14.6 65.8411 14.78C66.1211 14.97 66.4611 15.115 66.8611 15.215C67.2711 15.315 67.7411 15.365 68.2711 15.365C68.8211 15.365 69.3111 15.34 69.7411 15.29C70.1811 15.24 70.5511 15.165 70.8511 15.065C71.1611 14.965 71.3961 14.835 71.5561 14.675C71.7161 14.525 71.7961 14.35 71.7961 14.15C71.7961 14.06 71.7611 13.975 71.6911 13.895C71.6311 13.815 71.5261 13.73 71.3761 13.64C71.2361 13.55 71.0461 13.455 70.8061 13.355C70.5761 13.255 70.2961 13.145 69.9661 13.025L70.4611 10.91C70.8911 11.09 71.2961 11.25 71.6761 11.39C72.0661 11.52 72.4361 11.63 72.7861 11.72C73.1361 11.8 73.4661 11.865 73.7761 11.915C74.0861 11.955 74.3761 11.975 74.6461 11.975C75.0261 11.975 75.2961 12.075 75.4561 12.275C75.6161 12.465 75.6961 12.705 75.6961 12.995C75.6961 13.305 75.5911 13.565 75.3811 13.775C75.1711 13.975 74.8761 14.075 74.4961 14.075C74.4161 14.075 74.3361 14.075 74.2561 14.075C74.1861 14.075 74.1111 14.075 74.0311 14.075C73.9611 14.075 73.8861 14.075 73.8061 14.075C73.8261 14.175 73.8361 14.26 73.8361 14.33C73.8361 14.41 73.8361 14.485 73.8361 14.555C73.8361 14.885 73.7211 15.22 73.4911 15.56C73.2711 15.9 72.9261 16.215 72.4561 16.505C71.9861 16.795 71.3861 17.025 70.6561 17.195C69.9361 17.375 69.0761 17.465 68.0761 17.465C66.9961 17.465 66.0661 17.325 65.2861 17.045C64.5161 16.775 63.9211 16.35 63.5011 15.77C63.0911 15.2 62.8861 14.47 62.8861 13.58ZM74.4932 14.075L74.6432 11.975H76.7882C76.9982 11.975 77.1832 11.965 77.3432 11.945C77.5032 11.915 77.6332 11.87 77.7332 11.81C77.8432 11.75 77.9232 11.675 77.9732 11.585C78.0232 11.495 78.0482 11.39 78.0482 11.27C78.0482 11.15 77.9832 10.96 77.8532 10.7C77.7332 10.43 77.4682 10.105 77.0582 9.725C76.8382 9.525 76.5982 9.315 76.3382 9.095C76.0882 8.865 75.8482 8.65 75.6182 8.45C75.3882 8.24 75.1982 8.055 75.0482 7.895C74.8982 7.735 74.8232 7.62 74.8232 7.55C74.8232 7.4 74.8332 7.235 74.8532 7.055C74.8732 6.875 74.9032 6.71 74.9432 6.56C74.9932 6.41 75.0582 6.3 75.1382 6.23C75.3082 6.07 75.5582 5.885 75.8882 5.675C76.2282 5.455 76.6332 5.22 77.1032 4.97C77.5732 4.71 78.0982 4.44 78.6782 4.16C79.2682 3.87 79.8982 3.58 80.5682 3.29L81.4232 5.12C80.8732 5.36 80.3532 5.595 79.8632 5.825C79.3732 6.045 78.9132 6.265 78.4832 6.485C78.0632 6.695 77.6732 6.905 77.3132 7.115C76.9632 7.315 76.6532 7.515 76.3832 7.715L76.5782 6.605C77.4282 7.255 78.1032 7.84 78.6032 8.36C79.1132 8.88 79.4932 9.345 79.7432 9.755C79.9932 10.155 80.1582 10.515 80.2382 10.835C80.3182 11.145 80.3582 11.42 80.3582 11.66C80.3582 11.9 80.2982 12.16 80.1782 12.44C80.0682 12.71 79.8632 12.97 79.5632 13.22C79.2732 13.47 78.8632 13.675 78.3332 13.835C77.8032 13.995 77.1232 14.075 76.2932 14.075H74.4932ZM85.4447 13.58C85.4447 13.35 85.4647 13.08 85.5047 12.77C85.5447 12.46 85.6197 12.11 85.7297 11.72C85.8397 11.32 86.0047 10.875 86.2247 10.385L88.0697 11.03C87.9597 11.34 87.8647 11.625 87.7847 11.885C87.7047 12.135 87.6447 12.37 87.6047 12.59C87.5647 12.8 87.5447 13.01 87.5447 13.22C87.5447 13.71 87.6547 14.11 87.8747 14.42C88.1047 14.74 88.4247 14.975 88.8347 15.125C89.2447 15.285 89.7197 15.365 90.2597 15.365C90.8797 15.365 91.3897 15.28 91.7897 15.11C92.1897 14.95 92.4997 14.735 92.7197 14.465C92.9397 14.205 93.0947 13.92 93.1847 13.61C93.2747 13.29 93.3197 12.98 93.3197 12.68C93.3197 12.27 93.2497 11.785 93.1097 11.225C92.9697 10.655 92.7197 10.015 92.3597 9.305L94.2947 8.48C94.4947 8.83 94.6797 9.24 94.8497 9.71C95.0197 10.17 95.1547 10.65 95.2547 11.15C95.3647 11.65 95.4197 12.125 95.4197 12.575C95.4197 12.975 95.3697 13.4 95.2697 13.85C95.1697 14.29 94.9997 14.725 94.7597 15.155C94.5297 15.585 94.2147 15.97 93.8147 16.31C93.4147 16.66 92.9197 16.94 92.3297 17.15C91.7397 17.36 91.0347 17.465 90.2147 17.465C89.5547 17.465 88.9347 17.39 88.3547 17.24C87.7847 17.1 87.2797 16.875 86.8397 16.565C86.4097 16.255 86.0697 15.85 85.8197 15.35C85.5697 14.86 85.4447 14.27 85.4447 13.58ZM97.0279 17.45L96.5929 15.35C97.3029 15.26 97.9229 15.15 98.4529 15.02C98.9829 14.9 99.4279 14.73 99.7879 14.51C100.148 14.29 100.418 13.99 100.598 13.61C100.778 13.22 100.868 12.72 100.868 12.11C100.868 11.89 100.848 11.67 100.808 11.45C100.768 11.22 100.708 11.01 100.628 10.82C100.548 10.63 100.443 10.475 100.313 10.355C100.193 10.235 100.048 10.175 99.8779 10.175C99.6979 10.175 99.5379 10.24 99.3979 10.37C99.2579 10.49 99.1479 10.645 99.0679 10.835C98.9879 11.015 98.9479 11.2 98.9479 11.39C98.9479 11.53 98.9829 11.65 99.0529 11.75C99.1229 11.84 99.2279 11.91 99.3679 11.96C99.5079 12 99.6829 12.02 99.8929 12.02C100.133 12.02 100.378 11.995 100.628 11.945C100.888 11.885 101.123 11.805 101.333 11.705L101.393 13.34C101.153 13.53 100.878 13.7 100.568 13.85C100.258 13.99 99.8829 14.06 99.4429 14.06C99.0829 14.06 98.7479 14.02 98.4379 13.94C98.1279 13.85 97.8529 13.715 97.6129 13.535C97.3829 13.355 97.2029 13.125 97.0729 12.845C96.9429 12.555 96.8779 12.21 96.8779 11.81C96.8779 11.32 96.9579 10.845 97.1179 10.385C97.2779 9.925 97.4979 9.515 97.7779 9.155C98.0679 8.785 98.3979 8.495 98.7679 8.285C99.1479 8.065 99.5479 7.955 99.9679 7.955C100.468 7.955 100.903 8.08 101.273 8.33C101.653 8.58 101.968 8.91 102.218 9.32C102.468 9.72 102.658 10.155 102.788 10.625C102.918 11.095 102.983 11.545 102.983 11.975C102.983 13.105 102.743 14.065 102.263 14.855C101.783 15.645 101.098 16.255 100.208 16.685C99.3179 17.125 98.2579 17.38 97.0279 17.45ZM103.884 17.45L103.119 15.53C103.979 15.23 104.674 14.9 105.204 14.54C105.744 14.18 106.139 13.795 106.389 13.385C106.649 12.975 106.779 12.55 106.779 12.11C106.779 11.83 106.739 11.54 106.659 11.24C106.579 10.93 106.464 10.605 106.314 10.265C106.174 9.925 106.004 9.57 105.804 9.2L107.769 8.255C108.119 8.925 108.389 9.565 108.579 10.175C108.779 10.785 108.879 11.355 108.879 11.885C108.879 12.375 108.814 12.845 108.684 13.295C108.564 13.745 108.374 14.165 108.114 14.555C107.864 14.955 107.539 15.33 107.139 15.68C106.739 16.03 106.269 16.35 105.729 16.64C105.189 16.94 104.574 17.21 103.884 17.45ZM110.981 14L110.666 3.02H112.766L113.081 14H110.981ZM114.408 13.4L115.143 11.495C115.513 11.655 115.868 11.775 116.208 11.855C116.548 11.935 116.888 11.975 117.228 11.975C117.578 11.975 117.868 11.945 118.098 11.885C118.338 11.815 118.518 11.715 118.638 11.585C118.758 11.455 118.818 11.3 118.818 11.12C118.818 10.95 118.763 10.715 118.653 10.415C118.553 10.115 118.368 9.725 118.098 9.245C117.828 8.755 117.433 8.15 116.913 7.43L118.698 6.245C119.178 6.925 119.593 7.59 119.943 8.24C120.293 8.88 120.563 9.48 120.753 10.04C120.953 10.59 121.053 11.075 121.053 11.495C121.053 12.015 120.913 12.47 120.633 12.86C120.363 13.24 119.958 13.54 119.418 13.76C118.888 13.98 118.233 14.09 117.453 14.09C117.163 14.09 116.838 14.065 116.478 14.015C116.118 13.965 115.753 13.89 115.383 13.79C115.023 13.69 114.698 13.56 114.408 13.4ZM134.172 14.075C133.472 14.075 132.902 13.995 132.462 13.835C132.032 13.675 131.692 13.46 131.442 13.19C131.192 12.91 130.987 12.59 130.827 12.23C130.667 11.86 130.512 11.475 130.362 11.075C130.232 10.715 130.092 10.485 129.942 10.385C129.802 10.275 129.632 10.22 129.432 10.22C129.082 10.22 128.777 10.29 128.517 10.43C128.257 10.57 128.052 10.75 127.902 10.97C127.762 11.19 127.692 11.425 127.692 11.675C127.692 11.935 127.732 12.21 127.812 12.5C127.892 12.78 127.982 13.07 128.082 13.37L126.192 13.895C126.112 13.665 126.022 13.425 125.922 13.175C125.832 12.915 125.752 12.65 125.682 12.38C125.622 12.11 125.592 11.845 125.592 11.585C125.592 11.085 125.707 10.625 125.937 10.205C126.177 9.775 126.492 9.405 126.882 9.095C127.282 8.785 127.727 8.545 128.217 8.375C128.707 8.205 129.202 8.12 129.702 8.12C130.032 8.12 130.347 8.16 130.647 8.24C130.947 8.31 131.212 8.44 131.442 8.63C131.682 8.82 131.857 9.08 131.967 9.41C132.157 9.95 132.322 10.39 132.462 10.73C132.612 11.06 132.767 11.315 132.927 11.495C133.087 11.675 133.277 11.8 133.497 11.87C133.717 11.94 133.992 11.975 134.322 11.975C134.702 11.975 134.972 12.075 135.132 12.275C135.292 12.465 135.372 12.705 135.372 12.995C135.372 13.305 135.267 13.565 135.057 13.775C134.847 13.975 134.552 14.075 134.172 14.075ZM134.171 14.075L134.321 11.975C134.681 11.975 134.991 11.94 135.251 11.87C135.511 11.8 135.731 11.66 135.911 11.45C136.091 11.23 136.241 10.91 136.361 10.49C136.491 10.07 136.606 9.51 136.706 8.81L138.671 9.14C138.651 9.29 138.621 9.465 138.581 9.665C138.551 9.865 138.521 10.07 138.491 10.28C138.471 10.48 138.461 10.67 138.461 10.85C138.461 11.03 138.496 11.19 138.566 11.33C138.636 11.47 138.746 11.59 138.896 11.69C139.056 11.78 139.261 11.85 139.511 11.9C139.771 11.95 140.086 11.975 140.456 11.975C140.836 11.975 141.106 12.075 141.266 12.275C141.426 12.465 141.506 12.705 141.506 12.995C141.506 13.305 141.401 13.565 141.191 13.775C140.991 13.975 140.696 14.075 140.306 14.075C139.856 14.075 139.446 14.04 139.076 13.97C138.716 13.9 138.401 13.785 138.131 13.625C137.871 13.455 137.656 13.235 137.486 12.965C137.326 12.685 137.226 12.345 137.186 11.945H137.906C137.726 12.425 137.496 12.81 137.216 13.1C136.946 13.38 136.641 13.59 136.301 13.73C135.961 13.87 135.606 13.96 135.236 14C134.876 14.05 134.521 14.075 134.171 14.075ZM138.986 7.46C138.696 7.46 138.446 7.36 138.236 7.16C138.036 6.95 137.936 6.705 137.936 6.425C137.936 6.135 138.036 5.885 138.236 5.675C138.446 5.465 138.696 5.36 138.986 5.36C139.266 5.36 139.506 5.465 139.706 5.675C139.906 5.885 140.006 6.135 140.006 6.425C140.006 6.705 139.906 6.95 139.706 7.16C139.506 7.36 139.266 7.46 138.986 7.46ZM136.391 7.445C136.101 7.445 135.851 7.345 135.641 7.145C135.441 6.935 135.341 6.69 135.341 6.41C135.341 6.12 135.441 5.87 135.641 5.66C135.851 5.45 136.101 5.345 136.391 5.345C136.671 5.345 136.911 5.45 137.111 5.66C137.311 5.87 137.411 6.12 137.411 6.41C137.411 6.69 137.311 6.935 137.111 7.145C136.911 7.345 136.671 7.445 136.391 7.445ZM140.309 14.075L140.459 11.975C140.789 11.975 141.059 11.95 141.269 11.9C141.479 11.84 141.649 11.715 141.779 11.525C141.919 11.325 142.039 11.03 142.139 10.64C142.249 10.24 142.369 9.7 142.499 9.02L144.449 9.38C144.419 9.53 144.384 9.705 144.344 9.905C144.304 10.105 144.269 10.31 144.239 10.52C144.209 10.72 144.194 10.9 144.194 11.06C144.194 11.34 144.284 11.565 144.464 11.735C144.644 11.895 144.984 11.975 145.484 11.975C145.734 11.975 145.949 11.95 146.129 11.9C146.319 11.84 146.479 11.715 146.609 11.525C146.749 11.325 146.869 11.02 146.969 10.61C147.079 10.19 147.184 9.625 147.284 8.915L149.264 9.23C149.224 9.46 149.184 9.705 149.144 9.965C149.104 10.225 149.069 10.465 149.039 10.685C149.009 10.905 148.994 11.085 148.994 11.225C148.994 11.355 149.029 11.48 149.099 11.6C149.179 11.71 149.319 11.8 149.519 11.87C149.729 11.94 150.024 11.975 150.404 11.975C150.674 11.975 150.904 11.94 151.094 11.87C151.294 11.8 151.444 11.685 151.544 11.525C151.654 11.365 151.709 11.155 151.709 10.895C151.709 10.525 151.624 10.04 151.454 9.44C151.284 8.84 151.084 8.21 150.854 7.55L152.969 6.92C153.129 7.35 153.269 7.81 153.389 8.3C153.519 8.78 153.619 9.25 153.689 9.71C153.769 10.16 153.809 10.555 153.809 10.895C153.809 11.405 153.729 11.86 153.569 12.26C153.409 12.65 153.184 12.98 152.894 13.25C152.604 13.52 152.259 13.725 151.859 13.865C151.459 14.005 151.019 14.075 150.539 14.075C149.959 14.075 149.484 14.02 149.114 13.91C148.744 13.79 148.459 13.595 148.259 13.325C148.069 13.045 147.944 12.665 147.884 12.185H148.394C148.184 12.775 147.949 13.205 147.689 13.475C147.429 13.735 147.119 13.9 146.759 13.97C146.409 14.04 145.969 14.075 145.439 14.075C145.109 14.075 144.769 14.04 144.419 13.97C144.079 13.89 143.774 13.71 143.504 13.43C143.234 13.15 143.034 12.715 142.904 12.125L143.714 12.095C143.504 12.685 143.229 13.12 142.889 13.4C142.559 13.68 142.179 13.865 141.749 13.955C141.319 14.035 140.839 14.075 140.309 14.075ZM148.154 4.79C147.904 4.79 147.684 4.695 147.494 4.505C147.314 4.315 147.224 4.09 147.224 3.83C147.224 3.57 147.314 3.35 147.494 3.17C147.684 2.99 147.904 2.9 148.154 2.9C148.414 2.9 148.634 2.99 148.814 3.17C148.994 3.35 149.084 3.57 149.084 3.83C149.084 4.09 148.994 4.315 148.814 4.505C148.634 4.695 148.414 4.79 148.154 4.79ZM146.954 6.77C146.704 6.77 146.484 6.675 146.294 6.485C146.114 6.295 146.024 6.07 146.024 5.81C146.024 5.55 146.114 5.33 146.294 5.15C146.484 4.97 146.704 4.88 146.954 4.88C147.214 4.88 147.434 4.97 147.614 5.15C147.794 5.33 147.884 5.55 147.884 5.81C147.884 6.07 147.794 6.295 147.614 6.485C147.434 6.675 147.214 6.77 146.954 6.77ZM149.279 6.77C149.029 6.77 148.809 6.675 148.619 6.485C148.439 6.295 148.349 6.07 148.349 5.81C148.349 5.55 148.439 5.33 148.619 5.15C148.809 4.97 149.029 4.88 149.279 4.88C149.539 4.88 149.759 4.97 149.939 5.15C150.119 5.33 150.209 5.55 150.209 5.81C150.209 6.07 150.119 6.295 149.939 6.485C149.759 6.675 149.539 6.77 149.279 6.77ZM154.802 17.45L154.037 15.53C154.897 15.23 155.592 14.9 156.122 14.54C156.662 14.18 157.057 13.795 157.307 13.385C157.567 12.975 157.697 12.55 157.697 12.11C157.697 11.83 157.657 11.54 157.577 11.24C157.497 10.93 157.382 10.605 157.232 10.265C157.092 9.925 156.922 9.57 156.722 9.2L158.687 8.255C159.037 8.925 159.307 9.565 159.497 10.175C159.697 10.785 159.797 11.355 159.797 11.885C159.797 12.375 159.732 12.845 159.602 13.295C159.482 13.745 159.292 14.165 159.032 14.555C158.782 14.955 158.457 15.33 158.057 15.68C157.657 16.03 157.187 16.35 156.647 16.64C156.107 16.94 155.492 17.21 154.802 17.45ZM164.974 13.4L165.709 11.495C166.079 11.655 166.434 11.775 166.774 11.855C167.114 11.935 167.454 11.975 167.794 11.975C168.144 11.975 168.434 11.945 168.664 11.885C168.904 11.815 169.084 11.715 169.204 11.585C169.324 11.455 169.384 11.3 169.384 11.12C169.384 10.95 169.329 10.715 169.219 10.415C169.119 10.115 168.934 9.725 168.664 9.245C168.394 8.755 167.999 8.15 167.479 7.43L169.264 6.245C169.744 6.925 170.159 7.59 170.509 8.24C170.859 8.88 171.129 9.48 171.319 10.04C171.519 10.59 171.619 11.075 171.619 11.495C171.619 12.015 171.479 12.47 171.199 12.86C170.929 13.24 170.524 13.54 169.984 13.76C169.454 13.98 168.799 14.09 168.019 14.09C167.729 14.09 167.404 14.065 167.044 14.015C166.684 13.965 166.319 13.89 165.949 13.79C165.589 13.69 165.264 13.56 164.974 13.4ZM173.053 17.45L172.618 15.35C173.328 15.26 173.948 15.15 174.478 15.02C175.008 14.9 175.453 14.73 175.813 14.51C176.173 14.29 176.443 13.99 176.623 13.61C176.803 13.22 176.893 12.72 176.893 12.11C176.893 11.52 176.803 11.05 176.623 10.7C176.443 10.35 176.203 10.175 175.903 10.175C175.693 10.175 175.518 10.25 175.378 10.4C175.238 10.54 175.133 10.71 175.063 10.91C175.003 11.1 174.973 11.27 174.973 11.42C174.973 11.51 174.998 11.605 175.048 11.705C175.098 11.805 175.208 11.89 175.378 11.96C175.548 12.03 175.813 12.07 176.173 12.08C176.543 12.09 177.043 12.055 177.673 11.975H180.193C180.573 11.975 180.843 12.075 181.003 12.275C181.173 12.465 181.258 12.705 181.258 12.995C181.258 13.305 181.153 13.565 180.943 13.775C180.733 13.975 180.433 14.075 180.043 14.075H175.918C175.288 14.075 174.748 14 174.298 13.85C173.848 13.7 173.503 13.46 173.263 13.13C173.023 12.79 172.903 12.34 172.903 11.78C172.903 11.33 172.978 10.88 173.128 10.43C173.288 9.98 173.508 9.57 173.788 9.2C174.068 8.82 174.393 8.52 174.763 8.3C175.143 8.07 175.553 7.955 175.993 7.955C176.593 7.955 177.118 8.14 177.568 8.51C178.018 8.88 178.368 9.37 178.618 9.98C178.878 10.59 179.008 11.255 179.008 11.975C179.008 13.105 178.768 14.065 178.288 14.855C177.808 15.645 177.123 16.255 176.233 16.685C175.343 17.125 174.283 17.38 173.053 17.45ZM180.064 14.075L180.214 11.975C180.754 11.975 181.289 11.945 181.819 11.885C182.349 11.825 182.864 11.735 183.364 11.615C183.864 11.495 184.339 11.34 184.789 11.15C185.249 10.96 185.679 10.73 186.079 10.46C185.779 10.28 185.454 10.125 185.104 9.995C184.754 9.865 184.379 9.77 183.979 9.71C183.589 9.64 183.174 9.605 182.734 9.605C182.574 9.605 182.404 9.61 182.224 9.62C182.054 9.63 181.879 9.65 181.699 9.68C181.519 9.7 181.339 9.73 181.159 9.77L180.859 7.715C181.149 7.635 181.454 7.58 181.774 7.55C182.104 7.51 182.394 7.49 182.644 7.49C183.184 7.49 183.679 7.55 184.129 7.67C184.589 7.79 185.009 7.94 185.389 8.12C185.779 8.3 186.139 8.48 186.469 8.66C186.809 8.84 187.129 8.99 187.429 9.11C187.739 9.23 188.039 9.29 188.329 9.29H188.884L189.124 11.285C188.694 11.305 188.289 11.39 187.909 11.54C187.539 11.68 187.169 11.86 186.799 12.08C186.439 12.29 186.049 12.51 185.629 12.74C185.219 12.97 184.754 13.185 184.234 13.385C183.714 13.585 183.114 13.75 182.434 13.88C181.754 14.01 180.964 14.075 180.064 14.075ZM184.564 17.525C184.274 17.525 184.024 17.425 183.814 17.225C183.614 17.025 183.514 16.78 183.514 16.49C183.514 16.2 183.614 15.945 183.814 15.725C184.024 15.515 184.274 15.41 184.564 15.41C184.854 15.41 185.099 15.515 185.299 15.725C185.509 15.945 185.614 16.2 185.614 16.49C185.614 16.78 185.509 17.025 185.299 17.225C185.099 17.425 184.854 17.525 184.564 17.525ZM190.353 17.45L189.918 15.35C190.628 15.26 191.248 15.15 191.778 15.02C192.308 14.9 192.753 14.73 193.113 14.51C193.473 14.29 193.743 13.99 193.923 13.61C194.103 13.22 194.193 12.72 194.193 12.11C194.193 11.52 194.103 11.05 193.923 10.7C193.743 10.35 193.503 10.175 193.203 10.175C192.993 10.175 192.818 10.25 192.678 10.4C192.538 10.54 192.433 10.71 192.363 10.91C192.303 11.1 192.273 11.27 192.273 11.42C192.273 11.51 192.298 11.605 192.348 11.705C192.398 11.805 192.508 11.89 192.678 11.96C192.848 12.03 193.113 12.07 193.473 12.08C193.843 12.09 194.343 12.055 194.973 11.975H197.493C197.873 11.975 198.143 12.075 198.303 12.275C198.473 12.465 198.558 12.705 198.558 12.995C198.558 13.305 198.453 13.565 198.243 13.775C198.033 13.975 197.733 14.075 197.343 14.075H193.218C192.588 14.075 192.048 14 191.598 13.85C191.148 13.7 190.803 13.46 190.563 13.13C190.323 12.79 190.203 12.34 190.203 11.78C190.203 11.33 190.278 10.88 190.428 10.43C190.588 9.98 190.808 9.57 191.088 9.2C191.368 8.82 191.693 8.52 192.063 8.3C192.443 8.07 192.853 7.955 193.293 7.955C193.893 7.955 194.418 8.14 194.868 8.51C195.318 8.88 195.668 9.37 195.918 9.98C196.178 10.59 196.308 11.255 196.308 11.975C196.308 13.105 196.068 14.065 195.588 14.855C195.108 15.645 194.423 16.255 193.533 16.685C192.643 17.125 191.583 17.38 190.353 17.45ZM197.364 14.075L197.514 11.975C197.744 11.975 197.939 11.92 198.099 11.81C198.269 11.69 198.444 11.495 198.624 11.225C198.804 10.945 199.014 10.57 199.254 10.1C199.554 9.5 199.864 9.03 200.184 8.69C200.514 8.35 200.849 8.11 201.189 7.97C201.539 7.82 201.889 7.745 202.239 7.745C202.679 7.745 203.089 7.84 203.469 8.03C203.849 8.22 204.179 8.48 204.459 8.81C204.739 9.13 204.954 9.5 205.104 9.92C205.264 10.33 205.344 10.755 205.344 11.195C205.344 11.725 205.229 12.205 204.999 12.635C204.779 13.055 204.469 13.39 204.069 13.64C203.679 13.88 203.229 14 202.719 14C202.289 14 201.789 13.925 201.219 13.775C200.649 13.625 200.049 13.31 199.419 12.83L200.184 11.015C200.634 11.325 201.054 11.55 201.444 11.69C201.844 11.83 202.174 11.9 202.434 11.9C202.634 11.9 202.799 11.88 202.929 11.84C203.059 11.8 203.154 11.735 203.214 11.645C203.274 11.555 203.304 11.435 203.304 11.285C203.304 11.075 203.254 10.86 203.154 10.64C203.054 10.42 202.919 10.235 202.749 10.085C202.589 9.925 202.399 9.845 202.179 9.845C201.969 9.845 201.789 9.925 201.639 10.085C201.499 10.235 201.359 10.455 201.219 10.745C201.089 11.025 200.929 11.355 200.739 11.735C200.509 12.195 200.284 12.58 200.064 12.89C199.844 13.19 199.609 13.43 199.359 13.61C199.119 13.78 198.834 13.9 198.504 13.97C198.184 14.04 197.804 14.075 197.364 14.075ZM213.985 13.58C213.985 13.23 214.03 12.795 214.12 12.275C214.22 11.745 214.435 11.115 214.765 10.385L216.61 11.03C216.44 11.5 216.31 11.905 216.22 12.245C216.13 12.575 216.085 12.9 216.085 13.22C216.085 13.67 216.185 14.055 216.385 14.375C216.595 14.695 216.9 14.94 217.3 15.11C217.71 15.28 218.21 15.365 218.8 15.365C219.4 15.365 219.9 15.3 220.3 15.17C220.7 15.04 221.015 14.855 221.245 14.615C221.475 14.385 221.64 14.115 221.74 13.805C221.84 13.495 221.89 13.16 221.89 12.8C221.89 12.52 221.855 12.205 221.785 11.855C221.725 11.505 221.635 11.125 221.515 10.715C221.395 10.295 221.26 9.855 221.11 9.395L223.21 8.855C223.31 9.235 223.39 9.56 223.45 9.83C223.52 10.1 223.58 10.325 223.63 10.505C223.68 10.675 223.72 10.815 223.75 10.925C223.85 11.225 223.985 11.45 224.155 11.6C224.325 11.75 224.545 11.85 224.815 11.9C225.095 11.95 225.43 11.975 225.82 11.975C226.2 11.975 226.47 12.075 226.63 12.275C226.79 12.465 226.87 12.705 226.87 12.995C226.87 13.305 226.765 13.565 226.555 13.775C226.345 13.975 226.05 14.075 225.67 14.075C225.33 14.075 224.99 14.03 224.65 13.94C224.32 13.84 224.035 13.68 223.795 13.46C223.555 13.24 223.4 12.945 223.33 12.575L223.885 13.175C223.865 13.855 223.73 14.46 223.48 14.99C223.23 15.52 222.88 15.97 222.43 16.34C221.99 16.71 221.455 16.99 220.825 17.18C220.205 17.37 219.51 17.465 218.74 17.465C218.07 17.465 217.445 17.39 216.865 17.24C216.295 17.1 215.79 16.87 215.35 16.55C214.92 16.24 214.585 15.84 214.345 15.35C214.105 14.86 213.985 14.27 213.985 13.58ZM225.665 14.075L225.815 11.975C226.175 11.975 226.485 11.94 226.745 11.87C227.005 11.8 227.225 11.66 227.405 11.45C227.585 11.23 227.735 10.91 227.855 10.49C227.985 10.07 228.1 9.51 228.2 8.81L230.165 9.14C230.145 9.29 230.115 9.465 230.075 9.665C230.045 9.865 230.015 10.07 229.985 10.28C229.965 10.48 229.955 10.67 229.955 10.85C229.955 11.03 229.99 11.19 230.06 11.33C230.13 11.47 230.24 11.59 230.39 11.69C230.55 11.78 230.755 11.85 231.005 11.9C231.265 11.95 231.58 11.975 231.95 11.975C232.33 11.975 232.6 12.075 232.76 12.275C232.92 12.465 233 12.705 233 12.995C233 13.305 232.895 13.565 232.685 13.775C232.485 13.975 232.19 14.075 231.8 14.075C231.35 14.075 230.94 14.04 230.57 13.97C230.21 13.9 229.895 13.785 229.625 13.625C229.365 13.455 229.15 13.235 228.98 12.965C228.82 12.685 228.72 12.345 228.68 11.945H229.4C229.22 12.425 228.99 12.81 228.71 13.1C228.44 13.38 228.135 13.59 227.795 13.73C227.455 13.87 227.1 13.96 226.73 14C226.37 14.05 226.015 14.075 225.665 14.075ZM229.85 17.555C229.56 17.555 229.31 17.45 229.1 17.24C228.9 17.04 228.8 16.8 228.8 16.52C228.8 16.23 228.9 15.98 229.1 15.77C229.31 15.56 229.56 15.455 229.85 15.455C230.13 15.455 230.37 15.56 230.57 15.77C230.77 15.98 230.87 16.23 230.87 16.52C230.87 16.8 230.77 17.04 230.57 17.24C230.37 17.45 230.13 17.555 229.85 17.555ZM227.255 17.555C226.965 17.555 226.715 17.45 226.505 17.24C226.305 17.04 226.205 16.8 226.205 16.52C226.205 16.23 226.305 15.98 226.505 15.77C226.715 15.56 226.965 15.455 227.255 15.455C227.535 15.455 227.775 15.56 227.975 15.77C228.175 15.98 228.275 16.23 228.275 16.52C228.275 16.8 228.175 17.04 227.975 17.24C227.775 17.45 227.535 17.555 227.255 17.555ZM231.803 14.075L231.953 11.975C232.183 11.975 232.378 11.92 232.538 11.81C232.708 11.69 232.883 11.495 233.063 11.225C233.243 10.945 233.453 10.57 233.693 10.1C233.993 9.5 234.303 9.03 234.623 8.69C234.953 8.35 235.288 8.11 235.628 7.97C235.978 7.82 236.328 7.745 236.678 7.745C237.118 7.745 237.528 7.84 237.908 8.03C238.288 8.22 238.618 8.48 238.898 8.81C239.178 9.13 239.393 9.5 239.543 9.92C239.703 10.33 239.783 10.755 239.783 11.195C239.783 11.725 239.668 12.205 239.438 12.635C239.218 13.055 238.908 13.39 238.508 13.64C238.118 13.88 237.668 14 237.158 14C236.728 14 236.228 13.925 235.658 13.775C235.088 13.625 234.488 13.31 233.858 12.83L234.623 11.015C235.073 11.325 235.493 11.55 235.883 11.69C236.283 11.83 236.613 11.9 236.873 11.9C237.073 11.9 237.238 11.88 237.368 11.84C237.498 11.8 237.593 11.735 237.653 11.645C237.713 11.555 237.743 11.435 237.743 11.285C237.743 11.075 237.693 10.86 237.593 10.64C237.493 10.42 237.358 10.235 237.188 10.085C237.028 9.925 236.838 9.845 236.618 9.845C236.408 9.845 236.228 9.925 236.078 10.085C235.938 10.235 235.798 10.455 235.658 10.745C235.528 11.025 235.368 11.355 235.178 11.735C234.948 12.195 234.723 12.58 234.503 12.89C234.283 13.19 234.048 13.43 233.798 13.61C233.558 13.78 233.273 13.9 232.943 13.97C232.623 14.04 232.243 14.075 231.803 14.075ZM244.673 13.58C244.673 13.23 244.718 12.795 244.808 12.275C244.908 11.745 245.123 11.115 245.453 10.385L247.298 11.03C247.128 11.5 246.998 11.905 246.908 12.245C246.818 12.575 246.773 12.9 246.773 13.22C246.773 13.67 246.873 14.055 247.073 14.375C247.283 14.695 247.588 14.94 247.988 15.11C248.398 15.28 248.898 15.365 249.488 15.365C250.088 15.365 250.588 15.3 250.988 15.17C251.388 15.04 251.703 14.855 251.933 14.615C252.163 14.385 252.328 14.115 252.428 13.805C252.528 13.495 252.578 13.16 252.578 12.8C252.578 12.52 252.543 12.205 252.473 11.855C252.413 11.505 252.323 11.125 252.203 10.715C252.083 10.295 251.948 9.855 251.798 9.395L253.898 8.855C253.998 9.235 254.078 9.56 254.138 9.83C254.208 10.1 254.268 10.325 254.318 10.505C254.368 10.675 254.408 10.815 254.438 10.925C254.538 11.225 254.673 11.45 254.843 11.6C255.013 11.75 255.233 11.85 255.503 11.9C255.783 11.95 256.118 11.975 256.508 11.975C256.888 11.975 257.158 12.075 257.318 12.275C257.478 12.465 257.558 12.705 257.558 12.995C257.558 13.305 257.453 13.565 257.243 13.775C257.033 13.975 256.738 14.075 256.358 14.075C256.018 14.075 255.678 14.03 255.338 13.94C255.008 13.84 254.723 13.68 254.483 13.46C254.243 13.24 254.088 12.945 254.018 12.575L254.573 13.175C254.553 13.855 254.418 14.46 254.168 14.99C253.918 15.52 253.568 15.97 253.118 16.34C252.678 16.71 252.143 16.99 251.513 17.18C250.893 17.37 250.198 17.465 249.428 17.465C248.758 17.465 248.133 17.39 247.553 17.24C246.983 17.1 246.478 16.87 246.038 16.55C245.608 16.24 245.273 15.84 245.033 15.35C244.793 14.86 244.673 14.27 244.673 13.58ZM249.563 7.88C249.253 7.88 248.988 7.775 248.768 7.565C248.558 7.355 248.453 7.095 248.453 6.785C248.453 6.475 248.558 6.21 248.768 5.99C248.988 5.77 249.253 5.66 249.563 5.66C249.863 5.66 250.118 5.77 250.328 5.99C250.548 6.21 250.658 6.475 250.658 6.785C250.658 7.095 250.548 7.355 250.328 7.565C250.118 7.775 249.863 7.88 249.563 7.88ZM256.354 14.075L256.504 11.975H259.864C260.804 11.975 261.584 11.94 262.204 11.87C262.834 11.8 263.334 11.7 263.704 11.57C264.074 11.43 264.334 11.27 264.484 11.09C264.644 10.91 264.724 10.715 264.724 10.505C264.724 10.315 264.679 10.135 264.589 9.965C264.499 9.785 264.364 9.64 264.184 9.53C264.004 9.42 263.769 9.365 263.479 9.365C263.109 9.365 262.739 9.455 262.369 9.635C261.999 9.805 261.639 10.04 261.289 10.34C260.939 10.63 260.604 10.955 260.284 11.315C259.974 11.675 259.689 12.04 259.429 12.41L257.164 12.095C257.584 11.445 258.039 10.83 258.529 10.25C259.029 9.66 259.554 9.145 260.104 8.705C260.664 8.255 261.239 7.905 261.829 7.655C262.429 7.395 263.039 7.265 263.659 7.265C264.319 7.265 264.884 7.4 265.354 7.67C265.824 7.94 266.184 8.31 266.434 8.78C266.694 9.25 266.824 9.795 266.824 10.415C266.824 11.065 266.639 11.65 266.269 12.17C265.909 12.69 265.294 13.12 264.424 13.46C264.054 13.6 263.654 13.715 263.224 13.805C262.794 13.895 262.289 13.96 261.709 14C261.129 14.05 260.434 14.075 259.624 14.075H256.354ZM257.914 12.545L257.599 3.02H259.699L259.969 10.22L257.914 12.545ZM268.268 17.45L267.833 15.35C268.543 15.26 269.163 15.15 269.693 15.02C270.223 14.9 270.668 14.73 271.028 14.51C271.388 14.29 271.658 13.99 271.838 13.61C272.018 13.22 272.108 12.72 272.108 12.11C272.108 11.89 272.088 11.67 272.048 11.45C272.008 11.22 271.948 11.01 271.868 10.82C271.788 10.63 271.683 10.475 271.553 10.355C271.433 10.235 271.288 10.175 271.118 10.175C270.938 10.175 270.778 10.24 270.638 10.37C270.498 10.49 270.388 10.645 270.308 10.835C270.228 11.015 270.188 11.2 270.188 11.39C270.188 11.53 270.223 11.65 270.293 11.75C270.363 11.84 270.468 11.91 270.608 11.96C270.748 12 270.923 12.02 271.133 12.02C271.373 12.02 271.618 11.995 271.868 11.945C272.128 11.885 272.363 11.805 272.573 11.705L272.633 13.34C272.393 13.53 272.118 13.7 271.808 13.85C271.498 13.99 271.123 14.06 270.683 14.06C270.323 14.06 269.988 14.02 269.678 13.94C269.368 13.85 269.093 13.715 268.853 13.535C268.623 13.355 268.443 13.125 268.313 12.845C268.183 12.555 268.118 12.21 268.118 11.81C268.118 11.32 268.198 10.845 268.358 10.385C268.518 9.925 268.738 9.515 269.018 9.155C269.308 8.785 269.638 8.495 270.008 8.285C270.388 8.065 270.788 7.955 271.208 7.955C271.708 7.955 272.143 8.08 272.513 8.33C272.893 8.58 273.208 8.91 273.458 9.32C273.708 9.72 273.898 10.155 274.028 10.625C274.158 11.095 274.223 11.545 274.223 11.975C274.223 13.105 273.983 14.065 273.503 14.855C273.023 15.645 272.338 16.255 271.448 16.685C270.558 17.125 269.498 17.38 268.268 17.45ZM279.024 13.58C279.024 13.35 279.044 13.08 279.084 12.77C279.124 12.46 279.199 12.11 279.309 11.72C279.419 11.32 279.584 10.875 279.804 10.385L281.649 11.03C281.539 11.34 281.444 11.625 281.364 11.885C281.284 12.135 281.224 12.37 281.184 12.59C281.144 12.8 281.124 13.01 281.124 13.22C281.124 13.55 281.194 13.845 281.334 14.105C281.484 14.375 281.699 14.6 281.979 14.78C282.259 14.97 282.599 15.115 282.999 15.215C283.409 15.315 283.879 15.365 284.409 15.365C284.959 15.365 285.449 15.34 285.879 15.29C286.319 15.24 286.689 15.165 286.989 15.065C287.299 14.965 287.534 14.835 287.694 14.675C287.854 14.525 287.934 14.35 287.934 14.15C287.934 14.06 287.899 13.975 287.829 13.895C287.769 13.815 287.664 13.73 287.514 13.64C287.374 13.55 287.184 13.455 286.944 13.355C286.714 13.255 286.434 13.145 286.104 13.025L286.599 10.91C287.029 11.09 287.434 11.25 287.814 11.39C288.204 11.52 288.574 11.63 288.924 11.72C289.274 11.8 289.604 11.865 289.914 11.915C290.224 11.955 290.514 11.975 290.784 11.975C291.164 11.975 291.434 12.075 291.594 12.275C291.754 12.465 291.834 12.705 291.834 12.995C291.834 13.305 291.729 13.565 291.519 13.775C291.309 13.975 291.014 14.075 290.634 14.075C290.554 14.075 290.474 14.075 290.394 14.075C290.324 14.075 290.249 14.075 290.169 14.075C290.099 14.075 290.024 14.075 289.944 14.075C289.964 14.175 289.974 14.26 289.974 14.33C289.974 14.41 289.974 14.485 289.974 14.555C289.974 14.885 289.859 15.22 289.629 15.56C289.409 15.9 289.064 16.215 288.594 16.505C288.124 16.795 287.524 17.025 286.794 17.195C286.074 17.375 285.214 17.465 284.214 17.465C283.134 17.465 282.204 17.325 281.424 17.045C280.654 16.775 280.059 16.35 279.639 15.77C279.229 15.2 279.024 14.47 279.024 13.58ZM290.631 14.075L290.781 11.975C291.221 11.975 291.566 11.945 291.816 11.885C292.076 11.825 292.261 11.715 292.371 11.555C292.481 11.385 292.536 11.145 292.536 10.835C292.536 10.555 292.496 10.22 292.416 9.83C292.346 9.44 292.251 9.035 292.131 8.615C292.011 8.195 291.891 7.81 291.771 7.46L293.841 6.89C293.961 7.23 294.081 7.625 294.201 8.075C294.321 8.525 294.421 8.99 294.501 9.47C294.591 9.94 294.636 10.395 294.636 10.835C294.636 11.385 294.566 11.85 294.426 12.23C294.286 12.6 294.091 12.91 293.841 13.16C293.601 13.4 293.311 13.59 292.971 13.73C292.641 13.86 292.276 13.95 291.876 14C291.476 14.05 291.061 14.075 290.631 14.075ZM291.216 5.33L290.961 4.28C291.311 4.22 291.571 4.17 291.741 4.13C291.921 4.09 292.111 4.045 292.311 3.995L292.161 4.37C291.901 4.28 291.651 4.105 291.411 3.845C291.181 3.575 291.066 3.27 291.066 2.93C291.066 2.57 291.146 2.28 291.306 2.06C291.466 1.84 291.671 1.68 291.921 1.58C292.171 1.48 292.431 1.43 292.701 1.43C292.851 1.43 292.991 1.44 293.121 1.46C293.261 1.48 293.386 1.51 293.496 1.55L293.376 2.63C293.276 2.61 293.176 2.59 293.076 2.57C292.976 2.55 292.866 2.54 292.746 2.54C292.616 2.54 292.496 2.585 292.386 2.675C292.286 2.755 292.236 2.855 292.236 2.975C292.236 3.145 292.296 3.295 292.416 3.425C292.536 3.555 292.676 3.66 292.836 3.74C293.006 3.81 293.146 3.85 293.256 3.86L292.431 3.95C292.701 3.88 292.956 3.81 293.196 3.74C293.436 3.66 293.661 3.58 293.871 3.5L294.171 4.505C293.921 4.595 293.626 4.695 293.286 4.805C292.956 4.905 292.611 5 292.251 5.09C291.901 5.18 291.556 5.26 291.216 5.33ZM300.147 14.075C299.217 14.075 298.497 13.98 297.987 13.79C297.487 13.6 297.137 13.305 296.937 12.905C296.737 12.495 296.622 11.98 296.592 11.36L296.277 3.02H298.377L298.692 10.355C298.712 10.815 298.762 11.16 298.842 11.39C298.922 11.62 299.072 11.775 299.292 11.855C299.522 11.935 299.857 11.975 300.297 11.975C300.677 11.975 300.947 12.075 301.107 12.275C301.277 12.465 301.362 12.705 301.362 12.995C301.362 13.305 301.257 13.565 301.047 13.775C300.837 13.975 300.537 14.075 300.147 14.075ZM300.167 14.075L300.317 11.975C300.757 11.975 301.102 11.945 301.352 11.885C301.612 11.825 301.797 11.715 301.907 11.555C302.017 11.385 302.072 11.145 302.072 10.835C302.072 10.555 302.032 10.22 301.952 9.83C301.882 9.44 301.787 9.035 301.667 8.615C301.547 8.195 301.427 7.81 301.307 7.46L303.377 6.89C303.497 7.23 303.617 7.625 303.737 8.075C303.857 8.525 303.957 8.99 304.037 9.47C304.127 9.94 304.172 10.395 304.172 10.835C304.172 11.385 304.102 11.85 303.962 12.23C303.822 12.6 303.627 12.91 303.377 13.16C303.137 13.4 302.847 13.59 302.507 13.73C302.177 13.86 301.812 13.95 301.412 14C301.012 14.05 300.597 14.075 300.167 14.075ZM302.012 17.525C301.722 17.525 301.472 17.425 301.262 17.225C301.062 17.025 300.962 16.78 300.962 16.49C300.962 16.2 301.062 15.945 301.262 15.725C301.472 15.515 301.722 15.41 302.012 15.41C302.302 15.41 302.547 15.515 302.747 15.725C302.957 15.945 303.062 16.2 303.062 16.49C303.062 16.78 302.957 17.025 302.747 17.225C302.547 17.425 302.302 17.525 302.012 17.525ZM306.098 14L305.813 4.07H307.913L308.198 14H306.098ZM307.808 2.615C307.508 2.615 307.238 2.565 306.998 2.465C306.758 2.355 306.538 2.25 306.338 2.15C306.138 2.05 305.953 2 305.783 2C305.603 2 305.438 2.045 305.288 2.135C305.148 2.225 304.998 2.35 304.838 2.51L304.133 1.85C304.403 1.51 304.673 1.255 304.943 1.085C305.223 0.914999 305.503 0.83 305.783 0.83C306.033 0.83 306.263 0.88 306.473 0.98C306.683 1.08 306.893 1.18 307.103 1.28C307.323 1.38 307.558 1.43 307.808 1.43C307.968 1.43 308.118 1.405 308.258 1.355C308.398 1.295 308.568 1.205 308.768 1.085L309.293 1.91C308.933 2.22 308.633 2.415 308.393 2.495C308.163 2.575 307.968 2.615 307.808 2.615Z" fill="black"/>
</svg>
