<svg width="24" height="11" viewBox="0 0 24 11" fill="none" xmlns="http://www.w3.org/2000/svg">
<path d="M5.71284 8.06C5.25684 8.06 4.88884 7.992 4.60884 7.856C4.33684 7.72 4.11284 7.532 3.93684 7.292C3.76884 7.044 3.62084 6.752 3.49284 6.416C3.36484 6.08 3.22884 5.716 3.08484 5.324C3.05284 5.22 2.97684 5.148 2.85684 5.108C2.73684 5.068 2.60884 5.048 2.47284 5.048C2.26484 5.048 2.05684 5.092 1.84884 5.18C1.64884 5.268 1.48084 5.4 1.34484 5.576C1.21684 5.752 1.15284 5.968 1.15284 6.224C1.15284 6.448 1.18484 6.664 1.24884 6.872C1.32084 7.072 1.40084 7.3 1.48884 7.556L0.624844 7.796C0.560844 7.612 0.492844 7.436 0.420844 7.268C0.356844 7.1 0.304844 6.924 0.264844 6.74C0.224844 6.556 0.204844 6.352 0.204844 6.128C0.204844 5.8 0.276844 5.508 0.420844 5.252C0.564844 4.996 0.756844 4.78 0.996844 4.604C1.23684 4.428 1.50084 4.296 1.78884 4.208C2.07684 4.112 2.36084 4.064 2.64084 4.064C2.77684 4.064 2.92084 4.076 3.07284 4.1C3.23284 4.124 3.37684 4.184 3.50484 4.28C3.64084 4.368 3.74084 4.512 3.80484 4.712C3.93284 5.072 4.04484 5.4 4.14084 5.696C4.24484 5.984 4.36084 6.232 4.48884 6.44C4.61684 6.648 4.78484 6.808 4.99284 6.92C5.20884 7.024 5.48884 7.076 5.83284 7.076C6.00084 7.076 6.12084 7.124 6.19284 7.22C6.27284 7.308 6.31284 7.416 6.31284 7.544C6.31284 7.672 6.25684 7.792 6.14484 7.904C6.03284 8.008 5.88884 8.06 5.71284 8.06ZM5.70703 8.06L5.82703 7.076C6.22703 7.076 6.53903 7.048 6.76303 6.992C6.98703 6.928 7.15503 6.812 7.26703 6.644C7.38703 6.468 7.48303 6.216 7.55503 5.888C7.62703 5.56 7.71503 5.132 7.81903 4.604L8.75503 4.784C8.72303 4.928 8.68703 5.088 8.64703 5.264C8.60703 5.44 8.57103 5.616 8.53903 5.792C8.51503 5.96 8.50303 6.108 8.50303 6.236C8.50303 6.356 8.51103 6.468 8.52703 6.572C8.54303 6.676 8.60303 6.764 8.70703 6.836C8.81103 6.908 8.98703 6.968 9.23503 7.016C9.48303 7.056 9.83903 7.076 10.303 7.076C10.471 7.076 10.591 7.124 10.663 7.22C10.743 7.308 10.783 7.416 10.783 7.544C10.783 7.672 10.727 7.792 10.615 7.904C10.503 8.008 10.359 8.06 10.183 8.06C9.69503 8.06 9.30703 8.036 9.01903 7.988C8.73103 7.932 8.51103 7.852 8.35903 7.748C8.21503 7.644 8.11103 7.516 8.04703 7.364C7.99103 7.204 7.94703 7.02 7.91503 6.812L8.27503 6.836C8.14703 7.092 8.00703 7.3 7.85503 7.46C7.71103 7.62 7.54303 7.744 7.35103 7.832C7.15903 7.92 6.92703 7.98 6.65503 8.012C6.39103 8.044 6.07503 8.06 5.70703 8.06ZM8.91103 3.368C8.74303 3.368 8.59903 3.312 8.47903 3.2C8.36703 3.08 8.31103 2.94 8.31103 2.78C8.31103 2.62 8.36703 2.48 8.47903 2.36C8.59903 2.24 8.74303 2.18 8.91103 2.18C9.07103 2.18 9.20703 2.24 9.31903 2.36C9.43903 2.48 9.49903 2.62 9.49903 2.78C9.49903 2.94 9.43903 3.08 9.31903 3.2C9.20703 3.312 9.07103 3.368 8.91103 3.368ZM7.26703 3.368C7.09903 3.368 6.95503 3.312 6.83503 3.2C6.72303 3.08 6.66703 2.94 6.66703 2.78C6.66703 2.62 6.72303 2.48 6.83503 2.36C6.95503 2.24 7.09903 2.18 7.26703 2.18C7.42703 2.18 7.56303 2.24 7.67503 2.36C7.79503 2.48 7.85503 2.62 7.85503 2.78C7.85503 2.94 7.79503 3.08 7.67503 3.2C7.56303 3.312 7.42703 3.368 7.26703 3.368ZM10.1836 8.06L10.3036 7.076C10.5596 7.076 10.7676 7.06 10.9276 7.028C11.0876 6.988 11.2196 6.896 11.3236 6.752C11.4356 6.6 11.5396 6.364 11.6356 6.044C11.7316 5.724 11.8436 5.276 11.9716 4.7L12.8716 4.952C12.8396 5.088 12.8036 5.244 12.7636 5.42C12.7236 5.588 12.6876 5.764 12.6556 5.948C12.6236 6.124 12.6076 6.288 12.6076 6.44C12.6076 6.64 12.6836 6.796 12.8356 6.908C12.9876 7.02 13.2636 7.076 13.6636 7.076C13.9036 7.076 14.0996 7.056 14.2516 7.016C14.4036 6.976 14.5276 6.88 14.6236 6.728C14.7276 6.576 14.8196 6.332 14.8996 5.996C14.9796 5.66 15.0636 5.2 15.1516 4.616L16.0636 4.784C16.0396 4.928 16.0116 5.104 15.9796 5.312C15.9476 5.52 15.9156 5.728 15.8836 5.936C15.8596 6.136 15.8476 6.304 15.8476 6.44C15.8476 6.552 15.8716 6.66 15.9196 6.764C15.9756 6.86 16.0796 6.936 16.2316 6.992C16.3916 7.048 16.6276 7.076 16.9396 7.076C17.1716 7.076 17.3716 7.048 17.5396 6.992C17.7156 6.936 17.8476 6.832 17.9356 6.68C18.0316 6.528 18.0796 6.316 18.0796 6.044C18.0796 5.74 18.0076 5.36 17.8636 4.904C17.7276 4.44 17.5716 3.98 17.3956 3.524L18.3676 3.164C18.4716 3.42 18.5676 3.712 18.6556 4.04C18.7516 4.368 18.8316 4.692 18.8956 5.012C18.9596 5.332 18.9916 5.612 18.9916 5.852C18.9916 6.22 18.9436 6.544 18.8476 6.824C18.7516 7.104 18.6156 7.336 18.4396 7.52C18.2636 7.696 18.0476 7.832 17.7916 7.928C17.5356 8.016 17.2476 8.06 16.9276 8.06C16.5516 8.06 16.2436 8.016 16.0036 7.928C15.7636 7.84 15.5796 7.708 15.4516 7.532C15.3236 7.348 15.2396 7.116 15.1996 6.836H15.6076C15.4556 7.18 15.2956 7.44 15.1276 7.616C14.9596 7.792 14.7516 7.912 14.5036 7.976C14.2556 8.032 13.9276 8.06 13.5196 8.06C13.3196 8.06 13.1036 8.028 12.8716 7.964C12.6476 7.9 12.4516 7.776 12.2836 7.592C12.1156 7.4 12.0156 7.116 11.9836 6.74L12.3436 6.668C12.2076 7.076 12.0396 7.38 11.8396 7.58C11.6476 7.772 11.4156 7.9 11.1436 7.964C10.8716 8.028 10.5516 8.06 10.1836 8.06ZM15.3556 1.46C15.1876 1.46 15.0436 1.404 14.9236 1.292C14.8116 1.172 14.7556 1.032 14.7556 0.872C14.7556 0.712 14.8116 0.572 14.9236 0.452C15.0436 0.332 15.1876 0.271999 15.3556 0.271999C15.5156 0.271999 15.6516 0.332 15.7636 0.452C15.8836 0.572 15.9436 0.712 15.9436 0.872C15.9436 1.032 15.8836 1.172 15.7636 1.292C15.6516 1.404 15.5156 1.46 15.3556 1.46ZM14.5396 2.78C14.3716 2.78 14.2276 2.724 14.1076 2.612C13.9956 2.492 13.9396 2.352 13.9396 2.192C13.9396 2.032 13.9956 1.892 14.1076 1.772C14.2276 1.652 14.3716 1.592 14.5396 1.592C14.6996 1.592 14.8356 1.652 14.9476 1.772C15.0676 1.892 15.1276 2.032 15.1276 2.192C15.1276 2.352 15.0676 2.492 14.9476 2.612C14.8356 2.724 14.6996 2.78 14.5396 2.78ZM16.1716 2.78C16.0036 2.78 15.8596 2.724 15.7396 2.612C15.6276 2.492 15.5716 2.352 15.5716 2.192C15.5716 2.032 15.6276 1.892 15.7396 1.772C15.8596 1.652 16.0036 1.592 16.1716 1.592C16.3316 1.592 16.4676 1.652 16.5796 1.772C16.6996 1.892 16.7596 2.032 16.7596 2.192C16.7596 2.352 16.6996 2.492 16.5796 2.612C16.4676 2.724 16.3316 2.78 16.1716 2.78ZM19.6418 10.76L19.2937 9.848C20.1018 9.592 20.7218 9.284 21.1538 8.924C21.5938 8.572 21.8938 8.204 22.0538 7.82C22.2218 7.436 22.3058 7.068 22.3058 6.716C22.3058 6.492 22.2818 6.276 22.2338 6.068C22.1858 5.86 22.1018 5.624 21.9818 5.36C21.8618 5.096 21.6938 4.768 21.4778 4.376L22.3538 3.932C22.6578 4.452 22.8738 4.944 23.0018 5.408C23.1378 5.872 23.2058 6.28 23.2058 6.632C23.2058 7.136 23.1218 7.592 22.9538 8C22.7938 8.408 22.5778 8.768 22.3058 9.08C22.0418 9.4 21.7498 9.672 21.4298 9.896C21.1178 10.12 20.8018 10.304 20.4818 10.448C20.1698 10.592 19.8898 10.696 19.6418 10.76Z" fill="black"/>
</svg>
