<svg width="117" height="17" viewBox="0 0 117 17" fill="none" xmlns="http://www.w3.org/2000/svg">
<path d="M6.74414 13.315L7.13414 11.215C8.10414 11.215 8.94914 11.19 9.66914 11.14C10.3891 11.08 10.9841 10.995 11.4541 10.885C11.9341 10.765 12.2891 10.61 12.5191 10.42C12.7591 10.23 12.8791 10 12.8791 9.73C12.8791 9.37 12.8191 8.94 12.6991 8.44C12.5791 7.93 12.4241 7.415 12.2341 6.895L14.1991 6.325C14.3291 6.665 14.4541 7.04 14.5741 7.45C14.6941 7.85 14.7891 8.255 14.8591 8.665C14.9391 9.065 14.9791 9.44 14.9791 9.79C14.9791 10.41 14.8441 10.945 14.5741 11.395C14.3041 11.835 13.8541 12.2 13.2241 12.49C12.6041 12.77 11.7641 12.975 10.7041 13.105C9.64414 13.245 8.32414 13.315 6.74414 13.315ZM6.72914 13.315C5.64914 13.315 4.73414 13.23 3.98414 13.06C3.24414 12.9 2.63914 12.67 2.16914 12.37C1.70914 12.06 1.37414 11.7 1.16414 11.29C0.954141 10.88 0.849141 10.43 0.849141 9.94C0.849141 9.62 0.874141 9.3 0.924141 8.98C0.984141 8.65 1.05414 8.33 1.13414 8.02C1.22414 7.71 1.30414 7.43 1.37414 7.18L3.24914 7.615C3.20914 7.795 3.16414 7.99 3.11414 8.2C3.06414 8.41 3.02414 8.615 2.99414 8.815C2.96414 9.005 2.94914 9.18 2.94914 9.34C2.94914 9.71 3.07914 10.04 3.33914 10.33C3.60914 10.61 4.04914 10.83 4.65914 10.99C5.26914 11.14 6.08914 11.215 7.11914 11.215L7.41914 12.835L6.72914 13.315ZM9.20414 6.46C8.91414 6.46 8.66414 6.36 8.45414 6.16C8.25414 5.95 8.15414 5.705 8.15414 5.425C8.15414 5.135 8.25414 4.885 8.45414 4.675C8.66414 4.465 8.91414 4.36 9.20414 4.36C9.48414 4.36 9.72414 4.465 9.92414 4.675C10.1241 4.885 10.2241 5.135 10.2241 5.425C10.2241 5.705 10.1241 5.95 9.92414 6.16C9.72414 6.36 9.48414 6.46 9.20414 6.46ZM6.60914 6.445C6.31914 6.445 6.06914 6.345 5.85914 6.145C5.65914 5.935 5.55914 5.69 5.55914 5.41C5.55914 5.12 5.65914 4.87 5.85914 4.66C6.06914 4.45 6.31914 4.345 6.60914 4.345C6.88914 4.345 7.12914 4.45 7.32914 4.66C7.52914 4.87 7.62914 5.12 7.62914 5.41C7.62914 5.69 7.52914 5.935 7.32914 6.145C7.12914 6.345 6.88914 6.445 6.60914 6.445ZM20.4904 13.075C19.5604 13.075 18.8404 12.98 18.3304 12.79C17.8304 12.6 17.4804 12.305 17.2804 11.905C17.0804 11.495 16.9654 10.98 16.9354 10.36L16.6204 2.02H18.7204L19.0354 9.355C19.0554 9.815 19.1054 10.16 19.1854 10.39C19.2654 10.62 19.4154 10.775 19.6354 10.855C19.8654 10.935 20.2004 10.975 20.6404 10.975C21.0204 10.975 21.2904 11.075 21.4504 11.275C21.6204 11.465 21.7054 11.705 21.7054 11.995C21.7054 12.305 21.6004 12.565 21.3904 12.775C21.1804 12.975 20.8804 13.075 20.4904 13.075ZM20.5107 13.075L20.6607 10.975C20.8907 10.975 21.0857 10.92 21.2457 10.81C21.4157 10.69 21.5907 10.495 21.7707 10.225C21.9507 9.945 22.1607 9.57 22.4007 9.1C22.7007 8.5 23.0107 8.03 23.3307 7.69C23.6607 7.35 23.9957 7.11 24.3357 6.97C24.6857 6.82 25.0357 6.745 25.3857 6.745C25.8257 6.745 26.2357 6.84 26.6157 7.03C26.9957 7.22 27.3257 7.48 27.6057 7.81C27.8857 8.13 28.1007 8.5 28.2507 8.92C28.4107 9.33 28.4907 9.755 28.4907 10.195C28.4907 10.725 28.3757 11.205 28.1457 11.635C27.9257 12.055 27.6157 12.39 27.2157 12.64C26.8257 12.88 26.3757 13 25.8657 13C25.4357 13 24.9357 12.925 24.3657 12.775C23.7957 12.625 23.1957 12.31 22.5657 11.83L23.3307 10.015C23.7807 10.325 24.2007 10.55 24.5907 10.69C24.9907 10.83 25.3207 10.9 25.5807 10.9C25.7807 10.9 25.9457 10.88 26.0757 10.84C26.2057 10.8 26.3007 10.735 26.3607 10.645C26.4207 10.555 26.4507 10.435 26.4507 10.285C26.4507 10.075 26.4007 9.86 26.3007 9.64C26.2007 9.42 26.0657 9.235 25.8957 9.085C25.7357 8.925 25.5457 8.845 25.3257 8.845C25.1157 8.845 24.9357 8.925 24.7857 9.085C24.6457 9.235 24.5057 9.455 24.3657 9.745C24.2357 10.025 24.0757 10.355 23.8857 10.735C23.6557 11.195 23.4307 11.58 23.2107 11.89C22.9907 12.19 22.7557 12.43 22.5057 12.61C22.2657 12.78 21.9807 12.9 21.6507 12.97C21.3307 13.04 20.9507 13.075 20.5107 13.075ZM30.0962 16.45L29.6612 14.35C30.3712 14.26 30.9912 14.15 31.5212 14.02C32.0512 13.9 32.4962 13.73 32.8562 13.51C33.2162 13.29 33.4862 12.99 33.6662 12.61C33.8462 12.22 33.9362 11.72 33.9362 11.11C33.9362 10.52 33.8462 10.05 33.6662 9.7C33.4862 9.35 33.2462 9.175 32.9462 9.175C32.7362 9.175 32.5612 9.25 32.4212 9.4C32.2812 9.54 32.1762 9.71 32.1062 9.91C32.0462 10.1 32.0162 10.27 32.0162 10.42C32.0162 10.51 32.0412 10.605 32.0912 10.705C32.1412 10.805 32.2512 10.89 32.4212 10.96C32.5912 11.03 32.8562 11.07 33.2162 11.08C33.5862 11.09 34.0862 11.055 34.7162 10.975H37.2362C37.6162 10.975 37.8862 11.075 38.0462 11.275C38.2162 11.465 38.3012 11.705 38.3012 11.995C38.3012 12.305 38.1962 12.565 37.9862 12.775C37.7762 12.975 37.4762 13.075 37.0862 13.075H32.9612C32.3312 13.075 31.7912 13 31.3412 12.85C30.8912 12.7 30.5462 12.46 30.3062 12.13C30.0662 11.79 29.9462 11.34 29.9462 10.78C29.9462 10.33 30.0212 9.88 30.1712 9.43C30.3312 8.98 30.5512 8.57 30.8312 8.2C31.1112 7.82 31.4362 7.52 31.8062 7.3C32.1862 7.07 32.5962 6.955 33.0362 6.955C33.6362 6.955 34.1612 7.14 34.6112 7.51C35.0612 7.88 35.4112 8.37 35.6612 8.98C35.9212 9.59 36.0512 10.255 36.0512 10.975C36.0512 12.105 35.8112 13.065 35.3312 13.855C34.8512 14.645 34.1662 15.255 33.2762 15.685C32.3862 16.125 31.3262 16.38 30.0962 16.45ZM37.1074 13.075L37.2574 10.975C37.7274 10.975 38.0574 10.93 38.2474 10.84C38.4474 10.74 38.5674 10.56 38.6074 10.3C38.6474 10.03 38.6574 9.64 38.6374 9.13L38.3974 2.02H40.5274L40.7824 9.115C40.8024 9.615 40.8624 10 40.9624 10.27C41.0624 10.54 41.2274 10.725 41.4574 10.825C41.6974 10.925 42.0174 10.975 42.4174 10.975C42.7974 10.975 43.0674 11.075 43.2274 11.275C43.3874 11.465 43.4674 11.705 43.4674 11.995C43.4674 12.305 43.3624 12.565 43.1524 12.775C42.9424 12.975 42.6474 13.075 42.2674 13.075C41.8274 13.075 41.4174 13.025 41.0374 12.925C40.6574 12.825 40.3424 12.635 40.0924 12.355C39.8424 12.075 39.6774 11.67 39.5974 11.14L40.2574 11.155C40.0874 11.675 39.8674 12.075 39.5974 12.355C39.3274 12.625 38.9874 12.815 38.5774 12.925C38.1774 13.025 37.6874 13.075 37.1074 13.075ZM42.2037 13.075L42.3537 10.975C43.0537 10.975 43.6837 10.93 44.2437 10.84C44.8037 10.74 45.2937 10.61 45.7137 10.45C46.1437 10.29 46.4987 10.105 46.7787 9.895C47.0687 9.685 47.2837 9.465 47.4237 9.235C47.5737 8.995 47.6487 8.76 47.6487 8.53C47.6487 8.4 47.6137 8.28 47.5437 8.17C47.4837 8.05 47.3787 7.955 47.2287 7.885C47.0787 7.805 46.8737 7.765 46.6137 7.765C46.4837 7.765 46.3287 7.78 46.1487 7.81C45.9687 7.84 45.7887 7.885 45.6087 7.945C45.4287 7.995 45.2587 8.065 45.0987 8.155C45.3087 8.315 45.5387 8.52 45.7887 8.77C46.0387 9.01 46.2887 9.265 46.5387 9.535C46.7887 9.795 47.0037 10.05 47.1837 10.3C47.3937 10.39 47.6237 10.48 47.8737 10.57C48.1337 10.65 48.4137 10.72 48.7137 10.78C49.0137 10.84 49.3287 10.89 49.6587 10.93C49.9887 10.96 50.3287 10.975 50.6787 10.975C51.0587 10.975 51.3287 11.075 51.4887 11.275C51.6587 11.465 51.7437 11.705 51.7437 11.995C51.7437 12.305 51.6387 12.565 51.4287 12.775C51.2187 12.975 50.9187 13.075 50.5287 13.075C49.7287 13.075 49.0187 13.015 48.3987 12.895C47.7787 12.765 47.2237 12.58 46.7337 12.34C46.2537 12.09 45.8037 11.79 45.3837 11.44C45.2637 11.23 45.0937 11.005 44.8737 10.765C44.6637 10.515 44.4387 10.275 44.1987 10.045C43.9687 9.815 43.7587 9.625 43.5687 9.475C43.5187 9.435 43.4587 9.33 43.3887 9.16C43.3287 8.98 43.2737 8.795 43.2237 8.605C43.1737 8.405 43.1487 8.265 43.1487 8.185C43.1487 7.955 43.2537 7.71 43.4637 7.45C43.6837 7.19 43.9737 6.95 44.3337 6.73C44.7037 6.5 45.1087 6.315 45.5487 6.175C45.9987 6.025 46.4537 5.95 46.9137 5.95C47.5337 5.95 48.0487 6.045 48.4587 6.235C48.8787 6.415 49.1937 6.67 49.4037 7C49.6137 7.32 49.7187 7.695 49.7187 8.125C49.7187 8.605 49.6137 9.085 49.4037 9.565C49.1937 10.035 48.8837 10.48 48.4737 10.9C48.0737 11.32 47.5687 11.695 46.9587 12.025C46.3587 12.345 45.6587 12.6 44.8587 12.79C44.0687 12.98 43.1837 13.075 42.2037 13.075ZM50.54 13.075L50.69 10.975C50.92 10.975 51.115 10.92 51.275 10.81C51.445 10.69 51.62 10.495 51.8 10.225C51.98 9.945 52.19 9.57 52.43 9.1C52.73 8.5 53.04 8.03 53.36 7.69C53.69 7.35 54.025 7.11 54.365 6.97C54.715 6.82 55.065 6.745 55.415 6.745C55.855 6.745 56.265 6.84 56.645 7.03C57.025 7.22 57.355 7.48 57.635 7.81C57.915 8.13 58.13 8.5 58.28 8.92C58.44 9.33 58.52 9.755 58.52 10.195C58.52 10.725 58.405 11.205 58.175 11.635C57.955 12.055 57.645 12.39 57.245 12.64C56.855 12.88 56.405 13 55.895 13C55.465 13 54.965 12.925 54.395 12.775C53.825 12.625 53.225 12.31 52.595 11.83L53.36 10.015C53.81 10.325 54.23 10.55 54.62 10.69C55.02 10.83 55.35 10.9 55.61 10.9C55.81 10.9 55.975 10.88 56.105 10.84C56.235 10.8 56.33 10.735 56.39 10.645C56.45 10.555 56.48 10.435 56.48 10.285C56.48 10.075 56.43 9.86 56.33 9.64C56.23 9.42 56.095 9.235 55.925 9.085C55.765 8.925 55.575 8.845 55.355 8.845C55.145 8.845 54.965 8.925 54.815 9.085C54.675 9.235 54.535 9.455 54.395 9.745C54.265 10.025 54.105 10.355 53.915 10.735C53.685 11.195 53.46 11.58 53.24 11.89C53.02 12.19 52.785 12.43 52.535 12.61C52.295 12.78 52.01 12.9 51.68 12.97C51.36 13.04 50.98 13.075 50.54 13.075ZM63.4105 12.58C63.4105 12.35 63.4305 12.08 63.4705 11.77C63.5105 11.46 63.5855 11.11 63.6955 10.72C63.8055 10.32 63.9705 9.875 64.1905 9.385L66.0355 10.03C65.9255 10.34 65.8305 10.625 65.7505 10.885C65.6705 11.135 65.6105 11.37 65.5705 11.59C65.5305 11.8 65.5105 12.01 65.5105 12.22C65.5105 12.55 65.5805 12.845 65.7205 13.105C65.8705 13.375 66.0855 13.6 66.3655 13.78C66.6455 13.97 66.9855 14.115 67.3855 14.215C67.7955 14.315 68.2655 14.365 68.7955 14.365C69.3455 14.365 69.8355 14.34 70.2655 14.29C70.7055 14.24 71.0755 14.165 71.3755 14.065C71.6855 13.965 71.9205 13.835 72.0805 13.675C72.2405 13.525 72.3205 13.35 72.3205 13.15C72.3205 13.06 72.2855 12.975 72.2155 12.895C72.1555 12.815 72.0505 12.73 71.9005 12.64C71.7605 12.55 71.5705 12.455 71.3305 12.355C71.1005 12.255 70.8205 12.145 70.4905 12.025L70.9855 9.91C71.4155 10.09 71.8205 10.25 72.2005 10.39C72.5905 10.52 72.9605 10.63 73.3105 10.72C73.6605 10.8 73.9905 10.865 74.3005 10.915C74.6105 10.955 74.9005 10.975 75.1705 10.975C75.5505 10.975 75.8205 11.075 75.9805 11.275C76.1405 11.465 76.2205 11.705 76.2205 11.995C76.2205 12.305 76.1155 12.565 75.9055 12.775C75.6955 12.975 75.4005 13.075 75.0205 13.075C74.9405 13.075 74.8605 13.075 74.7805 13.075C74.7105 13.075 74.6355 13.075 74.5555 13.075C74.4855 13.075 74.4105 13.075 74.3305 13.075C74.3505 13.175 74.3605 13.26 74.3605 13.33C74.3605 13.41 74.3605 13.485 74.3605 13.555C74.3605 13.885 74.2455 14.22 74.0155 14.56C73.7955 14.9 73.4505 15.215 72.9805 15.505C72.5105 15.795 71.9105 16.025 71.1805 16.195C70.4605 16.375 69.6005 16.465 68.6005 16.465C67.5205 16.465 66.5905 16.325 65.8105 16.045C65.0405 15.775 64.4455 15.35 64.0255 14.77C63.6155 14.2 63.4105 13.47 63.4105 12.58ZM75.0176 13.075L75.1676 10.975H77.3126C77.5226 10.975 77.7076 10.965 77.8676 10.945C78.0276 10.915 78.1576 10.87 78.2576 10.81C78.3676 10.75 78.4476 10.675 78.4976 10.585C78.5476 10.495 78.5726 10.39 78.5726 10.27C78.5726 10.15 78.5076 9.96 78.3776 9.7C78.2576 9.43 77.9926 9.105 77.5826 8.725C77.3626 8.525 77.1226 8.315 76.8626 8.095C76.6126 7.865 76.3726 7.65 76.1426 7.45C75.9126 7.24 75.7226 7.055 75.5726 6.895C75.4226 6.735 75.3476 6.62 75.3476 6.55C75.3476 6.4 75.3576 6.235 75.3776 6.055C75.3976 5.875 75.4276 5.71 75.4676 5.56C75.5176 5.41 75.5826 5.3 75.6626 5.23C75.8326 5.07 76.0826 4.885 76.4126 4.675C76.7526 4.455 77.1576 4.22 77.6276 3.97C78.0976 3.71 78.6226 3.44 79.2026 3.16C79.7926 2.87 80.4226 2.58 81.0926 2.29L81.9476 4.12C81.3976 4.36 80.8776 4.595 80.3876 4.825C79.8976 5.045 79.4376 5.265 79.0076 5.485C78.5876 5.695 78.1976 5.905 77.8376 6.115C77.4876 6.315 77.1776 6.515 76.9076 6.715L77.1026 5.605C77.9526 6.255 78.6276 6.84 79.1276 7.36C79.6376 7.88 80.0176 8.345 80.2676 8.755C80.5176 9.155 80.6826 9.515 80.7626 9.835C80.8426 10.145 80.8826 10.42 80.8826 10.66C80.8826 10.9 80.8226 11.16 80.7026 11.44C80.5926 11.71 80.3876 11.97 80.0876 12.22C79.7976 12.47 79.3876 12.675 78.8576 12.835C78.3276 12.995 77.6476 13.075 76.8176 13.075H75.0176ZM91.9541 13.315L92.3441 11.215C93.0641 11.215 93.7541 11.18 94.4141 11.11C95.0841 11.04 95.7191 10.9 96.3191 10.69C96.9291 10.48 97.4991 10.17 98.0291 9.76C98.5591 9.35 99.0391 8.8 99.4691 8.11L101.149 8.875C101.089 9.065 101.039 9.25 100.999 9.43C100.959 9.6 100.939 9.74 100.939 9.85C100.939 10.08 100.994 10.28 101.104 10.45C101.224 10.62 101.424 10.75 101.704 10.84C101.984 10.93 102.369 10.975 102.859 10.975C103.239 10.975 103.509 11.075 103.669 11.275C103.829 11.465 103.909 11.705 103.909 11.995C103.909 12.305 103.804 12.565 103.594 12.775C103.394 12.975 103.099 13.075 102.709 13.075C102.019 13.075 101.419 12.98 100.909 12.79C100.409 12.6 100.014 12.335 99.7241 11.995C99.4441 11.645 99.2791 11.245 99.2291 10.795L99.8291 10.855C99.4691 11.285 99.0191 11.655 98.4791 11.965C97.9491 12.275 97.3441 12.53 96.6641 12.73C95.9941 12.93 95.2591 13.075 94.4591 13.165C93.6691 13.265 92.8341 13.315 91.9541 13.315ZM91.9391 13.315C90.8591 13.315 89.9441 13.23 89.1941 13.06C88.4541 12.9 87.8491 12.67 87.3791 12.37C86.9191 12.06 86.5841 11.7 86.3741 11.29C86.1641 10.88 86.0591 10.43 86.0591 9.94C86.0591 9.62 86.0841 9.3 86.1341 8.98C86.1941 8.65 86.2641 8.33 86.3441 8.02C86.4341 7.71 86.5141 7.43 86.5841 7.18L88.4591 7.615C88.4191 7.795 88.3741 7.99 88.3241 8.2C88.2741 8.41 88.2341 8.615 88.2041 8.815C88.1741 9.005 88.1591 9.18 88.1591 9.34C88.1591 9.71 88.2891 10.04 88.5491 10.33C88.8191 10.61 89.2591 10.83 89.8691 10.99C90.4791 11.14 91.2991 11.215 92.3291 11.215L92.6291 12.835L91.9391 13.315ZM93.0191 16.825C92.7291 16.825 92.4791 16.725 92.2691 16.525C92.0691 16.325 91.9691 16.08 91.9691 15.79C91.9691 15.5 92.0691 15.245 92.2691 15.025C92.4791 14.815 92.7291 14.71 93.0191 14.71C93.3091 14.71 93.5541 14.815 93.7541 15.025C93.9641 15.245 94.0691 15.5 94.0691 15.79C94.0691 16.08 93.9641 16.325 93.7541 16.525C93.5541 16.725 93.3091 16.825 93.0191 16.825ZM102.703 13.075L102.853 10.975C103.293 10.975 103.638 10.945 103.888 10.885C104.148 10.825 104.333 10.715 104.443 10.555C104.553 10.385 104.608 10.145 104.608 9.835C104.608 9.555 104.568 9.22 104.488 8.83C104.418 8.44 104.323 8.035 104.203 7.615C104.083 7.195 103.963 6.81 103.843 6.46L105.913 5.89C106.033 6.23 106.153 6.625 106.273 7.075C106.393 7.525 106.493 7.99 106.573 8.47C106.663 8.94 106.708 9.395 106.708 9.835C106.708 10.385 106.638 10.85 106.498 11.23C106.358 11.6 106.163 11.91 105.913 12.16C105.673 12.4 105.383 12.59 105.043 12.73C104.713 12.86 104.348 12.95 103.948 13C103.548 13.05 103.133 13.075 102.703 13.075ZM103.288 4.33L103.033 3.28C103.383 3.22 103.643 3.17 103.813 3.13C103.993 3.09 104.183 3.045 104.383 2.995L104.233 3.37C103.973 3.28 103.723 3.105 103.483 2.845C103.253 2.575 103.138 2.27 103.138 1.93C103.138 1.57 103.218 1.28 103.378 1.06C103.538 0.839999 103.743 0.679999 103.993 0.579999C104.243 0.479999 104.503 0.429999 104.773 0.429999C104.923 0.429999 105.063 0.439999 105.193 0.46C105.333 0.479999 105.458 0.509999 105.568 0.549999L105.448 1.63C105.348 1.61 105.248 1.59 105.148 1.57C105.048 1.55 104.938 1.54 104.818 1.54C104.688 1.54 104.568 1.585 104.458 1.675C104.358 1.755 104.308 1.855 104.308 1.975C104.308 2.145 104.368 2.295 104.488 2.425C104.608 2.555 104.748 2.66 104.908 2.74C105.078 2.81 105.218 2.85 105.328 2.86L104.503 2.95C104.773 2.88 105.028 2.81 105.268 2.74C105.508 2.66 105.733 2.58 105.943 2.5L106.243 3.505C105.993 3.595 105.698 3.695 105.358 3.805C105.028 3.905 104.683 4 104.323 4.09C103.973 4.18 103.628 4.26 103.288 4.33ZM112.219 13.075C111.289 13.075 110.569 12.98 110.059 12.79C109.559 12.6 109.209 12.305 109.009 11.905C108.809 11.495 108.694 10.98 108.664 10.36L108.349 2.02H110.449L110.764 9.355C110.784 9.815 110.834 10.16 110.914 10.39C110.994 10.62 111.144 10.775 111.364 10.855C111.594 10.935 111.929 10.975 112.369 10.975C112.749 10.975 113.019 11.075 113.179 11.275C113.349 11.465 113.434 11.705 113.434 11.995C113.434 12.305 113.329 12.565 113.119 12.775C112.909 12.975 112.609 13.075 112.219 13.075ZM112.239 13.075L112.389 10.975C112.829 10.975 113.174 10.945 113.424 10.885C113.684 10.825 113.869 10.715 113.979 10.555C114.089 10.385 114.144 10.145 114.144 9.835C114.144 9.555 114.104 9.22 114.024 8.83C113.954 8.44 113.859 8.035 113.739 7.615C113.619 7.195 113.499 6.81 113.379 6.46L115.449 5.89C115.569 6.23 115.689 6.625 115.809 7.075C115.929 7.525 116.029 7.99 116.109 8.47C116.199 8.94 116.244 9.395 116.244 9.835C116.244 10.385 116.174 10.85 116.034 11.23C115.894 11.6 115.699 11.91 115.449 12.16C115.209 12.4 114.919 12.59 114.579 12.73C114.249 12.86 113.884 12.95 113.484 13C113.084 13.05 112.669 13.075 112.239 13.075ZM114.399 4.645C114.089 4.645 113.824 4.54 113.604 4.33C113.394 4.12 113.289 3.86 113.289 3.55C113.289 3.24 113.394 2.975 113.604 2.755C113.824 2.535 114.089 2.425 114.399 2.425C114.699 2.425 114.954 2.535 115.164 2.755C115.384 2.975 115.494 3.24 115.494 3.55C115.494 3.86 115.384 4.12 115.164 4.33C114.954 4.54 114.699 4.645 114.399 4.645Z" fill="black"/>
</svg>
