<svg width="71" height="15" viewBox="0 0 71 15" fill="none" xmlns="http://www.w3.org/2000/svg">
<path d="M10.4798 11.06C10.2718 11.06 10.0078 11.04 9.68781 11C9.37581 10.952 9.05581 10.872 8.72781 10.76C8.40781 10.648 8.13581 10.492 7.91181 10.292L8.89581 9.8C9.17581 9.912 9.46381 9.988 9.75981 10.028C10.0638 10.06 10.3438 10.076 10.5998 10.076C10.7678 10.076 10.8878 10.124 10.9598 10.22C11.0398 10.308 11.0798 10.416 11.0798 10.544C11.0798 10.672 11.0238 10.792 10.9118 10.904C10.7998 11.008 10.6558 11.06 10.4798 11.06ZM4.93581 11.156C4.43181 11.156 3.96381 11.148 3.53181 11.132C3.10781 11.116 2.71981 11.096 2.36781 11.072C2.01581 11.056 1.70381 11.032 1.43181 11C1.15981 10.976 0.931813 10.952 0.747813 10.928L0.855813 9.992C1.08781 10.024 1.35181 10.052 1.64781 10.076C1.95181 10.1 2.28381 10.12 2.64381 10.136C3.01181 10.144 3.40381 10.152 3.81981 10.16C4.23581 10.168 4.67981 10.172 5.15181 10.172C5.67981 10.172 6.15181 10.14 6.56781 10.076C6.98381 10.012 7.33181 9.916 7.61181 9.788C7.89981 9.652 8.11981 9.488 8.27181 9.296C8.42381 9.104 8.49981 8.884 8.49981 8.636C8.49981 8.46 8.45581 8.288 8.36781 8.12C8.27981 7.944 8.14381 7.796 7.95981 7.676C7.77581 7.556 7.53181 7.496 7.22781 7.496C6.84381 7.496 6.45981 7.596 6.07581 7.796C5.69981 7.996 5.33981 8.248 4.99581 8.552C4.65981 8.848 4.35981 9.152 4.09581 9.464C3.83181 9.776 3.61981 10.048 3.45981 10.28L2.41581 10.244C2.67181 9.828 2.97581 9.404 3.32781 8.972C3.68781 8.532 4.07981 8.128 4.50381 7.76C4.93581 7.384 5.38781 7.084 5.85981 6.86C6.33181 6.628 6.81181 6.512 7.29981 6.512C7.73981 6.512 8.11581 6.604 8.42781 6.788C8.74781 6.964 8.99181 7.204 9.15981 7.508C9.33581 7.812 9.42381 8.156 9.42381 8.54C9.42381 9.012 9.28381 9.448 9.00381 9.848C8.73181 10.24 8.26781 10.556 7.61181 10.796C6.95581 11.036 6.06381 11.156 4.93581 11.156ZM3.06381 9.812L2.82381 2.432H3.79581L4.03581 8.972L3.06381 9.812ZM18.1245 11.06C17.7885 11.06 17.4805 11.04 17.2005 11C16.9205 10.952 16.6685 10.868 16.4445 10.748C16.2205 10.628 16.0325 10.456 15.8805 10.232C15.7285 10 15.6125 9.696 15.5325 9.32L16.2405 8.9C16.3445 9.22 16.4725 9.464 16.6245 9.632C16.7765 9.8 16.9805 9.916 17.2365 9.98C17.5005 10.044 17.8365 10.076 18.2445 10.076C18.4125 10.076 18.5325 10.124 18.6045 10.22C18.6845 10.308 18.7245 10.416 18.7245 10.544C18.7245 10.672 18.6685 10.792 18.5565 10.904C18.4445 11.008 18.3005 11.06 18.1245 11.06ZM10.4805 11.06L10.5885 10.076C11.0045 10.076 11.4125 10.044 11.8125 9.98C12.2125 9.916 12.6045 9.824 12.9885 9.704C13.3725 9.584 13.7405 9.44 14.0925 9.272C14.4525 9.096 14.7925 8.896 15.1125 8.672C14.9045 8.488 14.6645 8.328 14.3925 8.192C14.1205 8.056 13.8205 7.952 13.4925 7.88C13.1725 7.8 12.8325 7.76 12.4725 7.76C12.3445 7.76 12.2245 7.764 12.1125 7.772C12.0005 7.78 11.8885 7.796 11.7765 7.82C11.6645 7.836 11.5365 7.86 11.3925 7.892L11.2005 6.98C11.4165 6.916 11.6325 6.868 11.8485 6.836C12.0645 6.796 12.2725 6.776 12.4725 6.776C12.8885 6.776 13.2645 6.828 13.6005 6.932C13.9365 7.028 14.2405 7.148 14.5125 7.292C14.7925 7.436 15.0525 7.58 15.2925 7.724C15.5405 7.868 15.7805 7.992 16.0125 8.096C16.2445 8.192 16.4845 8.24 16.7325 8.24H16.9845L17.0685 9.104C16.7245 9.104 16.4085 9.152 16.1205 9.248C15.8325 9.344 15.5485 9.468 15.2685 9.62C14.9965 9.764 14.7085 9.92 14.4045 10.088C14.1005 10.248 13.7645 10.404 13.3965 10.556C13.0285 10.7 12.6045 10.82 12.1245 10.916C11.6525 11.012 11.1045 11.06 10.4805 11.06ZM12.3645 5.54C12.1965 5.54 12.0525 5.484 11.9325 5.372C11.8205 5.252 11.7645 5.112 11.7645 4.952C11.7645 4.792 11.8205 4.652 11.9325 4.532C12.0525 4.412 12.1965 4.352 12.3645 4.352C12.5245 4.352 12.6605 4.412 12.7725 4.532C12.8925 4.652 12.9525 4.792 12.9525 4.952C12.9525 5.112 12.8925 5.252 12.7725 5.372C12.6605 5.484 12.5245 5.54 12.3645 5.54ZM18.1211 11.06L18.2411 10.076C18.6411 10.076 18.9531 10.048 19.1771 9.992C19.4011 9.928 19.5691 9.812 19.6811 9.644C19.8011 9.468 19.8971 9.216 19.9691 8.888C20.0411 8.56 20.1291 8.132 20.2331 7.604L21.1691 7.784C21.1371 7.928 21.1011 8.088 21.0611 8.264C21.0211 8.44 20.9851 8.616 20.9531 8.792C20.9291 8.96 20.9171 9.108 20.9171 9.236C20.9171 9.356 20.9251 9.468 20.9411 9.572C20.9571 9.676 21.0171 9.764 21.1211 9.836C21.2251 9.908 21.4011 9.968 21.6491 10.016C21.8971 10.056 22.2531 10.076 22.7171 10.076C22.8851 10.076 23.0051 10.124 23.0771 10.22C23.1571 10.308 23.1971 10.416 23.1971 10.544C23.1971 10.672 23.1411 10.792 23.0291 10.904C22.9171 11.008 22.7731 11.06 22.5971 11.06C22.1091 11.06 21.7211 11.036 21.4331 10.988C21.1451 10.932 20.9251 10.852 20.7731 10.748C20.6291 10.644 20.5251 10.516 20.4611 10.364C20.4051 10.204 20.3611 10.02 20.3291 9.812L20.6891 9.836C20.5611 10.092 20.4211 10.3 20.2691 10.46C20.1251 10.62 19.9571 10.744 19.7651 10.832C19.5731 10.92 19.3411 10.98 19.0691 11.012C18.8051 11.044 18.4891 11.06 18.1211 11.06ZM21.3251 6.368C21.1571 6.368 21.0131 6.312 20.8931 6.2C20.7811 6.08 20.7251 5.94 20.7251 5.78C20.7251 5.62 20.7811 5.48 20.8931 5.36C21.0131 5.24 21.1571 5.18 21.3251 5.18C21.4851 5.18 21.6211 5.24 21.7331 5.36C21.8531 5.48 21.9131 5.62 21.9131 5.78C21.9131 5.94 21.8531 6.08 21.7331 6.2C21.6211 6.312 21.4851 6.368 21.3251 6.368ZM19.6811 6.368C19.5131 6.368 19.3691 6.312 19.2491 6.2C19.1371 6.08 19.0811 5.94 19.0811 5.78C19.0811 5.62 19.1371 5.48 19.2491 5.36C19.3691 5.24 19.5131 5.18 19.6811 5.18C19.8411 5.18 19.9771 5.24 20.0891 5.36C20.2091 5.48 20.2691 5.62 20.2691 5.78C20.2691 5.94 20.2091 6.08 20.0891 6.2C19.9771 6.312 19.8411 6.368 19.6811 6.368ZM22.5977 11.06L22.7177 10.076C22.9737 10.076 23.1817 10.06 23.3417 10.028C23.5017 9.988 23.6337 9.896 23.7377 9.752C23.8497 9.6 23.9537 9.364 24.0497 9.044C24.1457 8.724 24.2577 8.276 24.3857 7.7L25.2857 7.952C25.2537 8.088 25.2177 8.244 25.1777 8.42C25.1377 8.588 25.1017 8.764 25.0697 8.948C25.0377 9.124 25.0217 9.288 25.0217 9.44C25.0217 9.64 25.0977 9.796 25.2497 9.908C25.4017 10.02 25.6777 10.076 26.0777 10.076C26.3177 10.076 26.5137 10.056 26.6657 10.016C26.8177 9.976 26.9417 9.88 27.0377 9.728C27.1417 9.576 27.2337 9.332 27.3137 8.996C27.3937 8.66 27.4777 8.2 27.5657 7.616L28.4777 7.784C28.4537 7.928 28.4257 8.104 28.3937 8.312C28.3617 8.52 28.3297 8.728 28.2977 8.936C28.2737 9.136 28.2617 9.304 28.2617 9.44C28.2617 9.552 28.2857 9.66 28.3337 9.764C28.3897 9.86 28.4937 9.936 28.6457 9.992C28.8057 10.048 29.0417 10.076 29.3537 10.076C29.5857 10.076 29.7857 10.048 29.9537 9.992C30.1297 9.936 30.2617 9.832 30.3497 9.68C30.4457 9.528 30.4937 9.316 30.4937 9.044C30.4937 8.74 30.4217 8.36 30.2777 7.904C30.1417 7.44 29.9857 6.98 29.8097 6.524L30.7817 6.164C30.8857 6.42 30.9817 6.712 31.0697 7.04C31.1657 7.368 31.2457 7.692 31.3097 8.012C31.3737 8.332 31.4057 8.612 31.4057 8.852C31.4057 9.22 31.3577 9.544 31.2617 9.824C31.1657 10.104 31.0297 10.336 30.8537 10.52C30.6777 10.696 30.4617 10.832 30.2057 10.928C29.9497 11.016 29.6617 11.06 29.3417 11.06C28.9657 11.06 28.6577 11.016 28.4177 10.928C28.1777 10.84 27.9937 10.708 27.8657 10.532C27.7377 10.348 27.6537 10.116 27.6137 9.836H28.0217C27.8697 10.18 27.7097 10.44 27.5417 10.616C27.3737 10.792 27.1657 10.912 26.9177 10.976C26.6697 11.032 26.3417 11.06 25.9337 11.06C25.7337 11.06 25.5177 11.028 25.2857 10.964C25.0617 10.9 24.8657 10.776 24.6977 10.592C24.5297 10.4 24.4297 10.116 24.3977 9.74L24.7577 9.668C24.6217 10.076 24.4537 10.38 24.2537 10.58C24.0617 10.772 23.8297 10.9 23.5577 10.964C23.2857 11.028 22.9657 11.06 22.5977 11.06ZM32.4278 10.46L32.9078 9.632C33.0678 9.736 33.2918 9.836 33.5798 9.932C33.8678 10.028 34.2038 10.076 34.5878 10.076C34.9878 10.076 35.3038 10.036 35.5358 9.956C35.7758 9.876 35.9478 9.76 36.0518 9.608C36.1638 9.448 36.2198 9.264 36.2198 9.056C36.2198 8.896 36.1838 8.7 36.1118 8.468C36.0478 8.228 35.9038 7.908 35.6798 7.508C35.4558 7.1 35.1118 6.568 34.6478 5.912L35.4758 5.372C35.8998 5.956 36.2358 6.484 36.4838 6.956C36.7398 7.428 36.9198 7.844 37.0238 8.204C37.1358 8.556 37.1918 8.86 37.1918 9.116C37.1918 9.436 37.1118 9.748 36.9518 10.052C36.7918 10.348 36.5238 10.592 36.1478 10.784C35.7718 10.976 35.2518 11.072 34.5878 11.072C34.2998 11.072 34.0198 11.048 33.7478 11C33.4838 10.952 33.2398 10.884 33.0158 10.796C32.7918 10.7 32.5958 10.588 32.4278 10.46ZM45.9946 14.312C45.2666 14.312 44.5826 14.268 43.9426 14.18C43.3106 14.1 42.7506 13.972 42.2626 13.796C41.7826 13.628 41.4066 13.42 41.1346 13.172C40.8626 12.932 40.7266 12.656 40.7266 12.344C40.7266 12.016 40.8626 11.712 41.1346 11.432C41.4146 11.16 41.8306 10.924 42.3826 10.724C42.9426 10.524 43.6426 10.372 44.4826 10.268C45.3226 10.156 46.3066 10.1 47.4346 10.1C47.6026 10.1 47.7226 10.148 47.7946 10.244C47.8746 10.332 47.9146 10.44 47.9146 10.568C47.9146 10.696 47.8586 10.816 47.7466 10.928C47.6346 11.032 47.4906 11.084 47.3146 11.084C46.5146 11.084 45.7746 11.108 45.0946 11.156C44.4146 11.212 43.8186 11.288 43.3066 11.384C42.8026 11.48 42.4066 11.6 42.1186 11.744C41.8386 11.888 41.6986 12.056 41.6986 12.248C41.6986 12.392 41.7866 12.536 41.9626 12.68C42.1386 12.824 42.4026 12.952 42.7546 13.064C43.1066 13.184 43.5546 13.28 44.0986 13.352C44.6426 13.424 45.2786 13.46 46.0066 13.46C46.3906 13.46 46.6826 13.456 46.8826 13.448C47.0906 13.448 47.2626 13.444 47.3986 13.436C47.5346 13.428 47.6906 13.42 47.8666 13.412L47.7466 14.24C47.6506 14.248 47.5546 14.256 47.4586 14.264C47.3626 14.28 47.2506 14.288 47.1226 14.288C47.0026 14.296 46.8506 14.3 46.6666 14.3C46.4906 14.308 46.2666 14.312 45.9946 14.312ZM47.3125 11.06L47.4325 10.076H48.5605C49.0325 10.076 49.4045 10.052 49.6765 10.004C49.9565 9.948 50.1605 9.88 50.2885 9.8C50.4245 9.712 50.5125 9.62 50.5525 9.524C50.6005 9.42 50.6245 9.316 50.6245 9.212C50.6245 9.028 50.5525 8.8 50.4085 8.528C50.2725 8.256 49.9885 7.904 49.5565 7.472C49.3325 7.248 49.1085 7.044 48.8845 6.86C48.6605 6.668 48.4525 6.5 48.2605 6.356C48.0765 6.204 47.9285 6.076 47.8165 5.972C47.7045 5.868 47.6485 5.788 47.6485 5.732C47.6485 5.612 47.6565 5.496 47.6725 5.384C47.6965 5.272 47.7245 5.168 47.7565 5.072C47.7965 4.976 47.8445 4.9 47.9005 4.844C48.0605 4.676 48.2645 4.508 48.5125 4.34C48.7685 4.172 49.0645 3.996 49.4005 3.812C49.7445 3.628 50.1285 3.432 50.5525 3.224C50.9845 3.008 51.4565 2.772 51.9685 2.516L52.3765 3.404C51.7365 3.708 51.2005 3.968 50.7685 4.184C50.3445 4.392 49.9845 4.58 49.6885 4.748C49.3925 4.908 49.1325 5.06 48.9085 5.204C48.6845 5.348 48.4565 5.508 48.2245 5.684L48.4045 5.228C48.9085 5.628 49.3525 6.004 49.7365 6.356C50.1285 6.708 50.4565 7.048 50.7205 7.376C50.9845 7.696 51.1845 8.012 51.3205 8.324C51.4565 8.636 51.5245 8.952 51.5245 9.272C51.5245 9.448 51.4925 9.64 51.4285 9.848C51.3645 10.056 51.2285 10.252 51.0205 10.436C50.8125 10.62 50.5005 10.772 50.0845 10.892C49.6685 11.004 49.1085 11.06 48.4045 11.06H47.3125ZM59.9378 11.252L60.2498 10.268C61.1858 10.268 61.9898 10.244 62.6618 10.196C63.3418 10.148 63.8978 10.072 64.3298 9.968C64.7698 9.856 65.0938 9.708 65.3018 9.524C65.5178 9.332 65.6258 9.1 65.6258 8.828C65.6258 8.524 65.5698 8.172 65.4578 7.772C65.3458 7.372 65.2018 6.944 65.0258 6.488L65.9498 6.164C66.0538 6.42 66.1498 6.696 66.2378 6.992C66.3338 7.28 66.4138 7.568 66.4778 7.856C66.5418 8.136 66.5738 8.396 66.5738 8.636C66.5738 9.108 66.4658 9.512 66.2498 9.848C66.0338 10.176 65.6738 10.444 65.1698 10.652C64.6658 10.86 63.9858 11.012 63.1298 11.108C62.2818 11.204 61.2178 11.252 59.9378 11.252ZM59.9378 11.252C59.2258 11.252 58.5978 11.204 58.0538 11.108C57.5178 11.02 57.0698 10.88 56.7098 10.688C56.3498 10.496 56.0778 10.248 55.8938 9.944C55.7098 9.632 55.6178 9.256 55.6178 8.816C55.6178 8.616 55.6338 8.412 55.6658 8.204C55.6978 7.988 55.7378 7.772 55.7858 7.556C55.8418 7.34 55.8978 7.132 55.9538 6.932L56.8538 7.16C56.8218 7.28 56.7858 7.424 56.7458 7.592C56.7058 7.752 56.6698 7.916 56.6378 8.084C56.6138 8.252 56.6018 8.404 56.6018 8.54C56.6018 8.956 56.7058 9.292 56.9138 9.548C57.1298 9.796 57.5018 9.98 58.0298 10.1C58.5578 10.212 59.2978 10.268 60.2498 10.268L60.4898 10.868L59.9378 11.252ZM61.0778 14.9C60.9178 14.9 60.7778 14.84 60.6578 14.72C60.5458 14.6 60.4898 14.46 60.4898 14.3C60.4898 14.14 60.5458 14 60.6578 13.88C60.7778 13.768 60.9178 13.712 61.0778 13.712C61.2458 13.712 61.3858 13.768 61.4978 13.88C61.6178 14 61.6778 14.14 61.6778 14.3C61.6778 14.46 61.6178 14.6 61.4978 14.72C61.3858 14.84 61.2458 14.9 61.0778 14.9ZM61.8938 13.58C61.7338 13.58 61.5938 13.52 61.4738 13.4C61.3618 13.28 61.3058 13.14 61.3058 12.98C61.3058 12.82 61.3618 12.68 61.4738 12.56C61.5938 12.448 61.7338 12.392 61.8938 12.392C62.0618 12.392 62.2018 12.448 62.3138 12.56C62.4338 12.68 62.4938 12.82 62.4938 12.98C62.4938 13.14 62.4338 13.28 62.3138 13.4C62.2018 13.52 62.0618 13.58 61.8938 13.58ZM60.2618 13.58C60.1018 13.58 59.9618 13.52 59.8418 13.4C59.7298 13.28 59.6738 13.14 59.6738 12.98C59.6738 12.82 59.7298 12.68 59.8418 12.56C59.9618 12.448 60.1018 12.392 60.2618 12.392C60.4298 12.392 60.5698 12.448 60.6818 12.56C60.8018 12.68 60.8618 12.82 60.8618 12.98C60.8618 13.14 60.8018 13.28 60.6818 13.4C60.5698 13.52 60.4298 13.58 60.2618 13.58ZM68.2438 11L68.0398 3.272H69.0118L69.2158 11H68.2438ZM69.3238 2.108C69.0838 2.108 68.8678 2.068 68.6758 1.988C68.4838 1.9 68.3078 1.816 68.1478 1.736C67.9878 1.656 67.8398 1.616 67.7038 1.616C67.5598 1.616 67.4278 1.652 67.3078 1.724C67.1958 1.796 67.0758 1.896 66.9478 2.024L66.4918 1.64C66.6758 1.408 66.8678 1.228 67.0678 1.1C67.2678 0.963999 67.4798 0.895999 67.7038 0.895999C67.9038 0.895999 68.0878 0.935999 68.2558 1.016C68.4238 1.096 68.5918 1.176 68.7598 1.256C68.9358 1.336 69.1238 1.376 69.3238 1.376C69.4518 1.376 69.5718 1.356 69.6838 1.316C69.7958 1.268 69.9318 1.196 70.0918 1.1L70.4398 1.592C70.1838 1.816 69.9638 1.96 69.7798 2.024C69.6038 2.08 69.4518 2.108 69.3238 2.108Z" fill="black"/>
</svg>
