<svg width="51" height="14" viewBox="0 0 51 14" fill="none" xmlns="http://www.w3.org/2000/svg">
<path d="M1.27472 13.716C1.13872 13.188 1.01872 12.672 0.914719 12.168C0.818719 11.664 0.746719 11.2 0.698719 10.776C0.650719 10.352 0.626719 10.004 0.626719 9.732C0.626719 9.244 0.714719 8.84 0.890719 8.52C1.06672 8.192 1.30272 7.94 1.59872 7.764C1.89472 7.58 2.22272 7.456 2.58272 7.392C2.95072 7.328 3.32672 7.308 3.71072 7.332C4.10272 7.348 4.47072 7.396 4.81472 7.476C4.83872 7.204 4.82272 6.944 4.76672 6.696C4.71872 6.44 4.63472 6.216 4.51472 6.024C4.40272 5.824 4.25872 5.668 4.08272 5.556C3.90672 5.444 3.70672 5.388 3.48272 5.388C3.28272 5.388 3.09472 5.432 2.91872 5.52C2.74272 5.608 2.57472 5.744 2.41472 5.928C2.26272 6.104 2.11472 6.324 1.97072 6.588L1.22672 6.18C1.43472 5.748 1.66272 5.404 1.91072 5.148C2.16672 4.892 2.43472 4.708 2.71472 4.596C2.99472 4.476 3.27072 4.416 3.54272 4.416C3.95072 4.416 4.29472 4.504 4.57472 4.68C4.85472 4.848 5.07472 5.072 5.23472 5.352C5.40272 5.624 5.52272 5.92 5.59472 6.24C5.67472 6.552 5.71472 6.852 5.71472 7.14C5.71472 7.34 5.69072 7.54 5.64272 7.74C5.59472 7.94 5.53472 8.12 5.46272 8.28C5.39872 8.44 5.33472 8.564 5.27072 8.652C4.83872 8.524 4.43472 8.432 4.05872 8.376C3.68272 8.32 3.34272 8.304 3.03872 8.328C2.74272 8.344 2.48672 8.408 2.27072 8.52C2.05472 8.632 1.89072 8.792 1.77872 9C1.66672 9.208 1.61072 9.472 1.61072 9.792C1.61072 10.088 1.63472 10.44 1.68272 10.848C1.73072 11.256 1.79872 11.684 1.88672 12.132C1.97472 12.588 2.07872 13.036 2.19872 13.476L1.27472 13.716ZM9.69122 9.06C9.05122 9.06 8.55922 8.988 8.21522 8.844C7.87922 8.7 7.64722 8.476 7.51922 8.172C7.39122 7.868 7.31922 7.476 7.30322 6.996L7.06322 0.431999H8.04722L8.28722 6.612C8.30322 7.004 8.33922 7.308 8.39522 7.524C8.45922 7.732 8.59522 7.876 8.80322 7.956C9.01922 8.036 9.35522 8.076 9.81122 8.076C9.97922 8.076 10.0992 8.124 10.1712 8.22C10.2512 8.308 10.2912 8.416 10.2912 8.544C10.2912 8.672 10.2352 8.792 10.1232 8.904C10.0112 9.008 9.86722 9.06 9.69122 9.06ZM9.69141 9.06L9.81141 8.076C10.2034 8.076 10.5154 8.052 10.7474 8.004C10.9794 7.956 11.1474 7.86 11.2514 7.716C11.3554 7.564 11.4074 7.34 11.4074 7.044C11.4074 6.844 11.3754 6.608 11.3114 6.336C11.2474 6.056 11.1634 5.76 11.0594 5.448C10.9554 5.136 10.8434 4.828 10.7234 4.524L11.6954 4.164C11.7994 4.42 11.8954 4.712 11.9834 5.04C12.0794 5.368 12.1594 5.692 12.2234 6.012C12.2874 6.332 12.3194 6.612 12.3194 6.852C12.3194 7.172 12.2834 7.456 12.2114 7.704C12.1474 7.944 12.0474 8.152 11.9114 8.328C11.7754 8.496 11.5994 8.636 11.3834 8.748C11.1754 8.852 10.9314 8.932 10.6514 8.988C10.3714 9.036 10.0514 9.06 9.69141 9.06ZM11.2274 2.916C11.0594 2.916 10.9154 2.86 10.7954 2.748C10.6834 2.628 10.6274 2.488 10.6274 2.328C10.6274 2.168 10.6834 2.028 10.7954 1.908C10.9154 1.788 11.0594 1.728 11.2274 1.728C11.3874 1.728 11.5234 1.788 11.6354 1.908C11.7554 2.028 11.8154 2.168 11.8154 2.328C11.8154 2.488 11.7554 2.628 11.6354 2.748C11.5234 2.86 11.3874 2.916 11.2274 2.916ZM16.2741 9.012C16.2741 8.82 16.2901 8.616 16.3221 8.4C16.3621 8.176 16.4181 7.94 16.4901 7.692C16.5701 7.436 16.6661 7.168 16.7781 6.888L17.6421 7.224C17.5621 7.448 17.4901 7.66 17.4261 7.86C17.3701 8.06 17.3261 8.248 17.2941 8.424C17.2701 8.6 17.2581 8.768 17.2581 8.928C17.2581 9.264 17.3301 9.548 17.4741 9.78C17.6261 10.02 17.8341 10.216 18.0981 10.368C18.3621 10.52 18.6621 10.632 18.9981 10.704C19.3421 10.776 19.7061 10.812 20.0901 10.812C20.5541 10.812 20.9861 10.772 21.3861 10.692C21.7941 10.612 22.1501 10.496 22.4541 10.344C22.7661 10.2 23.0101 10.032 23.1861 9.84C23.3621 9.656 23.4501 9.456 23.4501 9.24C23.4501 9.136 23.4101 9.04 23.3301 8.952C23.2501 8.864 23.1301 8.78 22.9701 8.7C22.8101 8.62 22.6181 8.544 22.3941 8.472C22.1701 8.392 21.9141 8.312 21.6261 8.232L21.8541 7.236C22.2701 7.396 22.6381 7.532 22.9581 7.644C23.2781 7.748 23.5581 7.832 23.7981 7.896C24.0381 7.96 24.2461 8.008 24.4221 8.04C24.5981 8.064 24.7461 8.076 24.8661 8.076C25.0341 8.076 25.1541 8.124 25.2261 8.22C25.3061 8.308 25.3461 8.416 25.3461 8.544C25.3461 8.672 25.2901 8.792 25.1781 8.904C25.0661 9.008 24.9221 9.06 24.7461 9.06C24.6981 9.06 24.6501 9.06 24.6021 9.06C24.5541 9.06 24.5021 9.06 24.4461 9.06C24.3981 9.06 24.3501 9.06 24.3021 9.06C24.3181 9.132 24.3301 9.188 24.3381 9.228C24.3461 9.276 24.3501 9.336 24.3501 9.408C24.3501 9.704 24.2461 9.992 24.0381 10.272C23.8381 10.552 23.5421 10.804 23.1501 11.028C22.7581 11.26 22.2821 11.444 21.7221 11.58C21.1701 11.716 20.5381 11.784 19.8261 11.784C19.1941 11.784 18.6061 11.68 18.0621 11.472C17.5261 11.272 17.0941 10.968 16.7661 10.56C16.4381 10.152 16.2741 9.636 16.2741 9.012ZM24.75 9.06L24.87 8.076C25.262 8.076 25.574 8.052 25.806 8.004C26.038 7.956 26.206 7.86 26.31 7.716C26.414 7.564 26.466 7.34 26.466 7.044C26.466 6.844 26.434 6.608 26.37 6.336C26.306 6.056 26.222 5.76 26.118 5.448C26.014 5.136 25.902 4.828 25.782 4.524L26.754 4.164C26.858 4.42 26.954 4.712 27.042 5.04C27.138 5.368 27.218 5.692 27.282 6.012C27.346 6.332 27.378 6.612 27.378 6.852C27.378 7.172 27.342 7.456 27.27 7.704C27.206 7.944 27.106 8.152 26.97 8.328C26.834 8.496 26.658 8.636 26.442 8.748C26.234 8.852 25.99 8.932 25.71 8.988C25.43 9.036 25.11 9.06 24.75 9.06ZM26.286 2.916C26.118 2.916 25.974 2.86 25.854 2.748C25.742 2.628 25.686 2.488 25.686 2.328C25.686 2.168 25.742 2.028 25.854 1.908C25.974 1.788 26.118 1.728 26.286 1.728C26.446 1.728 26.582 1.788 26.694 1.908C26.814 2.028 26.874 2.168 26.874 2.328C26.874 2.488 26.814 2.628 26.694 2.748C26.582 2.86 26.446 2.916 26.286 2.916ZM29.0767 9L28.8367 0.431999H29.8087L30.0487 9H29.0767ZM33.412 8.076C33.812 8.076 34.128 8.036 34.36 7.956C34.6 7.876 34.772 7.76 34.876 7.608C34.988 7.448 35.044 7.264 35.044 7.056C35.044 6.896 35 6.704 34.912 6.48C34.832 6.256 34.72 6.008 34.576 5.736C34.432 5.456 34.264 5.164 34.072 4.86C33.888 4.548 33.688 4.232 33.472 3.912L34.3 3.372C34.612 3.844 34.884 4.292 35.116 4.716C35.348 5.132 35.544 5.524 35.704 5.892C35.864 6.252 35.992 6.592 36.088 6.912C36.2 7.264 36.324 7.524 36.46 7.692C36.604 7.86 36.752 7.968 36.904 8.016C37.056 8.056 37.196 8.076 37.324 8.076C37.492 8.076 37.616 8.124 37.696 8.22C37.776 8.308 37.816 8.416 37.816 8.544C37.816 8.672 37.76 8.792 37.648 8.904C37.536 9.008 37.392 9.06 37.216 9.06C36.952 9.06 36.692 9.012 36.436 8.916C36.188 8.812 35.972 8.648 35.788 8.424C35.604 8.192 35.476 7.884 35.404 7.5L35.884 7.116C35.884 7.436 35.816 7.748 35.68 8.052C35.544 8.348 35.296 8.592 34.936 8.784C34.584 8.976 34.076 9.072 33.412 9.072C33.124 9.072 32.844 9.048 32.572 9C32.308 8.952 32.064 8.884 31.84 8.796C31.616 8.7 31.42 8.588 31.252 8.46L31.732 7.632C31.892 7.736 32.116 7.836 32.404 7.932C32.692 8.028 33.028 8.076 33.412 8.076ZM37.2188 9.06L37.3388 8.076C37.7308 8.076 38.0428 8.052 38.2748 8.004C38.5068 7.956 38.6748 7.86 38.7788 7.716C38.8828 7.564 38.9348 7.34 38.9348 7.044C38.9348 6.844 38.9028 6.608 38.8388 6.336C38.7748 6.056 38.6908 5.76 38.5868 5.448C38.4828 5.136 38.3708 4.828 38.2508 4.524L39.2228 4.164C39.3268 4.42 39.4228 4.712 39.5108 5.04C39.6068 5.368 39.6868 5.692 39.7508 6.012C39.8148 6.332 39.8468 6.612 39.8468 6.852C39.8468 7.172 39.8108 7.456 39.7388 7.704C39.6748 7.944 39.5748 8.152 39.4388 8.328C39.3028 8.496 39.1268 8.636 38.9108 8.748C38.7028 8.852 38.4588 8.932 38.1788 8.988C37.8988 9.036 37.5788 9.06 37.2188 9.06ZM38.7548 2.916C38.5868 2.916 38.4428 2.86 38.3228 2.748C38.2108 2.628 38.1548 2.488 38.1548 2.328C38.1548 2.168 38.2108 2.028 38.3228 1.908C38.4428 1.788 38.5868 1.728 38.7548 1.728C38.9148 1.728 39.0508 1.788 39.1628 1.908C39.2828 2.028 39.3428 2.168 39.3428 2.328C39.3428 2.488 39.2828 2.628 39.1628 2.748C39.0508 2.86 38.9148 2.916 38.7548 2.916ZM43.9334 9.06C43.2934 9.06 42.8014 8.988 42.4574 8.844C42.1214 8.7 41.8894 8.476 41.7614 8.172C41.6334 7.868 41.5614 7.476 41.5454 6.996L41.3054 0.431999H42.2894L42.5294 6.612C42.5454 7.004 42.5814 7.308 42.6374 7.524C42.7014 7.732 42.8374 7.876 43.0454 7.956C43.2614 8.036 43.5974 8.076 44.0534 8.076C44.2214 8.076 44.3414 8.124 44.4134 8.22C44.4934 8.308 44.5334 8.416 44.5334 8.544C44.5334 8.672 44.4774 8.792 44.3654 8.904C44.2534 9.008 44.1094 9.06 43.9334 9.06ZM43.9336 9.06L44.0416 8.076C44.4576 8.076 44.8656 8.044 45.2656 7.98C45.6656 7.916 46.0576 7.824 46.4416 7.704C46.8256 7.584 47.1936 7.44 47.5456 7.272C47.9056 7.096 48.2456 6.896 48.5656 6.672C48.3576 6.488 48.1176 6.328 47.8456 6.192C47.5736 6.056 47.2736 5.952 46.9456 5.88C46.6256 5.8 46.2856 5.76 45.9256 5.76C45.7976 5.76 45.6776 5.764 45.5656 5.772C45.4536 5.78 45.3416 5.796 45.2296 5.82C45.1176 5.836 44.9896 5.86 44.8456 5.892L44.6536 4.98C44.8696 4.916 45.0856 4.868 45.3016 4.836C45.5176 4.796 45.7256 4.776 45.9256 4.776C46.3416 4.776 46.7176 4.828 47.0536 4.932C47.3896 5.028 47.6936 5.148 47.9656 5.292C48.2456 5.436 48.5056 5.58 48.7456 5.724C48.9936 5.868 49.2336 5.992 49.4656 6.096C49.6976 6.192 49.9376 6.24 50.1856 6.24H50.4376L50.5216 7.104C50.1776 7.104 49.8616 7.152 49.5736 7.248C49.2856 7.344 49.0016 7.468 48.7216 7.62C48.4496 7.764 48.1616 7.92 47.8576 8.088C47.5536 8.248 47.2176 8.404 46.8496 8.556C46.4816 8.7 46.0576 8.82 45.5776 8.916C45.1056 9.012 44.5576 9.06 43.9336 9.06ZM45.9376 3.54C45.7696 3.54 45.6256 3.484 45.5056 3.372C45.3936 3.252 45.3376 3.112 45.3376 2.952C45.3376 2.792 45.3936 2.652 45.5056 2.532C45.6256 2.412 45.7696 2.352 45.9376 2.352C46.0976 2.352 46.2336 2.412 46.3456 2.532C46.4656 2.652 46.5256 2.792 46.5256 2.952C46.5256 3.112 46.4656 3.252 46.3456 3.372C46.2336 3.484 46.0976 3.54 45.9376 3.54Z" fill="black"/>
</svg>
