<svg width="26" height="26" viewBox="0 0 26 26" fill="none" xmlns="http://www.w3.org/2000/svg">
<path fill-rule="evenodd" clip-rule="evenodd" d="M13 0.5C19.8925 0.5 25.5 6.1075 25.5 13C25.5 19.8925 19.8925 25.5 13 25.5C6.1075 25.5 0.5 19.8925 0.5 13C0.5 6.1075 6.1075 0.5 13 0.5ZM13 2.375C7.14125 2.375 2.375 7.14125 2.375 13C2.375 18.8587 7.14125 23.625 13 23.625C18.8587 23.625 23.625 18.8587 23.625 13C23.625 7.14125 18.8587 2.375 13 2.375ZM13.0049 16.4949C13.6961 16.4949 14.2549 17.0536 14.2549 17.7449C14.2549 18.4361 13.6961 18.9949 13.0049 18.9949C12.3136 18.9949 11.7486 18.4361 11.7486 17.7449C11.7486 17.0536 12.3024 16.4949 12.9924 16.4949H13.0049ZM12.9926 7.3175C13.5101 7.3175 13.9301 7.7375 13.9301 8.255V13.7788C13.9301 14.2963 13.5101 14.7163 12.9926 14.7163C12.4751 14.7163 12.0551 14.2963 12.0551 13.7788V8.255C12.0551 7.7375 12.4751 7.3175 12.9926 7.3175Z" fill="url(#paint0_linear_21_285)"/>
<defs>
<linearGradient id="paint0_linear_21_285" x1="13" y1="0.5" x2="13" y2="25.5" gradientUnits="userSpaceOnUse">
<stop stop-color="#7754E5"/>
<stop offset="1" stop-color="#84AAE1"/>
</linearGradient>
</defs>
</svg>
