<svg width="32" height="28" viewBox="0 0 32 28" fill="none" xmlns="http://www.w3.org/2000/svg">
<path d="M14.3125 21.3125C14.3125 21.7601 14.4903 22.1893 14.8068 22.5057C15.1233 22.8222 15.5525 23 16 23C16.4476 23 16.8768 22.8222 17.1933 22.5057C17.5097 22.1893 17.6875 21.7601 17.6875 21.3125C17.6875 20.8649 17.5097 20.4357 17.1933 20.1193C16.8768 19.8028 16.4476 19.625 16 19.625C15.5525 19.625 15.1233 19.8028 14.8068 20.1193C14.4903 20.4357 14.3125 20.8649 14.3125 21.3125V21.3125ZM14.875 10.625V17.0938C14.875 17.2484 15.0016 17.375 15.1563 17.375H16.8438C16.9985 17.375 17.125 17.2484 17.125 17.0938V10.625C17.125 10.4703 16.9985 10.3438 16.8438 10.3438H15.1563C15.0016 10.3438 14.875 10.4703 14.875 10.625ZM31.5989 26.0938L16.9739 0.78125C16.7559 0.405078 16.3797 0.21875 16 0.21875C15.6203 0.21875 15.2407 0.405078 15.0262 0.78125L0.401208 26.0938C-0.0312136 26.8461 0.510193 27.7812 1.37504 27.7812H30.625C31.4899 27.7812 32.0313 26.8461 31.5989 26.0938ZM4.05394 25.1129L16 4.43398L27.9461 25.1129H4.05394V25.1129Z" fill="#FFC107"/>
</svg>
