<svg width="19" height="19" viewBox="0 0 19 19" fill="none" xmlns="http://www.w3.org/2000/svg">
<path d="M3.875 3.25C3.70924 3.25 3.55027 3.31585 3.43306 3.43306C3.31585 3.55027 3.25 3.70924 3.25 3.875C3.25 4.04076 3.31585 4.19973 3.43306 4.31694C3.55027 4.43415 3.70924 4.5 3.875 4.5H15.125C15.2908 4.5 15.4497 4.43415 15.5669 4.31694C15.6842 4.19973 15.75 4.04076 15.75 3.875C15.75 3.70924 15.6842 3.55027 15.5669 3.43306C15.4497 3.31585 15.2908 3.25 15.125 3.25H3.875ZM5.125 10.75C5.62228 10.75 6.09919 10.5525 6.45083 10.2008C6.80246 9.84919 7 9.37228 7 8.875C7 8.37772 6.80246 7.90081 6.45083 7.54917C6.09919 7.19754 5.62228 7 5.125 7C4.62772 7 4.15081 7.19754 3.79917 7.54917C3.44754 7.90081 3.25 8.37772 3.25 8.875C3.25 9.37228 3.44754 9.84919 3.79917 10.2008C4.15081 10.5525 4.62772 10.75 5.125 10.75ZM5.125 9.5C4.95924 9.5 4.80027 9.43415 4.68306 9.31694C4.56585 9.19973 4.5 9.04076 4.5 8.875C4.5 8.70924 4.56585 8.55027 4.68306 8.43306C4.80027 8.31585 4.95924 8.25 5.125 8.25C5.29076 8.25 5.44973 8.31585 5.56694 8.43306C5.68415 8.55027 5.75 8.70924 5.75 8.875C5.75 9.04076 5.68415 9.19973 5.56694 9.31694C5.44973 9.43415 5.29076 9.5 5.125 9.5ZM7 13.875C7 14.3723 6.80246 14.8492 6.45083 15.2008C6.09919 15.5525 5.62228 15.75 5.125 15.75C4.62772 15.75 4.15081 15.5525 3.79917 15.2008C3.44754 14.8492 3.25 14.3723 3.25 13.875C3.25 13.3777 3.44754 12.9008 3.79917 12.5492C4.15081 12.1975 4.62772 12 5.125 12C5.62228 12 6.09919 12.1975 6.45083 12.5492C6.80246 12.9008 7 13.3777 7 13.875ZM5.75 13.875C5.75 13.7092 5.68415 13.5503 5.56694 13.4331C5.44973 13.3158 5.29076 13.25 5.125 13.25C4.95924 13.25 4.80027 13.3158 4.68306 13.4331C4.56585 13.5503 4.5 13.7092 4.5 13.875C4.5 14.0408 4.56585 14.1997 4.68306 14.3169C4.80027 14.4342 4.95924 14.5 5.125 14.5C5.29076 14.5 5.44973 14.4342 5.56694 14.3169C5.68415 14.1997 5.75 14.0408 5.75 13.875ZM8.25 8.875C8.25 8.70924 8.31585 8.55027 8.43306 8.43306C8.55027 8.31585 8.70924 8.25 8.875 8.25H15.125C15.2908 8.25 15.4497 8.31585 15.5669 8.43306C15.6842 8.55027 15.75 8.70924 15.75 8.875C15.75 9.04076 15.6842 9.19973 15.5669 9.31694C15.4497 9.43415 15.2908 9.5 15.125 9.5H8.875C8.70924 9.5 8.55027 9.43415 8.43306 9.31694C8.31585 9.19973 8.25 9.04076 8.25 8.875ZM8.875 13.25C8.70924 13.25 8.55027 13.3158 8.43306 13.4331C8.31585 13.5503 8.25 13.7092 8.25 13.875C8.25 14.0408 8.31585 14.1997 8.43306 14.3169C8.55027 14.4342 8.70924 14.5 8.875 14.5H15.125C15.2908 14.5 15.4497 14.4342 15.5669 14.3169C15.6842 14.1997 15.75 14.0408 15.75 13.875C15.75 13.7092 15.6842 13.5503 15.5669 13.4331C15.4497 13.3158 15.2908 13.25 15.125 13.25H8.875ZM4.5 0.75C3.50544 0.75 2.55161 1.14509 1.84835 1.84835C1.14509 2.55161 0.75 3.50544 0.75 4.5V14.5C0.75 15.4946 1.14509 16.4484 1.84835 17.1517C2.55161 17.8549 3.50544 18.25 4.5 18.25H14.5C15.4946 18.25 16.4484 17.8549 17.1517 17.1517C17.8549 16.4484 18.25 15.4946 18.25 14.5V4.5C18.25 3.50544 17.8549 2.55161 17.1517 1.84835C16.4484 1.14509 15.4946 0.75 14.5 0.75H4.5ZM2 4.5C2 3.83696 2.26339 3.20107 2.73223 2.73223C3.20107 2.26339 3.83696 2 4.5 2H14.5C15.163 2 15.7989 2.26339 16.2678 2.73223C16.7366 3.20107 17 3.83696 17 4.5V14.5C17 15.163 16.7366 15.7989 16.2678 16.2678C15.7989 16.7366 15.163 17 14.5 17H4.5C3.83696 17 3.20107 16.7366 2.73223 16.2678C2.26339 15.7989 2 15.163 2 14.5V4.5Z" fill="white"/>
</svg>
