<svg width="13" height="13" viewBox="0 0 13 13" fill="none" xmlns="http://www.w3.org/2000/svg">
<path d="M12.125 5.09375H11.1875C11.1865 4.22381 10.8405 3.38979 10.2253 2.77465C9.61021 2.15951 8.77619 1.81349 7.90625 1.8125V0.875C9.02475 0.876241 10.0971 1.32111 10.888 2.11201C11.6789 2.90291 12.1238 3.97525 12.125 5.09375V5.09375ZM11.1875 12.5938H11.1078C1.89688 12.0641 0.589064 4.29219 0.406251 1.92031C0.377679 1.54848 0.497978 1.18052 0.740687 0.897371C0.983396 0.614225 1.32864 0.439083 1.70047 0.410469C1.73766 0.407657 1.775 0.40625 1.8125 0.40625H4.28281C4.47058 0.406069 4.65407 0.462271 4.80952 0.567576C4.96497 0.672882 5.08522 0.822439 5.15469 0.996876L5.86719 2.75C5.93579 2.92041 5.95282 3.10722 5.91615 3.28723C5.87948 3.46724 5.79074 3.6325 5.66094 3.7625L4.6625 4.77031C4.81783 5.65687 5.24206 6.47421 5.87766 7.11149C6.51326 7.74877 7.32948 8.17515 8.21563 8.33281L9.23281 7.325C9.36477 7.19664 9.53159 7.10996 9.71248 7.07578C9.89337 7.04161 10.0803 7.06144 10.25 7.13281L12.0172 7.84063C12.189 7.91229 12.3356 8.03348 12.4383 8.18875C12.5409 8.34402 12.5951 8.52635 12.5938 8.7125V11.1875C12.5938 11.5605 12.4456 11.9181 12.1819 12.1819C11.9181 12.4456 11.5605 12.5937 11.1875 12.5938ZM1.8125 1.34375C1.75094 1.34357 1.68995 1.35551 1.63301 1.37889C1.57607 1.40228 1.52429 1.43665 1.48063 1.48005C1.43697 1.52345 1.40229 1.57502 1.37856 1.63182C1.35484 1.68862 1.34253 1.74954 1.34235 1.81109C1.34235 1.82422 1.34281 1.83719 1.34375 1.85C1.55938 4.625 2.94219 11.1875 11.1594 11.6562C11.2834 11.6637 11.4054 11.6215 11.4984 11.5391C11.5914 11.4566 11.6478 11.3406 11.6553 11.2166L11.6563 11.1875V8.7125L9.88906 8.00469L8.54375 9.34062L8.31875 9.3125C4.24063 8.80156 3.6875 4.72344 3.6875 4.68125L3.65938 4.45625L4.99063 3.11094L4.2875 1.34375H1.8125Z" fill="white"/>
</svg>
