<svg width="17" height="17" viewBox="0 0 17 17" fill="none" xmlns="http://www.w3.org/2000/svg">
<path fill-rule="evenodd" clip-rule="evenodd" d="M4.46207 0.521898C5.31747 0.533385 5.92705 1.17436 6.69822 1.98535C6.8889 2.18522 7.0949 2.40348 7.32541 2.63322C8.44272 3.75129 8.12491 4.66336 7.86836 5.39547C7.58961 6.19421 7.34838 6.88343 8.79269 8.32774C10.237 9.77204 10.9255 9.53081 11.7234 9.24976C12.4563 8.99399 13.3661 8.67388 14.4857 9.79195C14.7131 10.0194 14.9275 10.2231 15.1267 10.4123C15.9407 11.1872 16.584 11.7991 16.5948 12.6568C16.6031 13.3874 16.159 14.1333 15.0623 15.2299L14.5768 14.9006L14.988 15.3011C14.7453 15.55 14.0997 16.2132 12.8354 16.2209H12.8124C10.904 16.2209 8.41591 14.7015 5.41703 11.7034C2.40589 8.69302 0.884233 6.19727 0.895656 4.28506C0.902612 3.02148 1.56503 2.37438 1.81392 2.13162L1.83516 2.10842L1.88667 2.05657C2.9856 0.95764 3.74068 0.505816 4.46207 0.521898ZM4.44752 1.6706H4.44139C4.0975 1.6706 3.57524 2.01522 2.84686 2.72274L2.70059 2.86638L2.70225 2.86602C2.70317 2.86602 2.68975 2.88036 2.66845 2.90208L2.61725 2.95333C2.43192 3.13329 2.04825 3.50777 2.04439 4.29118C2.0383 5.38705 2.75892 7.42179 6.22878 10.8909C9.68179 14.3431 11.7135 15.0722 12.8124 15.0722H12.8285C13.6119 15.0676 13.9856 14.6839 14.1656 14.4993C14.2199 14.4434 14.2644 14.4013 14.2958 14.3761C15.0593 13.608 15.4498 13.0374 15.446 12.6706C15.4414 12.2969 14.9766 11.8558 14.334 11.2439C14.1296 11.0502 13.9075 10.838 13.6732 10.6037C13.0651 9.99795 12.7657 10.1013 12.1033 10.3341C11.1881 10.655 9.9345 11.0946 7.98094 9.13949C6.02661 7.18592 6.46465 5.9323 6.78399 5.0164C7.01526 4.35475 7.12094 4.05379 6.51366 3.44574C6.27626 3.20834 6.0626 2.98319 5.86579 2.77642C5.25774 2.13774 4.81893 1.67596 4.44752 1.6706ZM11.0396 3.24625C12.6333 3.55563 13.8639 4.78551 14.1741 6.37991C14.2346 6.69236 14.0316 6.99332 13.7207 7.05382C13.6832 7.06071 13.6464 7.06454 13.6097 7.06454C13.3401 7.06454 13.1004 6.87462 13.0468 6.60047C12.8263 5.46708 11.9525 4.59329 10.8206 4.37351C10.5089 4.31301 10.306 4.01205 10.3665 3.70037C10.427 3.38868 10.7333 3.18498 11.0396 3.24625ZM10.9938 0.526263C14.1167 0.873172 16.542 3.29541 16.892 6.41759C16.9272 6.7331 16.7005 7.01722 16.3858 7.05244C16.3643 7.05474 16.3421 7.05627 16.3207 7.05627C16.032 7.05627 15.7839 6.83955 15.7509 6.54625C15.4607 3.96089 13.4528 1.95449 10.8666 1.66731C10.5519 1.63208 10.3245 1.34874 10.3597 1.03323C10.3941 0.71848 10.6752 0.486441 10.9938 0.526263Z" fill="black"/>
</svg>
