<svg width="42" height="42" viewBox="0 0 42 42" fill="none" xmlns="http://www.w3.org/2000/svg">
<path d="M14.75 11.625H6.59375C8.6146 8.5193 11.585 6.14978 15.0622 4.86969C18.5394 3.58961 22.3372 3.4675 25.8894 4.52158C29.4417 5.57566 32.5582 7.74947 34.7743 10.719C36.9905 13.6885 38.1877 17.2947 38.1875 21H41.3125C41.3168 16.8211 40.0321 12.7426 37.6335 9.32052C35.235 5.89848 31.8394 3.29949 27.9096 1.87796C23.9799 0.456431 19.7074 0.281538 15.6747 1.37713C11.6419 2.47273 8.0452 4.78548 5.375 8.00004V2.25004H2.25V14.75H14.75V11.625ZM27.25 30.375H35.4062C33.3854 33.4808 30.415 35.8503 26.9378 37.1304C23.4606 38.4105 19.6628 38.5326 16.1106 37.4785C12.5583 36.4244 9.44183 34.2506 7.22565 31.2811C5.00946 28.3116 3.81226 24.7054 3.8125 21H0.687496C0.683193 25.179 1.9679 29.2575 4.36645 32.6796C6.76499 36.1016 10.1606 38.7006 14.0903 40.1221C18.0201 41.5437 22.2926 41.7185 26.3253 40.623C30.3581 39.5274 33.9548 37.2146 36.625 34V39.75H39.75V27.25H27.25V30.375Z" fill="white"/>
</svg>
