<svg width="48" height="48" viewBox="0 0 48 48" fill="none" xmlns="http://www.w3.org/2000/svg">
<path d="M24.0244 0.5625C17.876 0.565779 11.9751 2.98496 7.59375 7.29853V0.5625H4.46875V13.0625H16.9688V9.9375H9.37959C11.2739 7.96308 13.5475 6.39171 16.0641 5.31771C18.5806 4.24371 21.2882 3.68921 24.0244 3.6875C35.2109 3.6875 44.3125 12.7891 44.3125 23.9756C44.3125 35.1621 35.2109 44.2637 24.0244 44.2637C12.8379 44.2637 3.73633 35.1621 3.73633 23.9756H0.611328C0.611322 28.6063 1.98447 33.1329 4.55714 36.9832C7.1298 40.8335 10.7864 43.8344 15.0646 45.6065C19.3428 47.3786 24.0504 47.8422 28.5921 46.9388C33.1338 46.0354 37.3056 43.8055 40.58 40.5312C43.8544 37.2568 46.0843 33.085 46.9877 28.5433C47.8911 24.0016 47.4274 19.294 45.6553 15.0158C43.8832 10.7376 40.8823 7.08097 37.032 4.50831C33.1818 1.93564 28.6551 0.562494 24.0244 0.5625Z" fill="white"/>
</svg>
