<svg width="21" height="20" viewBox="0 0 21 20" fill="none" xmlns="http://www.w3.org/2000/svg">
<path fill-rule="evenodd" clip-rule="evenodd" d="M5.67416 5.05469C6.10541 5.05469 6.45541 5.40469 6.45541 5.83594C6.45541 6.26719 6.10541 6.61719 5.67416 6.61719H4.69395C3.0127 6.61719 1.64603 7.98281 1.64603 9.66302V14.7516C1.64603 16.438 3.01687 17.8089 4.70333 17.8089H16.3075C17.9867 17.8089 19.3544 16.4411 19.3544 14.762V9.67448C19.3544 7.98802 17.9825 6.61719 16.2981 6.61719H15.3273C14.896 6.61719 14.546 6.26719 14.546 5.83594C14.546 5.40469 14.896 5.05469 15.3273 5.05469H16.2981C18.845 5.05469 20.9169 7.1276 20.9169 9.67448V14.762C20.9169 17.3036 18.8481 19.3714 16.3075 19.3714H4.70333C2.15645 19.3714 0.0835342 17.2995 0.0835342 14.7516V9.66302C0.0835342 7.12135 2.15124 5.05469 4.69395 5.05469H5.67416ZM10.501 0.125C10.9323 0.125 11.2823 0.475 11.2823 0.90625L11.2815 11.5583L12.9854 9.84792C13.2896 9.54167 13.7833 9.54167 14.0896 9.84583C14.3948 10.15 14.3958 10.6448 14.0917 10.951L11.0612 13.9934C11.0316 14.0238 10.9995 14.0519 10.9654 14.0772L11.0542 14C11.0206 14.034 10.9842 14.0646 10.9455 14.0914C10.9219 14.1078 10.8979 14.1225 10.8731 14.136C10.8611 14.1425 10.8485 14.1489 10.8358 14.1549C10.8131 14.1658 10.7898 14.1755 10.7659 14.1841C10.754 14.1883 10.742 14.1923 10.73 14.196C10.7006 14.2051 10.6705 14.2124 10.6397 14.2179C10.6327 14.2191 10.6264 14.2201 10.6201 14.2211C10.5952 14.225 10.5693 14.2277 10.543 14.2291C10.5289 14.2298 10.515 14.2302 10.501 14.2302L10.4596 14.2271L10.3951 14.2231C10.3905 14.2224 10.3859 14.2218 10.3813 14.2211L10.501 14.2302C10.4545 14.2302 10.4083 14.2261 10.363 14.2179C10.3317 14.2124 10.3016 14.2051 10.2722 14.1961C10.2605 14.1924 10.249 14.1886 10.2375 14.1845C10.2136 14.176 10.19 14.1662 10.1669 14.1553C10.153 14.1487 10.139 14.1416 10.1254 14.134C10.1061 14.1234 10.0876 14.1122 10.0695 14.1002C10.0572 14.0921 10.0448 14.0833 10.0327 14.0742C10.003 14.0519 9.97491 14.0275 9.94869 14.0013L9.94791 14L6.91041 10.951C6.60624 10.6448 6.60728 10.15 6.91249 9.84583C7.21874 9.54167 7.71249 9.54167 8.01666 9.84792L9.71895 11.5583L9.71978 0.90625C9.71978 0.475 10.0698 0.125 10.501 0.125Z" fill="black"/>
</svg>
