<svg width="18" height="18" viewBox="0 0 18 18" fill="none" xmlns="http://www.w3.org/2000/svg">
<path fill-rule="evenodd" clip-rule="evenodd" d="M8.57675 0.697326C8.92175 0.697326 9.20175 0.977326 9.20175 1.32233C9.20175 1.66733 8.92175 1.94733 8.57675 1.94733H5.46091C3.30758 1.94733 1.91675 3.42233 1.91675 5.70483V12.6332C1.91675 14.9157 3.30758 16.3907 5.46091 16.3907H12.8142C14.9676 16.3907 16.3592 14.9157 16.3592 12.6332V9.27649C16.3592 8.93149 16.6392 8.65149 16.9842 8.65149C17.3292 8.65149 17.6092 8.93149 17.6092 9.27649V12.6332C17.6092 15.6282 15.6817 17.6407 12.8142 17.6407H5.46091C2.59341 17.6407 0.666748 15.6282 0.666748 12.6332V5.70483C0.666748 2.70983 2.59341 0.697326 5.46091 0.697326H8.57675ZM15.8347 1.42949L16.8489 2.44366C17.3431 2.93699 17.6147 3.59283 17.6139 4.29116C17.6139 4.98949 17.3422 5.64449 16.8489 6.13699L10.5914 12.3945C10.1322 12.8537 9.52058 13.107 8.87058 13.107H5.74891C5.58058 13.107 5.41891 13.0387 5.30141 12.9178C5.18391 12.7978 5.11975 12.6353 5.12391 12.4662L5.20225 9.31699C5.21808 8.69032 5.47058 8.10116 5.91391 7.65699H5.91475L12.1422 1.42949C13.1606 0.412826 14.8164 0.412826 15.8347 1.42949ZM11.6292 3.70949L6.79808 8.54116C6.58225 8.75699 6.45975 9.04366 6.45225 9.34783L6.38975 11.857H8.87058C9.18725 11.857 9.48391 11.7345 9.70808 11.5103L14.5684 6.64866L11.6292 3.70949ZM13.0256 2.31366L12.5126 2.82533L15.4517 5.76533L15.9656 5.25283C16.2222 4.99616 16.3639 4.65449 16.3639 4.29116C16.3639 3.92699 16.2222 3.58449 15.9656 3.32783L14.9514 2.31366C14.4206 1.78449 13.5572 1.78449 13.0256 2.31366Z" fill="black"/>
</svg>
