<svg width="74" height="16" viewBox="0 0 74 16" fill="none" xmlns="http://www.w3.org/2000/svg">
<path d="M4.18569 15.784C3.72969 15.784 3.29769 15.72 2.88969 15.592C2.48169 15.472 2.11769 15.292 1.79769 15.052C1.48569 14.812 1.23769 14.52 1.05369 14.176C0.877688 13.84 0.789688 13.452 0.789688 13.012C0.789688 12.82 0.805688 12.616 0.837688 12.4C0.877688 12.176 0.933688 11.94 1.00569 11.692C1.08569 11.436 1.18169 11.168 1.29369 10.888L2.15769 11.224C2.07769 11.448 2.00569 11.66 1.94169 11.86C1.88569 12.06 1.84169 12.248 1.80969 12.424C1.78569 12.6 1.77369 12.768 1.77369 12.928C1.77369 13.336 1.88169 13.68 2.09769 13.96C2.32169 14.24 2.61769 14.448 2.98569 14.584C3.36169 14.728 3.77369 14.8 4.22169 14.8C4.76569 14.8 5.22169 14.736 5.58969 14.608C5.95769 14.488 6.24969 14.324 6.46569 14.116C6.68169 13.916 6.83369 13.688 6.92169 13.432C7.01769 13.184 7.06569 12.936 7.06569 12.688C7.06569 12.336 7.03769 12.004 6.98169 11.692C6.93369 11.38 6.86569 11.076 6.77769 10.78C6.69769 10.476 6.60969 10.168 6.51369 9.856L7.48569 9.592C7.61369 10.048 7.70169 10.38 7.74969 10.588C7.80569 10.788 7.84969 10.952 7.88169 11.08C7.96969 11.376 8.06969 11.596 8.18169 11.74C8.30169 11.876 8.43769 11.968 8.58969 12.016C8.74969 12.056 8.92969 12.076 9.12969 12.076C9.28969 12.076 9.42969 12.056 9.54969 12.016C9.67769 11.976 9.79369 11.88 9.89769 11.728C10.0097 11.576 10.1057 11.332 10.1857 10.996C10.2737 10.66 10.3537 10.2 10.4257 9.616L11.3377 9.784C11.3137 9.928 11.2857 10.104 11.2537 10.312C11.2217 10.52 11.1897 10.728 11.1577 10.936C11.1337 11.136 11.1217 11.304 11.1217 11.44C11.1217 11.552 11.1457 11.66 11.1937 11.764C11.2497 11.86 11.3537 11.936 11.5057 11.992C11.6657 12.048 11.9017 12.076 12.2137 12.076C12.6137 12.076 12.9017 11.992 13.0777 11.824C13.2617 11.656 13.3537 11.4 13.3537 11.056C13.3537 10.872 13.3497 10.68 13.3417 10.48C13.3337 10.272 13.3177 10.044 13.2937 9.796C13.2777 9.54 13.2497 9.248 13.2097 8.92L14.0857 8.86C14.1337 9.508 14.1857 10.04 14.2417 10.456C14.3057 10.872 14.3937 11.2 14.5057 11.44C14.6257 11.672 14.7857 11.836 14.9857 11.932C15.1857 12.028 15.4497 12.076 15.7777 12.076C15.9457 12.076 16.0657 12.124 16.1377 12.22C16.2177 12.308 16.2577 12.416 16.2577 12.544C16.2577 12.672 16.2017 12.792 16.0897 12.904C15.9777 13.008 15.8337 13.06 15.6577 13.06C15.2977 13.06 14.9857 12.996 14.7217 12.868C14.4657 12.74 14.2577 12.568 14.0977 12.352C13.9457 12.128 13.8417 11.888 13.7857 11.632L14.0017 11.704C13.9137 12.064 13.7737 12.344 13.5817 12.544C13.3977 12.736 13.1777 12.872 12.9217 12.952C12.6657 13.024 12.3937 13.06 12.1057 13.06C11.7537 13.06 11.4657 13.016 11.2417 12.928C11.0177 12.84 10.8417 12.708 10.7137 12.532C10.5937 12.348 10.5137 12.116 10.4737 11.836H10.8817C10.7537 12.124 10.6097 12.36 10.4497 12.544C10.2897 12.72 10.0977 12.852 9.87369 12.94C9.65769 13.02 9.38969 13.06 9.06969 13.06C8.82169 13.06 8.60969 13.028 8.43369 12.964C8.25769 12.892 8.10969 12.804 7.98969 12.7C7.87769 12.588 7.78969 12.464 7.72569 12.328C7.66169 12.184 7.61369 12.04 7.58169 11.896L8.07369 12.508C8.04169 12.908 7.95769 13.3 7.82169 13.684C7.69369 14.076 7.48569 14.428 7.19769 14.74C6.90969 15.06 6.52169 15.312 6.03369 15.496C5.54569 15.688 4.92969 15.784 4.18569 15.784ZM15.6523 13.06L15.7723 12.076C16.2443 12.076 16.6123 12.06 16.8763 12.028C17.1403 11.988 17.3283 11.896 17.4403 11.752C17.5523 11.6 17.6083 11.364 17.6083 11.044C17.6083 10.844 17.5763 10.608 17.5123 10.336C17.4483 10.056 17.3643 9.76 17.2603 9.448C17.1563 9.136 17.0443 8.828 16.9243 8.524L17.8963 8.164C18.0003 8.42 18.0963 8.712 18.1843 9.04C18.2803 9.368 18.3603 9.692 18.4243 10.012C18.4883 10.332 18.5203 10.612 18.5203 10.852C18.5203 11.252 18.4643 11.592 18.3523 11.872C18.2483 12.152 18.0803 12.38 17.8483 12.556C17.6163 12.732 17.3163 12.86 16.9483 12.94C16.5883 13.02 16.1563 13.06 15.6523 13.06ZM17.8723 15.328C17.7043 15.328 17.5603 15.268 17.4403 15.148C17.3283 15.036 17.2723 14.9 17.2723 14.74C17.2723 14.58 17.3283 14.44 17.4403 14.32C17.5603 14.2 17.7043 14.14 17.8723 14.14C18.0323 14.14 18.1683 14.2 18.2803 14.32C18.4003 14.44 18.4603 14.58 18.4603 14.74C18.4603 14.9 18.4003 15.036 18.2803 15.148C18.1683 15.268 18.0323 15.328 17.8723 15.328ZM16.2283 15.328C16.0603 15.328 15.9163 15.268 15.7963 15.148C15.6843 15.036 15.6283 14.9 15.6283 14.74C15.6283 14.58 15.6843 14.44 15.7963 14.32C15.9163 14.2 16.0603 14.14 16.2283 14.14C16.3883 14.14 16.5243 14.2 16.6363 14.32C16.7563 14.44 16.8163 14.58 16.8163 14.74C16.8163 14.9 16.7563 15.036 16.6363 15.148C16.5243 15.268 16.3883 15.328 16.2283 15.328ZM19.2863 15.76L18.9383 14.848C19.7463 14.592 20.3663 14.284 20.7983 13.924C21.2383 13.572 21.5383 13.204 21.6983 12.82C21.8663 12.436 21.9503 12.068 21.9503 11.716C21.9503 11.492 21.9263 11.276 21.8783 11.068C21.8303 10.86 21.7463 10.624 21.6263 10.36C21.5063 10.096 21.3383 9.768 21.1223 9.376L21.9983 8.932C22.3023 9.452 22.5183 9.944 22.6463 10.408C22.7823 10.872 22.8503 11.28 22.8503 11.632C22.8503 12.136 22.7663 12.592 22.5983 13C22.4383 13.408 22.2223 13.768 21.9503 14.08C21.6863 14.4 21.3943 14.672 21.0743 14.896C20.7623 15.12 20.4463 15.304 20.1263 15.448C19.8143 15.592 19.5343 15.696 19.2863 15.76ZM26.2245 12.076C26.6245 12.076 26.9405 12.036 27.1725 11.956C27.4125 11.876 27.5845 11.76 27.6885 11.608C27.8005 11.448 27.8565 11.264 27.8565 11.056C27.8565 10.896 27.8125 10.704 27.7245 10.48C27.6445 10.256 27.5325 10.008 27.3885 9.736C27.2445 9.456 27.0765 9.164 26.8845 8.86C26.7005 8.548 26.5005 8.232 26.2845 7.912L27.1125 7.372C27.4245 7.844 27.6965 8.292 27.9285 8.716C28.1605 9.132 28.3565 9.524 28.5165 9.892C28.6765 10.252 28.8045 10.592 28.9005 10.912C29.0125 11.264 29.1365 11.524 29.2725 11.692C29.4165 11.86 29.5645 11.968 29.7165 12.016C29.8685 12.056 30.0085 12.076 30.1365 12.076C30.3045 12.076 30.4285 12.124 30.5085 12.22C30.5885 12.308 30.6285 12.416 30.6285 12.544C30.6285 12.672 30.5725 12.792 30.4605 12.904C30.3485 13.008 30.2045 13.06 30.0285 13.06C29.7645 13.06 29.5045 13.012 29.2485 12.916C29.0005 12.812 28.7845 12.648 28.6005 12.424C28.4165 12.192 28.2885 11.884 28.2165 11.5L28.6965 11.116C28.6965 11.436 28.6285 11.748 28.4925 12.052C28.3565 12.348 28.1085 12.592 27.7485 12.784C27.3965 12.976 26.8885 13.072 26.2245 13.072C25.9365 13.072 25.6565 13.048 25.3845 13C25.1205 12.952 24.8765 12.884 24.6525 12.796C24.4285 12.7 24.2325 12.588 24.0645 12.46L24.5445 11.632C24.7045 11.736 24.9285 11.836 25.2165 11.932C25.5045 12.028 25.8405 12.076 26.2245 12.076ZM26.3325 3.544C26.1885 3.544 26.0165 3.54 25.8165 3.532C25.6245 3.516 25.4405 3.5 25.2645 3.484C25.0885 3.468 24.9565 3.456 24.8685 3.448L24.8925 2.752C25.0525 2.768 25.2605 2.788 25.5165 2.812C25.7805 2.836 26.0245 2.848 26.2485 2.848C26.5125 2.848 26.7245 2.832 26.8845 2.8C27.0525 2.76 27.1725 2.704 27.2445 2.632C27.3245 2.56 27.3645 2.48 27.3645 2.392C27.3645 2.28 27.3285 2.2 27.2565 2.152C27.1845 2.104 27.0925 2.08 26.9805 2.08C26.8205 2.08 26.6645 2.136 26.5125 2.248C26.3605 2.352 26.2245 2.472 26.1045 2.608C25.9925 2.736 25.9085 2.84 25.8525 2.92L25.1805 2.872C25.3165 2.608 25.4845 2.364 25.6845 2.14C25.8845 1.908 26.1045 1.724 26.3445 1.588C26.5845 1.444 26.8285 1.372 27.0765 1.372C27.3805 1.372 27.6205 1.464 27.7965 1.648C27.9725 1.832 28.0605 2.06 28.0605 2.332C28.0605 2.492 28.0125 2.668 27.9165 2.86C27.8285 3.044 27.6605 3.204 27.4125 3.34C27.1645 3.476 26.8045 3.544 26.3325 3.544ZM25.5045 2.752L25.4325 0.435999H26.0925L26.1885 2.44L25.5045 2.752ZM30.0312 13.06L30.1513 12.076C30.6233 12.076 30.9913 12.06 31.2553 12.028C31.5193 11.988 31.7073 11.896 31.8193 11.752C31.9313 11.6 31.9873 11.364 31.9873 11.044C31.9873 10.844 31.9553 10.608 31.8913 10.336C31.8273 10.056 31.7433 9.76 31.6393 9.448C31.5353 9.136 31.4233 8.828 31.3033 8.524L32.2753 8.164C32.3793 8.42 32.4753 8.712 32.5633 9.04C32.6593 9.368 32.7393 9.692 32.8033 10.012C32.8673 10.332 32.8993 10.612 32.8993 10.852C32.8993 11.252 32.8433 11.592 32.7313 11.872C32.6273 12.152 32.4593 12.38 32.2273 12.556C31.9953 12.732 31.6953 12.86 31.3273 12.94C30.9673 13.02 30.5353 13.06 30.0312 13.06ZM32.2513 15.328C32.0833 15.328 31.9393 15.268 31.8193 15.148C31.7073 15.036 31.6513 14.9 31.6513 14.74C31.6513 14.58 31.7073 14.44 31.8193 14.32C31.9393 14.2 32.0833 14.14 32.2513 14.14C32.4113 14.14 32.5473 14.2 32.6593 14.32C32.7793 14.44 32.8393 14.58 32.8393 14.74C32.8393 14.9 32.7793 15.036 32.6593 15.148C32.5473 15.268 32.4113 15.328 32.2513 15.328ZM30.6073 15.328C30.4393 15.328 30.2953 15.268 30.1753 15.148C30.0632 15.036 30.0072 14.9 30.0072 14.74C30.0072 14.58 30.0632 14.44 30.1753 14.32C30.2953 14.2 30.4393 14.14 30.6073 14.14C30.7673 14.14 30.9033 14.2 31.0153 14.32C31.1353 14.44 31.1953 14.58 31.1953 14.74C31.1953 14.9 31.1353 15.036 31.0153 15.148C30.9033 15.268 30.7673 15.328 30.6073 15.328ZM34.7212 13L34.4812 4.432H35.4532L35.6932 13H34.7212ZM39.8366 13.012C39.8366 12.82 39.8526 12.616 39.8846 12.4C39.9246 12.176 39.9806 11.94 40.0526 11.692C40.1326 11.436 40.2286 11.168 40.3406 10.888L41.2046 11.224C41.1246 11.448 41.0526 11.66 40.9886 11.86C40.9326 12.06 40.8886 12.248 40.8566 12.424C40.8326 12.6 40.8206 12.768 40.8206 12.928C40.8206 13.336 40.9286 13.68 41.1446 13.96C41.3606 14.24 41.6406 14.448 41.9846 14.584C42.3366 14.728 42.7126 14.8 43.1126 14.8C43.8966 14.8 44.5086 14.66 44.9486 14.38C45.3886 14.108 45.6966 13.744 45.8726 13.288C46.0486 12.84 46.1246 12.348 46.1006 11.812L45.8366 4.432H46.8326L47.0246 10.516C47.0406 10.924 47.1046 11.244 47.2166 11.476C47.3366 11.7 47.4966 11.856 47.6966 11.944C47.8966 12.032 48.1166 12.076 48.3566 12.076C48.5246 12.076 48.6446 12.124 48.7166 12.22C48.7966 12.308 48.8366 12.416 48.8366 12.544C48.8366 12.672 48.7806 12.792 48.6686 12.904C48.5566 13.008 48.4126 13.06 48.2366 13.06C47.9886 13.06 47.7766 13.028 47.6006 12.964C47.4246 12.892 47.2806 12.804 47.1686 12.7C47.0566 12.588 46.9686 12.464 46.9046 12.328C46.8406 12.184 46.7926 12.04 46.7606 11.896L47.0966 12.232C47.0646 12.656 46.9726 13.076 46.8206 13.492C46.6766 13.916 46.4526 14.3 46.1486 14.644C45.8446 14.988 45.4366 15.264 44.9246 15.472C44.4206 15.68 43.7966 15.784 43.0526 15.784C42.6366 15.784 42.2326 15.72 41.8406 15.592C41.4566 15.472 41.1126 15.292 40.8086 15.052C40.5126 14.812 40.2766 14.52 40.1006 14.176C39.9246 13.84 39.8366 13.452 39.8366 13.012ZM48.2422 13.06L48.3622 12.076C48.7622 12.076 49.0742 12.048 49.2982 11.992C49.5222 11.928 49.6902 11.812 49.8022 11.644C49.9222 11.468 50.0182 11.216 50.0902 10.888C50.1622 10.56 50.2502 10.132 50.3542 9.604L51.2902 9.784C51.2582 9.928 51.2222 10.088 51.1822 10.264C51.1422 10.44 51.1062 10.616 51.0742 10.792C51.0502 10.96 51.0382 11.108 51.0382 11.236C51.0382 11.356 51.0462 11.468 51.0622 11.572C51.0782 11.676 51.1382 11.764 51.2422 11.836C51.3462 11.908 51.5222 11.968 51.7702 12.016C52.0182 12.056 52.3742 12.076 52.8382 12.076C53.0062 12.076 53.1262 12.124 53.1982 12.22C53.2782 12.308 53.3182 12.416 53.3182 12.544C53.3182 12.672 53.2622 12.792 53.1502 12.904C53.0382 13.008 52.8942 13.06 52.7182 13.06C52.2302 13.06 51.8422 13.036 51.5542 12.988C51.2662 12.932 51.0462 12.852 50.8942 12.748C50.7502 12.644 50.6462 12.516 50.5822 12.364C50.5262 12.204 50.4822 12.02 50.4502 11.812L50.8102 11.836C50.6822 12.092 50.5422 12.3 50.3902 12.46C50.2462 12.62 50.0782 12.744 49.8862 12.832C49.6942 12.92 49.4622 12.98 49.1902 13.012C48.9262 13.044 48.6102 13.06 48.2422 13.06ZM51.2662 15.328C51.0982 15.328 50.9542 15.268 50.8342 15.148C50.7222 15.036 50.6662 14.9 50.6662 14.74C50.6662 14.58 50.7222 14.44 50.8342 14.32C50.9542 14.2 51.0982 14.14 51.2662 14.14C51.4262 14.14 51.5622 14.2 51.6742 14.32C51.7942 14.44 51.8542 14.58 51.8542 14.74C51.8542 14.9 51.7942 15.036 51.6742 15.148C51.5622 15.268 51.4262 15.328 51.2662 15.328ZM49.6222 15.328C49.4542 15.328 49.3102 15.268 49.1902 15.148C49.0782 15.036 49.0222 14.9 49.0222 14.74C49.0222 14.58 49.0782 14.44 49.1902 14.32C49.3102 14.2 49.4542 14.14 49.6222 14.14C49.7822 14.14 49.9182 14.2 50.0302 14.32C50.1502 14.44 50.2102 14.58 50.2102 14.74C50.2102 14.9 50.1502 15.036 50.0302 15.148C49.9182 15.268 49.7822 15.328 49.6222 15.328ZM52.7188 13.06L52.8388 12.076C53.0628 12.076 53.2508 12.028 53.4028 11.932C53.5548 11.836 53.7028 11.676 53.8468 11.452C53.9908 11.228 54.1468 10.928 54.3148 10.552C54.5468 10.04 54.7748 9.652 54.9988 9.388C55.2308 9.124 55.4588 8.944 55.6828 8.848C55.9148 8.752 56.1428 8.704 56.3668 8.704C56.6388 8.704 56.8908 8.776 57.1228 8.92C57.3548 9.056 57.5588 9.24 57.7348 9.472C57.9108 9.704 58.0468 9.96 58.1428 10.24C58.2468 10.512 58.2988 10.784 58.2988 11.056C58.2988 11.536 58.2148 11.92 58.0468 12.208C57.8788 12.488 57.6628 12.692 57.3988 12.82C57.1428 12.94 56.8748 13 56.5948 13C56.3468 13 56.0268 12.952 55.6348 12.856C55.2508 12.76 54.7628 12.516 54.1708 12.124L54.6388 11.368C55.0308 11.616 55.3828 11.788 55.6948 11.884C56.0148 11.972 56.2788 12.016 56.4868 12.016C56.7188 12.016 56.9028 11.984 57.0388 11.92C57.1748 11.848 57.2748 11.748 57.3388 11.62C57.4028 11.492 57.4348 11.348 57.4348 11.188C57.4348 10.956 57.3788 10.724 57.2668 10.492C57.1548 10.26 57.0108 10.068 56.8348 9.916C56.6668 9.764 56.4868 9.688 56.2948 9.688C56.1508 9.688 56.0108 9.728 55.8748 9.808C55.7388 9.888 55.5988 10.036 55.4548 10.252C55.3108 10.468 55.1468 10.78 54.9628 11.188C54.7708 11.62 54.5868 11.964 54.4108 12.22C54.2428 12.468 54.0708 12.652 53.8948 12.772C53.7188 12.892 53.5348 12.968 53.3428 13C53.1588 13.04 52.9508 13.06 52.7188 13.06ZM62.3834 13.012C62.3834 12.82 62.3994 12.616 62.4314 12.4C62.4714 12.176 62.5274 11.94 62.5994 11.692C62.6794 11.436 62.7754 11.168 62.8874 10.888L63.7514 11.224C63.6714 11.448 63.5994 11.66 63.5354 11.86C63.4794 12.06 63.4354 12.248 63.4034 12.424C63.3794 12.6 63.3674 12.768 63.3674 12.928C63.3674 13.24 63.4314 13.512 63.5594 13.744C63.6954 13.976 63.8834 14.168 64.1234 14.32C64.3634 14.48 64.6434 14.6 64.9634 14.68C65.2834 14.76 65.6274 14.8 65.9954 14.8C66.5714 14.8 67.0754 14.736 67.5074 14.608C67.9394 14.488 68.2994 14.332 68.5874 14.14C68.8754 13.948 69.0874 13.748 69.2234 13.54C69.3674 13.332 69.4394 13.148 69.4394 12.988C69.4394 12.876 69.3714 12.776 69.2354 12.688C69.0994 12.6 68.9234 12.516 68.7074 12.436C68.4914 12.356 68.2634 12.272 68.0234 12.184C67.7834 12.088 67.5554 11.976 67.3394 11.848C67.1234 11.72 66.9474 11.568 66.8114 11.392C66.6754 11.208 66.6074 10.992 66.6074 10.744C66.6074 10.416 66.6874 10.092 66.8474 9.772C67.0154 9.444 67.2394 9.144 67.5194 8.872C67.8074 8.6 68.1274 8.384 68.4794 8.224C68.8314 8.056 69.1954 7.972 69.5714 7.972C69.9074 7.972 70.1954 8.02 70.4354 8.116C70.6754 8.204 70.8474 8.288 70.9514 8.368L70.5554 9.22C70.4194 9.156 70.2674 9.096 70.0994 9.04C69.9314 8.984 69.7554 8.956 69.5714 8.956C69.3394 8.956 69.1034 9.004 68.8634 9.1C68.6314 9.196 68.4154 9.324 68.2154 9.484C68.0234 9.644 67.8674 9.82 67.7474 10.012C67.6274 10.204 67.5674 10.396 67.5674 10.588C67.5674 10.724 67.6354 10.848 67.7714 10.96C67.9154 11.072 68.0994 11.176 68.3234 11.272C68.5474 11.368 68.7834 11.468 69.0314 11.572C69.2874 11.668 69.5274 11.776 69.7514 11.896C69.9754 12.008 70.1554 12.14 70.2914 12.292C70.4354 12.444 70.5074 12.624 70.5074 12.832C70.5074 13.128 70.4074 13.448 70.2074 13.792C70.0074 14.136 69.7114 14.456 69.3194 14.752C68.9274 15.056 68.4474 15.304 67.8794 15.496C67.3194 15.688 66.6714 15.784 65.9354 15.784C65.4314 15.784 64.9634 15.728 64.5314 15.616C64.1074 15.504 63.7314 15.332 63.4034 15.1C63.0834 14.876 62.8314 14.588 62.6474 14.236C62.4714 13.892 62.3834 13.484 62.3834 13.012ZM72.2446 13L72.0046 4.432H72.9766L73.2166 13H72.2446Z" fill="black"/>
</svg>
