<svg width="16" height="14" viewBox="0 0 16 14" fill="none" xmlns="http://www.w3.org/2000/svg">
<path fill-rule="evenodd" clip-rule="evenodd" d="M12.4899 8.42325C13.9199 8.42325 15.0833 9.58075 15.0833 11.0033C15.0833 12.4258 13.9199 13.5833 12.4899 13.5833C11.0591 13.5833 9.89492 12.4258 9.89492 11.0033C9.89492 9.58075 11.0591 8.42325 12.4899 8.42325ZM12.4899 9.67325C11.7483 9.67325 11.1449 10.2699 11.1449 11.0033C11.1449 11.7374 11.7483 12.3333 12.4899 12.3333C13.2308 12.3333 13.8333 11.7374 13.8333 11.0033C13.8333 10.2699 13.2308 9.67325 12.4899 9.67325ZM6.40025 10.4106C6.74525 10.4106 7.02525 10.6906 7.02525 11.0356C7.02525 11.3806 6.74525 11.6606 6.40025 11.6606H1.14942C0.804417 11.6606 0.524417 11.3806 0.524417 11.0356C0.524417 10.6906 0.804417 10.4106 1.14942 10.4106H6.40025ZM3.09417 0.333252C4.525 0.333252 5.68833 1.49159 5.68833 2.91409C5.68833 4.33659 4.525 5.49325 3.09417 5.49325C1.66417 5.49325 0.5 4.33659 0.5 2.91409C0.5 1.49159 1.66417 0.333252 3.09417 0.333252ZM3.09417 1.58325C2.35333 1.58325 1.75 2.17992 1.75 2.91409C1.75 3.64742 2.35333 4.24325 3.09417 4.24325C3.83583 4.24325 4.43833 3.64742 4.43833 2.91409C4.43833 2.17992 3.83583 1.58325 3.09417 1.58325ZM13.9926 2.33359C14.3376 2.33359 14.6176 2.61359 14.6176 2.95859C14.6176 3.30359 14.3376 3.58359 13.9926 3.58359H8.74258C8.39758 3.58359 8.11758 3.30359 8.11758 2.95859C8.11758 2.61359 8.39758 2.33359 8.74258 2.33359H13.9926Z" fill="white"/>
</svg>
