<svg width="27" height="28" viewBox="0 0 27 28" fill="none" xmlns="http://www.w3.org/2000/svg">
<path fill-rule="evenodd" clip-rule="evenodd" d="M15.1461 18.1141C16.6511 18.1141 17.8761 19.3303 17.8761 20.8253V24.6703C17.8761 24.9916 18.1336 25.2491 18.4636 25.2566H20.8461C22.7236 25.2566 24.2498 23.7491 24.2498 21.8966V10.9916C24.2411 10.3541 23.9373 9.75406 23.4161 9.35531L15.1748 2.78281C14.0686 1.90656 12.5211 1.90656 11.4111 2.78531L3.22607 9.35281C2.68482 9.76406 2.38107 10.3641 2.37482 11.0128V21.8966C2.37482 23.7491 3.90107 25.2566 5.77857 25.2566H8.18357C8.52232 25.2566 8.79732 24.9878 8.79732 24.6578C8.79732 24.5853 8.80607 24.5128 8.82107 24.4441V20.8253C8.82107 19.3391 10.0386 18.1241 11.5323 18.1141H15.1461ZM20.8461 27.1316H18.4411C17.0636 27.0991 16.0011 26.0178 16.0011 24.6703V20.8253C16.0011 20.3641 15.6173 19.9891 15.1461 19.9891H11.5386C11.0773 19.9916 10.6961 20.3678 10.6961 20.8253V24.6578C10.6961 24.7516 10.6836 24.8416 10.6573 24.9266C10.5223 26.1641 9.46482 27.1316 8.18357 27.1316H5.77857C2.86732 27.1316 0.499817 24.7828 0.499817 21.8966V11.0041C0.512317 9.76156 1.08482 8.62406 2.07357 7.87531L10.2423 1.31906C12.0411 -0.105937 14.5473 -0.105937 16.3423 1.31656L24.5698 7.87906C25.5361 8.61531 26.1086 9.75031 26.1248 10.9778V21.8966C26.1248 24.7828 23.7573 27.1316 20.8461 27.1316Z" fill="black"/>
</svg>
