<svg width="31" height="31" viewBox="0 0 31 31" fill="none" xmlns="http://www.w3.org/2000/svg">
<path d="M14.5 28.5C16.0225 28.5 17.4925 28.255 18.8645 27.807C18.187 26.9259 17.6149 25.9686 17.16 24.9545C16.292 26.1813 15.3505 26.75 14.5 26.75C13.3503 26.75 12.0378 25.7175 10.9615 23.411C10.5519 22.514 10.225 21.5815 9.98503 20.625H16.257C16.278 20.0265 16.3603 19.4403 16.4968 18.875H9.61053C9.36735 17.4294 9.24675 15.9659 9.25003 14.5C9.25003 12.9548 9.37778 11.4813 9.61053 10.125H19.3895C19.5995 11.357 19.7255 12.6853 19.7465 14.0765C20.275 13.716 20.8508 13.4203 21.472 13.2015C21.4268 12.171 21.3234 11.1439 21.1623 10.125H25.945C26.3125 11.0858 26.5628 12.1043 26.6783 13.163C27.3328 13.3853 27.94 13.6915 28.493 14.0678C28.4081 11.3185 27.5152 8.65521 25.9259 6.41034C24.3365 4.16547 22.1211 2.4385 19.5562 1.44506C16.9914 0.451618 14.1907 0.235713 11.5038 0.824303C8.81701 1.41289 6.36308 2.7799 4.44843 4.75465C2.53379 6.7294 1.24325 9.22439 0.737964 11.9281C0.232673 14.6319 0.535011 17.4245 1.60723 19.9575C2.67945 22.4904 4.47404 24.6514 6.76695 26.1707C9.05985 27.6899 11.7495 28.5001 14.5 28.5ZM14.5 2.25C15.6498 2.25 16.9623 3.2825 18.0385 5.589C18.4183 6.4045 18.749 7.3425 19.0168 8.375H9.98328C10.251 7.3425 10.5818 6.4045 10.9633 5.589C12.036 3.2825 13.3485 2.25 14.5 2.25ZM9.37603 4.84875C8.85927 5.98068 8.4588 7.16216 8.18078 8.375H3.88803C5.36545 5.82153 7.71217 3.88477 10.4995 2.9185C10.0778 3.496 9.70153 4.1505 9.37603 4.84875ZM7.83603 10.125C7.60954 11.5723 7.4972 13.0351 7.50003 14.5C7.50003 16.0225 7.61728 17.496 7.83778 18.875H3.05503C2.52132 17.4782 2.24847 15.9953 2.25003 14.5C2.25003 12.96 2.53528 11.483 3.05503 10.125H7.83778H7.83603ZM8.18078 20.625C8.48878 21.9253 8.89303 23.1135 9.37603 24.1513C9.70153 24.8495 10.0778 25.504 10.4995 26.0815C7.71217 25.1152 5.36545 23.1785 3.88803 20.625H8.18253H8.18078ZM18.5005 2.9185C21.288 3.88463 23.6347 5.82142 25.112 8.375H20.8175C20.5395 7.16216 20.139 5.98069 19.6223 4.84875C19.3107 4.17073 18.9344 3.52433 18.4988 2.9185H18.5005ZM30.25 20.9435C30.25 17.3858 27.6863 14.5018 24.1268 14.5018C20.569 14.5018 18 17.3858 18 20.9435C18 23.6105 19.7185 27.121 23.698 30.1065C23.9518 30.299 24.3018 30.299 24.5555 30.1065C28.5385 27.121 30.25 23.6105 30.25 20.9435ZM26.75 20.625C26.75 21.3212 26.4735 21.9889 25.9812 22.4812C25.4889 22.9734 24.8212 23.25 24.125 23.25C23.4288 23.25 22.7612 22.9734 22.2689 22.4812C21.7766 21.9889 21.5 21.3212 21.5 20.625C21.5 19.9288 21.7766 19.2611 22.2689 18.7688C22.7612 18.2766 23.4288 18 24.125 18C24.8212 18 25.4889 18.2766 25.9812 18.7688C26.4735 19.2611 26.75 19.9288 26.75 20.625Z" fill="url(#paint0_linear_966_116)"/>
<defs>
<linearGradient id="paint0_linear_966_116" x1="15.3749" y1="0.5" x2="15.3749" y2="30.2509" gradientUnits="userSpaceOnUse">
<stop stop-color="#896BE9"/>
<stop offset="1" stop-color="#8AC4E2"/>
</linearGradient>
</defs>
</svg>
