<svg width="8" height="8" viewBox="0 0 8 8" fill="none" xmlns="http://www.w3.org/2000/svg">
<path d="M3.87836 0.476562C3.13668 0.476562 2.41165 0.696496 1.79497 1.10855C1.17829 1.52061 0.697639 2.10628 0.41381 2.7915C0.129982 3.47672 0.0557192 4.23072 0.200414 4.95815C0.345108 5.68558 0.702261 6.35377 1.22671 6.87821C1.75115 7.40266 2.41934 7.75981 3.14677 7.90451C3.8742 8.0492 4.6282 7.97494 5.31342 7.69111C5.99864 7.40728 6.58431 6.92664 6.99637 6.30995C7.40843 5.69327 7.62836 4.96824 7.62836 4.22656C7.62723 3.23235 7.23178 2.27918 6.52876 1.57616C5.82574 0.873146 4.87257 0.477695 3.87836 0.476562ZM3.87836 6.10156C3.50752 6.10156 3.14501 5.9916 2.83666 5.78557C2.52832 5.57954 2.288 5.28671 2.14608 4.94409C2.00417 4.60148 1.96704 4.22448 2.03939 3.86077C2.11173 3.49705 2.29031 3.16296 2.55253 2.90074C2.81476 2.63851 3.14885 2.45994 3.51256 2.38759C3.87628 2.31524 4.25328 2.35237 4.59589 2.49429C4.9385 2.6362 5.23134 2.87653 5.43736 3.18487C5.64339 3.49321 5.75336 3.85572 5.75336 4.22656C5.75279 4.72367 5.55506 5.20025 5.20355 5.55175C4.85204 5.90326 4.37546 6.10099 3.87836 6.10156Z" fill="url(#paint0_linear_32_170)"/>
<defs>
<linearGradient id="paint0_linear_32_170" x1="3.87836" y1="0.476562" x2="3.87836" y2="7.97656" gradientUnits="userSpaceOnUse">
<stop stop-color="#896CE9"/>
<stop offset="1" stop-color="#8AC5E2"/>
</linearGradient>
</defs>
</svg>
