<svg width="22" height="28" viewBox="0 0 22 28" fill="none" xmlns="http://www.w3.org/2000/svg">
<path d="M18.0843 3.01417C16.3027 1.23294 13.9243 0.174823 11.4084 0.0440263C8.89243 -0.0867705 6.4172 0.719029 4.46043 2.3059C2.50365 3.89278 1.20405 6.14823 0.812434 8.63696C0.420822 11.1257 0.964965 13.6713 2.33984 15.7824L9.42424 26.6582C9.58189 26.9002 9.79745 27.099 10.0514 27.2366C10.3053 27.3743 10.5896 27.4463 10.8784 27.4463C11.1672 27.4463 11.4515 27.3743 11.7054 27.2366C11.9593 27.099 12.1749 26.9002 12.3325 26.6582L19.4172 15.7824C20.6929 13.824 21.2567 11.4866 21.014 9.16202C20.7714 6.83741 19.737 4.66685 18.0843 3.01417ZM17.8462 14.7589L10.8784 25.4552L3.91063 14.7589C1.77781 11.4848 2.23525 7.10313 4.9983 4.33997C5.77048 3.56777 6.6872 2.95522 7.69611 2.53731C8.70503 2.11939 9.78638 1.9043 10.8784 1.9043C11.9705 1.9043 13.0518 2.11939 14.0607 2.53731C15.0696 2.95522 15.9864 3.56777 16.7585 4.33997C19.5216 7.10313 19.979 11.4848 17.8462 14.7589Z" fill="url(#paint0_linear_32_171)"/>
<defs>
<linearGradient id="paint0_linear_32_171" x1="10.8788" y1="0.0302734" x2="10.8788" y2="27.4463" gradientUnits="userSpaceOnUse">
<stop stop-color="#8869E9"/>
<stop offset="1" stop-color="#89C8E1"/>
</linearGradient>
</defs>
</svg>
