<svg width="30" height="29" viewBox="0 0 30 29" fill="none" xmlns="http://www.w3.org/2000/svg">
<path fill-rule="evenodd" clip-rule="evenodd" d="M13.7572 17.6089L19.0903 26.2612C19.3236 26.6404 19.6882 26.636 19.8355 26.6156C19.9828 26.5951 20.3372 26.5047 20.4655 26.0745L27.1345 3.55056C27.2511 3.15244 27.0368 2.88119 26.9405 2.78494C26.8472 2.68869 26.5803 2.48306 26.1938 2.59244L3.65384 9.19285C3.22655 9.31827 3.13321 9.67702 3.1128 9.82431C3.09238 9.97452 3.08655 10.3464 3.46425 10.5841L12.2157 16.0572L19.9478 8.24348C20.3722 7.81473 21.0649 7.81035 21.4951 8.23473C21.9253 8.6591 21.9282 9.35327 21.5038 9.78202L13.7572 17.6089ZM19.7218 28.8118C18.7068 28.8118 17.7763 28.2956 17.228 27.4089L11.574 18.2345L2.30488 12.4376C1.30592 11.812 0.783837 10.6979 0.945712 9.52681C1.10613 8.35577 1.90967 7.42535 3.03842 7.09431L25.5784 0.493894C26.6153 0.190561 27.7265 0.477853 28.4907 1.2391C29.2549 2.00764 29.5393 3.13056 29.2301 4.17181L22.5611 26.6943C22.2272 27.8274 21.2938 28.6281 20.1257 28.7841C19.9886 28.8016 19.8559 28.8118 19.7218 28.8118Z" fill="url(#paint0_linear_966_135)"/>
<defs>
<linearGradient id="paint0_linear_966_135" x1="15.1348" y1="0.375" x2="15.1348" y2="28.8118" gradientUnits="userSpaceOnUse">
<stop stop-color="#7B70E3"/>
<stop offset="1" stop-color="#89CAE0"/>
</linearGradient>
</defs>
</svg>
