<svg width="24" height="26" viewBox="0 0 24 26" fill="none" xmlns="http://www.w3.org/2000/svg">
<path fill-rule="evenodd" clip-rule="evenodd" d="M23.25 2.28252C23.25 1.11127 21.9937 0.328769 20.9363 0.910019C19.515 1.69002 15.3075 3.96252 12.7887 4.96377C9.8575 6.12752 7.33375 6.56502 4.44125 6.70002C2.4375 6.79252 0.75 8.41127 0.75 10.5V15.5C0.75 17.5888 2.4375 19.2075 4.44125 19.3C4.78375 19.3163 5.12 19.3363 5.45375 19.3613L4.52375 24.005C4.45877 24.3302 4.52565 24.668 4.70967 24.9439C4.89369 25.2198 5.17978 25.4113 5.505 25.4763C5.83022 25.5412 6.16794 25.4744 6.44385 25.2903C6.71976 25.1063 6.91127 24.8202 6.97625 24.495L7.9425 19.66C9.52125 19.9288 11.0862 20.36 12.7887 21.0363C15.3075 22.0375 19.5138 24.3113 20.9363 25.09C21.9937 25.6713 23.25 24.8888 23.25 23.7175V2.28252ZM8.25 17.1775C10.0225 17.4713 11.7913 17.95 13.7125 18.7138C15.7775 19.5338 18.82 21.1125 20.75 22.1463V3.85377C18.82 4.88752 15.7775 6.46627 13.7125 7.28627C11.7913 8.04877 10.0225 8.52877 8.25 8.82377V17.1775ZM5.75 9.12377C5.35625 9.15377 4.96 9.17877 4.5575 9.19752C3.80375 9.23252 3.25 9.82752 3.25 10.5V15.5C3.25 16.1725 3.80375 16.7675 4.5575 16.8025C4.96 16.8213 5.3575 16.8463 5.75 16.8775V9.12252V9.12377Z" fill="white"/>
</svg>
