<svg width="50" height="36" viewBox="0 0 50 36" fill="none" xmlns="http://www.w3.org/2000/svg">
<path d="M48.5938 20.5937C48.3254 20.8005 47.995 20.9107 47.6563 20.9062C47.4137 20.9062 47.1744 20.8498 46.9575 20.7413C46.7405 20.6328 46.5518 20.4753 46.4063 20.2812C45.4645 19.0153 44.2387 17.9883 42.8274 17.2826C41.4162 16.577 39.859 16.2126 38.2813 16.2187C37.8669 16.2187 37.4694 16.0541 37.1764 15.7611C36.8834 15.4681 36.7188 15.0706 36.7188 14.6562C36.7188 14.2418 36.8834 13.8444 37.1764 13.5514C37.4694 13.2584 37.8669 13.0937 38.2813 13.0937C39.1705 13.0928 40.0412 12.8389 40.7916 12.3617C41.542 11.8845 42.1411 11.2037 42.5192 10.3988C42.8972 9.59389 43.0384 8.69804 42.9264 7.81585C42.8144 6.93366 42.4538 6.10153 41.8866 5.41661C41.3194 4.73168 40.5691 4.22222 39.7233 3.9477C38.8775 3.67317 37.971 3.64491 37.1097 3.86622C36.2484 4.08752 35.4678 4.54926 34.8591 5.19752C34.2504 5.84579 33.8386 6.65384 33.6719 7.52734C33.6416 7.73621 33.5692 7.93677 33.4593 8.11693C33.3493 8.29708 33.204 8.45309 33.0321 8.57554C32.8602 8.69799 32.6652 8.78433 32.459 8.82938C32.2528 8.87442 32.0396 8.87721 31.8323 8.8376C31.625 8.79799 31.4279 8.71678 31.2528 8.59889C31.0777 8.48099 30.9284 8.32885 30.8137 8.15165C30.6991 7.97444 30.6215 7.77585 30.5857 7.56784C30.5499 7.35984 30.5566 7.14673 30.6055 6.9414C30.8373 5.72621 31.3543 4.58344 32.1141 3.60715C32.8739 2.63085 33.8547 1.84895 34.9757 1.32578C36.0967 0.802605 37.326 0.553132 38.5622 0.597889C39.7985 0.642645 41.0065 0.980351 42.0868 1.58321C43.167 2.18607 44.0887 3.03686 44.7759 4.06553C45.4631 5.09421 45.8962 6.27138 46.0395 7.50015C46.1828 8.72891 46.0323 9.97415 45.6003 11.1334C45.1683 12.2926 44.4672 13.3327 43.5547 14.168C45.6783 15.0887 47.5235 16.5501 48.9063 18.4062C49.0294 18.5704 49.1189 18.7572 49.1699 18.956C49.2208 19.1547 49.2321 19.3616 49.2031 19.5647C49.174 19.7678 49.1053 19.9633 49.0007 20.1398C48.8962 20.3164 48.7579 20.4706 48.5938 20.5937ZM37.6563 33.5039C37.8326 33.8776 37.8557 34.3055 37.7207 34.696C37.5856 35.0866 37.3031 35.4088 36.9336 35.5937C36.718 35.6897 36.4859 35.7428 36.25 35.75C35.9572 35.748 35.6708 35.6647 35.4225 35.5096C35.1742 35.3544 34.9739 35.1334 34.8438 34.8711C33.9428 33.028 32.5424 31.4749 30.8021 30.3885C29.0618 29.3022 27.0515 28.7262 25 28.7262C22.9485 28.7262 20.9382 29.3022 19.1979 30.3885C17.4576 31.4749 16.0573 33.028 15.1563 34.8711C15.0666 35.0559 14.9414 35.2211 14.7878 35.3575C14.6342 35.4938 14.4552 35.5985 14.2612 35.6657C14.0671 35.7328 13.8616 35.761 13.6566 35.7486C13.4516 35.7363 13.2511 35.6837 13.0664 35.5937C12.6969 35.4088 12.4144 35.0866 12.2793 34.696C12.1443 34.3055 12.1674 33.8776 12.3438 33.5039C13.7959 30.5139 16.2589 28.1339 19.2969 26.7851C17.7418 25.5933 16.5993 23.9441 16.0298 22.0694C15.4603 20.1948 15.4924 18.1888 16.1217 16.3333C16.751 14.4778 17.9458 12.8661 19.5382 11.7247C21.1307 10.5832 23.0407 9.96938 25 9.96938C26.9593 9.96938 28.8693 10.5832 30.4618 11.7247C32.0542 12.8661 33.249 14.4778 33.8783 16.3333C34.5076 18.1888 34.5397 20.1948 33.9702 22.0694C33.4007 23.9441 32.2582 25.5933 30.7031 26.7851C33.7412 28.1339 36.2041 30.5139 37.6563 33.5039ZM25 25.5937C26.2361 25.5937 27.4445 25.2272 28.4723 24.5404C29.5001 23.8537 30.3012 22.8776 30.7743 21.7355C31.2473 20.5935 31.3711 19.3368 31.1299 18.1244C30.8888 16.912 30.2935 15.7984 29.4194 14.9243C28.5453 14.0502 27.4317 13.455 26.2193 13.2138C25.0069 12.9727 23.7503 13.0964 22.6082 13.5695C21.4662 14.0425 20.4901 14.8436 19.8033 15.8714C19.1166 16.8992 18.75 18.1076 18.75 19.3437C18.7552 20.9998 19.4153 22.5865 20.5863 23.7575C21.7573 24.9285 23.344 25.5886 25 25.5937ZM13.2813 14.6562C13.2813 14.2418 13.1166 13.8444 12.8236 13.5514C12.5306 13.2584 12.1332 13.0937 11.7188 13.0937C10.8295 13.0928 9.95883 12.8389 9.20844 12.3617C8.45804 11.8845 7.85886 11.2037 7.48085 10.3988C7.10284 9.59389 6.96159 8.69804 7.0736 7.81585C7.1856 6.93366 7.54624 6.10153 8.1134 5.41661C8.68057 4.73168 9.43086 4.22222 10.2767 3.9477C11.1225 3.67317 12.029 3.64491 12.8903 3.86622C13.7516 4.08752 14.5322 4.54926 15.1409 5.19752C15.7496 5.84579 16.1614 6.65384 16.3281 7.52734C16.3585 7.73621 16.4308 7.93677 16.5407 8.11693C16.6507 8.29708 16.796 8.45309 16.9679 8.57554C17.1398 8.69799 17.3348 8.78433 17.541 8.82938C17.7472 8.87442 17.9604 8.87721 18.1677 8.8376C18.375 8.79799 18.5721 8.71678 18.7472 8.59889C18.9223 8.48099 19.0716 8.32885 19.1863 8.15165C19.3009 7.97444 19.3785 7.77585 19.4143 7.56784C19.4501 7.35984 19.4434 7.14673 19.3945 6.9414C19.1627 5.72621 18.6457 4.58344 17.8859 3.60715C17.1261 2.63085 16.1454 1.84895 15.0243 1.32578C13.9033 0.802605 12.6741 0.553132 11.4378 0.597889C10.2015 0.642645 8.99349 0.980351 7.91323 1.58321C6.83296 2.18607 5.91131 3.03686 5.22412 4.06553C4.53693 5.09421 4.10385 6.27138 3.96052 7.50015C3.81719 8.72891 3.96772 9.97415 4.39971 11.1334C4.8317 12.2926 5.53281 13.3327 6.44532 14.168C4.32171 15.0887 2.47654 16.5501 1.09376 18.4062C0.845116 18.7378 0.738355 19.1545 0.79696 19.5647C0.855565 19.975 1.07474 20.3451 1.40626 20.5937C1.67463 20.8005 2.00498 20.9107 2.34376 20.9062C2.58633 20.9062 2.82557 20.8498 3.04253 20.7413C3.25949 20.6328 3.44821 20.4753 3.59376 20.2812C4.53553 19.0153 5.76136 17.9883 7.17258 17.2826C8.5838 16.577 10.141 16.2126 11.7188 16.2187C12.1332 16.2187 12.5306 16.0541 12.8236 15.7611C13.1166 15.4681 13.2813 15.0706 13.2813 14.6562Z" fill="white"/>
</svg>
