<svg width="12" height="12" viewBox="0 0 12 12" fill="none" xmlns="http://www.w3.org/2000/svg">
<path d="M0.999995 5.59373C0.999753 4.70069 1.23874 3.8239 1.69211 3.05451C2.14548 2.28512 2.79668 1.65122 3.57799 1.21873L3.09299 0.344727C1.93352 0.986793 1.01927 1.9947 0.49297 3.21111C-0.0333304 4.42751 -0.142059 5.78394 0.183759 7.06865C0.509576 8.35336 1.2516 9.49403 2.29399 10.3126C3.33639 11.1312 4.62048 11.5815 5.9458 11.5934C7.27113 11.6053 8.5631 11.1781 9.62001 10.3783C10.6769 9.5786 11.4393 8.45142 11.7881 7.17277C12.1369 5.89412 12.0526 4.53595 11.5482 3.3103C11.0438 2.08465 10.1478 1.06049 9 0.397727L8.49899 1.26273C9.25922 1.70141 9.89058 2.33249 10.3296 3.09252C10.7686 3.85256 10.9998 4.71477 11 5.59249C11.0002 6.47021 10.7693 7.33251 10.3305 8.09271C9.89181 8.85291 9.26069 9.48423 8.50062 9.92319C7.74056 10.3622 6.87833 10.5933 6.00061 10.5934C5.12289 10.5935 4.26061 10.3626 3.50044 9.92381C2.74026 9.48503 2.10899 8.85387 1.67007 8.09378C1.23115 7.33369 1.00005 6.47145 0.999995 5.59373Z" fill="white"/>
</svg>
