<svg width="22" height="26" viewBox="0 0 22 26" fill="none" xmlns="http://www.w3.org/2000/svg">
<path fill-rule="evenodd" clip-rule="evenodd" d="M10.6045 0.5C12.0207 0.5 19.452 3.05125 20.4357 4.035C21.2557 4.855 21.2432 5.5175 21.1857 8.6925C21.1632 9.965 21.132 11.6987 21.132 14.0987C21.132 22.7013 11.2945 25.7787 10.8757 25.905C10.787 25.9325 10.6957 25.945 10.6045 25.945C10.5132 25.945 10.422 25.9325 10.3332 25.905C9.9145 25.7787 0.0769983 22.7013 0.0769983 14.0987C0.0769983 11.7025 0.0457483 9.96875 0.0232483 8.69625C0.0129804 8.12862 0.00414753 7.64122 0.0012409 7.21884L0.00088501 6.74221C0.0116077 5.17641 0.158561 4.65 0.774498 4.035C1.75575 3.05125 9.187 0.5 10.6045 0.5ZM10.6045 2.375C9.5445 2.375 2.857 4.73 2.08575 5.37375C1.85825 5.6025 1.8495 6 1.89825 8.66125C1.92075 9.94375 1.952 11.6862 1.952 14.0987C1.952 20.6 9.1045 23.4862 10.6032 24.0175C12.1007 23.4837 19.257 20.5812 19.257 14.0987C19.257 11.6837 19.2882 9.94 19.312 8.6575C19.3595 5.99875 19.3507 5.60125 19.1095 5.36125C18.3532 4.73 11.6645 2.375 10.6045 2.375ZM15.2564 9.67437C15.6226 10.0406 15.6226 10.6344 15.2564 11.0006L10.3839 15.8744C10.2439 16.0154 10.0631 16.1068 9.86899 16.1377L9.72137 16.1494C9.47262 16.1494 9.23387 16.0506 9.05762 15.8744L6.69262 13.5069C6.32762 13.1406 6.32762 12.5456 6.69387 12.1806C7.05887 11.8144 7.65387 11.8144 8.02012 12.1806L9.72137 13.8844L13.9314 9.67437C14.2976 9.30812 14.8901 9.30812 15.2564 9.67437Z" fill="black"/>
</svg>
