<svg width="22" height="26" viewBox="0 0 22 26" fill="none" xmlns="http://www.w3.org/2000/svg">
<path fill-rule="evenodd" clip-rule="evenodd" d="M10.6046 0.5C12.0208 0.5 19.4521 3.05125 20.4358 4.035C21.2558 4.855 21.2433 5.5175 21.1858 8.6925C21.1633 9.965 21.1321 11.6987 21.1321 14.0987C21.1321 22.7013 11.2946 25.7787 10.8758 25.905C10.7871 25.9325 10.6958 25.945 10.6046 25.945C10.5133 25.945 10.4221 25.9325 10.3333 25.905C9.91459 25.7787 0.0770898 22.7013 0.0770898 14.0987C0.0770898 11.7025 0.0458398 9.96875 0.0233398 8.69625C0.013072 8.12862 0.00423908 7.64122 0.00133245 7.21884L0.000976562 6.74221C0.0116992 5.17641 0.158652 4.65 0.77459 4.035C1.75584 3.05125 9.18709 0.5 10.6046 0.5ZM10.6046 2.375C9.54459 2.375 2.85709 4.73 2.08584 5.37375C1.85834 5.6025 1.84959 6 1.89834 8.66125C1.92084 9.94375 1.95209 11.6862 1.95209 14.0987C1.95209 20.6 9.10459 23.4862 10.6033 24.0175C12.1008 23.4837 19.2571 20.5812 19.2571 14.0987C19.2571 11.6837 19.2883 9.94 19.3121 8.6575C19.3596 5.99875 19.3508 5.60125 19.1096 5.36125C18.3533 4.73 11.6646 2.375 10.6046 2.375ZM15.2565 9.67437C15.6227 10.0406 15.6227 10.6344 15.2565 11.0006L10.384 15.8744C10.244 16.0154 10.0632 16.1068 9.86908 16.1377L9.72147 16.1494C9.47271 16.1494 9.23396 16.0506 9.05771 15.8744L6.69271 13.5069C6.32771 13.1406 6.32771 12.5456 6.69396 12.1806C7.05896 11.8144 7.65396 11.8144 8.02022 12.1806L9.72147 13.8844L13.9315 9.67437C14.2977 9.30812 14.8902 9.30812 15.2565 9.67437Z" fill="url(#paint0_linear_27_1089)"/>
<defs>
<linearGradient id="paint0_linear_27_1089" x1="10.6049" y1="0.5" x2="10.6049" y2="25.945" gradientUnits="userSpaceOnUse">
<stop stop-color="#AB95EF"/>
<stop offset="1" stop-color="#84A6E2"/>
</linearGradient>
</defs>
</svg>
