<svg width="9" height="7" viewBox="0 0 9 7" fill="none" xmlns="http://www.w3.org/2000/svg">
<path d="M0 3.50001C0 3.30384 0.145773 3.14172 0.334903 3.11606L0.387482 3.11253L7.19891 3.11284L4.73814 0.662124C4.5865 0.511129 4.58597 0.26579 4.73696 0.114143C4.87423 -0.0237179 5.08947 -0.0366879 5.2414 0.0755386L5.28494 0.112963L8.41064 3.22522C8.43062 3.24513 8.44799 3.26667 8.46272 3.28941C8.46688 3.29626 8.47112 3.30327 8.47514 3.31041C8.47883 3.31654 8.48217 3.3229 8.48532 3.32933C8.48969 3.33868 8.49397 3.34835 8.49785 3.35821C8.501 3.36582 8.50363 3.37321 8.50604 3.38067C8.50889 3.38991 8.51166 3.39977 8.51405 3.40977C8.51582 3.41675 8.51723 3.42347 8.51845 3.43022C8.52018 3.44026 8.52164 3.45065 8.52269 3.46116C8.52359 3.46918 8.52414 3.47712 8.52444 3.48507C8.52452 3.48989 8.52461 3.49494 8.52461 3.50001L8.52442 3.51502C8.52412 3.52262 8.5236 3.53022 8.52286 3.5378L8.52461 3.50001C8.52461 3.52446 8.52235 3.54838 8.51802 3.57158C8.51701 3.57712 8.51582 3.58281 8.51449 3.58847C8.51174 3.60014 8.50856 3.61137 8.5049 3.62238C8.5031 3.62785 8.501 3.6337 8.49876 3.6395C8.49424 3.65116 8.48932 3.66227 8.4839 3.6731C8.48139 3.67819 8.47857 3.68352 8.47562 3.6888C8.47078 3.6974 8.46579 3.70558 8.46051 3.71355C8.45679 3.71919 8.45267 3.72507 8.44837 3.73085L8.44501 3.73531C8.43457 3.74895 8.42325 3.76188 8.41112 3.774L8.41066 3.77436L5.28497 6.88714C5.13333 7.03814 4.88799 7.03764 4.73698 6.886C4.59971 6.74815 4.58765 6.53286 4.70051 6.3814L4.73812 6.33802L7.19787 3.8878L0.387482 3.88749C0.173482 3.88749 0 3.71401 0 3.50001Z" fill="black"/>
</svg>
