<svg width="41" height="40" viewBox="0 0 41 40" fill="none" xmlns="http://www.w3.org/2000/svg">
<path d="M40.7222 34.5695C40.6258 34.4142 40.4996 34.2795 40.351 34.1731C40.2024 34.0667 40.0342 33.9906 39.8561 33.9494C39.6781 33.9081 39.4936 33.9023 39.3133 33.9325C39.1331 33.9626 38.9605 34.0281 38.8055 34.125C36.6906 35.4418 34.3073 36.2676 31.8311 36.5418C29.3549 36.816 26.8487 36.5316 24.4969 35.7095C22.1451 34.8874 20.0075 33.5484 18.2414 31.7912C16.4753 30.034 15.1256 27.9032 14.2917 25.5556H30.5555C30.9239 25.5556 31.2772 25.4093 31.5376 25.1488C31.7981 24.8883 31.9444 24.5351 31.9444 24.1667C31.9444 23.7984 31.7981 23.4451 31.5376 23.1846C31.2772 22.9241 30.9239 22.7778 30.5555 22.7778H13.5694C13.2349 20.9411 13.2349 19.059 13.5694 17.2223H30.5555C30.9239 17.2223 31.2772 17.0759 31.5376 16.8155C31.7981 16.555 31.9444 16.2017 31.9444 15.8334C31.9444 15.465 31.7981 15.1117 31.5376 14.8513C31.2772 14.5908 30.9239 14.4445 30.5555 14.4445H14.2917C15.123 12.1014 16.468 9.97407 18.2282 8.21823C19.9883 6.46239 22.1189 5.12257 24.464 4.29694C26.8091 3.4713 29.3092 3.18077 31.7811 3.44662C34.253 3.71247 36.6341 4.52797 38.75 5.83337C39.0631 6.0286 39.4409 6.09146 39.8004 6.00811C40.1598 5.92476 40.4714 5.70203 40.6667 5.38893C40.8619 5.07583 40.9247 4.69799 40.8414 4.33855C40.758 3.9791 40.5353 3.66749 40.2222 3.47226C37.683 1.90142 34.8161 0.936455 31.8438 0.652176C28.8716 0.367898 25.8737 0.771943 23.0828 1.83299C20.2918 2.89403 17.7827 4.58358 15.75 6.77063C13.7172 8.95768 12.2155 11.5835 11.3611 14.4445H1.91666C1.5483 14.4445 1.19503 14.5908 0.934567 14.8513C0.6741 15.1117 0.527771 15.465 0.527771 15.8334C0.527771 16.2017 0.6741 16.555 0.934567 16.8155C1.19503 17.0759 1.5483 17.2223 1.91666 17.2223H10.7639C10.6235 18.1417 10.5492 19.07 10.5417 20C10.5492 20.9301 10.6235 21.8584 10.7639 22.7778H1.91666C1.5483 22.7778 1.19503 22.9241 0.934567 23.1846C0.6741 23.4451 0.527771 23.7984 0.527771 24.1667C0.527771 24.5351 0.6741 24.8883 0.934567 25.1488C1.19503 25.4093 1.5483 25.5556 1.91666 25.5556H11.3611C12.2173 28.4233 13.7239 31.0547 15.7635 33.2449C17.8032 35.435 20.3209 37.1248 23.1206 38.1825C25.9202 39.2403 28.9263 39.6375 31.9046 39.3433C34.8829 39.0491 37.7531 38.0713 40.2917 36.4862C40.4458 36.3886 40.5792 36.2616 40.6843 36.1125C40.7893 35.9634 40.864 35.795 40.904 35.617C40.9439 35.439 40.9485 35.2549 40.9173 35.0752C40.8861 34.8954 40.8198 34.7236 40.7222 34.5695Z" fill="white"/>
</svg>
