<svg width="25" height="27" viewBox="0 0 25 27" fill="none" xmlns="http://www.w3.org/2000/svg">
<path fill-rule="evenodd" clip-rule="evenodd" d="M13.334 0.500977C14.229 0.500977 15.099 0.868477 15.7227 1.50723C16.3452 2.14973 16.689 3.03098 16.6627 3.92473C16.6652 4.12598 16.7315 4.35848 16.8515 4.56223C17.0502 4.89973 17.364 5.13723 17.7365 5.23473C18.109 5.32723 18.499 5.27723 18.8302 5.08098C20.4302 4.16723 22.4665 4.71473 23.3802 6.30223L24.159 7.65098C24.179 7.68723 24.1965 7.72223 24.2115 7.75848C25.039 9.32223 24.4865 11.291 22.949 12.1897C22.7252 12.3185 22.544 12.4985 22.419 12.716C22.2252 13.0522 22.1715 13.4522 22.269 13.8197C22.369 14.1947 22.6077 14.506 22.944 14.6985C23.7027 15.1347 24.269 15.8697 24.4952 16.7185C24.7215 17.566 24.5977 18.486 24.1565 19.2447L23.3265 20.6272C22.4127 22.1972 20.3765 22.741 18.7927 21.826C18.5815 21.7047 18.3377 21.6385 18.0952 21.6322H18.0877C17.7265 21.6322 17.3552 21.786 17.0852 22.0547C16.8115 22.3285 16.6615 22.6935 16.664 23.081C16.6552 24.9172 15.1615 26.4022 13.334 26.4022H11.7677C9.9315 26.4022 8.43775 24.9097 8.43775 23.0735C8.43525 22.8472 8.37025 22.6122 8.249 22.4085C8.05275 22.066 7.73525 21.821 7.369 21.7235C7.00525 21.626 6.6065 21.6797 6.279 21.8697C5.494 22.3072 4.57025 22.4135 3.72525 22.176C2.8815 21.9372 2.15275 21.3572 1.72525 20.5885L0.943997 19.2422C0.0302471 17.6572 0.573997 15.626 2.1565 14.711C2.60525 14.4522 2.884 13.9697 2.884 13.4522C2.884 12.9347 2.60525 12.451 2.1565 12.1922C0.572747 11.2722 0.0302471 9.23598 0.942747 7.65098L1.79025 6.25973C2.6915 4.69223 4.729 4.13973 6.31775 5.05223C6.534 5.18098 6.769 5.24598 7.00775 5.24848C7.7865 5.24848 8.43775 4.60598 8.45025 3.81598C8.44525 2.94473 8.789 2.10848 9.41525 1.47723C10.044 0.847227 10.879 0.500977 11.7677 0.500977H13.334ZM13.334 2.37598H11.7677C11.3802 2.37598 11.0177 2.52723 10.744 2.79973C10.4715 3.07348 10.3227 3.43723 10.3252 3.82473C10.299 5.65223 8.80525 7.12348 6.9965 7.12348C6.4165 7.11723 5.85775 6.96098 5.37275 6.67098C4.6915 6.28348 3.8015 6.52223 3.40275 7.21598L2.5565 8.60723C2.169 9.27973 2.4065 10.1685 3.0965 10.5697C4.12025 11.1622 4.759 12.2672 4.759 13.4522C4.759 14.6372 4.12025 15.741 3.094 16.3347C2.40775 16.7322 2.17025 17.616 2.56775 18.3035L3.3565 19.6635C3.5515 20.0147 3.87025 20.2685 4.239 20.3722C4.6065 20.4747 5.0115 20.431 5.349 20.2435C5.84525 19.9522 6.42275 19.801 7.00275 19.801C7.289 19.801 7.57525 19.8372 7.85525 19.9122C8.70025 20.1397 9.434 20.7047 9.869 21.4635C10.1515 21.9397 10.3077 22.496 10.3127 23.0635C10.3127 23.876 10.9652 24.5272 11.7677 24.5272H13.334C14.1327 24.5272 14.7852 23.8797 14.789 23.081C14.784 22.1985 15.129 21.3597 15.7602 20.7285C16.3827 20.106 17.2527 19.7322 18.1227 19.7572C18.6927 19.771 19.2415 19.9247 19.7252 20.1997C20.4215 20.5985 21.3102 20.361 21.7127 19.6735L22.5427 18.2897C22.7277 17.971 22.7815 17.571 22.6827 17.2022C22.5852 16.8335 22.3402 16.5135 22.0102 16.3247C21.2377 15.8797 20.6865 15.1622 20.4577 14.3022C20.2315 13.4585 20.3552 12.5372 20.7965 11.7785C21.084 11.2785 21.5052 10.8572 22.0102 10.5672C22.6877 10.171 22.9252 9.28473 22.5315 8.59473C22.5152 8.56723 22.5002 8.53848 22.4877 8.50848L21.7552 7.23848C21.3565 6.54473 20.469 6.30598 19.7727 6.70223C19.0202 7.14723 18.1252 7.27473 17.2652 7.04848C16.4065 6.82598 15.6865 6.28223 15.2377 5.51473C14.9502 5.03473 14.794 4.47598 14.789 3.90723C14.8002 3.47973 14.6502 3.09598 14.3777 2.81473C14.1065 2.53473 13.7252 2.37598 13.334 2.37598ZM12.5564 9.2186C14.8901 9.2186 16.7889 11.1186 16.7889 13.4524C16.7889 15.7861 14.8901 17.6836 12.5564 17.6836C10.2226 17.6836 8.32387 15.7861 8.32387 13.4524C8.32387 11.1186 10.2226 9.2186 12.5564 9.2186ZM12.5564 11.0936C11.2564 11.0936 10.1989 12.1524 10.1989 13.4524C10.1989 14.7524 11.2564 15.8086 12.5564 15.8086C13.8564 15.8086 14.9139 14.7524 14.9139 13.4524C14.9139 12.1524 13.8564 11.0936 12.5564 11.0936Z" fill="url(#paint0_linear_41_447)"/>
<defs>
<linearGradient id="paint0_linear_41_447" x1="12.553" y1="0.500977" x2="12.553" y2="26.4022" gradientUnits="userSpaceOnUse">
<stop stop-color="#7856E5"/>
<stop offset="1" stop-color="#84A6E2"/>
</linearGradient>
</defs>
</svg>
