<svg width="25" height="27" viewBox="0 0 25 27" fill="none" xmlns="http://www.w3.org/2000/svg">
<path fill-rule="evenodd" clip-rule="evenodd" d="M13.334 0.50061C14.229 0.50061 15.099 0.86811 15.7227 1.50686C16.3452 2.14936 16.689 3.03061 16.6627 3.92436C16.6652 4.12561 16.7315 4.35811 16.8515 4.56186C17.0502 4.89936 17.364 5.13686 17.7365 5.23436C18.109 5.32686 18.499 5.27686 18.8302 5.08061C20.4302 4.16686 22.4665 4.71436 23.3802 6.30186L24.159 7.65061C24.179 7.68686 24.1965 7.72186 24.2115 7.75811C25.039 9.32186 24.4865 11.2906 22.949 12.1894C22.7252 12.3181 22.544 12.4981 22.419 12.7156C22.2252 13.0519 22.1715 13.4519 22.269 13.8194C22.369 14.1944 22.6077 14.5056 22.944 14.6981C23.7027 15.1344 24.269 15.8694 24.4952 16.7181C24.7215 17.5656 24.5977 18.4856 24.1565 19.2444L23.3265 20.6269C22.4127 22.1969 20.3765 22.7406 18.7927 21.8256C18.5815 21.7044 18.3377 21.6381 18.0952 21.6319H18.0877C17.7265 21.6319 17.3552 21.7856 17.0852 22.0544C16.8115 22.3281 16.6615 22.6931 16.664 23.0806C16.6552 24.9169 15.1615 26.4019 13.334 26.4019H11.7677C9.9315 26.4019 8.43775 24.9094 8.43775 23.0731C8.43525 22.8469 8.37025 22.6119 8.249 22.4081C8.05275 22.0656 7.73525 21.8206 7.369 21.7231C7.00525 21.6256 6.6065 21.6794 6.279 21.8694C5.494 22.3069 4.57025 22.4131 3.72525 22.1756C2.8815 21.9369 2.15275 21.3569 1.72525 20.5881L0.943997 19.2419C0.0302471 17.6569 0.573997 15.6256 2.1565 14.7106C2.60525 14.4519 2.884 13.9694 2.884 13.4519C2.884 12.9344 2.60525 12.4506 2.1565 12.1919C0.572747 11.2719 0.0302471 9.23561 0.942747 7.65061L1.79025 6.25936C2.6915 4.69186 4.729 4.13936 6.31775 5.05186C6.534 5.18061 6.769 5.24561 7.00775 5.24811C7.7865 5.24811 8.43775 4.60561 8.45025 3.81561C8.44525 2.94436 8.789 2.10811 9.41525 1.47686C10.044 0.84686 10.879 0.50061 11.7677 0.50061H13.334ZM13.334 2.37561H11.7677C11.3802 2.37561 11.0177 2.52686 10.744 2.79936C10.4715 3.07311 10.3227 3.43686 10.3252 3.82436C10.299 5.65186 8.80525 7.12311 6.9965 7.12311C6.4165 7.11686 5.85775 6.96061 5.37275 6.67061C4.6915 6.28311 3.8015 6.52186 3.40275 7.21561L2.5565 8.60686C2.169 9.27936 2.4065 10.1681 3.0965 10.5694C4.12025 11.1619 4.759 12.2669 4.759 13.4519C4.759 14.6369 4.12025 15.7406 3.094 16.3344C2.40775 16.7319 2.17025 17.6156 2.56775 18.3031L3.3565 19.6631C3.5515 20.0144 3.87025 20.2681 4.239 20.3719C4.6065 20.4744 5.0115 20.4306 5.349 20.2431C5.84525 19.9519 6.42275 19.8006 7.00275 19.8006C7.289 19.8006 7.57525 19.8369 7.85525 19.9119C8.70025 20.1394 9.434 20.7044 9.869 21.4631C10.1515 21.9394 10.3077 22.4956 10.3127 23.0631C10.3127 23.8756 10.9652 24.5269 11.7677 24.5269H13.334C14.1327 24.5269 14.7852 23.8794 14.789 23.0806C14.784 22.1981 15.129 21.3594 15.7602 20.7281C16.3827 20.1056 17.2527 19.7319 18.1227 19.7569C18.6927 19.7706 19.2415 19.9244 19.7252 20.1994C20.4215 20.5981 21.3102 20.3606 21.7127 19.6731L22.5427 18.2894C22.7277 17.9706 22.7815 17.5706 22.6827 17.2019C22.5852 16.8331 22.3402 16.5131 22.0102 16.3244C21.2377 15.8794 20.6865 15.1619 20.4577 14.3019C20.2315 13.4581 20.3552 12.5369 20.7965 11.7781C21.084 11.2781 21.5052 10.8569 22.0102 10.5669C22.6877 10.1706 22.9252 9.28436 22.5315 8.59436C22.5152 8.56686 22.5002 8.53811 22.4877 8.50811L21.7552 7.23811C21.3565 6.54436 20.469 6.30561 19.7727 6.70186C19.0202 7.14686 18.1252 7.27436 17.2652 7.04811C16.4065 6.82561 15.6865 6.28186 15.2377 5.51436C14.9502 5.03436 14.794 4.47561 14.789 3.90686C14.8002 3.47936 14.6502 3.09561 14.3777 2.81436C14.1065 2.53436 13.7252 2.37561 13.334 2.37561ZM12.5564 9.21824C14.8901 9.21824 16.7889 11.1182 16.7889 13.452C16.7889 15.7857 14.8901 17.6832 12.5564 17.6832C10.2226 17.6832 8.32387 15.7857 8.32387 13.452C8.32387 11.1182 10.2226 9.21824 12.5564 9.21824ZM12.5564 11.0932C11.2564 11.0932 10.1989 12.152 10.1989 13.452C10.1989 14.752 11.2564 15.8082 12.5564 15.8082C13.8564 15.8082 14.9139 14.752 14.9139 13.452C14.9139 12.152 13.8564 11.0932 12.5564 11.0932Z" fill="black"/>
</svg>
