<svg width="40" height="47" viewBox="0 0 40 47" fill="none" xmlns="http://www.w3.org/2000/svg">
<path fill-rule="evenodd" clip-rule="evenodd" d="M26.0281 0.584015C26.1267 0.584015 26.2234 0.592336 26.3175 0.608313L26.6271 0.61014C27.0946 0.61014 27.5415 0.800348 27.8669 1.13722L39.4765 13.2303C39.7813 13.5489 39.9534 13.9774 39.9534 14.4197V35.4801C39.9898 41.2299 35.5073 45.9026 29.7483 46.1089H11.0942C5.50199 45.9887 1.01704 41.4698 0.878768 35.9344L0.87793 10.8745C1.01314 5.18889 5.70647 0.61014 11.3486 0.61014L25.7386 0.608313C25.8327 0.592336 25.9294 0.584015 26.0281 0.584015ZM24.3079 4.04672L11.3554 4.04764C7.55814 4.04764 4.4048 7.12306 4.31543 10.9158V35.4801C4.23293 39.3783 7.30376 42.5866 11.1652 42.6714H29.6888C33.5136 42.5339 36.5408 39.3783 36.5158 35.4916L36.5156 16.5867L31.9131 16.589C27.717 16.5776 24.3093 13.1584 24.3093 8.96922L24.3079 4.04672ZM19.533 16.9898C20.0074 16.9898 20.4371 17.1823 20.7482 17.4934L20.7506 17.4949L26.1268 22.8941C26.796 23.5678 26.7937 24.6541 26.1222 25.3232C25.4485 25.9924 24.36 25.9924 23.6908 25.3187L21.2508 22.8682L21.2518 32.5525C21.2518 33.5013 20.4818 34.2713 19.533 34.2713C18.5843 34.2713 17.8143 33.5013 17.8143 32.5525L17.8133 22.8682L15.3766 25.3187C15.042 25.6578 14.5997 25.8251 14.1597 25.8251C13.722 25.8251 13.282 25.6578 12.9475 25.3232C12.276 24.6541 12.2714 23.5678 12.9429 22.8941L18.3145 17.4949L18.3912 17.4242C18.4243 17.3947 18.4586 17.3665 18.494 17.3396L18.3145 17.4949C18.3785 17.4308 18.4473 17.373 18.52 17.3215C18.803 17.1129 19.1537 16.9898 19.533 16.9898ZM27.7454 5.97402L27.7468 8.96922C27.7468 11.2701 29.6168 13.1446 31.9176 13.1515L34.6319 13.1492L27.7454 5.97402Z" fill="url(#paint0_linear_30_3034)"/>
<defs>
<linearGradient id="paint0_linear_30_3034" x1="20.4158" y1="0.584015" x2="20.4158" y2="46.1089" gradientUnits="userSpaceOnUse">
<stop stop-color="#7652E5"/>
<stop offset="1" stop-color="#89CCDF"/>
</linearGradient>
</defs>
</svg>
