<svg width="22" height="23" viewBox="0 0 22 23" fill="none" xmlns="http://www.w3.org/2000/svg">
<path d="M11 0.75C7.38594 0.75 4.4375 3.69844 4.4375 7.3125C4.4375 9.54281 5.57188 11.5162 7.27906 12.7031C3.43063 14.205 0.6875 17.955 0.6875 22.3125H2.5625C2.5625 18.1894 5.55406 14.7431 9.47656 14.0212L10.0625 15.75H11.9375L12.5234 14.0212C16.4459 14.7431 19.4375 18.1894 19.4375 22.3125H21.3125C21.3125 17.955 18.5694 14.205 14.7209 12.7031C16.4272 11.5162 17.5625 9.54281 17.5625 7.3125C17.5625 3.69844 14.6141 0.75 11 0.75ZM11 2.625C13.5997 2.625 15.6875 4.71281 15.6875 7.3125C15.6875 9.91219 13.5997 12 11 12C8.40031 12 6.3125 9.91219 6.3125 7.3125C6.3125 4.71281 8.40031 2.625 11 2.625ZM10.0625 16.6875L9.125 22.3125H12.875L11.9375 16.6875H10.0625Z" fill="black"/>
</svg>
