<svg width="26" height="26" viewBox="0 0 26 26" fill="none" xmlns="http://www.w3.org/2000/svg">
<path d="M9.25001 7.37498H4.35626C5.56877 5.51153 7.35102 4.08982 9.43734 3.32177C11.5237 2.55371 13.8023 2.48045 15.9337 3.1129C18.065 3.74535 19.9349 5.04963 21.2646 6.83134C22.5943 8.61305 23.3126 10.7768 23.3125 13H25.1875C25.1901 10.4926 24.4193 8.04549 22.9801 5.99226C21.541 3.93904 19.5036 2.37965 17.1458 1.52673C14.788 0.67381 12.2245 0.568874 9.8048 1.22623C7.38515 1.88359 5.22713 3.27124 3.62501 5.19998V1.74998H1.75001V9.24998H9.25001V7.37498ZM16.75 18.625H21.6438C20.4312 20.4884 18.649 21.9101 16.5627 22.6782C14.4764 23.4462 12.1977 23.5195 10.0663 22.8871C7.935 22.2546 6.06511 20.9503 4.7354 19.1686C3.40569 17.3869 2.68736 15.2232 2.68751 13H0.812506C0.809925 15.5073 1.58075 17.9545 3.01988 20.0077C4.459 22.0609 6.49639 23.6203 8.85422 24.4732C11.212 25.3261 13.7756 25.4311 16.1952 24.7737C18.6149 24.1164 20.7729 22.7287 22.375 20.8V24.25H24.25V16.75H16.75V18.625Z" fill="black"/>
</svg>
