<svg width="18" height="16" viewBox="0 0 18 16" fill="none" xmlns="http://www.w3.org/2000/svg">
<path fill-rule="evenodd" clip-rule="evenodd" d="M16.0145 0.817281C16.2587 1.07366 16.2587 1.48928 16.0145 1.74566L2.86949 15.547C2.74782 15.6757 2.58782 15.7395 2.42782 15.7395C2.26782 15.7395 2.10782 15.6757 1.98616 15.547C1.74199 15.2907 1.74199 14.8759 1.98616 14.6195L3.62945 12.8951C2.45127 11.7636 1.45184 10.2383 0.717906 8.44221C0.649573 8.27596 0.649573 8.08871 0.717906 7.92333C1.56874 5.85483 2.76707 4.14246 4.18374 2.97258C6.92776 0.692374 10.5352 0.57134 13.3906 2.64474L15.1312 0.817281C15.3753 0.560906 15.7703 0.560906 16.0145 0.817281ZM15.706 5.03566C16.3093 5.87653 16.8393 6.84866 17.2818 7.92141C17.351 8.08766 17.351 8.27666 17.2818 8.44203C15.5352 12.6919 12.4393 15.2285 9.00016 15.2285C8.21932 15.2285 7.44266 15.0955 6.69266 14.8339C6.36516 14.7193 6.18766 14.3474 6.29682 14.0035C6.40599 13.6588 6.75849 13.4759 7.08766 13.5879C7.71016 13.8058 8.35349 13.916 9.00016 13.916C11.8568 13.916 14.4677 11.7793 16.0252 8.18216C15.6452 7.30803 15.2027 6.51616 14.7077 5.82491C14.5002 5.53528 14.5552 5.12316 14.831 4.90528C15.106 4.68741 15.4985 4.74691 15.706 5.03566ZM4.95791 4.00333C3.76124 4.99208 2.73374 6.43233 1.97541 8.18408C2.63661 9.71747 3.50526 11.0106 4.5142 11.9656L6.2957 10.0952C5.93327 9.53529 5.73824 8.87511 5.73824 8.18373C5.73824 6.29373 7.20157 4.75636 8.99991 4.75636C9.65239 4.75636 10.2907 4.96496 10.822 5.34199L12.49 3.59077C10.1126 1.97707 7.21915 2.12428 4.95791 4.00333ZM11.6979 8.02886C12.0379 8.09273 12.2637 8.43398 12.2029 8.79098C11.9637 10.1849 10.9121 11.2909 9.58541 11.5446C9.54791 11.5516 9.50957 11.5551 9.47291 11.5551C9.17707 11.5551 8.91374 11.3329 8.85874 11.0161C8.79707 10.66 9.02207 10.3179 9.36207 10.2531C10.1787 10.0974 10.8254 9.41661 10.9721 8.55823C11.0337 8.20211 11.3587 7.96761 11.6979 8.02886ZM8.99991 6.06886C7.89074 6.06886 6.98824 7.01736 6.98824 8.18373C6.98824 8.52094 7.06385 8.84645 7.20637 9.13876L9.91107 6.29849C9.63261 6.1495 9.31941 6.06886 8.99991 6.06886Z" fill="black"/>
</svg>
