<svg width="9" height="9" viewBox="0 0 9 9" fill="none" xmlns="http://www.w3.org/2000/svg">
<path d="M5.38127 4.49999L8.06877 1.81874C8.18646 1.70105 8.25258 1.54143 8.25258 1.37499C8.25258 1.20856 8.18646 1.04893 8.06877 0.931244C7.95108 0.813554 7.79146 0.747437 7.62502 0.747437C7.45858 0.747437 7.29896 0.813554 7.18127 0.931244L4.50002 3.61874L1.81877 0.931244C1.70108 0.813554 1.54146 0.747437 1.37502 0.747437C1.20858 0.747437 1.04896 0.813554 0.931273 0.931244C0.813583 1.04893 0.747466 1.20856 0.747466 1.37499C0.747466 1.54143 0.813583 1.70105 0.931273 1.81874L3.61877 4.49999L0.931273 7.18124C0.872693 7.23935 0.826196 7.30847 0.794466 7.38463C0.762735 7.46079 0.746399 7.54249 0.746399 7.62499C0.746399 7.7075 0.762735 7.78919 0.794466 7.86535C0.826196 7.94152 0.872693 8.01064 0.931273 8.06874C0.989375 8.12732 1.0585 8.17382 1.13466 8.20555C1.21082 8.23728 1.29252 8.25362 1.37502 8.25362C1.45753 8.25362 1.53922 8.23728 1.61538 8.20555C1.69155 8.17382 1.76067 8.12732 1.81877 8.06874L4.50002 5.38124L7.18127 8.06874C7.23938 8.12732 7.3085 8.17382 7.38466 8.20555C7.46082 8.23728 7.54252 8.25362 7.62502 8.25362C7.70753 8.25362 7.78922 8.23728 7.86538 8.20555C7.94155 8.17382 8.01067 8.12732 8.06877 8.06874C8.12735 8.01064 8.17385 7.94152 8.20558 7.86535C8.23731 7.78919 8.25365 7.7075 8.25365 7.62499C8.25365 7.54249 8.23731 7.46079 8.20558 7.38463C8.17385 7.30847 8.12735 7.23935 8.06877 7.18124L5.38127 4.49999Z" fill="black"/>
</svg>
