<svg width="19" height="17" viewBox="0 0 19 17" fill="none" xmlns="http://www.w3.org/2000/svg">
<path fill-rule="evenodd" clip-rule="evenodd" d="M13.8824 0.666666C16.6574 0.666666 18.7499 2.93083 18.7499 5.93333V11.6567C18.7499 13.1933 18.2066 14.5817 17.2191 15.5667C16.3333 16.4492 15.1841 16.9167 13.8958 16.9167H5.68492C4.39909 16.9167 3.25075 16.45 2.36409 15.5667C1.37659 14.5817 0.833252 13.1933 0.833252 11.6567V5.93333C0.833252 2.93083 2.92575 0.666666 5.70075 0.666666H13.8824ZM13.8824 1.91667H5.70075C3.60492 1.91667 2.08325 3.60583 2.08325 5.93333V11.6567C2.08325 12.8592 2.49659 13.9333 3.24659 14.6808C3.89325 15.3267 4.73742 15.6667 5.68742 15.6667H13.8824C13.8841 15.665 13.8908 15.6667 13.8958 15.6667C14.8466 15.6667 15.6899 15.3267 16.3366 14.6808C17.0874 13.9333 17.4999 12.8592 17.4999 11.6567V5.93333C17.4999 3.60583 15.9783 1.91667 13.8824 1.91667ZM15.1958 5.774C15.4133 6.0415 15.3724 6.43483 15.1049 6.65317L11.4016 9.66317C10.9333 10.0348 10.3733 10.2207 9.81409 10.2207C9.25659 10.2207 8.70075 10.0365 8.23575 9.66817L4.49825 6.65483C4.22909 6.43817 4.18742 6.044 4.40325 5.77567C4.62075 5.50817 5.01409 5.46567 5.28242 5.6815L9.01658 8.6915C9.48575 9.06317 10.1466 9.06317 10.6191 8.68817L14.3158 5.68317C14.5841 5.464 14.9774 5.50567 15.1958 5.774Z" fill="black"/>
</svg>
