<svg width="18" height="14" viewBox="0 0 18 14" fill="none" xmlns="http://www.w3.org/2000/svg">
<path fill-rule="evenodd" clip-rule="evenodd" d="M9.00243 0.333748C12.4491 0.336248 15.5441 2.75208 17.2824 6.79708C17.3508 6.95458 17.3508 7.13292 17.2824 7.29041C15.5449 11.3362 12.4491 13.7521 9.00243 13.7546H8.99743C5.55077 13.7521 2.45577 11.3362 0.717434 7.29041C0.649934 7.13292 0.649934 6.95458 0.717434 6.79708C2.45577 2.75208 5.5516 0.336248 8.99743 0.333748H9.00243ZM8.99993 1.58375C6.1366 1.58458 3.52493 3.62041 1.97493 7.04375C3.52493 10.4679 6.13577 12.5037 8.99993 12.5046C11.8641 12.5037 14.4749 10.4679 16.0249 7.04375C14.4749 3.62041 11.8641 1.58458 8.99993 1.58375ZM8.99968 3.78441C10.7972 3.78441 12.2597 5.24691 12.2597 7.04441C12.2597 8.84108 10.7972 10.3027 8.99968 10.3027C7.20218 10.3027 5.74052 8.84108 5.74052 7.04441C5.74052 5.24691 7.20218 3.78441 8.99968 3.78441ZM8.99968 5.03441C7.89135 5.03441 6.99052 5.93608 6.99052 7.04441C6.99052 8.15191 7.89135 9.05275 8.99968 9.05275C10.108 9.05275 11.0097 8.15191 11.0097 7.04441C11.0097 5.93608 10.108 5.03441 8.99968 5.03441Z" fill="black"/>
</svg>
