<svg width="33" height="27" viewBox="0 0 33 27" fill="none" xmlns="http://www.w3.org/2000/svg">
<path d="M32.1 7.37734V21.275C32.1 22.5679 31.5864 23.8079 30.6722 24.7221C29.7579 25.6364 28.518 26.15 27.225 26.15H5.77502C4.48209 26.15 3.24212 25.6364 2.32788 24.7221C1.41364 23.8079 0.900024 22.5679 0.900024 21.275V7.37734L16.0047 16.2654C16.1548 16.3539 16.3258 16.4006 16.5 16.4006C16.6742 16.4006 16.8453 16.3539 16.9953 16.2654L32.1 7.37734ZM27.225 0.799988C28.4246 0.799799 29.5821 1.24187 30.4761 2.04163C31.3701 2.84139 31.9379 3.94269 32.0708 5.13484L16.5 14.294L0.929275 5.13484C1.06218 3.94269 1.62996 2.84139 2.52397 2.04163C3.41799 1.24187 4.57549 0.799799 5.77502 0.799988H27.225Z" fill="url(#paint0_linear_41_353)"/>
<defs>
<linearGradient id="paint0_linear_41_353" x1="32" y1="3.5" x2="3" y2="26" gradientUnits="userSpaceOnUse">
<stop stop-color="#8CB6F8"/>
<stop offset="1" stop-color="#77CEF6"/>
</linearGradient>
</defs>
</svg>
