<svg width="15" height="18" viewBox="0 0 15 18" fill="none" xmlns="http://www.w3.org/2000/svg">
<path fill-rule="evenodd" clip-rule="evenodd" d="M7.3124 0.668373C9.74573 0.668373 11.7274 2.65004 11.7274 5.08587L11.7273 6.39971C13.2066 6.91455 14.2708 8.32288 14.2708 9.97571V13.5499C14.2708 15.6374 12.5733 17.3349 10.4858 17.3349H4.11831C2.03081 17.3349 0.333313 15.6374 0.333313 13.5499V9.97571C0.333313 8.32319 1.39708 6.91508 2.87598 6.4L2.87656 5.08587C2.88156 3.88587 3.34573 2.77837 4.18323 1.94837C5.02156 1.11754 6.12823 0.636706 7.3124 0.668373ZM10.4858 7.44071H4.11831C2.71998 7.44071 1.58331 8.57737 1.58331 9.97571V13.5499C1.58331 14.9482 2.71998 16.0849 4.11831 16.0849H10.4858C11.8833 16.0849 13.0208 14.9482 13.0208 13.5499V9.97571C13.0208 8.57737 11.8833 7.44071 10.4858 7.44071ZM7.3019 10.2122C7.6469 10.2122 7.9269 10.4922 7.9269 10.8372V12.688C7.9269 13.033 7.6469 13.313 7.3019 13.313C6.9569 13.313 6.6769 13.033 6.6769 12.688V10.8372C6.6769 10.4922 6.9569 10.2122 7.3019 10.2122ZM7.3099 1.91837H7.29656C6.4524 1.91837 5.66156 2.24337 5.06406 2.83587C4.4624 3.43087 4.1299 4.22504 4.12656 5.07171L4.12581 6.19023H10.4766L10.4774 5.08587C10.4774 3.33921 9.05656 1.91837 7.3099 1.91837Z" fill="black"/>
</svg>
