<svg width="12" height="10" viewBox="0 0 12 10" fill="none" xmlns="http://www.w3.org/2000/svg">
<path d="M0 4.92684C0 4.6507 0.205203 4.42248 0.47144 4.38636L0.545455 4.38138L10.1338 4.38182L6.66983 0.93198C6.45636 0.719426 6.45561 0.374064 6.66817 0.160593C6.8614 -0.0334721 7.16439 -0.0517292 7.37826 0.10625L7.43955 0.158932L11.8396 4.54002C11.8677 4.56804 11.8921 4.59836 11.9129 4.63039C11.9187 4.64002 11.9247 4.64989 11.9304 4.65994C11.9356 4.66857 11.9403 4.67752 11.9447 4.68657C11.9508 4.69974 11.9569 4.71335 11.9623 4.72723C11.9668 4.73794 11.9705 4.74835 11.9738 4.75884C11.9779 4.77186 11.9818 4.78573 11.9851 4.79981C11.9876 4.80964 11.9896 4.8191 11.9913 4.82859C11.9938 4.84273 11.9958 4.85735 11.9973 4.87215C11.9986 4.88343 11.9993 4.89462 11.9998 4.90581C11.9999 4.9126 12 4.9197 12 4.92684L11.9997 4.94797C11.9993 4.95867 11.9986 4.96937 11.9975 4.98004L12 4.92684C12 4.96126 11.9968 4.99494 11.9907 5.02759C11.9893 5.03539 11.9876 5.04339 11.9858 5.05136C11.9819 5.06778 11.9774 5.0836 11.9722 5.0991C11.9697 5.1068 11.9668 5.11503 11.9636 5.1232C11.9572 5.13961 11.9503 5.15526 11.9427 5.1705C11.9391 5.17766 11.9352 5.18516 11.931 5.19259C11.9242 5.2047 11.9172 5.21622 11.9098 5.22744C11.9045 5.23538 11.8987 5.24365 11.8927 5.25179L11.8879 5.25807C11.8733 5.27727 11.8573 5.29546 11.8402 5.31253L11.8396 5.31304L7.43959 9.69486C7.22613 9.90743 6.88077 9.90672 6.6682 9.69326C6.47495 9.49921 6.45797 9.19615 6.61686 8.98294L6.6698 8.92187L10.1324 5.47273L0.545455 5.47229C0.244208 5.47229 0 5.22808 0 4.92684Z" fill="white"/>
</svg>
