<svg width="14" height="18" viewBox="0 0 14 18" fill="none" xmlns="http://www.w3.org/2000/svg">
<path fill-rule="evenodd" clip-rule="evenodd" d="M13.5333 14.1609C13.5333 16.9076 9.76659 17.2251 6.93409 17.2251L6.73139 17.2249C4.92676 17.2205 0.333252 17.1066 0.333252 14.1442C0.333252 11.4536 3.94855 11.0941 6.75949 11.0805L7.13677 11.0803C8.94129 11.0846 13.5333 11.1986 13.5333 14.1609ZM6.93409 12.3301C3.38325 12.3301 1.58325 12.9401 1.58325 14.1442C1.58325 15.3592 3.38325 15.9751 6.93409 15.9751C10.4841 15.9751 12.2833 15.3651 12.2833 14.1609C12.2833 12.9459 10.4841 12.3301 6.93409 12.3301ZM6.93409 0.666416C9.37409 0.666416 11.3583 2.65142 11.3583 5.09142C11.3583 7.53142 9.37409 9.51558 6.93409 9.51558H6.90742C4.47242 9.50808 2.49992 7.52225 2.50823 5.08892C2.50823 2.65142 4.49325 0.666416 6.93409 0.666416ZM6.93409 1.85642C5.14992 1.85642 3.69823 3.30725 3.69823 5.09142C3.69242 6.86975 5.13325 8.31975 6.90992 8.32642L6.93409 8.92142V8.32642C8.71742 8.32642 10.1683 6.87475 10.1683 5.09142C10.1683 3.30725 8.71742 1.85642 6.93409 1.85642Z" fill="#020202"/>
</svg>
