<svg width="30" height="21" viewBox="0 0 30 21" fill="none" xmlns="http://www.w3.org/2000/svg">
<path d="M28.889 0.805556C28.6288 0.546874 28.2767 0.401676 27.9098 0.401676C27.5429 0.401676 27.1909 0.546874 26.9307 0.805556L11.514 16.1528L3.18066 7.81944C2.92649 7.54502 2.57372 7.3828 2.19995 7.36847C1.82618 7.35415 1.46203 7.48889 1.1876 7.74305C0.913176 7.99722 0.750957 8.34999 0.736632 8.72376C0.722306 9.09753 0.857047 9.46169 1.11121 9.73611L11.514 20.1111L28.889 2.77778C29.0192 2.64866 29.1225 2.49505 29.193 2.3258C29.2635 2.15655 29.2998 1.97502 29.2998 1.79167C29.2998 1.60832 29.2635 1.42678 29.193 1.25753C29.1225 1.08828 29.0192 0.934671 28.889 0.805556Z" fill="#4BB543"/>
</svg>
