<svg width="13" height="13" viewBox="0 0 13 13" fill="none" xmlns="http://www.w3.org/2000/svg">
<path fill-rule="evenodd" clip-rule="evenodd" d="M9.00147 0.312561C11.1196 0.312561 12.5427 1.79881 12.5427 4.01006V9.11506C12.5427 11.3263 11.1196 12.8126 9.00085 12.8126H3.58335C1.46522 12.8126 0.0427246 11.3263 0.0427246 9.11506V4.01006C0.0427246 1.79881 1.46522 0.312561 3.58335 0.312561H9.00147ZM9.00147 1.25006H3.58335C2.0021 1.25006 0.980225 2.33319 0.980225 4.01006V9.11506C0.980225 10.7919 2.0021 11.8751 3.58335 11.8751H9.00085C10.5827 11.8751 11.6052 10.7919 11.6052 9.11506V4.01006C11.6052 2.33319 10.5827 1.25006 9.00147 1.25006ZM8.84866 4.74819C9.03179 4.93131 9.03179 5.22756 8.84866 5.41069L5.88241 8.37694C5.79116 8.46881 5.67116 8.51444 5.55116 8.51444C5.43179 8.51444 5.31116 8.46881 5.21991 8.37694L3.73616 6.89381C3.55304 6.71069 3.55304 6.41444 3.73616 6.23131C3.91929 6.04819 4.21554 6.04819 4.39866 6.23131L5.55116 7.38256L8.18616 4.74819C8.36929 4.56506 8.66554 4.56506 8.84866 4.74819Z" fill="black"/>
</svg>
